<?xml version="1.0" standalone="no"?>
<!DOCTYPE svg PUBLIC "-//W3C//DTD SVG 20010904//EN"
 "http://www.w3.org/TR/2001/REC-SVG-20010904/DTD/svg10.dtd">
<svg version="1.0" xmlns="http://www.w3.org/2000/svg"
 width="160.000000pt" height="160.000000pt" viewBox="0 0 160.000000 160.000000"
 preserveAspectRatio="xMidYMid meet">
<metadata>
Created by potrace 1.11, written by Peter Selinger 2001-2013
</metadata>
<g transform="translate(0.000000,160.000000) scale(0.100000,-0.100000)"
fill="#000000" stroke="none">
<path d="M15 1568 c-3 -7 -4 -359 -3 -783 l3 -770 93 -3 92 -3 0 426 c0 412 1
426 20 445 20 20 33 20 568 20 479 0 550 -2 570 -16 l22 -15 0 -430 0 -429 88
0 c56 1 93 5 105 14 16 12 17 60 17 743 l0 730 -45 42 -45 41 -104 0 c-80 0
-106 -3 -116 -15 -7 -8 -21 -15 -31 -15 -11 0 -19 7 -19 15 0 10 -10 15 -32
15 l-33 0 -4 -243 c-2 -142 -7 -247 -13 -254 -13 -16 -642 -19 -682 -3 l-26
10 0 245 0 245 -104 0 c-80 0 -106 -3 -116 -15 -7 -8 -23 -15 -36 -15 -15 0
-24 6 -24 15 0 12 -14 15 -70 15 -47 0 -72 -4 -75 -12z m105 -1408 c0 -28 -3
-30 -35 -30 -37 0 -52 17 -41 45 3 9 19 15 41 15 32 0 35 -2 35 -30z m1420 0
c0 -29 -2 -30 -45 -30 -43 0 -45 1 -45 30 0 29 2 30 45 30 43 0 45 -1 45 -30z"/>
<path d="M871 1536 c-8 -9 -11 -69 -9 -192 l3 -179 99 -3 c73 -2 102 1 108 10
13 22 10 352 -4 366 -18 18 -182 16 -197 -2z"/>
<path d="M252 858 c-7 -7 -12 -31 -12 -55 l0 -43 550 0 550 0 0 49 c0 35 -4
51 -16 55 -9 3 -251 6 -538 6 -393 0 -525 -3 -534 -12z"/>
</g>
</svg>
