<?xml version="1.0" standalone="no"?>
<!DOCTYPE svg PUBLIC "-//W3C//DTD SVG 1.1//EN" "http://www.w3.org/Graphics/SVG/1.1/DTD/svg11.dtd" >
<svg xmlns="http://www.w3.org/2000/svg" xmlns:xlink="http://www.w3.org/1999/xlink" version="1.1">
<metadata>
Created by FontForge 20170731 at Thu Jul  2 18:17:47 2015
 By Aleksey,,,
Copyright 2015 Dalton Maag Ltd. All rights reserved. This font may not be altered in any way without prior permission of Dalton Maag Ltd.
</metadata>
<defs>
<font id="AktivGrotesk-Thin" horiz-adv-x="412" >
  <font-face 
    font-family="Aktiv Grotesk Thin"
    font-weight="275"
    font-stretch="normal"
    units-per-em="1000"
    panose-1="2 11 4 4 2 2 2 2 2 4"
    ascent="714"
    descent="-286"
    x-height="513"
    cap-height="714"
    bbox="-168 -213 1224 914"
    underline-thickness="68"
    underline-position="-201"
    unicode-range="U+0008-FEFF"
  />
<missing-glyph horiz-adv-x="500" 
d="M50 0v750h400v-750h-400zM400 700h-300v-650h300v650z" />
    <glyph glyph-name="f_i" unicode="fi" horiz-adv-x="495" 
d="M100 0v479h-79v34h79v62q0 68 38.5 107.5t103.5 39.5q32 0 70 -11l-8 -32q-37 9 -59 9q-52 0 -79.5 -28.5t-27.5 -83.5v-63h149v-34h-149v-479h-38zM385 0v513h38v-513h-38zM384 622v92h40v-92h-40z" />
    <glyph glyph-name="f_l" unicode="fl" horiz-adv-x="497" 
d="M100 0v479h-79v34h79v62q0 68 38.5 107.5t103.5 39.5q32 0 70 -11l-8 -32q-37 9 -59 9q-52 0 -79.5 -28.5t-27.5 -83.5v-63h149v-34h-149v-479h-38zM387 0v714h38v-714h-38z" />
    <glyph glyph-name="f_f" unicode="ff" horiz-adv-x="610" 
d="M100 0v479h-79v34h79v62q0 68 38.5 107.5t103.5 39.5q32 0 70 -11l-8 -32q-37 9 -59 9q-52 0 -79.5 -28.5t-27.5 -83.5v-63h149v-34h-149v-479h-38zM405 0v479h-79v34h79v62q0 68 38.5 107.5t103.5 39.5q32 0 70 -11l-8 -32q-37 9 -59 9q-52 0 -79.5 -28.5t-27.5 -83.5
v-63h149v-34h-149v-479h-38z" />
    <glyph glyph-name="f_f_i" unicode="ffi" horiz-adv-x="800" 
d="M100 0v479h-79v34h79v62q0 68 38.5 107.5t103.5 39.5q32 0 70 -11l-8 -32q-37 9 -59 9q-52 0 -79.5 -28.5t-27.5 -83.5v-63h149v-34h-149v-479h-38zM690 0v513h38v-513h-38zM689 622v92h40v-92h-40zM405 0v479h-79v34h79v62q0 68 38.5 107.5t103.5 39.5q32 0 70 -11
l-8 -32q-37 9 -59 9q-52 0 -79.5 -28.5t-27.5 -83.5v-63h149v-34h-149v-479h-38z" />
    <glyph glyph-name="f_f_l" unicode="ffl" horiz-adv-x="802" 
d="M100 0v479h-79v34h79v62q0 68 38.5 107.5t103.5 39.5q32 0 70 -11l-8 -32q-37 9 -59 9q-52 0 -79.5 -28.5t-27.5 -83.5v-63h149v-34h-149v-479h-38zM405 0v479h-79v34h79v62q0 68 38.5 107.5t103.5 39.5q32 0 70 -11l-8 -32q-37 9 -59 9q-52 0 -79.5 -28.5t-27.5 -83.5
v-63h149v-34h-149v-479h-38zM692 0v714h38v-714h-38z" />
    <glyph glyph-name=".notdef" horiz-adv-x="500" 
d="M50 0v750h400v-750h-400zM400 700h-300v-650h300v650z" />
    <glyph glyph-name=".null" horiz-adv-x="0" 
 />
    <glyph glyph-name=".null" horiz-adv-x="0" 
 />
    <glyph glyph-name=".null" horiz-adv-x="0" 
 />
    <glyph glyph-name="nonmarkingreturn" unicode="&#x9;" horiz-adv-x="225" 
 />
    <glyph glyph-name="nonmarkingreturn" unicode="&#xd;" horiz-adv-x="225" 
 />
    <glyph glyph-name="space" unicode=" " horiz-adv-x="225" 
 />
    <glyph glyph-name="exclam" unicode="!" horiz-adv-x="198" 
d="M81 185l-2 529h39l-2 -529h-35zM76 0v102h45v-102h-45z" />
    <glyph glyph-name="quotedbl" unicode="&#x22;" horiz-adv-x="271" 
d="M48 480l-4 234h40l-4 -234h-32zM191 480l-4 234h40l-4 -234h-32z" />
    <glyph glyph-name="numbersign" unicode="#" horiz-adv-x="592" 
d="M343 0l31 190h-207l-31 -190h-37l31 190h-115v31h120l42 249h-117v31h122l29 177h37l-29 -177h207l29 177h37l-29 -177h116v-31h-121l-42 -249h118v-31h-123l-31 -190h-37zM421 470h-207l-42 -249h207z" />
    <glyph glyph-name="dollar" unicode="$" horiz-adv-x="592" 
d="M276 -106v89q-101 4 -159 51.5t-67 134.5h35q21 -147 191 -153v323q-113 19 -159.5 61t-46.5 124q0 86 53.5 134.5t152.5 51.5v75h33v-76q86 -5 136.5 -46t71.5 -122l-35 -8q-21 70 -62 103.5t-111 37.5v-306l27 -4q97 -14 142 -59.5t45 -128.5q0 -91 -54.5 -140.5
t-159.5 -53.5v-88h-33zM309 334v-318q175 7 175 159q0 69 -36 105.5t-116 49.5zM276 675q-169 -5 -169 -150q0 -68 37.5 -101.5t131.5 -49.5v301z" />
    <glyph glyph-name="percent" unicode="%" horiz-adv-x="870" 
d="M238 0l354 691h40l-354 -691h-40zM664 -21q-78 0 -121 56t-43 157t43 157t121 56t121 -56t43 -157q0 -102 -42.5 -157.5t-121.5 -55.5zM664 12q61 0 93.5 46t32.5 134t-32.5 134t-93.5 46t-93.5 -46t-32.5 -134t32.5 -134t93.5 -46zM206 281q-78 0 -121 56t-43 157
t43 157t121 56t121 -56t43 -157q0 -102 -42.5 -157.5t-121.5 -55.5zM206 314q61 0 93.5 46t32.5 134t-32.5 134t-93.5 46t-93.5 -46t-32.5 -134t32.5 -134t93.5 -46z" />
    <glyph glyph-name="ampersand" unicode="&#x26;" horiz-adv-x="611" 
d="M558 0l-68 79q-71 -95 -219 -95q-109 0 -169 51.5t-60 144.5q0 73 38 123t132 100q-47 56 -65 93.5t-18 76.5q0 63 42 102t109 39q64 0 102 -37t38 -100q0 -39 -15 -67.5t-48 -54.5t-91 -58l220 -258q33 72 33 184h38q-3 -130 -47 -212l95 -111h-47zM233 379
q-85 -47 -118 -90t-33 -108q0 -80 48.5 -121.5t141.5 -41.5q132 0 195 88zM245 420q57 31 86.5 54.5t41 47.5t11.5 56q0 49 -28 76.5t-78 27.5q-52 0 -81 -29t-29 -79q0 -36 16.5 -69.5t60.5 -84.5z" />
    <glyph glyph-name="quotesingle" unicode="'" horiz-adv-x="128" 
d="M48 480l-4 234h40l-4 -234h-32z" />
    <glyph glyph-name="parenleft" unicode="(" horiz-adv-x="229" 
d="M175 -124q-112 179 -112 429t112 429h36q-54 -98 -80.5 -203t-26.5 -226t26.5 -226t80.5 -203h-36z" />
    <glyph glyph-name="parenright" unicode=")" horiz-adv-x="229" 
d="M18 -124q54 98 80.5 203t26.5 226t-26.5 226t-80.5 203h36q112 -179 112 -429t-112 -429h-36z" />
    <glyph glyph-name="asterisk" unicode="*" horiz-adv-x="354" 
d="M256 421l-79 113l-78 -113l-30 22l86 109l-120 43l15 34l114 -50l-5 135h38l-5 -135l113 50l14 -34l-120 -43l87 -109z" />
    <glyph glyph-name="plus" unicode="+" horiz-adv-x="592" 
d="M278 101v222h-207v35h207v220h36v-220h207v-35h-207v-222h-36z" />
    <glyph glyph-name="comma" unicode="," horiz-adv-x="179" 
d="M50 -87l31 189h44l-42 -189h-33z" />
    <glyph glyph-name="hyphen" unicode="-" horiz-adv-x="389" 
d="M50 269v38h289v-38h-289z" />
    <glyph glyph-name="period" unicode="." horiz-adv-x="179" 
d="M68 0v102h42v-102h-42z" />
    <glyph glyph-name="slash" unicode="/" horiz-adv-x="287" 
d="M12 0l224 734h39l-224 -734h-39z" />
    <glyph glyph-name="zero" unicode="0" horiz-adv-x="592" 
d="M295 -18q-119 0 -181.5 93t-62.5 271q0 176 63.5 270t182.5 94t181.5 -93t62.5 -271q0 -176 -63.5 -270t-182.5 -94zM296 18q203 0 203 328t-203 328t-203 -328t203 -328z" />
    <glyph glyph-name="one" unicode="1" horiz-adv-x="592" 
d="M316 0v651l-182 -107l-17 29l199 118h39v-691h-39z" />
    <glyph glyph-name="two" unicode="2" horiz-adv-x="592" 
d="M81 0v36l161 146q96 88 142.5 141.5t64.5 96t18 91.5q0 78 -43.5 120.5t-122.5 42.5q-73 0 -117.5 -35.5t-67.5 -113.5l-35 8q21 86 78.5 131.5t143.5 45.5q94 0 149.5 -53t55.5 -144q0 -57 -23 -107t-75 -108t-144 -141l-134 -120h381l-9 -37h-423z" />
    <glyph glyph-name="three" unicode="3" horiz-adv-x="592" 
d="M225 344v36h89q68 0 108 40t40 110t-42.5 107t-124.5 37q-76 0 -120 -33t-65 -108l-35 7q18 83 75 126.5t148 43.5q96 0 150 -47.5t54 -131.5q0 -60 -28.5 -103t-82.5 -64q126 -38 126 -177q0 -97 -59 -151t-165 -54q-102 0 -162.5 52.5t-63.5 144.5h37q16 -162 190 -162
q89 0 136 43t47 125q0 77 -42.5 118t-120.5 41h-89z" />
    <glyph glyph-name="four" unicode="4" horiz-adv-x="592" 
d="M399 0v189h-348v34l345 468h41v-468h102l-9 -34h-93v-189h-38zM399 640l-307 -417h307v417z" />
    <glyph glyph-name="five" unicode="5" horiz-adv-x="592" 
d="M116 167q23 -150 180 -150q180 0 180 193t-175 193q-103 0 -171 -75h-36l28 363h355v-36h-323l-23 -286q40 36 82.5 52t92.5 16q102 0 156 -58.5t54 -167.5q0 -111 -56.5 -170t-162.5 -59q-95 0 -152 48.5t-65 136.5h36z" />
    <glyph glyph-name="six" unicode="6" horiz-adv-x="592" 
d="M475 554q-20 65 -55 92.5t-96 27.5q-111 0 -162.5 -89.5t-51.5 -282.5q23 65 77.5 100t131.5 35q98 0 154 -59.5t56 -163.5q0 -106 -62 -169t-165 -63q-116 0 -173 85.5t-57 258.5q0 187 64.5 285.5t187.5 98.5q74 0 121 -37.5t64 -109.5zM307 18q84 0 133 52.5t49 143.5
q0 89 -45 138t-127 49q-89 0 -142 -49t-53 -132q0 -92 50.5 -147t134.5 -55z" />
    <glyph glyph-name="seven" unicode="7" horiz-adv-x="592" 
d="M192 0q53 181 117.5 340t149.5 315h-413v36h454v-36q-176 -325 -265 -655h-43z" />
    <glyph glyph-name="eight" unicode="8" horiz-adv-x="592" 
d="M388 353q73 -16 114 -63.5t41 -115.5q0 -90 -66 -141t-182 -51q-115 0 -180 51.5t-65 141.5q0 69 40.5 115t114.5 61q-62 16 -97 62t-35 110q0 86 60.5 136.5t163.5 50.5t163 -51t60 -137q0 -63 -35.5 -108.5t-96.5 -60.5zM502 177q0 75 -54 115.5t-153 40.5
q-98 0 -151 -41t-53 -117t53.5 -117.5t150.5 -41.5q98 0 152.5 42.5t54.5 118.5zM481 519q0 72 -49.5 114.5t-135.5 42.5t-135 -41.5t-49 -115.5q0 -72 48.5 -111.5t135.5 -39.5t136 40t49 111z" />
    <glyph glyph-name="nine" unicode="9" horiz-adv-x="592" 
d="M119 139q22 -121 160 -121q106 0 152.5 81t46.5 265v26q-22 -63 -76.5 -99.5t-127.5 -36.5q-101 0 -157 59t-56 165q0 105 61.5 168.5t162.5 63.5q114 0 172.5 -85.5t58.5 -251.5q0 -201 -57 -296t-178 -95q-88 0 -139.5 40.5t-60.5 116.5h38zM465 470q0 92 -49.5 148
t-130.5 56q-86 0 -135 -52.5t-49 -143.5q0 -92 45.5 -140t132.5 -48q83 0 134.5 49.5t51.5 130.5z" />
    <glyph glyph-name="colon" unicode=":" horiz-adv-x="179" 
d="M68 0v102h42v-102h-42zM68 411v102h42v-102h-42z" />
    <glyph glyph-name="semicolon" unicode=";" horiz-adv-x="179" 
d="M41 -87l31 189h44l-42 -189h-33zM68 411v102h42v-102h-42z" />
    <glyph glyph-name="less" unicode="&#x3c;" horiz-adv-x="592" 
d="M78 324v29l440 221v-39l-394 -196l394 -194v-41z" />
    <glyph glyph-name="equal" unicode="=" horiz-adv-x="592" 
d="M82 210v36h428v-36h-428zM82 435v36h428v-36h-428z" />
    <glyph glyph-name="greater" unicode="&#x3e;" horiz-adv-x="592" 
d="M74 104v39l394 196l-394 194v41l440 -220v-29z" />
    <glyph glyph-name="question" unicode="?" horiz-adv-x="492" 
d="M216 185v7q0 53 22.5 92.5t89.5 104.5q38 38 54.5 72.5t16.5 78.5q0 71 -42.5 111t-118.5 40q-70 0 -111.5 -35t-60.5 -110l-35 6q18 86 71 130t138 44q91 0 144 -50.5t53 -137.5q0 -49 -18.5 -87.5t-62.5 -82.5q-50 -50 -69.5 -75.5t-26 -46.5t-6.5 -52v-9h-38zM213 0
v102h45v-102h-45z" />
    <glyph glyph-name="at" unicode="@" horiz-adv-x="913" 
d="M764 -63q-48 -75 -123 -111t-184 -36q-195 0 -302.5 104.5t-107.5 294.5q0 134 54.5 241.5t155 170.5t231.5 63q111 0 198 -46t136.5 -132t49.5 -200q0 -83 -24.5 -148.5t-71 -103.5t-106.5 -38q-47 0 -73 23t-26 64v4q-58 -97 -163 -97q-78 0 -122.5 50t-44.5 138
q0 72 28.5 133.5t81 99t117.5 37.5q54 0 91 -26.5t53 -75.5l16 90h36l-59 -329q-2 -12 -2 -21q0 -28 18 -43.5t50 -15.5q47 0 83.5 31.5t58 89.5t21.5 134q0 103 -42 181.5t-121 122.5t-187 44q-114 0 -204 -54t-142 -155t-52 -233q0 -175 97.5 -269.5t276.5 -94.5
q92 0 155 27t108 86h41zM592 244q3 17 3 40q-1 60 -35.5 96t-90.5 36q-51 0 -93.5 -29.5t-68.5 -84t-26 -123.5q0 -77 33 -117t96 -40q68 0 113.5 48t62.5 140z" />
    <glyph glyph-name="A" unicode="A" horiz-adv-x="650" 
d="M586 0l-90 228h-346l-88 -228h-42l282 714h46l282 -714h-44zM323 671l-158 -406h317z" />
    <glyph glyph-name="B" unicode="B" horiz-adv-x="617" 
d="M84 0v714h239q110 0 166.5 -44.5t56.5 -129.5q0 -64 -31.5 -105.5t-91.5 -57.5q71 -17 108.5 -63t37.5 -119q0 -95 -60.5 -145t-174.5 -50h-250zM332 36q100 0 148 38t48 117q0 81 -48 123t-140 42h-217v-320h209zM334 393q84 0 128 37t44 108t-45.5 106t-139.5 35h-198
v-286h211z" />
    <glyph glyph-name="C" unicode="C" horiz-adv-x="696" 
d="M641 231q-16 -117 -90 -182.5t-189 -65.5q-143 0 -223.5 98.5t-80.5 275.5q0 117 35 201t102.5 129t163.5 45q107 0 177.5 -59.5t94.5 -168.5l-37 -9q-23 100 -82.5 150.5t-152.5 50.5q-124 0 -192.5 -88t-68.5 -249q0 -163 69.5 -251.5t197.5 -88.5q99 0 160.5 55
t77.5 157h38z" />
    <glyph glyph-name="D" unicode="D" horiz-adv-x="694" 
d="M84 0v714h235q154 0 235.5 -90.5t81.5 -262.5q0 -176 -86.5 -268.5t-250.5 -92.5h-215zM302 36q292 0 292 322q0 157 -70 238.5t-205 81.5h-195v-642h178z" />
    <glyph glyph-name="E" unicode="E" horiz-adv-x="580" 
d="M84 0v714h441v-37h-401v-290h381v-37h-381v-313h414l-11 -37h-443z" />
    <glyph glyph-name="F" unicode="F" horiz-adv-x="545" 
d="M124 341v-341h-40v714h418v-37h-378v-299h356v-37h-356z" />
    <glyph glyph-name="G" unicode="G" horiz-adv-x="698" 
d="M594 305h-210v36h250v-267q-48 -44 -114.5 -67.5t-139.5 -23.5q-154 0 -238 97.5t-84 275.5q0 115 36.5 199.5t106.5 130.5t168 46t162 -49t88 -143l-37 -9q-45 165 -214 165q-127 0 -198 -89t-71 -250q0 -163 73.5 -250.5t209.5 -87.5q61 0 116.5 18t95.5 51v217z" />
    <glyph glyph-name="H" unicode="H" horiz-adv-x="680" 
d="M556 0v351h-432v-351h-40v714h40v-326h432v326h40v-714h-40z" />
    <glyph glyph-name="I" unicode="I" horiz-adv-x="208" 
d="M84 0v714h40v-714h-40z" />
    <glyph glyph-name="J" unicode="J" horiz-adv-x="569" 
d="M450 714h40v-486q0 -120 -57.5 -182.5t-167.5 -62.5q-103 0 -163.5 54.5t-73.5 159.5h39q25 -178 200 -178q94 0 138.5 52t44.5 161v482z" />
    <glyph glyph-name="K" unicode="K" horiz-adv-x="629" 
d="M560 0l-276 423l-160 -157v-266h-40v714h40v-402l408 402h48l-267 -265l294 -449h-47z" />
    <glyph glyph-name="L" unicode="L" horiz-adv-x="548" 
d="M84 0v714h40v-677h399l-9 -37h-430z" />
    <glyph glyph-name="M" unicode="M" horiz-adv-x="823" 
d="M702 0v648l-272 -648h-37l-272 646v-646h-37v714h48l281 -668l280 668h46v-714h-37z" />
    <glyph glyph-name="N" unicode="N" horiz-adv-x="683" 
d="M553 0l-429 654v-654h-40v714h46l429 -655v655h40v-714h-46z" />
    <glyph glyph-name="O" unicode="O" horiz-adv-x="745" 
d="M372 -17q-145 0 -229.5 100.5t-84.5 273.5q0 112 37.5 196.5t108.5 131.5t169 47q145 0 229.5 -100.5t84.5 -273.5q0 -112 -37.5 -196.5t-108.5 -131.5t-169 -47zM372 19q83 0 144.5 39.5t95 116t33.5 183.5q0 158 -72.5 248t-199.5 90q-83 0 -144.5 -39.5t-95 -116
t-33.5 -183.5q0 -158 72.5 -248t199.5 -90z" />
    <glyph glyph-name="P" unicode="P" horiz-adv-x="607" 
d="M84 0v714h238q238 0 238 -205q0 -105 -60.5 -158.5t-180.5 -53.5h-196v-297h-39zM319 333q104 0 152 42.5t48 132.5t-47.5 130.5t-153.5 40.5h-195v-346h196z" />
    <glyph glyph-name="Q" unicode="Q" horiz-adv-x="745" 
d="M643 -70l-90 108q-75 -55 -181 -55q-145 0 -229.5 100.5t-84.5 273.5q0 112 37.5 196.5t108.5 131.5t169 47q145 0 229.5 -100.5t84.5 -273.5q0 -95 -27.5 -171t-79.5 -126l90 -109zM431 186l27 22l97 -118q44 44 67 112t23 156q0 158 -72.5 248t-199.5 90
q-83 0 -144.5 -39.5t-95 -116t-33.5 -183.5q0 -158 72.5 -248t199.5 -90q90 0 157 48z" />
    <glyph glyph-name="R" unicode="R" horiz-adv-x="617" 
d="M530 0l-149 326q-23 -4 -59 -4h-199v-322h-39v714h235q233 0 233 -192q0 -73 -33.5 -120.5t-98.5 -66.5l155 -335h-45zM320 358q99 0 145 39.5t46 123.5q0 82 -46.5 119.5t-150.5 37.5h-191v-320h197z" />
    <glyph glyph-name="S" unicode="S" horiz-adv-x="621" 
d="M270 353q-106 17 -155.5 62t-49.5 125q0 92 63.5 142t181.5 50q103 0 161.5 -40.5t82.5 -128.5l-37 -10q-23 78 -70.5 111t-138.5 33q-100 0 -151.5 -39t-51.5 -116q0 -65 39.5 -101t124.5 -49l90 -14q104 -16 154 -63.5t50 -130.5q0 -97 -63.5 -149t-181.5 -52
q-119 0 -189.5 49.5t-81.5 142.5h38q30 -156 232 -156q103 0 153 40.5t50 122.5q0 68 -40 106t-127 52z" />
    <glyph glyph-name="T" unicode="T" horiz-adv-x="578" 
d="M269 0v677h-251v37h542v-37h-251v-677h-40z" />
    <glyph glyph-name="U" unicode="U" horiz-adv-x="667" 
d="M548 714h40v-435q0 -296 -255 -296q-128 0 -191 74t-63 224v433h40v-437q0 -131 53 -194.5t162 -63.5t161.5 63t52.5 195v437z" />
    <glyph glyph-name="V" unicode="V" horiz-adv-x="629" 
d="M293 0l-273 714h43l253 -670l252 670h41l-272 -714h-44z" />
    <glyph glyph-name="W" unicode="W" horiz-adv-x="887" 
d="M623 0l-180 660l-180 -660h-44l-197 714h43l176 -662l183 659h43l180 -660l177 663h41l-196 -714h-46z" />
    <glyph glyph-name="X" unicode="X" horiz-adv-x="605" 
d="M541 0l-242 344l-238 -344h-44l259 375l-239 339h47l216 -309l218 309h44l-239 -340l265 -374h-47z" />
    <glyph glyph-name="Y" unicode="Y" horiz-adv-x="570" 
d="M267 0v309l-247 405h44l223 -369l221 369h42l-244 -404v-310h-39z" />
    <glyph glyph-name="Z" unicode="Z" horiz-adv-x="582" 
d="M39 0v33l450 644h-442v37h490v-33l-450 -644h456l-9 -37h-495z" />
    <glyph glyph-name="bracketleft" unicode="[" horiz-adv-x="253" 
d="M79 -124v858h161v-33h-123v-792h123v-33h-161z" />
    <glyph glyph-name="backslash" unicode="\" horiz-adv-x="287" 
d="M236 0l-224 734h39l224 -734h-39z" />
    <glyph glyph-name="bracketright" unicode="]" horiz-adv-x="253" 
d="M13 -124v33h123v792h-123v33h161v-858h-161z" />
    <glyph glyph-name="asciicircum" unicode="^" horiz-adv-x="592" 
d="M477 309l-182 356l-183 -356h-39l205 396h35l205 -396h-41z" />
    <glyph glyph-name="underscore" unicode="_" horiz-adv-x="500" 
d="M0 -157v34h500v-34h-500z" />
    <glyph glyph-name="grave" unicode="`" horiz-adv-x="549" 
d="M314 588l-121 130h50l112 -130h-41z" />
    <glyph glyph-name="a" unicode="a" horiz-adv-x="516" 
d="M410 0v86q-31 -48 -80.5 -73t-112.5 -25q-83 0 -129.5 41t-46.5 115q0 83 61 123.5t195 45.5l112 4v21q0 86 -34 121.5t-117 35.5q-70 0 -108 -23t-50 -73l-34 6q26 124 195 124q97 0 141.5 -44.5t44.5 -143.5v-341h-37zM409 286l-108 -4q-120 -5 -170.5 -37t-50.5 -101
q0 -60 36 -91t104 -31q88 0 140 49q28 26 38.5 49.5t10.5 63.5v102z" />
    <glyph glyph-name="b" unicode="b" horiz-adv-x="574" 
d="M72 0v714h38v-301q64 116 191 116q103 0 162 -72.5t59 -199.5t-61 -200t-167 -73q-64 0 -111.5 28t-72.5 81v-93h-38zM108 233q0 -62 15.5 -103.5t48.5 -70.5q49 -41 120 -41q91 0 140.5 62t49.5 177q0 113 -48 175.5t-136 62.5q-72 0 -122 -42q-33 -29 -50.5 -72.5
t-17.5 -96.5v-51z" />
    <glyph glyph-name="c" unicode="c" horiz-adv-x="542" 
d="M493 168q-14 -88 -68.5 -136t-141.5 -48q-108 0 -169.5 71.5t-61.5 197.5q0 128 63 202t172 74q80 0 130.5 -42t66.5 -124l-35 -8q-17 71 -56.5 105.5t-106.5 34.5q-92 0 -143 -64t-51 -177q0 -112 50 -174t142 -62q71 0 114.5 38t57.5 112h37z" />
    <glyph glyph-name="d" unicode="d" horiz-adv-x="574" 
d="M464 0v100q-64 -116 -191 -116q-103 0 -162 72.5t-59 199.5t61 200t167 73q64 0 111.5 -28t72.5 -81v294h38v-714h-38zM466 280q0 62 -15.5 103.5t-48.5 70.5q-49 41 -120 41q-91 0 -140.5 -62t-49.5 -177q0 -113 48 -175.5t136 -62.5q72 0 122 42q33 29 50.5 72.5
t17.5 96.5v51z" />
    <glyph glyph-name="e" unicode="e" horiz-adv-x="545" 
d="M484 128q-14 -68 -67 -106t-133 -38q-111 0 -171.5 70t-60.5 199q0 130 61 203t170 73q101 0 156.5 -66.5t55.5 -189.5v-26h-405q0 -110 51 -169.5t146 -59.5q65 0 106 28t55 82h36zM457 280q0 106 -44 160.5t-131 54.5t-136.5 -55t-55.5 -160h367z" />
    <glyph glyph-name="f" unicode="f" horiz-adv-x="305" 
d="M100 0v479h-79v34h79v62q0 68 38.5 107.5t103.5 39.5q32 0 70 -11l-8 -32q-37 9 -59 9q-52 0 -79.5 -28.5t-27.5 -83.5v-63h149v-34h-149v-479h-38z" />
    <glyph glyph-name="g" unicode="g" horiz-adv-x="574" 
d="M464 121q-64 -113 -192 -113q-103 0 -161.5 69.5t-58.5 190.5t61 191t166 70q65 0 112.5 -27.5t72.5 -78.5v90h38v-502q0 -110 -54 -163t-164 -53q-95 0 -149 37t-62 106h36q10 -55 53.5 -82t122.5 -27q95 0 137 42.5t42 140.5v109zM466 291q0 58 -15.5 98t-48.5 67
q-48 39 -119 39q-92 0 -141.5 -59t-49.5 -168q0 -108 48.5 -167t136.5 -59q70 0 121 40q33 27 50.5 68t17.5 92v49z" />
    <glyph glyph-name="h" unicode="h" horiz-adv-x="549" 
d="M442 0v333q0 82 -33.5 121.5t-104.5 39.5q-82 0 -144 -56q-29 -26 -39.5 -53t-10.5 -74v-311h-38v714h38v-289q77 104 200 104q83 0 126.5 -47.5t43.5 -139.5v-342h-38z" />
    <glyph glyph-name="i" unicode="i" horiz-adv-x="182" 
d="M72 0v513h38v-513h-38zM71 622v92h40v-92h-40z" />
    <glyph glyph-name="j" unicode="j" horiz-adv-x="182" 
d="M72 513h38v-539q0 -83 -29 -121.5t-90 -38.5q-47 0 -88 16l9 32q41 -14 76 -14q84 0 84 107v558zM71 622v92h40v-92h-40z" />
    <glyph glyph-name="k" unicode="k" horiz-adv-x="484" 
d="M432 0l-194 320l-128 -115v-205h-38v714h38v-467l294 266h48l-186 -170l210 -343h-44z" />
    <glyph glyph-name="l" unicode="l" horiz-adv-x="182" 
d="M72 0v714h38v-714h-38z" />
    <glyph glyph-name="m" unicode="m" horiz-adv-x="847" 
d="M740 0v345q0 76 -30 112.5t-95 36.5q-36 0 -66 -12.5t-60 -40.5q-26 -24 -35.5 -49t-9.5 -68v-324h-38v345q0 76 -29.5 112.5t-90.5 36.5q-74 0 -130 -56q-26 -26 -36 -53.5t-10 -71.5v-313h-38v513h38v-87q73 103 180 103q56 0 93 -27.5t52 -80.5q73 108 190 108
q74 0 113.5 -44.5t39.5 -128.5v-356h-38z" />
    <glyph glyph-name="n" unicode="n" horiz-adv-x="549" 
d="M442 0v333q0 82 -33.5 121.5t-104.5 39.5q-82 0 -144 -56q-29 -26 -39.5 -53t-10.5 -74v-311h-38v513h38v-88q77 104 200 104q83 0 126.5 -47.5t43.5 -139.5v-342h-38z" />
    <glyph glyph-name="o" unicode="o" horiz-adv-x="578" 
d="M288 -16q-110 0 -173 72.5t-63 199.5q0 82 28.5 143.5t82 95.5t127.5 34q110 0 173 -72.5t63 -200.5q0 -81 -28.5 -142.5t-82 -95.5t-127.5 -34zM289 18q94 0 145.5 62.5t51.5 175.5q0 115 -51.5 177t-145.5 62t-145.5 -62t-51.5 -177q0 -113 51.5 -175.5t145.5 -62.5z
" />
    <glyph glyph-name="p" unicode="p" horiz-adv-x="574" 
d="M72 -194v707h38v-100q64 116 191 116q103 0 162 -72t59 -199q0 -128 -61 -201t-167 -73q-64 0 -111.5 28t-72.5 81v-287h-38zM108 233q0 -62 15.5 -103.5t48.5 -70.5q49 -41 120 -41q91 0 140.5 62t49.5 177q0 113 -48 175.5t-136 62.5q-72 0 -122 -42
q-33 -29 -50.5 -72.5t-17.5 -96.5v-51z" />
    <glyph glyph-name="q" unicode="q" horiz-adv-x="574" 
d="M464 -194v294q-64 -116 -191 -116q-103 0 -162 72.5t-59 199.5t61 200t167 73q64 0 111.5 -28t72.5 -81v93h38v-707h-38zM466 280q0 62 -15.5 103.5t-48.5 70.5q-49 41 -120 41q-91 0 -140.5 -62t-49.5 -177q0 -113 48 -175.5t136 -62.5q72 0 122 42q33 29 50.5 72.5
t17.5 96.5v51z" />
    <glyph glyph-name="r" unicode="r" horiz-adv-x="333" 
d="M72 0v513h38v-89q65 97 169 97q17 0 38 -3l-5 -37q-19 3 -34 3q-40 0 -72.5 -15t-60.5 -47q-19 -21 -27 -45t-8 -62v-315h-38z" />
    <glyph glyph-name="s" unicode="s" horiz-adv-x="505" 
d="M406 395q-19 56 -54 78t-103 22q-151 0 -151 -106q0 -44 27.5 -66.5t96.5 -34.5l64 -11q89 -15 127.5 -48t38.5 -95q0 -73 -49.5 -111.5t-143.5 -38.5q-96 0 -150.5 39.5t-62.5 113.5h37q10 -61 52.5 -90t121.5 -29t117.5 28t38.5 86q0 48 -30 73t-102 37l-55 9
q-88 14 -126.5 45.5t-38.5 89.5q0 68 49.5 105.5t139.5 37.5q80 0 126.5 -31t63.5 -96z" />
    <glyph glyph-name="t" unicode="t" horiz-adv-x="323" 
d="M310 5q-34 -16 -82 -16q-128 0 -128 147v343h-79v34h79v142h38v-142h161v-34h-161v-346q0 -57 23 -83.5t71 -26.5q37 0 68 12z" />
    <glyph glyph-name="u" unicode="u" horiz-adv-x="538" 
d="M428 0v88q-74 -104 -194 -104q-81 0 -123 47.5t-42 139.5v342h38v-333q0 -83 32.5 -122t100.5 -39q80 0 140 56q27 26 37.5 53t10.5 74v311h38v-513h-38z" />
    <glyph glyph-name="v" unicode="v" horiz-adv-x="480" 
d="M218 0l-210 513h42l190 -471l192 471h40l-210 -513h-44z" />
    <glyph glyph-name="w" unicode="w" horiz-adv-x="693" 
d="M488 0l-142 469l-141 -469h-44l-150 513h41l132 -471l143 468h42l142 -468l132 471h39l-150 -513h-44z" />
    <glyph glyph-name="x" unicode="x" horiz-adv-x="458" 
d="M408 0l-179 245l-176 -245h-42l196 272l-179 241h44l158 -215l159 215h41l-177 -241l199 -272h-44z" />
    <glyph glyph-name="y" unicode="y" horiz-adv-x="481" 
d="M231 6l-223 507h42l201 -463l181 463h41l-241 -601q-23 -58 -51.5 -82t-72.5 -24q-32 0 -66 11l9 32q26 -9 54 -9q34 0 54.5 19.5t40.5 69.5z" />
    <glyph glyph-name="z" unicode="z" horiz-adv-x="444" 
d="M27 0v30l332 450h-325v33h371v-31l-332 -449h349l-8 -33h-387z" />
    <glyph glyph-name="braceleft" unicode="{" horiz-adv-x="260" 
d="M199 -124q-49 0 -72.5 24.5t-23.5 74.5v240q0 38 -16.5 55.5t-52.5 17.5h-4v34h4q36 0 52.5 17.5t16.5 55.5v240q0 50 23.5 74.5t72.5 24.5h51v-33h-55q-54 0 -54 -61v-251q0 -72 -53 -84q53 -12 53 -84v-251q0 -61 54 -61h55v-33h-51z" />
    <glyph glyph-name="bar" unicode="|" horiz-adv-x="197" 
d="M79 -124v858h39v-858h-39z" />
    <glyph glyph-name="braceright" unicode="}" horiz-adv-x="260" 
d="M10 -124v33h55q54 0 54 61v251q0 72 53 84q-53 12 -53 84v251q0 61 -54 61h-55v33h51q49 0 72.5 -24.5t23.5 -74.5v-240q0 -38 16.5 -55.5t52.5 -17.5h4v-34h-4q-36 0 -52.5 -17.5t-16.5 -55.5v-240q0 -50 -23.5 -74.5t-72.5 -24.5h-51z" />
    <glyph glyph-name="asciitilde" unicode="~" horiz-adv-x="592" 
d="M533 404q0 -70 -30 -108.5t-86 -38.5q-34 0 -62.5 15t-72.5 55q-38 34 -61 46.5t-48 12.5q-80 0 -80 -114h-34q0 70 30 108.5t86 38.5q34 0 62.5 -15t72.5 -55q38 -34 61 -46.5t48 -12.5q80 0 80 114h34z" />
    <glyph glyph-name="uni00A0" unicode="&#xa0;" horiz-adv-x="225" 
 />
    <glyph glyph-name="exclamdown" unicode="&#xa1;" horiz-adv-x="198" 
d="M80 -201l2 529h35l2 -529h-39zM77 411v102h45v-102h-45z" />
    <glyph glyph-name="cent" unicode="&#xa2;" horiz-adv-x="592" 
d="M294 -9v79q-103 5 -161 76t-58 192q0 78 26 138.5t75.5 96t117.5 40.5v82h33v-81q77 -3 125.5 -44.5t64.5 -118.5l-35 -8q-32 131 -155 138v-478q65 4 106 42.5t55 109.5h38q-14 -85 -65.5 -132.5t-133.5 -52.5v-79h-33zM294 580q-85 -7 -132 -70t-47 -170
q0 -108 47 -170t132 -67v477z" />
    <glyph glyph-name="sterling" unicode="&#xa3;" horiz-adv-x="592" 
d="M93 0v36q61 70 61 200q0 32 -7 91h-73v34h69q-14 90 -14 130q0 104 55 161.5t154 57.5q76 0 122 -37.5t64 -114.5l-35 -9q-20 68 -55.5 97t-97.5 29q-81 0 -124.5 -46.5t-43.5 -135.5q0 -44 13 -132h241v-34h-236q6 -62 6 -91q0 -126 -56 -200h405l-9 -36h-439z" />
    <glyph glyph-name="currency" unicode="&#xa4;" horiz-adv-x="592" 
d="M490 95l-57 60q-54 -45 -140 -45q-84 0 -137 44l-55 -59l-26 24l56 60q-51 62 -51 165t52 166l-56 62l25 24l56 -61q53 46 138 46q84 0 138 -46l57 61l25 -24l-57 -62q51 -65 51 -164q0 -102 -52 -165l59 -62zM295 145q83 0 128.5 52.5t45.5 147.5q0 96 -45.5 148.5
t-128.5 52.5t-129 -53t-46 -148t46 -147.5t129 -52.5z" />
    <glyph glyph-name="yen" unicode="&#xa5;" horiz-adv-x="592" 
d="M317 179v-179h-39v179h-194v34h194v93l-23 34h-171v34h151l-198 317h43l217 -352l218 352h41l-198 -317h156v-34h-177l-20 -33v-94h197v-34h-197z" />
    <glyph glyph-name="brokenbar" unicode="&#xa6;" horiz-adv-x="197" 
d="M79 -124v353h39v-353h-39zM79 398v336h39v-336h-39z" />
    <glyph glyph-name="section" unicode="&#xa7;" horiz-adv-x="498" 
d="M206 165q-82 21 -120 57.5t-38 93.5q0 56 31.5 94t86.5 49q-58 20 -85.5 52t-27.5 79q0 67 51.5 104.5t144.5 37.5q83 0 131 -31t67 -97l-34 -8q-13 39 -33.5 61t-52.5 31.5t-80 9.5q-79 0 -118 -26.5t-39 -80.5q0 -43 28 -69.5t89 -42.5l89 -23q82 -22 120 -58t38 -93
q0 -55 -32 -93t-87 -49q62 -20 89.5 -52t27.5 -84q0 -72 -50 -110t-144 -38q-97 0 -151.5 39.5t-61.5 113.5h37q10 -62 52.5 -91t122.5 -29t118.5 28t38.5 85q0 45 -27.5 72.5t-88.5 43.5zM245 190q24 -7 44 -7q56 0 91.5 33.5t35.5 86.5q0 45 -30 73.5t-96 45.5l-38 10
q-24 6 -46 6q-53 0 -86 -33.5t-33 -86.5q0 -45 29 -73t96 -46z" />
    <glyph glyph-name="dieresis" unicode="&#xa8;" horiz-adv-x="549" 
d="M178 622v92h40v-92h-40zM331 622v92h40v-92h-40z" />
    <glyph glyph-name="copyright" unicode="&#xa9;" horiz-adv-x="776" 
d="M387 33q86 0 154.5 40t108.5 114t40 171q0 92 -36.5 164.5t-105 115t-158.5 42.5q-87 0 -155.5 -40t-108.5 -113.5t-40 -170.5q0 -93 37 -166t105.5 -115t158.5 -42zM386 0q-96 0 -172.5 43.5t-121 124.5t-44.5 187q0 102 42.5 183t121 128.5t180.5 47.5q96 0 172 -43
t120 -124t44 -188q0 -102 -42 -183t-120 -128.5t-180 -47.5zM554 289q-11 -67 -53.5 -103t-108.5 -36q-84 0 -132 55t-48 150q0 97 49 153t134 56q61 0 100 -32t53 -93l-34 -7q-12 51 -41.5 75.5t-78.5 24.5q-69 0 -106.5 -45.5t-37.5 -129.5t37 -130t105 -46
q52 0 84.5 27.5t41.5 80.5h36z" />
    <glyph glyph-name="ordfeminine" unicode="&#xaa;" horiz-adv-x="416" 
d="M318 343v58q-49 -66 -138 -66q-62 0 -97 30.5t-35 85.5q0 61 46 91t144 34l79 3v13q0 61 -24 86t-83 25q-48 0 -74.5 -16.5t-37.5 -52.5l-30 5q18 93 144 93q74 0 107.5 -33.5t33.5 -105.5v-250h-35zM318 551l-76 -4q-87 -4 -122.5 -25.5t-35.5 -70.5q0 -85 100 -85
q31 0 55 8.5t46 27.5q19 17 26 33.5t7 46.5v69z" />
    <glyph glyph-name="guillemotleft" unicode="&#xab;" horiz-adv-x="449" 
d="M188 34l-144 222l144 222h38l-139 -222l139 -222h-38zM368 34l-144 222l144 222h38l-139 -222l139 -222h-38z" />
    <glyph glyph-name="logicalnot" unicode="&#xac;" horiz-adv-x="592" 
d="M475 161v226h-413v36h448v-262h-35z" />
    <glyph glyph-name="uni00AD" unicode="&#xad;" horiz-adv-x="389" 
d="M50 269v38h289v-38h-289z" />
    <glyph glyph-name="registered" unicode="&#xae;" horiz-adv-x="473" 
d="M236 309q-89 0 -143.5 57.5t-54.5 151.5q0 91 55.5 149.5t142.5 58.5q91 0 145 -56t54 -152q0 -58 -24.5 -105.5t-70 -75.5t-104.5 -28zM236 338q75 0 121 49t46 131q0 83 -45 131t-122 48q-75 0 -120.5 -49t-45.5 -130q0 -83 44.5 -131.5t121.5 -48.5zM293 421l-41 81
h-59v-81h-30v202h82q36 0 55 -15t19 -44q0 -40 -38 -55l45 -88h-33zM245 529q44 0 44 36q0 33 -46 33h-50v-69h52z" />
    <glyph glyph-name="macron" unicode="&#xaf;" horiz-adv-x="549" 
d="M155 630v34h238v-34h-238z" />
    <glyph glyph-name="degree" unicode="&#xb0;" horiz-adv-x="310" 
d="M285 581q0 -56 -37 -93t-92 -37q-56 0 -93.5 37t-37.5 93q0 35 16.5 64.5t46.5 47t68 17.5q56 0 92.5 -36.5t36.5 -92.5zM252 581q0 43 -27 70.5t-70 27.5q-42 0 -69 -27.5t-27 -70.5q0 -44 27 -71.5t70 -27.5q42 0 69 28t27 71z" />
    <glyph glyph-name="plusminus" unicode="&#xb1;" horiz-adv-x="592" 
d="M70 0v35h452v-35h-452zM278 101v222h-207v35h207v220h36v-220h207v-35h-207v-222h-36z" />
    <glyph glyph-name="uni00B2" unicode="&#xb2;" 
d="M70 295v29q42 37 99 83q77 65 103.5 101.5t26.5 78.5q0 43 -23.5 65.5t-67.5 22.5q-82 0 -105 -82l-33 6q29 108 138 108q60 0 94 -31.5t34 -87.5q0 -47 -30 -90t-111 -111l-70 -59h214l-8 -33h-261z" />
    <glyph glyph-name="uni00B3" unicode="&#xb3;" 
d="M157 488v29h55q38 0 59.5 22t21.5 60t-23.5 58t-67.5 20q-43 0 -68.5 -19t-37.5 -60l-32 6q25 103 139 103q59 0 92 -28t33 -79q0 -67 -59 -94q33 -12 50.5 -39t17.5 -66q0 -57 -35.5 -88.5t-100.5 -31.5q-63 0 -101.5 31.5t-40.5 86.5h32q11 -88 109 -88q50 0 75.5 23
t25.5 67q0 41 -22.5 64t-62.5 23h-59z" />
    <glyph glyph-name="acute" unicode="&#xb4;" horiz-adv-x="549" 
d="M193 588l112 130h50l-121 -130h-41z" />
    <glyph glyph-name="mu" unicode="&#xb5;" horiz-adv-x="541" 
d="M431 0v88q-75 -104 -192 -104q-93 0 -129 66v-244h-38v707h38v-333q0 -83 32.5 -122t101.5 -39q79 0 139 56q27 26 37.5 53t10.5 74v311h38v-513h-38z" />
    <glyph glyph-name="paragraph" unicode="&#xb6;" horiz-adv-x="543" 
d="M427 -139v819h-137v-819h-39v467q-109 0 -166 49t-57 141q0 97 64.5 146.5t191.5 49.5h182v-853h-39z" />
    <glyph glyph-name="periodcentered" unicode="&#xb7;" horiz-adv-x="179" 
d="M68 322v102h42v-102h-42z" />
    <glyph glyph-name="cedilla" unicode="&#xb8;" horiz-adv-x="549" 
d="M191 -156q30 -5 56 -5q39 0 56.5 9.5t17.5 31.5t-19 31.5t-66 9.5h-13l28 82l29 -3l-17 -53q95 -6 95 -69q0 -36 -27 -52.5t-85 -16.5q-35 0 -55 4v31z" />
    <glyph glyph-name="uni00B9" unicode="&#xb9;" 
d="M208 294v361l-107 -54l-15 29l121 64h38v-400h-37z" />
    <glyph glyph-name="ordmasculine" unicode="&#xba;" horiz-adv-x="435" 
d="M217 334q-81 0 -129.5 54t-48.5 143q0 91 50 146t132 55q80 0 127.5 -53t47.5 -144q0 -92 -48.5 -146.5t-130.5 -54.5zM217 365q68 0 106 44.5t38 124.5q0 79 -37.5 123t-104.5 44q-68 0 -106.5 -45.5t-38.5 -124.5q0 -78 38 -122t105 -44z" />
    <glyph glyph-name="guillemotright" unicode="&#xbb;" horiz-adv-x="449" 
d="M43 34l139 222l-139 222h38l144 -222l-144 -222h-38zM223 34l139 222l-139 222h38l144 -222l-144 -222h-38z" />
    <glyph glyph-name="onequarter" unicode="&#xbc;" horiz-adv-x="887" 
d="M231 0l354 691h40l-354 -691h-40zM745 -2v108h-206v25l207 267h33v-262h51l-8 -30h-43v-108h-34zM745 352l-167 -216h167v216zM166 294v361l-107 -54l-15 29l121 64h38v-400h-37z" />
    <glyph glyph-name="onehalf" unicode="&#xbd;" horiz-adv-x="887" 
d="M210 0l354 691h40l-354 -691h-40zM546 -1v29q42 37 99 83q77 65 103.5 101.5t26.5 78.5q0 43 -23.5 65.5t-67.5 22.5q-82 0 -105 -82l-33 6q29 108 138 108q60 0 94 -31.5t34 -87.5q0 -47 -30 -90t-111 -111l-70 -59h214l-8 -33h-261zM166 294v361l-107 -54l-15 29
l121 64h38v-400h-37z" />
    <glyph glyph-name="threequarters" unicode="&#xbe;" horiz-adv-x="887" 
d="M277 0l354 691h40l-354 -691h-40zM745 -2v108h-206v25l207 267h33v-262h51l-8 -30h-43v-108h-34zM745 352l-167 -216h167v216zM155 488v29h55q38 0 59.5 22t21.5 60t-23.5 58t-67.5 20q-43 0 -68.5 -19t-37.5 -60l-32 6q25 103 139 103q59 0 92 -28t33 -79q0 -67 -59 -94
q33 -12 50.5 -39t17.5 -66q0 -57 -35.5 -88.5t-100.5 -31.5q-63 0 -101.5 31.5t-40.5 86.5h32q11 -88 109 -88q50 0 75.5 23t25.5 67q0 41 -22.5 64t-62.5 23h-59z" />
    <glyph glyph-name="questiondown" unicode="&#xbf;" horiz-adv-x="492" 
d="M461 -39q-18 -86 -71 -130t-138 -44q-91 0 -144 50.5t-53 137.5q0 49 18.5 87.5t62.5 82.5q50 50 69.5 75.5t26 46.5t6.5 52v9h38v-7q0 -53 -22.5 -92.5t-89.5 -104.5q-38 -38 -54.5 -72.5t-16.5 -78.5q0 -71 42.5 -111t118.5 -40q70 0 111.5 35t60.5 110zM234 411v102
h45v-102h-45z" />
    <glyph glyph-name="Agrave" unicode="&#xc0;" horiz-adv-x="650" 
d="M586 0l-90 228h-346l-88 -228h-42l282 714h46l282 -714h-44zM323 671l-158 -406h317zM334 774l-121 126h51l112 -126h-42z" />
    <glyph glyph-name="Aacute" unicode="&#xc1;" horiz-adv-x="650" 
d="M586 0l-90 228h-346l-88 -228h-42l282 714h46l282 -714h-44zM323 671l-158 -406h317zM274 774l112 126h51l-121 -126h-42z" />
    <glyph glyph-name="Acircumflex" unicode="&#xc2;" horiz-adv-x="650" 
d="M586 0l-90 228h-346l-88 -228h-42l282 714h46l282 -714h-44zM323 671l-158 -406h317zM414 774l-89 95l-89 -95h-41l111 126h38l111 -126h-41z" />
    <glyph glyph-name="Atilde" unicode="&#xc3;" horiz-adv-x="650" 
d="M586 0l-90 228h-346l-88 -228h-42l282 714h46l282 -714h-44zM323 671l-158 -406h317zM488 874q0 -43 -23.5 -68.5t-63.5 -25.5q-20 0 -37 6.5t-39 22.5q-26 19 -42 26.5t-33 7.5q-26 0 -40 -16t-15 -45h-33q0 43 23.5 68.5t63.5 25.5q20 0 37 -6.5t39 -22.5
q26 -19 42 -26.5t33 -7.5q26 0 40 16t15 45h33z" />
    <glyph glyph-name="Adieresis" unicode="&#xc4;" horiz-adv-x="650" 
d="M586 0l-90 228h-346l-88 -228h-42l282 714h46l282 -714h-44zM323 671l-158 -406h317zM223 793v92h42v-92h-42zM385 793v92h42v-92h-42z" />
    <glyph glyph-name="Aring" unicode="&#xc5;" horiz-adv-x="650" 
d="M586 0l-90 228h-346l-88 -228h-42l273 691q-27 8 -42 30t-15 53q0 42 24 66t64 24t64 -24t24 -66q0 -31 -14.5 -53t-40.5 -30l273 -691h-44zM323 671l-158 -406h317zM324 714q27 0 42 15.5t15 44.5t-14.5 45t-42.5 16t-42.5 -16t-14.5 -45t15 -44.5t42 -15.5z" />
    <glyph glyph-name="AE" unicode="&#xc6;" horiz-adv-x="1010" 
d="M542 0v259h-323l-155 -259h-44l428 714h508v-37h-376v-290h356v-37h-356v-313h388l-10 -37h-416zM542 677h-74l-228 -381h302v381z" />
    <glyph glyph-name="Ccedilla" unicode="&#xc7;" horiz-adv-x="696" 
d="M641 231q-16 -117 -90 -182.5t-189 -65.5q-143 0 -223.5 98.5t-80.5 275.5q0 117 35 201t102.5 129t163.5 45q107 0 177.5 -59.5t94.5 -168.5l-37 -9q-23 100 -82.5 150.5t-152.5 50.5q-124 0 -192.5 -88t-68.5 -249q0 -163 69.5 -251.5t197.5 -88.5q99 0 160.5 55
t77.5 157h38zM285 -170q25 -4 53 -4q43 0 62 9.5t19 32.5t-21 32.5t-70 9.5h-14l33 93l32 -3l-23 -62q52 -3 76.5 -20.5t24.5 -51.5q0 -37 -28 -54.5t-89 -17.5q-36 0 -55 4v32z" />
    <glyph glyph-name="Egrave" unicode="&#xc8;" horiz-adv-x="580" 
d="M84 0v714h441v-37h-401v-290h381v-37h-381v-313h414l-11 -37h-443zM313 774l-121 126h51l112 -126h-42z" />
    <glyph glyph-name="Eacute" unicode="&#xc9;" horiz-adv-x="580" 
d="M84 0v714h441v-37h-401v-290h381v-37h-381v-313h414l-11 -37h-443zM253 774l112 126h51l-121 -126h-42z" />
    <glyph glyph-name="Ecircumflex" unicode="&#xca;" horiz-adv-x="580" 
d="M84 0v714h441v-37h-401v-290h381v-37h-381v-313h414l-11 -37h-443zM393 774l-89 95l-89 -95h-41l111 126h38l111 -126h-41z" />
    <glyph glyph-name="Edieresis" unicode="&#xcb;" horiz-adv-x="580" 
d="M84 0v714h441v-37h-401v-290h381v-37h-381v-313h414l-11 -37h-443zM202 793v92h42v-92h-42zM364 793v92h42v-92h-42z" />
    <glyph glyph-name="Igrave" unicode="&#xcc;" horiz-adv-x="208" 
d="M84 0v714h40v-714h-40zM113 774l-121 126h51l112 -126h-42z" />
    <glyph glyph-name="Iacute" unicode="&#xcd;" horiz-adv-x="208" 
d="M84 0v714h40v-714h-40zM53 774l112 126h51l-121 -126h-42z" />
    <glyph glyph-name="Icircumflex" unicode="&#xce;" horiz-adv-x="208" 
d="M84 0v714h40v-714h-40zM193 774l-89 95l-89 -95h-41l111 126h38l111 -126h-41z" />
    <glyph glyph-name="Idieresis" unicode="&#xcf;" horiz-adv-x="208" 
d="M84 0v714h40v-714h-40zM2 793v92h42v-92h-42zM164 793v92h42v-92h-42z" />
    <glyph glyph-name="Eth" unicode="&#xd0;" horiz-adv-x="702" 
d="M92 0v351h-82v36h82v327h235q154 0 235.5 -90.5t81.5 -262.5q0 -176 -86.5 -268.5t-250.5 -92.5h-215zM310 36q292 0 292 322q0 157 -70 238.5t-205 81.5h-195v-291h213v-36h-213v-315h178z" />
    <glyph glyph-name="Ntilde" unicode="&#xd1;" horiz-adv-x="683" 
d="M553 0l-429 654v-654h-40v714h46l429 -655v655h40v-714h-46zM504 874q0 -43 -23.5 -68.5t-63.5 -25.5q-20 0 -37 6.5t-39 22.5q-26 19 -42 26.5t-33 7.5q-26 0 -40 -16t-15 -45h-33q0 43 23.5 68.5t63.5 25.5q20 0 37 -6.5t39 -22.5q26 -19 42 -26.5t33 -7.5q26 0 40 16
t15 45h33z" />
    <glyph glyph-name="Ograve" unicode="&#xd2;" horiz-adv-x="745" 
d="M372 -17q-145 0 -229.5 100.5t-84.5 273.5q0 112 37.5 196.5t108.5 131.5t169 47q145 0 229.5 -100.5t84.5 -273.5q0 -112 -37.5 -196.5t-108.5 -131.5t-169 -47zM372 19q83 0 144.5 39.5t95 116t33.5 183.5q0 158 -72.5 248t-199.5 90q-83 0 -144.5 -39.5t-95 -116
t-33.5 -183.5q0 -158 72.5 -248t199.5 -90zM381 774l-121 126h51l112 -126h-42z" />
    <glyph glyph-name="Oacute" unicode="&#xd3;" horiz-adv-x="745" 
d="M372 -17q-145 0 -229.5 100.5t-84.5 273.5q0 112 37.5 196.5t108.5 131.5t169 47q145 0 229.5 -100.5t84.5 -273.5q0 -112 -37.5 -196.5t-108.5 -131.5t-169 -47zM372 19q83 0 144.5 39.5t95 116t33.5 183.5q0 158 -72.5 248t-199.5 90q-83 0 -144.5 -39.5t-95 -116
t-33.5 -183.5q0 -158 72.5 -248t199.5 -90zM321 774l112 126h51l-121 -126h-42z" />
    <glyph glyph-name="Ocircumflex" unicode="&#xd4;" horiz-adv-x="745" 
d="M372 -17q-145 0 -229.5 100.5t-84.5 273.5q0 112 37.5 196.5t108.5 131.5t169 47q145 0 229.5 -100.5t84.5 -273.5q0 -112 -37.5 -196.5t-108.5 -131.5t-169 -47zM372 19q83 0 144.5 39.5t95 116t33.5 183.5q0 158 -72.5 248t-199.5 90q-83 0 -144.5 -39.5t-95 -116
t-33.5 -183.5q0 -158 72.5 -248t199.5 -90zM461 774l-89 95l-89 -95h-41l111 126h38l111 -126h-41z" />
    <glyph glyph-name="Otilde" unicode="&#xd5;" horiz-adv-x="745" 
d="M372 -17q-145 0 -229.5 100.5t-84.5 273.5q0 112 37.5 196.5t108.5 131.5t169 47q145 0 229.5 -100.5t84.5 -273.5q0 -112 -37.5 -196.5t-108.5 -131.5t-169 -47zM372 19q83 0 144.5 39.5t95 116t33.5 183.5q0 158 -72.5 248t-199.5 90q-83 0 -144.5 -39.5t-95 -116
t-33.5 -183.5q0 -158 72.5 -248t199.5 -90zM535 874q0 -43 -23.5 -68.5t-63.5 -25.5q-20 0 -37 6.5t-39 22.5q-26 19 -42 26.5t-33 7.5q-26 0 -40 -16t-15 -45h-33q0 43 23.5 68.5t63.5 25.5q20 0 37 -6.5t39 -22.5q26 -19 42 -26.5t33 -7.5q26 0 40 16t15 45h33z" />
    <glyph glyph-name="Odieresis" unicode="&#xd6;" horiz-adv-x="745" 
d="M372 -17q-145 0 -229.5 100.5t-84.5 273.5q0 112 37.5 196.5t108.5 131.5t169 47q145 0 229.5 -100.5t84.5 -273.5q0 -112 -37.5 -196.5t-108.5 -131.5t-169 -47zM372 19q83 0 144.5 39.5t95 116t33.5 183.5q0 158 -72.5 248t-199.5 90q-83 0 -144.5 -39.5t-95 -116
t-33.5 -183.5q0 -158 72.5 -248t199.5 -90zM270 793v92h42v-92h-42zM432 793v92h42v-92h-42z" />
    <glyph glyph-name="multiply" unicode="&#xd7;" horiz-adv-x="592" 
d="M296 318l-176 -176l-24 24l176 176l-173 174l24 24l173 -174l173 174l24 -24l-173 -174l176 -176l-24 -24z" />
    <glyph glyph-name="Oslash" unicode="&#xd8;" horiz-adv-x="745" 
d="M107 -21l54 84q-50 49 -76.5 124t-26.5 170q0 112 37.5 196.5t108.5 131.5t169 47q106 0 184 -58l52 81l29 -20l-54 -84q50 -49 76.5 -124t26.5 -169q0 -112 -37.5 -196.5t-108.5 -131.5t-169 -47q-107 0 -184 57l-52 -81zM536 642q-66 54 -163 54q-83 0 -144.5 -39.5
t-95 -116t-33.5 -183.5q0 -84 21 -150.5t62 -110.5zM209 72q65 -53 163 -53q83 0 144.5 39.5t95 116t33.5 183.5q0 83 -21 149t-62 111z" />
    <glyph glyph-name="Ugrave" unicode="&#xd9;" horiz-adv-x="667" 
d="M548 714h40v-435q0 -296 -255 -296q-128 0 -191 74t-63 224v433h40v-437q0 -131 53 -194.5t162 -63.5t161.5 63t52.5 195v437zM342 774l-121 126h51l112 -126h-42z" />
    <glyph glyph-name="Uacute" unicode="&#xda;" horiz-adv-x="667" 
d="M548 714h40v-435q0 -296 -255 -296q-128 0 -191 74t-63 224v433h40v-437q0 -131 53 -194.5t162 -63.5t161.5 63t52.5 195v437zM282 774l112 126h51l-121 -126h-42z" />
    <glyph glyph-name="Ucircumflex" unicode="&#xdb;" horiz-adv-x="667" 
d="M548 714h40v-435q0 -296 -255 -296q-128 0 -191 74t-63 224v433h40v-437q0 -131 53 -194.5t162 -63.5t161.5 63t52.5 195v437zM422 774l-89 95l-89 -95h-41l111 126h38l111 -126h-41z" />
    <glyph glyph-name="Udieresis" unicode="&#xdc;" horiz-adv-x="667" 
d="M548 714h40v-435q0 -296 -255 -296q-128 0 -191 74t-63 224v433h40v-437q0 -131 53 -194.5t162 -63.5t161.5 63t52.5 195v437zM231 793v92h42v-92h-42zM393 793v92h42v-92h-42z" />
    <glyph glyph-name="Yacute" unicode="&#xdd;" horiz-adv-x="570" 
d="M267 0v309l-247 405h44l223 -369l221 369h42l-244 -404v-310h-39zM234 774l112 126h51l-121 -126h-42z" />
    <glyph glyph-name="Thorn" unicode="&#xde;" horiz-adv-x="607" 
d="M123 154v-154h-39v714h39v-143h199q238 0 238 -205q0 -105 -60.5 -158.5t-180.5 -53.5h-196zM318 190q104 0 152 42.5t48 132.5t-47.5 130.5t-153.5 40.5h-194v-346h195z" />
    <glyph glyph-name="germandbls" unicode="&#xdf;" horiz-adv-x="557" 
d="M197 37q22 -8 50.5 -12.5t52.5 -4.5q84 0 128 44t44 129q0 82 -50.5 127.5t-141.5 45.5h-74v34h60q70 0 108.5 39t38.5 110q0 67 -38 103.5t-108 36.5q-75 0 -115 -42t-40 -121v-526h-38v525q0 92 51 144.5t140 52.5q88 0 137.5 -45.5t49.5 -126.5q0 -61 -26.5 -102.5
t-77.5 -59.5q75 -12 119.5 -65t44.5 -130q0 -98 -56 -152t-156 -54q-27 0 -59.5 5.5t-54.5 13.5z" />
    <glyph glyph-name="agrave" unicode="&#xe0;" horiz-adv-x="516" 
d="M410 0v86q-31 -48 -80.5 -73t-112.5 -25q-83 0 -129.5 41t-46.5 115q0 83 61 123.5t195 45.5l112 4v21q0 86 -34 121.5t-117 35.5q-70 0 -108 -23t-50 -73l-34 6q26 124 195 124q97 0 141.5 -44.5t44.5 -143.5v-341h-37zM409 286l-108 -4q-120 -5 -170.5 -37t-50.5 -101
q0 -60 36 -91t104 -31q88 0 140 49q28 26 38.5 49.5t10.5 63.5v102zM271 588l-121 130h50l112 -130h-41z" />
    <glyph glyph-name="aacute" unicode="&#xe1;" horiz-adv-x="516" 
d="M410 0v86q-31 -48 -80.5 -73t-112.5 -25q-83 0 -129.5 41t-46.5 115q0 83 61 123.5t195 45.5l112 4v21q0 86 -34 121.5t-117 35.5q-70 0 -108 -23t-50 -73l-34 6q26 124 195 124q97 0 141.5 -44.5t44.5 -143.5v-341h-37zM409 286l-108 -4q-120 -5 -170.5 -37t-50.5 -101
q0 -60 36 -91t104 -31q88 0 140 49q28 26 38.5 49.5t10.5 63.5v102zM211 588l112 130h50l-121 -130h-41z" />
    <glyph glyph-name="acircumflex" unicode="&#xe2;" horiz-adv-x="516" 
d="M410 0v86q-31 -48 -80.5 -73t-112.5 -25q-83 0 -129.5 41t-46.5 115q0 83 61 123.5t195 45.5l112 4v21q0 86 -34 121.5t-117 35.5q-70 0 -108 -23t-50 -73l-34 6q26 124 195 124q97 0 141.5 -44.5t44.5 -143.5v-341h-37zM409 286l-108 -4q-120 -5 -170.5 -37t-50.5 -101
q0 -60 36 -91t104 -31q88 0 140 49q28 26 38.5 49.5t10.5 63.5v102zM351 588l-90 101l-90 -101h-40l112 130h37l111 -130h-40z" />
    <glyph glyph-name="atilde" unicode="&#xe3;" horiz-adv-x="516" 
d="M410 0v86q-31 -48 -80.5 -73t-112.5 -25q-83 0 -129.5 41t-46.5 115q0 83 61 123.5t195 45.5l112 4v21q0 86 -34 121.5t-117 35.5q-70 0 -108 -23t-50 -73l-34 6q26 124 195 124q97 0 141.5 -44.5t44.5 -143.5v-341h-37zM409 286l-108 -4q-120 -5 -170.5 -37t-50.5 -101
q0 -60 36 -91t104 -31q88 0 140 49q28 26 38.5 49.5t10.5 63.5v102zM420 698q0 -43 -23.5 -68.5t-61.5 -25.5q-18 0 -34.5 6.5t-39.5 22.5q-32 23 -44.5 29t-29.5 6q-25 0 -39 -16.5t-14 -45.5h-32q0 43 23.5 68.5t61.5 25.5q18 0 34.5 -6.5t39.5 -22.5q32 -23 44.5 -29
t29.5 -6q25 0 39 16.5t14 45.5h32z" />
    <glyph glyph-name="adieresis" unicode="&#xe4;" horiz-adv-x="516" 
d="M410 0v86q-31 -48 -80.5 -73t-112.5 -25q-83 0 -129.5 41t-46.5 115q0 83 61 123.5t195 45.5l112 4v21q0 86 -34 121.5t-117 35.5q-70 0 -108 -23t-50 -73l-34 6q26 124 195 124q97 0 141.5 -44.5t44.5 -143.5v-341h-37zM409 286l-108 -4q-120 -5 -170.5 -37t-50.5 -101
q0 -60 36 -91t104 -31q88 0 140 49q28 26 38.5 49.5t10.5 63.5v102zM165 622v92h40v-92h-40zM318 622v92h40v-92h-40z" />
    <glyph glyph-name="aring" unicode="&#xe5;" horiz-adv-x="516" 
d="M410 0v86q-31 -48 -80.5 -73t-112.5 -25q-83 0 -129.5 41t-46.5 115q0 83 61 123.5t195 45.5l112 4v21q0 86 -34 121.5t-117 35.5q-70 0 -108 -23t-50 -73l-34 6q26 124 195 124q97 0 141.5 -44.5t44.5 -143.5v-341h-37zM409 286l-108 -4q-120 -5 -170.5 -37t-50.5 -101
q0 -60 36 -91t104 -31q88 0 140 49q28 26 38.5 49.5t10.5 63.5v102zM349 679q0 -41 -24 -65t-64 -24t-64 24t-24 65t24 65t64 24t64 -24t24 -65zM318 679q0 29 -15 45t-42 16t-42 -16t-15 -45t15 -45t42 -16t42 16t15 45z" />
    <glyph glyph-name="ae" unicode="&#xe6;" horiz-adv-x="895" 
d="M834 128q-14 -68 -66 -106t-130 -38q-77 0 -129.5 36.5t-76.5 107.5q-8 -37 -38 -69t-77 -51.5t-100 -19.5q-81 0 -126.5 42t-45.5 115q0 83 60 123t193 45l110 4v21q0 86 -33.5 121.5t-115.5 35.5q-68 0 -105.5 -23t-49.5 -73l-34 6q26 124 191 124q81 0 123.5 -32.5
t52.5 -100.5q26 65 77.5 99t122.5 34q100 0 154 -67t54 -189v-26h-399q0 -110 50.5 -169.5t143.5 -59.5q64 0 104 28.5t54 81.5h36zM408 286l-106 -4q-117 -4 -167.5 -36t-50.5 -101q0 -60 35 -91.5t101 -31.5q42 0 78.5 12.5t62.5 35.5q47 42 47 114v102zM807 280
q0 106 -44 160.5t-129 54.5t-133.5 -55.5t-54.5 -159.5h361z" />
    <glyph glyph-name="ccedilla" unicode="&#xe7;" horiz-adv-x="542" 
d="M493 168q-14 -88 -68.5 -136t-141.5 -48q-108 0 -169.5 71.5t-61.5 197.5q0 128 63 202t172 74q80 0 130.5 -42t66.5 -124l-35 -8q-17 71 -56.5 105.5t-106.5 34.5q-92 0 -143 -64t-51 -177q0 -112 50 -174t142 -62q71 0 114.5 38t57.5 112h37zM189 -156q30 -5 56 -5
q39 0 56.5 9.5t17.5 31.5t-19 31.5t-66 9.5h-13l28 82l29 -3l-17 -53q95 -6 95 -69q0 -36 -27 -52.5t-85 -16.5q-35 0 -55 4v31z" />
    <glyph glyph-name="egrave" unicode="&#xe8;" horiz-adv-x="545" 
d="M484 128q-14 -68 -67 -106t-133 -38q-111 0 -171.5 70t-60.5 199q0 130 61 203t170 73q101 0 156.5 -66.5t55.5 -189.5v-26h-405q0 -110 51 -169.5t146 -59.5q65 0 106 28t55 82h36zM457 280q0 106 -44 160.5t-131 54.5t-136.5 -55t-55.5 -160h367zM293 588l-121 130h50
l112 -130h-41z" />
    <glyph glyph-name="eacute" unicode="&#xe9;" horiz-adv-x="545" 
d="M484 128q-14 -68 -67 -106t-133 -38q-111 0 -171.5 70t-60.5 199q0 130 61 203t170 73q101 0 156.5 -66.5t55.5 -189.5v-26h-405q0 -110 51 -169.5t146 -59.5q65 0 106 28t55 82h36zM457 280q0 106 -44 160.5t-131 54.5t-136.5 -55t-55.5 -160h367zM233 588l112 130h50
l-121 -130h-41z" />
    <glyph glyph-name="ecircumflex" unicode="&#xea;" horiz-adv-x="545" 
d="M484 128q-14 -68 -67 -106t-133 -38q-111 0 -171.5 70t-60.5 199q0 130 61 203t170 73q101 0 156.5 -66.5t55.5 -189.5v-26h-405q0 -110 51 -169.5t146 -59.5q65 0 106 28t55 82h36zM457 280q0 106 -44 160.5t-131 54.5t-136.5 -55t-55.5 -160h367zM373 588l-90 101
l-90 -101h-40l112 130h37l111 -130h-40z" />
    <glyph glyph-name="edieresis" unicode="&#xeb;" horiz-adv-x="545" 
d="M484 128q-14 -68 -67 -106t-133 -38q-111 0 -171.5 70t-60.5 199q0 130 61 203t170 73q101 0 156.5 -66.5t55.5 -189.5v-26h-405q0 -110 51 -169.5t146 -59.5q65 0 106 28t55 82h36zM457 280q0 106 -44 160.5t-131 54.5t-136.5 -55t-55.5 -160h367zM187 622v92h40v-92
h-40zM340 622v92h40v-92h-40z" />
    <glyph glyph-name="igrave" unicode="&#xec;" horiz-adv-x="182" 
d="M72 0v513h38v-513h-38zM101 588l-121 130h50l112 -130h-41z" />
    <glyph glyph-name="iacute" unicode="&#xed;" horiz-adv-x="182" 
d="M72 0v513h38v-513h-38zM41 588l112 130h50l-121 -130h-41z" />
    <glyph glyph-name="icircumflex" unicode="&#xee;" horiz-adv-x="182" 
d="M72 0v513h38v-513h-38zM181 588l-90 101l-90 -101h-40l112 130h37l111 -130h-40z" />
    <glyph glyph-name="idieresis" unicode="&#xef;" horiz-adv-x="182" 
d="M72 0v513h38v-513h-38zM-5 622v92h40v-92h-40zM148 622v92h40v-92h-40z" />
    <glyph glyph-name="eth" unicode="&#xf0;" horiz-adv-x="578" 
d="M327 668q92 -49 145.5 -155t53.5 -240q0 -138 -62 -213.5t-175 -75.5q-109 0 -173 68t-64 183q0 74 28.5 131.5t82.5 90.5t126 33q119 0 183 -93q-20 90 -62 151t-108 95l-79 -78l-23 23l69 69q-61 25 -139 30l3 33q93 -6 162 -37l68 67l23 -23zM486 254
q0 92 -54.5 147.5t-143.5 55.5q-90 0 -143 -59t-53 -160q0 -102 52.5 -161t143.5 -59t144.5 58.5t53.5 158.5v19z" />
    <glyph glyph-name="ntilde" unicode="&#xf1;" horiz-adv-x="549" 
d="M442 0v333q0 82 -33.5 121.5t-104.5 39.5q-82 0 -144 -56q-29 -26 -39.5 -53t-10.5 -74v-311h-38v513h38v-88q77 104 200 104q83 0 126.5 -47.5t43.5 -139.5v-342h-38zM435 698q0 -43 -23.5 -68.5t-61.5 -25.5q-18 0 -34.5 6.5t-39.5 22.5q-32 23 -44.5 29t-29.5 6
q-25 0 -39 -16.5t-14 -45.5h-32q0 43 23.5 68.5t61.5 25.5q18 0 34.5 -6.5t39.5 -22.5q32 -23 44.5 -29t29.5 -6q25 0 39 16.5t14 45.5h32z" />
    <glyph glyph-name="ograve" unicode="&#xf2;" horiz-adv-x="578" 
d="M288 -16q-110 0 -173 72.5t-63 199.5q0 82 28.5 143.5t82 95.5t127.5 34q110 0 173 -72.5t63 -200.5q0 -81 -28.5 -142.5t-82 -95.5t-127.5 -34zM289 18q94 0 145.5 62.5t51.5 175.5q0 115 -51.5 177t-145.5 62t-145.5 -62t-51.5 -177q0 -113 51.5 -175.5t145.5 -62.5z
M299 588l-121 130h50l112 -130h-41z" />
    <glyph glyph-name="oacute" unicode="&#xf3;" horiz-adv-x="578" 
d="M288 -16q-110 0 -173 72.5t-63 199.5q0 82 28.5 143.5t82 95.5t127.5 34q110 0 173 -72.5t63 -200.5q0 -81 -28.5 -142.5t-82 -95.5t-127.5 -34zM289 18q94 0 145.5 62.5t51.5 175.5q0 115 -51.5 177t-145.5 62t-145.5 -62t-51.5 -177q0 -113 51.5 -175.5t145.5 -62.5z
M239 588l112 130h50l-121 -130h-41z" />
    <glyph glyph-name="ocircumflex" unicode="&#xf4;" horiz-adv-x="578" 
d="M288 -16q-110 0 -173 72.5t-63 199.5q0 82 28.5 143.5t82 95.5t127.5 34q110 0 173 -72.5t63 -200.5q0 -81 -28.5 -142.5t-82 -95.5t-127.5 -34zM289 18q94 0 145.5 62.5t51.5 175.5q0 115 -51.5 177t-145.5 62t-145.5 -62t-51.5 -177q0 -113 51.5 -175.5t145.5 -62.5z
M379 588l-90 101l-90 -101h-40l112 130h37l111 -130h-40z" />
    <glyph glyph-name="otilde" unicode="&#xf5;" horiz-adv-x="578" 
d="M288 -16q-110 0 -173 72.5t-63 199.5q0 82 28.5 143.5t82 95.5t127.5 34q110 0 173 -72.5t63 -200.5q0 -81 -28.5 -142.5t-82 -95.5t-127.5 -34zM289 18q94 0 145.5 62.5t51.5 175.5q0 115 -51.5 177t-145.5 62t-145.5 -62t-51.5 -177q0 -113 51.5 -175.5t145.5 -62.5z
M448 698q0 -43 -23.5 -68.5t-61.5 -25.5q-18 0 -34.5 6.5t-39.5 22.5q-32 23 -44.5 29t-29.5 6q-25 0 -39 -16.5t-14 -45.5h-32q0 43 23.5 68.5t61.5 25.5q18 0 34.5 -6.5t39.5 -22.5q32 -23 44.5 -29t29.5 -6q25 0 39 16.5t14 45.5h32z" />
    <glyph glyph-name="odieresis" unicode="&#xf6;" horiz-adv-x="578" 
d="M288 -16q-110 0 -173 72.5t-63 199.5q0 82 28.5 143.5t82 95.5t127.5 34q110 0 173 -72.5t63 -200.5q0 -81 -28.5 -142.5t-82 -95.5t-127.5 -34zM289 18q94 0 145.5 62.5t51.5 175.5q0 115 -51.5 177t-145.5 62t-145.5 -62t-51.5 -177q0 -113 51.5 -175.5t145.5 -62.5z
M193 622v92h40v-92h-40zM346 622v92h40v-92h-40z" />
    <glyph glyph-name="divide" unicode="&#xf7;" horiz-adv-x="592" 
d="M82 322v36h428v-36h-428zM274 476v93h44v-93h-44zM274 111v93h44v-93h-44z" />
    <glyph glyph-name="oslash" unicode="&#xf8;" horiz-adv-x="578" 
d="M85 -26l44 67q-37 35 -57 90t-20 125q0 82 28.5 143.5t82 95.5t127.5 34q79 0 137 -40l44 66l27 -19l-46 -69q74 -72 74 -211q0 -81 -28.5 -142.5t-82 -95.5t-127.5 -34q-76 0 -133 37l-43 -66zM407 459q-48 36 -118 36q-94 0 -145.5 -62t-51.5 -177q0 -121 58 -184z
M175 51q47 -33 114 -33q94 0 145.5 62.5t51.5 175.5q0 117 -55 180z" />
    <glyph glyph-name="ugrave" unicode="&#xf9;" horiz-adv-x="538" 
d="M428 0v88q-74 -104 -194 -104q-81 0 -123 47.5t-42 139.5v342h38v-333q0 -83 32.5 -122t100.5 -39q80 0 140 56q27 26 37.5 53t10.5 74v311h38v-513h-38zM277 588l-121 130h50l112 -130h-41z" />
    <glyph glyph-name="uacute" unicode="&#xfa;" horiz-adv-x="538" 
d="M428 0v88q-74 -104 -194 -104q-81 0 -123 47.5t-42 139.5v342h38v-333q0 -83 32.5 -122t100.5 -39q80 0 140 56q27 26 37.5 53t10.5 74v311h38v-513h-38zM217 588l112 130h50l-121 -130h-41z" />
    <glyph glyph-name="ucircumflex" unicode="&#xfb;" horiz-adv-x="538" 
d="M428 0v88q-74 -104 -194 -104q-81 0 -123 47.5t-42 139.5v342h38v-333q0 -83 32.5 -122t100.5 -39q80 0 140 56q27 26 37.5 53t10.5 74v311h38v-513h-38zM357 588l-90 101l-90 -101h-40l112 130h37l111 -130h-40z" />
    <glyph glyph-name="udieresis" unicode="&#xfc;" horiz-adv-x="538" 
d="M428 0v88q-74 -104 -194 -104q-81 0 -123 47.5t-42 139.5v342h38v-333q0 -83 32.5 -122t100.5 -39q80 0 140 56q27 26 37.5 53t10.5 74v311h38v-513h-38zM171 622v92h40v-92h-40zM324 622v92h40v-92h-40z" />
    <glyph glyph-name="yacute" unicode="&#xfd;" horiz-adv-x="481" 
d="M231 6l-223 507h42l201 -463l181 463h41l-241 -601q-23 -58 -51.5 -82t-72.5 -24q-32 0 -66 11l9 32q26 -9 54 -9q34 0 54.5 19.5t40.5 69.5zM190 588l112 130h50l-121 -130h-41z" />
    <glyph glyph-name="thorn" unicode="&#xfe;" horiz-adv-x="574" 
d="M72 -194v908h38v-301q64 116 191 116q103 0 162 -72.5t59 -198.5q0 -128 -61 -201t-167 -73q-64 0 -111.5 28t-72.5 81v-287h-38zM108 233q0 -62 15.5 -103.5t48.5 -70.5q49 -41 120 -41q91 0 140.5 62t49.5 177q0 113 -48 175.5t-136 62.5q-72 0 -122 -42
q-33 -29 -50.5 -72.5t-17.5 -96.5v-51z" />
    <glyph glyph-name="ydieresis" unicode="&#xff;" horiz-adv-x="481" 
d="M231 6l-223 507h42l201 -463l181 463h41l-241 -601q-23 -58 -51.5 -82t-72.5 -24q-32 0 -66 11l9 32q26 -9 54 -9q34 0 54.5 19.5t40.5 69.5zM144 622v92h40v-92h-40zM297 622v92h40v-92h-40z" />
    <glyph glyph-name="Amacron" unicode="&#x100;" horiz-adv-x="650" 
d="M586 0l-90 228h-346l-88 -228h-42l282 714h46l282 -714h-44zM323 671l-158 -406h317zM188 798v35h274v-35h-274z" />
    <glyph glyph-name="amacron" unicode="&#x101;" horiz-adv-x="516" 
d="M410 0v86q-31 -48 -80.5 -73t-112.5 -25q-83 0 -129.5 41t-46.5 115q0 83 61 123.5t195 45.5l112 4v21q0 86 -34 121.5t-117 35.5q-70 0 -108 -23t-50 -73l-34 6q26 124 195 124q97 0 141.5 -44.5t44.5 -143.5v-341h-37zM409 286l-108 -4q-120 -5 -170.5 -37t-50.5 -101
q0 -60 36 -91t104 -31q88 0 140 49q28 26 38.5 49.5t10.5 63.5v102zM142 630v34h238v-34h-238z" />
    <glyph glyph-name="Abreve" unicode="&#x102;" horiz-adv-x="650" 
d="M586 0l-90 228h-346l-88 -228h-42l282 714h46l282 -714h-44zM323 671l-158 -406h317zM443 891q0 -56 -31 -86.5t-87 -30.5t-87 30.5t-31 86.5h34q0 -41 22.5 -63.5t61.5 -22.5q41 0 63 22.5t22 63.5h33z" />
    <glyph glyph-name="abreve" unicode="&#x103;" horiz-adv-x="516" 
d="M410 0v86q-31 -48 -80.5 -73t-112.5 -25q-83 0 -129.5 41t-46.5 115q0 83 61 123.5t195 45.5l112 4v21q0 86 -34 121.5t-117 35.5q-70 0 -108 -23t-50 -73l-34 6q26 124 195 124q97 0 141.5 -44.5t44.5 -143.5v-341h-37zM409 286l-108 -4q-120 -5 -170.5 -37t-50.5 -101
q0 -60 36 -91t104 -31q88 0 140 49q28 26 38.5 49.5t10.5 63.5v102zM379 713q0 -57 -31 -89t-87 -32t-87 32t-31 89h33q0 -43 22.5 -67t63.5 -24t63 24t22 67h32z" />
    <glyph glyph-name="Aogonek" unicode="&#x104;" horiz-adv-x="650" 
d="M586 0l-90 228h-346l-88 -228h-42l282 714h46l282 -714h-44zM323 671l-158 -406h317zM641 -170q-20 -2 -28 -2q-42 0 -64 18t-22 52q0 28 15.5 53.5t47.5 52.5l40 -4q-34 -26 -49.5 -49.5t-15.5 -47.5q0 -22 12.5 -32t38.5 -10q7 0 25 2v-33z" />
    <glyph glyph-name="aogonek" unicode="&#x105;" horiz-adv-x="516" 
d="M410 0v86q-31 -48 -80.5 -73t-112.5 -25q-83 0 -129.5 41t-46.5 115q0 83 61 123.5t195 45.5l112 4v21q0 86 -34 121.5t-117 35.5q-70 0 -108 -23t-50 -73l-34 6q26 124 195 124q97 0 141.5 -44.5t44.5 -143.5v-341h-37zM409 286l-108 -4q-120 -5 -170.5 -37t-50.5 -101
q0 -60 36 -91t104 -31q88 0 140 49q28 26 38.5 49.5t10.5 63.5v102zM459 -165q-12 -2 -27 -2q-41 0 -63 17.5t-22 50.5q0 27 15 51.5t48 50.5l37 -3q-63 -48 -63 -93q0 -42 52 -42q14 0 23 1v-31z" />
    <glyph glyph-name="Cacute" unicode="&#x106;" horiz-adv-x="696" 
d="M641 231q-16 -117 -90 -182.5t-189 -65.5q-143 0 -223.5 98.5t-80.5 275.5q0 117 35 201t102.5 129t163.5 45q107 0 177.5 -59.5t94.5 -168.5l-37 -9q-23 100 -82.5 150.5t-152.5 50.5q-124 0 -192.5 -88t-68.5 -249q0 -163 69.5 -251.5t197.5 -88.5q99 0 160.5 55
t77.5 157h38zM308 774l112 126h51l-121 -126h-42z" />
    <glyph glyph-name="cacute" unicode="&#x107;" horiz-adv-x="542" 
d="M493 168q-14 -88 -68.5 -136t-141.5 -48q-108 0 -169.5 71.5t-61.5 197.5q0 128 63 202t172 74q80 0 130.5 -42t66.5 -124l-35 -8q-17 71 -56.5 105.5t-106.5 34.5q-92 0 -143 -64t-51 -177q0 -112 50 -174t142 -62q71 0 114.5 38t57.5 112h37zM237 588l112 130h50
l-121 -130h-41z" />
    <glyph glyph-name="Ccircumflex" unicode="&#x108;" horiz-adv-x="696" 
d="M641 231q-16 -117 -90 -182.5t-189 -65.5q-143 0 -223.5 98.5t-80.5 275.5q0 117 35 201t102.5 129t163.5 45q107 0 177.5 -59.5t94.5 -168.5l-37 -9q-23 100 -82.5 150.5t-152.5 50.5q-124 0 -192.5 -88t-68.5 -249q0 -163 69.5 -251.5t197.5 -88.5q99 0 160.5 55
t77.5 157h38zM448 774l-89 95l-89 -95h-41l111 126h38l111 -126h-41z" />
    <glyph glyph-name="ccircumflex" unicode="&#x109;" horiz-adv-x="542" 
d="M493 168q-14 -88 -68.5 -136t-141.5 -48q-108 0 -169.5 71.5t-61.5 197.5q0 128 63 202t172 74q80 0 130.5 -42t66.5 -124l-35 -8q-17 71 -56.5 105.5t-106.5 34.5q-92 0 -143 -64t-51 -177q0 -112 50 -174t142 -62q71 0 114.5 38t57.5 112h37zM377 588l-90 101l-90 -101
h-40l112 130h37l111 -130h-40z" />
    <glyph glyph-name="Cdotaccent" unicode="&#x10a;" horiz-adv-x="696" 
d="M641 231q-16 -117 -90 -182.5t-189 -65.5q-143 0 -223.5 98.5t-80.5 275.5q0 117 35 201t102.5 129t163.5 45q107 0 177.5 -59.5t94.5 -168.5l-37 -9q-23 100 -82.5 150.5t-152.5 50.5q-124 0 -192.5 -88t-68.5 -249q0 -163 69.5 -251.5t197.5 -88.5q99 0 160.5 55
t77.5 157h38zM338 793v92h42v-92h-42z" />
    <glyph glyph-name="cdotaccent" unicode="&#x10b;" horiz-adv-x="542" 
d="M493 168q-14 -88 -68.5 -136t-141.5 -48q-108 0 -169.5 71.5t-61.5 197.5q0 128 63 202t172 74q80 0 130.5 -42t66.5 -124l-35 -8q-17 71 -56.5 105.5t-106.5 34.5q-92 0 -143 -64t-51 -177q0 -112 50 -174t142 -62q71 0 114.5 38t57.5 112h37zM267 622v92h40v-92h-40z
" />
    <glyph glyph-name="Ccaron" unicode="&#x10c;" horiz-adv-x="696" 
d="M641 231q-16 -117 -90 -182.5t-189 -65.5q-143 0 -223.5 98.5t-80.5 275.5q0 117 35 201t102.5 129t163.5 45q107 0 177.5 -59.5t94.5 -168.5l-37 -9q-23 100 -82.5 150.5t-152.5 50.5q-124 0 -192.5 -88t-68.5 -249q0 -163 69.5 -251.5t197.5 -88.5q99 0 160.5 55
t77.5 157h38zM340 774l-111 126h41l89 -95l89 95h41l-111 -126h-38z" />
    <glyph glyph-name="ccaron" unicode="&#x10d;" horiz-adv-x="542" 
d="M493 168q-14 -88 -68.5 -136t-141.5 -48q-108 0 -169.5 71.5t-61.5 197.5q0 128 63 202t172 74q80 0 130.5 -42t66.5 -124l-35 -8q-17 71 -56.5 105.5t-106.5 34.5q-92 0 -143 -64t-51 -177q0 -112 50 -174t142 -62q71 0 114.5 38t57.5 112h37zM268 588l-111 130h40
l90 -101l90 101h40l-112 -130h-37z" />
    <glyph glyph-name="Dcaron" unicode="&#x10e;" horiz-adv-x="694" 
d="M84 0v714h235q154 0 235.5 -90.5t81.5 -262.5q0 -176 -86.5 -268.5t-250.5 -92.5h-215zM302 36q292 0 292 322q0 157 -70 238.5t-205 81.5h-195v-642h178zM291 774l-111 126h41l89 -95l89 95h41l-111 -126h-38z" />
    <glyph glyph-name="dcaron" unicode="&#x10f;" horiz-adv-x="574" 
d="M464 0v100q-64 -116 -191 -116q-103 0 -162 72.5t-59 199.5t61 200t167 73q64 0 111.5 -28t72.5 -81v294h38v-714h-38zM466 280q0 62 -15.5 103.5t-48.5 70.5q-49 41 -120 41q-91 0 -140.5 -62t-49.5 -177q0 -113 48 -175.5t136 -62.5q72 0 122 42q33 29 50.5 72.5
t17.5 96.5v51zM566 547l25 167h39l-33 -167h-31z" />
    <glyph glyph-name="Dcroat" unicode="&#x110;" horiz-adv-x="702" 
d="M92 0v351h-82v36h82v327h235q154 0 235.5 -90.5t81.5 -262.5q0 -176 -86.5 -268.5t-250.5 -92.5h-215zM310 36q292 0 292 322q0 157 -70 238.5t-205 81.5h-195v-291h213v-36h-213v-315h178z" />
    <glyph glyph-name="dcroat" unicode="&#x111;" horiz-adv-x="584" 
d="M464 0v100q-64 -116 -191 -116q-102 0 -161.5 71t-59.5 193q0 121 62 192.5t166 71.5q64 0 111.5 -28t72.5 -81v195h-180v33h180v83h38v-83h72v-33h-72v-598h-38zM466 263q0 62 -15.5 103.5t-48.5 70.5q-49 41 -120 41q-90 0 -140 -60.5t-50 -169.5q0 -108 49 -169
t135 -61q72 0 122 42q33 29 50.5 72.5t17.5 96.5v34z" />
    <glyph glyph-name="Emacron" unicode="&#x112;" horiz-adv-x="580" 
d="M84 0v714h441v-37h-401v-290h381v-37h-381v-313h414l-11 -37h-443zM167 798v35h274v-35h-274z" />
    <glyph glyph-name="emacron" unicode="&#x113;" horiz-adv-x="545" 
d="M484 128q-14 -68 -67 -106t-133 -38q-111 0 -171.5 70t-60.5 199q0 130 61 203t170 73q101 0 156.5 -66.5t55.5 -189.5v-26h-405q0 -110 51 -169.5t146 -59.5q65 0 106 28t55 82h36zM457 280q0 106 -44 160.5t-131 54.5t-136.5 -55t-55.5 -160h367zM164 630v34h238v-34
h-238z" />
    <glyph glyph-name="Ebreve" unicode="&#x114;" horiz-adv-x="580" 
d="M84 0v714h441v-37h-401v-290h381v-37h-381v-313h414l-11 -37h-443zM422 891q0 -56 -31 -86.5t-87 -30.5t-87 30.5t-31 86.5h34q0 -41 22.5 -63.5t61.5 -22.5q41 0 63 22.5t22 63.5h33z" />
    <glyph glyph-name="ebreve" unicode="&#x115;" horiz-adv-x="545" 
d="M484 128q-14 -68 -67 -106t-133 -38q-111 0 -171.5 70t-60.5 199q0 130 61 203t170 73q101 0 156.5 -66.5t55.5 -189.5v-26h-405q0 -110 51 -169.5t146 -59.5q65 0 106 28t55 82h36zM457 280q0 106 -44 160.5t-131 54.5t-136.5 -55t-55.5 -160h367zM401 713
q0 -57 -31 -89t-87 -32t-87 32t-31 89h33q0 -43 22.5 -67t63.5 -24t63 24t22 67h32z" />
    <glyph glyph-name="Edotaccent" unicode="&#x116;" horiz-adv-x="580" 
d="M84 0v714h441v-37h-401v-290h381v-37h-381v-313h414l-11 -37h-443zM283 793v92h42v-92h-42z" />
    <glyph glyph-name="edotaccent" unicode="&#x117;" horiz-adv-x="545" 
d="M484 128q-14 -68 -67 -106t-133 -38q-111 0 -171.5 70t-60.5 199q0 130 61 203t170 73q101 0 156.5 -66.5t55.5 -189.5v-26h-405q0 -110 51 -169.5t146 -59.5q65 0 106 28t55 82h36zM457 280q0 106 -44 160.5t-131 54.5t-136.5 -55t-55.5 -160h367zM263 622v92h40v-92
h-40z" />
    <glyph glyph-name="Eogonek" unicode="&#x118;" horiz-adv-x="580" 
d="M84 0v714h441v-37h-401v-290h381v-37h-381v-313h414l-11 -37h-443zM538 -170q-20 -2 -28 -2q-42 0 -64 18t-22 52q0 28 15.5 53.5t47.5 52.5l40 -4q-34 -26 -49.5 -49.5t-15.5 -47.5q0 -22 12.5 -32t38.5 -10q7 0 25 2v-33z" />
    <glyph glyph-name="eogonek" unicode="&#x119;" horiz-adv-x="545" 
d="M484 128q-14 -68 -67 -106t-133 -38q-111 0 -171.5 70t-60.5 199q0 130 61 203t170 73q101 0 156.5 -66.5t55.5 -189.5v-26h-405q0 -110 51 -169.5t146 -59.5q65 0 106 28t55 82h36zM457 280q0 106 -44 160.5t-131 54.5t-136.5 -55t-55.5 -160h367zM382 -165
q-12 -2 -27 -2q-41 0 -63 17.5t-22 50.5q0 27 15 51.5t48 50.5l37 -3q-63 -48 -63 -93q0 -42 52 -42q14 0 23 1v-31z" />
    <glyph glyph-name="Ecaron" unicode="&#x11a;" horiz-adv-x="580" 
d="M84 0v714h441v-37h-401v-290h381v-37h-381v-313h414l-11 -37h-443zM285 774l-111 126h41l89 -95l89 95h41l-111 -126h-38z" />
    <glyph glyph-name="ecaron" unicode="&#x11b;" horiz-adv-x="545" 
d="M484 128q-14 -68 -67 -106t-133 -38q-111 0 -171.5 70t-60.5 199q0 130 61 203t170 73q101 0 156.5 -66.5t55.5 -189.5v-26h-405q0 -110 51 -169.5t146 -59.5q65 0 106 28t55 82h36zM457 280q0 106 -44 160.5t-131 54.5t-136.5 -55t-55.5 -160h367zM264 588l-111 130h40
l90 -101l90 101h40l-112 -130h-37z" />
    <glyph glyph-name="Gcircumflex" unicode="&#x11c;" horiz-adv-x="698" 
d="M594 305h-210v36h250v-267q-48 -44 -114.5 -67.5t-139.5 -23.5q-154 0 -238 97.5t-84 275.5q0 115 36.5 199.5t106.5 130.5t168 46t162 -49t88 -143l-37 -9q-45 165 -214 165q-127 0 -198 -89t-71 -250q0 -163 73.5 -250.5t209.5 -87.5q61 0 116.5 18t95.5 51v217z
M458 774l-89 95l-89 -95h-41l111 126h38l111 -126h-41z" />
    <glyph glyph-name="gcircumflex" unicode="&#x11d;" horiz-adv-x="574" 
d="M464 121q-64 -113 -192 -113q-103 0 -161.5 69.5t-58.5 190.5t61 191t166 70q65 0 112.5 -27.5t72.5 -78.5v90h38v-502q0 -110 -54 -163t-164 -53q-95 0 -149 37t-62 106h36q10 -55 53.5 -82t122.5 -27q95 0 137 42.5t42 140.5v109zM466 291q0 58 -15.5 98t-48.5 67
q-48 39 -119 39q-92 0 -141.5 -59t-49.5 -168q0 -108 48.5 -167t136.5 -59q70 0 121 40q33 27 50.5 68t17.5 92v49zM374 588l-90 101l-90 -101h-40l112 130h37l111 -130h-40z" />
    <glyph glyph-name="Gbreve" unicode="&#x11e;" horiz-adv-x="698" 
d="M594 305h-210v36h250v-267q-48 -44 -114.5 -67.5t-139.5 -23.5q-154 0 -238 97.5t-84 275.5q0 115 36.5 199.5t106.5 130.5t168 46t162 -49t88 -143l-37 -9q-45 165 -214 165q-127 0 -198 -89t-71 -250q0 -163 73.5 -250.5t209.5 -87.5q61 0 116.5 18t95.5 51v217z
M487 891q0 -56 -31 -86.5t-87 -30.5t-87 30.5t-31 86.5h34q0 -41 22.5 -63.5t61.5 -22.5q41 0 63 22.5t22 63.5h33z" />
    <glyph glyph-name="gbreve" unicode="&#x11f;" horiz-adv-x="574" 
d="M464 121q-64 -113 -192 -113q-103 0 -161.5 69.5t-58.5 190.5t61 191t166 70q65 0 112.5 -27.5t72.5 -78.5v90h38v-502q0 -110 -54 -163t-164 -53q-95 0 -149 37t-62 106h36q10 -55 53.5 -82t122.5 -27q95 0 137 42.5t42 140.5v109zM466 291q0 58 -15.5 98t-48.5 67
q-48 39 -119 39q-92 0 -141.5 -59t-49.5 -168q0 -108 48.5 -167t136.5 -59q70 0 121 40q33 27 50.5 68t17.5 92v49zM402 713q0 -57 -31 -89t-87 -32t-87 32t-31 89h33q0 -43 22.5 -67t63.5 -24t63 24t22 67h32z" />
    <glyph glyph-name="Gdotaccent" unicode="&#x120;" horiz-adv-x="698" 
d="M594 305h-210v36h250v-267q-48 -44 -114.5 -67.5t-139.5 -23.5q-154 0 -238 97.5t-84 275.5q0 115 36.5 199.5t106.5 130.5t168 46t162 -49t88 -143l-37 -9q-45 165 -214 165q-127 0 -198 -89t-71 -250q0 -163 73.5 -250.5t209.5 -87.5q61 0 116.5 18t95.5 51v217z
M348 793v92h42v-92h-42z" />
    <glyph glyph-name="gdotaccent" unicode="&#x121;" horiz-adv-x="574" 
d="M464 121q-64 -113 -192 -113q-103 0 -161.5 69.5t-58.5 190.5t61 191t166 70q65 0 112.5 -27.5t72.5 -78.5v90h38v-502q0 -110 -54 -163t-164 -53q-95 0 -149 37t-62 106h36q10 -55 53.5 -82t122.5 -27q95 0 137 42.5t42 140.5v109zM466 291q0 58 -15.5 98t-48.5 67
q-48 39 -119 39q-92 0 -141.5 -59t-49.5 -168q0 -108 48.5 -167t136.5 -59q70 0 121 40q33 27 50.5 68t17.5 92v49zM264 622v92h40v-92h-40z" />
    <glyph glyph-name="uni0122" unicode="&#x122;" horiz-adv-x="698" 
d="M594 305h-210v36h250v-267q-48 -44 -114.5 -67.5t-139.5 -23.5q-154 0 -238 97.5t-84 275.5q0 115 36.5 199.5t106.5 130.5t168 46t162 -49t88 -143l-37 -9q-45 165 -214 165q-127 0 -198 -89t-71 -250q0 -163 73.5 -250.5t209.5 -87.5q61 0 116.5 18t95.5 51v217z
M286 -205l71 134h46l-79 -134h-38z" />
    <glyph glyph-name="uni0123" unicode="&#x123;" horiz-adv-x="574" 
d="M464 121q-64 -113 -192 -113q-103 0 -161.5 69.5t-58.5 190.5t61 191t166 70q65 0 112.5 -27.5t72.5 -78.5v90h38v-502q0 -110 -54 -163t-164 -53q-95 0 -149 37t-62 106h36q10 -55 53.5 -82t122.5 -27q95 0 137 42.5t42 140.5v109zM466 291q0 58 -15.5 98t-48.5 67
q-48 39 -119 39q-92 0 -141.5 -59t-49.5 -168q0 -108 48.5 -167t136.5 -59q70 0 121 40q33 27 50.5 68t17.5 92v49zM259 584l79 135h37l-71 -135h-45z" />
    <glyph glyph-name="Hcircumflex" unicode="&#x124;" horiz-adv-x="680" 
d="M556 0v351h-432v-351h-40v714h40v-326h432v326h40v-714h-40zM429 774l-89 95l-89 -95h-41l111 126h38l111 -126h-41z" />
    <glyph glyph-name="hcircumflex" unicode="&#x125;" horiz-adv-x="549" 
d="M442 0v333q0 82 -33.5 121.5t-104.5 39.5q-82 0 -144 -56q-29 -26 -39.5 -53t-10.5 -74v-311h-38v714h38v-289q77 104 200 104q83 0 126.5 -47.5t43.5 -139.5v-342h-38zM291 774l-89 95l-89 -95h-41l111 126h38l111 -126h-41z" />
    <glyph glyph-name="Hbar" unicode="&#x126;" horiz-adv-x="696" 
d="M564 0v345h-432v-345h-40v533h-82v36h82v145h40v-145h432v145h40v-145h82v-36h-82v-533h-40zM564 533h-432v-151h432v151z" />
    <glyph glyph-name="hbar" unicode="&#x127;" horiz-adv-x="560" 
d="M453 0v316q0 82 -33.5 121.5t-104.5 39.5q-82 0 -144 -56q-29 -26 -39.5 -53t-10.5 -74v-294h-38v598h-72v33h72v83h38v-83h180v-33h-180v-190q77 104 200 104q83 0 126.5 -47.5t43.5 -139.5v-325h-38z" />
    <glyph glyph-name="Itilde" unicode="&#x128;" horiz-adv-x="208" 
d="M84 0v714h40v-714h-40zM267 874q0 -43 -23.5 -68.5t-63.5 -25.5q-20 0 -37 6.5t-39 22.5q-26 19 -42 26.5t-33 7.5q-26 0 -40 -16t-15 -45h-33q0 43 23.5 68.5t63.5 25.5q20 0 37 -6.5t39 -22.5q26 -19 42 -26.5t33 -7.5q26 0 40 16t15 45h33z" />
    <glyph glyph-name="itilde" unicode="&#x129;" horiz-adv-x="182" 
d="M72 0v513h38v-513h-38zM250 698q0 -43 -23.5 -68.5t-61.5 -25.5q-18 0 -34.5 6.5t-39.5 22.5q-32 23 -44.5 29t-29.5 6q-25 0 -39 -16.5t-14 -45.5h-32q0 43 23.5 68.5t61.5 25.5q18 0 34.5 -6.5t39.5 -22.5q32 -23 44.5 -29t29.5 -6q25 0 39 16.5t14 45.5h32z" />
    <glyph glyph-name="Imacron" unicode="&#x12a;" horiz-adv-x="208" 
d="M84 0v714h40v-714h-40zM-33 798v35h274v-35h-274z" />
    <glyph glyph-name="imacron" unicode="&#x12b;" horiz-adv-x="182" 
d="M72 0v513h38v-513h-38zM-28 630v34h238v-34h-238z" />
    <glyph glyph-name="Ibreve" unicode="&#x12c;" horiz-adv-x="208" 
d="M84 0v714h40v-714h-40zM222 891q0 -56 -31 -86.5t-87 -30.5t-87 30.5t-31 86.5h34q0 -41 22.5 -63.5t61.5 -22.5q41 0 63 22.5t22 63.5h33z" />
    <glyph glyph-name="ibreve" unicode="&#x12d;" horiz-adv-x="182" 
d="M72 0v513h38v-513h-38zM209 713q0 -57 -31 -89t-87 -32t-87 32t-31 89h33q0 -43 22.5 -67t63.5 -24t63 24t22 67h32z" />
    <glyph glyph-name="Iogonek" unicode="&#x12e;" horiz-adv-x="208" 
d="M84 0v714h40v-714h-40zM135 -170q-20 -2 -28 -2q-42 0 -64 18t-22 52q0 28 15.5 53.5t47.5 52.5l40 -4q-34 -26 -49.5 -49.5t-15.5 -47.5q0 -22 12.5 -32t38.5 -10q7 0 25 2v-33z" />
    <glyph glyph-name="iogonek" unicode="&#x12f;" horiz-adv-x="182" 
d="M72 0v513h38v-513h-38zM71 622v92h40v-92h-40zM122 -165q-12 -2 -27 -2q-41 0 -63 17.5t-22 50.5q0 27 15 51.5t48 50.5l37 -3q-63 -48 -63 -93q0 -42 52 -42q14 0 23 1v-31z" />
    <glyph glyph-name="Idotaccent" unicode="&#x130;" horiz-adv-x="208" 
d="M84 0v714h40v-714h-40zM83 793v92h42v-92h-42z" />
    <glyph glyph-name="dotlessi" unicode="&#x131;" horiz-adv-x="182" 
d="M72 0v513h38v-513h-38z" />
    <glyph glyph-name="IJ" unicode="&#x132;" horiz-adv-x="777" 
d="M84 0v714h40v-714h-40zM658 714h40v-486q0 -120 -57.5 -182.5t-167.5 -62.5q-103 0 -163.5 54.5t-73.5 159.5h39q25 -178 200 -178q94 0 138.5 52t44.5 161v482z" />
    <glyph glyph-name="ij" unicode="&#x133;" horiz-adv-x="372" 
d="M72 0v513h38v-513h-38zM71 622v92h40v-92h-40zM262 513h38v-539q0 -83 -29 -121.5t-90 -38.5q-47 0 -88 16l9 32q41 -14 76 -14q84 0 84 107v558zM261 622v92h40v-92h-40z" />
    <glyph glyph-name="Jcircumflex" unicode="&#x134;" horiz-adv-x="569" 
d="M450 714h40v-486q0 -120 -57.5 -182.5t-167.5 -62.5q-103 0 -163.5 54.5t-73.5 159.5h39q25 -178 200 -178q94 0 138.5 52t44.5 161v482zM559 774l-89 95l-89 -95h-41l111 126h38l111 -126h-41z" />
    <glyph glyph-name="jcircumflex" unicode="&#x135;" horiz-adv-x="182" 
d="M72 513h38v-539q0 -83 -29 -121.5t-90 -38.5q-47 0 -88 16l9 32q41 -14 76 -14q84 0 84 107v558zM181 588l-90 101l-90 -101h-40l112 130h37l111 -130h-40z" />
    <glyph glyph-name="uni0136" unicode="&#x136;" horiz-adv-x="629" 
d="M560 0l-276 423l-160 -157v-266h-40v714h40v-402l408 402h48l-267 -265l294 -449h-47zM251 -205l71 134h46l-79 -134h-38z" />
    <glyph glyph-name="uni0137" unicode="&#x137;" horiz-adv-x="484" 
d="M432 0l-194 320l-128 -115v-205h-38v714h38v-467l294 266h48l-186 -170l210 -343h-44zM179 -209l73 138h45l-82 -138h-36z" />
    <glyph glyph-name="kgreenlandic" unicode="&#x138;" horiz-adv-x="484" 
d="M432 0l-194 304l-128 -126v-178h-38v513h38v-291l296 291h46l-186 -184l210 -329h-44z" />
    <glyph glyph-name="Lacute" unicode="&#x139;" horiz-adv-x="548" 
d="M84 0v714h40v-677h399l-9 -37h-430zM53 774l112 126h51l-121 -126h-42z" />
    <glyph glyph-name="lacute" unicode="&#x13a;" horiz-adv-x="182" 
d="M72 0v714h38v-714h-38zM40 774l112 126h51l-121 -126h-42z" />
    <glyph glyph-name="uni013B" unicode="&#x13b;" horiz-adv-x="548" 
d="M84 0v714h40v-677h399l-9 -37h-430zM209 -205l71 134h46l-79 -134h-38z" />
    <glyph glyph-name="uni013C" unicode="&#x13c;" horiz-adv-x="182" 
d="M72 0v714h38v-714h-38zM-4 -209l73 138h45l-82 -138h-36z" />
    <glyph glyph-name="Lcaron" unicode="&#x13d;" horiz-adv-x="548" 
d="M84 0v714h40v-677h399l-9 -37h-430zM335 547l25 167h39l-33 -167h-31z" />
    <glyph glyph-name="lcaron" unicode="&#x13e;" horiz-adv-x="182" 
d="M72 0v714h38v-714h-38zM174 547l25 167h39l-33 -167h-31z" />
    <glyph glyph-name="Ldot" unicode="&#x13f;" horiz-adv-x="548" 
d="M84 0v714h40v-677h399l-9 -37h-430zM355 346v102h42v-102h-42z" />
    <glyph glyph-name="ldot" unicode="&#x140;" horiz-adv-x="263" 
d="M72 0v714h38v-714h-38zM200 326v102h42v-102h-42z" />
    <glyph glyph-name="Lslash" unicode="&#x141;" horiz-adv-x="556" 
d="M92 0v269l-82 -59v42l82 59v403h40v-375l237 171v-42l-237 -171v-260h399l-9 -37h-430z" />
    <glyph glyph-name="lslash" unicode="&#x142;" horiz-adv-x="213" 
d="M87 0v356l-85 -63v39l85 63v319h38v-291l86 64v-39l-86 -64v-384h-38z" />
    <glyph glyph-name="Nacute" unicode="&#x143;" horiz-adv-x="683" 
d="M553 0l-429 654v-654h-40v714h46l429 -655v655h40v-714h-46zM290 774l112 126h51l-121 -126h-42z" />
    <glyph glyph-name="nacute" unicode="&#x144;" horiz-adv-x="549" 
d="M442 0v333q0 82 -33.5 121.5t-104.5 39.5q-82 0 -144 -56q-29 -26 -39.5 -53t-10.5 -74v-311h-38v513h38v-88q77 104 200 104q83 0 126.5 -47.5t43.5 -139.5v-342h-38zM226 588l112 130h50l-121 -130h-41z" />
    <glyph glyph-name="uni0145" unicode="&#x145;" horiz-adv-x="683" 
d="M553 0l-429 654v-654h-40v714h46l429 -655v655h40v-714h-46zM247 -205l71 134h46l-79 -134h-38z" />
    <glyph glyph-name="uni0146" unicode="&#x146;" horiz-adv-x="549" 
d="M442 0v333q0 82 -33.5 121.5t-104.5 39.5q-82 0 -144 -56q-29 -26 -39.5 -53t-10.5 -74v-311h-38v513h38v-88q77 104 200 104q83 0 126.5 -47.5t43.5 -139.5v-342h-38zM181 -209l73 138h45l-82 -138h-36z" />
    <glyph glyph-name="Ncaron" unicode="&#x147;" horiz-adv-x="683" 
d="M553 0l-429 654v-654h-40v714h46l429 -655v655h40v-714h-46zM322 774l-111 126h41l89 -95l89 95h41l-111 -126h-38z" />
    <glyph glyph-name="ncaron" unicode="&#x148;" horiz-adv-x="549" 
d="M442 0v333q0 82 -33.5 121.5t-104.5 39.5q-82 0 -144 -56q-29 -26 -39.5 -53t-10.5 -74v-311h-38v513h38v-88q77 104 200 104q83 0 126.5 -47.5t43.5 -139.5v-342h-38zM257 588l-111 130h40l90 -101l90 101h40l-112 -130h-37z" />
    <glyph glyph-name="napostrophe" unicode="&#x149;" horiz-adv-x="549" 
d="M442 0v333q0 82 -33.5 121.5t-104.5 39.5q-82 0 -144 -56q-29 -26 -39.5 -53t-10.5 -74v-311h-38v513h38v-88q77 104 200 104q83 0 126.5 -47.5t43.5 -139.5v-342h-38zM-14 530l31 189h44l-42 -189h-33z" />
    <glyph glyph-name="Eng" unicode="&#x14a;" horiz-adv-x="683" 
d="M124 654v-654h-40v714h46l429 -647v647h40v-714q0 -102 -53 -153.5t-158 -51.5q-37 0 -77 8t-68 21l13 33q61 -26 134 -26q85 0 126 40.5t43 126.5z" />
    <glyph glyph-name="eng" unicode="&#x14b;" horiz-adv-x="549" 
d="M442 333q0 82 -33.5 121.5t-104.5 39.5q-82 0 -144 -56q-29 -26 -39.5 -53t-10.5 -74v-311h-38v513h38v-88q77 104 200 104q83 0 126.5 -47.5t43.5 -139.5v-368q0 -83 -29 -121.5t-90 -38.5q-47 0 -88 16l9 32q41 -14 76 -14q84 0 84 107v378z" />
    <glyph glyph-name="Omacron" unicode="&#x14c;" horiz-adv-x="745" 
d="M372 -17q-145 0 -229.5 100.5t-84.5 273.5q0 112 37.5 196.5t108.5 131.5t169 47q145 0 229.5 -100.5t84.5 -273.5q0 -112 -37.5 -196.5t-108.5 -131.5t-169 -47zM372 19q83 0 144.5 39.5t95 116t33.5 183.5q0 158 -72.5 248t-199.5 90q-83 0 -144.5 -39.5t-95 -116
t-33.5 -183.5q0 -158 72.5 -248t199.5 -90zM235 798v35h274v-35h-274z" />
    <glyph glyph-name="omacron" unicode="&#x14d;" horiz-adv-x="578" 
d="M288 -16q-110 0 -173 72.5t-63 199.5q0 82 28.5 143.5t82 95.5t127.5 34q110 0 173 -72.5t63 -200.5q0 -81 -28.5 -142.5t-82 -95.5t-127.5 -34zM289 18q94 0 145.5 62.5t51.5 175.5q0 115 -51.5 177t-145.5 62t-145.5 -62t-51.5 -177q0 -113 51.5 -175.5t145.5 -62.5z
M170 630v34h238v-34h-238z" />
    <glyph glyph-name="Obreve" unicode="&#x14e;" horiz-adv-x="745" 
d="M372 -17q-145 0 -229.5 100.5t-84.5 273.5q0 112 37.5 196.5t108.5 131.5t169 47q145 0 229.5 -100.5t84.5 -273.5q0 -112 -37.5 -196.5t-108.5 -131.5t-169 -47zM372 19q83 0 144.5 39.5t95 116t33.5 183.5q0 158 -72.5 248t-199.5 90q-83 0 -144.5 -39.5t-95 -116
t-33.5 -183.5q0 -158 72.5 -248t199.5 -90zM490 891q0 -56 -31 -86.5t-87 -30.5t-87 30.5t-31 86.5h34q0 -41 22.5 -63.5t61.5 -22.5q41 0 63 22.5t22 63.5h33z" />
    <glyph glyph-name="obreve" unicode="&#x14f;" horiz-adv-x="578" 
d="M288 -16q-110 0 -173 72.5t-63 199.5q0 82 28.5 143.5t82 95.5t127.5 34q110 0 173 -72.5t63 -200.5q0 -81 -28.5 -142.5t-82 -95.5t-127.5 -34zM289 18q94 0 145.5 62.5t51.5 175.5q0 115 -51.5 177t-145.5 62t-145.5 -62t-51.5 -177q0 -113 51.5 -175.5t145.5 -62.5z
M407 713q0 -57 -31 -89t-87 -32t-87 32t-31 89h33q0 -43 22.5 -67t63.5 -24t63 24t22 67h32z" />
    <glyph glyph-name="Ohungarumlaut" unicode="&#x150;" horiz-adv-x="745" 
d="M372 -17q-145 0 -229.5 100.5t-84.5 273.5q0 112 37.5 196.5t108.5 131.5t169 47q145 0 229.5 -100.5t84.5 -273.5q0 -112 -37.5 -196.5t-108.5 -131.5t-169 -47zM372 19q83 0 144.5 39.5t95 116t33.5 183.5q0 158 -72.5 248t-199.5 90q-83 0 -144.5 -39.5t-95 -116
t-33.5 -183.5q0 -158 72.5 -248t199.5 -90zM278 774l103 126h47l-111 -126h-39zM426 774l103 126h47l-111 -126h-39z" />
    <glyph glyph-name="ohungarumlaut" unicode="&#x151;" horiz-adv-x="578" 
d="M288 -16q-110 0 -173 72.5t-63 199.5q0 82 28.5 143.5t82 95.5t127.5 34q110 0 173 -72.5t63 -200.5q0 -81 -28.5 -142.5t-82 -95.5t-127.5 -34zM289 18q94 0 145.5 62.5t51.5 175.5q0 115 -51.5 177t-145.5 62t-145.5 -62t-51.5 -177q0 -113 51.5 -175.5t145.5 -62.5z
M198 588l102 130h48l-111 -130h-39zM340 588l102 130h48l-111 -130h-39z" />
    <glyph glyph-name="OE" unicode="&#x152;" horiz-adv-x="1084" 
d="M615 0v171q-74 -188 -257 -188q-89 0 -157 44.5t-105.5 129t-37.5 199.5q0 112 36 196.5t104.5 132t160.5 47.5q90 0 154.5 -47.5t101.5 -140.5v170h415v-37h-376v-290h356v-37h-356v-313h389l-11 -37h-417zM357 19q119 0 188.5 90t69.5 247q0 102 -30.5 178.5t-89 119
t-139.5 42.5q-77 0 -134.5 -40t-89.5 -117t-32 -183q0 -102 30 -178t88 -117.5t139 -41.5z" />
    <glyph glyph-name="oe" unicode="&#x153;" horiz-adv-x="969" 
d="M908 128q-13 -67 -65.5 -105.5t-132.5 -38.5q-82 0 -135.5 41.5t-75.5 122.5q-25 -80 -79.5 -122t-135.5 -42q-108 0 -170 72.5t-62 197.5q0 126 63.5 200.5t170.5 74.5q80 0 135.5 -42t77.5 -121q24 80 78.5 121.5t133.5 41.5q100 0 154 -66.5t54 -189.5v-26h-400
q1 -110 51 -169.5t142 -59.5q64 0 105.5 28.5t54.5 81.5h36zM286 18q93 0 143.5 62t50.5 176t-50.5 176.5t-143.5 62.5q-92 0 -143 -62.5t-51 -176.5t50.5 -176t143.5 -62zM881 280q0 106 -43.5 160.5t-128.5 54.5q-86 0 -134.5 -55.5t-54.5 -159.5h361z" />
    <glyph glyph-name="Racute" unicode="&#x154;" horiz-adv-x="617" 
d="M530 0l-149 326q-23 -4 -59 -4h-199v-322h-39v714h235q233 0 233 -192q0 -73 -33.5 -120.5t-98.5 -66.5l155 -335h-45zM320 358q99 0 145 39.5t46 123.5q0 82 -46.5 119.5t-150.5 37.5h-191v-320h197zM235 774l112 126h51l-121 -126h-42z" />
    <glyph glyph-name="racute" unicode="&#x155;" horiz-adv-x="333" 
d="M72 0v513h38v-89q65 97 169 97q17 0 38 -3l-5 -37q-19 3 -34 3q-40 0 -72.5 -15t-60.5 -47q-19 -21 -27 -45t-8 -62v-315h-38zM145 588l112 130h50l-121 -130h-41z" />
    <glyph glyph-name="Rcommaaccent" unicode="&#x156;" horiz-adv-x="617" 
d="M530 0l-149 326q-23 -4 -59 -4h-199v-322h-39v714h235q233 0 233 -192q0 -73 -33.5 -120.5t-98.5 -66.5l155 -335h-45zM320 358q99 0 145 39.5t46 123.5q0 82 -46.5 119.5t-150.5 37.5h-191v-320h197zM235 -205l71 134h46l-79 -134h-38z" />
    <glyph glyph-name="rcommaaccent" unicode="&#x157;" horiz-adv-x="333" 
d="M72 0v513h38v-89q65 97 169 97q17 0 38 -3l-5 -37q-19 3 -34 3q-40 0 -72.5 -15t-60.5 -47q-19 -21 -27 -45t-8 -62v-315h-38zM-4 -209l73 138h45l-82 -138h-36z" />
    <glyph glyph-name="Rcaron" unicode="&#x158;" horiz-adv-x="617" 
d="M530 0l-149 326q-23 -4 -59 -4h-199v-322h-39v714h235q233 0 233 -192q0 -73 -33.5 -120.5t-98.5 -66.5l155 -335h-45zM320 358q99 0 145 39.5t46 123.5q0 82 -46.5 119.5t-150.5 37.5h-191v-320h197zM267 774l-111 126h41l89 -95l89 95h41l-111 -126h-38z" />
    <glyph glyph-name="rcaron" unicode="&#x159;" horiz-adv-x="333" 
d="M72 0v513h38v-89q65 97 169 97q17 0 38 -3l-5 -37q-19 3 -34 3q-40 0 -72.5 -15t-60.5 -47q-19 -21 -27 -45t-8 -62v-315h-38zM176 588l-111 130h40l90 -101l90 101h40l-112 -130h-37z" />
    <glyph glyph-name="Sacute" unicode="&#x15a;" horiz-adv-x="621" 
d="M270 353q-106 17 -155.5 62t-49.5 125q0 92 63.5 142t181.5 50q103 0 161.5 -40.5t82.5 -128.5l-37 -10q-23 78 -70.5 111t-138.5 33q-100 0 -151.5 -39t-51.5 -116q0 -65 39.5 -101t124.5 -49l90 -14q104 -16 154 -63.5t50 -130.5q0 -97 -63.5 -149t-181.5 -52
q-119 0 -189.5 49.5t-81.5 142.5h38q30 -156 232 -156q103 0 153 40.5t50 122.5q0 68 -40 106t-127 52zM259 774l112 126h51l-121 -126h-42z" />
    <glyph glyph-name="sacute" unicode="&#x15b;" horiz-adv-x="505" 
d="M406 395q-19 56 -54 78t-103 22q-151 0 -151 -106q0 -44 27.5 -66.5t96.5 -34.5l64 -11q89 -15 127.5 -48t38.5 -95q0 -73 -49.5 -111.5t-143.5 -38.5q-96 0 -150.5 39.5t-62.5 113.5h37q10 -61 52.5 -90t121.5 -29t117.5 28t38.5 86q0 48 -30 73t-102 37l-55 9
q-88 14 -126.5 45.5t-38.5 89.5q0 68 49.5 105.5t139.5 37.5q80 0 126.5 -31t63.5 -96zM200 588l112 130h50l-121 -130h-41z" />
    <glyph glyph-name="Scircumflex" unicode="&#x15c;" horiz-adv-x="621" 
d="M270 353q-106 17 -155.5 62t-49.5 125q0 92 63.5 142t181.5 50q103 0 161.5 -40.5t82.5 -128.5l-37 -10q-23 78 -70.5 111t-138.5 33q-100 0 -151.5 -39t-51.5 -116q0 -65 39.5 -101t124.5 -49l90 -14q104 -16 154 -63.5t50 -130.5q0 -97 -63.5 -149t-181.5 -52
q-119 0 -189.5 49.5t-81.5 142.5h38q30 -156 232 -156q103 0 153 40.5t50 122.5q0 68 -40 106t-127 52zM399 774l-89 95l-89 -95h-41l111 126h38l111 -126h-41z" />
    <glyph glyph-name="scircumflex" unicode="&#x15d;" horiz-adv-x="505" 
d="M406 395q-19 56 -54 78t-103 22q-151 0 -151 -106q0 -44 27.5 -66.5t96.5 -34.5l64 -11q89 -15 127.5 -48t38.5 -95q0 -73 -49.5 -111.5t-143.5 -38.5q-96 0 -150.5 39.5t-62.5 113.5h37q10 -61 52.5 -90t121.5 -29t117.5 28t38.5 86q0 48 -30 73t-102 37l-55 9
q-88 14 -126.5 45.5t-38.5 89.5q0 68 49.5 105.5t139.5 37.5q80 0 126.5 -31t63.5 -96zM340 588l-90 101l-90 -101h-40l112 130h37l111 -130h-40z" />
    <glyph glyph-name="Scedilla" unicode="&#x15e;" horiz-adv-x="621" 
d="M270 353q-106 17 -155.5 62t-49.5 125q0 92 63.5 142t181.5 50q103 0 161.5 -40.5t82.5 -128.5l-37 -10q-23 78 -70.5 111t-138.5 33q-100 0 -151.5 -39t-51.5 -116q0 -65 39.5 -101t124.5 -49l90 -14q104 -16 154 -63.5t50 -130.5q0 -97 -63.5 -149t-181.5 -52
q-119 0 -189.5 49.5t-81.5 142.5h38q30 -156 232 -156q103 0 153 40.5t50 122.5q0 68 -40 106t-127 52zM241 -170q25 -4 53 -4q43 0 62 9.5t19 32.5t-21 32.5t-70 9.5h-14l33 93l32 -3l-23 -62q52 -3 76.5 -20.5t24.5 -51.5q0 -37 -28 -54.5t-89 -17.5q-36 0 -55 4v32z" />
    <glyph glyph-name="scedilla" unicode="&#x15f;" horiz-adv-x="505" 
d="M406 395q-19 56 -54 78t-103 22q-151 0 -151 -106q0 -44 27.5 -66.5t96.5 -34.5l64 -11q89 -15 127.5 -48t38.5 -95q0 -73 -49.5 -111.5t-143.5 -38.5q-96 0 -150.5 39.5t-62.5 113.5h37q10 -61 52.5 -90t121.5 -29t117.5 28t38.5 86q0 48 -30 73t-102 37l-55 9
q-88 14 -126.5 45.5t-38.5 89.5q0 68 49.5 105.5t139.5 37.5q80 0 126.5 -31t63.5 -96zM165 -156q30 -5 56 -5q39 0 56.5 9.5t17.5 31.5t-19 31.5t-66 9.5h-13l28 82l29 -3l-17 -53q95 -6 95 -69q0 -36 -27 -52.5t-85 -16.5q-35 0 -55 4v31z" />
    <glyph glyph-name="Scaron" unicode="&#x160;" horiz-adv-x="621" 
d="M270 353q-106 17 -155.5 62t-49.5 125q0 92 63.5 142t181.5 50q103 0 161.5 -40.5t82.5 -128.5l-37 -10q-23 78 -70.5 111t-138.5 33q-100 0 -151.5 -39t-51.5 -116q0 -65 39.5 -101t124.5 -49l90 -14q104 -16 154 -63.5t50 -130.5q0 -97 -63.5 -149t-181.5 -52
q-119 0 -189.5 49.5t-81.5 142.5h38q30 -156 232 -156q103 0 153 40.5t50 122.5q0 68 -40 106t-127 52zM291 774l-111 126h41l89 -95l89 95h41l-111 -126h-38z" />
    <glyph glyph-name="scaron" unicode="&#x161;" horiz-adv-x="505" 
d="M406 395q-19 56 -54 78t-103 22q-151 0 -151 -106q0 -44 27.5 -66.5t96.5 -34.5l64 -11q89 -15 127.5 -48t38.5 -95q0 -73 -49.5 -111.5t-143.5 -38.5q-96 0 -150.5 39.5t-62.5 113.5h37q10 -61 52.5 -90t121.5 -29t117.5 28t38.5 86q0 48 -30 73t-102 37l-55 9
q-88 14 -126.5 45.5t-38.5 89.5q0 68 49.5 105.5t139.5 37.5q80 0 126.5 -31t63.5 -96zM231 588l-111 130h40l90 -101l90 101h40l-112 -130h-37z" />
    <glyph glyph-name="uni0162" unicode="&#x162;" horiz-adv-x="578" 
d="M269 0v677h-251v37h542v-37h-251v-677h-40zM212 -170q25 -4 53 -4q43 0 62 9.5t19 32.5t-21 32.5t-70 9.5h-14l33 93l32 -3l-23 -62q52 -3 76.5 -20.5t24.5 -51.5q0 -37 -28 -54.5t-89 -17.5q-36 0 -55 4v32z" />
    <glyph glyph-name="uni0163" unicode="&#x163;" horiz-adv-x="323" 
d="M310 5q-34 -16 -82 -16q-128 0 -128 147v343h-79v34h79v142h38v-142h161v-34h-161v-346q0 -57 23 -83.5t71 -26.5q37 0 68 12zM116 -156q30 -5 56 -5q39 0 56.5 9.5t17.5 31.5t-19 31.5t-66 9.5h-13l28 82l29 -3l-17 -53q95 -6 95 -69q0 -36 -27 -52.5t-85 -16.5
q-35 0 -55 4v31z" />
    <glyph glyph-name="Tcaron" unicode="&#x164;" horiz-adv-x="578" 
d="M269 0v677h-251v37h542v-37h-251v-677h-40zM270 774l-111 126h41l89 -95l89 95h41l-111 -126h-38z" />
    <glyph glyph-name="tcaron" unicode="&#x165;" horiz-adv-x="323" 
d="M310 5q-34 -16 -82 -16q-128 0 -128 147v343h-79v34h79v142h38v-142h161v-34h-161v-346q0 -57 23 -83.5t71 -26.5q37 0 68 12zM219 583l23 141h38l-29 -141h-32z" />
    <glyph glyph-name="Tbar" unicode="&#x166;" horiz-adv-x="578" 
d="M269 0v340h-167v36h167v301h-251v37h542v-37h-251v-301h167v-36h-167v-340h-40z" />
    <glyph glyph-name="tbar" unicode="&#x167;" horiz-adv-x="343" 
d="M310 5q-34 -16 -82 -16q-128 0 -128 147v124h-79v34h79v185h-79v34h79v142h38v-142h161v-34h-161v-185h161v-34h-161v-127q0 -57 23 -84t71 -27q34 0 68 13z" />
    <glyph glyph-name="Utilde" unicode="&#x168;" horiz-adv-x="667" 
d="M548 714h40v-435q0 -296 -255 -296q-128 0 -191 74t-63 224v433h40v-437q0 -131 53 -194.5t162 -63.5t161.5 63t52.5 195v437zM496 874q0 -43 -23.5 -68.5t-63.5 -25.5q-20 0 -37 6.5t-39 22.5q-26 19 -42 26.5t-33 7.5q-26 0 -40 -16t-15 -45h-33q0 43 23.5 68.5
t63.5 25.5q20 0 37 -6.5t39 -22.5q26 -19 42 -26.5t33 -7.5q26 0 40 16t15 45h33z" />
    <glyph glyph-name="utilde" unicode="&#x169;" horiz-adv-x="538" 
d="M428 0v88q-74 -104 -194 -104q-81 0 -123 47.5t-42 139.5v342h38v-333q0 -83 32.5 -122t100.5 -39q80 0 140 56q27 26 37.5 53t10.5 74v311h38v-513h-38zM426 698q0 -43 -23.5 -68.5t-61.5 -25.5q-18 0 -34.5 6.5t-39.5 22.5q-32 23 -44.5 29t-29.5 6q-25 0 -39 -16.5
t-14 -45.5h-32q0 43 23.5 68.5t61.5 25.5q18 0 34.5 -6.5t39.5 -22.5q32 -23 44.5 -29t29.5 -6q25 0 39 16.5t14 45.5h32z" />
    <glyph glyph-name="Umacron" unicode="&#x16a;" horiz-adv-x="667" 
d="M548 714h40v-435q0 -296 -255 -296q-128 0 -191 74t-63 224v433h40v-437q0 -131 53 -194.5t162 -63.5t161.5 63t52.5 195v437zM196 798v35h274v-35h-274z" />
    <glyph glyph-name="umacron" unicode="&#x16b;" horiz-adv-x="538" 
d="M428 0v88q-74 -104 -194 -104q-81 0 -123 47.5t-42 139.5v342h38v-333q0 -83 32.5 -122t100.5 -39q80 0 140 56q27 26 37.5 53t10.5 74v311h38v-513h-38zM148 630v34h238v-34h-238z" />
    <glyph glyph-name="Ubreve" unicode="&#x16c;" horiz-adv-x="667" 
d="M548 714h40v-435q0 -296 -255 -296q-128 0 -191 74t-63 224v433h40v-437q0 -131 53 -194.5t162 -63.5t161.5 63t52.5 195v437zM451 891q0 -56 -31 -86.5t-87 -30.5t-87 30.5t-31 86.5h34q0 -41 22.5 -63.5t61.5 -22.5q41 0 63 22.5t22 63.5h33z" />
    <glyph glyph-name="ubreve" unicode="&#x16d;" horiz-adv-x="538" 
d="M428 0v88q-74 -104 -194 -104q-81 0 -123 47.5t-42 139.5v342h38v-333q0 -83 32.5 -122t100.5 -39q80 0 140 56q27 26 37.5 53t10.5 74v311h38v-513h-38zM385 713q0 -57 -31 -89t-87 -32t-87 32t-31 89h33q0 -43 22.5 -67t63.5 -24t63 24t22 67h32z" />
    <glyph glyph-name="Uring" unicode="&#x16e;" horiz-adv-x="667" 
d="M548 714h40v-435q0 -296 -255 -296q-128 0 -191 74t-63 224v433h40v-437q0 -131 53 -194.5t162 -63.5t161.5 63t52.5 195v437zM421 824q0 -41 -24 -65t-64 -24t-64 24t-24 65q0 42 24 66t64 24t64 -24t24 -66zM390 824q0 29 -14.5 45t-42.5 16t-42.5 -16t-14.5 -45
t15 -44.5t42 -15.5t42 15.5t15 44.5z" />
    <glyph glyph-name="uring" unicode="&#x16f;" horiz-adv-x="538" 
d="M428 0v88q-74 -104 -194 -104q-81 0 -123 47.5t-42 139.5v342h38v-333q0 -83 32.5 -122t100.5 -39q80 0 140 56q27 26 37.5 53t10.5 74v311h38v-513h-38zM355 679q0 -41 -24 -65t-64 -24t-64 24t-24 65t24 65t64 24t64 -24t24 -65zM324 679q0 29 -15 45t-42 16t-42 -16
t-15 -45t15 -45t42 -16t42 16t15 45z" />
    <glyph glyph-name="Uhungarumlaut" unicode="&#x170;" horiz-adv-x="667" 
d="M548 714h40v-435q0 -296 -255 -296q-128 0 -191 74t-63 224v433h40v-437q0 -131 53 -194.5t162 -63.5t161.5 63t52.5 195v437zM239 774l103 126h47l-111 -126h-39zM387 774l103 126h47l-111 -126h-39z" />
    <glyph glyph-name="uhungarumlaut" unicode="&#x171;" horiz-adv-x="538" 
d="M428 0v88q-74 -104 -194 -104q-81 0 -123 47.5t-42 139.5v342h38v-333q0 -83 32.5 -122t100.5 -39q80 0 140 56q27 26 37.5 53t10.5 74v311h38v-513h-38zM176 588l102 130h48l-111 -130h-39zM318 588l102 130h48l-111 -130h-39z" />
    <glyph glyph-name="Uogonek" unicode="&#x172;" horiz-adv-x="667" 
d="M548 714h40v-435q0 -296 -255 -296q-128 0 -191 74t-63 224v433h40v-437q0 -131 53 -194.5t162 -63.5t161.5 63t52.5 195v437zM449 -170q-20 -2 -28 -2q-42 0 -64 18t-22 52q0 28 15.5 53.5t47.5 52.5l40 -4q-34 -26 -49.5 -49.5t-15.5 -47.5q0 -22 12.5 -32t38.5 -10
q7 0 25 2v-33z" />
    <glyph glyph-name="uogonek" unicode="&#x173;" horiz-adv-x="538" 
d="M428 0v88q-74 -104 -194 -104q-81 0 -123 47.5t-42 139.5v342h38v-333q0 -83 32.5 -122t100.5 -39q80 0 140 56q27 26 37.5 53t10.5 74v311h38v-513h-38zM478 -165q-12 -2 -27 -2q-41 0 -63 17.5t-22 50.5q0 27 15 51.5t48 50.5l37 -3q-63 -48 -63 -93q0 -42 52 -42
q14 0 23 1v-31z" />
    <glyph glyph-name="Wcircumflex" unicode="&#x174;" horiz-adv-x="887" 
d="M623 0l-180 660l-180 -660h-44l-197 714h43l176 -662l183 659h43l180 -660l177 663h41l-196 -714h-46zM532 774l-89 95l-89 -95h-41l111 126h38l111 -126h-41z" />
    <glyph glyph-name="wcircumflex" unicode="&#x175;" horiz-adv-x="693" 
d="M488 0l-142 469l-141 -469h-44l-150 513h41l132 -471l143 468h42l142 -468l132 471h39l-150 -513h-44zM436 588l-90 101l-90 -101h-40l112 130h37l111 -130h-40z" />
    <glyph glyph-name="Ycircumflex" unicode="&#x176;" horiz-adv-x="570" 
d="M267 0v309l-247 405h44l223 -369l221 369h42l-244 -404v-310h-39zM374 774l-89 95l-89 -95h-41l111 126h38l111 -126h-41z" />
    <glyph glyph-name="ycircumflex" unicode="&#x177;" horiz-adv-x="481" 
d="M231 6l-223 507h42l201 -463l181 463h41l-241 -601q-23 -58 -51.5 -82t-72.5 -24q-32 0 -66 11l9 32q26 -9 54 -9q34 0 54.5 19.5t40.5 69.5zM330 588l-90 101l-90 -101h-40l112 130h37l111 -130h-40z" />
    <glyph glyph-name="Ydieresis" unicode="&#x178;" horiz-adv-x="570" 
d="M267 0v309l-247 405h44l223 -369l221 369h42l-244 -404v-310h-39zM183 793v92h42v-92h-42zM345 793v92h42v-92h-42z" />
    <glyph glyph-name="Zacute" unicode="&#x179;" horiz-adv-x="582" 
d="M39 0v33l450 644h-442v37h490v-33l-450 -644h456l-9 -37h-495zM241 774l112 126h51l-121 -126h-42z" />
    <glyph glyph-name="zacute" unicode="&#x17a;" horiz-adv-x="444" 
d="M27 0v30l332 450h-325v33h371v-31l-332 -449h349l-8 -33h-387zM169 588l112 130h50l-121 -130h-41z" />
    <glyph glyph-name="Zdotaccent" unicode="&#x17b;" horiz-adv-x="582" 
d="M39 0v33l450 644h-442v37h490v-33l-450 -644h456l-9 -37h-495zM271 793v92h42v-92h-42z" />
    <glyph glyph-name="zdotaccent" unicode="&#x17c;" horiz-adv-x="444" 
d="M27 0v30l332 450h-325v33h371v-31l-332 -449h349l-8 -33h-387zM199 622v92h40v-92h-40z" />
    <glyph glyph-name="Zcaron" unicode="&#x17d;" horiz-adv-x="582" 
d="M39 0v33l450 644h-442v37h490v-33l-450 -644h456l-9 -37h-495zM273 774l-111 126h41l89 -95l89 95h41l-111 -126h-38z" />
    <glyph glyph-name="zcaron" unicode="&#x17e;" horiz-adv-x="444" 
d="M27 0v30l332 450h-325v33h371v-31l-332 -449h349l-8 -33h-387zM200 588l-111 130h40l90 -101l90 101h40l-112 -130h-37z" />
    <glyph glyph-name="longs" unicode="&#x17f;" horiz-adv-x="184" 
d="M74 0v575q0 68 38.5 107.5t103.5 39.5q32 0 70 -11l-8 -32q-37 9 -59 9q-52 0 -79.5 -28.5t-27.5 -83.5v-576h-38z" />
    <glyph glyph-name="florin" unicode="&#x192;" horiz-adv-x="305" 
d="M100 479h-79v34h79v62q0 68 38.5 107.5t103.5 39.5q32 0 70 -11l-8 -32q-37 9 -59 9q-52 0 -79.5 -28.5t-27.5 -83.5v-63h149v-34h-149v-505q0 -83 -29 -121.5t-90 -38.5q-47 0 -88 16l9 32q41 -14 76 -14q84 0 84 107v524z" />
    <glyph glyph-name="uni0218" unicode="&#x218;" horiz-adv-x="621" 
d="M270 353q-106 17 -155.5 62t-49.5 125q0 92 63.5 142t181.5 50q103 0 161.5 -40.5t82.5 -128.5l-37 -10q-23 78 -70.5 111t-138.5 33q-100 0 -151.5 -39t-51.5 -116q0 -65 39.5 -101t124.5 -49l90 -14q104 -16 154 -63.5t50 -130.5q0 -97 -63.5 -149t-181.5 -52
q-119 0 -189.5 49.5t-81.5 142.5h38q30 -156 232 -156q103 0 153 40.5t50 122.5q0 68 -40 106t-127 52zM224 -205l71 134h46l-79 -134h-38z" />
    <glyph glyph-name="uni0219" unicode="&#x219;" horiz-adv-x="505" 
d="M406 395q-19 56 -54 78t-103 22q-151 0 -151 -106q0 -44 27.5 -66.5t96.5 -34.5l64 -11q89 -15 127.5 -48t38.5 -95q0 -73 -49.5 -111.5t-143.5 -38.5q-96 0 -150.5 39.5t-62.5 113.5h37q10 -61 52.5 -90t121.5 -29t117.5 28t38.5 86q0 48 -30 73t-102 37l-55 9
q-88 14 -126.5 45.5t-38.5 89.5q0 68 49.5 105.5t139.5 37.5q80 0 126.5 -31t63.5 -96zM164 -209l73 138h45l-82 -138h-36z" />
    <glyph glyph-name="uni021A" unicode="&#x21a;" horiz-adv-x="578" 
d="M269 0v677h-251v37h542v-37h-251v-677h-40zM195 -205l71 134h46l-79 -134h-38z" />
    <glyph glyph-name="uni021B" unicode="&#x21b;" horiz-adv-x="323" 
d="M310 5q-34 -16 -82 -16q-128 0 -128 147v343h-79v34h79v142h38v-142h161v-34h-161v-346q0 -57 23 -83.5t71 -26.5q37 0 68 12zM115 -209l73 138h45l-82 -138h-36z" />
    <glyph glyph-name="uni0237" unicode="&#x237;" horiz-adv-x="182" 
d="M72 513h38v-539q0 -83 -29 -121.5t-90 -38.5q-47 0 -88 16l9 32q41 -14 76 -14q84 0 84 107v558z" />
    <glyph glyph-name="uni02BC" unicode="&#x2bc;" horiz-adv-x="549" 
d="M237 530l31 189h44l-42 -189h-33z" />
    <glyph glyph-name="circumflex" unicode="&#x2c6;" horiz-adv-x="549" 
d="M364 588l-90 101l-90 -101h-40l112 130h37l111 -130h-40z" />
    <glyph glyph-name="caron" unicode="&#x2c7;" horiz-adv-x="549" 
d="M255 588l-111 130h40l90 -101l90 101h40l-112 -130h-37z" />
    <glyph glyph-name="uni02C9" unicode="&#x2c9;" horiz-adv-x="549" 
d="M155 630v34h238v-34h-238z" />
    <glyph glyph-name="uni02CB" unicode="&#x2cb;" horiz-adv-x="549" 
d="M314 588l-121 130h50l112 -130h-41z" />
    <glyph glyph-name="breve" unicode="&#x2d8;" horiz-adv-x="549" 
d="M392 713q0 -57 -31 -89t-87 -32t-87 32t-31 89h33q0 -43 22.5 -67t63.5 -24t63 24t22 67h32z" />
    <glyph glyph-name="dotaccent" unicode="&#x2d9;" horiz-adv-x="549" 
d="M254 622v92h40v-92h-40z" />
    <glyph glyph-name="ring" unicode="&#x2da;" horiz-adv-x="549" 
d="M362 679q0 -41 -24 -65t-64 -24t-64 24t-24 65t24 65t64 24t64 -24t24 -65zM331 679q0 29 -15 45t-42 16t-42 -16t-15 -45t15 -45t42 -16t42 16t15 45z" />
    <glyph glyph-name="ogonek" unicode="&#x2db;" horiz-adv-x="549" 
d="M330 -165q-12 -2 -27 -2q-41 0 -63 17.5t-22 50.5q0 27 15 51.5t48 50.5l37 -3q-63 -48 -63 -93q0 -42 52 -42q14 0 23 1v-31z" />
    <glyph glyph-name="tilde" unicode="&#x2dc;" horiz-adv-x="549" 
d="M433 698q0 -43 -23.5 -68.5t-61.5 -25.5q-18 0 -34.5 6.5t-39.5 22.5q-32 23 -44.5 29t-29.5 6q-25 0 -39 -16.5t-14 -45.5h-32q0 43 23.5 68.5t61.5 25.5q18 0 34.5 -6.5t39.5 -22.5q32 -23 44.5 -29t29.5 -6q25 0 39 16.5t14 45.5h32z" />
    <glyph glyph-name="hungarumlaut" unicode="&#x2dd;" horiz-adv-x="549" 
d="M128 588l102 130h48l-111 -130h-39zM270 588l102 130h48l-111 -130h-39z" />
    <glyph glyph-name="gravecomb" unicode="&#x300;" horiz-adv-x="0" 
d="M10 588l-121 130h50l112 -130h-41z" />
    <glyph glyph-name="acutecomb" unicode="&#x301;" horiz-adv-x="0" 
d="M-50 588l112 130h50l-121 -130h-41z" />
    <glyph glyph-name="uni0302" unicode="&#x302;" horiz-adv-x="0" 
d="M90 588l-90 101l-90 -101h-40l112 130h37l111 -130h-40z" />
    <glyph glyph-name="tildecomb" unicode="&#x303;" horiz-adv-x="0" 
d="M159 698q0 -43 -23.5 -68.5t-61.5 -25.5q-18 0 -34.5 6.5t-39.5 22.5q-32 23 -44.5 29t-29.5 6q-25 0 -39 -16.5t-14 -45.5h-32q0 43 23.5 68.5t61.5 25.5q18 0 34.5 -6.5t39.5 -22.5q32 -23 44.5 -29t29.5 -6q25 0 39 16.5t14 45.5h32z" />
    <glyph glyph-name="uni0304" unicode="&#x304;" horiz-adv-x="0" 
d="M-119 630v34h238v-34h-238z" />
    <glyph glyph-name="uni0306" unicode="&#x306;" horiz-adv-x="0" 
d="M118 713q0 -57 -31 -89t-87 -32t-87 32t-31 89h33q0 -43 22.5 -67t63.5 -24t63 24t22 67h32z" />
    <glyph glyph-name="uni0307" unicode="&#x307;" horiz-adv-x="0" 
d="M-20 622v92h40v-92h-40z" />
    <glyph glyph-name="uni0308" unicode="&#x308;" horiz-adv-x="0" 
d="M-96 622v92h40v-92h-40zM57 622v92h40v-92h-40z" />
    <glyph glyph-name="uni030A" unicode="&#x30a;" horiz-adv-x="0" 
d="M88 679q0 -41 -24 -65t-64 -24t-64 24t-24 65t24 65t64 24t64 -24t24 -65zM57 679q0 29 -15 45t-42 16t-42 -16t-15 -45t15 -45t42 -16t42 16t15 45z" />
    <glyph glyph-name="uni030B" unicode="&#x30b;" horiz-adv-x="0" 
d="M-91 588l102 130h48l-111 -130h-39zM51 588l102 130h48l-111 -130h-39z" />
    <glyph glyph-name="uni030C" unicode="&#x30c;" horiz-adv-x="0" 
d="M-19 588l-111 130h40l90 -101l90 101h40l-112 -130h-37z" />
    <glyph glyph-name="uni0312" unicode="&#x312;" horiz-adv-x="0" 
d="M-25 584l79 135h37l-71 -135h-45z" />
    <glyph glyph-name="uni0315" unicode="&#x315;" horiz-adv-x="0" 
d="M-15 547l25 167h39l-33 -167h-31z" />
    <glyph glyph-name="uni0326" unicode="&#x326;" horiz-adv-x="0" 
d="M-95 -209l73 138h45l-82 -138h-36z" />
    <glyph glyph-name="uni0327" unicode="&#x327;" horiz-adv-x="0" 
d="M-94 -156q30 -5 56 -5q39 0 56.5 9.5t17.5 31.5t-19 31.5t-66 9.5h-13l28 82l29 -3l-17 -53q95 -6 95 -69q0 -36 -27 -52.5t-85 -16.5q-35 0 -55 4v31z" />
    <glyph glyph-name="uni0328" unicode="&#x328;" horiz-adv-x="0" 
d="M31 -165q-12 -2 -27 -2q-41 0 -63 17.5t-22 50.5q0 27 15 51.5t48 50.5l37 -3q-63 -48 -63 -93q0 -42 52 -42q14 0 23 1v-31z" />
    <glyph glyph-name="uni0394" unicode="&#x394;" horiz-adv-x="637" 
d="M20 0l276 714h44l277 -714h-597zM317 672l-243 -635h487z" />
    <glyph glyph-name="uni03A9" unicode="&#x3a9;" horiz-adv-x="731" 
d="M444 0v30q91 61 133.5 144.5t42.5 199.5q0 153 -67 237.5t-189 84.5q-121 0 -189 -85t-68 -236q0 -116 42.5 -199.5t133.5 -145.5v-30h-243v36h182q-157 120 -157 341q0 105 36 185t104 125t160 45q89 0 156 -42t104 -122t37 -189q0 -221 -158 -343h187l-9 -36h-238z" />
    <glyph glyph-name="uni03BC" unicode="&#x3bc;" horiz-adv-x="541" 
d="M431 0v88q-75 -104 -192 -104q-93 0 -129 66v-244h-38v707h38v-333q0 -83 32.5 -122t101.5 -39q79 0 139 56q27 26 37.5 53t10.5 74v311h38v-513h-38z" />
    <glyph glyph-name="pi" unicode="&#x3c0;" horiz-adv-x="561" 
d="M539 -4q-16 -7 -46 -7q-47 0 -71.5 32.5t-24.5 96.5v361h-238v-479h-38v479h-100v34h519v-34h-105v-360q0 -50 16 -73t49 -23q21 0 34 4z" />
    <glyph glyph-name="Wgrave" unicode="&#x1e80;" horiz-adv-x="887" 
d="M623 0l-180 660l-180 -660h-44l-197 714h43l176 -662l183 659h43l180 -660l177 663h41l-196 -714h-46zM452 774l-121 126h51l112 -126h-42z" />
    <glyph glyph-name="wgrave" unicode="&#x1e81;" horiz-adv-x="693" 
d="M488 0l-142 469l-141 -469h-44l-150 513h41l132 -471l143 468h42l142 -468l132 471h39l-150 -513h-44zM356 588l-121 130h50l112 -130h-41z" />
    <glyph glyph-name="Wacute" unicode="&#x1e82;" horiz-adv-x="887" 
d="M623 0l-180 660l-180 -660h-44l-197 714h43l176 -662l183 659h43l180 -660l177 663h41l-196 -714h-46zM392 774l112 126h51l-121 -126h-42z" />
    <glyph glyph-name="wacute" unicode="&#x1e83;" horiz-adv-x="693" 
d="M488 0l-142 469l-141 -469h-44l-150 513h41l132 -471l143 468h42l142 -468l132 471h39l-150 -513h-44zM296 588l112 130h50l-121 -130h-41z" />
    <glyph glyph-name="Wdieresis" unicode="&#x1e84;" horiz-adv-x="887" 
d="M623 0l-180 660l-180 -660h-44l-197 714h43l176 -662l183 659h43l180 -660l177 663h41l-196 -714h-46zM341 793v92h42v-92h-42zM503 793v92h42v-92h-42z" />
    <glyph glyph-name="wdieresis" unicode="&#x1e85;" horiz-adv-x="693" 
d="M488 0l-142 469l-141 -469h-44l-150 513h41l132 -471l143 468h42l142 -468l132 471h39l-150 -513h-44zM250 622v92h40v-92h-40zM403 622v92h40v-92h-40z" />
    <glyph glyph-name="uni1E9E" unicode="&#x1e9e;" horiz-adv-x="752" 
d="M474 321q-86 17 -125.5 49.5t-39.5 84.5q0 53 42.5 102t148.5 120h-192q-99 0 -146.5 -50.5t-47.5 -156.5v-470h-40v470q0 120 59 182t175 62h247v-37l-17 -12q-83 -59 -121.5 -93t-53 -60t-14.5 -55q0 -40 31 -62t109 -38l25 -5q101 -20 145.5 -61t44.5 -113
q0 -88 -61 -141.5t-161 -53.5q-97 0 -152.5 49t-65.5 143h38q10 -77 55.5 -116.5t124.5 -39.5q82 0 130.5 43t48.5 116q0 57 -36.5 88.5t-125.5 49.5z" />
    <glyph glyph-name="Ygrave" unicode="&#x1ef2;" horiz-adv-x="570" 
d="M267 0v309l-247 405h44l223 -369l221 369h42l-244 -404v-310h-39zM294 774l-121 126h51l112 -126h-42z" />
    <glyph glyph-name="ygrave" unicode="&#x1ef3;" horiz-adv-x="481" 
d="M231 6l-223 507h42l201 -463l181 463h41l-241 -601q-23 -58 -51.5 -82t-72.5 -24q-32 0 -66 11l9 32q26 -9 54 -9q34 0 54.5 19.5t40.5 69.5zM250 588l-121 130h50l112 -130h-41z" />
    <glyph glyph-name="uni2000" unicode="&#x2000;" horiz-adv-x="500" 
 />
    <glyph glyph-name="uni2001" unicode="&#x2001;" horiz-adv-x="1000" 
 />
    <glyph glyph-name="uni2002" unicode="&#x2002;" horiz-adv-x="500" 
 />
    <glyph glyph-name="uni2003" unicode="&#x2003;" horiz-adv-x="1000" 
 />
    <glyph glyph-name="uni2004" unicode="&#x2004;" horiz-adv-x="333" 
 />
    <glyph glyph-name="uni2005" unicode="&#x2005;" horiz-adv-x="250" 
 />
    <glyph glyph-name="uni2006" unicode="&#x2006;" horiz-adv-x="166" 
 />
    <glyph glyph-name="uni2007" unicode="&#x2007;" horiz-adv-x="592" 
 />
    <glyph glyph-name="uni2008" unicode="&#x2008;" horiz-adv-x="179" 
 />
    <glyph glyph-name="uni2009" unicode="&#x2009;" horiz-adv-x="200" 
 />
    <glyph glyph-name="uni200A" unicode="&#x200a;" horiz-adv-x="50" 
 />
    <glyph glyph-name="uni200B" unicode="&#x200b;" horiz-adv-x="0" 
 />
    <glyph glyph-name="uni2010" unicode="&#x2010;" horiz-adv-x="389" 
d="M50 269v38h289v-38h-289z" />
    <glyph glyph-name="uni2012" unicode="&#x2012;" horiz-adv-x="592" 
d="M46 324v38h500v-38h-500z" />
    <glyph glyph-name="endash" unicode="&#x2013;" horiz-adv-x="500" 
d="M0 269v38h500v-38h-500z" />
    <glyph glyph-name="emdash" unicode="&#x2014;" horiz-adv-x="1000" 
d="M0 269v38h1000v-38h-1000z" />
    <glyph glyph-name="uni2015" unicode="&#x2015;" horiz-adv-x="1000" 
d="M0 269v38h1000v-38h-1000z" />
    <glyph glyph-name="quoteleft" unicode="&#x2018;" horiz-adv-x="179" 
d="M54 525l42 189h33l-31 -189h-44z" />
    <glyph glyph-name="quoteright" unicode="&#x2019;" horiz-adv-x="179" 
d="M50 525l31 189h44l-42 -189h-33z" />
    <glyph glyph-name="quotesinglbase" unicode="&#x201a;" horiz-adv-x="179" 
d="M50 -87l31 189h44l-42 -189h-33z" />
    <glyph glyph-name="quotedblleft" unicode="&#x201c;" horiz-adv-x="302" 
d="M54 525l42 189h33l-31 -189h-44zM177 525l42 189h33l-31 -189h-44z" />
    <glyph glyph-name="quotedblright" unicode="&#x201d;" horiz-adv-x="302" 
d="M50 530l31 189h44l-42 -189h-33zM173 530l31 189h44l-42 -189h-33z" />
    <glyph glyph-name="quotedblbase" unicode="&#x201e;" horiz-adv-x="302" 
d="M50 -87l31 189h44l-42 -189h-33zM173 -87l31 189h44l-42 -189h-33z" />
    <glyph glyph-name="dagger" unicode="&#x2020;" horiz-adv-x="453" 
d="M208 -87v561h-185v33h185v207h38v-207h184v-33h-184v-561h-38z" />
    <glyph glyph-name="daggerdbl" unicode="&#x2021;" horiz-adv-x="453" 
d="M208 -87v218h-185v34h185v309h-185v33h185v207h38v-207h184v-33h-184v-309h184v-34h-184v-218h-38z" />
    <glyph glyph-name="bullet" unicode="&#x2022;" horiz-adv-x="309" 
d="M267 365q0 -48 -31.5 -80t-80.5 -32t-81 31.5t-32 80.5q0 48 32 79.5t81 31.5q48 0 80 -31.5t32 -79.5z" />
    <glyph glyph-name="ellipsis" unicode="&#x2026;" horiz-adv-x="722" 
d="M68 0v102h42v-102h-42zM340 0v102h42v-102h-42zM611 0v102h42v-102h-42z" />
    <glyph glyph-name="perthousand" unicode="&#x2030;" horiz-adv-x="1265" 
d="M238 0l354 691h40l-354 -691h-40zM664 -21q-78 0 -121 56t-43 157t43 157t121 56t121 -56t43 -157q0 -102 -42.5 -157.5t-121.5 -55.5zM664 12q61 0 93.5 46t32.5 134t-32.5 134t-93.5 46t-93.5 -46t-32.5 -134t32.5 -134t93.5 -46zM1060 -21q-78 0 -121 56t-43 157
t43 157t121 56t121 -56t43 -157q0 -102 -42.5 -157.5t-121.5 -55.5zM1060 12q61 0 93.5 46t32.5 134t-32.5 134t-93.5 46t-93.5 -46t-32.5 -134t32.5 -134t93.5 -46zM206 281q-78 0 -121 56t-43 157t43 157t121 56t121 -56t43 -157q0 -102 -42.5 -157.5t-121.5 -55.5z
M206 314q61 0 93.5 46t32.5 134t-32.5 134t-93.5 46t-93.5 -46t-32.5 -134t32.5 -134t93.5 -46z" />
    <glyph glyph-name="minute" unicode="&#x2032;" horiz-adv-x="170" 
d="M44 472l38 242h44l-49 -242h-33z" />
    <glyph glyph-name="second" unicode="&#x2033;" horiz-adv-x="327" 
d="M44 472l38 242h44l-49 -242h-33zM201 472l38 242h44l-49 -242h-33z" />
    <glyph glyph-name="guilsinglleft" unicode="&#x2039;" horiz-adv-x="269" 
d="M188 34l-144 222l144 222h38l-139 -222l139 -222h-38z" />
    <glyph glyph-name="guilsinglright" unicode="&#x203a;" horiz-adv-x="269" 
d="M43 34l139 222l-139 222h38l144 -222l-144 -222h-38z" />
    <glyph glyph-name="fraction" unicode="&#x2044;" horiz-adv-x="58" 
d="M-168 0l354 691h40l-354 -691h-40z" />
    <glyph glyph-name="uni2070" unicode="&#x2070;" 
d="M206 281q-78 0 -121 56t-43 157t43 157t121 56t121 -56t43 -157q0 -102 -42.5 -157.5t-121.5 -55.5zM206 314q61 0 93.5 46t32.5 134t-32.5 134t-93.5 46t-93.5 -46t-32.5 -134t32.5 -134t93.5 -46z" />
    <glyph glyph-name="uni2074" unicode="&#x2074;" 
d="M261 294v108h-206v25l207 267h33v-262h51l-8 -30h-43v-108h-34zM261 648l-167 -216h167v216z" />
    <glyph glyph-name="uni2075" unicode="&#x2075;" 
d="M107 389q7 -38 33 -58t69 -20q48 0 73 26.5t25 78.5q0 102 -96 102q-65 0 -101 -40h-29l18 216h216v-32h-187l-12 -146q37 32 98 32q62 0 95 -34t33 -98q0 -65 -34.5 -100t-99.5 -35q-58 0 -92.5 28t-40.5 80h32z" />
    <glyph glyph-name="uni2076" unicode="&#x2076;" 
d="M310 609q-9 35 -30 51t-56 16q-59 0 -88.5 -46.5t-31.5 -141.5q35 61 118 61q62 0 96 -35.5t34 -96.5q0 -62 -38 -99t-102 -37q-71 0 -106 49t-35 150q0 110 40 168t114 58q47 0 77 -23t39 -67zM214 312q47 0 74.5 28t27.5 77q0 48 -25 75t-72 27q-49 0 -78.5 -26
t-29.5 -71q0 -49 27 -79.5t76 -30.5z" />
    <glyph glyph-name="uni2077" unicode="&#x2077;" 
d="M150 294q30 104 66 190t86 176h-238v33h277v-28q-105 -184 -153 -371h-38z" />
    <glyph glyph-name="uni2078" unicode="&#x2078;" 
d="M270 498q39 -10 60.5 -36.5t21.5 -64.5q0 -55 -38 -85.5t-108 -30.5q-68 0 -107 30.5t-39 85.5q0 36 21.5 62.5t59.5 37.5q-31 10 -49 36t-18 62q0 52 36 82t97 30t96 -30t35 -82q0 -35 -18 -60.5t-50 -36.5zM316 397q0 41 -28.5 62.5t-81.5 21.5t-81.5 -21.5
t-28.5 -62.5q0 -42 28.5 -64t81.5 -22t81.5 22.5t28.5 63.5zM303 594q0 39 -25.5 61t-71.5 22t-71.5 -22t-25.5 -61q0 -40 25.5 -61.5t71.5 -21.5t71.5 21.5t25.5 61.5z" />
    <glyph glyph-name="uni2079" unicode="&#x2079;" 
d="M102 381q12 -70 92 -70q61 0 87 45.5t26 144.5q-33 -63 -115 -63q-62 0 -96 35t-34 97q0 63 37.5 99.5t102.5 36.5q72 0 105.5 -49t33.5 -154q0 -113 -36.5 -167.5t-111.5 -54.5q-54 0 -86.5 26.5t-37.5 73.5h33zM302 565q0 48 -27 79.5t-76 31.5q-47 0 -74.5 -28.5
t-27.5 -78.5q0 -48 25 -74.5t72 -26.5q49 0 78.5 26t29.5 71z" />
    <glyph glyph-name="uni2080" unicode="&#x2080;" 
d="M206 -13q-78 0 -121 56t-43 157t43 157t121 56t121 -56t43 -157q0 -102 -42.5 -157.5t-121.5 -55.5zM206 20q61 0 93.5 46t32.5 134t-32.5 134t-93.5 46t-93.5 -46t-32.5 -134t32.5 -134t93.5 -46z" />
    <glyph glyph-name="uni2081" unicode="&#x2081;" 
d="M208 0v361l-107 -54l-15 29l121 64h38v-400h-37z" />
    <glyph glyph-name="uni2082" unicode="&#x2082;" 
d="M70 1v29q42 37 99 83q77 65 103.5 101.5t26.5 78.5q0 43 -23.5 65.5t-67.5 22.5q-82 0 -105 -82l-33 6q29 108 138 108q60 0 94 -31.5t34 -87.5q0 -47 -30 -90t-111 -111l-70 -59h214l-8 -33h-261z" />
    <glyph glyph-name="uni2083" unicode="&#x2083;" 
d="M157 194v29h55q38 0 59.5 22t21.5 60t-23.5 58t-67.5 20q-43 0 -68.5 -19t-37.5 -60l-32 6q25 103 139 103q59 0 92 -28t33 -79q0 -67 -59 -94q33 -12 50.5 -39t17.5 -66q0 -57 -35.5 -88.5t-100.5 -31.5q-63 0 -101.5 31.5t-40.5 86.5h32q11 -88 109 -88q50 0 75.5 23
t25.5 67q0 41 -22.5 64t-62.5 23h-59z" />
    <glyph glyph-name="uni2084" unicode="&#x2084;" 
d="M261 0v108h-206v25l207 267h33v-262h51l-8 -30h-43v-108h-34zM261 354l-167 -216h167v216z" />
    <glyph glyph-name="uni2085" unicode="&#x2085;" 
d="M107 95q7 -38 33 -58t69 -20q48 0 73 26.5t25 78.5q0 102 -96 102q-65 0 -101 -40h-29l18 216h216v-32h-187l-12 -146q37 32 98 32q62 0 95 -34t33 -98q0 -65 -34.5 -100t-99.5 -35q-58 0 -92.5 28t-40.5 80h32z" />
    <glyph glyph-name="uni2086" unicode="&#x2086;" 
d="M310 315q-9 35 -30 51t-56 16q-59 0 -88.5 -46.5t-31.5 -141.5q35 61 118 61q62 0 96 -35.5t34 -96.5q0 -62 -38 -99t-102 -37q-71 0 -106 49t-35 150q0 110 40 168t114 58q47 0 77 -23t39 -67zM214 18q47 0 74.5 28t27.5 77q0 48 -25 75t-72 27q-49 0 -78.5 -26
t-29.5 -71q0 -49 27 -79.5t76 -30.5z" />
    <glyph glyph-name="uni2087" unicode="&#x2087;" 
d="M150 0q30 104 66 190t86 176h-238v33h277v-28q-105 -184 -153 -371h-38z" />
    <glyph glyph-name="uni2088" unicode="&#x2088;" 
d="M270 204q39 -10 60.5 -36.5t21.5 -64.5q0 -55 -38 -85.5t-108 -30.5q-68 0 -107 30.5t-39 85.5q0 36 21.5 62.5t59.5 37.5q-31 10 -49 36t-18 62q0 52 36 82t97 30t96 -30t35 -82q0 -35 -18 -60.5t-50 -36.5zM316 103q0 41 -28.5 62.5t-81.5 21.5t-81.5 -21.5
t-28.5 -62.5q0 -42 28.5 -64t81.5 -22t81.5 22.5t28.5 63.5zM303 300q0 39 -25.5 61t-71.5 22t-71.5 -22t-25.5 -61q0 -40 25.5 -61.5t71.5 -21.5t71.5 21.5t25.5 61.5z" />
    <glyph glyph-name="uni2089" unicode="&#x2089;" 
d="M102 87q12 -70 92 -70q61 0 87 45.5t26 144.5q-33 -63 -115 -63q-62 0 -96 35t-34 97q0 63 37.5 99.5t102.5 36.5q72 0 105.5 -49t33.5 -154q0 -113 -36.5 -167.5t-111.5 -54.5q-54 0 -86.5 26.5t-37.5 73.5h33zM302 271q0 48 -27 79.5t-76 31.5q-47 0 -74.5 -28.5
t-27.5 -78.5q0 -48 25 -74.5t72 -26.5q49 0 78.5 26t29.5 71z" />
    <glyph glyph-name="Euro" unicode="&#x20ac;" horiz-adv-x="592" 
d="M561 194q-13 -103 -70.5 -157.5t-153.5 -54.5q-106 0 -169 67.5t-79 199.5h-71l9 34h59q-1 12 -1 50q0 46 4 78h-71l9 34h66q20 129 83.5 197t164.5 68q84 0 137.5 -46t72.5 -135l-36 -8q-34 154 -174 154q-87 0 -140 -57.5t-70 -172.5h285l-9 -34h-280q-1 -19 -2 -37
t-1 -37q0 -40 1 -54h261l-9 -34h-248q27 -233 210 -233q79 0 125 44t61 134h36z" />
    <glyph glyph-name="uni20B9" unicode="&#x20b9;" horiz-adv-x="592" 
d="M455 0l-345 296v33h109q175 0 185 147h-294v34h295q-4 76 -49.5 111.5t-137.5 35.5h-108v34h429l-7 -34h-168q36 -20 56.5 -58.5t22.5 -88.5h68l-8 -34h-61q-6 -88 -63 -134t-159 -46h-54l345 -296h-56z" />
    <glyph glyph-name="uni20BA" unicode="&#x20ba;" horiz-adv-x="592" 
d="M516 277q-11 -134 -87 -205.5t-209 -71.5h-84v267l-72 -33l-13 28l85 39v125l-72 -33l-13 28l85 39v231h38v-214l211 97l13 -28l-224 -103v-125l211 97l13 -28l-224 -103v-248h48q233 0 258 241h36z" />
    <glyph glyph-name="afii61289" unicode="&#x2113;" horiz-adv-x="316" 
d="M288 34q-37 -50 -92 -50q-46 0 -71 28t-25 81v145l-52 -58l-20 20l72 82v311q0 62 25 96.5t70 34.5q82 0 82 -124q0 -83 -36.5 -167.5t-105.5 -163.5v-172q0 -40 16.5 -60.5t48.5 -20.5q38 0 70 38zM135 317q52 61 80.5 135t28.5 145q0 95 -52 95q-28 0 -42.5 -24.5
t-14.5 -70.5v-280z" />
    <glyph glyph-name="trademark" unicode="&#x2122;" horiz-adv-x="884" 
d="M159 314v368h-141v32h317v-32h-141v-368h-35zM773 314v349l-156 -349h-29l-155 349v-349h-32v400h43l159 -362l159 362h43v-400h-32z" />
    <glyph glyph-name="uni2126" unicode="&#x2126;" horiz-adv-x="731" 
d="M444 0v30q91 61 133.5 144.5t42.5 199.5q0 153 -67 237.5t-189 84.5q-121 0 -189 -85t-68 -236q0 -116 42.5 -199.5t133.5 -145.5v-30h-243v36h182q-157 120 -157 341q0 105 36 185t104 125t160 45q89 0 156 -42t104 -122t37 -189q0 -221 -158 -343h187l-9 -36h-238z" />
    <glyph glyph-name="estimated" unicode="&#x212e;" horiz-adv-x="911" 
d="M775 129q-54 -66 -139 -103t-182 -37q-107 0 -198.5 46.5t-148.5 130t-57 186.5q0 95 51.5 178t145 135t207.5 52q106 0 198.5 -46.5t150.5 -131t58 -187.5v-10h-657q-5 0 -5 -4v-199q0 -13 9 -22q49 -53 112.5 -80.5t135.5 -27.5q75 0 142 31t119 89h58zM711 568
q0 14 -9 24q-50 50 -113.5 76.5t-132.5 26.5q-68 0 -131.5 -27.5t-115.5 -79.5q-10 -7 -10 -24v-195q0 -7 5 -7h503q4 0 4 7v199z" />
    <glyph glyph-name="oneseventh" unicode="&#x2150;" horiz-adv-x="887" 
d="M180 0l354 691h40l-354 -691h-40zM623 -2q30 104 66 190t86 176h-238v33h277v-28q-105 -184 -153 -371h-38zM166 294v361l-107 -54l-15 29l121 64h38v-400h-37z" />
    <glyph glyph-name="oneninth" unicode="&#x2151;" horiz-adv-x="887" 
d="M196 0l354 691h40l-354 -691h-40zM581 85q12 -70 92 -70q61 0 87 45.5t26 144.5q-33 -63 -115 -63q-62 0 -96 35t-34 97q0 63 37.5 99.5t102.5 36.5q72 0 105.5 -49t33.5 -154q0 -113 -36.5 -167.5t-111.5 -54.5q-54 0 -86.5 26.5t-37.5 73.5h33zM781 269q0 48 -27 79.5
t-76 31.5q-47 0 -74.5 -28.5t-27.5 -78.5q0 -48 25 -74.5t72 -26.5q49 0 78.5 26t29.5 71zM166 294v361l-107 -54l-15 29l121 64h38v-400h-37z" />
    <glyph glyph-name="onethird" unicode="&#x2153;" horiz-adv-x="887" 
d="M189 0l354 691h40l-354 -691h-40zM629 192v29h55q38 0 59.5 22t21.5 60t-23.5 58t-67.5 20q-43 0 -68.5 -19t-37.5 -60l-32 6q25 103 139 103q59 0 92 -28t33 -79q0 -67 -59 -94q33 -12 50.5 -39t17.5 -66q0 -57 -35.5 -88.5t-100.5 -31.5q-63 0 -101.5 31.5t-40.5 86.5
h32q11 -88 109 -88q50 0 75.5 23t25.5 67q0 41 -22.5 64t-62.5 23h-59zM166 294v361l-107 -54l-15 29l121 64h38v-400h-37z" />
    <glyph glyph-name="twothirds" unicode="&#x2154;" horiz-adv-x="887" 
d="M254 0l354 691h40l-354 -691h-40zM629 192v29h55q38 0 59.5 22t21.5 60t-23.5 58t-67.5 20q-43 0 -68.5 -19t-37.5 -60l-32 6q25 103 139 103q59 0 92 -28t33 -79q0 -67 -59 -94q33 -12 50.5 -39t17.5 -66q0 -57 -35.5 -88.5t-100.5 -31.5q-63 0 -101.5 31.5t-40.5 86.5
h32q11 -88 109 -88q50 0 75.5 23t25.5 67q0 41 -22.5 64t-62.5 23h-59zM70 295v29q42 37 99 83q77 65 103.5 101.5t26.5 78.5q0 43 -23.5 65.5t-67.5 22.5q-82 0 -105 -82l-33 6q29 108 138 108q60 0 94 -31.5t34 -87.5q0 -47 -30 -90t-111 -111l-70 -59h214l-8 -33h-261z
" />
    <glyph glyph-name="onefifth" unicode="&#x2155;" horiz-adv-x="887" 
d="M191 0l354 691h40l-354 -691h-40zM579 93q7 -38 33 -58t69 -20q48 0 73 26.5t25 78.5q0 102 -96 102q-65 0 -101 -40h-29l18 216h216v-32h-187l-12 -146q37 32 98 32q62 0 95 -34t33 -98q0 -65 -34.5 -100t-99.5 -35q-58 0 -92.5 28t-40.5 80h32zM166 294v361l-107 -54
l-15 29l121 64h38v-400h-37z" />
    <glyph glyph-name="twofifths" unicode="&#x2156;" horiz-adv-x="887" 
d="M252 0l354 691h40l-354 -691h-40zM579 93q7 -38 33 -58t69 -20q48 0 73 26.5t25 78.5q0 102 -96 102q-65 0 -101 -40h-29l18 216h216v-32h-187l-12 -146q37 32 98 32q62 0 95 -34t33 -98q0 -65 -34.5 -100t-99.5 -35q-58 0 -92.5 28t-40.5 80h32zM70 295v29q42 37 99 83
q77 65 103.5 101.5t26.5 78.5q0 43 -23.5 65.5t-67.5 22.5q-82 0 -105 -82l-33 6q29 108 138 108q60 0 94 -31.5t34 -87.5q0 -47 -30 -90t-111 -111l-70 -59h214l-8 -33h-261z" />
    <glyph glyph-name="threefifths" unicode="&#x2157;" horiz-adv-x="887" 
d="M242 0l354 691h40l-354 -691h-40zM579 93q7 -38 33 -58t69 -20q48 0 73 26.5t25 78.5q0 102 -96 102q-65 0 -101 -40h-29l18 216h216v-32h-187l-12 -146q37 32 98 32q62 0 95 -34t33 -98q0 -65 -34.5 -100t-99.5 -35q-58 0 -92.5 28t-40.5 80h32zM155 488v29h55
q38 0 59.5 22t21.5 60t-23.5 58t-67.5 20q-43 0 -68.5 -19t-37.5 -60l-32 6q25 103 139 103q59 0 92 -28t33 -79q0 -67 -59 -94q33 -12 50.5 -39t17.5 -66q0 -57 -35.5 -88.5t-100.5 -31.5q-63 0 -101.5 31.5t-40.5 86.5h32q11 -88 109 -88q50 0 75.5 23t25.5 67
q0 41 -22.5 64t-62.5 23h-59z" />
    <glyph glyph-name="fourfifths" unicode="&#x2158;" horiz-adv-x="887" 
d="M246 0l354 691h40l-354 -691h-40zM579 93q7 -38 33 -58t69 -20q48 0 73 26.5t25 78.5q0 102 -96 102q-65 0 -101 -40h-29l18 216h216v-32h-187l-12 -146q37 32 98 32q62 0 95 -34t33 -98q0 -65 -34.5 -100t-99.5 -35q-58 0 -92.5 28t-40.5 80h32zM268 294v108h-206v25
l207 267h33v-262h51l-8 -30h-43v-108h-34zM268 648l-167 -216h167v216z" />
    <glyph glyph-name="onesixth" unicode="&#x2159;" horiz-adv-x="887" 
d="M209 0l354 691h40l-354 -691h-40zM783 313q-9 35 -30 51t-56 16q-59 0 -88.5 -46.5t-31.5 -141.5q35 61 118 61q62 0 96 -35.5t34 -96.5q0 -62 -38 -99t-102 -37q-71 0 -106 49t-35 150q0 110 40 168t114 58q47 0 77 -23t39 -67zM687 16q47 0 74.5 28t27.5 77
q0 48 -25 75t-72 27q-49 0 -78.5 -26t-29.5 -71q0 -49 27 -79.5t76 -30.5zM166 294v361l-107 -54l-15 29l121 64h38v-400h-37z" />
    <glyph glyph-name="fivesixths" unicode="&#x215a;" horiz-adv-x="887" 
d="M252 0l354 691h40l-354 -691h-40zM783 313q-9 35 -30 51t-56 16q-59 0 -88.5 -46.5t-31.5 -141.5q35 61 118 61q62 0 96 -35.5t34 -96.5q0 -62 -38 -99t-102 -37q-71 0 -106 49t-35 150q0 110 40 168t114 58q47 0 77 -23t39 -67zM687 16q47 0 74.5 28t27.5 77
q0 48 -25 75t-72 27q-49 0 -78.5 -26t-29.5 -71q0 -49 27 -79.5t76 -30.5zM107 389q7 -38 33 -58t69 -20q48 0 73 26.5t25 78.5q0 102 -96 102q-65 0 -101 -40h-29l18 216h216v-32h-187l-12 -146q37 32 98 32q62 0 95 -34t33 -98q0 -65 -34.5 -100t-99.5 -35q-58 0 -92.5 28
t-40.5 80h32z" />
    <glyph glyph-name="oneeighth" unicode="&#x215b;" horiz-adv-x="887" 
d="M197 0l354 691h40l-354 -691h-40zM745 202q39 -10 60.5 -36.5t21.5 -64.5q0 -55 -38 -85.5t-108 -30.5q-68 0 -107 30.5t-39 85.5q0 36 21.5 62.5t59.5 37.5q-31 10 -49 36t-18 62q0 52 36 82t97 30t96 -30t35 -82q0 -35 -18 -60.5t-50 -36.5zM791 101q0 41 -28.5 62.5
t-81.5 21.5t-81.5 -21.5t-28.5 -62.5q0 -42 28.5 -64t81.5 -22t81.5 22.5t28.5 63.5zM778 298q0 39 -25.5 61t-71.5 22t-71.5 -22t-25.5 -61q0 -40 25.5 -61.5t71.5 -21.5t71.5 21.5t25.5 61.5zM166 294v361l-107 -54l-15 29l121 64h38v-400h-37z" />
    <glyph glyph-name="threeeighths" unicode="&#x215c;" horiz-adv-x="887" 
d="M246 0l354 691h40l-354 -691h-40zM745 202q39 -10 60.5 -36.5t21.5 -64.5q0 -55 -38 -85.5t-108 -30.5q-68 0 -107 30.5t-39 85.5q0 36 21.5 62.5t59.5 37.5q-31 10 -49 36t-18 62q0 52 36 82t97 30t96 -30t35 -82q0 -35 -18 -60.5t-50 -36.5zM791 101q0 41 -28.5 62.5
t-81.5 21.5t-81.5 -21.5t-28.5 -62.5q0 -42 28.5 -64t81.5 -22t81.5 22.5t28.5 63.5zM778 298q0 39 -25.5 61t-71.5 22t-71.5 -22t-25.5 -61q0 -40 25.5 -61.5t71.5 -21.5t71.5 21.5t25.5 61.5zM155 488v29h55q38 0 59.5 22t21.5 60t-23.5 58t-67.5 20q-43 0 -68.5 -19
t-37.5 -60l-32 6q25 103 139 103q59 0 92 -28t33 -79q0 -67 -59 -94q33 -12 50.5 -39t17.5 -66q0 -57 -35.5 -88.5t-100.5 -31.5q-63 0 -101.5 31.5t-40.5 86.5h32q11 -88 109 -88q50 0 75.5 23t25.5 67q0 41 -22.5 64t-62.5 23h-59z" />
    <glyph glyph-name="fiveeighths" unicode="&#x215d;" horiz-adv-x="887" 
d="M249 0l354 691h40l-354 -691h-40zM745 202q39 -10 60.5 -36.5t21.5 -64.5q0 -55 -38 -85.5t-108 -30.5q-68 0 -107 30.5t-39 85.5q0 36 21.5 62.5t59.5 37.5q-31 10 -49 36t-18 62q0 52 36 82t97 30t96 -30t35 -82q0 -35 -18 -60.5t-50 -36.5zM791 101q0 41 -28.5 62.5
t-81.5 21.5t-81.5 -21.5t-28.5 -62.5q0 -42 28.5 -64t81.5 -22t81.5 22.5t28.5 63.5zM778 298q0 39 -25.5 61t-71.5 22t-71.5 -22t-25.5 -61q0 -40 25.5 -61.5t71.5 -21.5t71.5 21.5t25.5 61.5zM107 389q7 -38 33 -58t69 -20q48 0 73 26.5t25 78.5q0 102 -96 102
q-65 0 -101 -40h-29l18 216h216v-32h-187l-12 -146q37 32 98 32q62 0 95 -34t33 -98q0 -65 -34.5 -100t-99.5 -35q-58 0 -92.5 28t-40.5 80h32z" />
    <glyph glyph-name="seveneighths" unicode="&#x215e;" horiz-adv-x="887" 
d="M201 0l354 691h40l-354 -691h-40zM745 202q39 -10 60.5 -36.5t21.5 -64.5q0 -55 -38 -85.5t-108 -30.5q-68 0 -107 30.5t-39 85.5q0 36 21.5 62.5t59.5 37.5q-31 10 -49 36t-18 62q0 52 36 82t97 30t96 -30t35 -82q0 -35 -18 -60.5t-50 -36.5zM791 101q0 41 -28.5 62.5
t-81.5 21.5t-81.5 -21.5t-28.5 -62.5q0 -42 28.5 -64t81.5 -22t81.5 22.5t28.5 63.5zM778 298q0 39 -25.5 61t-71.5 22t-71.5 -22t-25.5 -61q0 -40 25.5 -61.5t71.5 -21.5t71.5 21.5t25.5 61.5zM142 294q30 104 66 190t86 176h-238v33h277v-28q-105 -184 -153 -371h-38z" />
    <glyph glyph-name="partialdiff" unicode="&#x2202;" horiz-adv-x="575" 
d="M112 557q20 77 68 115t125 38q105 0 156 -75.5t51 -231.5q0 -131 -31 -225.5t-91 -145t-144 -50.5q-91 0 -146.5 56t-55.5 148q0 69 28.5 124.5t81.5 88t122 32.5q48 0 88 -15.5t67.5 -46.5t38.5 -73q6 60 6 111q0 139 -42.5 204t-133.5 65q-61 0 -98 -30t-58 -96z
M246 16q54 0 100.5 28.5t75 79.5t28.5 114q0 72 -48 115.5t-127 43.5q-55 0 -98.5 -25.5t-68.5 -73t-25 -108.5q0 -78 45 -126t118 -48z" />
    <glyph glyph-name="uni2206" unicode="&#x2206;" horiz-adv-x="637" 
d="M20 0l276 714h44l277 -714h-597zM317 672l-243 -635h487z" />
    <glyph glyph-name="product" unicode="&#x220f;" horiz-adv-x="659" 
d="M536 0v677h-413v-677h-39v714h491v-714h-39z" />
    <glyph glyph-name="summation" unicode="&#x2211;" horiz-adv-x="559" 
d="M40 -102v33l242 380l-240 368v35h487v-35h-445l239 -368l-240 -377h458l-10 -36h-491z" />
    <glyph glyph-name="minus" unicode="&#x2212;" horiz-adv-x="592" 
d="M82 322v36h428v-36h-428z" />
    <glyph glyph-name="uni2215" unicode="&#x2215;" horiz-adv-x="58" 
d="M-168 0l354 691h40l-354 -691h-40z" />
    <glyph glyph-name="uni2219" unicode="&#x2219;" horiz-adv-x="179" 
d="M68 311v102h42v-102h-42z" />
    <glyph glyph-name="radical" unicode="&#x221a;" horiz-adv-x="552" 
d="M249 0l-138 328h-78v35h104l134 -323l245 691h40l-262 -731h-45z" />
    <glyph glyph-name="infinity" unicode="&#x221e;" horiz-adv-x="594" 
d="M279 343q-16 61 -46 92.5t-72 31.5q-44 0 -68.5 -33t-24.5 -92t24.5 -92t68.5 -33q42 0 72.5 32.5t45.5 93.5zM297 300q-45 -115 -138 -115q-59 0 -93 42t-34 115t34.5 115t93.5 42q93 0 137 -113q44 113 138 113q60 0 93.5 -42t33.5 -115t-33.5 -115t-93.5 -42
q-93 0 -138 115zM315 341q16 -61 46 -92.5t72 -31.5q44 0 68.5 33t24.5 92t-24.5 92t-68.5 33q-42 0 -72.5 -32.5t-45.5 -93.5z" />
    <glyph glyph-name="integral" unicode="&#x222b;" horiz-adv-x="296" 
d="M93 567q-3 29 -3 38q0 56 28.5 86.5t80.5 30.5q32 0 60 -12l-11 -30q-23 9 -47 9q-73 0 -73 -82q0 -19 3 -40l72 -532q3 -28 3 -38q0 -56 -28.5 -86.5t-80.5 -30.5q-30 0 -60 12l11 30q23 -9 47 -9q73 0 73 82q0 19 -3 40z" />
    <glyph glyph-name="approxequal" unicode="&#x2248;" horiz-adv-x="592" 
d="M533 513q0 -70 -30 -108.5t-86 -38.5q-34 0 -62.5 15t-72.5 55q-38 34 -61 46.5t-48 12.5q-80 0 -80 -114h-34q0 70 30 108.5t86 38.5q34 0 62.5 -15t72.5 -55q38 -34 61 -46.5t48 -12.5q80 0 80 114h34zM533 279q0 -70 -30 -108.5t-86 -38.5q-34 0 -62.5 15t-72.5 55
q-38 34 -61 46.5t-48 12.5q-80 0 -80 -114h-34q0 70 30 108.5t86 38.5q34 0 62.5 -15t72.5 -55q38 -34 61 -46.5t48 -12.5q80 0 80 114h34z" />
    <glyph glyph-name="notequal" unicode="&#x2260;" horiz-adv-x="592" 
d="M237 210l-66 -111h-39l66 111h-116v36h138l113 189h-251v36h273l67 111h39l-67 -111h116v-36h-138l-113 -189h251v-36h-273z" />
    <glyph glyph-name="lessequal" unicode="&#x2264;" horiz-adv-x="592" 
d="M78 0v35h440v-35h-440zM78 324v29l440 221v-39l-394 -196l394 -194v-41z" />
    <glyph glyph-name="greaterequal" unicode="&#x2265;" horiz-adv-x="592" 
d="M74 0v35h440v-35h-440zM74 104v39l394 196l-394 194v41l440 -220v-29z" />
    <glyph glyph-name="lozenge" unicode="&#x25ca;" horiz-adv-x="591" 
d="M275 0l-230 357l230 357h41l230 -357l-230 -357h-41zM503 357l-208 322l-207 -322l207 -321z" />
    <glyph glyph-name="twosevenths" unicode="&#xf507;" horiz-adv-x="887" 
d="M240 0l354 691h40l-354 -691h-40zM623 -2q30 104 66 190t86 176h-238v33h277v-28q-105 -184 -153 -371h-38zM70 295v29q42 37 99 83q77 65 103.5 101.5t26.5 78.5q0 43 -23.5 65.5t-67.5 22.5q-82 0 -105 -82l-33 6q29 108 138 108q60 0 94 -31.5t34 -87.5q0 -47 -30 -90
t-111 -111l-70 -59h214l-8 -33h-261z" />
    <glyph glyph-name="threesevenths" unicode="&#xf508;" horiz-adv-x="887" 
d="M226 0l354 691h40l-354 -691h-40zM623 -2q30 104 66 190t86 176h-238v33h277v-28q-105 -184 -153 -371h-38zM155 488v29h55q38 0 59.5 22t21.5 60t-23.5 58t-67.5 20q-43 0 -68.5 -19t-37.5 -60l-32 6q25 103 139 103q59 0 92 -28t33 -79q0 -67 -59 -94q33 -12 50.5 -39
t17.5 -66q0 -57 -35.5 -88.5t-100.5 -31.5q-63 0 -101.5 31.5t-40.5 86.5h32q11 -88 109 -88q50 0 75.5 23t25.5 67q0 41 -22.5 64t-62.5 23h-59z" />
    <glyph glyph-name="foursevenths" unicode="&#xf509;" horiz-adv-x="887" 
d="M224 0l354 691h40l-354 -691h-40zM623 -2q30 104 66 190t86 176h-238v33h277v-28q-105 -184 -153 -371h-38zM268 294v108h-206v25l207 267h33v-262h51l-8 -30h-43v-108h-34zM268 648l-167 -216h167v216z" />
    <glyph glyph-name="fivesevenths" unicode="&#xf50a;" horiz-adv-x="887" 
d="M228 0l354 691h40l-354 -691h-40zM623 -2q30 104 66 190t86 176h-238v33h277v-28q-105 -184 -153 -371h-38zM107 389q7 -38 33 -58t69 -20q48 0 73 26.5t25 78.5q0 102 -96 102q-65 0 -101 -40h-29l18 216h216v-32h-187l-12 -146q37 32 98 32q62 0 95 -34t33 -98
q0 -65 -34.5 -100t-99.5 -35q-58 0 -92.5 28t-40.5 80h32z" />
    <glyph glyph-name="sixsevenths" unicode="&#xf50b;" horiz-adv-x="887" 
d="M230 0l354 691h40l-354 -691h-40zM623 -2q30 104 66 190t86 176h-238v33h277v-28q-105 -184 -153 -371h-38zM309 609q-9 35 -30 51t-56 16q-59 0 -88.5 -46.5t-31.5 -141.5q35 61 118 61q62 0 96 -35.5t34 -96.5q0 -62 -38 -99t-102 -37q-71 0 -106 49t-35 150
q0 110 40 168t114 58q47 0 77 -23t39 -67zM213 312q47 0 74.5 28t27.5 77q0 48 -25 75t-72 27q-49 0 -78.5 -26t-29.5 -71q0 -49 27 -79.5t76 -30.5z" />
    <glyph glyph-name="twoninths" unicode="&#xf50d;" horiz-adv-x="887" 
d="M260 0l354 691h40l-354 -691h-40zM581 85q12 -70 92 -70q61 0 87 45.5t26 144.5q-33 -63 -115 -63q-62 0 -96 35t-34 97q0 63 37.5 99.5t102.5 36.5q72 0 105.5 -49t33.5 -154q0 -113 -36.5 -167.5t-111.5 -54.5q-54 0 -86.5 26.5t-37.5 73.5h33zM781 269q0 48 -27 79.5
t-76 31.5q-47 0 -74.5 -28.5t-27.5 -78.5q0 -48 25 -74.5t72 -26.5q49 0 78.5 26t29.5 71zM70 295v29q42 37 99 83q77 65 103.5 101.5t26.5 78.5q0 43 -23.5 65.5t-67.5 22.5q-82 0 -105 -82l-33 6q29 108 138 108q60 0 94 -31.5t34 -87.5q0 -47 -30 -90t-111 -111l-70 -59
h214l-8 -33h-261z" />
    <glyph glyph-name="fourninths" unicode="&#xf50e;" horiz-adv-x="887" 
d="M246 0l354 691h40l-354 -691h-40zM581 85q12 -70 92 -70q61 0 87 45.5t26 144.5q-33 -63 -115 -63q-62 0 -96 35t-34 97q0 63 37.5 99.5t102.5 36.5q72 0 105.5 -49t33.5 -154q0 -113 -36.5 -167.5t-111.5 -54.5q-54 0 -86.5 26.5t-37.5 73.5h33zM781 269q0 48 -27 79.5
t-76 31.5q-47 0 -74.5 -28.5t-27.5 -78.5q0 -48 25 -74.5t72 -26.5q49 0 78.5 26t29.5 71zM268 294v108h-206v25l207 267h33v-262h51l-8 -30h-43v-108h-34zM268 648l-167 -216h167v216z" />
    <glyph glyph-name="fiveninths" unicode="&#xf50f;" horiz-adv-x="887" 
d="M246 0l354 691h40l-354 -691h-40zM581 85q12 -70 92 -70q61 0 87 45.5t26 144.5q-33 -63 -115 -63q-62 0 -96 35t-34 97q0 63 37.5 99.5t102.5 36.5q72 0 105.5 -49t33.5 -154q0 -113 -36.5 -167.5t-111.5 -54.5q-54 0 -86.5 26.5t-37.5 73.5h33zM781 269q0 48 -27 79.5
t-76 31.5q-47 0 -74.5 -28.5t-27.5 -78.5q0 -48 25 -74.5t72 -26.5q49 0 78.5 26t29.5 71zM107 389q7 -38 33 -58t69 -20q48 0 73 26.5t25 78.5q0 102 -96 102q-65 0 -101 -40h-29l18 216h216v-32h-187l-12 -146q37 32 98 32q62 0 95 -34t33 -98q0 -65 -34.5 -100t-99.5 -35
q-58 0 -92.5 28t-40.5 80h32z" />
    <glyph glyph-name="sevenninths" unicode="&#xf510;" horiz-adv-x="887" 
d="M195 0l354 691h40l-354 -691h-40zM581 85q12 -70 92 -70q61 0 87 45.5t26 144.5q-33 -63 -115 -63q-62 0 -96 35t-34 97q0 63 37.5 99.5t102.5 36.5q72 0 105.5 -49t33.5 -154q0 -113 -36.5 -167.5t-111.5 -54.5q-54 0 -86.5 26.5t-37.5 73.5h33zM781 269q0 48 -27 79.5
t-76 31.5q-47 0 -74.5 -28.5t-27.5 -78.5q0 -48 25 -74.5t72 -26.5q49 0 78.5 26t29.5 71zM142 294q30 104 66 190t86 176h-238v33h277v-28q-105 -184 -153 -371h-38z" />
    <glyph glyph-name="eightninths" unicode="&#xf511;" horiz-adv-x="887" 
d="M250 0l354 691h40l-354 -691h-40zM581 85q12 -70 92 -70q61 0 87 45.5t26 144.5q-33 -63 -115 -63q-62 0 -96 35t-34 97q0 63 37.5 99.5t102.5 36.5q72 0 105.5 -49t33.5 -154q0 -113 -36.5 -167.5t-111.5 -54.5q-54 0 -86.5 26.5t-37.5 73.5h33zM781 269q0 48 -27 79.5
t-76 31.5q-47 0 -74.5 -28.5t-27.5 -78.5q0 -48 25 -74.5t72 -26.5q49 0 78.5 26t29.5 71zM270 498q39 -10 60.5 -36.5t21.5 -64.5q0 -55 -38 -85.5t-108 -30.5q-68 0 -107 30.5t-39 85.5q0 36 21.5 62.5t59.5 37.5q-31 10 -49 36t-18 62q0 52 36 82t97 30t96 -30t35 -82
q0 -35 -18 -60.5t-50 -36.5zM316 397q0 41 -28.5 62.5t-81.5 21.5t-81.5 -21.5t-28.5 -62.5q0 -42 28.5 -64t81.5 -22t81.5 22.5t28.5 63.5zM303 594q0 39 -25.5 61t-71.5 22t-71.5 -22t-25.5 -61q0 -40 25.5 -61.5t71.5 -21.5t71.5 21.5t25.5 61.5z" />
    <glyph glyph-name="zero.numr" unicode="&#xf80a;" 
d="M206 402q-78 0 -121 56t-43 157t43 157t121 56t121 -56t43 -157q0 -102 -42.5 -157.5t-121.5 -55.5zM206 435q61 0 93.5 46t32.5 134t-32.5 134t-93.5 46t-93.5 -46t-32.5 -134t32.5 -134t93.5 -46z" />
    <glyph glyph-name="one.numr" unicode="&#xf80b;" 
d="M208 415v361l-107 -54l-15 29l121 64h38v-400h-37z" />
    <glyph glyph-name="two.numr" unicode="&#xf80c;" 
d="M70 416v29q42 37 99 83q77 65 103.5 101.5t26.5 78.5q0 43 -23.5 65.5t-67.5 22.5q-82 0 -105 -82l-33 6q29 108 138 108q60 0 94 -31.5t34 -87.5q0 -47 -30 -90t-111 -111l-70 -59h214l-8 -33h-261z" />
    <glyph glyph-name="three.numr" unicode="&#xf80d;" 
d="M157 609v29h55q38 0 59.5 22t21.5 60t-23.5 58t-67.5 20q-43 0 -68.5 -19t-37.5 -60l-32 6q25 103 139 103q59 0 92 -28t33 -79q0 -67 -59 -94q33 -12 50.5 -39t17.5 -66q0 -57 -35.5 -88.5t-100.5 -31.5q-63 0 -101.5 31.5t-40.5 86.5h32q11 -88 109 -88q50 0 75.5 23
t25.5 67q0 41 -22.5 64t-62.5 23h-59z" />
    <glyph glyph-name="four.numr" unicode="&#xf80e;" 
d="M261 415v108h-206v25l207 267h33v-262h51l-8 -30h-43v-108h-34zM261 769l-167 -216h167v216z" />
    <glyph glyph-name="five.numr" unicode="&#xf80f;" 
d="M107 510q7 -38 33 -58t69 -20q48 0 73 26.5t25 78.5q0 102 -96 102q-65 0 -101 -40h-29l18 216h216v-32h-187l-12 -146q37 32 98 32q62 0 95 -34t33 -98q0 -65 -34.5 -100t-99.5 -35q-58 0 -92.5 28t-40.5 80h32z" />
    <glyph glyph-name="six.numr" unicode="&#xf810;" 
d="M310 730q-9 35 -30 51t-56 16q-59 0 -88.5 -46.5t-31.5 -141.5q35 61 118 61q62 0 96 -35.5t34 -96.5q0 -62 -38 -99t-102 -37q-71 0 -106 49t-35 150q0 110 40 168t114 58q47 0 77 -23t39 -67zM214 433q47 0 74.5 28t27.5 77q0 48 -25 75t-72 27q-49 0 -78.5 -26
t-29.5 -71q0 -49 27 -79.5t76 -30.5z" />
    <glyph glyph-name="seven.numr" unicode="&#xf811;" 
d="M150 415q30 104 66 190t86 176h-238v33h277v-28q-105 -184 -153 -371h-38z" />
    <glyph glyph-name="eight.numr" unicode="&#xf812;" 
d="M270 619q39 -10 60.5 -36.5t21.5 -64.5q0 -55 -38 -85.5t-108 -30.5q-68 0 -107 30.5t-39 85.5q0 36 21.5 62.5t59.5 37.5q-31 10 -49 36t-18 62q0 52 36 82t97 30t96 -30t35 -82q0 -35 -18 -60.5t-50 -36.5zM316 518q0 41 -28.5 62.5t-81.5 21.5t-81.5 -21.5
t-28.5 -62.5q0 -42 28.5 -64t81.5 -22t81.5 22.5t28.5 63.5zM303 715q0 39 -25.5 61t-71.5 22t-71.5 -22t-25.5 -61q0 -40 25.5 -61.5t71.5 -21.5t71.5 21.5t25.5 61.5z" />
    <glyph glyph-name="nine.numr" unicode="&#xf813;" 
d="M102 502q12 -70 92 -70q61 0 87 45.5t26 144.5q-33 -63 -115 -63q-62 0 -96 35t-34 97q0 63 37.5 99.5t102.5 36.5q72 0 105.5 -49t33.5 -154q0 -113 -36.5 -167.5t-111.5 -54.5q-54 0 -86.5 26.5t-37.5 73.5h33zM302 686q0 48 -27 79.5t-76 31.5q-47 0 -74.5 -28.5
t-27.5 -78.5q0 -48 25 -74.5t72 -26.5q49 0 78.5 26t29.5 71z" />
    <glyph glyph-name="zero.dnom" unicode="&#xf814;" 
d="M206 -134q-78 0 -121 56t-43 157t43 157t121 56t121 -56t43 -157q0 -102 -42.5 -157.5t-121.5 -55.5zM206 -101q61 0 93.5 46t32.5 134t-32.5 134t-93.5 46t-93.5 -46t-32.5 -134t32.5 -134t93.5 -46z" />
    <glyph glyph-name="one.dnom" unicode="&#xf815;" 
d="M208 -121v361l-107 -54l-15 29l121 64h38v-400h-37z" />
    <glyph glyph-name="two.dnom" unicode="&#xf816;" 
d="M70 -120v29q42 37 99 83q77 65 103.5 101.5t26.5 78.5q0 43 -23.5 65.5t-67.5 22.5q-82 0 -105 -82l-33 6q29 108 138 108q60 0 94 -31.5t34 -87.5q0 -47 -30 -90t-111 -111l-70 -59h214l-8 -33h-261z" />
    <glyph glyph-name="three.dnom" unicode="&#xf817;" 
d="M157 73v29h55q38 0 59.5 22t21.5 60t-23.5 58t-67.5 20q-43 0 -68.5 -19t-37.5 -60l-32 6q25 103 139 103q59 0 92 -28t33 -79q0 -67 -59 -94q33 -12 50.5 -39t17.5 -66q0 -57 -35.5 -88.5t-100.5 -31.5q-63 0 -101.5 31.5t-40.5 86.5h32q11 -88 109 -88q50 0 75.5 23
t25.5 67q0 41 -22.5 64t-62.5 23h-59z" />
    <glyph glyph-name="four.dnom" unicode="&#xf818;" 
d="M261 -121v108h-206v25l207 267h33v-262h51l-8 -30h-43v-108h-34zM261 233l-167 -216h167v216z" />
    <glyph glyph-name="five.dnom" unicode="&#xf819;" 
d="M107 -26q7 -38 33 -58t69 -20q48 0 73 26.5t25 78.5q0 102 -96 102q-65 0 -101 -40h-29l18 216h216v-32h-187l-12 -146q37 32 98 32q62 0 95 -34t33 -98q0 -65 -34.5 -100t-99.5 -35q-58 0 -92.5 28t-40.5 80h32z" />
    <glyph glyph-name="six.dnom" unicode="&#xf81a;" 
d="M310 194q-9 35 -30 51t-56 16q-59 0 -88.5 -46.5t-31.5 -141.5q35 61 118 61q62 0 96 -35.5t34 -96.5q0 -62 -38 -99t-102 -37q-71 0 -106 49t-35 150q0 110 40 168t114 58q47 0 77 -23t39 -67zM214 -103q47 0 74.5 28t27.5 77q0 48 -25 75t-72 27q-49 0 -78.5 -26
t-29.5 -71q0 -49 27 -79.5t76 -30.5z" />
    <glyph glyph-name="seven.dnom" unicode="&#xf81b;" 
d="M150 -121q30 104 66 190t86 176h-238v33h277v-28q-105 -184 -153 -371h-38z" />
    <glyph glyph-name="eight.dnom" unicode="&#xf81c;" 
d="M270 83q39 -10 60.5 -36.5t21.5 -64.5q0 -55 -38 -85.5t-108 -30.5q-68 0 -107 30.5t-39 85.5q0 36 21.5 62.5t59.5 37.5q-31 10 -49 36t-18 62q0 52 36 82t97 30t96 -30t35 -82q0 -35 -18 -60.5t-50 -36.5zM316 -18q0 41 -28.5 62.5t-81.5 21.5t-81.5 -21.5t-28.5 -62.5
q0 -42 28.5 -64t81.5 -22t81.5 22.5t28.5 63.5zM303 179q0 39 -25.5 61t-71.5 22t-71.5 -22t-25.5 -61q0 -40 25.5 -61.5t71.5 -21.5t71.5 21.5t25.5 61.5z" />
    <glyph glyph-name="nine.dnom" unicode="&#xf81d;" 
d="M102 -34q12 -70 92 -70q61 0 87 45.5t26 144.5q-33 -63 -115 -63q-62 0 -96 35t-34 97q0 63 37.5 99.5t102.5 36.5q72 0 105.5 -49t33.5 -154q0 -113 -36.5 -167.5t-111.5 -54.5q-54 0 -86.5 26.5t-37.5 73.5h33zM302 150q0 48 -27 79.5t-76 31.5q-47 0 -74.5 -28.5
t-27.5 -78.5q0 -48 25 -74.5t72 -26.5q49 0 78.5 26t29.5 71z" />
    <glyph glyph-name="fi" unicode="&#xfb01;" horiz-adv-x="495" 
d="M100 0v479h-79v34h79v62q0 68 38.5 107.5t103.5 39.5q32 0 70 -11l-8 -32q-37 9 -59 9q-52 0 -79.5 -28.5t-27.5 -83.5v-63h149v-34h-149v-479h-38zM385 0v513h38v-513h-38zM384 622v92h40v-92h-40z" />
    <glyph glyph-name="fl" unicode="&#xfb02;" horiz-adv-x="497" 
d="M100 0v479h-79v34h79v62q0 68 38.5 107.5t103.5 39.5q32 0 70 -11l-8 -32q-37 9 -59 9q-52 0 -79.5 -28.5t-27.5 -83.5v-63h149v-34h-149v-479h-38zM387 0v714h38v-714h-38z" />
    <glyph glyph-name="uniFEFF" unicode="&#xfeff;" horiz-adv-x="0" 
 />
    <glyph glyph-name="zero.pnum" horiz-adv-x="600" 
d="M299 -18q-119 0 -181.5 93t-62.5 271q0 176 63.5 270t182.5 94t181.5 -93t62.5 -271q0 -176 -63.5 -270t-182.5 -94zM300 18q203 0 203 328t-203 328t-203 -328t203 -328z" />
    <glyph glyph-name="one.pnum" horiz-adv-x="394" 
d="M225 0v651l-182 -107l-17 29l199 118h39v-691h-39z" />
    <glyph glyph-name="two.pnum" horiz-adv-x="544" 
d="M50 0v36l161 146q96 88 142.5 141.5t64.5 96t18 91.5q0 78 -43.5 120.5t-122.5 42.5q-73 0 -117.5 -35.5t-67.5 -113.5l-35 8q21 86 78.5 131.5t143.5 45.5q94 0 149.5 -53t55.5 -144q0 -57 -23 -107t-75 -108t-144 -141l-134 -120h381l-9 -37h-423z" />
    <glyph glyph-name="three.pnum" horiz-adv-x="561" 
d="M208 344v36h89q68 0 108 40t40 110t-42.5 107t-124.5 37q-76 0 -120 -33t-65 -108l-35 7q18 83 75 126.5t148 43.5q96 0 150 -47.5t54 -131.5q0 -60 -28.5 -103t-82.5 -64q126 -38 126 -177q0 -97 -59 -151t-165 -54q-102 0 -162.5 52.5t-63.5 144.5h37q16 -162 190 -162
q89 0 136 43t47 125q0 77 -42.5 118t-120.5 41h-89z" />
    <glyph glyph-name="four.pnum" horiz-adv-x="564" 
d="M388 0v189h-348v34l345 468h41v-468h102l-9 -34h-93v-189h-38zM388 640l-307 -417h307v417z" />
    <glyph glyph-name="five.pnum" horiz-adv-x="545" 
d="M91 167q23 -150 180 -150q180 0 180 193t-175 193q-103 0 -171 -75h-36l28 363h355v-36h-323l-23 -286q40 36 82.5 52t92.5 16q102 0 156 -58.5t54 -167.5q0 -111 -56.5 -170t-162.5 -59q-95 0 -152 48.5t-65 136.5h36z" />
    <glyph glyph-name="six.pnum" horiz-adv-x="577" 
d="M467 554q-20 65 -55 92.5t-96 27.5q-111 0 -162.5 -89.5t-51.5 -282.5q23 65 77.5 100t131.5 35q98 0 154 -59.5t56 -163.5q0 -106 -62 -169t-165 -63q-116 0 -173 85.5t-57 258.5q0 187 64.5 285.5t187.5 98.5q74 0 121 -37.5t64 -109.5zM299 18q84 0 133 52.5t49 143.5
q0 89 -45 138t-127 49q-89 0 -142 -49t-53 -132q0 -92 50.5 -147t134.5 -55z" />
    <glyph glyph-name="seven.pnum" horiz-adv-x="531" 
d="M170 0q53 181 117.5 340t149.5 315h-413v36h454v-36q-176 -325 -265 -655h-43z" />
    <glyph glyph-name="eight.pnum" horiz-adv-x="590" 
d="M387 353q73 -16 114 -63.5t41 -115.5q0 -90 -66 -141t-182 -51q-115 0 -180 51.5t-65 141.5q0 69 40.5 115t114.5 61q-62 16 -97 62t-35 110q0 86 60.5 136.5t163.5 50.5t163 -51t60 -137q0 -63 -35.5 -108.5t-96.5 -60.5zM501 177q0 75 -54 115.5t-153 40.5
q-98 0 -151 -41t-53 -117t53.5 -117.5t150.5 -41.5q98 0 152.5 42.5t54.5 118.5zM480 519q0 72 -49.5 114.5t-135.5 42.5t-135 -41.5t-49 -115.5q0 -72 48.5 -111.5t135.5 -39.5t136 40t49 111z" />
    <glyph glyph-name="nine.pnum" horiz-adv-x="568" 
d="M109 139q22 -121 160 -121q106 0 152.5 81t46.5 265v26q-22 -63 -76.5 -99.5t-127.5 -36.5q-101 0 -157 59t-56 165q0 105 61.5 168.5t162.5 63.5q114 0 172.5 -85.5t58.5 -251.5q0 -201 -57 -296t-178 -95q-88 0 -139.5 40.5t-60.5 116.5h38zM455 470q0 92 -49.5 148
t-130.5 56q-86 0 -135 -52.5t-49 -143.5q0 -92 45.5 -140t132.5 -48q83 0 134.5 49.5t51.5 130.5z" />
    <glyph glyph-name="hyphen.case" horiz-adv-x="389" 
d="M50 339v38h289v-38h-289z" />
    <glyph glyph-name="endash.case" horiz-adv-x="500" 
d="M0 339v38h500v-38h-500z" />
    <glyph glyph-name="emdash.case" horiz-adv-x="1000" 
d="M0 339v38h1000v-38h-1000z" />
    <glyph glyph-name="parenleft.case" horiz-adv-x="229" 
d="M175 -71q-112 179 -112 429t112 429h36q-54 -98 -80.5 -203t-26.5 -226t26.5 -226t80.5 -203h-36z" />
    <glyph glyph-name="parenright.case" horiz-adv-x="229" 
d="M18 -71q54 98 80.5 203t26.5 226t-26.5 226t-80.5 203h36q112 -179 112 -429t-112 -429h-36z" />
    <glyph glyph-name="slash.case" horiz-adv-x="287" 
d="M12 -9l224 734h39l-224 -734h-39z" />
    <glyph glyph-name="backslash.case" horiz-adv-x="287" 
d="M236 -9l-224 734h39l224 -734h-39z" />
    <glyph glyph-name="bracketleft.case" horiz-adv-x="253" 
d="M79 -71v858h161v-33h-123v-792h123v-33h-161z" />
    <glyph glyph-name="bracketright.case" horiz-adv-x="253" 
d="M13 -71v33h123v792h-123v33h161v-858h-161z" />
    <glyph glyph-name="braceleft.case" horiz-adv-x="260" 
d="M199 -71q-49 0 -72.5 24.5t-23.5 74.5v240q0 38 -16.5 55.5t-52.5 17.5h-4v34h4q36 0 52.5 17.5t16.5 55.5v240q0 50 23.5 74.5t72.5 24.5h51v-33h-55q-54 0 -54 -61v-251q0 -72 -53 -84q53 -12 53 -84v-251q0 -61 54 -61h55v-33h-51z" />
    <glyph glyph-name="braceright.case" horiz-adv-x="260" 
d="M10 -71v33h55q54 0 54 61v251q0 72 53 84q-53 12 -53 84v251q0 61 -54 61h-55v33h51q49 0 72.5 -24.5t23.5 -74.5v-240q0 -38 16.5 -55.5t52.5 -17.5h4v-34h-4q-36 0 -52.5 -17.5t-16.5 -55.5v-240q0 -50 -23.5 -74.5t-72.5 -24.5h-51z" />
    <glyph glyph-name="bullet.case" horiz-adv-x="309" 
d="M267 358q0 -48 -31.5 -80t-80.5 -32t-81 31.5t-32 80.5q0 48 32 79.5t81 31.5q48 0 80 -31.5t32 -79.5z" />
    <glyph glyph-name="guilsinglleft.case" horiz-adv-x="269" 
d="M188 135l-144 222l144 222h38l-139 -222l139 -222h-38z" />
    <glyph glyph-name="guilsinglright.case" horiz-adv-x="269" 
d="M43 135l139 222l-139 222h38l144 -222l-144 -222h-38z" />
    <glyph glyph-name="guillemotleft.case" horiz-adv-x="449" 
d="M188 135l-144 222l144 222h38l-139 -222l139 -222h-38zM368 135l-144 222l144 222h38l-139 -222l139 -222h-38z" />
    <glyph glyph-name="guillemotright.case" horiz-adv-x="449" 
d="M43 135l139 222l-139 222h38l144 -222l-144 -222h-38zM223 135l139 222l-139 222h38l144 -222l-144 -222h-38z" />
    <glyph glyph-name="at.case" horiz-adv-x="913" 
d="M764 67q-48 -75 -123 -111t-184 -36q-195 0 -302.5 104.5t-107.5 294.5q0 134 54.5 241.5t155 170.5t231.5 63q111 0 198 -46t136.5 -132t49.5 -200q0 -83 -24.5 -148.5t-71 -103.5t-106.5 -38q-47 0 -73 23t-26 64v4q-58 -97 -163 -97q-78 0 -122.5 50t-44.5 138
q0 72 28.5 133.5t81 99t117.5 37.5q54 0 91 -26.5t53 -75.5l16 90h36l-59 -329q-2 -12 -2 -21q0 -28 18 -43.5t50 -15.5q47 0 83.5 31.5t58 89.5t21.5 134q0 103 -42 181.5t-121 122.5t-187 44q-114 0 -204 -54t-142 -155t-52 -233q0 -175 97.5 -269.5t276.5 -94.5
q92 0 155 27t108 86h41zM592 374q3 17 3 40q-1 60 -35.5 96t-90.5 36q-51 0 -93.5 -29.5t-68.5 -84t-26 -123.5q0 -77 33 -117t96 -40q68 0 113.5 48t62.5 140z" />
    <glyph glyph-name="periodcentered.case" horiz-adv-x="179" 
d="M68 305v102h42v-102h-42z" />
    <glyph glyph-name="questiondown.case" horiz-adv-x="492" 
d="M461 162q-18 -86 -71 -130t-138 -44q-91 0 -144 50.5t-53 137.5q0 49 18.5 87.5t62.5 82.5q50 50 69.5 75.5t26 46.5t6.5 52v9h38v-7q0 -53 -22.5 -92.5t-89.5 -104.5q-38 -38 -54.5 -72.5t-16.5 -78.5q0 -71 42.5 -111t118.5 -40q70 0 111.5 35t60.5 110zM234 612v102
h45v-102h-45z" />
    <glyph glyph-name="exclamdown.case" horiz-adv-x="198" 
d="M80 0l2 529h35l2 -529h-39zM77 612v102h45v-102h-45z" />
    <glyph glyph-name="periodcentered.loclCAT" horiz-adv-x="179" 
d="M68 326v102h42v-102h-42z" />
    <glyph glyph-name="periodcentered.loclCAT.cap" horiz-adv-x="179" 
d="M68 346v102h42v-102h-42z" />
    <glyph glyph-name="i.locl" horiz-adv-x="182" 
d="M72 0v513h38v-513h-38zM71 622v92h40v-92h-40z" />
    <glyph glyph-name="Eng.locl" horiz-adv-x="683" 
d="M559 489q0 105 -44.5 156t-136.5 51q-106 0 -189 -73q-39 -35 -52 -70t-13 -97v-456h-40v714h40v-117q42 66 107.5 100.5t146.5 34.5q109 0 165 -61.5t56 -181.5v-489q0 -102 -53 -153.5t-158 -51.5q-37 0 -77 8t-68 21l13 33q61 -26 134 -26q86 0 127.5 42t41.5 127v489
z" />
    <glyph glyph-name="uni0327.cap" horiz-adv-x="0" 
d="M-77 -170q25 -4 53 -4q43 0 62 9.5t19 32.5t-21 32.5t-70 9.5h-14l33 93l32 -3l-23 -62q52 -3 76.5 -20.5t24.5 -51.5q0 -37 -28 -54.5t-89 -17.5q-36 0 -55 4v32z" />
    <glyph glyph-name="uni0326.cap" horiz-adv-x="0" 
d="M-94 -205l71 134h46l-79 -134h-38z" />
    <glyph glyph-name="uni0328.cap" horiz-adv-x="0" 
d="M31 -170q-20 -2 -28 -2q-42 0 -64 18t-22 52q0 28 15.5 53.5t47.5 52.5l40 -4q-34 -26 -49.5 -49.5t-15.5 -47.5q0 -22 12.5 -32t38.5 -10q7 0 25 2v-33z" />
    <glyph glyph-name="uni0328.round" horiz-adv-x="0" 
d="M31 -165q-12 -2 -27 -2q-41 0 -63 17.5t-22 50.5q0 27 15 51.5t48 50.5l37 -3q-63 -48 -63 -93q0 -42 52 -42q14 0 23 1v-31z" />
    <glyph glyph-name="uni0328.round.cap" horiz-adv-x="0" 
d="M31 -170q-20 -2 -28 -2q-42 0 -64 18t-22 52q0 28 15.5 53.5t47.5 52.5l40 -4q-34 -26 -49.5 -49.5t-15.5 -47.5q0 -22 12.5 -32t38.5 -10q7 0 25 2v-33z" />
    <glyph glyph-name="iogonek.dotless" horiz-adv-x="182" 
d="M72 0v513h38v-513h-38zM122 -165q-12 -2 -27 -2q-41 0 -63 17.5t-22 50.5q0 27 15 51.5t48 50.5l37 -3q-63 -48 -63 -93q0 -42 52 -42q14 0 23 1v-31z" />
    <glyph glyph-name="acutecomb.cap" horiz-adv-x="0" 
d="M-51 774l112 126h51l-121 -126h-42z" />
    <glyph glyph-name="uni030B.cap" horiz-adv-x="0" 
d="M-94 774l103 126h47l-111 -126h-39zM54 774l103 126h47l-111 -126h-39z" />
    <glyph glyph-name="gravecomb.cap" horiz-adv-x="0" 
d="M9 774l-121 126h51l112 -126h-42z" />
    <glyph glyph-name="uni0302.cap" horiz-adv-x="0" 
d="M89 774l-89 95l-89 -95h-41l111 126h38l111 -126h-41z" />
    <glyph glyph-name="tildecomb.cap" horiz-adv-x="0" 
d="M163 874q0 -43 -23.5 -68.5t-63.5 -25.5q-20 0 -37 6.5t-39 22.5q-26 19 -42 26.5t-33 7.5q-26 0 -40 -16t-15 -45h-33q0 43 23.5 68.5t63.5 25.5q20 0 37 -6.5t39 -22.5q26 -19 42 -26.5t33 -7.5q26 0 40 16t15 45h33z" />
    <glyph glyph-name="uni030C.cap" horiz-adv-x="0" 
d="M-19 774l-111 126h41l89 -95l89 95h41l-111 -126h-38z" />
    <glyph glyph-name="uni0315.short" horiz-adv-x="0" 
d="M-16 583l23 141h38l-29 -141h-32z" />
    <glyph glyph-name="uni0304.cap" horiz-adv-x="0" 
d="M-137 798v35h274v-35h-274z" />
    <glyph glyph-name="uni0308.cap" horiz-adv-x="0" 
d="M-102 793v92h42v-92h-42zM60 793v92h42v-92h-42z" />
    <glyph glyph-name="uni0306.cap" horiz-adv-x="0" 
d="M118 891q0 -56 -31 -86.5t-87 -30.5t-87 30.5t-31 86.5h34q0 -41 22.5 -63.5t61.5 -22.5q41 0 63 22.5t22 63.5h33z" />
    <glyph glyph-name="uni0307.cap" horiz-adv-x="0" 
d="M-21 793v92h42v-92h-42z" />
    <glyph glyph-name="uni030A.cap" horiz-adv-x="0" 
d="M88 824q0 -41 -24 -65t-64 -24t-64 24t-24 65q0 42 24 66t64 24t64 -24t24 -66zM57 824q0 29 -14.5 45t-42.5 16t-42.5 -16t-14.5 -45t15 -44.5t42 -15.5t42 15.5t15 44.5z" />
    </font>
</defs>
</svg>
