<?xml version="1.0" standalone="no"?>
<!DOCTYPE svg PUBLIC "-//W3C//DTD SVG 1.1//EN" "http://www.w3.org/Graphics/SVG/1.1/DTD/svg11.dtd" >
<svg xmlns="http://www.w3.org/2000/svg" xmlns:xlink="http://www.w3.org/1999/xlink" version="1.1">
<metadata>
Created by FontForge 20170731 at Tue Jun  7 12:29:29 2016
 By Aleksey,,,
Copyright 2016 Dalton Maag Ltd. All rights reserved. This font may not be altered in any way without prior permission of Dalton Maag Ltd.
</metadata>
<defs>
<font id="AktivGrotesk-Bold" horiz-adv-x="592" >
  <font-face 
    font-family="Aktiv Grotesk"
    font-weight="700"
    font-stretch="normal"
    units-per-em="1000"
    panose-1="2 11 8 4 2 2 2 2 2 4"
    ascent="714"
    descent="-286"
    x-height="522"
    cap-height="714"
    bbox="-463 -831 2443 1160"
    underline-thickness="68"
    underline-position="-201"
    unicode-range="U+0008-FFFD"
  />
<missing-glyph horiz-adv-x="500" 
d="M50 0v750h400v-750h-400zM400 50v650h-300v-650h300z" />
    <glyph glyph-name="aAllah" unicode="&#x627;&#xfedf;&#xfee0;&#xfeea;" horiz-adv-x="1538" arabic-form="isolated" 
d="M498 122h225v592h135v-592h230v592h135v-714h-878q-146 0 -223.5 66.5t-77.5 191.5q0 106 62 168t169 62q113 0 168 -58t55 -175v-133zM179 258q0 -136 142 -136h42v108q0 61 -8.5 91t-27.5 41.5t-54 11.5q-46 0 -70 -30t-24 -86zM818 1128v-173h-60v173h60zM812 807h43
v105h47v-151h-145q-83 0 -83 80v71h47v-60q0 -45 31 -45h13v105h47v-105zM1343 0v714h135v-714h-135z" />
    <glyph glyph-name="aLam.init_aAlifMadda.fina" unicode="&#xfedf;&#xfe82;" horiz-adv-x="628" arabic-form="isolated" 
d="M30 122h120v350h135v-350h148v592h135v-714h-538v122zM106 532q0 44 15.5 63t51.5 19q19 -1 34.5 -8t28 -14t21.5 -8q15 0 21 6.5t6 21.5h49q0 -44 -15.5 -63t-51.5 -19q-18 1 -33.5 8.5t-27.5 14.5t-21 8q-16 0 -22 -6.5t-6 -22.5h-50z" />
    <glyph glyph-name="aLam.medi_aAlifMadda.fina" unicode="&#xfee0;&#xfe82;" horiz-adv-x="683" arabic-form="final" 
d="M30 0v122h120v350h135v-350h148v592h135v-592h130v-122h-668zM106 532q0 44 15.5 63t51.5 19q19 -1 34.5 -8t28 -14t21.5 -8q15 0 21 6.5t6 21.5h49q0 -44 -15.5 -63t-51.5 -19q-18 1 -33.5 8.5t-27.5 14.5t-21 8q-16 0 -22 -6.5t-6 -22.5h-50z" />
    <glyph glyph-name="aLam.init_aAlifHamza.fina" unicode="&#xfedf;&#xfe84;" horiz-adv-x="628" arabic-form="isolated" 
d="M30 122h120v350h135v-350h148v592h135v-714h-538v122zM302 564v-47h-178v47h22v48q0 36 20 55.5t57 19.5q36 0 53.5 -15.5t22.5 -52.5l-45 -6q-2 17 -8 23.5t-20 6.5q-31 0 -31 -35v-44h107z" />
    <glyph glyph-name="aLam.medi_aAlifHamza.fina" unicode="&#xfee0;&#xfe84;" horiz-adv-x="683" arabic-form="final" 
d="M30 0v122h120v350h135v-350h148v592h135v-592h130v-122h-668zM302 564v-47h-178v47h22v48q0 36 20 55.5t57 19.5q36 0 53.5 -15.5t22.5 -52.5l-45 -6q-2 17 -8 23.5t-20 6.5q-31 0 -31 -35v-44h107z" />
    <glyph glyph-name="aLam.init_aAlifHamzabelow.fina" unicode="&#xfedf;&#xfe88;" horiz-adv-x="637" arabic-form="isolated" 
d="M30 122h120v350h135v-350h148v592h135v-714h-538v122zM292 -188v-47h-178v47h22v48q0 36 20 55.5t57 19.5q36 0 53.5 -15.5t22.5 -52.5l-45 -6q-2 17 -8 23.5t-20 6.5q-31 0 -31 -35v-44h107z" />
    <glyph glyph-name="aLam.medi_aAlifHamzabelow.fina" unicode="&#xfee0;&#xfe88;" horiz-adv-x="683" arabic-form="final" 
d="M30 0v122h120v350h135v-350h148v592h135v-592h130v-122h-668zM292 -188v-47h-178v47h22v48q0 36 20 55.5t57 19.5q36 0 53.5 -15.5t22.5 -52.5l-45 -6q-2 17 -8 23.5t-20 6.5q-31 0 -31 -35v-44h107z" />
    <glyph glyph-name="aLam.init_aAlif.fina" unicode="&#xfedf;&#xfe8e;" horiz-adv-x="628" arabic-form="isolated" 
d="M30 122h120v350h135v-350h148v592h135v-714h-538v122z" />
    <glyph glyph-name="aLam.medi_aAlif.fina" unicode="&#xfee0;&#xfe8e;" horiz-adv-x="683" arabic-form="final" 
d="M30 0v122h120v350h135v-350h148v592h135v-592h130v-122h-668z" />
    <glyph glyph-name="f_f" unicode="ff" horiz-adv-x="758" 
d="M96 413h-82v109h82v17q0 48 14 83t38.5 57t57.5 32.5t72 10.5q25 0 52.5 -3t56.5 -12l-19 -102q-32 8 -61 8q-27 0 -49 -15.5t-22 -55.5v-20h121v-109h-121v-413h-140v413zM475 413h-82v109h82v17q0 48 14 83t38.5 57t57.5 32.5t72 10.5q25 0 52.5 -3t56.5 -12l-19 -102
q-32 8 -61 8q-27 0 -49 -15.5t-22 -55.5v-20h121v-109h-121v-413h-140v413z" />
    <glyph glyph-name="f_i" unicode="fi" horiz-adv-x="645" 
d="M96 413h-82v109h82v17q0 48 14 83t38.5 57t57.5 32.5t72 10.5q25 0 52.5 -3t56.5 -12l-19 -102q-32 8 -61 8q-27 0 -49 -15.5t-22 -55.5v-20h121v-109h-121v-413h-140v413zM442 522h140v-522h-140v522zM440 714h144v-126h-144v126z" />
    <glyph glyph-name="f_l" unicode="fl" horiz-adv-x="645" 
d="M96 413h-82v109h82v17q0 48 14 83t38.5 57t57.5 32.5t72 10.5q25 0 52.5 -3t56.5 -12l-19 -102q-32 8 -61 8q-27 0 -49 -15.5t-22 -55.5v-20h121v-109h-121v-413h-140v413zM442 714h140v-714h-140v714z" />
    <glyph glyph-name="f_f_i" unicode="ffi" horiz-adv-x="1023" 
d="M96 413h-82v109h82v17q0 48 14 83t38.5 57t57.5 32.5t72 10.5q25 0 52.5 -3t56.5 -12l-19 -102q-32 8 -61 8q-27 0 -49 -15.5t-22 -55.5v-20h121v-109h-121v-413h-140v413zM475 413h-82v109h82v17q0 48 14 83t38.5 57t57.5 32.5t72 10.5q25 0 52.5 -3t56.5 -12l-19 -102
q-32 8 -61 8q-27 0 -49 -15.5t-22 -55.5v-20h121v-109h-121v-413h-140v413zM820 522h140v-522h-140v522zM818 714h144v-126h-144v126z" />
    <glyph glyph-name="f_f_l" unicode="ffl" horiz-adv-x="1023" 
d="M96 413h-82v109h82v17q0 48 14 83t38.5 57t57.5 32.5t72 10.5q25 0 52.5 -3t56.5 -12l-19 -102q-32 8 -61 8q-27 0 -49 -15.5t-22 -55.5v-20h121v-109h-121v-413h-140v413zM475 413h-82v109h82v17q0 48 14 83t38.5 57t57.5 32.5t72 10.5q25 0 52.5 -3t56.5 -12l-19 -102
q-32 8 -61 8q-27 0 -49 -15.5t-22 -55.5v-20h121v-109h-121v-413h-140v413zM820 714h140v-714h-140v714z" />
    <glyph glyph-name="aLam.init_aAlifWasla.fina" unicode="&#xfedf;&#xfb51;" horiz-adv-x="628" 
d="M30 122h120v350h135v-350h148v592h135v-714h-538v122zM170 623q24 38 69 38q34 0 53.5 -19.5t19.5 -53.5v-71h-206v44h19v103h45v-41zM228 616q-23 0 -36 -13q-16 -13 -16 -35v-7h88v8q0 25 -8 36t-28 11z" />
    <glyph glyph-name="aLam.medi_aAlifWasla.fina" unicode="&#xfee0;&#xfb51;" horiz-adv-x="683" 
d="M30 0v122h120v350h135v-350h148v592h135v-592h130v-122h-668zM170 623q24 38 69 38q34 0 53.5 -19.5t19.5 -53.5v-71h-206v44h19v103h45v-41zM228 616q-23 0 -36 -13q-16 -13 -16 -35v-7h88v8q0 25 -8 36t-28 11z" />
    <glyph glyph-name="aLam.init_aLam.medi_aHeh.fina" unicode="&#xfedf;&#xfee0;&#xfeea;" horiz-adv-x="1283" 
d="M498 122h225v592h135v-592h230v592h135v-714h-878q-146 0 -223.5 66.5t-77.5 191.5q0 106 62 168t169 62q113 0 168 -58t55 -175v-133zM179 258q0 -136 142 -136h42v108q0 61 -8.5 91t-27.5 41.5t-54 11.5q-46 0 -70 -30t-24 -86zM818 1128v-173h-60v173h60zM812 807h43
v105h47v-151h-145q-83 0 -83 80v71h47v-60q0 -45 31 -45h13v105h47v-105z" />
    <glyph glyph-name="aKaf.init_aAlif.fina" unicode="&#xfedb;&#xfe8e;" horiz-adv-x="723" 
d="M663 0h-603v714h135v-241l293 241h179l-295 -239h8q145 0 214 -60.5t69 -188.5v-226zM195 364v-242h333v100q0 58 -16.5 88t-52.5 42t-100 12h-164z" />
    <glyph glyph-name="aKaf.medi_aAlif.fina" unicode="&#xfedc;&#xfe8e;" horiz-adv-x="773" 
d="M60 0v714h135v-241l293 241h179l-295 -239h8q145 0 214 -61t69 -188v-104h125v-122h-728zM528 222q0 58 -16.5 88t-52.5 42t-100 12h-164v-242h333v100z" />
    <glyph glyph-name="aKaf.init_aAlifMadda.fina" unicode="&#xfedb;&#xfe82;" horiz-adv-x="723" 
d="M663 0h-603v714h135v-241l293 241h179l-295 -239h8q145 0 214 -60.5t69 -188.5v-226zM195 364v-242h333v100q0 58 -16.5 88t-52.5 42t-100 12h-164zM12 770q0 44 15.5 63t51.5 19q19 -1 34.5 -8t28 -14t21.5 -8q15 0 21 6.5t6 21.5h49q0 -44 -15.5 -63t-51.5 -19
q-18 1 -33.5 8.5t-27.5 14.5t-21 8q-16 0 -22 -6.5t-6 -22.5h-50z" />
    <glyph glyph-name="aKaf.medi_aAlifMadda.fina" unicode="&#xfedc;&#xfe82;" horiz-adv-x="773" 
d="M60 0v714h135v-241l293 241h179l-295 -239h8q145 0 214 -61t69 -188v-104h125v-122h-728zM528 222q0 58 -16.5 88t-52.5 42t-100 12h-164v-242h333v100zM12 770q0 44 15.5 63t51.5 19q19 -1 34.5 -8t28 -14t21.5 -8q15 0 21 6.5t6 21.5h49q0 -44 -15.5 -63t-51.5 -19
q-18 1 -33.5 8.5t-27.5 14.5t-21 8q-16 0 -22 -6.5t-6 -22.5h-50z" />
    <glyph glyph-name="aKaf.init_aAlifHamza.fina" unicode="&#xfedb;&#xfe84;" horiz-adv-x="723" 
d="M663 0h-603v714h135v-241l293 241h179l-295 -239h8q145 0 214 -60.5t69 -188.5v-226zM195 364v-242h333v100q0 58 -16.5 88t-52.5 42t-100 12h-164zM215 815v-47h-178v47h22v48q0 36 20 55.5t57 19.5q36 0 53.5 -15.5t22.5 -52.5l-45 -6q-2 17 -8 23.5t-20 6.5
q-31 0 -31 -35v-44h107z" />
    <glyph glyph-name="aKaf.medi_aAlifHamza.fina" unicode="&#xfedc;&#xfe84;" horiz-adv-x="773" 
d="M60 0v714h135v-241l293 241h179l-295 -239h8q145 0 214 -61t69 -188v-104h125v-122h-728zM528 222q0 58 -16.5 88t-52.5 42t-100 12h-164v-242h333v100zM215 815v-47h-178v47h22v48q0 36 20 55.5t57 19.5q36 0 53.5 -15.5t22.5 -52.5l-45 -6q-2 17 -8 23.5t-20 6.5
q-31 0 -31 -35v-44h107z" />
    <glyph glyph-name="aKaf.init_aAlifHamzabelow.fina" unicode="&#xfedb;&#xfe88;" horiz-adv-x="723" 
d="M663 0h-603v714h135v-241l293 241h179l-295 -239h8q145 0 214 -60.5t69 -188.5v-226zM195 364v-242h333v100q0 58 -16.5 88t-52.5 42t-100 12h-164zM220 -188v-47h-178v47h22v48q0 36 20 55.5t57 19.5q36 0 53.5 -15.5t22.5 -52.5l-45 -6q-2 17 -8 23.5t-20 6.5
q-31 0 -31 -35v-44h107z" />
    <glyph glyph-name="aKaf.medi_aAlifHamzabelow.fina" unicode="&#xfedc;&#xfe88;" horiz-adv-x="773" 
d="M60 0v714h135v-241l293 241h179l-295 -239h8q145 0 214 -61t69 -188v-104h125v-122h-728zM528 222q0 58 -16.5 88t-52.5 42t-100 12h-164v-242h333v100zM220 -188v-47h-178v47h22v48q0 36 20 55.5t57 19.5q36 0 53.5 -15.5t22.5 -52.5l-45 -6q-2 17 -8 23.5t-20 6.5
q-31 0 -31 -35v-44h107z" />
    <glyph glyph-name="aKaf.init_aAlifWasla.fina" unicode="&#xfedb;&#xfb51;" horiz-adv-x="723" 
d="M663 0h-603v714h135v-241l293 241h179l-295 -239h8q145 0 214 -60.5t69 -188.5v-226zM195 364v-242h333v100q0 58 -16.5 88t-52.5 42t-100 12h-164zM84 874q24 38 69 38q34 0 53.5 -19.5t19.5 -53.5v-71h-206v44h19v103h45v-41zM142 867q-23 0 -36 -13q-16 -13 -16 -35
v-7h88v8q0 25 -8 36t-28 11z" />
    <glyph glyph-name="aKaf.medi_aAlifWasla.fina" unicode="&#xfedc;&#xfb51;" horiz-adv-x="773" 
d="M60 0v714h135v-241l293 241h179l-295 -239h8q145 0 214 -61t69 -188v-104h125v-122h-728zM528 222q0 58 -16.5 88t-52.5 42t-100 12h-164v-242h333v100zM84 875q24 38 69 38q34 0 53.5 -19.5t19.5 -53.5v-71h-206v44h19v103h45v-41zM142 868q-23 0 -36 -13
q-16 -13 -16 -35v-7h88v8q0 25 -8 36t-28 11z" />
    <glyph glyph-name="aKaf.init_aLam.fina" unicode="&#xfedb;&#xfede;" horiz-adv-x="1053" 
d="M993 1h-468q-3 -109 -65 -170t-171 -61q-253 0 -253 244q0 38 13 84.5t35 85.5l121 -31q-17 -31 -27 -68t-10 -71q0 -63 29.5 -95.5t86.5 -32.5q54 0 80 33.5t26 102.5v693h135v-241l293 241h179l-295 -239h8q145 0 214 -60.5t69 -188.5v-226zM525 365v-242h333v100
q0 58 -16.5 88t-52.5 42t-100 12h-164z" />
    <glyph glyph-name="aKaf.init_aLam.medi" unicode="&#xfedb;&#xfee0;" horiz-adv-x="773" 
d="M-15 122h125v592h135v-241l293 241h179l-295 -239h8q145 0 214 -60.5t69 -188.5v-226h-728v122zM578 222q0 58 -16.5 88t-52.5 42t-100 12h-164v-242h333v100z" />
    <glyph glyph-name="aKaf.medi_aLam.fina" unicode="&#xfedc;&#xfede;" horiz-adv-x="1103" 
d="M525 365v-242h333v100q0 58 -16.5 88t-52.5 42t-100 12h-164zM525 1q-3 -109 -65 -170t-171 -61q-253 0 -253 244q0 38 13 84.5t35 85.5l121 -31q-17 -31 -27 -68t-10 -71q0 -63 29.5 -95.5t86.5 -32.5q54 0 80 33.5t26 102.5v693h135v-241l293 241h179l-295 -239h8
q145 0 214 -60.5t69 -188.5v-104h125v-122h-593z" />
    <glyph glyph-name="aKaf.medi_aLam.medi" unicode="&#xfedc;&#xfee0;" horiz-adv-x="823" 
d="M-15 122h125v592h135v-241l293 241h179l-295 -239h8q145 0 214 -60.5t69 -188.5v-104h125v-122h-853v122zM578 222q0 58 -16.5 88t-52.5 42t-100 12h-164v-242h333v100z" />
    <glyph glyph-name="aAlifWavyhamza.fina" unicode="&#x672;" horiz-adv-x="310" 
d="M325 0h-265v714h135v-592h130v-122zM236 816v-47h-136q-20 1 -31 7.5t-18.5 13t-18.5 7.5q-10 0 -17 -7l-33 39q16 19 42 19q16 0 25.5 -6.5t17 -13t18.5 -6.5v42q0 35 19 55t54 20t52.5 -16.5t22.5 -51.5l-45 -6q-2 17 -8 23.5t-19 6.5q-27 0 -27 -35v-44h102z" />
    <glyph glyph-name="aAlifWavyhamzabelow.fina" unicode="&#x673;" horiz-adv-x="310" 
d="M325 0h-265v714h135v-592h130v-122zM228 -194v-47h-136q-20 1 -31 7.5t-18.5 13t-18.5 7.5q-10 0 -17 -7l-33 39q16 19 42 19q16 0 25.5 -6.5t17 -13t18.5 -6.5v42q0 35 19 55t54 20t52.5 -16.5t22.5 -51.5l-45 -6q-2 17 -8 23.5t-19 6.5q-27 0 -27 -35v-44h102z" />
    <glyph glyph-name="aAlifHamzahigh.fina" unicode="&#x675;" horiz-adv-x="392" 
d="M407 0h-347v714h135v-592h212v-122zM375 816v-47h-178v47h22v48q0 36 20 55.5t57 19.5q36 0 53.5 -15.5t22.5 -52.5l-45 -6q-2 17 -8 23.5t-20 6.5q-31 0 -31 -35v-44h107z" />
    <glyph glyph-name="aWawHamzahigh.fina" unicode="&#x676;" horiz-adv-x="610" 
d="M500 122h125v-122h-125q0 -118 -55.5 -174.5t-170.5 -56.5q-103 0 -161 47.5t-69 140.5h135q7 -40 29.5 -57.5t65.5 -17.5q49 0 70 25t21 81v12h-18q-146 0 -223.5 66.5t-77.5 191.5q0 106 62 168t169 62q113 0 168 -58t55 -175v-133zM181 258q0 -136 142 -136h42v108
q0 61 -8.5 91t-27.5 41.5t-54 11.5q-46 0 -70 -30t-24 -86zM560 595v-47h-178v47h22v48q0 36 20 55.5t57 19.5q36 0 53.5 -15.5t22.5 -52.5l-45 -6q-2 17 -8 23.5t-20 6.5q-31 0 -31 -35v-44h107z" />
    <glyph glyph-name="aUHamzaabove.fina" unicode="&#x677;" horiz-adv-x="610" 
d="M500 122h125v-122h-125q0 -118 -55.5 -174.5t-170.5 -56.5q-103 0 -161 47.5t-69 140.5h135q7 -40 29.5 -57.5t65.5 -17.5q49 0 70 25t21 81v12h-18q-146 0 -223.5 66.5t-77.5 191.5q0 106 62 168t169 62q113 0 168 -58t55 -175v-133zM181 258q0 -136 142 -136h42v108
q0 61 -8.5 91t-27.5 41.5t-54 11.5q-46 0 -70 -30t-24 -86zM229 544q-34 0 -62 13l11 38q29 -12 50 -12q19 0 27 7t8 22v8q-13 -13 -35 -13q-28 0 -43 14.5t-15 41.5q0 29 18 45.5t50 16.5q35 0 54 -19t19 -52v-33q0 -77 -82 -77zM238 690q-24 0 -24 -26t24 -26t24 26
t-24 26zM560 595v-47h-178v47h22v48q0 36 20 55.5t57 19.5q36 0 53.5 -15.5t22.5 -52.5l-45 -6q-2 17 -8 23.5t-20 6.5q-31 0 -31 -35v-44h107z" />
    <glyph glyph-name="aYehHamzaabove.init" unicode="&#x678;" horiz-adv-x="410" 
d="M250 0h-265v122h130v226q0 55 -22 95l123 48q18 -25 26 -55.5t8 -76.5v-359zM419 599v-47h-178v47h22v48q0 36 20 55.5t57 19.5q36 0 53.5 -15.5t22.5 -52.5l-45 -6q-2 17 -8 23.5t-20 6.5q-31 0 -31 -35v-44h107z" />
    <glyph glyph-name="aYehHamzaabove.medi" unicode="&#x678;" horiz-adv-x="500" 
d="M-15 122h130v350h135v-350h266v-122h-531v122zM428 599v-47h-178v47h22v48q0 36 20 55.5t57 19.5q36 0 53.5 -15.5t22.5 -52.5l-45 -6q-2 17 -8 23.5t-20 6.5q-31 0 -31 -35v-44h107z" />
    <glyph glyph-name="aYehHamzaabove.fina" unicode="&#x678;" horiz-adv-x="922" 
d="M525 8q0 -113 -62 -176t-174 -63q-253 0 -253 244q0 38 13 84.5t35 85.5l121 -31q-17 -31 -27 -68t-10 -71q0 -63 29.5 -95.5t86.5 -32.5q54 0 80 33.5t26 102.5v270q0 86 50 133.5t140 47.5h224v-350h133v-122h-268v353h-69q-75 0 -75 -75v-270zM805 587v-47h-178v47h22
v48q0 36 20 55.5t57 19.5q36 0 53.5 -15.5t22.5 -52.5l-45 -6q-2 17 -8 23.5t-20 6.5q-31 0 -31 -35v-44h107z" />
    <glyph glyph-name="aTehring.init" unicode="&#x67c;" horiz-adv-x="310" 
d="M31 -40q0 22 8 40h-54v122h130v226q0 57 -22 95l123 48q18 -25 26 -55.5t8 -76.5v-359h-52q9 -20 9 -40q0 -39 -24.5 -62.5t-64.5 -23.5q-39 0 -63 23t-24 63zM118 -79q17 0 27 10t10 29q0 40 -37 40q-17 0 -26.5 -10.5t-9.5 -29.5q0 -18 9.5 -28.5t26.5 -10.5zM-57 673
h119v-111h-119v111zM117 673h118v-111h-118v111z" />
    <glyph glyph-name="aTehring.medi" unicode="&#x67c;" horiz-adv-x="365" 
d="M94 -40q0 22 8 40h-117v122h130v350h135v-350h130v-122h-119q9 -20 9 -40q0 -39 -24.5 -62.5t-64.5 -23.5q-39 0 -63 23t-24 63zM181 -79q17 0 27 10t10 29q0 40 -37 40q-17 0 -26.5 -10.5t-9.5 -29.5q0 -18 9.5 -28.5t26.5 -10.5zM-42 673h119v-111h-119v111zM132 673
h118v-111h-118v111z" />
    <glyph glyph-name="aTehring.fina" unicode="&#x67c;" horiz-adv-x="883" 
d="M381 -40q0 22 8 40h-72q-139 0 -206 59.5t-67 183.5q0 68 28 120t82.5 82t130.5 34l16 -119q-65 -4 -95 -31.5t-30 -85.5q0 -62 32 -91.5t103 -29.5h322v350h135v-350h130v-122h-350q9 -20 9 -40q0 -39 -24.5 -62.5t-64.5 -23.5q-39 0 -63 23t-24 63zM468 -79q17 0 27 10
t10 29q0 40 -37 40q-17 0 -26.5 -10.5t-9.5 -29.5q0 -18 9.5 -28.5t26.5 -10.5zM298 673h119v-111h-119v111zM472 673h118v-111h-118v111z" />
    <glyph glyph-name="aTeh3dabove.init" unicode="&#x67d;" horiz-adv-x="310" 
d="M250 0h-265v122h130v226q0 55 -22 95l123 48q18 -25 26 -55.5t8 -76.5v-359zM48 646h110v-95h-110v95zM-29 772h110v-95h-110v95zM125 772h110v-95h-110v95z" />
    <glyph glyph-name="aTeh3dabove.medi" unicode="&#x67d;" horiz-adv-x="365" 
d="M-15 122h130v350h135v-350h130v-122h-395v122zM63 646h110v-95h-110v95zM-14 772h110v-95h-110v95zM140 772h110v-95h-110v95z" />
    <glyph glyph-name="aTeh3dabove.fina" unicode="&#x67d;" horiz-adv-x="883" 
d="M633 122v350h135v-350h130v-122h-581q-139 0 -206 60t-67 183q0 68 28 120t82.5 82t130.5 34l16 -119q-67 -5 -96 -32.5t-29 -84.5q0 -63 32.5 -92t102.5 -29h322zM391 646h110v-95h-110v95zM314 772h110v-95h-110v95zM468 772h110v-95h-110v95z" />
    <glyph glyph-name="aHahHamzaabove.init" unicode="&#x681;" horiz-adv-x="588" 
d="M-15 122h352v124q0 68 -20 97t-68 29q-47 0 -68.5 -17t-30.5 -60l-130 14q11 63 39 102.5t73.5 58t112.5 18.5q116 0 171.5 -57t55.5 -176v-133h86v-122h-573v122zM338 610v-47h-178v47h22v48q0 36 20 55.5t57 19.5q36 0 53.5 -15.5t22.5 -52.5l-45 -6q-2 17 -8 23.5
t-20 6.5q-31 0 -31 -35v-44h107z" />
    <glyph glyph-name="aHahHamzaabove.medi" unicode="&#x681;" horiz-adv-x="587" 
d="M342 246q0 68 -20 97t-68 29q-47 0 -68.5 -17t-30.5 -60l-130 14q11 63 39 102.5t73.5 58t112.5 18.5q116 0 171.5 -57t55.5 -176v-133h125v-122h-617v122h357v124zM338 610v-47h-178v47h22v48q0 36 20 55.5t57 19.5q36 0 53.5 -15.5t22.5 -52.5l-45 -6q-2 17 -8 23.5
t-20 6.5q-31 0 -31 -35v-44h107z" />
    <glyph glyph-name="aHahHamzaabove.fina" unicode="&#x681;" horiz-adv-x="631" 
d="M259 0q-48 0 -77 -27.5t-29 -73.5q0 -55 30 -81t92 -26q54 0 82.5 21t41.5 71h136q-13 -100 -80.5 -154t-179.5 -54q-128 0 -191.5 56.5t-63.5 171.5q0 98 68 158t180 60h118v124q0 68 -20 97t-68 29q-47 0 -68.5 -17t-30.5 -60l-130 14q11 63 39 102.5t73.5 58
t112.5 18.5q116 0 171.5 -57t55.5 -176v-133h125v-122h-387zM385 599v-47h-178v47h22v48q0 36 20 55.5t57 19.5q36 0 53.5 -15.5t22.5 -52.5l-45 -6q-2 17 -8 23.5t-20 6.5q-31 0 -31 -35v-44h107z" />
    <glyph glyph-name="aHah2vabove.init" unicode="&#x682;" horiz-adv-x="588" 
d="M-15 122h352v124q0 68 -20 97t-68 29q-47 0 -68.5 -17t-30.5 -60l-130 14q11 63 39 102.5t73.5 58t112.5 18.5q116 0 171.5 -57t55.5 -176v-133h86v-122h-573v122zM190 651h116v-89h-116v89zM190 783h116v-89h-116v89z" />
    <glyph glyph-name="aHah2vabove.medi" unicode="&#x682;" horiz-adv-x="587" 
d="M342 246q0 68 -20 97t-68 29q-47 0 -68.5 -17t-30.5 -60l-130 14q11 63 39 102.5t73.5 58t112.5 18.5q116 0 171.5 -57t55.5 -176v-133h125v-122h-617v122h357v124zM190 651h116v-89h-116v89zM190 783h116v-89h-116v89z" />
    <glyph glyph-name="aHah2vabove.fina" unicode="&#x682;" horiz-adv-x="631" 
d="M259 0q-48 0 -77 -27.5t-29 -73.5q0 -55 30 -81t92 -26q54 0 82.5 21t41.5 71h136q-13 -100 -80.5 -154t-179.5 -54q-128 0 -191.5 56.5t-63.5 171.5q0 98 68 158t180 60h118v124q0 68 -20 97t-68 29q-47 0 -68.5 -17t-30.5 -60l-130 14q11 63 39 102.5t73.5 58
t112.5 18.5q116 0 171.5 -57t55.5 -176v-133h125v-122h-387zM239 640h116v-89h-116v89zM239 772h116v-89h-116v89z" />
    <glyph glyph-name="aHah3uabove.init" unicode="&#x685;" horiz-adv-x="588" 
d="M-15 122h352v124q0 68 -20 97t-68 29q-47 0 -68.5 -17t-30.5 -60l-130 14q11 63 39 102.5t73.5 58t112.5 18.5q116 0 171.5 -57t55.5 -176v-133h86v-122h-573v122zM196 783h110v-95h-110v95zM119 657h110v-95h-110v95zM273 657h110v-95h-110v95z" />
    <glyph glyph-name="aHah3uabove.medi" unicode="&#x685;" horiz-adv-x="587" 
d="M342 246q0 68 -20 97t-68 29q-47 0 -68.5 -17t-30.5 -60l-130 14q11 63 39 102.5t73.5 58t112.5 18.5q116 0 171.5 -57t55.5 -176v-133h125v-122h-617v122h357v124zM196 783h110v-95h-110v95zM119 657h110v-95h-110v95zM273 657h110v-95h-110v95z" />
    <glyph glyph-name="aHah3uabove.fina" unicode="&#x685;" horiz-adv-x="631" 
d="M259 0q-48 0 -77 -27.5t-29 -73.5q0 -55 30 -81t92 -26q54 0 82.5 21t41.5 71h136q-13 -100 -80.5 -154t-179.5 -54q-128 0 -191.5 56.5t-63.5 171.5q0 98 68 158t180 60h118v124q0 68 -20 97t-68 29q-47 0 -68.5 -17t-30.5 -60l-130 14q11 63 39 102.5t73.5 58
t112.5 18.5q116 0 171.5 -57t55.5 -176v-133h125v-122h-387zM244 772h110v-95h-110v95zM167 646h110v-95h-110v95zM321 646h110v-95h-110v95z" />
    <glyph glyph-name="aDalring.fina" unicode="&#x689;" horiz-adv-x="599" 
d="M148 -40q0 21 8 40h-126v122h324v63q0 92 -34.5 136t-106.5 44q-46 0 -102 -18l-32 119q68 22 145 22q128 0 196.5 -75t68.5 -215v-76h125v-122h-299q9 -20 9 -40q0 -39 -24.5 -62.5t-64.5 -23.5t-63.5 23.5t-23.5 62.5zM235 -79q17 0 27 10t10 29q0 40 -37 40
q-36 0 -36 -40q0 -18 9.5 -28.5t26.5 -10.5z" />
    <glyph glyph-name="aDal1below.fina" unicode="&#x68a;" horiz-adv-x="599" 
d="M354 122v63q0 92 -34.5 136t-106.5 44q-46 0 -102 -18l-32 119q68 22 145 22q128 0 196.5 -75t68.5 -215v-76h125v-122h-584v122h324zM201 -80h122v-113h-122v113z" />
    <glyph glyph-name="aDdal1below.fina" unicode="&#x68b;" horiz-adv-x="599" 
d="M354 122v63q0 92 -34.5 136t-106.5 44q-46 0 -102 -18l-32 119q68 22 145 22q128 0 196.5 -75t68.5 -215v-76h125v-122h-584v122h324zM198 658q24 38 69 38q34 0 53.5 -19.5t19.5 -53.5v-71h-206v44h19v154h45v-92zM256 651q-23 0 -36 -13q-16 -13 -16 -35v-7h88v8
q0 25 -8 36t-28 11zM193 -80h122v-113h-122v113z" />
    <glyph glyph-name="aDal3dabove.fina" unicode="&#x68f;" horiz-adv-x="599" 
d="M354 122v63q0 92 -34.5 136t-106.5 44q-46 0 -102 -18l-32 119q68 22 145 22q128 0 196.5 -75t68.5 -215v-76h125v-122h-584v122h324zM210 646h110v-95h-110v95zM133 772h110v-95h-110v95zM287 772h110v-95h-110v95z" />
    <glyph glyph-name="aDal4above.fina" unicode="&#x690;" horiz-adv-x="599" 
d="M354 122v63q0 92 -34.5 136t-106.5 44q-46 0 -102 -18l-32 119q68 22 145 22q128 0 196.5 -75t68.5 -215v-76h125v-122h-584v122h324zM140 772h104v-91h-104v91zM286 772h104v-91h-104v91zM140 642h104v-91h-104v91zM286 642h104v-91h-104v91z" />
    <glyph glyph-name="aRehVabove.fina" unicode="&#x692;" horiz-adv-x="391" 
d="M20 -109q33 -8 60 -8q61 0 61 65v524h135v-350h130v-122h-130v-51q0 -92 -41.5 -136t-127.5 -44q-50 0 -107 17zM236 552h-63l-90 145h62l60 -98l59 98h62z" />
    <glyph glyph-name="aRehring.fina" unicode="&#x693;" horiz-adv-x="391" 
d="M23 -271q0 28 12 48q-9 2 -17.5 4.5t-17.5 4.5l20 105q33 -8 60 -8q61 0 61 65v524h135v-350h130v-122h-130v-51q0 -135 -92 -168q15 -24 15 -52q0 -39 -24.5 -62.5t-64.5 -23.5t-63.5 23.5t-23.5 62.5zM110 -310q17 0 27 10t10 29q0 40 -37 40q-36 0 -36 -40
q0 -18 9.5 -28.5t26.5 -10.5z" />
    <glyph glyph-name="aReh1below.fina" unicode="&#x694;" horiz-adv-x="391" 
d="M20 -109q33 -8 60 -8q61 0 61 65v524h135v-350h130v-122h-130v-51q0 -92 -41.5 -136t-127.5 -44q-50 0 -107 17zM77 -301h122v-113h-122v113z" />
    <glyph glyph-name="aRehVbelow.fina" unicode="&#x695;" horiz-adv-x="391" 
d="M20 -109q33 -8 60 -8q61 0 61 65v524h135v-350h130v-122h-130v-51q0 -92 -41.5 -136t-127.5 -44q-50 0 -107 17zM169 -446h-63l-90 145h62l60 -98l59 98h62z" />
    <glyph glyph-name="aReh1above1below.fina" unicode="&#x696;" horiz-adv-x="391" 
d="M20 -109q33 -8 60 -8q61 0 61 65v524h135v-350h130v-122h-130v-51q0 -92 -41.5 -136t-127.5 -44q-50 0 -107 17zM-20 237h122v-113h-122v113zM76 -300h122v-113h-122v113z" />
    <glyph glyph-name="aReh2habove.fina" unicode="&#x697;" horiz-adv-x="391" 
d="M20 -109q33 -8 60 -8q61 0 61 65v524h135v-350h130v-122h-130v-51q0 -92 -41.5 -136t-127.5 -44q-50 0 -107 17zM-17 673h119v-111h-119v111zM157 673h118v-111h-118v111z" />
    <glyph glyph-name="aReh4above.fina" unicode="&#x699;" horiz-adv-x="391" 
d="M20 -109q33 -8 60 -8q61 0 61 65v524h135v-350h130v-122h-130v-51q0 -92 -41.5 -136t-127.5 -44q-50 0 -107 17zM26 772h104v-91h-104v91zM172 772h104v-91h-104v91zM26 642h104v-91h-104v91zM172 642h104v-91h-104v91z" />
    <glyph glyph-name="aSin1above1below.init" unicode="&#x69a;" horiz-adv-x="862" 
d="M525 122h142v226q0 55 -22 95l123 48q18 -25 26 -55.5t8 -76.5v-359h-817v122h130v350h135v-350h140v350h135v-350zM396 675h122v-113h-122v113zM397 -80h122v-113h-122v113z" />
    <glyph glyph-name="aSin1above1below.medi" unicode="&#x69a;" horiz-adv-x="917" 
d="M932 122v-122h-947v122h130v350h135v-350h140v350h135v-350h142v226q0 55 -22 95l123 48q18 -25 26 -55.5t8 -76.5v-237h130zM396 675h122v-113h-122v113zM397 -80h122v-113h-122v113z" />
    <glyph glyph-name="aSin1above1below.fina" unicode="&#x69a;" horiz-adv-x="1192" 
d="M525 0q-3 -110 -64.5 -170.5t-171.5 -60.5q-253 0 -253 244q0 38 13 84.5t35 85.5l121 -31q-17 -31 -27 -68t-10 -71q0 -63 29.5 -95.5t86.5 -32.5q54 0 80 33.5t26 102.5v451h135v-350h140v350h135v-350h142v226q0 55 -22 95l123 48q18 -25 26 -55.5t8 -76.5v-237h130
v-122h-682zM671 675h122v-113h-122v113zM671 -80h122v-113h-122v113z" />
    <glyph glyph-name="aSin3dbelow.init" unicode="&#x69b;" horiz-adv-x="862" 
d="M525 122h142v226q0 55 -22 95l123 48q18 -25 26 -55.5t8 -76.5v-359h-817v122h130v350h135v-350h140v350h135v-350zM406 -198h110v-95h-110v95zM329 -72h110v-95h-110v95zM483 -72h110v-95h-110v95z" />
    <glyph glyph-name="aSin3dbelow.medi" unicode="&#x69b;" horiz-adv-x="917" 
d="M932 122v-122h-947v122h130v350h135v-350h140v350h135v-350h142v226q0 55 -22 95l123 48q18 -25 26 -55.5t8 -76.5v-237h130zM406 -198h110v-95h-110v95zM329 -72h110v-95h-110v95zM483 -72h110v-95h-110v95z" />
    <glyph glyph-name="aSin3dbelow.fina" unicode="&#x69b;" horiz-adv-x="1192" 
d="M525 0q-3 -110 -64.5 -170.5t-171.5 -60.5q-253 0 -253 244q0 38 13 84.5t35 85.5l121 -31q-17 -31 -27 -68t-10 -71q0 -63 29.5 -95.5t86.5 -32.5q54 0 80 33.5t26 102.5v451h135v-350h140v350h135v-350h142v226q0 55 -22 95l123 48q18 -25 26 -55.5t8 -76.5v-237h130
v-122h-682zM678 -198h110v-95h-110v95zM601 -72h110v-95h-110v95zM755 -72h110v-95h-110v95z" />
    <glyph glyph-name="aSin3uabove3dbelow.init" unicode="&#x69c;" horiz-adv-x="862" 
d="M525 122h142v226q0 55 -22 95l123 48q18 -25 26 -55.5t8 -76.5v-359h-817v122h130v350h135v-350h140v350h135v-350zM405 747h110v-95h-110v95zM328 621h110v-95h-110v95zM482 621h110v-95h-110v95zM405 -198h110v-95h-110v95zM328 -72h110v-95h-110v95zM482 -72h110v-95
h-110v95z" />
    <glyph glyph-name="aSin3uabove3dbelow.medi" unicode="&#x69c;" horiz-adv-x="917" 
d="M932 122v-122h-947v122h130v350h135v-350h140v350h135v-350h142v226q0 55 -22 95l123 48q18 -25 26 -55.5t8 -76.5v-237h130zM405 747h110v-95h-110v95zM328 621h110v-95h-110v95zM482 621h110v-95h-110v95zM405 -198h110v-95h-110v95zM328 -72h110v-95h-110v95zM482 -72
h110v-95h-110v95z" />
    <glyph glyph-name="aSin3uabove3dbelow.fina" unicode="&#x69c;" horiz-adv-x="1192" 
d="M525 0q-3 -110 -64.5 -170.5t-171.5 -60.5q-253 0 -253 244q0 38 13 84.5t35 85.5l121 -31q-17 -31 -27 -68t-10 -71q0 -63 29.5 -95.5t86.5 -32.5q54 0 80 33.5t26 102.5v451h135v-350h140v350h135v-350h142v226q0 55 -22 95l123 48q18 -25 26 -55.5t8 -76.5v-237h130
v-122h-682zM679 747h110v-95h-110v95zM602 621h110v-95h-110v95zM756 621h110v-95h-110v95zM678 -198h110v-95h-110v95zM601 -72h110v-95h-110v95zM755 -72h110v-95h-110v95z" />
    <glyph glyph-name="aSad2hbelow.init" unicode="&#x69d;" horiz-adv-x="778" 
d="M456 372q-98 0 -153.5 -55.5t-55.5 -153.5v-41h336v72q0 91 -30.5 134.5t-96.5 43.5zM718 0h-733v122h130v350h135v-102q38 58 94 88t127 30q121 0 184 -68t63 -199v-221zM300 -81h119v-111h-119v111zM474 -81h118v-111h-118v111z" />
    <glyph glyph-name="aSad2hbelow.medi" unicode="&#x69d;" horiz-adv-x="828" 
d="M456 372q-98 0 -153.5 -55.5t-55.5 -153.5v-41h336v72q0 91 -30.5 134.5t-96.5 43.5zM250 370q38 58 94 88t127 30q121 0 184 -68t63 -199v-99h125v-122h-858v122h130v350h135v-102zM300 -81h119v-111h-119v111zM474 -81h118v-111h-118v111z" />
    <glyph glyph-name="aSad2hbelow.fina" unicode="&#x69d;" horiz-adv-x="1103" 
d="M731 372q-98 0 -153.5 -55.5t-55.5 -153.5v-41h336v72q0 91 -30.5 134.5t-96.5 43.5zM525 370q38 58 94 88t127 30q121 0 184 -68t63 -199v-99h125v-122h-593q-3 -110 -64.5 -170.5t-171.5 -60.5q-253 0 -253 244q0 38 13 84.5t35 85.5l121 -31q-17 -31 -27 -68t-10 -71
q0 -63 29.5 -95.5t86.5 -32.5q54 0 80 33.5t26 102.5v451h135v-102zM574 -81h119v-111h-119v111zM748 -81h118v-111h-118v111z" />
    <glyph glyph-name="aSad3uabove.init" unicode="&#x69e;" horiz-adv-x="778" 
d="M456 372q-98 0 -153.5 -55.5t-55.5 -153.5v-41h336v72q0 91 -30.5 134.5t-96.5 43.5zM718 0h-733v122h130v350h135v-102q38 58 94 88t127 30q121 0 184 -68t63 -199v-221zM392 772h110v-95h-110v95zM315 646h110v-95h-110v95zM469 646h110v-95h-110v95z" />
    <glyph glyph-name="aSad3uabove.medi" unicode="&#x69e;" horiz-adv-x="828" 
d="M456 372q-98 0 -153.5 -55.5t-55.5 -153.5v-41h336v72q0 91 -30.5 134.5t-96.5 43.5zM250 370q38 58 94 88t127 30q121 0 184 -68t63 -199v-99h125v-122h-858v122h130v350h135v-102zM392 772h110v-95h-110v95zM315 646h110v-95h-110v95zM469 646h110v-95h-110v95z" />
    <glyph glyph-name="aSad3uabove.fina" unicode="&#x69e;" horiz-adv-x="1103" 
d="M731 372q-98 0 -153.5 -55.5t-55.5 -153.5v-41h336v72q0 91 -30.5 134.5t-96.5 43.5zM525 370q38 58 94 88t127 30q121 0 184 -68t63 -199v-99h125v-122h-593q-3 -110 -64.5 -170.5t-171.5 -60.5q-253 0 -253 244q0 38 13 84.5t35 85.5l121 -31q-17 -31 -27 -68t-10 -71
q0 -63 29.5 -95.5t86.5 -32.5q54 0 80 33.5t26 102.5v451h135v-102zM669 772h110v-95h-110v95zM592 646h110v-95h-110v95zM746 646h110v-95h-110v95z" />
    <glyph glyph-name="aTah3uabove.init" unicode="&#x69f;" horiz-adv-x="778" 
d="M456 372q-98 0 -154 -56t-56 -153v-41h337v72q0 91 -30.5 134.5t-96.5 43.5zM250 370q38 58 94 88t127 30q121 0 184 -68t63 -199v-221h-733v122h130v592h135v-344zM401 772h110v-95h-110v95zM324 646h110v-95h-110v95zM478 646h110v-95h-110v95z" />
    <glyph glyph-name="aTah3uabove.medi" unicode="&#x69f;" horiz-adv-x="822" 
d="M450 372q-98 0 -154 -56t-56 -153v-41h337v72q0 91 -30.5 134.5t-96.5 43.5zM712 122h125v-122h-852v122h124v592h135v-344q38 58 94 88t127 30q121 0 184 -68t63 -199v-99zM401 772h110v-95h-110v95zM324 646h110v-95h-110v95zM478 646h110v-95h-110v95z" />
    <glyph glyph-name="aTah3uabove.fina" unicode="&#x69f;" horiz-adv-x="828" 
d="M456 372q-98 0 -154 -56t-56 -153v-41h337v72q0 91 -30.5 134.5t-96.5 43.5zM471 488q121 0 184 -68t63 -199v-99h125v-122h-813v122h85v592h135v-344q38 58 94 88t127 30zM401 772h110v-95h-110v95zM324 646h110v-95h-110v95zM478 646h110v-95h-110v95z" />
    <glyph glyph-name="aAyn3uabove.init" unicode="&#x6a0;" horiz-adv-x="612" 
d="M110 247q0 120 58.5 180.5t174.5 60.5q98 0 150 -42.5t67 -136.5l-130 -14q-8 43 -28 60t-63 17q-49 0 -71.5 -29.5t-22.5 -96.5v-124h337v-122h-597v122h125v125zM285 772h110v-95h-110v95zM208 646h110v-95h-110v95zM362 646h110v-95h-110v95z" />
    <glyph glyph-name="aAyn3uabove.medi" unicode="&#x6a0;" horiz-adv-x="573" 
d="M110 247q0 120 58.5 180.5t174.5 60.5q98 0 150 -42.5t67 -136.5l-130 -14q-8 43 -28 60t-63 17q-49 0 -71.5 -29.5t-22.5 -96.5v-124h343v-122h-603v122h125v125zM285 772h110v-95h-110v95zM208 646h110v-95h-110v95zM362 646h110v-95h-110v95z" />
    <glyph glyph-name="aAyn3uabove.fina" unicode="&#x6a0;" horiz-adv-x="662" 
d="M677 0h-435q-43 0 -66 -26t-23 -74q0 -55 30 -81.5t92 -26.5q54 0 82.5 21t41.5 71h136q-13 -100 -80.5 -154t-179.5 -54q-255 0 -255 229q0 87 48 143.5t131 69.5v129q0 120 58.5 180.5t174.5 60.5q98 0 150 -42.5t67 -136.5l-130 -14q-8 43 -28 60t-63 17
q-49 0 -71.5 -29.5t-22.5 -96.5v-124h343v-122zM374 784h110v-95h-110v95zM297 658h110v-95h-110v95zM451 658h110v-95h-110v95z" />
    <glyph glyph-name="aFehdotless.init" unicode="&#x6a1;" horiz-adv-x="581" 
d="M520 253q0 -63 0.5 -126.5t0.5 -126.5h-536v122h150q-31 24 -50 66.5t-19 86.5q0 60 28.5 108.5t81.5 76.5t121 28q223 0 223 -235zM385 122v142q0 58 -21.5 84t-68.5 26q-45 0 -69.5 -30t-24.5 -86q0 -64 34 -100t95 -36h55z" />
    <glyph glyph-name="aFehdotless.medi" unicode="&#x6a1;" horiz-adv-x="630" 
d="M645 0h-660v122h150q-31 24 -50 66.5t-19 86.5q0 60 28.5 108.5t81.5 76.5t121 28q223 0 223 -235v-131h125v-122zM385 122v142q0 58 -21.5 84t-68.5 26q-45 0 -69.5 -30t-24.5 -86q0 -64 34 -100t95 -36h55z" />
    <glyph glyph-name="aFehdotless.fina" unicode="&#x6a1;" horiz-adv-x="1001" 
d="M756 122v142q0 58 -21.5 84t-68.5 26q-45 0 -69.5 -30t-24.5 -86q0 -64 34 -100t95 -36h55zM506 122q-31 24 -50 66.5t-19 86.5q0 60 28.5 108.5t81.5 76.5t121 28q223 0 223 -235v-131h125v-122h-699q-139 0 -206 60t-67 183q0 68 28 120t82.5 82t130.5 34l16 -119
q-67 -5 -96 -32.5t-29 -84.5q0 -63 32.5 -92t102.5 -29h195z" />
    <glyph glyph-name="aFeh1belowright.init" unicode="&#x6a2;" horiz-adv-x="581" 
d="M520 253q0 -63 0.5 -126.5t0.5 -126.5h-536v122h150q-31 24 -50 66.5t-19 86.5q0 60 28.5 108.5t81.5 76.5t121 28q223 0 223 -235zM385 122v142q0 58 -21.5 84t-68.5 26q-45 0 -69.5 -30t-24.5 -86q0 -64 34 -100t95 -36h55zM262 -80h122v-113h-122v113z" />
    <glyph glyph-name="aFeh1belowright.medi" unicode="&#x6a2;" horiz-adv-x="630" 
d="M645 0h-660v122h150q-31 24 -50 66.5t-19 86.5q0 60 28.5 108.5t81.5 76.5t121 28q223 0 223 -235v-131h125v-122zM385 122v142q0 58 -21.5 84t-68.5 26q-45 0 -69.5 -30t-24.5 -86q0 -64 34 -100t95 -36h55zM262 -80h122v-113h-122v113z" />
    <glyph glyph-name="aFeh1belowright.fina" unicode="&#x6a2;" horiz-adv-x="1001" 
d="M756 122v142q0 58 -21.5 84t-68.5 26q-45 0 -69.5 -30t-24.5 -86q0 -64 34 -100t95 -36h55zM506 122q-31 24 -50 66.5t-19 86.5q0 60 28.5 108.5t81.5 76.5t121 28q223 0 223 -235v-131h125v-122h-699q-139 0 -206 60t-67 183q0 68 28 120t82.5 82t130.5 34l16 -119
q-67 -5 -96 -32.5t-29 -84.5q0 -63 32.5 -92t102.5 -29h195zM449 -80h122v-113h-122v113z" />
    <glyph glyph-name="aFeh1below.init" unicode="&#x6a3;" horiz-adv-x="581" 
d="M520 253q0 -63 0.5 -126.5t0.5 -126.5h-536v122h150q-31 24 -50 66.5t-19 86.5q0 60 28.5 108.5t81.5 76.5t121 28q223 0 223 -235zM385 122v142q0 58 -21.5 84t-68.5 26q-45 0 -69.5 -30t-24.5 -86q0 -64 34 -100t95 -36h55zM233 675h122v-113h-122v113zM262 -80h122
v-113h-122v113z" />
    <glyph glyph-name="aFeh1below.medi" unicode="&#x6a3;" horiz-adv-x="630" 
d="M645 0h-660v122h150q-31 24 -50 66.5t-19 86.5q0 60 28.5 108.5t81.5 76.5t121 28q223 0 223 -235v-131h125v-122zM385 122v142q0 58 -21.5 84t-68.5 26q-45 0 -69.5 -30t-24.5 -86q0 -64 34 -100t95 -36h55zM233 675h122v-113h-122v113zM262 -80h122v-113h-122v113z" />
    <glyph glyph-name="aFeh1below.fina" unicode="&#x6a3;" horiz-adv-x="1001" 
d="M756 122v142q0 58 -21.5 84t-68.5 26q-45 0 -69.5 -30t-24.5 -86q0 -64 34 -100t95 -36h55zM506 122q-31 24 -50 66.5t-19 86.5q0 60 28.5 108.5t81.5 76.5t121 28q223 0 223 -235v-131h125v-122h-699q-139 0 -206 60t-67 183q0 68 28 120t82.5 82t130.5 34l16 -119
q-67 -5 -96 -32.5t-29 -84.5q0 -63 32.5 -92t102.5 -29h195zM605 675h122v-113h-122v113zM449 -80h122v-113h-122v113z" />
    <glyph glyph-name="aFeh3dbelow.init" unicode="&#x6a5;" horiz-adv-x="581" 
d="M520 253q0 -63 0.5 -126.5t0.5 -126.5h-536v122h150q-31 24 -50 66.5t-19 86.5q0 60 28.5 108.5t81.5 76.5t121 28q223 0 223 -235zM385 122v142q0 58 -21.5 84t-68.5 26q-45 0 -69.5 -30t-24.5 -86q0 -64 34 -100t95 -36h55zM270 -198h110v-95h-110v95zM193 -72h110v-95
h-110v95zM347 -72h110v-95h-110v95z" />
    <glyph glyph-name="aFeh3dbelow.medi" unicode="&#x6a5;" horiz-adv-x="630" 
d="M645 0h-660v122h150q-31 24 -50 66.5t-19 86.5q0 60 28.5 108.5t81.5 76.5t121 28q223 0 223 -235v-131h125v-122zM385 122v142q0 58 -21.5 84t-68.5 26q-45 0 -69.5 -30t-24.5 -86q0 -64 34 -100t95 -36h55zM270 -198h110v-95h-110v95zM193 -72h110v-95h-110v95z
M347 -72h110v-95h-110v95z" />
    <glyph glyph-name="aFeh3dbelow.fina" unicode="&#x6a5;" horiz-adv-x="1001" 
d="M756 122v142q0 58 -21.5 84t-68.5 26q-45 0 -69.5 -30t-24.5 -86q0 -64 34 -100t95 -36h55zM506 122q-31 24 -50 66.5t-19 86.5q0 60 28.5 108.5t81.5 76.5t121 28q223 0 223 -235v-131h125v-122h-699q-139 0 -206 60t-67 183q0 68 28 120t82.5 82t130.5 34l16 -119
q-67 -5 -96 -32.5t-29 -84.5q0 -63 32.5 -92t102.5 -29h195zM455 -198h110v-95h-110v95zM378 -72h110v-95h-110v95zM532 -72h110v-95h-110v95z" />
    <glyph glyph-name="aQaf1above.init" unicode="&#x6a7;" horiz-adv-x="581" 
d="M520 253q0 -63 0.5 -126.5t0.5 -126.5h-536v122h150q-31 24 -50 66.5t-19 86.5q0 60 28.5 108.5t81.5 76.5t121 28q223 0 223 -235zM385 122v142q0 58 -21.5 84t-68.5 26q-45 0 -69.5 -30t-24.5 -86q0 -64 34 -100t95 -36h55zM233 675h122v-113h-122v113z" />
    <glyph glyph-name="aQaf1above.medi" unicode="&#x6a7;" horiz-adv-x="630" 
d="M645 0h-660v122h150q-31 24 -50 66.5t-19 86.5q0 60 28.5 108.5t81.5 76.5t121 28q223 0 223 -235v-131h125v-122zM385 122v142q0 58 -21.5 84t-68.5 26q-45 0 -69.5 -30t-24.5 -86q0 -64 34 -100t95 -36h55zM234 675h122v-113h-122v113z" />
    <glyph glyph-name="aQaf1above.fina" unicode="&#x6a7;" horiz-adv-x="734" 
d="M624 122h125v-122h-125q0 -231 -279 -231q-161 0 -238 60t-77 184h135q2 -71 42 -101t134 -30q78 0 113 28t35 90h-18q-146 0 -223.5 66.5t-77.5 191.5q0 106 62 168t169 62q113 0 168 -58t55 -175v-133zM305 258q0 -136 142 -136h42v108q0 61 -8.5 91t-27.5 41.5
t-54 11.5q-46 0 -70 -30t-24 -86zM339 675h122v-113h-122v113z" />
    <glyph glyph-name="aQaf3uabove.init" unicode="&#x6a8;" horiz-adv-x="581" 
d="M520 253q0 -63 0.5 -126.5t0.5 -126.5h-536v122h150q-31 24 -50 66.5t-19 86.5q0 60 28.5 108.5t81.5 76.5t121 28q223 0 223 -235zM385 122v142q0 58 -21.5 84t-68.5 26q-45 0 -69.5 -30t-24.5 -86q0 -64 34 -100t95 -36h55zM241 772h110v-95h-110v95zM164 646h110v-95
h-110v95zM318 646h110v-95h-110v95z" />
    <glyph glyph-name="aQaf3uabove.medi" unicode="&#x6a8;" horiz-adv-x="630" 
d="M645 0h-660v122h150q-31 24 -50 66.5t-19 86.5q0 60 28.5 108.5t81.5 76.5t121 28q223 0 223 -235v-131h125v-122zM385 122v142q0 58 -21.5 84t-68.5 26q-45 0 -69.5 -30t-24.5 -86q0 -64 34 -100t95 -36h55zM240 772h110v-95h-110v95zM163 646h110v-95h-110v95zM317 646
h110v-95h-110v95z" />
    <glyph glyph-name="aQaf3uabove.fina" unicode="&#x6a8;" horiz-adv-x="734" 
d="M624 122h125v-122h-125q0 -231 -279 -231q-161 0 -238 60t-77 184h135q2 -71 42 -101t134 -30q78 0 113 28t35 90h-18q-146 0 -223.5 66.5t-77.5 191.5q0 106 62 168t169 62q113 0 168 -58t55 -175v-133zM305 258q0 -136 142 -136h42v108q0 61 -8.5 91t-27.5 41.5
t-54 11.5q-46 0 -70 -30t-24 -86zM345 772h110v-95h-110v95zM268 646h110v-95h-110v95zM422 646h110v-95h-110v95z" />
    <glyph glyph-name="aKafswash.init" unicode="&#x6aa;" horiz-adv-x="761" 
d="M-15 122h599v80q0 81 -43.5 116t-144.5 35h-355v119l294 242h179l-295 -239h213q135 0 211.5 -71.5t76.5 -197.5v-206h-735v122z" />
    <glyph glyph-name="aKafswash.medi" unicode="&#x6aa;" horiz-adv-x="830" 
d="M845 0h-860v122h599v80q0 81 -43.5 116t-144.5 35h-355v119l294 242h179l-295 -239h213q135 0 211.5 -71.5t76.5 -197.5v-84h125v-122z" />
    <glyph glyph-name="aKafswash.fina" unicode="&#x6aa;" horiz-adv-x="1070" 
d="M321 0q-137 0 -207 53t-70 157q0 34 8.5 64.5t23.5 51.5l121 -32q-21 -31 -21 -73q0 -99 141 -99h507v80q0 81 -43.5 116t-144.5 35h-355v119l294 242h179l-295 -239h213q135 0 211.5 -71.5t76.5 -197.5v-84h125v-122h-764z" />
    <glyph glyph-name="aKafring.init" unicode="&#x6ab;" horiz-adv-x="570" 
d="M227 475q145 0 214 -60.5t69 -188.5v-226h-525v122h390v100q0 58 -16.5 88t-52.5 42t-100 12h-165v108l294 242h179l-71 -57q26 -10 40 -31.5t14 -50.5q0 -39 -24.5 -62.5t-64.5 -23.5q-36 0 -59 18.5t-27 50.5l-103 -83h8zM408 536q17 0 27 10t10 29q0 40 -37 40
q-36 0 -36 -40q0 -18 9.5 -28.5t26.5 -10.5z" />
    <glyph glyph-name="aKafring.medi" unicode="&#x6ab;" horiz-adv-x="620" 
d="M227 475q145 0 214 -60.5t69 -188.5v-104h125v-122h-650v122h390v100q0 58 -16.5 88t-52.5 42t-100 12h-165v108l294 242h179l-71 -57q26 -10 40 -31.5t14 -50.5q0 -39 -24.5 -62.5t-64.5 -23.5q-36 0 -59 18.5t-27 50.5l-103 -83h8zM408 536q17 0 27 10t10 29
q0 40 -37 40q-36 0 -36 -40q0 -18 9.5 -28.5t26.5 -10.5z" />
    <glyph glyph-name="aKafring.fina" unicode="&#x6ab;" horiz-adv-x="999" 
d="M729 714h179l-71 -57q26 -10 40 -31.5t14 -50.5q0 -39 -24.5 -62.5t-64.5 -23.5q-36 0 -59 18.5t-27 50.5l-103 -83h8q268 0 268 -249v-104h125v-122h-697q-139 0 -206 60t-67 183q0 68 28 120t82.5 82t130.5 34l16 -119q-67 -5 -96 -32.5t-29 -84.5q0 -63 32.5 -92
t102.5 -29h443v100q0 58 -16.5 88t-52.5 42t-100 12h-150v108zM802 536q17 0 27 10t10 29q0 40 -37 40q-36 0 -36 -40q0 -18 9.5 -28.5t26.5 -10.5z" />
    <glyph glyph-name="aKaf1above.init" unicode="&#x6ac;" horiz-adv-x="570" 
d="M510 0h-525v122h390v100q0 58 -16.5 88t-52.5 42t-100 12h-165v108l294 242h179l-295 -239h8q145 0 214 -60.5t69 -188.5v-226zM-41 715h122v-113h-122v113z" />
    <glyph glyph-name="aKaf1above.medi" unicode="&#x6ac;" horiz-adv-x="620" 
d="M375 222q0 58 -16.5 88t-52.5 42t-100 12h-165v108l294 242h179l-295 -239h8q145 0 214 -60.5t69 -188.5v-104h125v-122h-650v122h390v100zM-41 715h122v-113h-122v113z" />
    <glyph glyph-name="aKaf1above.fina" unicode="&#x6ac;" horiz-adv-x="883" 
d="M633 122v592h135v-592h130v-122h-581q-139 0 -206 60t-67 183q0 68 28 120t82.5 82t130.5 34l16 -119q-67 -5 -96 -32.5t-29 -84.5q0 -63 32.5 -92t102.5 -29h322zM548 416v-47h-178v47h22v48q0 36 20 55.5t57 19.5q36 0 53.5 -15.5t22.5 -52.5l-45 -6q-2 17 -8 23.5
t-20 6.5q-31 0 -31 -35v-44h107zM403 690h122v-113h-122v113z" />
    <glyph glyph-name="aKaf3dbelow.init" unicode="&#x6ae;" horiz-adv-x="570" 
d="M510 0h-525v122h390v100q0 58 -16.5 88t-52.5 42t-100 12h-165v108l294 242h179l-295 -239h8q145 0 214 -60.5t69 -188.5v-226zM156 -198h110v-95h-110v95zM79 -72h110v-95h-110v95zM233 -72h110v-95h-110v95z" />
    <glyph glyph-name="aKaf3dbelow.medi" unicode="&#x6ae;" horiz-adv-x="620" 
d="M375 222q0 58 -16.5 88t-52.5 42t-100 12h-165v108l294 242h179l-295 -239h8q145 0 214 -60.5t69 -188.5v-104h125v-122h-650v122h390v100zM156 -198h110v-95h-110v95zM79 -72h110v-95h-110v95zM233 -72h110v-95h-110v95z" />
    <glyph glyph-name="aKaf3dbelow.fina" unicode="&#x6ae;" horiz-adv-x="883" 
d="M633 122v592h135v-592h130v-122h-581q-139 0 -206 60t-67 183q0 68 28 120t82.5 82t130.5 34l16 -119q-67 -5 -96 -32.5t-29 -84.5q0 -63 32.5 -92t102.5 -29h322zM548 416v-47h-178v47h22v48q0 36 20 55.5t57 19.5q36 0 53.5 -15.5t22.5 -52.5l-45 -6q-2 17 -8 23.5
t-20 6.5q-31 0 -31 -35v-44h107zM402 -198h110v-95h-110v95zM325 -72h110v-95h-110v95zM479 -72h110v-95h-110v95z" />
    <glyph glyph-name="aGafring.init" unicode="&#x6b0;" horiz-adv-x="570" 
d="M227 475q145 0 214 -60.5t69 -188.5v-226h-525v122h390v100q0 58 -16.5 88t-52.5 42t-100 12h-165v108l294 242h179l-71 -57q26 -10 40 -31.5t14 -50.5q0 -39 -24.5 -62.5t-64.5 -23.5q-36 0 -59 18.5t-27 50.5l-103 -83h8zM408 536q17 0 27 10t10 29q0 40 -37 40
q-36 0 -36 -40q0 -18 9.5 -28.5t26.5 -10.5zM27 584l157 130h87l-244 -202v72z" />
    <glyph glyph-name="aGafring.medi" unicode="&#x6b0;" horiz-adv-x="620" 
d="M227 475q145 0 214 -60.5t69 -188.5v-104h125v-122h-650v122h390v100q0 58 -16.5 88t-52.5 42t-100 12h-165v108l294 242h179l-71 -57q26 -10 40 -31.5t14 -50.5q0 -39 -24.5 -62.5t-64.5 -23.5q-36 0 -59 18.5t-27 50.5l-103 -83h8zM408 536q17 0 27 10t10 29
q0 40 -37 40q-36 0 -36 -40q0 -18 9.5 -28.5t26.5 -10.5zM27 584l157 130h87l-244 -202v72z" />
    <glyph glyph-name="aGafring.fina" unicode="&#x6b0;" horiz-adv-x="999" 
d="M729 714h179l-71 -57q26 -10 40 -31.5t14 -50.5q0 -39 -24.5 -62.5t-64.5 -23.5q-36 0 -59 18.5t-27 50.5l-103 -83h8q268 0 268 -249v-104h125v-122h-697q-139 0 -206 60t-67 183q0 68 28 120t82.5 82t130.5 34l16 -119q-67 -5 -96 -32.5t-29 -84.5q0 -63 32.5 -92
t102.5 -29h443v100q0 58 -16.5 88t-52.5 42t-100 12h-150v108zM802 536q17 0 27 10t10 29q0 40 -37 40q-36 0 -36 -40q0 -18 9.5 -28.5t26.5 -10.5zM420 584l157 130h87l-244 -202v72z" />
    <glyph glyph-name="aGaf2hbelow.init" unicode="&#x6b2;" horiz-adv-x="570" 
d="M66 -81h119v-111h-119v111zM240 -81h118v-111h-118v111zM510 0h-525v122h390v100q0 58 -16.5 88t-52.5 42t-100 12h-165v108l294 242h179l-295 -239h8q145 0 214 -60.5t69 -188.5v-226zM27 584l157 130h87l-244 -202v72z" />
    <glyph glyph-name="aGaf2hbelow.medi" unicode="&#x6b2;" horiz-adv-x="620" 
d="M66 -81h119v-111h-119v111zM240 -81h118v-111h-118v111zM375 222q0 58 -16.5 88t-52.5 42t-100 12h-165v108l294 242h179l-295 -239h8q145 0 214 -60.5t69 -188.5v-104h125v-122h-650v122h390v100zM27 584l157 130h87l-244 -202v72z" />
    <glyph glyph-name="aGaf2hbelow.fina" unicode="&#x6b2;" horiz-adv-x="999" 
d="M377 -72h119v-111h-119v111zM551 -72h118v-111h-118v111zM317 0q-139 0 -206 60t-67 183q0 68 28 120t82.5 82t130.5 34l16 -119q-67 -5 -96 -32.5t-29 -84.5q0 -63 32.5 -92t102.5 -29h443v100q0 58 -16.5 88t-52.5 42t-100 12h-150v108l294 242h179l-295 -239h8
q268 0 268 -249v-104h125v-122h-697zM420 584l157 130h87l-244 -202v72z" />
    <glyph glyph-name="aGaf3uabove.init" unicode="&#x6b4;" horiz-adv-x="570" 
d="M510 0h-525v122h390v100q0 58 -16.5 88t-52.5 42t-100 12h-165v108l294 242h179l-295 -239h8q145 0 214 -60.5t69 -188.5v-226zM27 584l157 130h87l-244 -202v72zM-64 935h110v-95h-110v95zM-141 809h110v-95h-110v95zM13 809h110v-95h-110v95z" />
    <glyph glyph-name="aGaf3uabove.medi" unicode="&#x6b4;" horiz-adv-x="620" 
d="M-64 935h110v-95h-110v95zM-141 809h110v-95h-110v95zM13 809h110v-95h-110v95zM375 222q0 58 -16.5 88t-52.5 42t-100 12h-165v108l294 242h179l-295 -239h8q145 0 214 -60.5t69 -188.5v-104h125v-122h-650v122h390v100zM27 584l157 130h87l-244 -202v72z" />
    <glyph glyph-name="aGaf3uabove.fina" unicode="&#x6b4;" horiz-adv-x="999" 
d="M329 935h110v-95h-110v95zM252 809h110v-95h-110v95zM406 809h110v-95h-110v95zM317 0q-139 0 -206 60t-67 183q0 68 28 120t82.5 82t130.5 34l16 -119q-67 -5 -96 -32.5t-29 -84.5q0 -63 32.5 -92t102.5 -29h443v100q0 58 -16.5 88t-52.5 42t-100 12h-150v108l294 242
h179l-295 -239h8q268 0 268 -249v-104h125v-122h-697zM420 584l157 130h87l-244 -202v72z" />
    <glyph glyph-name="aLamVabove.init" unicode="&#x6b5;" horiz-adv-x="310" 
d="M-15 122h130v592h135v-714h-265v122zM214 767h-63l-90 145h62l60 -98l59 98h62z" />
    <glyph glyph-name="aLamVabove.medi" unicode="&#x6b5;" horiz-adv-x="365" 
d="M-15 122h130v592h135v-592h130v-122h-395v122zM214 767h-63l-90 145h62l60 -98l59 98h62z" />
    <glyph glyph-name="aLamVabove.fina" unicode="&#x6b5;" horiz-adv-x="640" 
d="M525 122h130v-122h-130q-1 -70 -30 -122t-83.5 -80.5t-128.5 -28.5q-125 0 -186 59.5t-61 181.5q0 37 13 82t35 85l121 -31q-37 -68 -37 -136q0 -64 27 -94.5t83 -30.5q112 0 112 136v693h135v-592zM488 768h-63l-90 145h62l60 -98l59 98h62z" />
    <glyph glyph-name="aLam1above.init" unicode="&#x6b6;" horiz-adv-x="310" 
d="M-15 122h130v592h135v-714h-265v122zM121 880h122v-113h-122v113z" />
    <glyph glyph-name="aLam1above.medi" unicode="&#x6b6;" horiz-adv-x="365" 
d="M-15 122h130v592h135v-592h130v-122h-395v122zM121 880h122v-113h-122v113z" />
    <glyph glyph-name="aLam1above.fina" unicode="&#x6b6;" horiz-adv-x="640" 
d="M525 122h130v-122h-130q-1 -70 -30 -122t-83.5 -80.5t-128.5 -28.5q-125 0 -186 59.5t-61 181.5q0 37 13 82t35 85l121 -31q-37 -68 -37 -136q0 -64 27 -94.5t83 -30.5q112 0 112 136v693h135v-592zM397 880h122v-113h-122v113z" />
    <glyph glyph-name="aLam3uabove.init" unicode="&#x6b7;" horiz-adv-x="310" 
d="M-15 122h130v592h135v-714h-265v122zM128 988h110v-95h-110v95zM51 862h110v-95h-110v95zM205 862h110v-95h-110v95z" />
    <glyph glyph-name="aLam3uabove.medi" unicode="&#x6b7;" horiz-adv-x="365" 
d="M-15 122h130v592h135v-592h130v-122h-395v122zM128 988h110v-95h-110v95zM51 862h110v-95h-110v95zM205 862h110v-95h-110v95z" />
    <glyph glyph-name="aLam3uabove.fina" unicode="&#x6b7;" horiz-adv-x="640" 
d="M525 122h130v-122h-130q-1 -70 -30 -122t-83.5 -80.5t-128.5 -28.5q-125 0 -186 59.5t-61 181.5q0 37 13 82t35 85l121 -31q-37 -68 -37 -136q0 -64 27 -94.5t83 -30.5q112 0 112 136v693h135v-592zM400 988h110v-95h-110v95zM323 862h110v-95h-110v95zM477 862h110v-95
h-110v95z" />
    <glyph glyph-name="aLam3dbelow.init" unicode="&#x6b8;" horiz-adv-x="310" 
d="M-15 122h130v592h135v-714h-265v122zM63 -198h110v-95h-110v95zM-14 -72h110v-95h-110v95zM140 -72h110v-95h-110v95z" />
    <glyph glyph-name="aLam3dbelow.medi" unicode="&#x6b8;" horiz-adv-x="365" 
d="M-15 122h130v592h135v-592h130v-122h-395v122zM63 -198h110v-95h-110v95zM-14 -72h110v-95h-110v95zM140 -72h110v-95h-110v95z" />
    <glyph glyph-name="aLam3dbelow.fina" unicode="&#x6b8;" horiz-adv-x="640" 
d="M525 122h130v-122h-130q-1 -70 -30 -122t-83.5 -80.5t-128.5 -28.5q-125 0 -186 59.5t-61 181.5q0 37 13 82t35 85l121 -31q-37 -68 -37 -136q0 -64 27 -94.5t83 -30.5q112 0 112 136v693h135v-592zM235 -419h110v-95h-110v95zM158 -293h110v-95h-110v95zM312 -293h110
v-95h-110v95z" />
    <glyph glyph-name="aNun1below.init" unicode="&#x6b9;" horiz-adv-x="310" 
d="M250 0h-265v122h130v226q0 55 -22 95l123 48q18 -25 26 -55.5t8 -76.5v-359zM113 675h122v-113h-122v113zM127 -80h122v-113h-122v113z" />
    <glyph glyph-name="aNun1below.medi" unicode="&#x6b9;" horiz-adv-x="365" 
d="M-15 122h130v350h135v-350h130v-122h-395v122zM121 675h122v-113h-122v113zM121 -80h122v-113h-122v113z" />
    <glyph glyph-name="aNun1below.fina" unicode="&#x6b9;" horiz-adv-x="640" 
d="M525 0q-3 -109 -65 -170t-171 -61q-253 0 -253 244q0 38 13 84.5t35 85.5l121 -31q-17 -31 -27 -68t-10 -71q0 -63 29.5 -95.5t86.5 -32.5q54 0 80 33.5t26 102.5v451h135v-350h130v-122h-130zM222 675h122v-113h-122v113zM222 -301h122v-113h-122v113z" />
    <glyph glyph-name="aNunring.init" unicode="&#x6bc;" horiz-adv-x="310" 
d="M31 -40q0 22 8 40h-54v122h130v226q0 57 -22 95l123 48q18 -25 26 -55.5t8 -76.5v-359h-52q9 -20 9 -40q0 -39 -24.5 -62.5t-64.5 -23.5q-39 0 -63 23t-24 63zM118 -79q17 0 27 10t10 29q0 40 -37 40q-17 0 -26.5 -10.5t-9.5 -29.5q0 -18 9.5 -28.5t26.5 -10.5zM113 675
h122v-113h-122v113z" />
    <glyph glyph-name="aNunring.medi" unicode="&#x6bc;" horiz-adv-x="365" 
d="M94 -40q0 22 8 40h-117v122h130v350h135v-350h130v-122h-119q9 -20 9 -40q0 -39 -24.5 -62.5t-64.5 -23.5q-39 0 -63 23t-24 63zM181 -79q17 0 27 10t10 29q0 40 -37 40q-17 0 -26.5 -10.5t-9.5 -29.5q0 -18 9.5 -28.5t26.5 -10.5zM121 675h122v-113h-122v113z" />
    <glyph glyph-name="aNunring.fina" unicode="&#x6bc;" horiz-adv-x="640" 
d="M525 0q-2 -88 -43 -146t-116 -77q12 -22 12 -48q0 -39 -24.5 -62.5t-64.5 -23.5q-39 0 -63 23t-24 63q0 27 11 47q-177 34 -177 237q0 38 13.5 85t34.5 85l121 -31q-17 -31 -27 -68t-10 -71q0 -63 29.5 -95.5t86.5 -32.5q54 0 80 33.5t26 102.5v451h135v-350h130v-122
h-130zM289 -310q17 0 27 10t10 29q0 40 -37 40q-17 0 -26.5 -10.5t-9.5 -29.5q0 -18 9.5 -28.5t26.5 -10.5zM223 675h122v-113h-122v113z" />
    <glyph glyph-name="aNun3uabove.init" unicode="&#x6bd;" horiz-adv-x="310" 
d="M250 0h-265v122h130v226q0 55 -22 95l123 48q18 -25 26 -55.5t8 -76.5v-359zM63 -198h110v-95h-110v95zM-14 -72h110v-95h-110v95zM140 -72h110v-95h-110v95z" />
    <glyph glyph-name="aNun3uabove.medi" unicode="&#x6bd;" horiz-adv-x="365" 
d="M-15 122h130v350h135v-350h130v-122h-395v122zM63 -198h110v-95h-110v95zM-14 -72h110v-95h-110v95zM140 -72h110v-95h-110v95z" />
    <glyph glyph-name="aNun3uabove.fina" unicode="&#x6bd;" horiz-adv-x="640" 
d="M525 0q-3 -109 -65 -170t-171 -61q-253 0 -253 244q0 38 13 84.5t35 85.5l121 -31q-17 -31 -27 -68t-10 -71q0 -63 29.5 -95.5t86.5 -32.5q54 0 80 33.5t26 102.5v451h135v-350h130v-122h-130zM228 772h110v-95h-110v95zM151 646h110v-95h-110v95zM305 646h110v-95h-110
v95z" />
    <glyph glyph-name="aTcheh1above.init" unicode="&#x6bf;" horiz-adv-x="588" 
d="M-15 122h352v124q0 68 -20 97t-68 29q-47 0 -68.5 -17t-30.5 -60l-130 14q11 63 39 102.5t73.5 58t112.5 18.5q116 0 171.5 -57t55.5 -176v-133h86v-122h-573v122zM188 675h122v-113h-122v113zM217 -198h110v-95h-110v95zM140 -72h110v-95h-110v95zM294 -72h110v-95h-110
v95z" />
    <glyph glyph-name="aTcheh1above.medi" unicode="&#x6bf;" horiz-adv-x="587" 
d="M342 246q0 68 -20 97t-68 29q-47 0 -68.5 -17t-30.5 -60l-130 14q11 63 39 102.5t73.5 58t112.5 18.5q116 0 171.5 -57t55.5 -176v-133h125v-122h-617v122h357v124zM188 675h122v-113h-122v113zM217 -198h110v-95h-110v95zM140 -72h110v-95h-110v95zM294 -72h110v-95
h-110v95z" />
    <glyph glyph-name="aTcheh1above.fina" unicode="&#x6bf;" horiz-adv-x="631" 
d="M259 0q-48 0 -77 -27.5t-29 -73.5q0 -55 30 -81t92 -26q54 0 82.5 21t41.5 71h136q-13 -100 -80.5 -154t-179.5 -54q-128 0 -191.5 56.5t-63.5 171.5q0 98 68 158t180 60h118v124q0 68 -20 97t-68 29q-47 0 -68.5 -17t-30.5 -60l-130 14q11 63 39 102.5t73.5 58
t112.5 18.5q116 0 171.5 -57t55.5 -176v-133h125v-122h-387zM236 675h122v-113h-122v113zM251 -120h63v-58h-63v58zM207 -44h64v-58h-64v58zM295 -44h63v-58h-63v58z" />
    <glyph glyph-name="aHehGoalHamzaabove.fina" unicode="&#x6c2;" horiz-adv-x="513" 
d="M242 140q-18 43 -45 60t-77 17q-26 0 -73 -14l-27 110q61 19 109 19q66 0 110.5 -16t75.5 -50.5t55 -91.5l22 -52h136v-122h-226zM251 441v-47h-178v47h22v48q0 36 20 55.5t57 19.5q36 0 53.5 -15.5t22.5 -52.5l-45 -6q-2 17 -8 23.5t-20 6.5q-31 0 -31 -35v-44h107z" />
    <glyph glyph-name="aTehMarbutaGoal.fina" unicode="&#x6c3;" horiz-adv-x="492" 
d="M222 140q-18 43 -45 60t-77 17q-26 0 -73 -14l-27 110q61 19 109 19q66 0 110.5 -16t75.5 -50.5t55 -91.5l22 -52h136v-122h-226zM-14 520h119v-111h-119v111zM160 520h118v-111h-118v111z" />
    <glyph glyph-name="aWawring.fina" unicode="&#x6c4;" horiz-adv-x="610" 
d="M57 -80q0 40 24 64t63 24q40 0 64.5 -24.5t24.5 -63.5q0 -14 -5 -31q20 -7 46 -7q49 0 70 25t21 81v23h-18q-149 0 -225 62.5t-76 184.5q0 106 62 168t169 62q113 0 168 -58t55 -175v-133h125v-122h-125q0 -118 -55.5 -174.5t-170.5 -56.5q-60 0 -109.5 19t-78.5 53.5
t-29 78.5zM181 258q0 -136 142 -136h42v108q0 61 -8.5 91t-27.5 41.5t-54 11.5q-46 0 -70 -30t-24 -86zM144 -119q17 0 27 10t10 29q0 40 -37 40q-36 0 -36 -40q0 -18 9.5 -28.5t26.5 -10.5z" />
    <glyph glyph-name="aWaw2habove.fina" unicode="&#x6ca;" horiz-adv-x="610" 
d="M500 122h125v-122h-125q0 -118 -55.5 -174.5t-170.5 -56.5q-103 0 -161 47.5t-69 140.5h135q7 -40 29.5 -57.5t65.5 -17.5q49 0 70 25t21 81v12h-18q-146 0 -223.5 66.5t-77.5 191.5q0 106 62 168t169 62q113 0 168 -58t55 -175v-133zM181 258q0 -136 142 -136h42v108
q0 61 -8.5 91t-27.5 41.5t-54 11.5q-46 0 -70 -30t-24 -86zM126 656h119v-111h-119v111zM300 656h118v-111h-118v111z" />
    <glyph glyph-name="aYehtail.fina" unicode="&#x6cd;" horiz-adv-x="922" 
d="M525 8q0 -113 -62 -176t-174 -63q-253 0 -253 244q0 38 13 84.5t35 85.5l121 -31q-17 -31 -27 -68t-10 -71q0 -63 29.5 -95.5t86.5 -32.5q54 0 80 33.5t26 102.5v270q0 86 50 133.5t140 47.5h224v-350h133v-122h-268v353h-69q-75 0 -75 -75v-270z" />
    <glyph glyph-name="aYehVabove.init" unicode="&#x6ce;" horiz-adv-x="310" 
d="M250 0h-265v122h130v226q0 55 -22 95l123 48q18 -25 26 -55.5t8 -76.5v-359zM206 552h-63l-90 145h62l60 -98l59 98h62zM-42 -81h119v-111h-119v111zM132 -81h118v-111h-118v111z" />
    <glyph glyph-name="aYehVabove.medi" unicode="&#x6ce;" horiz-adv-x="365" 
d="M-15 122h130v350h135v-350h130v-122h-395v122zM178 552h-63l-90 145h62l60 -98l59 98h62zM-49 -81h119v-111h-119v111zM125 -81h118v-111h-118v111z" />
    <glyph glyph-name="aYehVabove.fina" unicode="&#x6ce;" horiz-adv-x="922" 
d="M525 8q0 -113 -62 -176t-174 -63q-253 0 -253 244q0 38 13 84.5t35 85.5l121 -31q-17 -31 -27 -68t-10 -71q0 -63 29.5 -95.5t86.5 -32.5q54 0 80 33.5t26 102.5v270q0 86 50 133.5t140 47.5h224v-350h133v-122h-268v353h-69q-75 0 -75 -75v-270zM200 289h-63l-90 145h62
l60 -98l59 98h62z" />
    <glyph glyph-name="aWaw1above.fina" unicode="&#x6cf;" horiz-adv-x="610" 
d="M500 122h125v-122h-125q0 -118 -55.5 -174.5t-170.5 -56.5q-103 0 -161 47.5t-69 140.5h135q7 -40 29.5 -57.5t65.5 -17.5q49 0 70 25t21 81v12h-18q-146 0 -223.5 66.5t-77.5 191.5q0 106 62 168t169 62q113 0 168 -58t55 -175v-133zM181 258q0 -136 142 -136h42v108
q0 61 -8.5 91t-27.5 41.5t-54 11.5q-46 0 -70 -30t-24 -86zM194 675h122v-113h-122v113z" />
    <glyph glyph-name="aYeh3dbelow.init" unicode="&#x6d1;" horiz-adv-x="310" 
d="M250 0h-265v122h130v226q0 55 -22 95l123 48q18 -25 26 -55.5t8 -76.5v-359zM63 -198h110v-95h-110v95zM-14 -72h110v-95h-110v95zM140 -72h110v-95h-110v95z" />
    <glyph glyph-name="aYeh3dbelow.medi" unicode="&#x6d1;" horiz-adv-x="365" 
d="M-15 122h130v350h135v-350h130v-122h-395v122zM56 -198h110v-95h-110v95zM-21 -72h110v-95h-110v95zM133 -72h110v-95h-110v95z" />
    <glyph glyph-name="aYeh3dbelow.fina" unicode="&#x6d1;" horiz-adv-x="922" 
d="M525 8q0 -113 -62 -176t-174 -63q-253 0 -253 244q0 38 13 84.5t35 85.5l121 -31q-17 -31 -27 -68t-10 -71q0 -63 29.5 -95.5t86.5 -32.5q54 0 80 33.5t26 102.5v270q0 86 50 133.5t140 47.5h224v-350h133v-122h-268v353h-69q-75 0 -75 -75v-270zM222 -422h110v-95h-110
v95zM145 -296h110v-95h-110v95zM299 -296h110v-95h-110v95z" />
    <glyph glyph-name="aAe.fina" unicode="&#x6d5;" horiz-adv-x="608" 
d="M498 122h125v-122h-278q-146 0 -223.5 66.5t-77.5 191.5q0 106 62 168t169 62q113 0 168 -58t55 -175v-133zM179 258q0 -136 142 -136h42v108q0 61 -8.5 91t-27.5 41.5t-54 11.5q-46 0 -70 -30t-24 -86z" />
    <glyph glyph-name="aDalVturned.fina" unicode="&#x6ee;" horiz-adv-x="599" 
d="M354 122v63q0 92 -34.5 136t-106.5 44q-46 0 -102 -18l-32 119q68 22 145 22q128 0 196.5 -75t68.5 -215v-76h125v-122h-584v122h324zM234 697h63l90 -145h-62l-60 98l-59 -98h-62z" />
    <glyph glyph-name="aRehVturned.fina" unicode="&#x6ef;" horiz-adv-x="391" 
d="M20 -109q33 -8 60 -8q61 0 61 65v524h135v-350h130v-122h-130v-51q0 -92 -41.5 -136t-127.5 -44q-50 0 -107 17zM178 697h63l90 -145h-62l-60 98l-59 -98h-62z" />
    <glyph glyph-name="aShin1below.init" unicode="&#x6fa;" horiz-adv-x="862" 
d="M525 122h142v226q0 55 -22 95l123 48q18 -25 26 -55.5t8 -76.5v-359h-817v122h130v350h135v-350h140v350h135v-350zM405 772h110v-95h-110v95zM328 646h110v-95h-110v95zM482 646h110v-95h-110v95zM399 -80h122v-113h-122v113z" />
    <glyph glyph-name="aShin1below.medi" unicode="&#x6fa;" horiz-adv-x="917" 
d="M932 122v-122h-947v122h130v350h135v-350h140v350h135v-350h142v226q0 55 -22 95l123 48q18 -25 26 -55.5t8 -76.5v-237h130zM405 772h110v-95h-110v95zM328 646h110v-95h-110v95zM482 646h110v-95h-110v95zM399 -80h122v-113h-122v113z" />
    <glyph glyph-name="aShin1below.fina" unicode="&#x6fa;" horiz-adv-x="1192" 
d="M525 0q-3 -110 -64.5 -170.5t-171.5 -60.5q-253 0 -253 244q0 38 13 84.5t35 85.5l121 -31q-17 -31 -27 -68t-10 -71q0 -63 29.5 -95.5t86.5 -32.5q54 0 80 33.5t26 102.5v451h135v-350h140v350h135v-350h142v226q0 55 -22 95l123 48q18 -25 26 -55.5t8 -76.5v-237h130
v-122h-682zM679 772h110v-95h-110v95zM602 646h110v-95h-110v95zM756 646h110v-95h-110v95zM671 -80h122v-113h-122v113z" />
    <glyph glyph-name="aDad1below.init" unicode="&#x6fb;" horiz-adv-x="778" 
d="M456 372q-98 0 -153.5 -55.5t-55.5 -153.5v-41h336v72q0 91 -30.5 134.5t-96.5 43.5zM718 0h-733v122h130v350h135v-102q38 58 94 88t127 30q121 0 184 -68t63 -199v-221zM386 675h122v-113h-122v113zM386 -80h122v-113h-122v113z" />
    <glyph glyph-name="aDad1below.medi" unicode="&#x6fb;" horiz-adv-x="828" 
d="M456 372q-98 0 -153.5 -55.5t-55.5 -153.5v-41h336v72q0 91 -30.5 134.5t-96.5 43.5zM250 370q38 58 94 88t127 30q121 0 184 -68t63 -199v-99h125v-122h-858v122h130v350h135v-102zM386 675h122v-113h-122v113zM386 -80h122v-113h-122v113z" />
    <glyph glyph-name="aDad1below.fina" unicode="&#x6fb;" horiz-adv-x="1103" 
d="M731 372q-98 0 -153.5 -55.5t-55.5 -153.5v-41h336v72q0 91 -30.5 134.5t-96.5 43.5zM525 370q38 58 94 88t127 30q121 0 184 -68t63 -199v-99h125v-122h-593q-3 -110 -64.5 -170.5t-171.5 -60.5q-253 0 -253 244q0 38 13 84.5t35 85.5l121 -31q-17 -31 -27 -68t-10 -71
q0 -63 29.5 -95.5t86.5 -32.5q54 0 80 33.5t26 102.5v451h135v-102zM661 675h122v-113h-122v113zM659 -80h122v-113h-122v113z" />
    <glyph glyph-name="aGhayn1below.init" unicode="&#x6fc;" horiz-adv-x="612" 
d="M110 247q0 120 58.5 180.5t174.5 60.5q98 0 150 -42.5t67 -136.5l-130 -14q-8 43 -28 60t-63 17q-49 0 -71.5 -29.5t-22.5 -96.5v-124h337v-122h-597v122h125v125zM278 675h122v-113h-122v113zM278 -80h122v-113h-122v113z" />
    <glyph glyph-name="aGhayn1below.medi" unicode="&#x6fc;" horiz-adv-x="573" 
d="M110 247q0 120 58.5 180.5t174.5 60.5q98 0 150 -42.5t67 -136.5l-130 -14q-8 43 -28 60t-63 17q-49 0 -71.5 -29.5t-22.5 -96.5v-124h343v-122h-603v122h125v125zM278 675h122v-113h-122v113zM278 -80h122v-113h-122v113z" />
    <glyph glyph-name="aGhayn1below.fina" unicode="&#x6fc;" horiz-adv-x="662" 
d="M677 0h-435q-43 0 -66 -26t-23 -74q0 -55 30 -81.5t92 -26.5q54 0 82.5 21t41.5 71h136q-13 -100 -80.5 -154t-179.5 -54q-255 0 -255 229q0 87 48 143.5t131 69.5v129q0 120 58.5 180.5t174.5 60.5q98 0 150 -42.5t67 -136.5l-130 -14q-8 43 -28 60t-63 17
q-49 0 -71.5 -29.5t-22.5 -96.5v-124h343v-122zM368 675h122v-113h-122v113zM225 -59h96v-87h-96v87z" />
    <glyph glyph-name="aHehVturned.init" unicode="&#x6ff;" horiz-adv-x="821" 
d="M-15 122h162q-63 56 -63 148q0 103 56 162t154 59q31 0 68 -8q30 28 75 43.5t98 15.5q112 0 169 -56t57 -165v-321h-776v122zM533 430q-24 0 -38 -3.5t-28 -12.5q38 -47 38 -159v-136h123v197q0 114 -95 114zM374 255q0 65 -18.5 93.5t-60.5 28.5q-37 0 -56.5 -28.5
t-19.5 -83.5q0 -71 40 -108.5t115 -37.5v136zM517 747h63l90 -145h-62l-60 98l-59 -98h-62z" />
    <glyph glyph-name="aHehVturned.medi" unicode="&#x6ff;" horiz-adv-x="608" 
d="M-15 0v122h114v136q0 112 54 171t157 59q102 0 154.5 -52.5t52.5 -153.5q0 -50 -20 -91t-59 -69h185v-122h-150q27 -14 43 -41t16 -58q0 -67 -53.5 -102.5t-154.5 -35.5q-225 0 -225 202v35h-114zM382 259q0 115 -70 115q-41 0 -59.5 -23t-18.5 -75v-158h18
q59 0 94.5 38.5t35.5 102.5zM403 -70q0 35 -34 55t-95 20h-46v-32q0 -50 23 -76t67 -26q85 0 85 59zM272 691h63l90 -145h-62l-60 98l-59 -98h-62z" />
    <glyph glyph-name="aHehVturned.fina" unicode="&#x6ff;" horiz-adv-x="565" 
d="M56 258q0 112 54 171t157 59q102 0 154.5 -52.5t52.5 -153.5q0 -50 -20 -91t-59 -69h185v-122h-150q27 -14 43 -41t16 -58q0 -67 -53.5 -102.5t-154.5 -35.5q-225 0 -225 202v293zM339 259q0 115 -70 115q-41 0 -59.5 -23t-18.5 -75v-158h18q59 0 94.5 38.5t35.5 102.5z
M360 -70q0 35 -34 55t-95 20h-46v-32q0 -50 23 -76t67 -26q85 0 85 59zM233 690h63l90 -145h-62l-60 98l-59 -98h-62z" />
    <glyph glyph-name="aAlifWasla.isol" unicode="&#x671;" horiz-adv-x="255" arabic-form="isolated" 
d="M60 0v714h135v-714h-135zM80 867q24 38 69 38q34 0 53.5 -19.5t19.5 -53.5v-71h-206v44h19v103h45v-41zM138 860q-23 0 -36 -13q-16 -13 -16 -35v-7h88v8q0 25 -8 36t-28 11z" />
    <glyph glyph-name="aAlifWasla.fina" unicode="&#x671;" horiz-adv-x="310" arabic-form="final" 
d="M325 0h-265v714h135v-592h130v-122zM80 867q24 38 69 38q34 0 53.5 -19.5t19.5 -53.5v-71h-206v44h19v103h45v-41zM138 860q-23 0 -36 -13q-16 -13 -16 -35v-7h88v8q0 25 -8 36t-28 11z" />
    <glyph glyph-name="aBih.isol" unicode="&#x67b;" horiz-adv-x="828" arabic-form="isolated" 
d="M317 0q-139 0 -206 60t-67 183q0 68 28 120t82.5 82t130.5 34l16 -119q-67 -5 -96 -32.5t-29 -84.5q0 -63 32.5 -92t102.5 -29h322v350h135v-472h-451zM401 -204h116v-89h-116v89zM401 -72h116v-89h-116v89z" />
    <glyph glyph-name="aBih.fina" unicode="&#x67b;" horiz-adv-x="883" arabic-form="final" 
d="M633 122v350h135v-350h130v-122h-581q-139 0 -206 60t-67 183q0 68 28 120t82.5 82t130.5 34l16 -119q-67 -5 -96 -32.5t-29 -84.5q0 -63 32.5 -92t102.5 -29h322zM398 -204h116v-89h-116v89zM398 -72h116v-89h-116v89z" />
    <glyph glyph-name="aBih.init" unicode="&#x67b;" horiz-adv-x="310" arabic-form="initial" 
d="M250 0h-265v122h130v226q0 55 -22 95l123 48q18 -25 26 -55.5t8 -76.5v-359zM133 -204h116v-89h-116v89zM133 -72h116v-89h-116v89z" />
    <glyph glyph-name="aBih.medi" unicode="&#x67b;" horiz-adv-x="365" arabic-form="medial" 
d="M-15 122h130v350h135v-350h130v-122h-395v122zM127 -204h116v-89h-116v89zM127 -72h116v-89h-116v89z" />
    <glyph glyph-name="aPeh.isol" unicode="&#x67e;" horiz-adv-x="828" arabic-form="isolated" 
d="M317 0q-139 0 -206 60t-67 183q0 68 28 120t82.5 82t130.5 34l16 -119q-67 -5 -96 -32.5t-29 -84.5q0 -63 32.5 -92t102.5 -29h322v350h135v-472h-451zM403 -198h110v-95h-110v95zM326 -72h110v-95h-110v95zM480 -72h110v-95h-110v95z" />
    <glyph glyph-name="aPeh.fina" unicode="&#x67e;" horiz-adv-x="883" arabic-form="final" 
d="M633 122v350h135v-350h130v-122h-581q-139 0 -206 60t-67 183q0 68 28 120t82.5 82t130.5 34l16 -119q-67 -5 -96 -32.5t-29 -84.5q0 -63 32.5 -92t102.5 -29h322zM403 -198h110v-95h-110v95zM326 -72h110v-95h-110v95zM480 -72h110v-95h-110v95z" />
    <glyph glyph-name="aPeh.init" unicode="&#x67e;" horiz-adv-x="310" arabic-form="initial" 
d="M250 0h-265v122h130v226q0 55 -22 95l123 48q18 -25 26 -55.5t8 -76.5v-359zM63 -198h110v-95h-110v95zM-14 -72h110v-95h-110v95zM140 -72h110v-95h-110v95z" />
    <glyph glyph-name="aPeh.medi" unicode="&#x67e;" horiz-adv-x="365" arabic-form="medial" 
d="M-15 122h130v350h135v-350h130v-122h-395v122zM63 -198h110v-95h-110v95zM-14 -72h110v-95h-110v95zM140 -72h110v-95h-110v95z" />
    <glyph glyph-name="aBeheh.isol" unicode="&#x680;" horiz-adv-x="828" arabic-form="isolated" 
d="M317 0q-139 0 -206 60t-67 183q0 68 28 120t82.5 82t130.5 34l16 -119q-67 -5 -96 -32.5t-29 -84.5q0 -63 32.5 -92t102.5 -29h322v350h135v-472h-451zM332 -72h104v-91h-104v91zM478 -72h104v-91h-104v91zM332 -202h104v-91h-104v91zM478 -202h104v-91h-104v91z" />
    <glyph glyph-name="aBeheh.fina" unicode="&#x680;" horiz-adv-x="883" arabic-form="final" 
d="M633 122v350h135v-350h130v-122h-581q-139 0 -206 60t-67 183q0 68 28 120t82.5 82t130.5 34l16 -119q-67 -5 -96 -32.5t-29 -84.5q0 -63 32.5 -92t102.5 -29h322zM332 -72h104v-91h-104v91zM478 -72h104v-91h-104v91zM332 -202h104v-91h-104v91zM478 -202h104v-91h-104
v91z" />
    <glyph glyph-name="aBeheh.init" unicode="&#x680;" horiz-adv-x="310" arabic-form="initial" 
d="M250 0h-265v122h130v226q0 55 -22 95l123 48q18 -25 26 -55.5t8 -76.5v-359zM0 -72h104v-91h-104v91zM146 -72h104v-91h-104v91zM0 -202h104v-91h-104v91zM146 -202h104v-91h-104v91z" />
    <glyph glyph-name="aBeheh.medi" unicode="&#x680;" horiz-adv-x="365" arabic-form="medial" 
d="M-15 122h130v350h135v-350h130v-122h-395v122zM0 -72h104v-91h-104v91zM146 -72h104v-91h-104v91zM0 -202h104v-91h-104v91zM146 -202h104v-91h-104v91z" />
    <glyph glyph-name="aTteheh.isol" unicode="&#x67a;" horiz-adv-x="828" arabic-form="isolated" 
d="M317 0q-139 0 -206 60t-67 183q0 68 28 120t82.5 82t130.5 34l16 -119q-67 -5 -96 -32.5t-29 -84.5q0 -63 32.5 -92t102.5 -29h322v350h135v-472h-451zM387 652h116v-89h-116v89zM387 784h116v-89h-116v89z" />
    <glyph glyph-name="aTteheh.fina" unicode="&#x67a;" horiz-adv-x="883" arabic-form="final" 
d="M633 122v350h135v-350h130v-122h-581q-139 0 -206 60t-67 183q0 68 28 120t82.5 82t130.5 34l16 -119q-67 -5 -96 -32.5t-29 -84.5q0 -63 32.5 -92t102.5 -29h322zM386 640h116v-89h-116v89zM386 772h116v-89h-116v89z" />
    <glyph glyph-name="aTteheh.init" unicode="&#x67a;" horiz-adv-x="310" arabic-form="initial" 
d="M250 0h-265v122h130v226q0 55 -22 95l123 48q18 -25 26 -55.5t8 -76.5v-359zM119 640h116v-89h-116v89zM119 772h116v-89h-116v89z" />
    <glyph glyph-name="aTteheh.medi" unicode="&#x67a;" horiz-adv-x="365" arabic-form="medial" 
d="M-15 122h130v350h135v-350h130v-122h-395v122zM125 640h116v-89h-116v89zM125 772h116v-89h-116v89z" />
    <glyph glyph-name="aTeheh.isol" unicode="&#x67f;" horiz-adv-x="828" arabic-form="isolated" 
d="M317 0q-139 0 -206 60t-67 183q0 68 28 120t82.5 82t130.5 34l16 -119q-67 -5 -96 -32.5t-29 -84.5q0 -63 32.5 -92t102.5 -29h322v350h135v-472h-451zM319 784h104v-91h-104v91zM465 784h104v-91h-104v91zM319 654h104v-91h-104v91zM465 654h104v-91h-104v91z" />
    <glyph glyph-name="aTeheh.fina" unicode="&#x67f;" horiz-adv-x="883" arabic-form="final" 
d="M633 122v350h135v-350h130v-122h-581q-139 0 -206 60t-67 183q0 68 28 120t82.5 82t130.5 34l16 -119q-67 -5 -96 -32.5t-29 -84.5q0 -63 32.5 -92t102.5 -29h322zM319 772h104v-91h-104v91zM465 772h104v-91h-104v91zM319 642h104v-91h-104v91zM465 642h104v-91h-104v91
z" />
    <glyph glyph-name="aTeheh.init" unicode="&#x67f;" horiz-adv-x="310" arabic-form="initial" 
d="M250 0h-265v122h130v226q0 55 -22 95l123 48q18 -25 26 -55.5t8 -76.5v-359zM-15 772h104v-91h-104v91zM131 772h104v-91h-104v91zM-15 642h104v-91h-104v91zM131 642h104v-91h-104v91z" />
    <glyph glyph-name="aTeheh.medi" unicode="&#x67f;" horiz-adv-x="365" arabic-form="medial" 
d="M-15 122h130v350h135v-350h130v-122h-395v122zM0 772h104v-91h-104v91zM146 772h104v-91h-104v91zM0 642h104v-91h-104v91zM146 642h104v-91h-104v91z" />
    <glyph glyph-name="aTteh.isol" unicode="&#x679;" horiz-adv-x="828" arabic-form="isolated" 
d="M317 0q-139 0 -206 60t-67 183q0 68 28 120t82.5 82t130.5 34l16 -119q-67 -5 -96 -32.5t-29 -84.5q0 -63 32.5 -92t102.5 -29h322v350h135v-472h-451zM416 643q24 38 69 38q34 0 53.5 -19.5t19.5 -53.5v-71h-206v44h19v154h45v-92zM474 636q-23 0 -36 -13
q-16 -13 -16 -35v-7h88v8q0 25 -8 36t-28 11z" />
    <glyph glyph-name="aTteh.fina" unicode="&#x679;" horiz-adv-x="883" arabic-form="final" 
d="M633 122v350h135v-350h130v-122h-581q-139 0 -206 60t-67 183q0 68 28 120t82.5 82t130.5 34l16 -119q-67 -5 -96 -32.5t-29 -84.5q0 -63 32.5 -92t102.5 -29h322zM416 658q24 38 69 38q34 0 53.5 -19.5t19.5 -53.5v-71h-206v44h19v154h45v-92zM474 651q-23 0 -36 -13
q-16 -13 -16 -35v-7h88v8q0 25 -8 36t-28 11z" />
    <glyph glyph-name="aTteh.init" unicode="&#x679;" horiz-adv-x="310" arabic-form="initial" 
d="M250 0h-265v122h130v226q0 55 -22 95l123 48q18 -25 26 -55.5t8 -76.5v-359zM107 658q24 38 69 38q34 0 53.5 -19.5t19.5 -53.5v-71h-206v44h19v154h45v-92zM165 651q-23 0 -36 -13q-16 -13 -16 -35v-7h88v8q0 25 -8 36t-28 11z" />
    <glyph glyph-name="aTteh.medi" unicode="&#x679;" horiz-adv-x="365" arabic-form="medial" 
d="M-15 122h130v350h135v-350h130v-122h-395v122zM107 658q24 38 69 38q34 0 53.5 -19.5t19.5 -53.5v-71h-206v44h19v154h45v-92zM165 651q-23 0 -36 -13q-16 -13 -16 -35v-7h88v8q0 25 -8 36t-28 11z" />
    <glyph glyph-name="aVeh.isol" unicode="&#x6a4;" horiz-adv-x="951" arabic-form="isolated" 
d="M756 122v142q0 58 -21.5 84t-68.5 26q-45 0 -69.5 -30t-24.5 -86q0 -64 34 -100t95 -36h55zM506 122q-31 24 -50 66.5t-19 86.5q0 60 28.5 108.5t81.5 76.5t121 28q223 0 223 -235v-253h-574q-139 0 -206 60t-67 183q0 68 28 120t82.5 82t130.5 34l16 -119
q-67 -5 -96 -32.5t-29 -84.5q0 -63 32.5 -92t102.5 -29h195zM621 747h110v-95h-110v95zM544 621h110v-95h-110v95zM698 621h110v-95h-110v95z" />
    <glyph glyph-name="aVeh.fina" unicode="&#x6a4;" horiz-adv-x="1001" arabic-form="final" 
d="M756 122v142q0 58 -21.5 84t-68.5 26q-45 0 -69.5 -30t-24.5 -86q0 -64 34 -100t95 -36h55zM506 122q-31 24 -50 66.5t-19 86.5q0 60 28.5 108.5t81.5 76.5t121 28q223 0 223 -235v-131h125v-122h-699q-139 0 -206 60t-67 183q0 68 28 120t82.5 82t130.5 34l16 -119
q-67 -5 -96 -32.5t-29 -84.5q0 -63 32.5 -92t102.5 -29h195zM621 772h110v-95h-110v95zM544 646h110v-95h-110v95zM698 646h110v-95h-110v95z" />
    <glyph glyph-name="aVeh.init" unicode="&#x6a4;" horiz-adv-x="581" arabic-form="initial" 
d="M520 253q0 -63 0.5 -126.5t0.5 -126.5h-536v122h150q-31 24 -50 66.5t-19 86.5q0 60 28.5 108.5t81.5 76.5t121 28q223 0 223 -235zM385 122v142q0 58 -21.5 84t-68.5 26q-45 0 -69.5 -30t-24.5 -86q0 -64 34 -100t95 -36h55zM240 772h110v-95h-110v95zM163 646h110v-95
h-110v95zM317 646h110v-95h-110v95z" />
    <glyph glyph-name="aVeh.medi" unicode="&#x6a4;" horiz-adv-x="630" arabic-form="medial" 
d="M645 0h-660v122h150q-31 24 -50 66.5t-19 86.5q0 60 28.5 108.5t81.5 76.5t121 28q223 0 223 -235v-131h125v-122zM385 122v142q0 58 -21.5 84t-68.5 26q-45 0 -69.5 -30t-24.5 -86q0 -64 34 -100t95 -36h55zM240 772h110v-95h-110v95zM163 646h110v-95h-110v95zM317 646
h110v-95h-110v95z" />
    <glyph glyph-name="aPeheh.isol" unicode="&#x6a6;" horiz-adv-x="951" arabic-form="isolated" 
d="M756 122v142q0 58 -21.5 84t-68.5 26q-45 0 -69.5 -30t-24.5 -86q0 -64 34 -100t95 -36h55zM506 122q-31 24 -50 66.5t-19 86.5q0 60 28.5 108.5t81.5 76.5t121 28q223 0 223 -235v-253h-574q-139 0 -206 60t-67 183q0 68 28 120t82.5 82t130.5 34l16 -119
q-67 -5 -96 -32.5t-29 -84.5q0 -63 32.5 -92t102.5 -29h195zM551 747h104v-91h-104v91zM697 747h104v-91h-104v91zM551 617h104v-91h-104v91zM697 617h104v-91h-104v91z" />
    <glyph glyph-name="aPeheh.fina" unicode="&#x6a6;" horiz-adv-x="1001" arabic-form="final" 
d="M756 122v142q0 58 -21.5 84t-68.5 26q-45 0 -69.5 -30t-24.5 -86q0 -64 34 -100t95 -36h55zM506 122q-31 24 -50 66.5t-19 86.5q0 60 28.5 108.5t81.5 76.5t121 28q223 0 223 -235v-131h125v-122h-699q-139 0 -206 60t-67 183q0 68 28 120t82.5 82t130.5 34l16 -119
q-67 -5 -96 -32.5t-29 -84.5q0 -63 32.5 -92t102.5 -29h195zM551 772h104v-91h-104v91zM697 772h104v-91h-104v91zM551 642h104v-91h-104v91zM697 642h104v-91h-104v91z" />
    <glyph glyph-name="aPeheh.init" unicode="&#x6a6;" horiz-adv-x="581" arabic-form="initial" 
d="M520 253q0 -63 0.5 -126.5t0.5 -126.5h-536v122h150q-31 24 -50 66.5t-19 86.5q0 60 28.5 108.5t81.5 76.5t121 28q223 0 223 -235zM385 122v142q0 58 -21.5 84t-68.5 26q-45 0 -69.5 -30t-24.5 -86q0 -64 34 -100t95 -36h55zM170 772h104v-91h-104v91zM316 772h104v-91
h-104v91zM170 642h104v-91h-104v91zM316 642h104v-91h-104v91z" />
    <glyph glyph-name="aPeheh.medi" unicode="&#x6a6;" horiz-adv-x="630" arabic-form="medial" 
d="M645 0h-660v122h150q-31 24 -50 66.5t-19 86.5q0 60 28.5 108.5t81.5 76.5t121 28q223 0 223 -235v-131h125v-122zM385 122v142q0 58 -21.5 84t-68.5 26q-45 0 -69.5 -30t-24.5 -86q0 -64 34 -100t95 -36h55zM170 772h104v-91h-104v91zM316 772h104v-91h-104v91zM170 642
h104v-91h-104v91zM316 642h104v-91h-104v91z" />
    <glyph glyph-name="aDyeh.isol" unicode="&#x684;" horiz-adv-x="637" arabic-form="isolated" 
d="M259 0q-48 0 -77 -27.5t-29 -73.5q0 -55 30 -81t92 -26q54 0 82.5 21t41.5 71h136q-13 -100 -80.5 -154t-179.5 -54q-128 0 -191.5 56.5t-63.5 171.5q0 98 68 158t180 60h118v124q0 68 -20 97t-68 29q-47 0 -68.5 -17t-30.5 -60l-130 14q11 63 39 102.5t73.5 58
t112.5 18.5q116 0 171.5 -57t55.5 -176v-133h86v-122h-348zM314 -170h-62v56h62v-56zM314 -96h-62v56h62v-56z" />
    <glyph glyph-name="aDyeh.fina" unicode="&#x684;" horiz-adv-x="631" arabic-form="final" 
d="M259 0q-48 0 -77 -27.5t-29 -73.5q0 -55 30 -81t92 -26q54 0 82.5 21t41.5 71h136q-13 -100 -80.5 -154t-179.5 -54q-128 0 -191.5 56.5t-63.5 171.5q0 98 68 158t180 60h118v124q0 68 -20 97t-68 29q-47 0 -68.5 -17t-30.5 -60l-130 14q11 63 39 102.5t73.5 58
t112.5 18.5q116 0 171.5 -57t55.5 -176v-133h125v-122h-387zM314 -170h-62v56h62v-56zM314 -96h-62v56h62v-56z" />
    <glyph glyph-name="aDyeh.init" unicode="&#x684;" horiz-adv-x="588" arabic-form="initial" 
d="M-15 122h352v124q0 68 -20 97t-68 29q-47 0 -68.5 -17t-30.5 -60l-130 14q11 63 39 102.5t73.5 58t112.5 18.5q116 0 171.5 -57t55.5 -176v-133h86v-122h-573v122zM206 -204h116v-89h-116v89zM206 -72h116v-89h-116v89z" />
    <glyph glyph-name="aDyeh.medi" unicode="&#x684;" horiz-adv-x="587" arabic-form="medial" 
d="M342 246q0 68 -20 97t-68 29q-47 0 -68.5 -17t-30.5 -60l-130 14q11 63 39 102.5t73.5 58t112.5 18.5q116 0 171.5 -57t55.5 -176v-133h125v-122h-617v122h357v124zM206 -204h116v-89h-116v89zM206 -72h116v-89h-116v89z" />
    <glyph glyph-name="aNyeh.isol" unicode="&#x683;" horiz-adv-x="637" arabic-form="isolated" 
d="M259 0q-48 0 -77 -27.5t-29 -73.5q0 -55 30 -81t92 -26q54 0 82.5 21t41.5 71h136q-13 -100 -80.5 -154t-179.5 -54q-128 0 -191.5 56.5t-63.5 171.5q0 98 68 158t180 60h118v124q0 68 -20 97t-68 29q-47 0 -68.5 -17t-30.5 -60l-130 14q11 63 39 102.5t73.5 58
t112.5 18.5q116 0 171.5 -57t55.5 -176v-133h86v-122h-348zM359 -130h-64v58h64v-58zM271 -130h-63v58h63v-58z" />
    <glyph glyph-name="aNyeh.fina" unicode="&#x683;" horiz-adv-x="631" arabic-form="final" 
d="M259 0q-48 0 -77 -27.5t-29 -73.5q0 -55 30 -81t92 -26q54 0 82.5 21t41.5 71h136q-13 -100 -80.5 -154t-179.5 -54q-128 0 -191.5 56.5t-63.5 171.5q0 98 68 158t180 60h118v124q0 68 -20 97t-68 29q-47 0 -68.5 -17t-30.5 -60l-130 14q11 63 39 102.5t73.5 58
t112.5 18.5q116 0 171.5 -57t55.5 -176v-133h125v-122h-387zM359 -130h-64v58h64v-58zM271 -130h-63v58h63v-58z" />
    <glyph glyph-name="aNyeh.init" unicode="&#x683;" horiz-adv-x="588" arabic-form="initial" 
d="M-15 122h352v124q0 68 -20 97t-68 29q-47 0 -68.5 -17t-30.5 -60l-130 14q11 63 39 102.5t73.5 58t112.5 18.5q116 0 171.5 -57t55.5 -176v-133h86v-122h-573v122zM104 -81h119v-111h-119v111zM278 -81h118v-111h-118v111z" />
    <glyph glyph-name="aNyeh.medi" unicode="&#x683;" horiz-adv-x="587" arabic-form="medial" 
d="M342 246q0 68 -20 97t-68 29q-47 0 -68.5 -17t-30.5 -60l-130 14q11 63 39 102.5t73.5 58t112.5 18.5q116 0 171.5 -57t55.5 -176v-133h125v-122h-617v122h357v124zM104 -81h119v-111h-119v111zM278 -81h118v-111h-118v111z" />
    <glyph glyph-name="aTcheh.isol" unicode="&#x686;" horiz-adv-x="637" arabic-form="isolated" 
d="M259 0q-48 0 -77 -27.5t-29 -73.5q0 -55 30 -81t92 -26q54 0 82.5 21t41.5 71h136q-13 -100 -80.5 -154t-179.5 -54q-128 0 -191.5 56.5t-63.5 171.5q0 98 68 158t180 60h118v124q0 68 -20 97t-68 29q-47 0 -68.5 -17t-30.5 -60l-130 14q11 63 39 102.5t73.5 58
t112.5 18.5q116 0 171.5 -57t55.5 -176v-133h86v-122h-348zM251 -120h63v-58h-63v58zM207 -44h64v-58h-64v58zM295 -44h63v-58h-63v58z" />
    <glyph glyph-name="aTcheh.fina" unicode="&#x686;" horiz-adv-x="631" arabic-form="final" 
d="M259 0q-48 0 -77 -27.5t-29 -73.5q0 -55 30 -81t92 -26q54 0 82.5 21t41.5 71h136q-13 -100 -80.5 -154t-179.5 -54q-128 0 -191.5 56.5t-63.5 171.5q0 98 68 158t180 60h118v124q0 68 -20 97t-68 29q-47 0 -68.5 -17t-30.5 -60l-130 14q11 63 39 102.5t73.5 58
t112.5 18.5q116 0 171.5 -57t55.5 -176v-133h125v-122h-387zM251 -120h63v-58h-63v58zM207 -44h64v-58h-64v58zM295 -44h63v-58h-63v58z" />
    <glyph glyph-name="aTcheh.init" unicode="&#x686;" horiz-adv-x="588" arabic-form="initial" 
d="M-15 122h352v124q0 68 -20 97t-68 29q-47 0 -68.5 -17t-30.5 -60l-130 14q11 63 39 102.5t73.5 58t112.5 18.5q116 0 171.5 -57t55.5 -176v-133h86v-122h-573v122zM194 -198h110v-95h-110v95zM117 -72h110v-95h-110v95zM271 -72h110v-95h-110v95z" />
    <glyph glyph-name="aTcheh.medi" unicode="&#x686;" horiz-adv-x="587" arabic-form="medial" 
d="M342 246q0 68 -20 97t-68 29q-47 0 -68.5 -17t-30.5 -60l-130 14q11 63 39 102.5t73.5 58t112.5 18.5q116 0 171.5 -57t55.5 -176v-133h125v-122h-617v122h357v124zM199 -198h110v-95h-110v95zM122 -72h110v-95h-110v95zM276 -72h110v-95h-110v95z" />
    <glyph glyph-name="aTcheheh.isol" unicode="&#x687;" horiz-adv-x="637" arabic-form="isolated" 
d="M259 0q-48 0 -77 -27.5t-29 -73.5q0 -55 30 -81t92 -26q54 0 82.5 21t41.5 71h136q-13 -100 -80.5 -154t-179.5 -54q-128 0 -191.5 56.5t-63.5 171.5q0 98 68 158t180 60h118v124q0 68 -20 97t-68 29q-47 0 -68.5 -17t-30.5 -60l-130 14q11 63 39 102.5t73.5 58
t112.5 18.5q116 0 171.5 -57t55.5 -176v-133h86v-122h-348zM357 -165h-63v56h63v-56zM271 -165h-62v56h62v-56zM271 -91h-62v56h62v-56zM356 -91h-62v56h62v-56z" />
    <glyph glyph-name="aTcheheh.fina" unicode="&#x687;" horiz-adv-x="631" arabic-form="final" 
d="M259 0q-48 0 -77 -27.5t-29 -73.5q0 -55 30 -81t92 -26q54 0 82.5 21t41.5 71h136q-13 -100 -80.5 -154t-179.5 -54q-128 0 -191.5 56.5t-63.5 171.5q0 98 68 158t180 60h118v124q0 68 -20 97t-68 29q-47 0 -68.5 -17t-30.5 -60l-130 14q11 63 39 102.5t73.5 58
t112.5 18.5q116 0 171.5 -57t55.5 -176v-133h125v-122h-387zM357 -165h-63v56h63v-56zM271 -165h-62v56h62v-56zM271 -91h-62v56h62v-56zM356 -91h-62v56h62v-56z" />
    <glyph glyph-name="aTcheheh.init" unicode="&#x687;" horiz-adv-x="588" arabic-form="initial" 
d="M-15 122h352v124q0 68 -20 97t-68 29q-47 0 -68.5 -17t-30.5 -60l-130 14q11 63 39 102.5t73.5 58t112.5 18.5q116 0 171.5 -57t55.5 -176v-133h86v-122h-573v122zM124 -72h104v-91h-104v91zM270 -72h104v-91h-104v91zM124 -202h104v-91h-104v91zM270 -202h104v-91h-104
v91z" />
    <glyph glyph-name="aTcheheh.medi" unicode="&#x687;" horiz-adv-x="587" arabic-form="medial" 
d="M342 246q0 68 -20 97t-68 29q-47 0 -68.5 -17t-30.5 -60l-130 14q11 63 39 102.5t73.5 58t112.5 18.5q116 0 171.5 -57t55.5 -176v-133h125v-122h-617v122h357v124zM124 -72h104v-91h-104v91zM270 -72h104v-91h-104v91zM124 -202h104v-91h-104v91zM270 -202h104v-91h-104
v91z" />
    <glyph glyph-name="aDdahal.isol" unicode="&#x68d;" horiz-adv-x="544" arabic-form="isolated" 
d="M354 122v63q0 92 -34.5 136t-106.5 44q-46 0 -102 -18l-32 119q68 22 145 22q128 0 196.5 -75t68.5 -215v-198h-459v122h324zM116 -81h119v-111h-119v111zM290 -81h118v-111h-118v111z" />
    <glyph glyph-name="aDdahal.fina" unicode="&#x68d;" horiz-adv-x="599" arabic-form="final" 
d="M354 122v63q0 92 -34.5 136t-106.5 44q-46 0 -102 -18l-32 119q68 22 145 22q128 0 196.5 -75t68.5 -215v-76h125v-122h-584v122h324zM116 -81h119v-111h-119v111zM290 -81h118v-111h-118v111z" />
    <glyph glyph-name="aDahal.isol" unicode="&#x68c;" horiz-adv-x="544" arabic-form="isolated" 
d="M354 122v63q0 92 -34.5 136t-106.5 44q-46 0 -102 -18l-32 119q68 22 145 22q128 0 196.5 -75t68.5 -215v-198h-459v122h324zM117 673h119v-111h-119v111zM291 673h118v-111h-118v111z" />
    <glyph glyph-name="aDahal.fina" unicode="&#x68c;" horiz-adv-x="599" arabic-form="final" 
d="M354 122v63q0 92 -34.5 136t-106.5 44q-46 0 -102 -18l-32 119q68 22 145 22q128 0 196.5 -75t68.5 -215v-76h125v-122h-584v122h324zM117 673h119v-111h-119v111zM291 673h118v-111h-118v111z" />
    <glyph glyph-name="aDul.isol" unicode="&#x68e;" horiz-adv-x="544" arabic-form="isolated" 
d="M354 122v63q0 92 -34.5 136t-106.5 44q-46 0 -102 -18l-32 119q68 22 145 22q128 0 196.5 -75t68.5 -215v-198h-459v122h324zM210 772h110v-95h-110v95zM133 646h110v-95h-110v95zM287 646h110v-95h-110v95z" />
    <glyph glyph-name="aDul.fina" unicode="&#x68e;" horiz-adv-x="599" arabic-form="final" 
d="M354 122v63q0 92 -34.5 136t-106.5 44q-46 0 -102 -18l-32 119q68 22 145 22q128 0 196.5 -75t68.5 -215v-76h125v-122h-584v122h324zM210 772h110v-95h-110v95zM133 646h110v-95h-110v95zM287 646h110v-95h-110v95z" />
    <glyph glyph-name="aDdal.isol" unicode="&#x688;" horiz-adv-x="544" arabic-form="isolated" 
d="M354 122v63q0 92 -34.5 136t-106.5 44q-46 0 -102 -18l-32 119q68 22 145 22q128 0 196.5 -75t68.5 -215v-198h-459v122h324zM198 658q24 38 69 38q34 0 53.5 -19.5t19.5 -53.5v-71h-206v44h19v154h45v-92zM256 651q-23 0 -36 -13q-16 -13 -16 -35v-7h88v8q0 25 -8 36
t-28 11z" />
    <glyph glyph-name="aDdal.fina" unicode="&#x688;" horiz-adv-x="599" arabic-form="final" 
d="M354 122v63q0 92 -34.5 136t-106.5 44q-46 0 -102 -18l-32 119q68 22 145 22q128 0 196.5 -75t68.5 -215v-76h125v-122h-584v122h324zM198 658q24 38 69 38q34 0 53.5 -19.5t19.5 -53.5v-71h-206v44h19v154h45v-92zM256 651q-23 0 -36 -13q-16 -13 -16 -35v-7h88v8
q0 25 -8 36t-28 11z" />
    <glyph glyph-name="aJeh.isol" unicode="&#x698;" horiz-adv-x="336" arabic-form="isolated" 
d="M20 -109q33 -8 60 -8q61 0 61 65v524h135v-523q0 -92 -41.5 -136t-127.5 -44q-50 0 -107 17zM89 772h110v-95h-110v95zM12 646h110v-95h-110v95zM166 646h110v-95h-110v95z" />
    <glyph glyph-name="aJeh.fina" unicode="&#x698;" horiz-adv-x="391" arabic-form="final" 
d="M20 -109q33 -8 60 -8q61 0 61 65v524h135v-350h130v-122h-130v-51q0 -92 -41.5 -136t-127.5 -44q-50 0 -107 17zM89 772h110v-95h-110v95zM12 646h110v-95h-110v95zM166 646h110v-95h-110v95z" />
    <glyph glyph-name="aRreh.isol" unicode="&#x691;" horiz-adv-x="336" arabic-form="isolated" 
d="M20 -109q33 -8 60 -8q61 0 61 65v524h135v-523q0 -92 -41.5 -136t-127.5 -44q-50 0 -107 17zM134 658q24 38 69 38q34 0 53.5 -19.5t19.5 -53.5v-71h-206v44h19v154h45v-92zM192 651q-23 0 -36 -13q-16 -13 -16 -35v-7h88v8q0 25 -8 36t-28 11z" />
    <glyph glyph-name="aRreh.fina" unicode="&#x691;" horiz-adv-x="391" arabic-form="final" 
d="M20 -109q33 -8 60 -8q61 0 61 65v524h135v-350h130v-122h-130v-51q0 -92 -41.5 -136t-127.5 -44q-50 0 -107 17zM134 658q24 38 69 38q34 0 53.5 -19.5t19.5 -53.5v-71h-206v44h19v154h45v-92zM192 651q-23 0 -36 -13q-16 -13 -16 -35v-7h88v8q0 25 -8 36t-28 11z" />
    <glyph glyph-name="aKeheh.isol" unicode="&#x6a9;" horiz-adv-x="949" arabic-form="isolated" 
d="M317 0q-139 0 -206 60t-67 183q0 68 28 120t82.5 82t130.5 34l16 -119q-67 -5 -96 -32.5t-29 -84.5q0 -63 32.5 -92t102.5 -29h443v100q0 58 -16.5 88t-52.5 42t-100 12h-150v108l294 242h179l-295 -239h8q268 0 268 -249v-226h-572z" />
    <glyph glyph-name="aKeheh.fina" unicode="&#x6a9;" horiz-adv-x="999" arabic-form="final" 
d="M317 0q-139 0 -206 60t-67 183q0 68 28 120t82.5 82t130.5 34l16 -119q-67 -5 -96 -32.5t-29 -84.5q0 -63 32.5 -92t102.5 -29h443v100q0 58 -16.5 88t-52.5 42t-100 12h-150v108l294 242h179l-295 -239h8q268 0 268 -249v-104h125v-122h-697z" />
    <glyph glyph-name="aKeheh.init" unicode="&#x6a9;" horiz-adv-x="570" arabic-form="initial" 
d="M510 0h-525v122h390v100q0 58 -16.5 88t-52.5 42t-100 12h-165v108l294 242h179l-295 -239h8q145 0 214 -60.5t69 -188.5v-226z" />
    <glyph glyph-name="aKeheh.medi" unicode="&#x6a9;" horiz-adv-x="620" arabic-form="medial" 
d="M375 222q0 58 -16.5 88t-52.5 42t-100 12h-165v108l294 242h179l-295 -239h8q145 0 214 -60.5t69 -188.5v-104h125v-122h-650v122h390v100z" />
    <glyph glyph-name="aGaf.isol" unicode="&#x6af;" horiz-adv-x="949" arabic-form="isolated" 
d="M317 0q-139 0 -206 60t-67 183q0 68 28 120t82.5 82t130.5 34l16 -119q-67 -5 -96 -32.5t-29 -84.5q0 -63 32.5 -92t102.5 -29h443v100q0 58 -16.5 88t-52.5 42t-100 12h-150v108l294 242h179l-295 -239h8q268 0 268 -249v-226h-572zM420 584l157 130h87l-244 -202v72z
" />
    <glyph glyph-name="aGaf.fina" unicode="&#x6af;" horiz-adv-x="999" arabic-form="final" 
d="M317 0q-139 0 -206 60t-67 183q0 68 28 120t82.5 82t130.5 34l16 -119q-67 -5 -96 -32.5t-29 -84.5q0 -63 32.5 -92t102.5 -29h443v100q0 58 -16.5 88t-52.5 42t-100 12h-150v108l294 242h179l-295 -239h8q268 0 268 -249v-104h125v-122h-697zM420 584l157 130h87
l-244 -202v72z" />
    <glyph glyph-name="aGaf.init" unicode="&#x6af;" horiz-adv-x="570" arabic-form="initial" 
d="M510 0h-525v122h390v100q0 58 -16.5 88t-52.5 42t-100 12h-165v108l294 242h179l-295 -239h8q145 0 214 -60.5t69 -188.5v-226zM27 584l157 130h87l-244 -202v72z" />
    <glyph glyph-name="aGaf.medi" unicode="&#x6af;" horiz-adv-x="620" arabic-form="medial" 
d="M375 222q0 58 -16.5 88t-52.5 42t-100 12h-165v108l294 242h179l-295 -239h8q145 0 214 -60.5t69 -188.5v-104h125v-122h-650v122h390v100zM27 584l157 130h87l-244 -202v72z" />
    <glyph glyph-name="aGueh.isol" unicode="&#x6b3;" horiz-adv-x="949" arabic-form="isolated" 
d="M422 -204h116v-89h-116v89zM422 -72h116v-89h-116v89zM317 0q-139 0 -206 60t-67 183q0 68 28 120t82.5 82t130.5 34l16 -119q-67 -5 -96 -32.5t-29 -84.5q0 -63 32.5 -92t102.5 -29h443v100q0 58 -16.5 88t-52.5 42t-100 12h-150v108l294 242h179l-295 -239h8
q268 0 268 -249v-226h-572zM420 584l157 130h87l-244 -202v72z" />
    <glyph glyph-name="aGueh.fina" unicode="&#x6b3;" horiz-adv-x="999" arabic-form="final" 
d="M424 -204h116v-89h-116v89zM424 -72h116v-89h-116v89zM317 0q-139 0 -206 60t-67 183q0 68 28 120t82.5 82t130.5 34l16 -119q-67 -5 -96 -32.5t-29 -84.5q0 -63 32.5 -92t102.5 -29h443v100q0 58 -16.5 88t-52.5 42t-100 12h-150v108l294 242h179l-295 -239h8
q268 0 268 -249v-104h125v-122h-697zM420 584l157 130h87l-244 -202v72z" />
    <glyph glyph-name="aGueh.init" unicode="&#x6b3;" horiz-adv-x="570" arabic-form="initial" 
d="M153 -204h116v-89h-116v89zM153 -72h116v-89h-116v89zM510 0h-525v122h390v100q0 58 -16.5 88t-52.5 42t-100 12h-165v108l294 242h179l-295 -239h8q145 0 214 -60.5t69 -188.5v-226zM27 584l157 130h87l-244 -202v72z" />
    <glyph glyph-name="aGueh.medi" unicode="&#x6b3;" horiz-adv-x="620" arabic-form="medial" 
d="M153 -204h116v-89h-116v89zM153 -72h116v-89h-116v89zM375 222q0 58 -16.5 88t-52.5 42t-100 12h-165v108l294 242h179l-295 -239h8q145 0 214 -60.5t69 -188.5v-104h125v-122h-650v122h390v100zM27 584l157 130h87l-244 -202v72z" />
    <glyph glyph-name="aNgoeh.isol" unicode="&#x6b1;" horiz-adv-x="949" arabic-form="isolated" 
d="M224 825h119v-111h-119v111zM398 825h118v-111h-118v111zM317 0q-139 0 -206 60t-67 183q0 68 28 120t82.5 82t130.5 34l16 -119q-67 -5 -96 -32.5t-29 -84.5q0 -63 32.5 -92t102.5 -29h443v100q0 58 -16.5 88t-52.5 42t-100 12h-150v108l294 242h179l-295 -239h8
q268 0 268 -249v-226h-572zM420 584l157 130h87l-244 -202v72z" />
    <glyph glyph-name="aNgoeh.fina" unicode="&#x6b1;" horiz-adv-x="999" arabic-form="final" 
d="M225 825h119v-111h-119v111zM399 825h118v-111h-118v111zM317 0q-139 0 -206 60t-67 183q0 68 28 120t82.5 82t130.5 34l16 -119q-67 -5 -96 -32.5t-29 -84.5q0 -63 32.5 -92t102.5 -29h443v100q0 58 -16.5 88t-52.5 42t-100 12h-150v108l294 242h179l-295 -239h8
q268 0 268 -249v-104h125v-122h-697zM420 584l157 130h87l-244 -202v72z" />
    <glyph glyph-name="aNgoeh.init" unicode="&#x6b1;" horiz-adv-x="570" arabic-form="initial" 
d="M-168 825h119v-111h-119v111zM6 825h118v-111h-118v111zM510 0h-525v122h390v100q0 58 -16.5 88t-52.5 42t-100 12h-165v108l294 242h179l-295 -239h8q145 0 214 -60.5t69 -188.5v-226zM27 584l157 130h87l-244 -202v72z" />
    <glyph glyph-name="aNgoeh.medi" unicode="&#x6b1;" horiz-adv-x="620" arabic-form="medial" 
d="M-168 825h119v-111h-119v111zM6 825h118v-111h-118v111zM375 222q0 58 -16.5 88t-52.5 42t-100 12h-165v108l294 242h179l-295 -239h8q145 0 214 -60.5t69 -188.5v-104h125v-122h-650v122h390v100zM27 584l157 130h87l-244 -202v72z" />
    <glyph glyph-name="aNunGhunna.isol" unicode="&#x6ba;" horiz-adv-x="580" arabic-form="isolated" 
d="M525 8q0 -113 -62 -176t-174 -63q-253 0 -253 244q0 38 13 84.5t35 85.5l121 -31q-17 -31 -27 -68t-10 -71q0 -63 29.5 -95.5t86.5 -32.5q54 0 80 33.5t26 102.5v451h135v-464z" />
    <glyph glyph-name="aNunGhunna.fina" unicode="&#x6ba;" horiz-adv-x="640" arabic-form="final" 
d="M525 0q-3 -109 -65 -170t-171 -61q-253 0 -253 244q0 38 13 84.5t35 85.5l121 -31q-17 -31 -27 -68t-10 -71q0 -63 29.5 -95.5t86.5 -32.5q54 0 80 33.5t26 102.5v451h135v-350h130v-122h-130z" />
    <glyph glyph-name="aRnun.isol" unicode="&#x6bb;" horiz-adv-x="580" arabic-form="isolated" 
d="M525 8q0 -113 -62 -176t-174 -63q-253 0 -253 244q0 38 13 84.5t35 85.5l121 -31q-17 -31 -27 -68t-10 -71q0 -63 29.5 -95.5t86.5 -32.5q54 0 80 33.5t26 102.5v451h135v-464zM242 658q24 38 69 38q34 0 53.5 -19.5t19.5 -53.5v-71h-206v44h19v154h45v-92zM300 651
q-23 0 -36 -13q-16 -13 -16 -35v-7h88v8q0 25 -8 36t-28 11z" />
    <glyph glyph-name="aRnun.fina" unicode="&#x6bb;" horiz-adv-x="640" arabic-form="final" 
d="M525 0q-3 -109 -65 -170t-171 -61q-253 0 -253 244q0 38 13 84.5t35 85.5l121 -31q-17 -31 -27 -68t-10 -71q0 -63 29.5 -95.5t86.5 -32.5q54 0 80 33.5t26 102.5v451h135v-350h130v-122h-130zM242 658q24 38 69 38q34 0 53.5 -19.5t19.5 -53.5v-71h-206v44h19v154h45
v-92zM300 651q-23 0 -36 -13q-16 -13 -16 -35v-7h88v8q0 25 -8 36t-28 11z" />
    <glyph glyph-name="aRnun.init" unicode="&#x6bb;" horiz-adv-x="310" arabic-form="initial" 
d="M250 0h-265v122h130v226q0 55 -22 95l123 48q18 -25 26 -55.5t8 -76.5v-359zM108 658q24 38 69 38q34 0 53.5 -19.5t19.5 -53.5v-71h-206v44h19v154h45v-92zM166 651q-23 0 -36 -13q-16 -13 -16 -35v-7h88v8q0 25 -8 36t-28 11z" />
    <glyph glyph-name="aRnun.medi" unicode="&#x6bb;" horiz-adv-x="365" arabic-form="medial" 
d="M-15 122h130v350h135v-350h130v-122h-395v122zM109 658q24 38 69 38q34 0 53.5 -19.5t19.5 -53.5v-71h-206v44h19v154h45v-92zM167 651q-23 0 -36 -13q-16 -13 -16 -35v-7h88v8q0 25 -8 36t-28 11z" />
    <glyph glyph-name="aHehYeh.isol" unicode="&#x6c0;" horiz-adv-x="558" arabic-form="isolated" 
d="M174 234q0 -138 105 -138t105 138t-105 138t-105 -138zM44 232q0 121 62.5 188.5t174.5 67.5q110 0 171.5 -66.5t61.5 -185.5q0 -124 -61 -190t-176 -66q-110 0 -171.5 66.5t-61.5 185.5zM368 596v-47h-178v47h22v48q0 36 20 55.5t57 19.5q36 0 53.5 -15.5t22.5 -52.5
l-45 -6q-2 17 -8 23.5t-20 6.5q-31 0 -31 -35v-44h107z" />
    <glyph glyph-name="aHehYeh.fina" unicode="&#x6c0;" horiz-adv-x="608" arabic-form="final" 
d="M498 122h125v-122h-278q-146 0 -223.5 66.5t-77.5 191.5q0 106 62 168t169 62q113 0 168 -58t55 -175v-133zM179 258q0 -136 142 -136h42v108q0 61 -8.5 91t-27.5 41.5t-54 11.5q-46 0 -70 -30t-24 -86zM361 596v-47h-178v47h22v48q0 36 20 55.5t57 19.5q36 0 53.5 -15.5
t22.5 -52.5l-45 -6q-2 17 -8 23.5t-20 6.5q-31 0 -31 -35v-44h107z" />
    <glyph glyph-name="aHehGoal.isol" unicode="&#x6c1;" horiz-adv-x="558" arabic-form="isolated" 
d="M174 234q0 -138 105 -138t105 138t-105 138t-105 -138zM44 232q0 121 62.5 188.5t174.5 67.5q110 0 171.5 -66.5t61.5 -185.5q0 -124 -61 -190t-176 -66q-110 0 -171.5 66.5t-61.5 185.5z" />
    <glyph glyph-name="aHehGoal.fina" unicode="&#x6c1;" horiz-adv-x="513" arabic-form="final" 
d="M242 140q-18 43 -45 60t-77 17q-26 0 -73 -14l-27 110q61 19 109 19q66 0 110.5 -16t75.5 -50.5t55 -91.5l22 -52h136v-122h-226z" />
    <glyph glyph-name="aHehGoal.init" unicode="&#x6c1;" horiz-adv-x="310" arabic-form="initial" 
d="M250 0h-265v122h130v226q0 55 -22 95l123 48q18 -25 26 -55.5t8 -76.5v-359zM197 -291h-119l52 209h95z" />
    <glyph glyph-name="aHehGoal.medi" unicode="&#x6c1;" horiz-adv-x="365" arabic-form="medial" 
d="M-15 122h395v-122h-130v-250h-135v250h-130v122zM4 -325h-119l52 209h95z" />
    <glyph glyph-name="aHehDoachashmi.isol" unicode="&#x6be;" horiz-adv-x="781" arabic-form="isolated" 
d="M254 491q31 0 68 -8q30 28 75 43.5t98 15.5q112 0 169 -56t57 -165v-321h-361q-156 0 -236 68t-80 199q0 104 56 164t154 60zM493 430q-24 0 -38 -3.5t-28 -12.5q38 -47 38 -159v-136h123v197q0 114 -95 114zM334 255q0 65 -18.5 93.5t-60.5 28.5q-37 0 -56.5 -28.5
t-19.5 -83.5q0 -71 40 -108.5t115 -37.5v136z" />
    <glyph glyph-name="aHehDoachashmi.fina" unicode="&#x6be;" horiz-adv-x="565" arabic-form="final" 
d="M56 258q0 112 54 171t157 59q102 0 154.5 -52.5t52.5 -153.5q0 -50 -20 -91t-59 -69h185v-122h-150q27 -14 43 -41t16 -58q0 -67 -53.5 -102.5t-154.5 -35.5q-225 0 -225 202v293zM339 259q0 115 -70 115q-41 0 -59.5 -23t-18.5 -75v-158h18q59 0 94.5 38.5t35.5 102.5z
M360 -70q0 35 -34 55t-95 20h-46v-32q0 -50 23 -76t67 -26q85 0 85 59z" />
    <glyph glyph-name="aHehDoachashmi.init" unicode="&#x6be;" horiz-adv-x="821" arabic-form="initial" 
d="M-15 122h162q-63 56 -63 148q0 103 56 162t154 59q31 0 68 -8q30 28 75 43.5t98 15.5q112 0 169 -56t57 -165v-321h-776v122zM533 430q-24 0 -38 -3.5t-28 -12.5q38 -47 38 -159v-136h123v197q0 114 -95 114zM374 255q0 65 -18.5 93.5t-60.5 28.5q-37 0 -56.5 -28.5
t-19.5 -83.5q0 -71 40 -108.5t115 -37.5v136z" />
    <glyph glyph-name="aHehDoachashmi.medi" unicode="&#x6be;" horiz-adv-x="608" arabic-form="medial" 
d="M-15 0v122h114v136q0 112 54 171t157 59q102 0 154.5 -52.5t52.5 -153.5q0 -50 -20 -91t-59 -69h185v-122h-150q27 -14 43 -41t16 -58q0 -67 -53.5 -102.5t-154.5 -35.5q-225 0 -225 202v35h-114zM382 259q0 115 -70 115q-41 0 -59.5 -23t-18.5 -75v-158h18
q59 0 94.5 38.5t35.5 102.5zM403 -70q0 35 -34 55t-95 20h-46v-32q0 -50 23 -76t67 -26q85 0 85 59z" />
    <glyph glyph-name="aYehBarri.isol" unicode="&#x6d2;" horiz-adv-x="766" arabic-form="isolated" 
d="M30 0v108l348 287h179l-335 -273h514v-122h-706z" />
    <glyph glyph-name="aYehBarri.fina" unicode="&#x6d2;" horiz-adv-x="711" arabic-form="final" 
d="M275 -330q-127 0 -191 59t-64 175q0 98 68 158t180 60h458v-122h-467q-48 0 -77 -27.5t-29 -73.5q0 -55 30 -81t92 -26h288v-122h-288z" />
    <glyph glyph-name="aYehBarriHamzaabove.isol" unicode="&#x6d3;" horiz-adv-x="766" arabic-form="isolated" 
d="M30 0v108l348 287h179l-335 -273h514v-122h-706zM208 441v-47h-178v47h22v48q0 36 20 55.5t57 19.5q36 0 53.5 -15.5t22.5 -52.5l-45 -6q-2 17 -8 23.5t-20 6.5q-31 0 -31 -35v-44h107z" />
    <glyph glyph-name="aYehBarriHamzaabove.fina" unicode="&#x6d3;" horiz-adv-x="711" arabic-form="final" 
d="M275 -330q-127 0 -191 59t-64 175q0 98 68 158t180 60h458v-122h-467q-48 0 -77 -27.5t-29 -73.5q0 -55 30 -81t92 -26h288v-122h-288zM220 248v-47h-178v47h22v48q0 36 20 55.5t57 19.5q36 0 53.5 -15.5t22.5 -52.5l-45 -6q-2 17 -8 23.5t-20 6.5q-31 0 -31 -35v-44h107
z" />
    <glyph glyph-name="aNg.isol" unicode="&#x6ad;" horiz-adv-x="828" arabic-form="isolated" 
d="M633 122v592h135v-714h-451q-139 0 -206 60t-67 183q0 68 28 120t82.5 82t130.5 34l16 -119q-67 -5 -96 -32.5t-29 -84.5q0 -63 32.5 -92t102.5 -29h322zM548 416v-47h-178v47h22v48q0 36 20 55.5t57 19.5q36 0 53.5 -15.5t22.5 -52.5l-45 -6q-2 17 -8 23.5t-20 6.5
q-31 0 -31 -35v-44h107zM410 798h110v-95h-110v95zM333 672h110v-95h-110v95zM487 672h110v-95h-110v95z" />
    <glyph glyph-name="aNg.fina" unicode="&#x6ad;" horiz-adv-x="883" arabic-form="final" 
d="M633 122v592h135v-592h130v-122h-581q-139 0 -206 60t-67 183q0 68 28 120t82.5 82t130.5 34l16 -119q-67 -5 -96 -32.5t-29 -84.5q0 -63 32.5 -92t102.5 -29h322zM548 416v-47h-178v47h22v48q0 36 20 55.5t57 19.5q36 0 53.5 -15.5t22.5 -52.5l-45 -6q-2 17 -8 23.5
t-20 6.5q-31 0 -31 -35v-44h107zM410 797h110v-95h-110v95zM333 671h110v-95h-110v95zM487 671h110v-95h-110v95z" />
    <glyph glyph-name="aNg.init" unicode="&#x6ad;" horiz-adv-x="570" arabic-form="initial" 
d="M510 0h-525v122h390v100q0 58 -16.5 88t-52.5 42t-100 12h-165v108l294 242h179l-295 -239h8q145 0 214 -60.5t69 -188.5v-226zM-33 824h110v-95h-110v95zM-110 698h110v-95h-110v95zM44 698h110v-95h-110v95z" />
    <glyph glyph-name="aNg.medi" unicode="&#x6ad;" horiz-adv-x="620" arabic-form="medial" 
d="M375 222q0 58 -16.5 88t-52.5 42t-100 12h-165v108l294 242h179l-295 -239h8q145 0 214 -60.5t69 -188.5v-104h125v-122h-650v122h390v100zM-33 824h110v-95h-110v95zM-110 698h110v-95h-110v95zM44 698h110v-95h-110v95z" />
    <glyph glyph-name="aU.isol" unicode="&#x6c7;" horiz-adv-x="560" arabic-form="isolated" 
d="M500 -12q0 -108 -57.5 -163.5t-168.5 -55.5q-103 0 -161 47.5t-69 140.5h135q7 -40 29.5 -57.5t65.5 -17.5q49 0 70 25t21 81v12h-18q-146 0 -223.5 66.5t-77.5 191.5q0 106 62 168t169 62q113 0 168 -58t55 -175v-267zM181 258q0 -136 142 -136h42v144q0 58 -21 83
t-69 25q-46 0 -70 -30t-24 -86zM269 544q-34 0 -62 13l11 38q29 -12 50 -12q19 0 27 7t8 22v8q-13 -13 -35 -13q-28 0 -43 14.5t-15 41.5q0 29 18 45.5t50 16.5q35 0 54 -19t19 -52v-33q0 -77 -82 -77zM278 690q-24 0 -24 -26t24 -26t24 26t-24 26z" />
    <glyph glyph-name="aU.fina" unicode="&#x6c7;" horiz-adv-x="610" arabic-form="final" 
d="M500 122h125v-122h-125q0 -118 -55.5 -174.5t-170.5 -56.5q-103 0 -161 47.5t-69 140.5h135q7 -40 29.5 -57.5t65.5 -17.5q49 0 70 25t21 81v12h-18q-146 0 -223.5 66.5t-77.5 191.5q0 106 62 168t169 62q113 0 168 -58t55 -175v-133zM181 258q0 -136 142 -136h42v108
q0 61 -8.5 91t-27.5 41.5t-54 11.5q-46 0 -70 -30t-24 -86zM269 544q-34 0 -62 13l11 38q29 -12 50 -12q19 0 27 7t8 22v8q-13 -13 -35 -13q-28 0 -43 14.5t-15 41.5q0 29 18 45.5t50 16.5q35 0 54 -19t19 -52v-33q0 -77 -82 -77zM278 690q-24 0 -24 -26t24 -26t24 26
t-24 26z" />
    <glyph glyph-name="aOe.isol" unicode="&#x6c6;" horiz-adv-x="560" arabic-form="isolated" 
d="M500 -12q0 -108 -57.5 -163.5t-168.5 -55.5q-103 0 -161 47.5t-69 140.5h135q7 -40 29.5 -57.5t65.5 -17.5q49 0 70 25t21 81v12h-18q-146 0 -223.5 66.5t-77.5 191.5q0 106 62 168t169 62q113 0 168 -58t55 -175v-267zM181 258q0 -136 142 -136h42v144q0 58 -21 83
t-69 25q-46 0 -70 -30t-24 -86zM305 546h-63l-90 145h62l60 -98l59 98h62z" />
    <glyph glyph-name="aOe.fina" unicode="&#x6c6;" horiz-adv-x="610" arabic-form="final" 
d="M500 122h125v-122h-125q0 -118 -55.5 -174.5t-170.5 -56.5q-103 0 -161 47.5t-69 140.5h135q7 -40 29.5 -57.5t65.5 -17.5q49 0 70 25t21 81v12h-18q-146 0 -223.5 66.5t-77.5 191.5q0 106 62 168t169 62q113 0 168 -58t55 -175v-133zM181 258q0 -136 142 -136h42v108
q0 61 -8.5 91t-27.5 41.5t-54 11.5q-46 0 -70 -30t-24 -86zM305 546h-63l-90 145h62l60 -98l59 98h62z" />
    <glyph glyph-name="aYu.isol" unicode="&#x6c8;" horiz-adv-x="560" arabic-form="isolated" 
d="M500 -12q0 -108 -57.5 -163.5t-168.5 -55.5q-103 0 -161 47.5t-69 140.5h135q7 -40 29.5 -57.5t65.5 -17.5q49 0 70 25t21 81v12h-18q-146 0 -223.5 66.5t-77.5 191.5q0 106 62 168t169 62q113 0 168 -58t55 -175v-267zM181 258q0 -136 142 -136h42v144q0 58 -21 83
t-69 25q-46 0 -70 -30t-24 -86zM304 720v-173h-60v173h60z" />
    <glyph glyph-name="aYu.fina" unicode="&#x6c8;" horiz-adv-x="610" arabic-form="final" 
d="M500 122h125v-122h-125q0 -118 -55.5 -174.5t-170.5 -56.5q-103 0 -161 47.5t-69 140.5h135q7 -40 29.5 -57.5t65.5 -17.5q49 0 70 25t21 81v12h-18q-146 0 -223.5 66.5t-77.5 191.5q0 106 62 168t169 62q113 0 168 -58t55 -175v-133zM181 258q0 -136 142 -136h42v108
q0 61 -8.5 91t-27.5 41.5t-54 11.5q-46 0 -70 -30t-24 -86zM304 720v-173h-60v173h60z" />
    <glyph glyph-name="aUHamzaabove.isol" unicode="&#x677;" horiz-adv-x="560" arabic-form="isolated" 
d="M500 -12q0 -108 -57.5 -163.5t-168.5 -55.5q-103 0 -161 47.5t-69 140.5h135q7 -40 29.5 -57.5t65.5 -17.5q49 0 70 25t21 81v12h-18q-146 0 -223.5 66.5t-77.5 191.5q0 106 62 168t169 62q113 0 168 -58t55 -175v-267zM181 258q0 -136 142 -136h42v144q0 58 -21 83
t-69 25q-46 0 -70 -30t-24 -86zM229 544q-34 0 -62 13l11 38q29 -12 50 -12q19 0 27 7t8 22v8q-13 -13 -35 -13q-28 0 -43 14.5t-15 41.5q0 29 18 45.5t50 16.5q35 0 54 -19t19 -52v-33q0 -77 -82 -77zM238 690q-24 0 -24 -26t24 -26t24 26t-24 26zM560 595v-47h-178v47h22
v48q0 36 20 55.5t57 19.5q36 0 53.5 -15.5t22.5 -52.5l-45 -6q-2 17 -8 23.5t-20 6.5q-31 0 -31 -35v-44h107z" />
    <glyph glyph-name="aVe.isol" unicode="&#x6cb;" horiz-adv-x="560" arabic-form="isolated" 
d="M500 -12q0 -108 -57.5 -163.5t-168.5 -55.5q-103 0 -161 47.5t-69 140.5h135q7 -40 29.5 -57.5t65.5 -17.5q49 0 70 25t21 81v12h-18q-146 0 -223.5 66.5t-77.5 191.5q0 106 62 168t169 62q113 0 168 -58t55 -175v-267zM181 258q0 -136 142 -136h42v144q0 58 -21 83
t-69 25q-46 0 -70 -30t-24 -86zM221 766h110v-95h-110v95zM144 640h110v-95h-110v95zM298 640h110v-95h-110v95z" />
    <glyph glyph-name="aVe.fina" unicode="&#x6cb;" horiz-adv-x="610" arabic-form="final" 
d="M500 122h125v-122h-125q0 -118 -55.5 -174.5t-170.5 -56.5q-103 0 -161 47.5t-69 140.5h135q7 -40 29.5 -57.5t65.5 -17.5q49 0 70 25t21 81v12h-18q-146 0 -223.5 66.5t-77.5 191.5q0 106 62 168t169 62q113 0 168 -58t55 -175v-133zM181 258q0 -136 142 -136h42v108
q0 61 -8.5 91t-27.5 41.5t-54 11.5q-46 0 -70 -30t-24 -86zM221 766h110v-95h-110v95zM144 640h110v-95h-110v95zM298 640h110v-95h-110v95z" />
    <glyph glyph-name="aOeKhirghiz.isol" unicode="&#x6c5;" horiz-adv-x="560" arabic-form="isolated" 
d="M227 -18h138v9.5v9.5v19h-18q-155 0 -228 57.5t-73 180.5q0 106 62 168t169 62q113 0 168 -58t55 -175v-267q0 -108 -57.5 -163.5t-168.5 -55.5q-103 0 -161 47.5t-69 140.5h117q7 -49 33 -71t77 -22q36 0 57 11t29 36h-130v71zM181 258q0 -136 142 -136h42v108
q0 61 -8.5 91t-27.5 41.5t-54 11.5q-46 0 -70 -30t-24 -86z" />
    <glyph glyph-name="aOeKhirghiz.fina" unicode="&#x6c5;" horiz-adv-x="610" arabic-form="final" 
d="M227 -18h138v9.5v9.5v19h-18q-155 0 -228 57.5t-73 180.5q0 106 62 168t169 62q113 0 168 -58t55 -175v-133h125v-122h-125q0 -118 -55.5 -174.5t-170.5 -56.5q-103 0 -161 47.5t-69 140.5h117q7 -49 33 -71t77 -22q36 0 57 11t29 36h-130v71zM181 258q0 -136 142 -136
h42v108q0 61 -8.5 91t-27.5 41.5t-54 11.5q-46 0 -70 -30t-24 -86z" />
    <glyph glyph-name="aYuKhirghiz.isol" unicode="&#x6c9;" horiz-adv-x="560" arabic-form="isolated" 
d="M500 -12q0 -108 -57.5 -163.5t-168.5 -55.5q-103 0 -161 47.5t-69 140.5h135q7 -40 29.5 -57.5t65.5 -17.5q49 0 70 25t21 81v12h-18q-146 0 -223.5 66.5t-77.5 191.5q0 106 62 168t169 62q113 0 168 -58t55 -175v-267zM181 258q0 -136 142 -136h42v144q0 58 -21 83
t-69 25q-46 0 -70 -30t-24 -86zM243 691h63l90 -145h-62l-60 98l-59 -98h-62z" />
    <glyph glyph-name="aYuKhirghiz.fina" unicode="&#x6c9;" horiz-adv-x="610" arabic-form="final" 
d="M500 122h125v-122h-125q0 -118 -55.5 -174.5t-170.5 -56.5q-103 0 -161 47.5t-69 140.5h135q7 -40 29.5 -57.5t65.5 -17.5q49 0 70 25t21 81v12h-18q-146 0 -223.5 66.5t-77.5 191.5q0 106 62 168t169 62q113 0 168 -58t55 -175v-133zM181 258q0 -136 142 -136h42v108
q0 61 -8.5 91t-27.5 41.5t-54 11.5q-46 0 -70 -30t-24 -86zM243 690h63l90 -145h-62l-60 98l-59 -98h-62z" />
    <glyph glyph-name="aE.isol" unicode="&#x6d0;" horiz-adv-x="690" arabic-form="isolated" 
d="M600 353q-75 0 -75 -75v-270q0 -113 -62 -176t-174 -63q-253 0 -253 244q0 38 13 84.5t35 85.5l121 -31q-17 -31 -27 -68t-10 -71q0 -63 29.5 -95.5t86.5 -32.5q54 0 80 33.5t26 102.5v270q0 86 50 133.5t140 47.5h84v-119h-64zM216 -428h116v-89h-116v89zM216 -296h116
v-89h-116v89z" />
    <glyph glyph-name="aE.fina" unicode="&#x6d0;" horiz-adv-x="922" arabic-form="final" 
d="M525 8q0 -113 -62 -176t-174 -63q-253 0 -253 244q0 38 13 84.5t35 85.5l121 -31q-17 -31 -27 -68t-10 -71q0 -63 29.5 -95.5t86.5 -32.5q54 0 80 33.5t26 102.5v270q0 86 50 133.5t140 47.5h224v-350h133v-122h-268v353h-69q-75 0 -75 -75v-270zM220 -428h116v-89h-116
v89zM220 -296h116v-89h-116v89z" />
    <glyph glyph-name="aE.init" unicode="&#x6d0;" horiz-adv-x="310" arabic-form="initial" 
d="M250 0h-265v122h130v226q0 55 -22 95l123 48q18 -25 26 -55.5t8 -76.5v-359zM134 -203h116v-89h-116v89zM134 -71h116v-89h-116v89z" />
    <glyph glyph-name="aE.medi" unicode="&#x6d0;" horiz-adv-x="365" arabic-form="medial" 
d="M-15 122h130v350h135v-350h130v-122h-395v122zM127 -204h116v-89h-116v89zM127 -72h116v-89h-116v89z" />
    <glyph glyph-name="aAlifMaksura.init" unicode="&#x649;" horiz-adv-x="310" arabic-form="initial" 
d="M250 0h-265v122h130v226q0 55 -22 95l123 48q18 -25 26 -55.5t8 -76.5v-359z" />
    <glyph glyph-name="aAlifMaksura.medi" unicode="&#x649;" horiz-adv-x="365" arabic-form="medial" 
d="M-15 122h130v350h135v-350h130v-122h-395v122z" />
    <glyph glyph-name="aYehFarsi.isol" unicode="&#x6cc;" horiz-adv-x="690" arabic-form="isolated" 
d="M600 353q-75 0 -75 -75v-270q0 -113 -62 -176t-174 -63q-253 0 -253 244q0 38 13 84.5t35 85.5l121 -31q-17 -31 -27 -68t-10 -71q0 -63 29.5 -95.5t86.5 -32.5q54 0 80 33.5t26 102.5v270q0 86 50 133.5t140 47.5h84v-119h-64z" />
    <glyph glyph-name="aYehFarsi.fina" unicode="&#x6cc;" horiz-adv-x="922" arabic-form="final" 
d="M525 8q0 -113 -62 -176t-174 -63q-253 0 -253 244q0 38 13 84.5t35 85.5l121 -31q-17 -31 -27 -68t-10 -71q0 -63 29.5 -95.5t86.5 -32.5q54 0 80 33.5t26 102.5v270q0 86 50 133.5t140 47.5h224v-350h133v-122h-268v353h-69q-75 0 -75 -75v-270z" />
    <glyph glyph-name="aYehFarsi.init" unicode="&#x6cc;" horiz-adv-x="310" arabic-form="initial" 
d="M250 0h-265v122h130v226q0 55 -22 95l123 48q18 -25 26 -55.5t8 -76.5v-359zM-42 -81h119v-111h-119v111zM132 -81h118v-111h-118v111z" />
    <glyph glyph-name="aYehFarsi.medi" unicode="&#x6cc;" horiz-adv-x="365" arabic-form="medial" 
d="M-15 122h130v350h135v-350h130v-122h-395v122zM-42 -81h119v-111h-119v111zM132 -81h118v-111h-118v111z" />
    <glyph glyph-name="aAllahlong" unicode="&#xfdfa;" horiz-adv-x="1501" arabic-form="isolated" 
d="M375 36v184h46v-184h480v92h46v-92h73v417h46v-417h75v41q0 32 18.5 49.5t52.5 17.5q60 0 69 -63l-42 -5q-2 15 -8 21.5t-19 6.5q-14 0 -20 -7.5t-6 -25.5v-35h108v-42h-974v-188h771v103h46v-103h33v103h45v-103h33v65q0 12 -8 26l41 18q13 -21 13 -41v-110h-1209v-89
h-45v131h42v32q0 37 17.5 56.5t51.5 19.5q31 0 49 -17.5t18 -47.5q0 -28 -18 -43h74v188h-105q-91 0 -91 80q0 31 20 50.5t51 19.5q32 0 50.5 -19.5t18.5 -53.5v-35h157zM456 153q0 67 88 67h115v416h45v-416h46v109h44v-27q27 32 71 32q40 0 61 -22t21 -63v-71h-398
q-27 0 -36.5 -5.5t-9.5 -19.5q0 -15 9 -20t37 -5h316v-42h-319q-46 0 -68 16t-22 51zM1461 -230q0 -35 -16.5 -51.5t-52.5 -16.5q-65 0 -69 59h41q1 -12 7.5 -17t20.5 -5t19 6.5t5 23.5q-49 0 -72 18.5t-23 56.5q0 32 19.5 51t51.5 19q33 0 51 -19t18 -54v-71zM861 294
q-30 0 -48.5 -18.5t-18.5 -49.5v-6h108v20q0 54 -41 54zM568 244v392h46v-392h-46zM726 389l221 66v-35l-221 -65v34zM174 36v32q0 20 -6 28t-19 8q-25 0 -25 -31q0 -21 9.5 -29t31.5 -8h9zM1416 -193v34q0 33 -24 33t-24 -31q0 -19 9.5 -27.5t30.5 -8.5h8zM172 -152
q0 26 -21 26q-25 0 -25 -36v-33h5q20 0 30.5 11t10.5 32zM409 519h16v45h24v-68h-64q-19 0 -29 10t-10 29v29h24v-27q0 -16 16 -18v45h23v-45zM1142 188l131 38v-34l-131 -37v33zM871 -26h43v-44h-43v44zM934 -26h43v-44h-43v44zM375 286v183h46v-183h56v183h46v-225h-253
q-91 0 -91 80q0 31 20 50.5t51 19.5q32 0 50.5 -19.5t18.5 -53.5v-35h56zM275 286v32q0 20 -6 28t-19 8q-25 0 -25 -31q0 -21 9.5 -29t31.5 -8h9zM795 591h16v45h24v-68h-64q-19 0 -29 10t-10 29v29h24v-27q0 -16 16 -18v45h23v-45zM216 183l131 38v-34l-131 -37v33z" />
    <glyph glyph-name="aRial" unicode="&#xfdfc;" horiz-adv-x="1439" arabic-form="isolated" 
d="M1136 0h-500v714h135v-592h230v226q0 57 -22 95l123 48q18 -25 26 -55.5t8 -76.5v-359zM525 8q0 -72 -28.5 -126t-82.5 -83.5t-131 -29.5q-125 0 -186 59.5t-61 181.5q0 37 13 82.5t35 84.5l121 -31q-18 -32 -27.5 -67.5t-9.5 -68.5q0 -64 26.5 -94.5t83.5 -30.5
q55 0 83.5 34.5t28.5 101.5v693h135v-706zM1123 -109q34 -8 60 -8q61 0 61 65v524h135v-523q0 -92 -41.5 -136t-127.5 -44q-52 0 -107 17zM735 -81h119v-111h-119v111zM909 -81h118v-111h-118v111z" />
    <glyph glyph-name="aHamza.isol" unicode="&#x621;" horiz-adv-x="435" arabic-form="isolated" 
d="M403 101v-101h-379v101h49v85q0 82 42.5 123.5t125.5 41.5q78 0 116 -33t48 -107l-115 -12q-4 31 -14 43t-32 12q-25 0 -36 -14.5t-11 -48.5v-90h206z" />
    <glyph glyph-name="aAlifMadda.isol" unicode="&#x622;" horiz-adv-x="255" arabic-form="isolated" 
d="M60 0v714h135v-714h-135zM15 770q0 44 15.5 63t51.5 19q19 -1 34.5 -8t28 -14t21.5 -8q15 0 21 6.5t6 21.5h49q0 -44 -15.5 -63t-51.5 -19q-18 1 -33.5 8.5t-27.5 14.5t-21 8q-16 0 -22 -6.5t-6 -22.5h-50z" />
    <glyph glyph-name="aAlifMadda.fina" unicode="&#x622;" horiz-adv-x="310" arabic-form="final" 
d="M325 0h-265v714h135v-592h130v-122zM15 770q0 44 15.5 63t51.5 19q19 -1 34.5 -8t28 -14t21.5 -8q15 0 21 6.5t6 21.5h49q0 -44 -15.5 -63t-51.5 -19q-18 1 -33.5 8.5t-27.5 14.5t-21 8q-16 0 -22 -6.5t-6 -22.5h-50z" />
    <glyph glyph-name="aAlifHamza.isol" unicode="&#x623;" horiz-adv-x="255" arabic-form="isolated" 
d="M60 0v714h135v-714h-135zM213 815v-47h-178v47h22v48q0 36 20 55.5t57 19.5q36 0 53.5 -15.5t22.5 -52.5l-45 -6q-2 17 -8 23.5t-20 6.5q-31 0 -31 -35v-44h107z" />
    <glyph glyph-name="aAlifHamza.fina" unicode="&#x623;" horiz-adv-x="310" arabic-form="final" 
d="M325 0h-265v714h135v-592h130v-122zM213 815v-47h-178v47h22v48q0 36 20 55.5t57 19.5q36 0 53.5 -15.5t22.5 -52.5l-45 -6q-2 17 -8 23.5t-20 6.5q-31 0 -31 -35v-44h107z" />
    <glyph glyph-name="aWawHamza.isol" unicode="&#x624;" horiz-adv-x="560" arabic-form="isolated" 
d="M500 -12q0 -108 -57.5 -163.5t-168.5 -55.5q-103 0 -161 47.5t-69 140.5h135q7 -40 29.5 -57.5t65.5 -17.5q49 0 70 25t21 81v12h-18q-146 0 -223.5 66.5t-77.5 191.5q0 106 62 168t169 62q113 0 168 -58t55 -175v-267zM181 258q0 -136 142 -136h42v144q0 58 -21 83
t-69 25q-46 0 -70 -30t-24 -86zM365 595v-47h-178v47h22v48q0 36 20 55.5t57 19.5q36 0 53.5 -15.5t22.5 -52.5l-45 -6q-2 17 -8 23.5t-20 6.5q-31 0 -31 -35v-44h107z" />
    <glyph glyph-name="aWawHamza.fina" unicode="&#x624;" horiz-adv-x="610" arabic-form="final" 
d="M500 122h125v-122h-125q0 -118 -55.5 -174.5t-170.5 -56.5q-103 0 -161 47.5t-69 140.5h135q7 -40 29.5 -57.5t65.5 -17.5q49 0 70 25t21 81v12h-18q-146 0 -223.5 66.5t-77.5 191.5q0 106 62 168t169 62q113 0 168 -58t55 -175v-133zM181 258q0 -136 142 -136h42v108
q0 61 -8.5 91t-27.5 41.5t-54 11.5q-46 0 -70 -30t-24 -86zM365 595v-47h-178v47h22v48q0 36 20 55.5t57 19.5q36 0 53.5 -15.5t22.5 -52.5l-45 -6q-2 17 -8 23.5t-20 6.5q-31 0 -31 -35v-44h107z" />
    <glyph glyph-name="aAlifHamzabelow.isol" unicode="&#x625;" horiz-adv-x="255" arabic-form="isolated" 
d="M60 0v714h135v-714h-135zM210 -188v-47h-178v47h22v48q0 36 20 55.5t57 19.5q36 0 53.5 -15.5t22.5 -52.5l-45 -6q-2 17 -8 23.5t-20 6.5q-31 0 -31 -35v-44h107z" />
    <glyph glyph-name="aAlifHamzabelow.fina" unicode="&#x625;" horiz-adv-x="310" arabic-form="final" 
d="M325 0h-265v714h135v-592h130v-122zM239 -188v-47h-178v47h22v48q0 36 20 55.5t57 19.5q36 0 53.5 -15.5t22.5 -52.5l-45 -6q-2 17 -8 23.5t-20 6.5q-31 0 -31 -35v-44h107z" />
    <glyph glyph-name="aYehHamza.isol" unicode="&#x626;" horiz-adv-x="690" arabic-form="isolated" 
d="M600 353q-75 0 -75 -75v-270q0 -113 -62 -176t-174 -63q-253 0 -253 244q0 38 13 84.5t35 85.5l121 -31q-17 -31 -27 -68t-10 -71q0 -63 29.5 -95.5t86.5 -32.5q54 0 80 33.5t26 102.5v270q0 86 50 133.5t140 47.5h84v-119h-64zM248 337v-47h-178v47h22v48q0 36 20 55.5
t57 19.5q36 0 53.5 -15.5t22.5 -52.5l-45 -6q-2 17 -8 23.5t-20 6.5q-31 0 -31 -35v-44h107z" />
    <glyph glyph-name="aYehHamza.fina" unicode="&#x626;" horiz-adv-x="922" arabic-form="final" 
d="M525 8q0 -113 -62 -176t-174 -63q-253 0 -253 244q0 38 13 84.5t35 85.5l121 -31q-17 -31 -27 -68t-10 -71q0 -63 29.5 -95.5t86.5 -32.5q54 0 80 33.5t26 102.5v270q0 86 50 133.5t140 47.5h224v-350h133v-122h-268v353h-69q-75 0 -75 -75v-270zM248 337v-47h-178v47h22
v48q0 36 20 55.5t57 19.5q36 0 53.5 -15.5t22.5 -52.5l-45 -6q-2 17 -8 23.5t-20 6.5q-31 0 -31 -35v-44h107z" />
    <glyph glyph-name="aYehHamza.init" unicode="&#x626;" horiz-adv-x="310" arabic-form="initial" 
d="M250 0h-265v122h130v226q0 55 -22 95l123 48q18 -25 26 -55.5t8 -76.5v-359zM250 599v-47h-178v47h22v48q0 36 20 55.5t57 19.5q36 0 53.5 -15.5t22.5 -52.5l-45 -6q-2 17 -8 23.5t-20 6.5q-31 0 -31 -35v-44h107z" />
    <glyph glyph-name="aYehHamza.medi" unicode="&#x626;" horiz-adv-x="365" arabic-form="medial" 
d="M-15 122h130v350h135v-350h130v-122h-395v122zM250 599v-47h-178v47h22v48q0 36 20 55.5t57 19.5q36 0 53.5 -15.5t22.5 -52.5l-45 -6q-2 17 -8 23.5t-20 6.5q-31 0 -31 -35v-44h107z" />
    <glyph glyph-name="aAlif.isol" unicode="&#x627;" horiz-adv-x="255" arabic-form="isolated" 
d="M60 0v714h135v-714h-135z" />
    <glyph glyph-name="aAlif.fina" unicode="&#x627;" horiz-adv-x="310" arabic-form="final" 
d="M325 0h-265v714h135v-592h130v-122z" />
    <glyph glyph-name="aBeh.isol" unicode="&#x628;" horiz-adv-x="828" arabic-form="isolated" 
d="M317 0q-139 0 -206 60t-67 183q0 68 28 120t82.5 82t130.5 34l16 -119q-67 -5 -96 -32.5t-29 -84.5q0 -63 32.5 -92t102.5 -29h322v350h135v-472h-451zM398 -80h122v-113h-122v113z" />
    <glyph glyph-name="aBeh.fina" unicode="&#x628;" horiz-adv-x="883" arabic-form="final" 
d="M633 122v350h135v-350h130v-122h-581q-139 0 -206 60t-67 183q0 68 28 120t82.5 82t130.5 34l16 -119q-67 -5 -96 -32.5t-29 -84.5q0 -63 32.5 -92t102.5 -29h322zM400 -80h122v-113h-122v113z" />
    <glyph glyph-name="aBeh.init" unicode="&#x628;" horiz-adv-x="310" arabic-form="initial" 
d="M250 0h-265v122h130v226q0 55 -22 95l123 48q18 -25 26 -55.5t8 -76.5v-359zM122 -80h122v-113h-122v113z" />
    <glyph glyph-name="aBeh.medi" unicode="&#x628;" horiz-adv-x="365" arabic-form="medial" 
d="M-15 122h130v350h135v-350h130v-122h-395v122zM121 -80h122v-113h-122v113z" />
    <glyph glyph-name="aTehMarbuta.isol" unicode="&#x629;" horiz-adv-x="558" arabic-form="isolated" 
d="M174 234q0 -138 105 -138t105 138t-105 138t-105 -138zM44 232q0 121 62.5 188.5t174.5 67.5q110 0 171.5 -66.5t61.5 -185.5q0 -124 -61 -190t-176 -66q-110 0 -171.5 66.5t-61.5 185.5zM133 673h119v-111h-119v111zM307 673h118v-111h-118v111z" />
    <glyph glyph-name="aTehMarbuta.fina" unicode="&#x629;" horiz-adv-x="608" arabic-form="final" 
d="M498 122h125v-122h-278q-146 0 -223.5 66.5t-77.5 191.5q0 106 62 168t169 62q113 0 168 -58t55 -175v-133zM179 258q0 -136 142 -136h42v108q0 61 -8.5 91t-27.5 41.5t-54 11.5q-46 0 -70 -30t-24 -86zM127 673h119v-111h-119v111zM301 673h118v-111h-118v111z" />
    <glyph glyph-name="aTeh.isol" unicode="&#x62a;" horiz-adv-x="828" arabic-form="isolated" 
d="M317 0q-139 0 -206 60t-67 183q0 68 28 120t82.5 82t130.5 34l16 -119q-67 -5 -96 -32.5t-29 -84.5q0 -63 32.5 -92t102.5 -29h322v350h135v-472h-451zM298 673h119v-111h-119v111zM472 673h118v-111h-118v111z" />
    <glyph glyph-name="aTeh.fina" unicode="&#x62a;" horiz-adv-x="883" arabic-form="final" 
d="M633 122v350h135v-350h130v-122h-581q-139 0 -206 60t-67 183q0 68 28 120t82.5 82t130.5 34l16 -119q-67 -5 -96 -32.5t-29 -84.5q0 -63 32.5 -92t102.5 -29h322zM298 673h119v-111h-119v111zM472 673h118v-111h-118v111z" />
    <glyph glyph-name="aTeh.init" unicode="&#x62a;" horiz-adv-x="310" arabic-form="initial" 
d="M250 0h-265v122h130v226q0 55 -22 95l123 48q18 -25 26 -55.5t8 -76.5v-359zM-43 673h119v-111h-119v111zM131 673h118v-111h-118v111z" />
    <glyph glyph-name="aTeh.medi" unicode="&#x62a;" horiz-adv-x="365" arabic-form="medial" 
d="M-15 122h130v350h135v-350h130v-122h-395v122zM-43 673h119v-111h-119v111zM131 673h118v-111h-118v111z" />
    <glyph glyph-name="aTheh.isol" unicode="&#x62b;" horiz-adv-x="828" arabic-form="isolated" 
d="M317 0q-139 0 -206 60t-67 183q0 68 28 120t82.5 82t130.5 34l16 -119q-67 -5 -96 -32.5t-29 -84.5q0 -63 32.5 -92t102.5 -29h322v350h135v-472h-451zM404 747h110v-95h-110v95zM327 621h110v-95h-110v95zM481 621h110v-95h-110v95z" />
    <glyph glyph-name="aTheh.fina" unicode="&#x62b;" horiz-adv-x="883" arabic-form="final" 
d="M633 122v350h135v-350h130v-122h-581q-139 0 -206 60t-67 183q0 68 28 120t82.5 82t130.5 34l16 -119q-67 -5 -96 -32.5t-29 -84.5q0 -63 32.5 -92t102.5 -29h322zM405 772h110v-95h-110v95zM328 646h110v-95h-110v95zM482 646h110v-95h-110v95z" />
    <glyph glyph-name="aTheh.init" unicode="&#x62b;" horiz-adv-x="310" arabic-form="initial" 
d="M250 0h-265v122h130v226q0 55 -22 95l123 48q18 -25 26 -55.5t8 -76.5v-359zM63 772h110v-95h-110v95zM-14 646h110v-95h-110v95zM140 646h110v-95h-110v95z" />
    <glyph glyph-name="aTheh.medi" unicode="&#x62b;" horiz-adv-x="365" arabic-form="medial" 
d="M-15 122h130v350h135v-350h130v-122h-395v122zM63 772h110v-95h-110v95zM-14 646h110v-95h-110v95zM140 646h110v-95h-110v95z" />
    <glyph glyph-name="aJim.isol" unicode="&#x62c;" horiz-adv-x="637" arabic-form="isolated" 
d="M259 0q-48 0 -77 -27.5t-29 -73.5q0 -55 30 -81t92 -26q54 0 82.5 21t41.5 71h136q-13 -100 -80.5 -154t-179.5 -54q-128 0 -191.5 56.5t-63.5 171.5q0 98 68 158t180 60h118v124q0 68 -20 97t-68 29q-47 0 -68.5 -17t-30.5 -60l-130 14q11 63 39 102.5t73.5 58
t112.5 18.5q116 0 171.5 -57t55.5 -176v-133h86v-122h-348zM225 -59h96v-87h-96v87z" />
    <glyph glyph-name="aJim.fina" unicode="&#x62c;" horiz-adv-x="631" arabic-form="final" 
d="M259 0q-48 0 -77 -27.5t-29 -73.5q0 -55 30 -81t92 -26q54 0 82.5 21t41.5 71h136q-13 -100 -80.5 -154t-179.5 -54q-128 0 -191.5 56.5t-63.5 171.5q0 98 68 158t180 60h118v124q0 68 -20 97t-68 29q-47 0 -68.5 -17t-30.5 -60l-130 14q11 63 39 102.5t73.5 58
t112.5 18.5q116 0 171.5 -57t55.5 -176v-133h125v-122h-387zM225 -59h96v-87h-96v87z" />
    <glyph glyph-name="aJim.init" unicode="&#x62c;" horiz-adv-x="588" arabic-form="initial" 
d="M-15 122h352v124q0 68 -20 97t-68 29q-47 0 -68.5 -17t-30.5 -60l-130 14q11 63 39 102.5t73.5 58t112.5 18.5q116 0 171.5 -57t55.5 -176v-133h86v-122h-573v122zM202 -80h122v-113h-122v113z" />
    <glyph glyph-name="aJim.medi" unicode="&#x62c;" horiz-adv-x="587" arabic-form="medial" 
d="M342 246q0 68 -20 97t-68 29q-47 0 -68.5 -17t-30.5 -60l-130 14q11 63 39 102.5t73.5 58t112.5 18.5q116 0 171.5 -57t55.5 -176v-133h125v-122h-617v122h357v124zM193 -80h122v-113h-122v113z" />
    <glyph glyph-name="aHah.isol" unicode="&#x62d;" horiz-adv-x="637" arabic-form="isolated" 
d="M259 0q-48 0 -77 -27.5t-29 -73.5q0 -55 30 -81t92 -26q54 0 82.5 21t41.5 71h136q-13 -100 -80.5 -154t-179.5 -54q-128 0 -191.5 56.5t-63.5 171.5q0 98 68 158t180 60h118v124q0 68 -20 97t-68 29q-47 0 -68.5 -17t-30.5 -60l-130 14q11 63 39 102.5t73.5 58
t112.5 18.5q116 0 171.5 -57t55.5 -176v-133h86v-122h-348z" />
    <glyph glyph-name="aHah.fina" unicode="&#x62d;" horiz-adv-x="631" arabic-form="final" 
d="M259 0q-48 0 -77 -27.5t-29 -73.5q0 -55 30 -81t92 -26q54 0 82.5 21t41.5 71h136q-13 -100 -80.5 -154t-179.5 -54q-128 0 -191.5 56.5t-63.5 171.5q0 98 68 158t180 60h118v124q0 68 -20 97t-68 29q-47 0 -68.5 -17t-30.5 -60l-130 14q11 63 39 102.5t73.5 58
t112.5 18.5q116 0 171.5 -57t55.5 -176v-133h125v-122h-387z" />
    <glyph glyph-name="aHah.init" unicode="&#x62d;" horiz-adv-x="588" arabic-form="initial" 
d="M-15 122h352v124q0 68 -20 97t-68 29q-47 0 -68.5 -17t-30.5 -60l-130 14q11 63 39 102.5t73.5 58t112.5 18.5q116 0 171.5 -57t55.5 -176v-133h86v-122h-573v122z" />
    <glyph glyph-name="aHah.medi" unicode="&#x62d;" horiz-adv-x="587" arabic-form="medial" 
d="M342 246q0 68 -20 97t-68 29q-47 0 -68.5 -17t-30.5 -60l-130 14q11 63 39 102.5t73.5 58t112.5 18.5q116 0 171.5 -57t55.5 -176v-133h125v-122h-617v122h357v124z" />
    <glyph glyph-name="aKhah.isol" unicode="&#x62e;" horiz-adv-x="637" arabic-form="isolated" 
d="M259 0q-48 0 -77 -27.5t-29 -73.5q0 -55 30 -81t92 -26q54 0 82.5 21t41.5 71h136q-13 -100 -80.5 -154t-179.5 -54q-128 0 -191.5 56.5t-63.5 171.5q0 98 68 158t180 60h118v124q0 68 -20 97t-68 29q-47 0 -68.5 -17t-30.5 -60l-130 14q11 63 39 102.5t73.5 58
t112.5 18.5q116 0 171.5 -57t55.5 -176v-133h86v-122h-348zM236 675h122v-113h-122v113z" />
    <glyph glyph-name="aKhah.fina" unicode="&#x62e;" horiz-adv-x="631" arabic-form="final" 
d="M259 0q-48 0 -77 -27.5t-29 -73.5q0 -55 30 -81t92 -26q54 0 82.5 21t41.5 71h136q-13 -100 -80.5 -154t-179.5 -54q-128 0 -191.5 56.5t-63.5 171.5q0 98 68 158t180 60h118v124q0 68 -20 97t-68 29q-47 0 -68.5 -17t-30.5 -60l-130 14q11 63 39 102.5t73.5 58
t112.5 18.5q116 0 171.5 -57t55.5 -176v-133h125v-122h-387zM236 675h122v-113h-122v113z" />
    <glyph glyph-name="aKhah.init" unicode="&#x62e;" horiz-adv-x="588" arabic-form="initial" 
d="M-15 122h352v124q0 68 -20 97t-68 29q-47 0 -68.5 -17t-30.5 -60l-130 14q11 63 39 102.5t73.5 58t112.5 18.5q116 0 171.5 -57t55.5 -176v-133h86v-122h-573v122zM187 675h122v-113h-122v113z" />
    <glyph glyph-name="aKhah.medi" unicode="&#x62e;" horiz-adv-x="587" arabic-form="medial" 
d="M342 246q0 68 -20 97t-68 29q-47 0 -68.5 -17t-30.5 -60l-130 14q11 63 39 102.5t73.5 58t112.5 18.5q116 0 171.5 -57t55.5 -176v-133h125v-122h-617v122h357v124zM193 675h122v-113h-122v113z" />
    <glyph glyph-name="aDal.isol" unicode="&#x62f;" horiz-adv-x="544" arabic-form="isolated" 
d="M354 122v63q0 92 -34.5 136t-106.5 44q-46 0 -102 -18l-32 119q68 22 145 22q128 0 196.5 -75t68.5 -215v-198h-459v122h324z" />
    <glyph glyph-name="aDal.fina" unicode="&#x62f;" horiz-adv-x="599" arabic-form="final" 
d="M354 122v63q0 92 -34.5 136t-106.5 44q-46 0 -102 -18l-32 119q68 22 145 22q128 0 196.5 -75t68.5 -215v-76h125v-122h-584v122h324z" />
    <glyph glyph-name="aDhal.isol" unicode="&#x630;" horiz-adv-x="544" arabic-form="isolated" 
d="M354 122v63q0 92 -34.5 136t-106.5 44q-46 0 -102 -18l-32 119q68 22 145 22q128 0 196.5 -75t68.5 -215v-198h-459v122h324zM204 675h122v-113h-122v113z" />
    <glyph glyph-name="aDhal.fina" unicode="&#x630;" horiz-adv-x="599" arabic-form="final" 
d="M354 122v63q0 92 -34.5 136t-106.5 44q-46 0 -102 -18l-32 119q68 22 145 22q128 0 196.5 -75t68.5 -215v-76h125v-122h-584v122h324zM204 675h122v-113h-122v113z" />
    <glyph glyph-name="aReh.isol" unicode="&#x631;" horiz-adv-x="336" arabic-form="isolated" 
d="M20 -109q33 -8 60 -8q61 0 61 65v524h135v-523q0 -92 -41.5 -136t-127.5 -44q-50 0 -107 17z" />
    <glyph glyph-name="aReh.fina" unicode="&#x631;" horiz-adv-x="391" arabic-form="final" 
d="M20 -109q33 -8 60 -8q61 0 61 65v524h135v-350h130v-122h-130v-51q0 -92 -41.5 -136t-127.5 -44q-50 0 -107 17z" />
    <glyph glyph-name="aZeh.isol" unicode="&#x632;" horiz-adv-x="336" arabic-form="isolated" 
d="M20 -109q33 -8 60 -8q61 0 61 65v524h135v-523q0 -92 -41.5 -136t-127.5 -44q-50 0 -107 17zM147 675h122v-113h-122v113z" />
    <glyph glyph-name="aZeh.fina" unicode="&#x632;" horiz-adv-x="391" arabic-form="final" 
d="M20 -109q33 -8 60 -8q61 0 61 65v524h135v-350h130v-122h-130v-51q0 -92 -41.5 -136t-127.5 -44q-50 0 -107 17zM147 675h122v-113h-122v113z" />
    <glyph glyph-name="aSin.isol" unicode="&#x633;" horiz-adv-x="1137" arabic-form="isolated" 
d="M525 0q-3 -110 -64.5 -170.5t-171.5 -60.5q-253 0 -253 244q0 38 13 84.5t35 85.5l121 -31q-17 -31 -27 -68t-10 -71q0 -63 29.5 -95.5t86.5 -32.5q54 0 80 33.5t26 102.5v451h135v-350h140v350h135v-350h142v226q0 55 -22 95l123 48q18 -25 26 -55.5t8 -76.5v-359h-552z
" />
    <glyph glyph-name="aSin.fina" unicode="&#x633;" horiz-adv-x="1192" arabic-form="final" 
d="M525 0q-3 -110 -64.5 -170.5t-171.5 -60.5q-253 0 -253 244q0 38 13 84.5t35 85.5l121 -31q-17 -31 -27 -68t-10 -71q0 -63 29.5 -95.5t86.5 -32.5q54 0 80 33.5t26 102.5v451h135v-350h140v350h135v-350h142v226q0 55 -22 95l123 48q18 -25 26 -55.5t8 -76.5v-237h130
v-122h-682z" />
    <glyph glyph-name="aSin.init" unicode="&#x633;" horiz-adv-x="862" arabic-form="initial" 
d="M525 122h142v226q0 55 -22 95l123 48q18 -25 26 -55.5t8 -76.5v-359h-817v122h130v350h135v-350h140v350h135v-350z" />
    <glyph glyph-name="aSin.medi" unicode="&#x633;" horiz-adv-x="917" arabic-form="medial" 
d="M932 122v-122h-947v122h130v350h135v-350h140v350h135v-350h142v226q0 55 -22 95l123 48q18 -25 26 -55.5t8 -76.5v-237h130z" />
    <glyph glyph-name="aShin.isol" unicode="&#x634;" horiz-adv-x="1137" arabic-form="isolated" 
d="M525 0q-3 -110 -64.5 -170.5t-171.5 -60.5q-253 0 -253 244q0 38 13 84.5t35 85.5l121 -31q-17 -31 -27 -68t-10 -71q0 -63 29.5 -95.5t86.5 -32.5q54 0 80 33.5t26 102.5v451h135v-350h140v350h135v-350h142v226q0 55 -22 95l123 48q18 -25 26 -55.5t8 -76.5v-359h-552z
M679 772h110v-95h-110v95zM602 646h110v-95h-110v95zM756 646h110v-95h-110v95z" />
    <glyph glyph-name="aShin.fina" unicode="&#x634;" horiz-adv-x="1192" arabic-form="final" 
d="M525 0q-3 -110 -64.5 -170.5t-171.5 -60.5q-253 0 -253 244q0 38 13 84.5t35 85.5l121 -31q-17 -31 -27 -68t-10 -71q0 -63 29.5 -95.5t86.5 -32.5q54 0 80 33.5t26 102.5v451h135v-350h140v350h135v-350h142v226q0 55 -22 95l123 48q18 -25 26 -55.5t8 -76.5v-237h130
v-122h-682zM679 772h110v-95h-110v95zM602 646h110v-95h-110v95zM756 646h110v-95h-110v95z" />
    <glyph glyph-name="aShin.init" unicode="&#x634;" horiz-adv-x="862" arabic-form="initial" 
d="M525 122h142v226q0 55 -22 95l123 48q18 -25 26 -55.5t8 -76.5v-359h-817v122h130v350h135v-350h140v350h135v-350zM405 772h110v-95h-110v95zM328 646h110v-95h-110v95zM482 646h110v-95h-110v95z" />
    <glyph glyph-name="aShin.medi" unicode="&#x634;" horiz-adv-x="917" arabic-form="medial" 
d="M932 122v-122h-947v122h130v350h135v-350h140v350h135v-350h142v226q0 55 -22 95l123 48q18 -25 26 -55.5t8 -76.5v-237h130zM405 772h110v-95h-110v95zM328 646h110v-95h-110v95zM482 646h110v-95h-110v95z" />
    <glyph glyph-name="aSad.isol" unicode="&#x635;" horiz-adv-x="1053" arabic-form="isolated" 
d="M731 372q-98 0 -153.5 -55.5t-55.5 -153.5v-41h336v72q0 91 -30.5 134.5t-96.5 43.5zM993 0h-468q-3 -110 -64.5 -170.5t-171.5 -60.5q-253 0 -253 244q0 38 13 84.5t35 85.5l121 -31q-17 -31 -27 -68t-10 -71q0 -63 29.5 -95.5t86.5 -32.5q54 0 80 33.5t26 102.5v451
h135v-102q38 58 94 88t127 30q121 0 184 -68t63 -199v-221z" />
    <glyph glyph-name="aSad.fina" unicode="&#x635;" horiz-adv-x="1103" arabic-form="final" 
d="M731 372q-98 0 -153.5 -55.5t-55.5 -153.5v-41h336v72q0 91 -30.5 134.5t-96.5 43.5zM525 370q38 58 94 88t127 30q121 0 184 -68t63 -199v-99h125v-122h-593q-3 -110 -64.5 -170.5t-171.5 -60.5q-253 0 -253 244q0 38 13 84.5t35 85.5l121 -31q-17 -31 -27 -68t-10 -71
q0 -63 29.5 -95.5t86.5 -32.5q54 0 80 33.5t26 102.5v451h135v-102z" />
    <glyph glyph-name="aSad.init" unicode="&#x635;" horiz-adv-x="778" arabic-form="initial" 
d="M456 372q-98 0 -153.5 -55.5t-55.5 -153.5v-41h336v72q0 91 -30.5 134.5t-96.5 43.5zM718 0h-733v122h130v350h135v-102q38 58 94 88t127 30q121 0 184 -68t63 -199v-221z" />
    <glyph glyph-name="aSad.medi" unicode="&#x635;" horiz-adv-x="828" arabic-form="medial" 
d="M456 372q-98 0 -153.5 -55.5t-55.5 -153.5v-41h336v72q0 91 -30.5 134.5t-96.5 43.5zM250 370q38 58 94 88t127 30q121 0 184 -68t63 -199v-99h125v-122h-858v122h130v350h135v-102z" />
    <glyph glyph-name="aDad.isol" unicode="&#x636;" horiz-adv-x="1053" arabic-form="isolated" 
d="M731 372q-98 0 -153.5 -55.5t-55.5 -153.5v-41h336v72q0 91 -30.5 134.5t-96.5 43.5zM993 0h-468q-3 -110 -64.5 -170.5t-171.5 -60.5q-253 0 -253 244q0 38 13 84.5t35 85.5l121 -31q-17 -31 -27 -68t-10 -71q0 -63 29.5 -95.5t86.5 -32.5q54 0 80 33.5t26 102.5v451
h135v-102q38 58 94 88t127 30q121 0 184 -68t63 -199v-221zM661 675h122v-113h-122v113z" />
    <glyph glyph-name="aDad.fina" unicode="&#x636;" horiz-adv-x="1103" arabic-form="final" 
d="M731 372q-98 0 -153.5 -55.5t-55.5 -153.5v-41h336v72q0 91 -30.5 134.5t-96.5 43.5zM525 370q38 58 94 88t127 30q121 0 184 -68t63 -199v-99h125v-122h-593q-3 -110 -64.5 -170.5t-171.5 -60.5q-253 0 -253 244q0 38 13 84.5t35 85.5l121 -31q-17 -31 -27 -68t-10 -71
q0 -63 29.5 -95.5t86.5 -32.5q54 0 80 33.5t26 102.5v451h135v-102zM661 675h122v-113h-122v113z" />
    <glyph glyph-name="aDad.init" unicode="&#x636;" horiz-adv-x="778" arabic-form="initial" 
d="M456 372q-98 0 -153.5 -55.5t-55.5 -153.5v-41h336v72q0 91 -30.5 134.5t-96.5 43.5zM718 0h-733v122h130v350h135v-102q38 58 94 88t127 30q121 0 184 -68t63 -199v-221zM386 675h122v-113h-122v113z" />
    <glyph glyph-name="aDad.medi" unicode="&#x636;" horiz-adv-x="828" arabic-form="medial" 
d="M456 372q-98 0 -153.5 -55.5t-55.5 -153.5v-41h336v72q0 91 -30.5 134.5t-96.5 43.5zM250 370q38 58 94 88t127 30q121 0 184 -68t63 -199v-99h125v-122h-858v122h130v350h135v-102zM385 675h122v-113h-122v113z" />
    <glyph glyph-name="aTah.isol" unicode="&#x637;" horiz-adv-x="778" arabic-form="isolated" 
d="M456 372q-98 0 -154 -56t-56 -153v-41h337v72q0 91 -30.5 134.5t-96.5 43.5zM250 370q38 58 94 88t127 30q121 0 184 -68t63 -199v-221h-688v122h85v592h135v-344z" />
    <glyph glyph-name="aTah.fina" unicode="&#x637;" horiz-adv-x="828" arabic-form="final" 
d="M456 372q-98 0 -154 -56t-56 -153v-41h337v72q0 91 -30.5 134.5t-96.5 43.5zM471 488q121 0 184 -68t63 -199v-99h125v-122h-813v122h85v592h135v-344q38 58 94 88t127 30z" />
    <glyph glyph-name="aTah.init" unicode="&#x637;" horiz-adv-x="778" arabic-form="initial" 
d="M456 372q-98 0 -154 -56t-56 -153v-41h337v72q0 91 -30.5 134.5t-96.5 43.5zM250 370q38 58 94 88t127 30q121 0 184 -68t63 -199v-221h-733v122h130v592h135v-344z" />
    <glyph glyph-name="aTah.medi" unicode="&#x637;" horiz-adv-x="822" arabic-form="medial" 
d="M450 372q-98 0 -154 -56t-56 -153v-41h337v72q0 91 -30.5 134.5t-96.5 43.5zM712 122h125v-122h-852v122h124v592h135v-344q38 58 94 88t127 30q121 0 184 -68t63 -199v-99z" />
    <glyph glyph-name="aZah.isol" unicode="&#x638;" horiz-adv-x="778" arabic-form="isolated" 
d="M456 372q-98 0 -154 -56t-56 -153v-41h337v72q0 91 -30.5 134.5t-96.5 43.5zM250 370q38 58 94 88t127 30q121 0 184 -68t63 -199v-221h-688v122h85v592h135v-344zM395 675h122v-113h-122v113z" />
    <glyph glyph-name="aZah.fina" unicode="&#x638;" horiz-adv-x="828" arabic-form="final" 
d="M456 372q-98 0 -154 -56t-56 -153v-41h337v72q0 91 -30.5 134.5t-96.5 43.5zM471 488q121 0 184 -68t63 -199v-99h125v-122h-813v122h85v592h135v-344q38 58 94 88t127 30zM395 675h122v-113h-122v113z" />
    <glyph glyph-name="aZah.init" unicode="&#x638;" horiz-adv-x="778" arabic-form="initial" 
d="M456 372q-98 0 -154 -56t-56 -153v-41h337v72q0 91 -30.5 134.5t-96.5 43.5zM250 370q38 58 94 88t127 30q121 0 184 -68t63 -199v-221h-733v122h130v592h135v-344zM395 675h122v-113h-122v113z" />
    <glyph glyph-name="aZah.medi" unicode="&#x638;" horiz-adv-x="822" arabic-form="medial" 
d="M450 372q-98 0 -154 -56t-56 -153v-41h337v72q0 91 -30.5 134.5t-96.5 43.5zM712 122h125v-122h-852v122h124v592h135v-344q38 58 94 88t127 30q121 0 184 -68t63 -199v-99zM388 675h122v-113h-122v113z" />
    <glyph glyph-name="aAyn.isol" unicode="&#x639;" horiz-adv-x="696" arabic-form="isolated" 
d="M666 0h-424q-43 0 -66 -26t-23 -74q0 -55 30 -81.5t92 -26.5q54 0 82.5 21t41.5 71h136q-13 -100 -80.5 -154t-179.5 -54q-255 0 -255 229q0 87 48 143.5t131 69.5v129q0 120 58.5 180.5t174.5 60.5q98 0 150 -42.5t67 -136.5l-130 -14q-8 43 -28 60t-63 17
q-49 0 -71.5 -29.5t-22.5 -96.5v-124h332v-122z" />
    <glyph glyph-name="aAyn.fina" unicode="&#x639;" horiz-adv-x="662" arabic-form="final" 
d="M677 0h-435q-43 0 -66 -26t-23 -74q0 -55 30 -81.5t92 -26.5q54 0 82.5 21t41.5 71h136q-13 -100 -80.5 -154t-179.5 -54q-255 0 -255 229q0 87 48 143.5t131 69.5v129q0 120 58.5 180.5t174.5 60.5q98 0 150 -42.5t67 -136.5l-130 -14q-8 43 -28 60t-63 17
q-49 0 -71.5 -29.5t-22.5 -96.5v-124h343v-122z" />
    <glyph glyph-name="aAyn.init" unicode="&#x639;" horiz-adv-x="612" arabic-form="initial" 
d="M110 247q0 120 58.5 180.5t174.5 60.5q98 0 150 -42.5t67 -136.5l-130 -14q-8 43 -28 60t-63 17q-49 0 -71.5 -29.5t-22.5 -96.5v-124h337v-122h-597v122h125v125z" />
    <glyph glyph-name="aAyn.medi" unicode="&#x639;" horiz-adv-x="573" arabic-form="medial" 
d="M110 247q0 120 58.5 180.5t174.5 60.5q98 0 150 -42.5t67 -136.5l-130 -14q-8 43 -28 60t-63 17q-49 0 -71.5 -29.5t-22.5 -96.5v-124h343v-122h-603v122h125v125z" />
    <glyph glyph-name="aGhayn.isol" unicode="&#x63a;" horiz-adv-x="696" arabic-form="isolated" 
d="M666 0h-424q-43 0 -66 -26t-23 -74q0 -55 30 -81.5t92 -26.5q54 0 82.5 21t41.5 71h136q-13 -100 -80.5 -154t-179.5 -54q-255 0 -255 229q0 87 48 143.5t131 69.5v129q0 120 58.5 180.5t174.5 60.5q98 0 150 -42.5t67 -136.5l-130 -14q-8 43 -28 60t-63 17
q-49 0 -71.5 -29.5t-22.5 -96.5v-124h332v-122zM368 675h122v-113h-122v113z" />
    <glyph glyph-name="aGhayn.fina" unicode="&#x63a;" horiz-adv-x="662" arabic-form="final" 
d="M677 0h-435q-43 0 -66 -26t-23 -74q0 -55 30 -81.5t92 -26.5q54 0 82.5 21t41.5 71h136q-13 -100 -80.5 -154t-179.5 -54q-255 0 -255 229q0 87 48 143.5t131 69.5v129q0 120 58.5 180.5t174.5 60.5q98 0 150 -42.5t67 -136.5l-130 -14q-8 43 -28 60t-63 17
q-49 0 -71.5 -29.5t-22.5 -96.5v-124h343v-122zM368 675h122v-113h-122v113z" />
    <glyph glyph-name="aGhayn.init" unicode="&#x63a;" horiz-adv-x="612" arabic-form="initial" 
d="M110 247q0 120 58.5 180.5t174.5 60.5q98 0 150 -42.5t67 -136.5l-130 -14q-8 43 -28 60t-63 17q-49 0 -71.5 -29.5t-22.5 -96.5v-124h337v-122h-597v122h125v125zM278 675h122v-113h-122v113z" />
    <glyph glyph-name="aGhayn.medi" unicode="&#x63a;" horiz-adv-x="573" arabic-form="medial" 
d="M110 247q0 120 58.5 180.5t174.5 60.5q98 0 150 -42.5t67 -136.5l-130 -14q-8 43 -28 60t-63 17q-49 0 -71.5 -29.5t-22.5 -96.5v-124h343v-122h-603v122h125v125zM278 675h122v-113h-122v113z" />
    <glyph glyph-name="aFeh.isol" unicode="&#x641;" horiz-adv-x="951" arabic-form="isolated" 
d="M756 122v142q0 58 -21.5 84t-68.5 26q-45 0 -69.5 -30t-24.5 -86q0 -64 34 -100t95 -36h55zM506 122q-31 24 -50 66.5t-19 86.5q0 60 28.5 108.5t81.5 76.5t121 28q223 0 223 -235v-253h-574q-139 0 -206 60t-67 183q0 68 28 120t82.5 82t130.5 34l16 -119
q-67 -5 -96 -32.5t-29 -84.5q0 -63 32.5 -92t102.5 -29h195zM605 675h122v-113h-122v113z" />
    <glyph glyph-name="aFeh.fina" unicode="&#x641;" horiz-adv-x="1001" arabic-form="final" 
d="M756 122v142q0 58 -21.5 84t-68.5 26q-45 0 -69.5 -30t-24.5 -86q0 -64 34 -100t95 -36h55zM506 122q-31 24 -50 66.5t-19 86.5q0 60 28.5 108.5t81.5 76.5t121 28q223 0 223 -235v-131h125v-122h-699q-139 0 -206 60t-67 183q0 68 28 120t82.5 82t130.5 34l16 -119
q-67 -5 -96 -32.5t-29 -84.5q0 -63 32.5 -92t102.5 -29h195zM605 675h122v-113h-122v113z" />
    <glyph glyph-name="aFeh.init" unicode="&#x641;" horiz-adv-x="581" arabic-form="initial" 
d="M520 253q0 -63 0.5 -126.5t0.5 -126.5h-536v122h150q-31 24 -50 66.5t-19 86.5q0 60 28.5 108.5t81.5 76.5t121 28q223 0 223 -235zM385 122v142q0 58 -21.5 84t-68.5 26q-45 0 -69.5 -30t-24.5 -86q0 -64 34 -100t95 -36h55zM233 675h122v-113h-122v113z" />
    <glyph glyph-name="aFeh.medi" unicode="&#x641;" horiz-adv-x="630" arabic-form="medial" 
d="M645 0h-660v122h150q-31 24 -50 66.5t-19 86.5q0 60 28.5 108.5t81.5 76.5t121 28q223 0 223 -235v-131h125v-122zM385 122v142q0 58 -21.5 84t-68.5 26q-45 0 -69.5 -30t-24.5 -86q0 -64 34 -100t95 -36h55zM233 675h122v-113h-122v113z" />
    <glyph glyph-name="aQaf.isol" unicode="&#x642;" horiz-adv-x="684" arabic-form="isolated" 
d="M624 -12q0 -107 -71.5 -163t-207.5 -56q-161 0 -238 60t-77 184h135q2 -71 42 -101t134 -30q78 0 113 28t35 90h-18q-146 0 -223.5 66.5t-77.5 191.5q0 106 62 168t169 62q113 0 168 -58t55 -175v-267zM305 258q0 -136 142 -136h42v108q0 61 -8.5 91t-27.5 41.5t-54 11.5
q-46 0 -70 -30t-24 -86zM260 673h119v-111h-119v111zM434 673h118v-111h-118v111z" />
    <glyph glyph-name="aQaf.fina" unicode="&#x642;" horiz-adv-x="734" arabic-form="final" 
d="M624 122h125v-122h-125q0 -231 -279 -231q-161 0 -238 60t-77 184h135q2 -71 42 -101t134 -30q78 0 113 28t35 90h-18q-146 0 -223.5 66.5t-77.5 191.5q0 106 62 168t169 62q113 0 168 -58t55 -175v-133zM305 258q0 -136 142 -136h42v108q0 61 -8.5 91t-27.5 41.5
t-54 11.5q-46 0 -70 -30t-24 -86zM254 673h119v-111h-119v111zM428 673h118v-111h-118v111z" />
    <glyph glyph-name="aQaf.init" unicode="&#x642;" horiz-adv-x="581" arabic-form="initial" 
d="M520 253q0 -63 0.5 -126.5t0.5 -126.5h-536v122h150q-31 24 -50 66.5t-19 86.5q0 60 28.5 108.5t81.5 76.5t121 28q223 0 223 -235zM385 122v142q0 58 -21.5 84t-68.5 26q-45 0 -69.5 -30t-24.5 -86q0 -64 34 -100t95 -36h55zM149 673h119v-111h-119v111zM323 673h118
v-111h-118v111z" />
    <glyph glyph-name="aQaf.medi" unicode="&#x642;" horiz-adv-x="630" arabic-form="medial" 
d="M645 0h-660v122h150q-31 24 -50 66.5t-19 86.5q0 60 28.5 108.5t81.5 76.5t121 28q223 0 223 -235v-131h125v-122zM385 122v142q0 58 -21.5 84t-68.5 26q-45 0 -69.5 -30t-24.5 -86q0 -64 34 -100t95 -36h55zM149 673h119v-111h-119v111zM323 673h118v-111h-118v111z" />
    <glyph glyph-name="aKaf.isol" unicode="&#x643;" horiz-adv-x="828" arabic-form="isolated" 
d="M633 122v592h135v-714h-451q-139 0 -206 60t-67 183q0 68 28 120t82.5 82t130.5 34l16 -119q-67 -5 -96 -32.5t-29 -84.5q0 -63 32.5 -92t102.5 -29h322zM548 416v-47h-178v47h22v48q0 36 20 55.5t57 19.5q36 0 53.5 -15.5t22.5 -52.5l-45 -6q-2 17 -8 23.5t-20 6.5
q-31 0 -31 -35v-44h107z" />
    <glyph glyph-name="aKaf.fina" unicode="&#x643;" horiz-adv-x="883" arabic-form="final" 
d="M633 122v592h135v-592h130v-122h-581q-139 0 -206 60t-67 183q0 68 28 120t82.5 82t130.5 34l16 -119q-67 -5 -96 -32.5t-29 -84.5q0 -63 32.5 -92t102.5 -29h322zM548 416v-47h-178v47h22v48q0 36 20 55.5t57 19.5q36 0 53.5 -15.5t22.5 -52.5l-45 -6q-2 17 -8 23.5
t-20 6.5q-31 0 -31 -35v-44h107z" />
    <glyph glyph-name="aKaf.init" unicode="&#x643;" horiz-adv-x="570" arabic-form="initial" 
d="M510 0h-525v122h390v100q0 58 -16.5 88t-52.5 42t-100 12h-165v108l294 242h179l-295 -239h8q145 0 214 -60.5t69 -188.5v-226z" />
    <glyph glyph-name="aKaf.medi" unicode="&#x643;" horiz-adv-x="620" arabic-form="medial" 
d="M375 222q0 58 -16.5 88t-52.5 42t-100 12h-165v108l294 242h179l-295 -239h8q145 0 214 -60.5t69 -188.5v-104h125v-122h-650v122h390v100z" />
    <glyph glyph-name="aLam.isol" unicode="&#x644;" horiz-adv-x="585" arabic-form="isolated" 
d="M525 8q0 -112 -64.5 -175.5t-177.5 -63.5q-125 0 -186 59.5t-61 181.5q0 37 13 82t35 85l121 -31q-37 -68 -37 -136q0 -64 27 -94.5t83 -30.5q112 0 112 136v693h135v-706z" />
    <glyph glyph-name="aLam.fina" unicode="&#x644;" horiz-adv-x="640" arabic-form="final" 
d="M525 122h130v-122h-130q-1 -70 -30 -122t-83.5 -80.5t-128.5 -28.5q-125 0 -186 59.5t-61 181.5q0 37 13 82t35 85l121 -31q-37 -68 -37 -136q0 -64 27 -94.5t83 -30.5q112 0 112 136v693h135v-592z" />
    <glyph glyph-name="aLam.init" unicode="&#x644;" horiz-adv-x="310" arabic-form="initial" 
d="M-15 122h130v592h135v-714h-265v122z" />
    <glyph glyph-name="aLam.medi" unicode="&#x644;" horiz-adv-x="365" arabic-form="medial" 
d="M-15 122h130v592h135v-592h130v-122h-395v122z" />
    <glyph glyph-name="aMim.isol" unicode="&#x645;" horiz-adv-x="668" arabic-form="isolated" 
d="M30 122h140v131q0 116 58 175.5t172 59.5q103 0 163.5 -62t60.5 -168q0 -125 -77.5 -191.5t-223.5 -66.5h-158v-277h-135v399zM489 258q0 56 -22.5 86t-64.5 30q-50 0 -73.5 -27t-23.5 -83v-142h42q142 0 142 136z" />
    <glyph glyph-name="aMim.fina" unicode="&#x645;" horiz-adv-x="690" arabic-form="final" 
d="M30 122h140v133q0 112 59.5 172.5t170.5 60.5q63 0 114 -26t80.5 -75t29.5 -112q0 -44 -19 -86.5t-50 -66.5h150v-122h-540v-277h-135v399zM360 122q61 0 95 36t34 100q0 55 -23.5 85.5t-66.5 30.5q-48 0 -71 -26.5t-23 -81.5v-144h55z" />
    <glyph glyph-name="aMim.init" unicode="&#x645;" horiz-adv-x="608" arabic-form="initial" 
d="M110 253q0 116 58 175.5t172 59.5q103 0 163.5 -62t60.5 -168q0 -125 -77.5 -191.5t-223.5 -66.5h-278v122h125v131zM429 258q0 56 -22.5 86t-64.5 30q-50 0 -73.5 -27t-23.5 -83v-142h42q142 0 142 136z" />
    <glyph glyph-name="aMim.medi" unicode="&#x645;" horiz-adv-x="630" arabic-form="medial" 
d="M-15 122h125v133q0 112 59.5 172.5t170.5 60.5q63 0 114 -26t80.5 -75t29.5 -112q0 -44 -19 -86.5t-50 -66.5h150v-122h-660v122zM300 122q61 0 95 36t34 100q0 55 -23.5 85.5t-66.5 30.5q-48 0 -71 -26.5t-23 -81.5v-144h55z" />
    <glyph glyph-name="aNun.isol" unicode="&#x646;" horiz-adv-x="567" arabic-form="isolated" 
d="M525 8q0 -113 -62 -176t-174 -63q-253 0 -253 244q0 38 13 84.5t35 85.5l121 -31q-17 -31 -27 -68t-10 -71q0 -63 29.5 -95.5t86.5 -32.5q54 0 80 33.5t26 102.5v451h135v-464zM223 675h122v-113h-122v113z" />
    <glyph glyph-name="aNun.fina" unicode="&#x646;" horiz-adv-x="634" arabic-form="final" 
d="M525 0q-3 -109 -65 -170t-171 -61q-253 0 -253 244q0 38 13 84.5t35 85.5l121 -31q-17 -31 -27 -68t-10 -71q0 -63 29.5 -95.5t86.5 -32.5q54 0 80 33.5t26 102.5v451h135v-350h130v-122h-130zM223 675h122v-113h-122v113z" />
    <glyph glyph-name="aNun.init" unicode="&#x646;" horiz-adv-x="310" arabic-form="initial" 
d="M250 0h-265v122h130v226q0 55 -22 95l123 48q18 -25 26 -55.5t8 -76.5v-359zM113 675h122v-113h-122v113z" />
    <glyph glyph-name="aNun.medi" unicode="&#x646;" horiz-adv-x="365" arabic-form="medial" 
d="M-15 122h130v350h135v-350h130v-122h-395v122zM121 675h122v-113h-122v113z" />
    <glyph glyph-name="aHeh.isol" unicode="&#x647;" horiz-adv-x="558" arabic-form="isolated" 
d="M174 234q0 -138 105 -138t105 138t-105 138t-105 -138zM44 232q0 121 62.5 188.5t174.5 67.5q110 0 171.5 -66.5t61.5 -185.5q0 -124 -61 -190t-176 -66q-110 0 -171.5 66.5t-61.5 185.5z" />
    <glyph glyph-name="aHeh.fina" unicode="&#x647;" horiz-adv-x="608" arabic-form="final" 
d="M498 122h125v-122h-278q-146 0 -223.5 66.5t-77.5 191.5q0 106 62 168t169 62q113 0 168 -58t55 -175v-133zM179 258q0 -136 142 -136h42v108q0 61 -8.5 91t-27.5 41.5t-54 11.5q-46 0 -70 -30t-24 -86z" />
    <glyph glyph-name="aHeh.init" unicode="&#x647;" horiz-adv-x="821" arabic-form="initial" 
d="M-15 122h162q-63 56 -63 148q0 103 56 162t154 59q31 0 68 -8q30 28 75 43.5t98 15.5q112 0 169 -56t57 -165v-321h-776v122zM533 430q-24 0 -38 -3.5t-28 -12.5q38 -47 38 -159v-136h123v197q0 114 -95 114zM374 255q0 65 -18.5 93.5t-60.5 28.5q-37 0 -56.5 -28.5
t-19.5 -83.5q0 -71 40 -108.5t115 -37.5v136z" />
    <glyph glyph-name="aHeh.medi" unicode="&#x647;" horiz-adv-x="608" arabic-form="medial" 
d="M-15 0v122h114v136q0 112 54 171t157 59q102 0 154.5 -52.5t52.5 -153.5q0 -50 -20 -91t-59 -69h185v-122h-150q27 -14 43 -41t16 -58q0 -67 -53.5 -102.5t-154.5 -35.5q-225 0 -225 202v35h-114zM382 259q0 115 -70 115q-41 0 -59.5 -23t-18.5 -75v-158h18
q59 0 94.5 38.5t35.5 102.5zM403 -70q0 35 -34 55t-95 20h-46v-32q0 -50 23 -76t67 -26q85 0 85 59z" />
    <glyph glyph-name="aWaw.isol" unicode="&#x648;" horiz-adv-x="560" arabic-form="isolated" 
d="M500 -12q0 -108 -57.5 -163.5t-168.5 -55.5q-103 0 -161 47.5t-69 140.5h135q7 -40 29.5 -57.5t65.5 -17.5q49 0 70 25t21 81v12h-18q-146 0 -223.5 66.5t-77.5 191.5q0 106 62 168t169 62q113 0 168 -58t55 -175v-267zM181 258q0 -136 142 -136h42v144q0 58 -21 83
t-69 25q-46 0 -70 -30t-24 -86z" />
    <glyph glyph-name="aWaw.fina" unicode="&#x648;" horiz-adv-x="610" arabic-form="final" 
d="M500 122h125v-122h-125q0 -118 -55.5 -174.5t-170.5 -56.5q-103 0 -161 47.5t-69 140.5h135q7 -40 29.5 -57.5t65.5 -17.5q49 0 70 25t21 81v12h-18q-146 0 -223.5 66.5t-77.5 191.5q0 106 62 168t169 62q113 0 168 -58t55 -175v-133zM181 258q0 -136 142 -136h42v108
q0 61 -8.5 91t-27.5 41.5t-54 11.5q-46 0 -70 -30t-24 -86z" />
    <glyph glyph-name="aAlifMaksura.isol" unicode="&#x649;" horiz-adv-x="690" arabic-form="isolated" 
d="M600 353q-75 0 -75 -75v-270q0 -113 -62 -176t-174 -63q-253 0 -253 244q0 38 13 84.5t35 85.5l121 -31q-17 -31 -27 -68t-10 -71q0 -63 29.5 -95.5t86.5 -32.5q54 0 80 33.5t26 102.5v270q0 86 50 133.5t140 47.5h84v-119h-64z" />
    <glyph glyph-name="aAlifMaksura.fina" unicode="&#x649;" horiz-adv-x="922" arabic-form="final" 
d="M525 8q0 -113 -62 -176t-174 -63q-253 0 -253 244q0 38 13 84.5t35 85.5l121 -31q-17 -31 -27 -68t-10 -71q0 -63 29.5 -95.5t86.5 -32.5q54 0 80 33.5t26 102.5v270q0 86 50 133.5t140 47.5h224v-350h133v-122h-268v353h-69q-75 0 -75 -75v-270z" />
    <glyph glyph-name="aYeh.isol" unicode="&#x64a;" horiz-adv-x="690" arabic-form="isolated" 
d="M600 353q-75 0 -75 -75v-270q0 -113 -62 -176t-174 -63q-253 0 -253 244q0 38 13 84.5t35 85.5l121 -31q-17 -31 -27 -68t-10 -71q0 -63 29.5 -95.5t86.5 -32.5q54 0 80 33.5t26 102.5v270q0 86 50 133.5t140 47.5h84v-119h-64zM131 -297h119v-111h-119v111zM305 -297
h118v-111h-118v111z" />
    <glyph glyph-name="aYeh.fina" unicode="&#x64a;" horiz-adv-x="922" arabic-form="final" 
d="M525 8q0 -113 -62 -176t-174 -63q-253 0 -253 244q0 38 13 84.5t35 85.5l121 -31q-17 -31 -27 -68t-10 -71q0 -63 29.5 -95.5t86.5 -32.5q54 0 80 33.5t26 102.5v270q0 86 50 133.5t140 47.5h224v-350h133v-122h-268v353h-69q-75 0 -75 -75v-270zM131 -298h119v-111h-119
v111zM305 -298h118v-111h-118v111z" />
    <glyph glyph-name="aYeh.init" unicode="&#x64a;" horiz-adv-x="310" arabic-form="initial" 
d="M250 0h-265v122h130v226q0 55 -22 95l123 48q18 -25 26 -55.5t8 -76.5v-359zM-42 -81h119v-111h-119v111zM132 -81h118v-111h-118v111z" />
    <glyph glyph-name="aYeh.medi" unicode="&#x64a;" horiz-adv-x="365" arabic-form="medial" 
d="M-15 122h130v350h135v-350h130v-122h-395v122zM-42 -81h119v-111h-119v111zM132 -81h118v-111h-118v111z" />
    <glyph glyph-name=".notdef" horiz-adv-x="500" 
d="M50 0v750h400v-750h-400zM400 50v650h-300v-650h300z" />
    <glyph glyph-name=".null" horiz-adv-x="0" 
 />
    <glyph glyph-name=".null" horiz-adv-x="0" 
 />
    <glyph glyph-name=".null" horiz-adv-x="0" 
 />
    <glyph glyph-name="nonmarkingreturn" unicode="&#x9;" horiz-adv-x="223" 
 />
    <glyph glyph-name="nonmarkingreturn" unicode="&#xd;" horiz-adv-x="223" 
 />
    <glyph glyph-name="space" unicode=" " horiz-adv-x="223" 
 />
    <glyph glyph-name="exclam" unicode="!" horiz-adv-x="274" 
d="M62 714h150l-10 -488h-130zM68 159h138v-159h-138v159z" />
    <glyph glyph-name="quotedbl" unicode="&#x22;" horiz-adv-x="384" 
d="M34 711h138l-7 -271h-124zM212 711h138l-7 -271h-124z" />
    <glyph glyph-name="numbersign" unicode="#" 
d="M98 159h-79v103h96l25 154h-90v102h108l26 160h119l-26 -160h107l26 160h119l-26 -160h67v-102h-83l-25 -154h74v-103h-93l-25 -159h-119l25 159h-107l-25 -159h-119zM341 262l27 154h-107l-27 -154h107z" />
    <glyph glyph-name="dollar" unicode="$" 
d="M260 -15q-62 6 -104.5 25.5t-70 50t-40.5 71.5t-15 89h140q2 -56 23.5 -85t66.5 -37v192q-108 20 -164.5 69.5t-56.5 147.5q0 39 13.5 73.5t41 61.5t69 44t97.5 21v91h65v-92q63 -5 103 -24.5t64.5 -48.5t35.5 -63.5t15 -68.5l-134 -17q-8 55 -27 81.5t-57 32.5v-184
l30 -6q102 -22 150 -71.5t48 -143.5q0 -37 -12.5 -73t-40 -65.5t-71 -49t-104.5 -22.5v-103h-65v104zM325 97q49 5 67 31t18 61q0 26 -18 52t-67 37v-181zM260 600q-25 -3 -41 -11.5t-25.5 -19.5t-13 -24t-3.5 -26q0 -38 20.5 -58.5t62.5 -31.5v171z" />
    <glyph glyph-name="percent" unicode="%" horiz-adv-x="971" 
d="M378 0h-135l348 691h135zM755 -17q-39 0 -73 12.5t-59 38.5t-39 67.5t-14 98.5t14.5 98.5t39.5 68.5t58.5 40t72.5 13q40 0 74 -13t58.5 -40t38.5 -68.5t14 -98.5t-13.5 -98.5t-38.5 -67.5t-59 -38.5t-74 -12.5zM755 81q33 0 51.5 25.5t18.5 93.5t-18.5 94.5t-51.5 26.5
q-32 0 -50.5 -26.5t-18.5 -94.5t18.5 -93.5t50.5 -25.5zM215 271q-39 0 -73 12.5t-59 38.5t-39 67.5t-14 98.5t14.5 98.5t39.5 68.5t58.5 40t72.5 13q40 0 74 -13t58.5 -40t38.5 -68.5t14 -98.5t-13.5 -98.5t-38.5 -67.5t-59 -38.5t-74 -12.5zM215 369q33 0 51.5 25.5
t18.5 93.5t-18.5 94.5t-51.5 26.5q-32 0 -50.5 -26.5t-18.5 -94.5t18.5 -93.5t50.5 -25.5z" />
    <glyph glyph-name="ampersand" unicode="&#x26;" horiz-adv-x="670" 
d="M473 44q-32 -25 -76 -42.5t-104 -17.5q-75 0 -125.5 18t-81 47.5t-43.5 67t-13 76.5q0 38 12 68t32.5 54t47.5 43.5t57 36.5q-27 31 -49 71t-22 86q0 37 13.5 68t38 53.5t59 35.5t76.5 13q46 0 81 -12.5t59 -34t36 -51.5t12 -65q0 -31 -10.5 -57.5t-28.5 -49t-42.5 -41
t-51.5 -34.5l130 -152q13 32 17.5 66.5t4.5 68.5h124q0 -64 -17.5 -121.5t-50.5 -106.5l112 -132h-160zM241 315q-29 -17 -50 -42.5t-21 -61.5q0 -25 7 -46.5t22.5 -37t41 -24.5t63.5 -9q35 0 59 9t40 21zM290 446q30 18 51 44t21 64q0 33 -16.5 50.5t-46.5 17.5
q-31 0 -48.5 -18t-17.5 -55q0 -15 7 -31t16 -30t18.5 -25t15.5 -17z" />
    <glyph glyph-name="quotesingle" unicode="'" horiz-adv-x="206" 
d="M34 711h138l-7 -271h-124z" />
    <glyph glyph-name="parenleft" unicode="(" horiz-adv-x="298" 
d="M160 -124q-28 43 -50.5 93.5t-38 105.5t-23.5 113t-8 117t8 117t23.5 113t38 105.5t50.5 93.5h133q-58 -103 -83.5 -208.5t-25.5 -220.5t25.5 -220.5t83.5 -208.5h-133z" />
    <glyph glyph-name="parenright" unicode=")" horiz-adv-x="298" 
d="M5 -124q58 103 83.5 208.5t25.5 220.5t-25.5 220.5t-83.5 208.5h133q28 -43 50.5 -93.5t38 -105.5t23.5 -113t8 -117t-8 -117t-23.5 -113t-38 -105.5t-50.5 -93.5h-133z" />
    <glyph glyph-name="asterisk" unicode="*" horiz-adv-x="416" 
d="M144 514l-124 28l46 109l103 -60l-25 123h128l-25 -123l103 60l46 -109l-124 -28l100 -99l-98 -70l-66 111l-66 -111l-98 70z" />
    <glyph glyph-name="plus" unicode="+" 
d="M233 280h-175v121h175v190h126v-190h175v-121h-175v-190h-126v190z" />
    <glyph glyph-name="comma" unicode="," horiz-adv-x="246" 
d="M64 161h136l-62 -255h-107z" />
    <glyph glyph-name="hyphen" unicode="-" horiz-adv-x="389" 
d="M45 368h299v-138h-299v138z" />
    <glyph glyph-name="period" unicode="." horiz-adv-x="246" 
d="M52 161h143v-161h-143v161z" />
    <glyph glyph-name="slash" unicode="/" horiz-adv-x="383" 
d="M145 0h-139l232 734h139z" />
    <glyph glyph-name="zero" unicode="0" 
d="M294 -18q-124 0 -192.5 88t-68.5 276q0 94 18.5 162.5t53 113.5t83.5 66.5t110 21.5q124 0 192.5 -88.5t68.5 -275.5q0 -188 -69.5 -276t-195.5 -88zM295 104q33 0 55.5 16.5t36.5 48t20 76t6 101.5t-6 101.5t-20 76t-36.5 48t-55.5 16.5t-55 -16.5t-35.5 -48t-19.5 -76
t-6 -101.5t6 -101.5t19.5 -76t35.5 -48t55 -16.5z" />
    <glyph glyph-name="one" unicode="1" 
d="M275 529l-135 -81l-62 103l221 140h119v-691h-143v529z" />
    <glyph glyph-name="two" unicode="2" 
d="M48 105q43 38 85 72.5t85 72.5q42 37 73.5 67t52.5 58t31.5 55.5t10.5 60.5q0 43 -24.5 70.5t-66.5 27.5q-50 0 -78.5 -22.5t-42.5 -85.5l-136 16q9 43 26 81.5t46.5 68t74.5 46.5t111 17q116 0 176 -57t60 -155q0 -42 -10.5 -77.5t-31.5 -69.5t-53.5 -68.5t-77.5 -74.5
q-24 -20 -48.5 -40t-52.5 -46h284l-15 -122h-479v105z" />
    <glyph glyph-name="three" unicode="3" 
d="M179 219q5 -65 33 -91t82 -26q48 0 78.5 22.5t30.5 74.5q0 51 -25.5 73.5t-84.5 22.5h-70v123h78q89 0 89 89q0 17 -5 32.5t-16 27t-29 18t-45 6.5q-48 0 -77 -22t-42 -78l-134 18q9 43 26.5 80t48 64t74.5 42t105 15q59 0 103 -14.5t73.5 -39.5t44 -59.5t14.5 -73.5
q0 -51 -22.5 -90.5t-70.5 -65.5q60 -25 84.5 -68.5t24.5 -94.5q0 -49 -14 -90t-44.5 -70t-77.5 -45.5t-113 -16.5q-75 0 -124.5 21.5t-79.5 55.5t-43 76.5t-15 83.5h143z" />
    <glyph glyph-name="four" unicode="4" 
d="M26 250l316 441h128v-424h88l-15 -112h-73v-155h-133v155h-311v95zM337 267v241l-168 -241h168z" />
    <glyph glyph-name="five" unicode="5" 
d="M193 201q5 -48 28 -73t78 -25q48 0 75.5 28.5t27.5 94.5q0 59 -26 86.5t-81 27.5q-37 0 -63 -12t-46 -35h-118l34 398h398v-121h-281l-13 -147q24 16 57 23.5t61 7.5q57 0 98 -18.5t67.5 -49.5t39 -72t12.5 -87q0 -60 -17 -106t-48 -77t-74.5 -46.5t-96.5 -15.5
q-117 0 -181.5 53.5t-70.5 165.5h140z" />
    <glyph glyph-name="six" unicode="6" 
d="M412 518q-5 17 -11 31t-16 24t-26 15.5t-41 5.5q-65 0 -96.5 -55t-35.5 -149q29 31 67 45.5t86 15.5q102 0 156 -58.5t54 -170.5q0 -54 -17.5 -98.5t-49.5 -76t-78 -48.5t-104 -17q-74 0 -122.5 28.5t-77 74t-40 102.5t-11.5 114q0 115 21.5 193.5t58.5 126.5t86.5 68.5
t104.5 20.5q103 0 155.5 -43t66.5 -133zM301 94q48 0 80.5 31t32.5 94q0 54 -25 87t-84 33q-21 0 -42 -6t-37 -20t-25.5 -37t-7.5 -58q1 -26 8 -49t20 -39.5t33 -26t47 -9.5z" />
    <glyph glyph-name="seven" unicode="7" 
d="M145 0q48 156 104.5 298t122.5 272h-329v121h488v-108q-75 -139 -131.5 -281t-99.5 -302h-155z" />
    <glyph glyph-name="eight" unicode="8" 
d="M137 357q-87 49 -87 158q0 42 15.5 77.5t46 61.5t76.5 41t106 15q64 0 110.5 -14.5t76.5 -40.5t44 -62t14 -79q0 -107 -87 -156q48 -23 77 -64t29 -98q0 -99 -66 -156.5t-198 -57.5q-131 0 -196 57.5t-65 156.5q0 54 29.5 96t74.5 65zM182 505q0 -48 26.5 -71.5
t86.5 -23.5t85.5 24.5t25.5 72.5q0 39 -24.5 67t-86.5 28q-31 0 -52.5 -8t-35 -21.5t-19.5 -31t-6 -36.5zM170 196q0 -47 29.5 -75t96.5 -28t96.5 29t29.5 76q0 44 -27.5 71.5t-98.5 27.5q-36 0 -60 -7.5t-38.5 -21t-21 -32t-6.5 -40.5z" />
    <glyph glyph-name="nine" unicode="9" 
d="M185 175q5 -37 26 -57.5t73 -20.5q66 0 93 52.5t28 153.5q-29 -31 -67.5 -47.5t-87.5 -16.5q-100 0 -156 59.5t-56 171.5q0 54 17.5 98t50.5 75.5t79.5 49t105.5 17.5q74 0 122.5 -29t77 -76t40 -105.5t11.5 -117.5q0 -124 -19 -202t-52.5 -122t-80.5 -60t-102 -16
q-112 0 -170 47t-66 146h133zM286 350q21 0 42 6.5t37 21.5t25.5 38.5t8.5 57.5q-1 25 -8 48t-20 39.5t-33 26.5t-48 10q-48 0 -81 -31.5t-33 -93.5q0 -52 25.5 -87.5t84.5 -35.5z" />
    <glyph glyph-name="colon" unicode=":" horiz-adv-x="246" 
d="M52 161h143v-161h-143v161zM52 522h143v-161h-143v161z" />
    <glyph glyph-name="semicolon" unicode=";" horiz-adv-x="246" 
d="M64 161h136l-62 -255h-107zM52 522h143v-161h-143v161z" />
    <glyph glyph-name="less" unicode="&#x3c;" 
d="M73 394l458 200v-129l-296 -125l296 -125v-131l-458 200v110z" />
    <glyph glyph-name="equal" unicode="=" 
d="M77 291h438v-121h-438v121zM77 512h438v-121h-438v121z" />
    <glyph glyph-name="greater" unicode="&#x3e;" 
d="M61 213l296 124l-296 126v131l458 -200v-110l-458 -200v129z" />
    <glyph glyph-name="question" unicode="?" horiz-adv-x="513" 
d="M182 249q0 28 8 50.5t21.5 42t30 36.5t34.5 34l24.5 24.5t20.5 25t14 29.5t5 37q0 38 -22.5 59.5t-60.5 21.5q-51 0 -78.5 -23t-39.5 -81l-129 16q8 43 25 80.5t46.5 65t73 43.5t103.5 16q107 0 167.5 -49t60.5 -133q0 -32 -6.5 -56t-17.5 -42.5t-25 -33.5t-29 -30
l-34 -34t-28 -32.5t-19 -34t-7 -38.5v-17h-138v23zM181 159h138v-159h-138v159z" />
    <glyph glyph-name="at" unicode="@" horiz-adv-x="1004" 
d="M830 -46q-16 -34 -46 -65.5t-73.5 -56t-100 -39t-125.5 -14.5q-104 0 -185 31.5t-136.5 87.5t-84.5 134.5t-29 172.5q0 86 22 155.5t59 124t85.5 94t102.5 65t109 38t104 12.5q94 0 172 -25t134 -73.5t87.5 -120.5t31.5 -165q0 -82 -21 -141.5t-55 -97.5t-77 -56.5
t-87 -18.5q-54 0 -87.5 17t-44.5 61q-31 -48 -68 -66.5t-80 -18.5q-42 0 -73.5 15t-53 41.5t-32 61.5t-10.5 76q0 63 17.5 116t48 91.5t73 60t92.5 21.5q33 0 64 -15t53 -50l9 54h125l-56 -325q-1 -5 -1 -13q0 -35 31 -35q24 0 47 13t41 40.5t29 70t11 100.5q0 74 -22.5 128
t-64 89t-100.5 52t-133 17q-75 0 -142 -27.5t-117.5 -78t-80.5 -122.5t-30 -161q0 -72 20 -133t61 -106t102.5 -70t144.5 -25q80 0 131 22.5t80 56.5h129zM582 250q4 24 3.5 46t-8 38.5t-23 26.5t-40.5 10q-22 0 -42.5 -11t-36 -32.5t-25 -54.5t-9.5 -77q0 -51 18.5 -75
t47.5 -24q27 0 46 10t32 26.5t20.5 38.5t11.5 46z" />
    <glyph glyph-name="A" unicode="A" horiz-adv-x="698" 
d="M278 714h142l268 -714h-160l-57 165h-250l-57 -165h-154zM432 288l-87 256l-86 -256h173z" />
    <glyph glyph-name="B" unicode="B" horiz-adv-x="647" 
d="M73 714h257q79 0 130.5 -15t81.5 -41t41.5 -61t11.5 -76q0 -42 -18 -79t-68 -63q32 -17 52.5 -35.5t32 -39.5t16 -43t4.5 -44q0 -45 -13.5 -85t-45 -69t-82.5 -46t-126 -17h-274v714zM347 431q59 0 81 22t22 63q0 44 -28.5 62.5t-96.5 18.5h-108v-166h130zM342 117
q37 0 61.5 7t39.5 20.5t21 31.5t6 41q0 46 -25 70t-88 24h-140v-194h125z" />
    <glyph glyph-name="C" unicode="C" horiz-adv-x="713" 
d="M683 247q-5 -57 -26.5 -105.5t-59 -84t-92 -55.5t-126.5 -20q-81 0 -142.5 27t-103 76t-62.5 118.5t-21 153.5q0 87 23 156t66 118t104 75t138 26q68 0 118.5 -17t85 -49t55.5 -77t31 -101l-148 -19q-11 63 -42.5 99t-99.5 36q-86 0 -130.5 -64.5t-44.5 -182.5
q0 -119 47.5 -183t127.5 -64q69 0 101.5 35.5t40.5 101.5h160z" />
    <glyph glyph-name="D" unicode="D" horiz-adv-x="737" 
d="M73 714h267q164 0 255.5 -89t91.5 -264q0 -89 -25.5 -156t-73.5 -113t-117 -69t-156 -23h-242v714zM318 127q58 0 99 16.5t66.5 47.5t37.5 73.5t12 95.5q0 52 -10.5 94.5t-33.5 71.5t-59.5 45t-89.5 16h-118v-460h96z" />
    <glyph glyph-name="E" unicode="E" horiz-adv-x="604" 
d="M73 714h487v-127h-338v-156h318v-128h-318v-176h359l-15 -127h-493v714z" />
    <glyph glyph-name="F" unicode="F" horiz-adv-x="584" 
d="M73 714h469v-128h-320v-168h301v-128h-301v-290h-149v714z" />
    <glyph glyph-name="G" unicode="G" horiz-adv-x="726" 
d="M402 391h274v-302q-55 -51 -131 -79t-157 -28q-85 0 -148.5 27t-105.5 76t-63 118.5t-21 153.5q0 87 23 156t65.5 118t103.5 75t136 26q69 0 118.5 -17t84 -47t55 -70t29.5 -86l-148 -19q-6 27 -14.5 47.5t-24.5 35t-40 22t-60 7.5q-87 0 -130 -65t-43 -183
q0 -119 43.5 -183.5t141.5 -64.5q47 0 81.5 9.5t66.5 29.5v119h-136v124z" />
    <glyph glyph-name="H" unicode="H" horiz-adv-x="727" 
d="M73 714h149v-276h283v276h149v-714h-149v300h-283v-300h-149v714z" />
    <glyph glyph-name="I" unicode="I" horiz-adv-x="295" 
d="M73 714h149v-714h-149v714z" />
    <glyph glyph-name="J" unicode="J" horiz-adv-x="636" 
d="M179 246q3 -32 10 -57.5t21.5 -43t37 -26.5t56.5 -9q62 0 90 37.5t28 106.5v460h149v-469q0 -65 -19 -114.5t-53.5 -82.5t-83.5 -49.5t-109 -16.5q-132 0 -201 64t-75 200h149z" />
    <glyph glyph-name="K" unicode="K" horiz-adv-x="675" 
d="M73 714h150v-286l263 286h163l-237 -268l263 -446h-166l-201 349l-85 -87v-262h-150v714z" />
    <glyph glyph-name="L" unicode="L" horiz-adv-x="584" 
d="M73 714h149v-586h338l-16 -128h-471v714z" />
    <glyph glyph-name="M" unicode="M" horiz-adv-x="860" 
d="M73 714h179l178 -533l183 533h174v-714h-137v476l-163 -476h-116l-164 475v-475h-134v714z" />
    <glyph glyph-name="N" unicode="N" horiz-adv-x="719" 
d="M73 714h134l294 -468v468h145v-714h-133l-295 464v-464h-145v714z" />
    <glyph glyph-name="O" unicode="O" horiz-adv-x="780" 
d="M391 -18q-80 0 -143 26t-107 75t-67.5 118t-23.5 156t23.5 156t68 118t107.5 75t142 26q80 0 143 -26t106.5 -75t66.5 -118t23 -156t-22.5 -156t-66 -118t-106.5 -75t-144 -26zM390 110q94 0 140 64t46 183q0 118 -46 182.5t-140 64.5t-140 -64.5t-46 -182.5
q0 -119 46 -183t140 -64z" />
    <glyph glyph-name="P" unicode="P" horiz-adv-x="640" 
d="M73 714h255q82 0 135.5 -18.5t85 -49t44 -71t12.5 -84.5q0 -47 -12.5 -90t-44 -75.5t-84 -51.5t-132.5 -19h-112v-255h-147v714zM327 379q39 0 64.5 8t40.5 22t20.5 34.5t5.5 44.5q0 25 -6 44t-21 32t-40.5 20t-64.5 7h-106v-212h107z" />
    <glyph glyph-name="Q" unicode="Q" horiz-adv-x="781" 
d="M545 13q-68 -31 -154 -31q-80 0 -143 26t-107 75t-67.5 118t-23.5 156t23.5 156t68 118t107.5 75t142 26q80 0 143 -26t106.5 -75t66.5 -118t23 -156q0 -88 -23 -156.5t-68 -116.5l87 -107l-90 -76zM375 225l90 76l81 -102q30 57 30 158q0 118 -45.5 182.5t-139.5 64.5
t-140.5 -64.5t-46.5 -182.5q0 -119 46.5 -184.5t140.5 -65.5q19 0 37 2.5t34 8.5z" />
    <glyph glyph-name="R" unicode="R" horiz-adv-x="653" 
d="M73 714h253q84 0 138.5 -19.5t85.5 -51t43 -70t12 -75.5q0 -69 -25 -116t-84 -79l145 -303h-161l-120 268h-140v-268h-147v714zM336 392q35 0 58 7.5t36.5 21t18.5 32.5t5 42q0 19 -6 36.5t-20.5 31t-40 21t-64.5 7.5h-103v-199h116z" />
    <glyph glyph-name="S" unicode="S" horiz-adv-x="645" 
d="M179 233q5 -66 42.5 -96t110.5 -30q35 0 59 7.5t39 20t21.5 29.5t6.5 37q0 28 -21 52.5t-77 35.5l-93 17q-55 10 -97 26t-70.5 41.5t-43.5 62.5t-15 88t20.5 90t57 65t87.5 39.5t112 13.5q78 0 130 -18t84 -47.5t47.5 -68.5t20.5 -81l-141 -18q-11 59 -42.5 85t-95.5 26
q-38 0 -62.5 -6.5t-39.5 -17t-21 -24.5t-6 -29q0 -40 22.5 -60t76.5 -31l98 -19q116 -23 170 -74.5t54 -148.5q0 -47 -17.5 -86.5t-52 -69t-86.5 -46t-122 -16.5q-146 0 -223.5 62.5t-83.5 188.5h151z" />
    <glyph glyph-name="T" unicode="T" horiz-adv-x="620" 
d="M235 585h-215v129h580v-129h-215v-585h-150v585z" />
    <glyph glyph-name="U" unicode="U" horiz-adv-x="693" 
d="M59 714h149v-425q0 -91 32 -135t107 -44t106.5 44t31.5 135v425h149v-425q0 -81 -20 -139t-57 -95.5t-90.5 -55t-120.5 -17.5q-68 0 -121.5 18t-90.5 55.5t-56 96.5t-19 140v422z" />
    <glyph glyph-name="V" unicode="V" horiz-adv-x="697" 
d="M10 714h166l173 -505l178 505h160l-268 -714h-141z" />
    <glyph glyph-name="W" unicode="W" horiz-adv-x="968" 
d="M10 714h168l115 -496l117 492h158l122 -492l108 496h160l-194 -714h-145l-133 528l-129 -528h-141z" />
    <glyph glyph-name="X" unicode="X" horiz-adv-x="684" 
d="M255 376l-232 338h170l147 -228l150 228h160l-228 -342l256 -372h-170l-173 260l-166 -260h-163z" />
    <glyph glyph-name="Y" unicode="Y" horiz-adv-x="657" 
d="M257 291l-247 423h166l154 -289l159 289h158l-241 -423v-291h-149v291z" />
    <glyph glyph-name="Z" unicode="Z" horiz-adv-x="587" 
d="M23 109l357 477h-350v128h528v-110l-356 -476h372l-15 -128h-536v109z" />
    <glyph glyph-name="bracketleft" unicode="[" horiz-adv-x="334" 
d="M72 734h252v-120h-111v-618h111v-120h-252v858z" />
    <glyph glyph-name="backslash" unicode="\" horiz-adv-x="383" 
d="M143 734l234 -734h-137l-234 734h137z" />
    <glyph glyph-name="bracketright" unicode="]" horiz-adv-x="334" 
d="M10 -4h111v618h-111v120h252v-858h-252v120z" />
    <glyph glyph-name="asciicircum" unicode="^" 
d="M239 714h113l203 -418h-146l-114 251l-114 -251h-145z" />
    <glyph glyph-name="underscore" unicode="_" horiz-adv-x="500" 
d="M0 -123h500v-52h-500v52z" />
    <glyph glyph-name="grave" unicode="`" 
d="M156 749h159l120 -155h-129z" />
    <glyph glyph-name="a" unicode="a" horiz-adv-x="561" 
d="M372 66q-31 -35 -69.5 -57t-99.5 -22q-35 0 -66.5 9t-55 28t-37.5 48.5t-14 70.5q0 54 24 88t63 53t87.5 27t98.5 10l67 3v26q0 48 -26.5 66t-62.5 18q-83 0 -95 -63l-128 12q14 82 72 118.5t156 36.5q60 0 102 -14.5t67.5 -41.5t37 -65.5t11.5 -86.5v-330h-132v66z
M369 233l-62 -3q-44 -2 -71 -9t-41.5 -17.5t-19.5 -24.5t-5 -31q0 -26 18 -41t50 -15q54 0 88 25q19 14 31 35.5t12 53.5v27z" />
    <glyph glyph-name="b" unicode="b" horiz-adv-x="623" 
d="M62 714h140v-255q59 79 160 79q109 0 163 -74t54 -203q0 -62 -15.5 -113t-45 -87.5t-71.5 -56.5t-95 -20q-42 0 -81 16t-73 58v-58h-136v714zM201 257q0 -51 8.5 -81.5t27.5 -49.5q20 -18 40.5 -23.5t41.5 -5.5q23 0 44 9t36.5 28.5t24.5 50.5t9 75q0 46 -8.5 77
t-23.5 50.5t-35.5 28t-43.5 8.5q-26 0 -45 -7t-37 -22q-20 -19 -29.5 -48t-9.5 -74v-16z" />
    <glyph glyph-name="c" unicode="c" horiz-adv-x="569" 
d="M531 189q-8 -94 -64.5 -149.5t-169.5 -55.5q-66 0 -114 20t-78.5 56t-45.5 87t-15 113t17.5 113.5t50.5 88t81 56.5t110 20q53 0 92.5 -13.5t66.5 -37.5t42 -57.5t20 -73.5l-141 -19q-5 40 -23 64.5t-62 24.5q-32 0 -53 -13.5t-33.5 -36.5t-17.5 -52.5t-5 -61.5
q0 -33 5 -63t17 -53t33 -36.5t53 -13.5q42 0 65 24t27 69h142z" />
    <glyph glyph-name="d" unicode="d" horiz-adv-x="622" 
d="M424 69q-60 -85 -162 -85q-110 0 -164 74t-54 205q0 61 15.5 111.5t44.5 87t71 56.5t95 20q39 0 77.5 -14t72.5 -54v244h140v-714h-136v69zM421 267q0 50 -8.5 80t-27.5 49q-18 18 -39.5 23.5t-42.5 5.5q-23 0 -43.5 -9t-36 -28t-24.5 -50t-9 -74q0 -47 8.5 -78.5
t23.5 -51t35 -28t43 -8.5q50 0 82 29q20 20 29.5 48.5t9.5 73.5v18z" />
    <glyph glyph-name="e" unicode="e" horiz-adv-x="589" 
d="M540 163q-14 -88 -70.5 -133.5t-164.5 -45.5q-130 0 -195.5 72t-65.5 204q0 66 19 117.5t53.5 87.5t82.5 54.5t106 18.5q120 0 180.5 -69t60.5 -186v-56h-362q2 -63 32 -98.5t90 -35.5q83 0 98 70h136zM411 319q0 54 -26.5 84t-82.5 30q-28 0 -49 -9t-35.5 -24.5
t-22.5 -36t-9 -44.5h225z" />
    <glyph glyph-name="f" unicode="f" horiz-adv-x="379" 
d="M96 413h-82v109h82v17q0 48 14 83t38.5 57t57.5 32.5t72 10.5q25 0 52.5 -3t56.5 -12l-19 -102q-32 8 -61 8q-27 0 -49 -15.5t-22 -55.5v-20h121v-109h-121v-413h-140v413z" />
    <glyph glyph-name="g" unicode="g" horiz-adv-x="623" 
d="M208 -33q4 -20 11.5 -32t20 -19t30 -9.5t42.5 -2.5q39 0 61 14.5t32.5 38.5t13 55t2.5 64v16q-26 -38 -66.5 -57.5t-91.5 -19.5q-110 0 -164.5 71t-54.5 191q0 57 15.5 105t44.5 82.5t71.5 54t95.5 19.5q42 0 81.5 -16t72.5 -59v59h136v-449q0 -66 -13.5 -117.5
t-43 -87.5t-77 -54.5t-115.5 -18.5q-63 0 -107.5 10.5t-73.5 32t-44.5 54t-20.5 75.5h142zM422 279q0 47 -10.5 76t-27.5 44.5t-38 20.5t-42 5q-23 0 -43.5 -8t-36 -26t-24.5 -46t-9 -67q0 -83 31.5 -117.5t78.5 -34.5q26 0 48.5 7.5t38.5 24t25 43t9 64.5v14z" />
    <glyph glyph-name="h" unicode="h" 
d="M62 714h140v-258q31 42 72 62t86 20q89 0 132 -46.5t43 -146.5v-345h-140v326q0 55 -21 75t-56 20q-27 0 -46.5 -8t-36.5 -23q-14 -14 -23.5 -33.5t-9.5 -42.5v-314h-140v714z" />
    <glyph glyph-name="i" unicode="i" horiz-adv-x="266" 
d="M63 522h140v-522h-140v522zM61 714h144v-126h-144v126z" />
    <glyph glyph-name="j" unicode="j" horiz-adv-x="266" 
d="M61 714h144v-126h-144v126zM-56 -63q32 -8 59 -8t43.5 12.5t16.5 53.5v527h140v-524q0 -96 -43.5 -139.5t-128.5 -43.5q-25 0 -51.5 4t-55.5 13z" />
    <glyph glyph-name="k" unicode="k" horiz-adv-x="577" 
d="M62 714h137v-374l201 182h162l-190 -180l205 -342h-151l-154 264l-73 -66v-198h-137v714z" />
    <glyph glyph-name="l" unicode="l" horiz-adv-x="266" 
d="M63 714h140v-714h-140v714z" />
    <glyph glyph-name="m" unicode="m" horiz-adv-x="875" 
d="M62 522h136v-70q29 44 68 65t82 21q57 0 93 -23t51 -67q36 48 76 69t88 21q81 0 121.5 -44.5t40.5 -144.5v-349h-140v330q0 28 -5 45.5t-13.5 27.5t-20.5 14t-25 4q-21 0 -38.5 -7t-34.5 -24q-14 -14 -22.5 -32t-8.5 -38v-320h-140v330q0 28 -5 45.5t-13.5 27.5t-20.5 14
t-25 4q-21 0 -38.5 -7t-34.5 -24q-14 -14 -22.5 -33.5t-8.5 -42.5v-314h-140v522z" />
    <glyph glyph-name="n" unicode="n" 
d="M62 522h136v-72q31 46 73.5 67t88.5 21q89 0 132 -46.5t43 -146.5v-345h-140v326q0 55 -21 75t-56 20q-27 0 -46.5 -8t-36.5 -23q-14 -14 -23.5 -33.5t-9.5 -42.5v-314h-140v522z" />
    <glyph glyph-name="o" unicode="o" horiz-adv-x="616" 
d="M308 -16q-126 0 -195 72t-69 206q0 64 18.5 115.5t53 87t83.5 54.5t109 19q61 0 110 -19t83.5 -54.5t52.5 -87t18 -115.5q0 -65 -18.5 -116.5t-53 -87.5t-83.5 -55t-109 -19zM308 96q60 0 89.5 43t29.5 123t-29.5 122t-89.5 42t-89.5 -42t-29.5 -122q0 -81 29 -123.5
t90 -42.5z" />
    <glyph glyph-name="p" unicode="p" horiz-adv-x="623" 
d="M62 522h136v-69q60 85 164 85q109 0 163 -74t54 -203q0 -62 -15.5 -113t-45 -87.5t-71.5 -56.5t-95 -20q-39 0 -77.5 14t-72.5 56v-248h-140v716zM201 257q0 -51 8.5 -81.5t27.5 -49.5q20 -18 40.5 -23.5t41.5 -5.5q23 0 44 9t36.5 28.5t24.5 50.5t9 75q0 46 -8.5 77
t-23.5 50.5t-35.5 28t-43.5 8.5q-26 0 -45 -7t-37 -22q-20 -19 -29.5 -48t-9.5 -74v-16z" />
    <glyph glyph-name="q" unicode="q" horiz-adv-x="623" 
d="M421 65q-27 -40 -70 -60.5t-88 -20.5q-111 0 -165 74t-54 205q0 61 15.5 111.5t44.5 87t71.5 56.5t95.5 20q42 0 81.5 -16t72.5 -59v59h136v-716h-140v259zM422 267q0 50 -8.5 80t-27.5 49q-18 18 -39.5 23.5t-42.5 5.5q-23 0 -43.5 -9t-36 -28t-24.5 -50t-9 -74
q0 -47 8.5 -78.5t23.5 -51t35 -28t43 -8.5q50 0 82 29q20 20 29.5 48.5t9.5 73.5v18z" />
    <glyph glyph-name="r" unicode="r" horiz-adv-x="419" 
d="M62 522h136v-73q26 41 63 61.5t78 20.5q20 0 33 -1.5t23 -3.5l-17 -127q-24 6 -59 6q-23 0 -44 -5.5t-38 -20.5q-18 -16 -26.5 -36t-8.5 -41v-302h-140v522z" />
    <glyph glyph-name="s" unicode="s" horiz-adv-x="537" 
d="M163 166q7 -46 37 -60t72 -14q50 0 71.5 12.5t21.5 40.5q0 20 -13.5 35t-51.5 21l-72 12q-95 15 -141.5 51.5t-46.5 110.5q0 38 16.5 68t46.5 51t71.5 32.5t91.5 11.5q62 0 104 -12.5t68.5 -33.5t40 -50t19.5 -62l-125 -16q-9 36 -31.5 53t-72.5 17q-28 0 -46.5 -4.5
t-29 -11.5t-15 -16t-4.5 -17q0 -25 15.5 -36.5t60.5 -19.5l66 -11q55 -9 91 -23t57.5 -34.5t30 -48.5t8.5 -65q0 -74 -56 -118.5t-173 -44.5q-47 0 -89.5 8.5t-76 29.5t-55 56t-24.5 88h134z" />
    <glyph glyph-name="t" unicode="t" horiz-adv-x="379" 
d="M94 413h-82v109h82v139h140v-139h120v-109h-120v-241q0 -41 17 -55.5t44 -14.5q14 0 28.5 1.5t28.5 5.5l20 -103q-29 -9 -56.5 -12.5t-52.5 -3.5q-86 0 -127.5 41t-41.5 138v244z" />
    <glyph glyph-name="u" unicode="u" horiz-adv-x="587" 
d="M57 522h140v-326q0 -56 20 -75.5t55 -19.5q27 0 44.5 8t33.5 23q16 14 25.5 33.5t9.5 42.5v314h140v-522h-136v72q-32 -46 -72.5 -67t-86.5 -21q-89 0 -131 46.5t-42 146.5v345z" />
    <glyph glyph-name="v" unicode="v" horiz-adv-x="567" 
d="M8 522h162l117 -363l117 363h155l-206 -522h-140z" />
    <glyph glyph-name="w" unicode="w" horiz-adv-x="773" 
d="M6 522h152l73 -346l100 342h122l95 -342l73 346h146l-152 -522h-136l-93 344l-94 -344h-134z" />
    <glyph glyph-name="x" unicode="x" horiz-adv-x="547" 
d="M197 268l-171 254h165l89 -149l100 149h146l-169 -246l182 -276h-162l-106 170l-111 -170h-152z" />
    <glyph glyph-name="y" unicode="y" horiz-adv-x="567" 
d="M76 -74q29 -8 59 -8q28 0 45 13.5t29 47.5l16 44l-217 499h162l122 -343l114 343h153l-211 -537q-18 -45 -34 -78.5t-36.5 -56t-49 -33.5t-70.5 -11q-26 0 -51.5 3.5t-53.5 12.5z" />
    <glyph glyph-name="z" unicode="z" horiz-adv-x="500" 
d="M37 95l254 318h-249v109h427v-95l-253 -318h265l-13 -109h-431v95z" />
    <glyph glyph-name="braceleft" unicode="{" horiz-adv-x="333" 
d="M94 177q0 32 -15.5 51t-47.5 19h-9v116h9q32 0 47.5 19t15.5 51v153q0 75 40 111.5t104 36.5h90v-117h-45q-26 0 -42 -11t-16 -36v-168q0 -28 -13 -55.5t-50 -41.5q37 -14 50 -41.5t13 -55.5v-168q0 -25 16 -36t42 -11h45v-117h-90q-64 0 -104 36.5t-40 111.5v153z" />
    <glyph glyph-name="bar" unicode="|" horiz-adv-x="276" 
d="M72 734h132v-858h-132v858z" />
    <glyph glyph-name="braceright" unicode="}" horiz-adv-x="333" 
d="M5 -7h45q26 0 42 11t16 36v168q0 28 13 55.5t52 41.5q-39 14 -52 41.5t-13 55.5v168q0 25 -16 36t-42 11h-45v117h90q65 0 104.5 -36.5t39.5 -111.5v-153q0 -32 16.5 -51t46.5 -19h9v-116h-9q-30 0 -46.5 -19t-16.5 -51v-153q0 -75 -39.5 -111.5t-104.5 -36.5h-90v117z
" />
    <glyph glyph-name="asciitilde" unicode="~" 
d="M30 226q0 110 39 160t124 50q32 0 58 -11.5t48.5 -25t42 -24.5t39.5 -11q55 0 55 70h125q0 -109 -38.5 -159.5t-123.5 -50.5q-32 0 -58 11.5t-48.5 25.5t-42.5 25.5t-39 11.5q-55 0 -55 -72h-126z" />
    <glyph glyph-name="uni00A0" unicode="&#xa0;" horiz-adv-x="223" 
 />
    <glyph glyph-name="exclamdown" unicode="&#xa1;" horiz-adv-x="274" 
d="M72 296h130l10 -490h-150zM68 522h138v-159h-138v159z" />
    <glyph glyph-name="cent" unicode="&#xa2;" 
d="M275 85q-57 5 -97.5 27t-67 57t-39 82t-12.5 102q0 56 14.5 103t42 82t67.5 57.5t92 28.5v95h65v-93q47 -3 82.5 -17t60 -38t38.5 -56t19 -70l-139 -21q-4 32 -18 55.5t-43 31.5v-313q58 13 64 90h142q-8 -88 -57 -142.5t-149 -61.5v-94h-65v95zM275 509q-22 -7 -36 -22
t-22.5 -35.5t-12 -45t-3.5 -50.5t3.5 -51t11.5 -46t22.5 -36.5t36.5 -22.5v309z" />
    <glyph glyph-name="sterling" unicode="&#xa3;" 
d="M76 99q30 35 43.5 69.5t13.5 79.5q0 11 -0.5 21.5t-2.5 24.5h-77v109h63q-3 17 -6 36.5t-3 45.5q0 59 18 101.5t48.5 70t70.5 40.5t84 13q62 0 102 -14.5t64 -39t36 -56.5t17 -66l-119 -18q-9 37 -28 58t-65 21q-50 0 -74 -28.5t-24 -76.5q0 -36 3.5 -52.5t5.5 -34.5h210
v-109h-195q1 -9 1 -18.5v-18.5q0 -36 -10 -72t-31 -65h342l-16 -120h-472z" />
    <glyph glyph-name="currency" unicode="&#xa4;" 
d="M102 194q-18 30 -28 66t-10 74q0 41 10 76.5t28 66.5l-60 60l84 81l62 -68q24 13 51 20.5t59 7.5q29 0 55.5 -7.5t50.5 -20.5l62 68l83 -81l-59 -60q18 -31 28 -66.5t10 -74.5q0 -40 -10 -76t-28 -66l59 -61l-83 -80l-62 67q-24 -12 -50.5 -19.5t-55.5 -7.5
q-32 0 -59 7.5t-51 19.5l-62 -67l-84 80zM296 189q32 0 54.5 11t36.5 30.5t20.5 46t6.5 58.5t-6.5 59t-20.5 46.5t-36.5 30.5t-54.5 11t-54.5 -11t-36.5 -30.5t-20.5 -46.5t-6.5 -59t6.5 -58.5t20.5 -46t36.5 -30.5t54.5 -11z" />
    <glyph glyph-name="yen" unicode="&#xa5;" 
d="M61 232h168v69h-168v97h108l-158 293h147l141 -286l143 286h139l-157 -293h110v-97h-168v-69h168v-97h-168v-135h-137v135h-168v97z" />
    <glyph glyph-name="brokenbar" unicode="&#xa6;" horiz-adv-x="276" 
d="M72 734h132v-336h-132v336zM72 229h132v-353h-132v353z" />
    <glyph glyph-name="section" unicode="&#xa7;" horiz-adv-x="558" 
d="M174 85q4 -29 13 -47.5t22.5 -29t32.5 -14.5t44 -4q52 0 73 16t21 42q0 20 -12 38.5t-57 29.5l-98 23q-47 12 -79 27.5t-51.5 36.5t-27.5 48.5t-8 62.5q0 43 22 72.5t62 50.5q-38 19 -60 51t-22 84q0 37 16.5 66.5t47.5 50.5t74 32t96 11q63 0 105 -13.5t69 -36t41 -51
t21 -57.5l-126 -30q-7 21 -15.5 35.5t-21.5 23.5t-30.5 13.5t-42.5 4.5q-54 0 -75 -16.5t-21 -39.5q0 -9 2 -18t9 -17t20.5 -14.5t36.5 -12.5l107 -27q84 -22 120.5 -59t36.5 -93q0 -49 -19 -83.5t-67 -59.5q39 -21 60.5 -52t21.5 -82q0 -42 -16 -73.5t-45.5 -52.5
t-71 -31.5t-91.5 -10.5q-54 0 -98 10t-77 33.5t-53.5 63t-26.5 99.5h138zM279 230q8 -2 18 -3t20 -1q16 0 31 3.5t27 12t19 22t7 33.5q0 11 -2.5 22.5t-10.5 22t-23 20t-40 15.5l-51 13q-8 2 -16.5 3t-16.5 1q-32 0 -54.5 -17.5t-22.5 -56.5q0 -11 2.5 -23t10 -22.5
t22.5 -20t41 -15.5z" />
    <glyph glyph-name="dieresis" unicode="&#xa8;" 
d="M130 733h130v-125h-130v125zM332 733h130v-125h-130v125z" />
    <glyph glyph-name="copyright" unicode="&#xa9;" horiz-adv-x="777" 
d="M389 0q-76 0 -139.5 25.5t-109 72t-70.5 112.5t-25 147t27 147t73.5 112.5t109 72t134.5 25.5q76 0 139 -25.5t108 -72t70 -112.5t25 -147t-26.5 -147t-73 -112.5t-108.5 -72t-134 -25.5zM389 72q57 0 105 20t83 57t54.5 90t19.5 118t-19.5 117.5t-54.5 89.5t-83 57
t-105 20q-58 0 -106.5 -20t-83.5 -57t-54.5 -89.5t-19.5 -117.5t19.5 -118t54.5 -90t83.5 -57t106.5 -20zM568 308q-6 -71 -49 -112.5t-128 -41.5q-49 0 -84.5 15t-59 42t-34.5 64t-11 81q0 45 13 82.5t38 64.5t61 42t82 15q79 0 119.5 -38t47.5 -98l-105 -17q-5 29 -20 49
t-46 20q-24 0 -40 -10t-25.5 -26.5t-13.5 -38t-4 -43.5q0 -24 4 -45.5t13 -38t25 -26.5t40 -10q63 0 69 70h108z" />
    <glyph glyph-name="ordfeminine" unicode="&#xaa;" horiz-adv-x="426" 
d="M282 385q-23 -26 -51 -41.5t-73 -15.5q-27 0 -50.5 7t-41 21.5t-27.5 36t-10 51.5q0 40 18 65t47 40t65.5 21t74.5 8l46 2v12q0 35 -18.5 48t-46.5 13q-35 0 -50 -13t-19 -32l-97 9q12 60 54 87.5t116 27.5q46 0 77 -10.5t50 -30t27.5 -47.5t8.5 -63v-243h-100v47z
M280 510l-43 -2q-34 -2 -54 -6.5t-31 -12.5t-14.5 -18.5t-3.5 -23.5q0 -39 50 -39q40 0 64 18q32 22 32 65v19z" />
    <glyph glyph-name="guillemotleft" unicode="&#xab;" horiz-adv-x="547" 
d="M35 258l128 224h144l-116 -223l116 -229h-146zM255 258l128 224h144l-116 -223l116 -229h-146z" />
    <glyph glyph-name="logicalnot" unicode="&#xac;" 
d="M72 441h438v-270h-125v149h-313v121z" />
    <glyph glyph-name="uni00AD" unicode="&#xad;" horiz-adv-x="389" 
d="M45 368h299v-138h-299v138z" />
    <glyph glyph-name="registered" unicode="&#xae;" horiz-adv-x="489" 
d="M158 622h82q29 0 47.5 -5.5t29 -14.5t14 -20.5t3.5 -23.5q0 -23 -7.5 -36.5t-26.5 -24.5l45 -87h-60l-36 75h-38v-75h-53v212zM245 528q21 0 27.5 7.5t6.5 19.5t-8.5 18.5t-31.5 6.5h-28v-52h34zM244 292q-48 0 -87.5 15t-67.5 43.5t-43.5 69.5t-15.5 92t16.5 91.5
t45.5 69t68 44t84 15.5q49 0 88.5 -15.5t67.5 -44t43.5 -69t15.5 -91.5t-16.5 -92t-45.5 -69.5t-68.5 -43.5t-84.5 -15zM244 341q71 0 114.5 44t43.5 127t-43.5 127t-114.5 44t-114 -44t-43 -127t43 -127t114 -44z" />
    <glyph glyph-name="macron" unicode="&#xaf;" 
d="M150 719h292v-107h-292v107z" />
    <glyph glyph-name="degree" unicode="&#xb0;" horiz-adv-x="352" 
d="M30 566q0 30 11 56.5t30.5 46t46.5 30.5t59 11q31 0 58 -11t46 -30.5t30 -46t11 -56.5q0 -31 -11 -58t-30 -46.5t-46 -30.5t-58 -11q-32 0 -59 11t-46.5 30.5t-30.5 46.5t-11 58zM177 501q27 0 43.5 17.5t16.5 47.5q0 29 -16.5 46.5t-43.5 17.5q-29 0 -45.5 -17.5
t-16.5 -46.5q0 -30 16.5 -47.5t45.5 -17.5z" />
    <glyph glyph-name="plusminus" unicode="&#xb1;" 
d="M77 121h156v159h-175v121h175v190h126v-190h175v-121h-175v-159h156v-121h-438v121z" />
    <glyph glyph-name="twosuperior" unicode="&#xb2;" horiz-adv-x="412" 
d="M55 362q13 12 36 29.5t67 55.5q24 21 41.5 36.5t29 30t17 29t5.5 32.5q0 20 -11.5 32.5t-34.5 12.5q-26 0 -41.5 -13.5t-22.5 -52.5l-102 13q6 28 17.5 54t31.5 45t50 30.5t73 11.5q72 0 110 -34.5t38 -94.5q0 -20 -4.5 -37.5t-14.5 -34t-24.5 -34t-33.5 -36.5
q-14 -14 -33 -28.5t-39 -31.5h154l-11 -89h-298v74z" />
    <glyph glyph-name="threesuperior" unicode="&#xb3;" horiz-adv-x="412" 
d="M146 421q4 -38 21.5 -54t46.5 -16q28 0 46 11.5t18 43.5q0 24 -17.5 36t-45.5 12h-42v80h43q27 0 41 13.5t14 34.5q0 23 -13.5 34.5t-43.5 11.5q-26 0 -43 -12.5t-23 -47.5l-94 13q11 56 48.5 91.5t114.5 35.5q78 0 114 -33.5t36 -84.5q0 -29 -14.5 -51t-40.5 -39
q32 -13 48 -39t16 -54q0 -61 -37 -98.5t-122 -37.5q-47 0 -78 13.5t-50 34.5t-27.5 48t-9.5 54h94z" />
    <glyph glyph-name="acute" unicode="&#xb4;" 
d="M276 749h159l-150 -155h-129z" />
    <glyph glyph-name="mu" unicode="&#xb5;" 
d="M62 522h140v-326q0 -56 20 -75.5t55 -19.5q27 0 44.5 8t33.5 23q16 14 25.5 33.5t9.5 42.5v314h140v-522h-136v72q-23 -40 -53.5 -62t-71.5 -22q-18 0 -35.5 4.5t-31.5 20.5v-207h-140v716z" />
    <glyph glyph-name="paragraph" unicode="&#xb6;" horiz-adv-x="655" 
d="M240 262q-62 5 -105 25t-69.5 50.5t-38.5 69t-12 80.5q0 46 15 87.5t50 72.5t93 49t144 18h273v-853h-132v739h-86v-739h-132v401z" />
    <glyph glyph-name="periodcentered" unicode="&#xb7;" horiz-adv-x="246" 
d="M52 453h143v-161h-143v161z" />
    <glyph glyph-name="cedilla" unicode="&#xb8;" 
d="M190 -142q26 -4 42.5 -5t29.5 -1q44 0 44 28q0 14 -12 21t-44 7h-36l39 100h77l-20 -55q27 -4 45 -12t28 -19.5t14 -25t4 -27.5q0 -46 -37.5 -66t-100.5 -20q-14 0 -31.5 1t-41.5 5v69z" />
    <glyph glyph-name="onesuperior" unicode="&#xb9;" horiz-adv-x="412" 
d="M175 589l-93 -50l-40 73l141 79h98v-403h-106v301z" />
    <glyph glyph-name="ordmasculine" unicode="&#xba;" horiz-adv-x="421" 
d="M210 321q-92 0 -144.5 53.5t-52.5 152.5q0 97 54 151t143 54q91 0 144.5 -54t53.5 -151q0 -48 -14.5 -86.5t-40.5 -65t-62.5 -40.5t-80.5 -14zM210 411q44 0 65.5 30.5t21.5 85.5t-21 85t-66 30q-43 0 -64.5 -30t-21.5 -85q0 -56 20.5 -86t65.5 -30z" />
    <glyph glyph-name="guillemotright" unicode="&#xbb;" horiz-adv-x="547" 
d="M136 254l-116 228h147l125 -227l-127 -225h-145zM356 254l-116 228h147l125 -227l-127 -225h-145z" />
    <glyph glyph-name="onequarter" unicode="&#xbc;" horiz-adv-x="937" 
d="M342 0h-135l348 691h135zM550 144l195 259h92v-242h52l-10 -80h-42v-81h-95v81h-192v63zM742 161v124l-92 -124h92zM146 589l-93 -50l-40 73l141 79h98v-403h-106v301z" />
    <glyph glyph-name="onehalf" unicode="&#xbd;" horiz-adv-x="937" 
d="M313 0h-135l348 691h135zM570 74q13 12 36 29.5t67 55.5q24 21 41.5 36.5t29 30t17 29t5.5 32.5q0 20 -11.5 32.5t-34.5 12.5q-26 0 -41.5 -13.5t-22.5 -52.5l-102 13q6 28 17.5 54t31.5 45t50 30.5t73 11.5q72 0 110 -34.5t38 -94.5q0 -20 -4.5 -37.5t-14.5 -34
t-24.5 -34t-33.5 -36.5q-14 -14 -33 -28.5t-39 -31.5h154l-11 -89h-298v74zM146 589l-93 -50l-40 73l141 79h98v-403h-106v301z" />
    <glyph glyph-name="threequarters" unicode="&#xbe;" horiz-adv-x="937" 
d="M390 0h-135l348 691h135zM550 144l195 259h92v-242h52l-10 -80h-42v-81h-95v81h-192v63zM742 161v124l-92 -124h92zM146 421q4 -38 21.5 -54t46.5 -16q28 0 46 11.5t18 43.5q0 24 -17.5 36t-45.5 12h-42v80h43q27 0 41 13.5t14 34.5q0 23 -13.5 34.5t-43.5 11.5
q-26 0 -43 -12.5t-23 -47.5l-94 13q11 56 48.5 91.5t114.5 35.5q78 0 114 -33.5t36 -84.5q0 -29 -14.5 -51t-40.5 -39q32 -13 48 -39t16 -54q0 -61 -37 -98.5t-122 -37.5q-47 0 -78 13.5t-50 34.5t-27.5 48t-9.5 54h94z" />
    <glyph glyph-name="questiondown" unicode="&#xbf;" horiz-adv-x="499" 
d="M478 1q-8 -43 -25 -80.5t-46.5 -65t-73 -43.5t-103.5 -16q-107 0 -167.5 49t-60.5 133q0 32 6.5 56t17.5 42.5t25 33.5t29 30l34 34t28 32.5t19 34t7 38.5v17h138v-23q0 -28 -8 -50.5t-21.5 -42t-30 -36.5t-34.5 -34l-24.5 -24.5t-20.5 -25t-14 -29.5t-5 -37
q0 -38 22.5 -59.5t60.5 -21.5q51 0 78.5 23t39.5 81zM169 522h138v-159h-138v159z" />
    <glyph glyph-name="Agrave" unicode="&#xc0;" horiz-adv-x="698" 
d="M278 714h142l268 -714h-160l-57 165h-250l-57 -165h-154zM432 288l-87 256l-86 -256h173zM315 917l128 -145h-131l-159 145h162z" />
    <glyph glyph-name="Aacute" unicode="&#xc1;" horiz-adv-x="698" 
d="M278 714h142l268 -714h-160l-57 165h-250l-57 -165h-154zM432 288l-87 256l-86 -256h173zM382 917h162l-159 -145h-131z" />
    <glyph glyph-name="Acircumflex" unicode="&#xc2;" horiz-adv-x="698" 
d="M278 714h142l268 -714h-160l-57 165h-250l-57 -165h-154zM432 288l-87 256l-86 -256h173zM277 917h141l121 -145h-120l-72 72l-71 -72h-120z" />
    <glyph glyph-name="Atilde" unicode="&#xc3;" horiz-adv-x="698" 
d="M278 714h142l268 -714h-160l-57 165h-250l-57 -165h-154zM432 288l-87 256l-86 -256h173zM151 773q0 75 33.5 108.5t90.5 33.5q21 0 38.5 -7t33 -15t30 -15t28.5 -7q19 0 29.5 8t10.5 32h99q0 -75 -33 -108t-90 -33q-21 0 -39 7t-33 15.5t-29 15.5t-28 7q-20 0 -31 -8.5
t-11 -33.5h-99z" />
    <glyph glyph-name="Adieresis" unicode="&#xc4;" horiz-adv-x="698" 
d="M278 714h142l268 -714h-160l-57 165h-250l-57 -165h-154zM432 288l-87 256l-86 -256h173zM177 911h134v-129h-134v129zM385 911h134v-129h-134v129z" />
    <glyph glyph-name="Aring" unicode="&#xc5;" horiz-adv-x="698" 
d="M272 699q-20 14 -32.5 38t-12.5 58q0 30 9.5 52.5t26 37t38.5 22t46 7.5t46 -7.5t38.5 -22t26.5 -37t10 -52.5q0 -33 -12 -56.5t-32 -37.5l264 -701h-160l-57 165h-250l-57 -165h-154zM432 288l-87 256l-86 -256h173zM347 748q46 0 46 47q0 26 -12 37.5t-34 11.5
q-21 0 -33 -11.5t-12 -37.5q0 -25 12 -36t33 -11z" />
    <glyph glyph-name="AE" unicode="&#xc6;" horiz-adv-x="1052" 
d="M415 714h593v-127h-317v-156h298v-128h-298v-176h338l-15 -127h-467v214h-262l-118 -214h-167zM547 337v250h-56l-138 -250h194z" />
    <glyph glyph-name="Ccedilla" unicode="&#xc7;" horiz-adv-x="713" 
d="M270 -147q27 -5 44 -6t30 -1q25 0 35.5 8t10.5 22t-12.5 21t-45.5 7h-37l32 81q-68 8 -120 38.5t-87 78.5t-52.5 113t-17.5 142q0 87 23 156t66 118t104 75t138 26q68 0 118.5 -17t85 -49t55.5 -77t31 -101l-148 -19q-11 63 -42.5 99t-99.5 36q-86 0 -130.5 -64.5
t-44.5 -182.5q0 -119 47.5 -183t127.5 -64q69 0 101.5 35.5t40.5 101.5h160q-5 -54 -25 -101t-54.5 -82t-84 -56t-114.5 -25l-12 -34q29 -3 47.5 -11.5t29.5 -20t15 -25t4 -28.5q0 -47 -39 -67t-105 -20q-14 0 -31.5 1t-43.5 5v70z" />
    <glyph glyph-name="Egrave" unicode="&#xc8;" horiz-adv-x="604" 
d="M73 714h487v-127h-338v-156h318v-128h-318v-176h359l-15 -127h-493v714zM300 917l128 -145h-131l-159 145h162z" />
    <glyph glyph-name="Eacute" unicode="&#xc9;" horiz-adv-x="604" 
d="M73 714h487v-127h-338v-156h318v-128h-318v-176h359l-15 -127h-493v714zM346 917h162l-159 -145h-131z" />
    <glyph glyph-name="Ecircumflex" unicode="&#xca;" horiz-adv-x="604" 
d="M73 714h487v-127h-338v-156h318v-128h-318v-176h359l-15 -127h-493v714zM247 917h141l121 -145h-120l-72 72l-71 -72h-120z" />
    <glyph glyph-name="Edieresis" unicode="&#xcb;" horiz-adv-x="604" 
d="M73 714h487v-127h-338v-156h318v-128h-318v-176h359l-15 -127h-493v714zM147 911h134v-129h-134v129zM355 911h134v-129h-134v129z" />
    <glyph glyph-name="Igrave" unicode="&#xcc;" horiz-adv-x="295" 
d="M73 714h149v-714h-149v714zM121 917l128 -145h-131l-159 145h162z" />
    <glyph glyph-name="Iacute" unicode="&#xcd;" horiz-adv-x="295" 
d="M73 714h149v-714h-149v714zM178 917h162l-159 -145h-131z" />
    <glyph glyph-name="Icircumflex" unicode="&#xce;" horiz-adv-x="295" 
d="M73 714h149v-714h-149v714zM78 917h141l121 -145h-120l-72 72l-71 -72h-120z" />
    <glyph glyph-name="Idieresis" unicode="&#xcf;" horiz-adv-x="295" 
d="M73 714h149v-714h-149v714zM-22 911h134v-129h-134v129zM186 911h134v-129h-134v129z" />
    <glyph glyph-name="Eth" unicode="&#xd0;" horiz-adv-x="755" 
d="M91 307h-81v123h81v284h267q164 0 255.5 -89t91.5 -264q0 -89 -25.5 -156t-73.5 -113t-117 -69t-156 -23h-242v307zM336 127q58 0 99 16.5t66.5 47.5t37.5 73.5t12 95.5q0 52 -10.5 94.5t-33.5 71.5t-59.5 45t-89.5 16h-118v-157h152v-123h-152v-180h96z" />
    <glyph glyph-name="Ntilde" unicode="&#xd1;" horiz-adv-x="719" 
d="M73 714h134l294 -468v468h145v-714h-133l-295 464v-464h-145v714zM159 773q0 75 33.5 108.5t90.5 33.5q21 0 38.5 -7t33 -15t30 -15t28.5 -7q19 0 29.5 8t10.5 32h99q0 -75 -33 -108t-90 -33q-21 0 -39 7t-33 15.5t-29 15.5t-28 7q-20 0 -31 -8.5t-11 -33.5h-99z" />
    <glyph glyph-name="Ograve" unicode="&#xd2;" horiz-adv-x="780" 
d="M391 -18q-80 0 -143 26t-107 75t-67.5 118t-23.5 156t23.5 156t68 118t107.5 75t142 26q80 0 143 -26t106.5 -75t66.5 -118t23 -156t-22.5 -156t-66 -118t-106.5 -75t-144 -26zM390 110q94 0 140 64t46 183q0 118 -46 182.5t-140 64.5t-140 -64.5t-46 -182.5
q0 -119 46 -183t140 -64zM377 917l128 -145h-131l-159 145h162z" />
    <glyph glyph-name="Oacute" unicode="&#xd3;" horiz-adv-x="780" 
d="M391 -18q-80 0 -143 26t-107 75t-67.5 118t-23.5 156t23.5 156t68 118t107.5 75t142 26q80 0 143 -26t106.5 -75t66.5 -118t23 -156t-22.5 -156t-66 -118t-106.5 -75t-144 -26zM390 110q94 0 140 64t46 183q0 118 -46 182.5t-140 64.5t-140 -64.5t-46 -182.5
q0 -119 46 -183t140 -64zM413 917h162l-159 -145h-131z" />
    <glyph glyph-name="Ocircumflex" unicode="&#xd4;" horiz-adv-x="780" 
d="M391 -18q-80 0 -143 26t-107 75t-67.5 118t-23.5 156t23.5 156t68 118t107.5 75t142 26q80 0 143 -26t106.5 -75t66.5 -118t23 -156t-22.5 -156t-66 -118t-106.5 -75t-144 -26zM390 110q94 0 140 64t46 183q0 118 -46 182.5t-140 64.5t-140 -64.5t-46 -182.5
q0 -119 46 -183t140 -64zM319 917h141l121 -145h-120l-72 72l-71 -72h-120z" />
    <glyph glyph-name="Otilde" unicode="&#xd5;" horiz-adv-x="780" 
d="M391 -18q-80 0 -143 26t-107 75t-67.5 118t-23.5 156t23.5 156t68 118t107.5 75t142 26q80 0 143 -26t106.5 -75t66.5 -118t23 -156t-22.5 -156t-66 -118t-106.5 -75t-144 -26zM390 110q94 0 140 64t46 183q0 118 -46 182.5t-140 64.5t-140 -64.5t-46 -182.5
q0 -119 46 -183t140 -64zM193 773q0 75 33.5 108.5t90.5 33.5q21 0 38.5 -7t33 -15t30 -15t28.5 -7q19 0 29.5 8t10.5 32h99q0 -75 -33 -108t-90 -33q-21 0 -39 7t-33 15.5t-29 15.5t-28 7q-20 0 -31 -8.5t-11 -33.5h-99z" />
    <glyph glyph-name="Odieresis" unicode="&#xd6;" horiz-adv-x="780" 
d="M391 -18q-80 0 -143 26t-107 75t-67.5 118t-23.5 156t23.5 156t68 118t107.5 75t142 26q80 0 143 -26t106.5 -75t66.5 -118t23 -156t-22.5 -156t-66 -118t-106.5 -75t-144 -26zM390 110q94 0 140 64t46 183q0 118 -46 182.5t-140 64.5t-140 -64.5t-46 -182.5
q0 -119 46 -183t140 -64zM219 911h134v-129h-134v129zM427 911h134v-129h-134v129z" />
    <glyph glyph-name="multiply" unicode="&#xd7;" 
d="M210 340l-139 141l85 85l140 -140l140 140l85 -85l-139 -141l139 -140l-85 -85l-140 140l-140 -140l-85 85z" />
    <glyph glyph-name="Oslash" unicode="&#xd8;" horiz-adv-x="780" 
d="M146 76q-47 49 -71.5 119.5t-24.5 161.5q0 87 23.5 156t68 118t107.5 75t142 26q93 0 164 -37l51 77l67 -44l-52 -78q53 -49 81 -123t28 -170q0 -87 -22.5 -156t-66 -118t-106.5 -75t-144 -26q-53 0 -98 11.5t-83 32.5l-56 -84l-67 44zM285 140q42 -30 105 -30
q94 0 140 64t46 183q0 106 -37 168zM481 582q-41 22 -91 22q-94 0 -140 -64.5t-46 -182.5q0 -93 28 -152z" />
    <glyph glyph-name="Ugrave" unicode="&#xd9;" horiz-adv-x="693" 
d="M59 714h149v-425q0 -91 32 -135t107 -44t106.5 44t31.5 135v425h149v-425q0 -81 -20 -139t-57 -95.5t-90.5 -55t-120.5 -17.5q-68 0 -121.5 18t-90.5 55.5t-56 96.5t-19 140v422zM323 917l128 -145h-131l-159 145h162z" />
    <glyph glyph-name="Uacute" unicode="&#xda;" horiz-adv-x="693" 
d="M59 714h149v-425q0 -91 32 -135t107 -44t106.5 44t31.5 135v425h149v-425q0 -81 -20 -139t-57 -95.5t-90.5 -55t-120.5 -17.5q-68 0 -121.5 18t-90.5 55.5t-56 96.5t-19 140v422zM380 917h162l-159 -145h-131z" />
    <glyph glyph-name="Ucircumflex" unicode="&#xdb;" horiz-adv-x="693" 
d="M59 714h149v-425q0 -91 32 -135t107 -44t106.5 44t31.5 135v425h149v-425q0 -81 -20 -139t-57 -95.5t-90.5 -55t-120.5 -17.5q-68 0 -121.5 18t-90.5 55.5t-56 96.5t-19 140v422zM275 917h141l121 -145h-120l-72 72l-71 -72h-120z" />
    <glyph glyph-name="Udieresis" unicode="&#xdc;" horiz-adv-x="693" 
d="M59 714h149v-425q0 -91 32 -135t107 -44t106.5 44t31.5 135v425h149v-425q0 -81 -20 -139t-57 -95.5t-90.5 -55t-120.5 -17.5q-68 0 -121.5 18t-90.5 55.5t-56 96.5t-19 140v422zM175 911h134v-129h-134v129zM383 911h134v-129h-134v129z" />
    <glyph glyph-name="Yacute" unicode="&#xdd;" horiz-adv-x="657" 
d="M257 291l-247 423h166l154 -289l159 289h158l-241 -423v-291h-149v291zM366 917h162l-159 -145h-131z" />
    <glyph glyph-name="Thorn" unicode="&#xde;" horiz-adv-x="640" 
d="M73 714h147v-123h108q82 0 135.5 -18.5t85 -49t44 -71t12.5 -84.5q0 -48 -12.5 -90.5t-44 -75t-84 -51.5t-132.5 -19h-112v-132h-147v714zM327 256q39 0 64.5 8t40.5 22t20.5 34.5t5.5 44.5q0 25 -6 44t-21 32t-40.5 20t-64.5 7h-106v-212h107z" />
    <glyph glyph-name="germandbls" unicode="&#xdf;" horiz-adv-x="604" 
d="M62 501q0 52 16.5 93t46.5 69.5t72.5 43.5t94.5 15q104 0 165.5 -44.5t61.5 -135.5q0 -50 -19.5 -84.5t-61.5 -60.5q69 -21 101 -68.5t32 -124.5q0 -42 -11.5 -81t-37.5 -68t-67 -46.5t-100 -17.5q-25 0 -51.5 3t-55.5 12l20 103q15 -4 33 -6.5t32 -2.5q57 0 79.5 28
t22.5 85q0 62 -35 85t-107 23h-30v107h32q43 0 66 23.5t23 75.5q0 40 -20.5 64.5t-68.5 24.5q-100 0 -100 -129v-487h-133v501z" />
    <glyph glyph-name="agrave" unicode="&#xe0;" horiz-adv-x="561" 
d="M372 66q-31 -35 -69.5 -57t-99.5 -22q-35 0 -66.5 9t-55 28t-37.5 48.5t-14 70.5q0 54 24 88t63 53t87.5 27t98.5 10l67 3v26q0 48 -26.5 66t-62.5 18q-83 0 -95 -63l-128 12q14 82 72 118.5t156 36.5q60 0 102 -14.5t67.5 -41.5t37 -65.5t11.5 -86.5v-330h-132v66z
M369 233l-62 -3q-44 -2 -71 -9t-41.5 -17.5t-19.5 -24.5t-5 -31q0 -26 18 -41t50 -15q54 0 88 25q19 14 31 35.5t12 53.5v27zM113 749h159l120 -155h-129z" />
    <glyph glyph-name="aacute" unicode="&#xe1;" horiz-adv-x="561" 
d="M372 66q-31 -35 -69.5 -57t-99.5 -22q-35 0 -66.5 9t-55 28t-37.5 48.5t-14 70.5q0 54 24 88t63 53t87.5 27t98.5 10l67 3v26q0 48 -26.5 66t-62.5 18q-83 0 -95 -63l-128 12q14 82 72 118.5t156 36.5q60 0 102 -14.5t67.5 -41.5t37 -65.5t11.5 -86.5v-330h-132v66z
M369 233l-62 -3q-44 -2 -71 -9t-41.5 -17.5t-19.5 -24.5t-5 -31q0 -26 18 -41t50 -15q54 0 88 25q19 14 31 35.5t12 53.5v27zM308 749h159l-150 -155h-129z" />
    <glyph glyph-name="acircumflex" unicode="&#xe2;" horiz-adv-x="561" 
d="M372 66q-31 -35 -69.5 -57t-99.5 -22q-35 0 -66.5 9t-55 28t-37.5 48.5t-14 70.5q0 54 24 88t63 53t87.5 27t98.5 10l67 3v26q0 48 -26.5 66t-62.5 18q-83 0 -95 -63l-128 12q14 82 72 118.5t156 36.5q60 0 102 -14.5t67.5 -41.5t37 -65.5t11.5 -86.5v-330h-132v66z
M369 233l-62 -3q-44 -2 -71 -9t-41.5 -17.5t-19.5 -24.5t-5 -31q0 -26 18 -41t50 -15q54 0 88 25q19 14 31 35.5t12 53.5v27zM208 749h141l120 -155h-120l-71 83l-70 -83h-120z" />
    <glyph glyph-name="atilde" unicode="&#xe3;" horiz-adv-x="561" 
d="M372 66q-31 -35 -69.5 -57t-99.5 -22q-35 0 -66.5 9t-55 28t-37.5 48.5t-14 70.5q0 54 24 88t63 53t87.5 27t98.5 10l67 3v26q0 48 -26.5 66t-62.5 18q-83 0 -95 -63l-128 12q14 82 72 118.5t156 36.5q60 0 102 -14.5t67.5 -41.5t37 -65.5t11.5 -86.5v-330h-132v66z
M369 233l-62 -3q-44 -2 -71 -9t-41.5 -17.5t-19.5 -24.5t-5 -31q0 -26 18 -41t50 -15q54 0 88 25q19 14 31 35.5t12 53.5v27zM90 602q0 75 32 108.5t87 33.5q19 0 37 -7t33.5 -15t30 -15t28.5 -7q18 0 28.5 8t10.5 32h94q0 -75 -32 -108t-86 -33q-20 0 -37.5 7t-33.5 15.5
t-30 15.5t-27 7q-19 0 -30 -8.5t-11 -33.5h-94z" />
    <glyph glyph-name="adieresis" unicode="&#xe4;" horiz-adv-x="561" 
d="M372 66q-31 -35 -69.5 -57t-99.5 -22q-35 0 -66.5 9t-55 28t-37.5 48.5t-14 70.5q0 54 24 88t63 53t87.5 27t98.5 10l67 3v26q0 48 -26.5 66t-62.5 18q-83 0 -95 -63l-128 12q14 82 72 118.5t156 36.5q60 0 102 -14.5t67.5 -41.5t37 -65.5t11.5 -86.5v-330h-132v66z
M369 233l-62 -3q-44 -2 -71 -9t-41.5 -17.5t-19.5 -24.5t-5 -31q0 -26 18 -41t50 -15q54 0 88 25q19 14 31 35.5t12 53.5v27zM115 733h130v-125h-130v125zM317 733h130v-125h-130v125z" />
    <glyph glyph-name="aring" unicode="&#xe5;" horiz-adv-x="561" 
d="M372 66q-31 -35 -69.5 -57t-99.5 -22q-35 0 -66.5 9t-55 28t-37.5 48.5t-14 70.5q0 54 24 88t63 53t87.5 27t98.5 10l67 3v26q0 48 -26.5 66t-62.5 18q-83 0 -95 -63l-128 12q14 82 72 118.5t156 36.5q60 0 102 -14.5t67.5 -41.5t37 -65.5t11.5 -86.5v-330h-132v66z
M369 233l-62 -3q-44 -2 -71 -9t-41.5 -17.5t-19.5 -24.5t-5 -31q0 -26 18 -41t50 -15q54 0 88 25q19 14 31 35.5t12 53.5v27zM165 701q0 28 9.5 49.5t25 35.5t36.5 21t44 7t44 -7t37 -21t25.5 -35.5t9.5 -49.5q0 -29 -9.5 -50t-25.5 -34.5t-37 -20.5t-44 -7t-44 7
t-36.5 20.5t-25 34.5t-9.5 50zM280 655q20 0 32 11.5t12 34.5q0 24 -12 35t-32 11t-31.5 -11t-11.5 -35q0 -23 11.5 -34.5t31.5 -11.5z" />
    <glyph glyph-name="ae" unicode="&#xe6;" horiz-adv-x="897" 
d="M58 383q14 82 71.5 118.5t153.5 36.5q56 0 96.5 -18t69.5 -64q36 47 78 64.5t89 17.5q118 0 178 -69t60 -186v-56h-356q2 -63 31.5 -98.5t87.5 -35.5q80 0 95 70h136q-14 -88 -70 -133.5t-162 -45.5q-59 0 -113 22t-85 79q-30 -42 -76 -70t-122 -28q-42 0 -77 9t-60 28
t-39 48.5t-14 70.5q0 54 23.5 88t61.5 53t86 27t96 10l67 3v26q0 24 -7 40t-19 26t-27.5 14t-32.5 4q-80 0 -92 -63zM363 233l-62 -3q-43 -2 -69 -9t-39.5 -17.5t-18 -24.5t-4.5 -31q0 -26 17.5 -41t47.5 -15q27 0 47.5 6.5t37.5 18.5q19 14 31 35.5t12 53.5v27zM719 319
q0 54 -26 84t-80 30t-82 -33t-31 -81h219z" />
    <glyph glyph-name="ccedilla" unicode="&#xe7;" horiz-adv-x="569" 
d="M187 -142q26 -4 42.5 -5t29.5 -1q44 0 44 28q0 14 -12 21t-44 7h-36l31 80q-103 16 -150.5 88.5t-47.5 183.5q0 62 17.5 113.5t50.5 88t81 56.5t110 20q53 0 92.5 -13.5t66.5 -37.5t42 -57.5t20 -73.5l-141 -19q-5 40 -23 64.5t-62 24.5q-32 0 -53 -13.5t-33.5 -36.5
t-17.5 -52.5t-5 -61.5q0 -33 5 -63t17 -53t33 -36.5t53 -13.5q42 0 65 24t27 69h142q-8 -89 -59 -144t-154 -60l-11 -32q27 -4 45 -12t28 -19.5t14 -25t4 -27.5q0 -46 -37.5 -66t-100.5 -20q-14 0 -31.5 1t-41.5 5v69z" />
    <glyph glyph-name="egrave" unicode="&#xe8;" horiz-adv-x="589" 
d="M540 163q-14 -88 -70.5 -133.5t-164.5 -45.5q-130 0 -195.5 72t-65.5 204q0 66 19 117.5t53.5 87.5t82.5 54.5t106 18.5q120 0 180.5 -69t60.5 -186v-56h-362q2 -63 32 -98.5t90 -35.5q83 0 98 70h136zM411 319q0 54 -26.5 84t-82.5 30q-28 0 -49 -9t-35.5 -24.5
t-22.5 -36t-9 -44.5h225zM129 749h159l120 -155h-129z" />
    <glyph glyph-name="eacute" unicode="&#xe9;" horiz-adv-x="589" 
d="M540 163q-14 -88 -70.5 -133.5t-164.5 -45.5q-130 0 -195.5 72t-65.5 204q0 66 19 117.5t53.5 87.5t82.5 54.5t106 18.5q120 0 180.5 -69t60.5 -186v-56h-362q2 -63 32 -98.5t90 -35.5q83 0 98 70h136zM411 319q0 54 -26.5 84t-82.5 30q-28 0 -49 -9t-35.5 -24.5
t-22.5 -36t-9 -44.5h225zM325 749h159l-150 -155h-129z" />
    <glyph glyph-name="ecircumflex" unicode="&#xea;" horiz-adv-x="589" 
d="M540 163q-14 -88 -70.5 -133.5t-164.5 -45.5q-130 0 -195.5 72t-65.5 204q0 66 19 117.5t53.5 87.5t82.5 54.5t106 18.5q120 0 180.5 -69t60.5 -186v-56h-362q2 -63 32 -98.5t90 -35.5q83 0 98 70h136zM411 319q0 54 -26.5 84t-82.5 30q-28 0 -49 -9t-35.5 -24.5
t-22.5 -36t-9 -44.5h225zM233 749h141l120 -155h-120l-71 83l-70 -83h-120z" />
    <glyph glyph-name="edieresis" unicode="&#xeb;" horiz-adv-x="589" 
d="M540 163q-14 -88 -70.5 -133.5t-164.5 -45.5q-130 0 -195.5 72t-65.5 204q0 66 19 117.5t53.5 87.5t82.5 54.5t106 18.5q120 0 180.5 -69t60.5 -186v-56h-362q2 -63 32 -98.5t90 -35.5q83 0 98 70h136zM411 319q0 54 -26.5 84t-82.5 30q-28 0 -49 -9t-35.5 -24.5
t-22.5 -36t-9 -44.5h225zM138 733h130v-125h-130v125zM340 733h130v-125h-130v125z" />
    <glyph glyph-name="igrave" unicode="&#xec;" horiz-adv-x="266" 
d="M63 522h140v-522h-140v522zM-57 749h159l120 -155h-129z" />
    <glyph glyph-name="iacute" unicode="&#xed;" horiz-adv-x="266" 
d="M63 522h140v-522h-140v522zM169 749h159l-150 -155h-129z" />
    <glyph glyph-name="icircumflex" unicode="&#xee;" horiz-adv-x="266" 
d="M63 522h140v-522h-140v522zM62 749h141l120 -155h-120l-71 83l-70 -83h-120z" />
    <glyph glyph-name="idieresis" unicode="&#xef;" horiz-adv-x="266" 
d="M63 522h140v-522h-140v522zM-33 733h130v-125h-130v125zM169 733h130v-125h-130v125z" />
    <glyph glyph-name="eth" unicode="&#xf0;" horiz-adv-x="616" 
d="M176 578l43 43q-39 9 -88 12l20 107q44 -5 83 -12t74 -18l60 59l52 -55l-36 -36q91 -48 139.5 -142t48.5 -251q0 -75 -20 -131.5t-55 -94t-83.5 -56.5t-105.5 -19q-59 0 -108 17t-83.5 49.5t-53.5 80t-19 107.5q0 59 19 106t51.5 80t76 50.5t91.5 17.5q101 0 152 -69
q-11 55 -41 99.5t-93 72.5l-72 -72zM427 242q0 38 -8.5 63.5t-24.5 42.5q-17 19 -39 25.5t-53 6.5q-48 0 -80.5 -36.5t-32.5 -105.5t32.5 -105.5t86.5 -36.5q51 0 85 37t34 102v7z" />
    <glyph glyph-name="ntilde" unicode="&#xf1;" 
d="M62 522h136v-72q31 46 73.5 67t88.5 21q89 0 132 -46.5t43 -146.5v-345h-140v326q0 55 -21 75t-56 20q-27 0 -46.5 -8t-36.5 -23q-14 -14 -23.5 -33.5t-9.5 -42.5v-314h-140v522zM105 602q0 75 32 108.5t87 33.5q19 0 37 -7t33.5 -15t30 -15t28.5 -7q18 0 28.5 8t10.5 32
h94q0 -75 -32 -108t-86 -33q-20 0 -37.5 7t-33.5 15.5t-30 15.5t-27 7q-19 0 -30 -8.5t-11 -33.5h-94z" />
    <glyph glyph-name="ograve" unicode="&#xf2;" horiz-adv-x="616" 
d="M308 -16q-126 0 -195 72t-69 206q0 64 18.5 115.5t53 87t83.5 54.5t109 19q61 0 110 -19t83.5 -54.5t52.5 -87t18 -115.5q0 -65 -18.5 -116.5t-53 -87.5t-83.5 -55t-109 -19zM308 96q60 0 89.5 43t29.5 123t-29.5 122t-89.5 42t-89.5 -42t-29.5 -122q0 -81 29 -123.5
t90 -42.5zM139 749h159l120 -155h-129z" />
    <glyph glyph-name="oacute" unicode="&#xf3;" horiz-adv-x="616" 
d="M308 -16q-126 0 -195 72t-69 206q0 64 18.5 115.5t53 87t83.5 54.5t109 19q61 0 110 -19t83.5 -54.5t52.5 -87t18 -115.5q0 -65 -18.5 -116.5t-53 -87.5t-83.5 -55t-109 -19zM308 96q60 0 89.5 43t29.5 123t-29.5 122t-89.5 42t-89.5 -42t-29.5 -122q0 -81 29 -123.5
t90 -42.5zM328 749h159l-150 -155h-129z" />
    <glyph glyph-name="ocircumflex" unicode="&#xf4;" horiz-adv-x="616" 
d="M308 -16q-126 0 -195 72t-69 206q0 64 18.5 115.5t53 87t83.5 54.5t109 19q61 0 110 -19t83.5 -54.5t52.5 -87t18 -115.5q0 -65 -18.5 -116.5t-53 -87.5t-83.5 -55t-109 -19zM308 96q60 0 89.5 43t29.5 123t-29.5 122t-89.5 42t-89.5 -42t-29.5 -122q0 -81 29 -123.5
t90 -42.5zM237 749h141l120 -155h-120l-71 83l-70 -83h-120z" />
    <glyph glyph-name="otilde" unicode="&#xf5;" horiz-adv-x="616" 
d="M308 -16q-126 0 -195 72t-69 206q0 64 18.5 115.5t53 87t83.5 54.5t109 19q61 0 110 -19t83.5 -54.5t52.5 -87t18 -115.5q0 -65 -18.5 -116.5t-53 -87.5t-83.5 -55t-109 -19zM308 96q60 0 89.5 43t29.5 123t-29.5 122t-89.5 42t-89.5 -42t-29.5 -122q0 -81 29 -123.5
t90 -42.5zM117 602q0 75 32 108.5t87 33.5q19 0 37 -7t33.5 -15t30 -15t28.5 -7q18 0 28.5 8t10.5 32h94q0 -75 -32 -108t-86 -33q-20 0 -37.5 7t-33.5 15.5t-30 15.5t-27 7q-19 0 -30 -8.5t-11 -33.5h-94z" />
    <glyph glyph-name="odieresis" unicode="&#xf6;" horiz-adv-x="616" 
d="M308 -16q-126 0 -195 72t-69 206q0 64 18.5 115.5t53 87t83.5 54.5t109 19q61 0 110 -19t83.5 -54.5t52.5 -87t18 -115.5q0 -65 -18.5 -116.5t-53 -87.5t-83.5 -55t-109 -19zM308 96q60 0 89.5 43t29.5 123t-29.5 122t-89.5 42t-89.5 -42t-29.5 -122q0 -81 29 -123.5
t90 -42.5zM142 733h130v-125h-130v125zM344 733h130v-125h-130v125z" />
    <glyph glyph-name="divide" unicode="&#xf7;" 
d="M232 591h126v-135h-126v135zM232 218h126v-135h-126v135zM77 401h438v-121h-438v121z" />
    <glyph glyph-name="oslash" unicode="&#xf8;" horiz-adv-x="616" 
d="M118 51q-36 36 -55 89t-19 122q0 64 18.5 115.5t53 87t83.5 54.5t109 19q68 0 124 -25l43 64l63 -43l-43 -63q37 -36 57 -88.5t20 -120.5q0 -65 -18.5 -116.5t-53 -87.5t-83.5 -55t-109 -19q-71 0 -127 25l-49 -73l-63 43zM250 109q23 -13 58 -13q60 0 89.5 43t29.5 123
q0 26 -3.5 48.5t-9.5 40.5zM364 413q-23 13 -56 13q-60 0 -89.5 -42t-29.5 -122q0 -26 2.5 -48.5t9.5 -40.5z" />
    <glyph glyph-name="ugrave" unicode="&#xf9;" horiz-adv-x="587" 
d="M57 522h140v-326q0 -56 20 -75.5t55 -19.5q27 0 44.5 8t33.5 23q16 14 25.5 33.5t9.5 42.5v314h140v-522h-136v72q-32 -46 -72.5 -67t-86.5 -21q-89 0 -131 46.5t-42 146.5v345zM125 749h159l120 -155h-129z" />
    <glyph glyph-name="uacute" unicode="&#xfa;" horiz-adv-x="587" 
d="M57 522h140v-326q0 -56 20 -75.5t55 -19.5q27 0 44.5 8t33.5 23q16 14 25.5 33.5t9.5 42.5v314h140v-522h-136v72q-32 -46 -72.5 -67t-86.5 -21q-89 0 -131 46.5t-42 146.5v345zM311 749h159l-150 -155h-129z" />
    <glyph glyph-name="ucircumflex" unicode="&#xfb;" horiz-adv-x="587" 
d="M57 522h140v-326q0 -56 20 -75.5t55 -19.5q27 0 44.5 8t33.5 23q16 14 25.5 33.5t9.5 42.5v314h140v-522h-136v72q-32 -46 -72.5 -67t-86.5 -21q-89 0 -131 46.5t-42 146.5v345zM223 749h141l120 -155h-120l-71 83l-70 -83h-120z" />
    <glyph glyph-name="udieresis" unicode="&#xfc;" horiz-adv-x="587" 
d="M57 522h140v-326q0 -56 20 -75.5t55 -19.5q27 0 44.5 8t33.5 23q16 14 25.5 33.5t9.5 42.5v314h140v-522h-136v72q-32 -46 -72.5 -67t-86.5 -21q-89 0 -131 46.5t-42 146.5v345zM128 733h130v-125h-130v125zM330 733h130v-125h-130v125z" />
    <glyph glyph-name="yacute" unicode="&#xfd;" horiz-adv-x="567" 
d="M76 -74q29 -8 59 -8q28 0 45 13.5t29 47.5l16 44l-217 499h162l122 -343l114 343h153l-211 -537q-18 -45 -34 -78.5t-36.5 -56t-49 -33.5t-70.5 -11q-26 0 -51.5 3.5t-53.5 12.5zM304 749h159l-150 -155h-129z" />
    <glyph glyph-name="thorn" unicode="&#xfe;" horiz-adv-x="623" 
d="M62 714h140v-255q29 40 70.5 59.5t89.5 19.5q109 0 163 -74t54 -203q0 -62 -15.5 -113t-45 -87.5t-71.5 -56.5t-95 -20q-39 0 -77.5 14t-72.5 56v-248h-140v908zM201 257q0 -51 8.5 -81.5t27.5 -49.5q20 -18 40.5 -23.5t41.5 -5.5q23 0 44 9t36.5 28.5t24.5 50.5t9 75
q0 46 -8.5 77t-23.5 50.5t-35.5 28t-43.5 8.5q-26 0 -45 -7t-37 -22q-20 -19 -29.5 -48t-9.5 -74v-16z" />
    <glyph glyph-name="ydieresis" unicode="&#xff;" horiz-adv-x="567" 
d="M76 -74q29 -8 59 -8q28 0 45 13.5t29 47.5l16 44l-217 499h162l122 -343l114 343h153l-211 -537q-18 -45 -34 -78.5t-36.5 -56t-49 -33.5t-70.5 -11q-26 0 -51.5 3.5t-53.5 12.5zM119 733h130v-125h-130v125zM321 733h130v-125h-130v125z" />
    <glyph glyph-name="Amacron" unicode="&#x100;" horiz-adv-x="698" 
d="M278 714h142l268 -714h-160l-57 165h-250l-57 -165h-154zM432 288l-87 256l-86 -256h173zM193 901h310v-111h-310v111z" />
    <glyph glyph-name="amacron" unicode="&#x101;" horiz-adv-x="561" 
d="M372 66q-31 -35 -69.5 -57t-99.5 -22q-35 0 -66.5 9t-55 28t-37.5 48.5t-14 70.5q0 54 24 88t63 53t87.5 27t98.5 10l67 3v26q0 48 -26.5 66t-62.5 18q-83 0 -95 -63l-128 12q14 82 72 118.5t156 36.5q60 0 102 -14.5t67.5 -41.5t37 -65.5t11.5 -86.5v-330h-132v66z
M369 233l-62 -3q-44 -2 -71 -9t-41.5 -17.5t-19.5 -24.5t-5 -31q0 -26 18 -41t50 -15q54 0 88 25q19 14 31 35.5t12 53.5v27zM130 719h292v-107h-292v107z" />
    <glyph glyph-name="Abreve" unicode="&#x102;" horiz-adv-x="698" 
d="M278 714h142l268 -714h-160l-57 165h-250l-57 -165h-154zM432 288l-87 256l-86 -256h173zM289 927q0 -38 18 -53.5t41 -15.5t40.5 15.5t17.5 53.5h103q0 -78 -44 -116.5t-117 -38.5q-74 0 -117.5 38.5t-43.5 116.5h102z" />
    <glyph glyph-name="abreve" unicode="&#x103;" horiz-adv-x="561" 
d="M372 66q-31 -35 -69.5 -57t-99.5 -22q-35 0 -66.5 9t-55 28t-37.5 48.5t-14 70.5q0 54 24 88t63 53t87.5 27t98.5 10l67 3v26q0 48 -26.5 66t-62.5 18q-83 0 -95 -63l-128 12q14 82 72 118.5t156 36.5q60 0 102 -14.5t67.5 -41.5t37 -65.5t11.5 -86.5v-330h-132v66z
M369 233l-62 -3q-44 -2 -71 -9t-41.5 -17.5t-19.5 -24.5t-5 -31q0 -26 18 -41t50 -15q54 0 88 25q19 14 31 35.5t12 53.5v27zM222 746q0 -38 17 -53t40 -15q22 0 39 15t17 53h100q0 -78 -42.5 -116.5t-113.5 -38.5q-72 0 -113.5 38.5t-41.5 116.5h98z" />
    <glyph glyph-name="Aogonek" unicode="&#x104;" horiz-adv-x="698" 
d="M278 714h142l268 -714q-32 -18 -53 -38.5t-21 -42.5q0 -20 11.5 -26.5t24.5 -6.5q10 0 17 0.5t18 2.5v-87q-15 -2 -30 -2.5t-38 -0.5q-35 0 -58.5 7.5t-37.5 19.5t-19.5 28t-5.5 33q0 33 21 60t60 53h-49l-57 165h-250l-57 -165h-154zM432 288l-87 256l-86 -256h173z" />
    <glyph glyph-name="aogonek" unicode="&#x105;" horiz-adv-x="561" 
d="M372 66q-31 -35 -69.5 -57t-99.5 -22q-35 0 -66.5 9t-55 28t-37.5 48.5t-14 70.5q0 54 24 88t63 53t87.5 27t98.5 10l67 3v26q0 48 -26.5 66t-62.5 18q-83 0 -95 -63l-128 12q14 82 72 118.5t156 36.5q60 0 102 -14.5t67.5 -41.5t37 -65.5t11.5 -86.5v-330
q-30 -17 -50 -36.5t-20 -41.5q0 -20 11 -26t23 -6q10 0 17 0.5t16 1.5v-84q-14 -2 -28.5 -2.5t-35.5 -0.5q-34 0 -56 7t-35 19t-18.5 27.5t-5.5 32.5q0 32 19.5 58t56.5 51h-26v66zM369 233l-62 -3q-44 -2 -71 -9t-41.5 -17.5t-19.5 -24.5t-5 -31q0 -26 18 -41t50 -15
q54 0 88 25q19 14 31 35.5t12 53.5v27z" />
    <glyph glyph-name="Cacute" unicode="&#x106;" horiz-adv-x="713" 
d="M683 247q-5 -57 -26.5 -105.5t-59 -84t-92 -55.5t-126.5 -20q-81 0 -142.5 27t-103 76t-62.5 118.5t-21 153.5q0 87 23 156t66 118t104 75t138 26q68 0 118.5 -17t85 -49t55.5 -77t31 -101l-148 -19q-11 63 -42.5 99t-99.5 36q-86 0 -130.5 -64.5t-44.5 -182.5
q0 -119 47.5 -183t127.5 -64q69 0 101.5 35.5t40.5 101.5h160zM411 917h162l-159 -145h-131z" />
    <glyph glyph-name="cacute" unicode="&#x107;" horiz-adv-x="569" 
d="M531 189q-8 -94 -64.5 -149.5t-169.5 -55.5q-66 0 -114 20t-78.5 56t-45.5 87t-15 113t17.5 113.5t50.5 88t81 56.5t110 20q53 0 92.5 -13.5t66.5 -37.5t42 -57.5t20 -73.5l-141 -19q-5 40 -23 64.5t-62 24.5q-32 0 -53 -13.5t-33.5 -36.5t-17.5 -52.5t-5 -61.5
q0 -33 5 -63t17 -53t33 -36.5t53 -13.5q42 0 65 24t27 69h142zM315 749h159l-150 -155h-129z" />
    <glyph glyph-name="Ccircumflex" unicode="&#x108;" horiz-adv-x="713" 
d="M683 247q-5 -57 -26.5 -105.5t-59 -84t-92 -55.5t-126.5 -20q-81 0 -142.5 27t-103 76t-62.5 118.5t-21 153.5q0 87 23 156t66 118t104 75t138 26q68 0 118.5 -17t85 -49t55.5 -77t31 -101l-148 -19q-11 63 -42.5 99t-99.5 36q-86 0 -130.5 -64.5t-44.5 -182.5
q0 -119 47.5 -183t127.5 -64q69 0 101.5 35.5t40.5 101.5h160zM306 917h141l121 -145h-120l-72 72l-71 -72h-120z" />
    <glyph glyph-name="ccircumflex" unicode="&#x109;" horiz-adv-x="569" 
d="M531 189q-8 -94 -64.5 -149.5t-169.5 -55.5q-66 0 -114 20t-78.5 56t-45.5 87t-15 113t17.5 113.5t50.5 88t81 56.5t110 20q53 0 92.5 -13.5t66.5 -37.5t42 -57.5t20 -73.5l-141 -19q-5 40 -23 64.5t-62 24.5q-32 0 -53 -13.5t-33.5 -36.5t-17.5 -52.5t-5 -61.5
q0 -33 5 -63t17 -53t33 -36.5t53 -13.5q42 0 65 24t27 69h142zM226 749h141l120 -155h-120l-71 83l-70 -83h-120z" />
    <glyph glyph-name="Cdotaccent" unicode="&#x10a;" horiz-adv-x="713" 
d="M683 247q-5 -57 -26.5 -105.5t-59 -84t-92 -55.5t-126.5 -20q-81 0 -142.5 27t-103 76t-62.5 118.5t-21 153.5q0 87 23 156t66 118t104 75t138 26q68 0 118.5 -17t85 -49t55.5 -77t31 -101l-148 -19q-11 63 -42.5 99t-99.5 36q-86 0 -130.5 -64.5t-44.5 -182.5
q0 -119 47.5 -183t127.5 -64q69 0 101.5 35.5t40.5 101.5h160zM307 914h140v-135h-140v135z" />
    <glyph glyph-name="cdotaccent" unicode="&#x10b;" horiz-adv-x="569" 
d="M531 189q-8 -94 -64.5 -149.5t-169.5 -55.5q-66 0 -114 20t-78.5 56t-45.5 87t-15 113t17.5 113.5t50.5 88t81 56.5t110 20q53 0 92.5 -13.5t66.5 -37.5t42 -57.5t20 -73.5l-141 -19q-5 40 -23 64.5t-62 24.5q-32 0 -53 -13.5t-33.5 -36.5t-17.5 -52.5t-5 -61.5
q0 -33 5 -63t17 -53t33 -36.5t53 -13.5q42 0 65 24t27 69h142zM231 734h132v-127h-132v127z" />
    <glyph glyph-name="Ccaron" unicode="&#x10c;" horiz-adv-x="713" 
d="M683 247q-5 -57 -26.5 -105.5t-59 -84t-92 -55.5t-126.5 -20q-81 0 -142.5 27t-103 76t-62.5 118.5t-21 153.5q0 87 23 156t66 118t104 75t138 26q68 0 118.5 -17t85 -49t55.5 -77t31 -101l-148 -19q-11 63 -42.5 99t-99.5 36q-86 0 -130.5 -64.5t-44.5 -182.5
q0 -119 47.5 -183t127.5 -64q69 0 101.5 35.5t40.5 101.5h160zM185 921h120l72 -73l71 73h120l-121 -145h-141z" />
    </font>
</defs>
</svg>
