<?xml version="1.0" standalone="no"?>
<!DOCTYPE svg PUBLIC "-//W3C//DTD SVG 1.1//EN" "http://www.w3.org/Graphics/SVG/1.1/DTD/svg11.dtd" >
<svg xmlns="http://www.w3.org/2000/svg" xmlns:xlink="http://www.w3.org/1999/xlink" version="1.1">
<metadata>
Created by FontForge 20170731 at Thu Jul  2 18:18:36 2015
 By Aleksey,,,
Copyright 2015 Dalton Maag Ltd. All rights reserved. This font may not be altered in any way without prior permission of Dalton Maag Ltd.
</metadata>
<defs>
<font id="AktivGrotesk-Hair" horiz-adv-x="412" >
  <font-face 
    font-family="Aktiv Grotesk Hair"
    font-weight="250"
    font-stretch="normal"
    units-per-em="1000"
    panose-1="2 11 3 4 2 2 2 2 2 4"
    ascent="714"
    descent="-286"
    x-height="511"
    cap-height="714"
    bbox="-165 -213 1203 905"
    underline-thickness="68"
    underline-position="-201"
    unicode-range="U+0008-FEFF"
  />
<missing-glyph horiz-adv-x="500" 
d="M50 0v750h400v-750h-400zM400 700h-300v-650h300v650z" />
    <glyph glyph-name="f_i" unicode="fi" horiz-adv-x="482" 
d="M101 0v491h-79v20h79v64q0 68 37.5 107.5t102.5 39.5q36 0 66 -11l-5 -19q-34 10 -61 10q-58 0 -88.5 -32.5t-30.5 -93.5v-65h159v-20h-159v-491h-21zM387 0v511h21v-511h-21zM387 622v92h21v-92h-21z" />
    <glyph glyph-name="f_l" unicode="fl" horiz-adv-x="486" 
d="M101 0v491h-79v20h79v64q0 68 37.5 107.5t102.5 39.5q36 0 66 -11l-5 -19q-34 10 -61 10q-58 0 -88.5 -32.5t-30.5 -93.5v-65h159v-20h-159v-491h-21zM391 0v714h21v-714h-21z" />
    <glyph glyph-name="f_f" unicode="ff" horiz-adv-x="603" 
d="M101 0v491h-79v20h79v64q0 68 37.5 107.5t102.5 39.5q36 0 66 -11l-5 -19q-34 10 -61 10q-58 0 -88.5 -32.5t-30.5 -93.5v-65h159v-20h-159v-491h-21zM403 0v491h-79v20h79v64q0 68 37.5 107.5t102.5 39.5q36 0 66 -11l-5 -19q-34 10 -61 10q-58 0 -88.5 -32.5
t-30.5 -93.5v-65h159v-20h-159v-491h-21z" />
    <glyph glyph-name="f_f_i" unicode="ffi" horiz-adv-x="784" 
d="M101 0v491h-79v20h79v64q0 68 37.5 107.5t102.5 39.5q36 0 66 -11l-5 -19q-34 10 -61 10q-58 0 -88.5 -32.5t-30.5 -93.5v-65h159v-20h-159v-491h-21zM689 0v511h21v-511h-21zM689 622v92h21v-92h-21zM403 0v491h-79v20h79v64q0 68 37.5 107.5t102.5 39.5q36 0 66 -11
l-5 -19q-34 10 -61 10q-58 0 -88.5 -32.5t-30.5 -93.5v-65h159v-20h-159v-491h-21z" />
    <glyph glyph-name="f_f_l" unicode="ffl" horiz-adv-x="788" 
d="M101 0v491h-79v20h79v64q0 68 37.5 107.5t102.5 39.5q36 0 66 -11l-5 -19q-34 10 -61 10q-58 0 -88.5 -32.5t-30.5 -93.5v-65h159v-20h-159v-491h-21zM403 0v491h-79v20h79v64q0 68 37.5 107.5t102.5 39.5q36 0 66 -11l-5 -19q-34 10 -61 10q-58 0 -88.5 -32.5
t-30.5 -93.5v-65h159v-20h-159v-491h-21zM693 0v714h21v-714h-21z" />
    <glyph glyph-name=".notdef" horiz-adv-x="500" 
d="M50 0v750h400v-750h-400zM400 700h-300v-650h300v650z" />
    <glyph glyph-name=".null" horiz-adv-x="0" 
 />
    <glyph glyph-name=".null" horiz-adv-x="0" 
 />
    <glyph glyph-name=".null" horiz-adv-x="0" 
 />
    <glyph glyph-name="nonmarkingreturn" unicode="&#x9;" horiz-adv-x="225" 
 />
    <glyph glyph-name="nonmarkingreturn" unicode="&#xd;" horiz-adv-x="225" 
 />
    <glyph glyph-name="space" unicode=" " horiz-adv-x="225" 
 />
    <glyph glyph-name="exclam" unicode="!" horiz-adv-x="192" 
d="M86 178l-1 536h22l-1 -536h-20zM85 0v97h22v-97h-22z" />
    <glyph glyph-name="quotedbl" unicode="&#x22;" horiz-adv-x="248" 
d="M47 486l-2 228h23l-2 -228h-19zM182 486l-2 228h23l-2 -228h-19z" />
    <glyph glyph-name="numbersign" unicode="#" horiz-adv-x="592" 
d="M353 0l33 196h-225l-33 -196h-22l33 196h-125v20h129l42 259h-123v20h126l31 183h22l-31 -183h225l31 183h22l-31 -183h124v-20h-127l-42 -259h121v-20h-125l-33 -196h-22zM432 475h-225l-42 -259h225z" />
    <glyph glyph-name="dollar" unicode="$" horiz-adv-x="592" 
d="M285 -105v88q-101 5 -159.5 52t-68.5 131h20q13 -76 66 -117.5t142 -45.5v345l-34 6q-92 16 -134 57.5t-42 116.5q0 86 55 133.5t155 48.5v73h20v-73q85 -4 133.5 -44t71.5 -125l-20 -5q-21 77 -64.5 113t-120.5 39v-323l31 -5q95 -16 139 -60t44 -126q0 -93 -55 -142
t-159 -50v-87h-20zM305 344v-341q191 2 191 171q0 76 -38.5 113.5t-131.5 53.5zM285 689q-92 -1 -140 -42t-48 -119q0 -68 37.5 -104.5t122.5 -50.5l28 -5v321z" />
    <glyph glyph-name="percent" unicode="%" horiz-adv-x="855" 
d="M239 0l355 691h23l-355 -691h-23zM650 -22q-77 0 -118.5 55.5t-41.5 157.5t41.5 157.5t118.5 55.5t118.5 -55.5t41.5 -157.5t-41.5 -157.5t-118.5 -55.5zM650 -2q66 0 102 50t36 143q0 92 -36 142.5t-102 50.5q-67 0 -102.5 -50t-35.5 -143t35.5 -143t102.5 -50zM206 281
q-77 0 -118.5 55.5t-41.5 157.5t41.5 157.5t118.5 55.5t118.5 -55.5t41.5 -157.5t-41.5 -157.5t-118.5 -55.5zM206 301q66 0 102 50t36 143q0 92 -36 142.5t-102 50.5q-67 0 -102.5 -50t-35.5 -143t35.5 -143t102.5 -50z" />
    <glyph glyph-name="ampersand" unicode="&#x26;" horiz-adv-x="606" 
d="M569 0l-74 86q-66 -102 -219 -102q-110 0 -170.5 51t-60.5 144q0 73 40.5 125.5t134.5 102.5q-47 55 -66.5 94.5t-19.5 78.5q0 59 40 96t103 37q62 0 98 -34.5t36 -94.5q0 -39 -15.5 -68t-50 -55.5t-94.5 -58.5l241 -281q34 72 34 202h21q0 -140 -41 -218l90 -105h-27z
M233 392q-66 -36 -101.5 -67t-50 -65t-14.5 -79q0 -86 54 -131t157 -45q145 0 203 97zM238 417q50 26 79 46t44.5 38t21.5 38t6 45q0 50 -30 79t-83 29q-56 0 -88 -30.5t-32 -82.5q0 -37 18.5 -73t63.5 -89z" />
    <glyph glyph-name="quotesingle" unicode="'" horiz-adv-x="113" 
d="M47 486l-2 228h23l-2 -228h-19z" />
    <glyph glyph-name="parenleft" unicode="(" horiz-adv-x="216" 
d="M175 -124q-110 184 -110 429t110 429h21q-55 -100 -82 -205t-27 -224t27 -224t82 -205h-21z" />
    <glyph glyph-name="parenright" unicode=")" horiz-adv-x="216" 
d="M20 -124q55 100 82 205t27 224t-27 224t-82 205h21q110 -184 110 -429t-110 -429h-21z" />
    <glyph glyph-name="asterisk" unicode="*" horiz-adv-x="337" 
d="M249 435l-81 115l-80 -115l-16 13l83 112l-120 46l7 18l118 -48l-1 138h20l-2 -138l118 48l7 -18l-121 -46l84 -112z" />
    <glyph glyph-name="plus" unicode="+" horiz-adv-x="592" 
d="M286 103v227h-213v20h213v226h21v-226h212v-20h-212v-227h-21z" />
    <glyph glyph-name="comma" unicode="," horiz-adv-x="162" 
d="M51 -86l34 183h23l-38 -183h-19z" />
    <glyph glyph-name="hyphen" unicode="-" horiz-adv-x="387" 
d="M50 278v20h287v-20h-287z" />
    <glyph glyph-name="period" unicode="." horiz-adv-x="162" 
d="M70 0v97h22v-97h-22z" />
    <glyph glyph-name="slash" unicode="/" horiz-adv-x="275" 
d="M15 0l224 734h21l-224 -734h-21z" />
    <glyph glyph-name="zero" unicode="0" horiz-adv-x="592" 
d="M296 -18q-118 0 -180 93.5t-62 270.5q0 175 62 269.5t180 94.5t180 -93.5t62 -269.5q0 -177 -62.5 -271t-179.5 -94zM296 3q107 0 163 87.5t56 255.5q0 169 -55.5 256t-163.5 87q-107 0 -163 -87.5t-56 -255.5q0 -169 55.5 -256t163.5 -87z" />
    <glyph glyph-name="one" unicode="1" horiz-adv-x="592" 
d="M322 0v668l-188 -108l-10 18l198 113h22v-691h-22z" />
    <glyph glyph-name="two" unicode="2" horiz-adv-x="592" 
d="M86 0v21l153 141q101 93 151.5 151.5t70.5 104.5t20 95q0 82 -47 129t-130 47q-154 0 -195 -161l-20 5q20 85 76 131t139 46q92 0 146 -53t54 -143q0 -56 -23.5 -105.5t-76 -109.5t-149.5 -150l-138 -128h392l-7 -21h-416z" />
    <glyph glyph-name="three" unicode="3" horiz-adv-x="592" 
d="M231 352v21h93q71 0 113 43t42 117q0 75 -45 115.5t-130 40.5q-82 0 -131.5 -38t-68.5 -116l-20 5q17 81 74.5 125.5t146.5 44.5q93 0 145 -46.5t52 -130.5q0 -63 -30.5 -107t-86.5 -63q63 -14 97.5 -61t34.5 -121q0 -95 -56 -147t-157 -52q-65 0 -116 23t-80.5 67
t-31.5 103h20q8 -82 62 -127t145 -45q93 0 142 46t49 132q0 82 -44.5 126.5t-125.5 44.5h-93z" />
    <glyph glyph-name="four" unicode="4" horiz-adv-x="592" 
d="M409 0v196h-354v21l351 474h25v-474h104l-7 -21h-97v-196h-22zM409 662l-330 -445h330v445z" />
    <glyph glyph-name="five" unicode="5" horiz-adv-x="592" 
d="M105 163q11 -79 60.5 -119.5t134.5 -40.5q95 0 142 51t47 154q0 205 -184 205q-115 0 -183 -76h-22l27 354h347v-21h-328l-24 -307q74 71 186 71q100 0 152 -58t52 -168q0 -111 -53.5 -168.5t-157.5 -57.5q-95 0 -151.5 47t-64.5 134h20z" />
    <glyph glyph-name="six" unicode="6" horiz-adv-x="592" 
d="M481 558q-20 70 -58 100.5t-104 30.5q-110 0 -166 -91t-56 -272v-49q14 71 72.5 114.5t139.5 43.5q102 0 159 -58.5t57 -162.5q0 -106 -60 -169t-160 -63q-229 0 -229 344q0 189 62 286.5t181 97.5q74 0 120 -37.5t62 -109.5zM305 3q92 0 144.5 57t52.5 156
q0 94 -50.5 146t-143.5 52q-88 0 -143.5 -52.5t-55.5 -135.5q0 -101 53.5 -162t142.5 -61z" />
    <glyph glyph-name="seven" unicode="7" horiz-adv-x="592" 
d="M201 0q54 188 119 348.5t153 321.5h-427v21h449v-21q-177 -325 -272 -670h-22z" />
    <glyph glyph-name="eight" unicode="8" horiz-adv-x="592" 
d="M371 352q77 -12 123 -60.5t46 -118.5q0 -89 -65 -140t-179 -51q-115 0 -179.5 51t-64.5 140q0 70 45.5 118t124.5 60q-67 15 -106.5 61.5t-39.5 110.5q0 86 60 136.5t161 50.5t160 -50.5t59 -135.5q0 -63 -39.5 -110t-105.5 -62zM517 173q0 79 -58.5 123.5t-162.5 44.5
t-162.5 -44.5t-58.5 -123.5q0 -80 59 -125t162 -45t162 45t59 125zM493 525q0 75 -53.5 119.5t-143.5 44.5t-143.5 -44.5t-53.5 -119.5t53.5 -119.5t143.5 -44.5t143.5 44.5t53.5 119.5z" />
    <glyph glyph-name="nine" unicode="9" horiz-adv-x="592" 
d="M110 140q11 -65 55.5 -101t117.5 -36q112 0 162 85.5t50 277.5v49q-14 -71 -72.5 -114.5t-140.5 -43.5q-101 0 -158 58.5t-57 162.5q0 106 60 169t160 63q229 0 229 -344q0 -198 -55.5 -291t-174.5 -93q-85 0 -137 42t-60 116h21zM284 278q88 0 143.5 52.5t55.5 135.5
q0 102 -53.5 162.5t-143.5 60.5q-91 0 -143.5 -57t-52.5 -156q0 -94 50.5 -146t143.5 -52z" />
    <glyph glyph-name="colon" unicode=":" horiz-adv-x="162" 
d="M70 0v97h22v-97h-22zM70 414v97h22v-97h-22z" />
    <glyph glyph-name="semicolon" unicode=";" horiz-adv-x="162" 
d="M36 -86l34 183h23l-38 -183h-19zM70 414v97h22v-97h-22z" />
    <glyph glyph-name="less" unicode="&#x3c;" horiz-adv-x="592" 
d="M77 330v17l437 227v-22l-409 -213l409 -212v-23z" />
    <glyph glyph-name="equal" unicode="=" horiz-adv-x="592" 
d="M83 217v20h426v-20h-426zM83 443v20h426v-20h-426z" />
    <glyph glyph-name="greater" unicode="&#x3e;" horiz-adv-x="592" 
d="M78 104v22l409 213l-409 212v23l437 -226v-17z" />
    <glyph glyph-name="question" unicode="?" horiz-adv-x="489" 
d="M227 176v5q0 41 9 68.5t31.5 56.5t66.5 73q42 42 59.5 78.5t17.5 80.5q0 76 -47 120.5t-128 44.5q-75 0 -118.5 -38t-62.5 -119l-20 4q17 87 67.5 130.5t133.5 43.5q90 0 143.5 -50.5t53.5 -135.5q0 -96 -82 -172q-61 -58 -81.5 -94.5t-20.5 -87.5v-8h-22zM227 0v97h22
v-97h-22z" />
    <glyph glyph-name="at" unicode="@" horiz-adv-x="901" 
d="M749 -66q-47 -74 -119.5 -109t-177.5 -35q-191 0 -296.5 101t-105.5 285q0 137 52 247t149 174t224 64q112 0 198 -45t134.5 -130t48.5 -200q0 -130 -53 -210t-138 -80q-43 0 -68 22t-25 60q0 14 1 19q-53 -107 -168 -107q-78 0 -121 48t-43 135q0 73 28.5 135t79.5 100
t114 38q58 0 97.5 -31.5t51.5 -87.5l19 107h21l-59 -333q-1 -7 -1.5 -11t-0.5 -8q0 -31 20 -48.5t55 -17.5q48 0 86 32.5t60 94t22 142.5q0 107 -42.5 187t-124 124.5t-193.5 44.5q-115 0 -206 -57t-143.5 -163t-52.5 -246q0 -176 98.5 -270.5t281.5 -94.5q96 0 161 29.5
t114 94.5h22zM598 249q3 20 3 34q0 63 -38.5 103.5t-98.5 40.5q-54 0 -99.5 -32t-73.5 -90.5t-28 -131.5q0 -79 36 -121.5t105 -42.5q75 0 123 51t64 146z" />
    <glyph glyph-name="A" unicode="A" horiz-adv-x="637" 
d="M587 0l-92 236h-354l-92 -236h-24l281 714h25l281 -714h-25zM318 691l-169 -434h338z" />
    <glyph glyph-name="B" unicode="B" horiz-adv-x="611" 
d="M86 0v714h250q96 0 149 -45.5t53 -127.5q0 -43 -15.5 -78t-45.5 -57.5t-73 -29.5q75 -10 116 -58.5t41 -127.5q0 -91 -57.5 -140.5t-163.5 -49.5h-254zM338 21q200 0 200 171q0 82 -49.5 127t-139.5 45h-241v-343h230zM349 385q78 0 122.5 41t44.5 114q0 153 -181 153
h-227v-308h241z" />
    <glyph glyph-name="C" unicode="C" horiz-adv-x="685" 
d="M630 230q-15 -116 -85.5 -181t-182.5 -65q-92 0 -160 44t-105 128t-37 200q0 176 80 276t221 100q103 0 170 -58.5t90 -169.5l-20 -5q-25 107 -84 159.5t-155 52.5q-132 0 -205.5 -93t-73.5 -260q0 -166 74.5 -259.5t206.5 -93.5q101 0 165 58.5t81 166.5h20z" />
    <glyph glyph-name="D" unicode="D" horiz-adv-x="687" 
d="M86 0v714h229q150 0 231 -93t81 -264q0 -174 -84 -265.5t-245 -91.5h-212zM299 21q150 0 227.5 85t77.5 249q0 165 -74 251.5t-215 86.5h-207v-672h191z" />
    <glyph glyph-name="E" unicode="E" horiz-adv-x="573" 
d="M86 0v714h435v-21h-413v-314h393v-21h-393v-337h421l-7 -21h-436z" />
    <glyph glyph-name="F" unicode="F" horiz-adv-x="539" 
d="M107 350v-350h-21v714h409v-21h-388v-322h366v-21h-366z" />
    <glyph glyph-name="G" unicode="G" horiz-adv-x="687" 
d="M599 311h-217v21h239v-260q-42 -41 -106 -64.5t-136 -23.5q-153 0 -236 96.5t-83 272.5q0 178 81 278.5t224 100.5q96 0 157.5 -48.5t83.5 -141.5l-20 -5q-45 174 -222 174q-134 0 -207.5 -93.5t-73.5 -263.5q0 -169 76.5 -259t219.5 -90q67 0 124 19t96 55v232z" />
    <glyph glyph-name="H" unicode="H" horiz-adv-x="673" 
d="M565 0v360h-457v-360h-22v714h22v-333h457v333h22v-714h-22z" />
    <glyph glyph-name="I" unicode="I" horiz-adv-x="194" 
d="M86 0v714h22v-714h-22z" />
    <glyph glyph-name="J" unicode="J" horiz-adv-x="564" 
d="M460 714h22v-486q0 -119 -56.5 -181.5t-162.5 -62.5q-101 0 -161 55t-72 159h20q30 -193 213 -193q197 0 197 225v484z" />
    <glyph glyph-name="K" unicode="K" horiz-adv-x="623" 
d="M573 0l-286 437l-180 -176v-261h-21v714h21v-426l436 426h28l-269 -263l296 -451h-25z" />
    <glyph glyph-name="L" unicode="L" horiz-adv-x="547" 
d="M86 0v714h22v-693h409l-7 -21h-424z" />
    <glyph glyph-name="M" unicode="M" horiz-adv-x="812" 
d="M705 0v677l-289 -677h-20l-289 677v-677h-21v714h27l293 -686l294 686h26v-714h-21z" />
    <glyph glyph-name="N" unicode="N" horiz-adv-x="674" 
d="M561 0l-453 682v-682h-22v714h25l455 -684v684h22v-714h-27z" />
    <glyph glyph-name="O" unicode="O" horiz-adv-x="736" 
d="M368 -16q-93 0 -162.5 44t-107.5 128.5t-38 201.5q0 114 36.5 198t106 130t165.5 46q93 0 162.5 -44t107.5 -128.5t38 -200.5q0 -114 -36.5 -198t-106 -130.5t-165.5 -46.5zM368 5q87 0 151 41.5t99 121t35 190.5q0 107 -33.5 186.5t-98 123t-153.5 43.5
q-87 0 -151 -41.5t-99 -121t-35 -190.5q0 -107 33.5 -186.5t98 -123t153.5 -43.5z" />
    <glyph glyph-name="P" unicode="P" horiz-adv-x="598" 
d="M86 0v714h245q110 0 166 -51.5t56 -152.5q0 -100 -58 -153t-168 -53h-219v-304h-22zM328 325q202 0 202 185q0 93 -50 138t-153 45h-219v-368h220z" />
    <glyph glyph-name="Q" unicode="Q" horiz-adv-x="736" 
d="M641 -68l-89 110q-71 -58 -184 -58q-142 0 -225 100.5t-83 273.5q0 114 36.5 198t106 130t165.5 46q93 0 162.5 -44t107.5 -128.5t38 -201.5q0 -98 -28 -175.5t-81 -127.5l90 -110zM432 191l16 13l106 -132q49 47 74 119.5t25 166.5q0 107 -33.5 186.5t-98 123
t-153.5 43.5q-87 0 -151 -41.5t-99 -121t-35 -190.5q0 -107 33.5 -186.5t98 -123t153.5 -43.5q104 0 170 54z" />
    <glyph glyph-name="R" unicode="R" horiz-adv-x="613" 
d="M544 0l-154 335q-28 -5 -65 -5h-217v-330h-22v714h243q217 0 217 -191q0 -74 -34.5 -120.5t-100.5 -63.5l157 -339h-24zM326 351q101 0 149 42.5t48 129.5q0 88 -48 129t-150 41h-217v-342h218z" />
    <glyph glyph-name="S" unicode="S" horiz-adv-x="604" 
d="M258 364q-101 17 -146 60t-45 122q0 88 61 137t171 49q100 0 156.5 -40.5t81.5 -128.5l-20 -5q-22 81 -73.5 117t-144.5 36q-103 0 -156.5 -42t-53.5 -122q0 -74 41 -111t137 -52l80 -12q104 -15 151.5 -61t47.5 -130q0 -96 -60.5 -146.5t-174.5 -50.5q-113 0 -181.5 48
t-80.5 136h20q14 -79 76.5 -121t165.5 -42q105 0 158.5 44.5t53.5 131.5q0 54 -18.5 87.5t-58.5 53t-107 29.5z" />
    <glyph glyph-name="T" unicode="T" horiz-adv-x="570" 
d="M274 0v693h-254v21h530v-21h-254v-693h-22z" />
    <glyph glyph-name="U" unicode="U" horiz-adv-x="660" 
d="M557 714h22v-435q0 -295 -249 -295t-249 295v435h22v-438q0 -271 227 -271t227 271v438z" />
    <glyph glyph-name="V" unicode="V" horiz-adv-x="613" 
d="M293 0l-268 714h24l258 -690l258 690h23l-268 -714h-27z" />
    <glyph glyph-name="W" unicode="W" horiz-adv-x="868" 
d="M620 0l-186 681l-186 -681h-26l-192 714h23l182 -682l187 679h25l186 -681l183 684h22l-192 -714h-26z" />
    <glyph glyph-name="X" unicode="X" horiz-adv-x="599" 
d="M552 0l-256 358l-250 -358h-26l263 374l-243 340h27l229 -323l231 323h26l-243 -339l269 -375h-27z" />
    <glyph glyph-name="Y" unicode="Y" horiz-adv-x="557" 
d="M268 0v309l-243 405h25l229 -382l229 382h24l-242 -403v-311h-22z" />
    <glyph glyph-name="Z" unicode="Z" horiz-adv-x="579" 
d="M42 0v19l460 674h-452v21h479v-19l-461 -674h466l-7 -21h-485z" />
    <glyph glyph-name="bracketleft" unicode="[" horiz-adv-x="253" 
d="M80 -124v858h158v-20h-137v-818h137v-20h-158z" />
    <glyph glyph-name="backslash" unicode="\" horiz-adv-x="275" 
d="M239 0l-224 734h21l224 -734h-21z" />
    <glyph glyph-name="bracketright" unicode="]" horiz-adv-x="253" 
d="M15 -124v20h137v818h-137v20h158v-858h-158z" />
    <glyph glyph-name="asciicircum" unicode="^" horiz-adv-x="592" 
d="M490 311l-195 371l-195 -371h-22l207 392h21l207 -392h-23z" />
    <glyph glyph-name="underscore" unicode="_" horiz-adv-x="500" 
d="M0 -143v20h500v-20h-500z" />
    <glyph glyph-name="grave" unicode="`" horiz-adv-x="542" 
d="M317 585l-116 129h27l113 -129h-24z" />
    <glyph glyph-name="a" unicode="a" horiz-adv-x="511" 
d="M419 0v96q-30 -53 -79.5 -80.5t-113.5 -27.5q-87 0 -134 40.5t-47 115.5q0 83 59.5 122t193.5 44l121 5v25q0 92 -36.5 129.5t-124.5 37.5q-73 0 -114.5 -26t-54.5 -80l-19 4q12 60 60 91t130 31q95 0 137.5 -44t42.5 -140v-343h-21zM419 296l-118 -5q-89 -4 -139.5 -20
t-72.5 -47t-22 -80q0 -66 41 -101t118 -35q95 0 155 63q21 23 29.5 45.5t8.5 55.5v124z" />
    <glyph glyph-name="b" unicode="b" horiz-adv-x="567" 
d="M74 0v714h21v-321q26 65 77.5 99.5t123.5 34.5q103 0 162 -72t59 -199t-61 -199.5t-167 -72.5q-71 0 -122.5 33.5t-71.5 93.5v-111h-21zM94 229q0 -119 59 -178q22 -22 58 -34.5t78 -12.5q97 0 151.5 66.5t54.5 185.5q0 118 -52.5 184.5t-146.5 66.5q-86 0 -139 -51
q-63 -60 -63 -171v-56z" />
    <glyph glyph-name="c" unicode="c" horiz-adv-x="533" 
d="M483 168q-13 -87 -67 -135.5t-140 -48.5q-105 0 -165.5 71t-60.5 196q0 128 62 202t169 74q77 0 126 -41.5t67 -123.5l-19 -4q-18 76 -61 112.5t-114 36.5q-98 0 -153 -68t-55 -186q0 -117 53.5 -183t150.5 -66q77 0 125 42.5t62 121.5h20z" />
    <glyph glyph-name="d" unicode="d" horiz-adv-x="567" 
d="M472 0v118q-26 -65 -77.5 -99.5t-123.5 -34.5q-103 0 -162 72t-59 199t61 199.5t167 72.5q71 0 122.5 -33.5t71.5 -93.5v314h21v-714h-21zM473 282q0 119 -59 178q-22 22 -58 34.5t-78 12.5q-97 0 -151.5 -66.5t-54.5 -185.5q0 -118 52.5 -184.5t146.5 -66.5q87 0 139 51
q63 60 63 171v56z" />
    <glyph glyph-name="e" unicode="e" horiz-adv-x="533" 
d="M471 122q-14 -65 -65.5 -101.5t-128.5 -36.5q-108 0 -167.5 69.5t-59.5 197.5q0 131 60 203.5t168 72.5q100 0 152.5 -66.5t52.5 -193.5v-17h-412q1 -119 54 -182.5t152 -63.5q70 0 115 31t59 87h20zM462 269q0 117 -46.5 177.5t-137.5 60.5q-95 0 -149 -61.5t-58 -176.5
h391z" />
    <glyph glyph-name="f" unicode="f" horiz-adv-x="301" 
d="M101 0v491h-79v20h79v64q0 68 37.5 107.5t102.5 39.5q36 0 66 -11l-5 -19q-34 10 -61 10q-58 0 -88.5 -32.5t-30.5 -93.5v-65h159v-20h-159v-491h-21z" />
    <glyph glyph-name="g" unicode="g" horiz-adv-x="567" 
d="M472 140q-26 -65 -77 -98.5t-124 -33.5q-102 0 -161.5 69.5t-59.5 189.5q0 121 62 190.5t170 69.5q70 0 118.5 -31t71.5 -91v106h21v-507q0 -108 -50.5 -158.5t-158.5 -50.5q-96 0 -149 35t-62 103h20q19 -118 191 -118q99 0 143.5 44t44.5 143v138zM473 293
q0 115 -59 169q-46 45 -132 45q-99 0 -154.5 -63.5t-55.5 -176.5t52.5 -176t146.5 -63q84 0 139 49q31 29 47 70.5t16 91.5v54z" />
    <glyph glyph-name="h" unicode="h" horiz-adv-x="542" 
d="M450 0v338q0 169 -153 169q-95 0 -159 -64q-28 -27 -35.5 -48.5t-7.5 -75.5v-319h-21v714h21v-293q35 50 88.5 78t115.5 28q85 0 128.5 -47t43.5 -138v-342h-21z" />
    <glyph glyph-name="i" unicode="i" horiz-adv-x="169" 
d="M74 0v511h21v-511h-21zM74 622v92h21v-92h-21z" />
    <glyph glyph-name="j" unicode="j" horiz-adv-x="169" 
d="M74 511h21v-551q0 -72 -29 -109t-85 -37q-40 0 -85 16l6 19q43 -15 79 -15q45 0 69 30.5t24 88.5v558zM74 622v92h21v-92h-21z" />
    <glyph glyph-name="k" unicode="k" horiz-adv-x="477" 
d="M443 0l-205 329l-143 -128v-201h-21v714h21v-489l318 286h28l-188 -169l214 -342h-24z" />
    <glyph glyph-name="l" unicode="l" horiz-adv-x="169" 
d="M74 0v714h21v-714h-21z" />
    <glyph glyph-name="m" unicode="m" horiz-adv-x="842" 
d="M750 0v348q0 80 -33.5 119.5t-103.5 39.5q-84 0 -142 -64q-26 -28 -32 -48.5t-6 -75.5v-319h-21v348q0 159 -137 159q-84 0 -142 -64q-25 -27 -31.5 -48.5t-6.5 -75.5v-319h-21v511h21v-89q32 50 80 77.5t103 27.5q122 0 148 -113q34 53 84 83t106 30q77 0 116 -44.5
t39 -131.5v-351h-21z" />
    <glyph glyph-name="n" unicode="n" horiz-adv-x="542" 
d="M450 0v338q0 169 -153 169q-95 0 -159 -64q-28 -27 -35.5 -48.5t-7.5 -75.5v-319h-21v511h21v-91q35 51 88.5 79t115.5 28q85 0 128.5 -47t43.5 -138v-342h-21z" />
    <glyph glyph-name="o" unicode="o" horiz-adv-x="565" 
d="M282 -16q-109 0 -170.5 71.5t-61.5 199.5t62 200t171 72t170.5 -72t61.5 -200q0 -127 -61.5 -199t-171.5 -72zM282 4q101 0 156 65.5t55 185.5t-55.5 186t-155.5 66t-155 -66t-55 -186t55 -185.5t155 -65.5z" />
    <glyph glyph-name="p" unicode="p" horiz-adv-x="567" 
d="M74 -194v705h21v-118q26 65 77.5 99.5t123.5 34.5q103 0 162 -72t59 -199t-61 -199.5t-167 -72.5q-71 0 -122.5 33.5t-71.5 93.5v-305h-21zM94 229q0 -119 59 -178q22 -22 58 -34.5t78 -12.5q97 0 151.5 66.5t54.5 185.5q0 118 -52.5 184.5t-146.5 66.5q-86 0 -139 -51
q-63 -60 -63 -171v-56z" />
    <glyph glyph-name="q" unicode="q" horiz-adv-x="567" 
d="M472 -194v312q-26 -65 -77.5 -99.5t-123.5 -34.5q-103 0 -162 72t-59 199t61 199.5t167 72.5q71 0 122.5 -33.5t71.5 -93.5v111h21v-705h-21zM473 282q0 119 -59 178q-22 22 -58 34.5t-78 12.5q-97 0 -151.5 -66.5t-54.5 -185.5q0 -118 52.5 -184.5t146.5 -66.5
q87 0 139 51q63 60 63 171v56z" />
    <glyph glyph-name="r" unicode="r" horiz-adv-x="330" 
d="M74 0v511h21v-92q65 100 178 100q19 0 38 -3l-3 -21q-19 3 -35 3q-50 0 -88.5 -19.5t-68.5 -60.5q-13 -18 -17 -37t-4 -62v-319h-21z" />
    <glyph glyph-name="s" unicode="s" horiz-adv-x="497" 
d="M411 400q-19 58 -57 82.5t-110 24.5q-159 0 -159 -115q0 -48 30.5 -73.5t104.5 -37.5l52 -9q68 -11 104 -27.5t51.5 -43t15.5 -69.5q0 -72 -48.5 -110t-140.5 -38q-61 0 -105.5 17t-70 50t-30.5 81h20q19 -128 186 -128t167 127q0 39 -14.5 61.5t-47 36t-90.5 23.5l-48 8
q-84 13 -121 44t-37 89q0 64 47.5 99t133.5 35q80 0 123.5 -28.5t62.5 -94.5z" />
    <glyph glyph-name="t" unicode="t" horiz-adv-x="318" 
d="M303 5q-32 -16 -77 -16q-65 0 -95 36.5t-30 114.5v351h-79v20h79v143h21v-143h173v-20h-173v-355q0 -64 25.5 -95.5t78.5 -31.5q37 0 71 14z" />
    <glyph glyph-name="u" unicode="u" horiz-adv-x="532" 
d="M437 0v92q-34 -52 -86 -80t-113 -28q-82 0 -124.5 47t-42.5 138v342h21v-338q0 -169 149 -169q46 0 83 15.5t71 48.5q27 26 34.5 48.5t7.5 75.5v319h21v-511h-21z" />
    <glyph glyph-name="v" unicode="v" horiz-adv-x="467" 
d="M222 0l-212 511h22l202 -487l202 487h21l-212 -511h-23z" />
    <glyph glyph-name="w" unicode="w" horiz-adv-x="679" 
d="M491 0l-152 484l-151 -484h-25l-150 511h22l142 -487l152 485h22l152 -485l142 487h21l-150 -511h-25z" />
    <glyph glyph-name="x" unicode="x" horiz-adv-x="449" 
d="M415 0l-193 256l-189 -256h-23l199 271l-182 240h24l171 -225l172 225h23l-183 -239l205 -272h-24z" />
    <glyph glyph-name="y" unicode="y" horiz-adv-x="467" 
d="M235 5l-225 506h22l212 -481l192 481h21l-241 -603q-23 -56 -49.5 -79t-67.5 -23q-29 0 -60 10l5 18q29 -9 55 -9q34 0 56.5 20.5t42.5 69.5z" />
    <glyph glyph-name="z" unicode="z" horiz-adv-x="440" 
d="M30 0v14l337 477h-330v20h356v-16l-336 -475h353l-6 -20h-374z" />
    <glyph glyph-name="braceleft" unicode="{" horiz-adv-x="259" 
d="M185 -124q-39 0 -60 23t-21 66v260q0 70 -69 70h-5v20h5q69 0 69 70v260q0 43 21 66t60 23h59v-20h-62q-27 0 -42 -17.5t-15 -48.5v-261q0 -33 -13 -54t-37 -28q24 -7 37 -28t13 -54v-261q0 -31 15 -48.5t42 -17.5h62v-20h-59z" />
    <glyph glyph-name="bar" unicode="|" horiz-adv-x="193" 
d="M86 -124v858h21v-858h-21z" />
    <glyph glyph-name="braceright" unicode="}" horiz-adv-x="259" 
d="M15 -124v20h62q27 0 42 17.5t15 48.5v261q0 33 13 54t37 28q-24 7 -37 28t-13 54v261q0 31 -15 48.5t-42 17.5h-62v20h59q39 0 60 -23t21 -66v-260q0 -70 69 -70h5v-20h-5q-69 0 -69 -70v-260q0 -43 -21 -66t-60 -23h-59z" />
    <glyph glyph-name="asciitilde" unicode="~" horiz-adv-x="592" 
d="M527 403q0 -66 -29.5 -103t-81.5 -37q-28 0 -55.5 15t-65.5 50q-42 40 -67.5 54.5t-52.5 14.5q-42 0 -65 -31t-23 -89h-21q0 66 29.5 103t81.5 37q28 0 55.5 -15t65.5 -50q42 -40 67.5 -54.5t52.5 -14.5q42 0 65 31t23 89h21z" />
    <glyph glyph-name="uni00A0" unicode="&#xa0;" horiz-adv-x="225" 
 />
    <glyph glyph-name="exclamdown" unicode="&#xa1;" horiz-adv-x="192" 
d="M85 -203l1 536h20l1 -536h-22zM85 414v97h22v-97h-22z" />
    <glyph glyph-name="cent" unicode="&#xa2;" horiz-adv-x="592" 
d="M297 -9v77q-103 3 -162 74t-59 193q0 80 26.5 141t76.5 96t118 38v81h20v-80q155 -3 193 -165l-19 -4q-20 76 -62.5 112.5t-111.5 37.5v-505q74 3 121.5 46t60.5 119h20q-14 -86 -67 -133.5t-135 -50.5v-77h-20zM297 591q-93 -4 -146 -71.5t-53 -182.5t52.5 -180.5
t146.5 -69.5v504z" />
    <glyph glyph-name="sterling" unicode="&#xa3;" horiz-adv-x="592" 
d="M93 0v21q61 76 61 207q0 53 -7 106h-74v19h71q-14 97 -14 142q0 101 54 158t151 57q74 0 119 -37t64 -115l-20 -5q-19 71 -58 103.5t-105 32.5q-87 0 -135 -51t-48 -143q0 -41 14 -142h247v-19h-244q7 -57 7 -106q0 -128 -58 -207h417l-7 -21h-435z" />
    <glyph glyph-name="currency" unicode="&#xa4;" horiz-adv-x="592" 
d="M493 100l-54 59q-55 -49 -144 -49t-144 49l-54 -59l-15 14l55 60q-56 62 -56 171q0 107 56 171l-55 61l15 14l54 -60q56 50 144 50q86 0 143 -49l55 59l15 -14l-55 -60q57 -63 57 -172t-57 -172l55 -59zM295 130q91 0 142 57t51 158q0 102 -51 159t-142 57t-141.5 -57
t-50.5 -159q0 -101 51 -158t141 -57z" />
    <glyph glyph-name="yen" unicode="&#xa5;" horiz-adv-x="592" 
d="M308 189v-189h-22v189h-198v19h198v103l-24 38h-174v19h162l-207 323h25l229 -359l229 359h24l-207 -323h168v-19h-180l-23 -36v-105h203v-19h-203z" />
    <glyph glyph-name="brokenbar" unicode="&#xa6;" horiz-adv-x="193" 
d="M86 -124v353h21v-353h-21zM86 398v336h21v-336h-21z" />
    <glyph glyph-name="section" unicode="&#xa7;" horiz-adv-x="488" 
d="M200 173q-77 19 -114.5 55t-37.5 92q0 58 33.5 96t91.5 45q-120 36 -120 133q0 67 48.5 102.5t140.5 35.5q83 0 128 -28.5t65 -94.5l-19 -4q-19 58 -59.5 82.5t-114.5 24.5q-85 0 -126 -29t-41 -90q0 -45 30.5 -74t94.5 -46l92 -24q78 -20 115 -55t37 -90
q0 -56 -33.5 -94.5t-88.5 -46.5q62 -20 91 -53t29 -84q0 -71 -48.5 -109t-140.5 -38q-61 0 -105.5 17t-70 50t-30.5 81h20q19 -128 186 -128t167 127q0 49 -29 78t-93 45zM249 182q25 -5 44 -5q57 0 93 35t36 90q0 49 -33.5 80.5t-105.5 49.5l-40 10q-22 6 -44 6
q-57 0 -93 -35t-36 -91q0 -50 32.5 -80.5t106.5 -49.5z" />
    <glyph glyph-name="dieresis" unicode="&#xa8;" horiz-adv-x="542" 
d="M186 622v92h21v-92h-21zM334 622v92h21v-92h-21z" />
    <glyph glyph-name="copyright" unicode="&#xa9;" horiz-adv-x="780" 
d="M391 20q88 0 160 41.5t114.5 119t42.5 176.5q0 98 -38.5 174t-110.5 119.5t-168 43.5q-89 0 -161 -42t-115 -119t-43 -176q0 -98 39 -174t111.5 -119.5t168.5 -43.5zM391 0q-99 0 -176 43.5t-121 124.5t-44 189q0 99 42 180t120 129t179 48q99 0 175.5 -43.5t120 -124.5
t43.5 -189q0 -100 -42 -181t-119.5 -128.5t-177.5 -47.5zM554 288q-9 -65 -50.5 -101.5t-106.5 -36.5q-82 0 -129.5 55.5t-47.5 150.5q0 97 48 152.5t132 55.5q59 0 97 -31.5t52 -92.5l-20 -4q-13 54 -45 81t-84 27q-75 0 -116.5 -49.5t-41.5 -138.5q0 -88 41 -137t114 -49
q56 0 92.5 31t44.5 87h20z" />
    <glyph glyph-name="ordfeminine" unicode="&#xaa;" horiz-adv-x="409" 
d="M324 343v67q-47 -75 -142 -75q-63 0 -97.5 30t-34.5 85q0 61 44.5 90.5t141.5 33.5l88 4v16q0 65 -26 92t-88 27q-55 0 -84 -17.5t-40 -56.5l-18 3q9 44 45 67t97 23q71 0 102.5 -32t31.5 -104v-253h-20zM324 560l-84 -4q-92 -4 -130.5 -28t-38.5 -78q0 -47 28.5 -71.5
t83.5 -24.5q73 0 116 47q14 16 19.5 32t5.5 44v83z" />
    <glyph glyph-name="guillemotleft" unicode="&#xab;" horiz-adv-x="433" 
d="M187 34l-147 222l147 222h23l-146 -221l146 -223h-23zM360 34l-147 222l147 222h23l-146 -221l146 -223h-23z" />
    <glyph glyph-name="logicalnot" unicode="&#xac;" horiz-adv-x="592" 
d="M489 161v238h-427v20h448v-258h-21z" />
    <glyph glyph-name="uni00AD" unicode="&#xad;" horiz-adv-x="387" 
d="M50 278v20h287v-20h-287z" />
    <glyph glyph-name="registered" unicode="&#xae;" horiz-adv-x="468" 
d="M234 314q-88 0 -141 56t-53 148q0 57 24 103t68 73.5t102 27.5q88 0 141 -56t53 -148q0 -57 -24 -103t-68 -73.5t-102 -27.5zM234 333q49 0 88.5 22.5t62.5 64.5t23 98q0 84 -47.5 134.5t-126.5 50.5q-49 0 -88.5 -22.5t-62.5 -64.5t-23 -98q0 -84 47.5 -134.5
t126.5 -50.5zM299 421l-43 86h-72v-86h-20v202h87q30 0 47.5 -15.5t17.5 -41.5q0 -20 -10.5 -34.5t-29.5 -20.5l46 -90h-23zM249 526q46 0 46 39t-46 39h-65v-78h65z" />
    <glyph glyph-name="macron" unicode="&#xaf;" horiz-adv-x="542" 
d="M155 633v19h232v-19h-232z" />
    <glyph glyph-name="degree" unicode="&#xb0;" horiz-adv-x="306" 
d="M281 583q0 -55 -36.5 -91t-91.5 -36t-91.5 36t-36.5 91t36.5 91t91.5 36t91.5 -36t36.5 -91zM261 583q0 47 -30.5 77.5t-77.5 30.5q-46 0 -77 -30.5t-31 -77.5q0 -46 31 -77t77 -31q47 0 77.5 31t30.5 77z" />
    <glyph glyph-name="plusminus" unicode="&#xb1;" horiz-adv-x="592" 
d="M73 0v20h446v-20h-446zM286 103v227h-213v20h213v226h21v-226h212v-20h-212v-227h-21z" />
    <glyph glyph-name="uni00B2" unicode="&#xb2;" 
d="M75 294v18l95 82q79 67 109.5 109.5t30.5 86.5q0 47 -26 71.5t-74 24.5q-90 0 -114 -86l-19 3q12 50 46 76.5t87 26.5q56 0 89 -30.5t33 -83.5q0 -48 -31.5 -93t-115.5 -118l-77 -67h227l-6 -20h-254z" />
    <glyph glyph-name="uni00B3" unicode="&#xb3;" 
d="M157 494v19h59q40 0 63 23t23 65q0 86 -99 86q-46 0 -73.5 -20t-39.5 -62l-19 3q10 48 44 73.5t88 25.5q58 0 89.5 -27.5t31.5 -77.5q0 -35 -17 -61t-48 -36q34 -8 53.5 -37.5t19.5 -70.5q0 -55 -34.5 -85.5t-96.5 -30.5t-99.5 31t-38.5 82h19q4 -45 35 -69t84 -24
t81 24.5t28 71.5q0 44 -24 70.5t-64 26.5h-65z" />
    <glyph glyph-name="acute" unicode="&#xb4;" horiz-adv-x="542" 
d="M201 585l113 129h27l-116 -129h-24z" />
    <glyph glyph-name="mu" unicode="&#xb5;" horiz-adv-x="535" 
d="M440 0v92q-34 -51 -86 -79.5t-111 -28.5q-113 0 -148 88v-266h-21v705h21v-338q0 -169 150 -169q88 0 153 64q27 26 34.5 48.5t7.5 75.5v319h21v-511h-21z" />
    <glyph glyph-name="paragraph" unicode="&#xb6;" horiz-adv-x="510" 
d="M410 -139v833h-137v-833h-20v477q-110 0 -166.5 47.5t-56.5 139.5q0 93 63.5 141t186.5 48h150v-853h-20z" />
    <glyph glyph-name="periodcentered" unicode="&#xb7;" horiz-adv-x="162" 
d="M70 325v97h22v-97h-22z" />
    <glyph glyph-name="cedilla" unicode="&#xb8;" horiz-adv-x="542" 
d="M191 -158q25 -5 56 -5q44 0 63.5 10.5t19.5 33.5q0 24 -21 34.5t-70 10.5h-14l25 76l17 -2l-17 -57q52 -1 76 -16t24 -47t-25 -47t-77 -15q-32 0 -57 5v19z" />
    <glyph glyph-name="uni00B9" unicode="&#xb9;" 
d="M213 294v378l-113 -58l-9 17l122 63h21v-400h-21z" />
    <glyph glyph-name="ordmasculine" unicode="&#xba;" horiz-adv-x="435" 
d="M216 334q-80 0 -128 54t-48 144q0 89 49.5 144.5t128.5 55.5q82 0 129.5 -53t47.5 -144t-49 -146t-130 -55zM216 353q73 0 115.5 49.5t42.5 132.5q0 84 -41 131t-115 47q-71 0 -114 -49.5t-43 -131.5q0 -83 41.5 -131t113.5 -48z" />
    <glyph glyph-name="guillemotright" unicode="&#xbb;" horiz-adv-x="433" 
d="M50 34l146 221l-146 223h23l147 -222l-147 -222h-23zM223 34l146 221l-146 223h23l147 -222l-147 -222h-23z" />
    <glyph glyph-name="onequarter" unicode="&#xbc;" horiz-adv-x="879" 
d="M239 0l355 691h23l-355 -691h-23zM749 0v113h-207v16l208 271h20v-267h50l-6 -20h-44v-113h-21zM749 367l-180 -234h180v234zM169 291v378l-113 -58l-9 17l122 63h21v-400h-21z" />
    <glyph glyph-name="onehalf" unicode="&#xbd;" horiz-adv-x="879" 
d="M219 0l355 691h23l-355 -691h-23zM544 0v18l95 82q79 67 109.5 109.5t30.5 86.5q0 47 -26 71.5t-74 24.5q-90 0 -114 -86l-19 3q12 50 46 76.5t87 26.5q56 0 89 -30.5t33 -83.5q0 -48 -31.5 -93t-115.5 -118l-77 -67h227l-6 -20h-254zM169 291v378l-113 -58l-9 17l122 63
h21v-400h-21z" />
    <glyph glyph-name="threequarters" unicode="&#xbe;" horiz-adv-x="879" 
d="M284 0l355 691h23l-355 -691h-23zM749 0v113h-207v16l208 271h20v-267h50l-6 -20h-44v-113h-21zM749 367l-180 -234h180v234zM153 491v19h59q40 0 63 23t23 65q0 86 -99 86q-46 0 -73.5 -20t-39.5 -62l-19 3q10 48 44 73.5t88 25.5q58 0 89.5 -27.5t31.5 -77.5
q0 -35 -17 -61t-48 -36q34 -8 53.5 -37.5t19.5 -70.5q0 -55 -34.5 -85.5t-96.5 -30.5t-99.5 31t-38.5 82h19q4 -45 35 -69t84 -24t81 24.5t28 71.5q0 44 -24 70.5t-64 26.5h-65z" />
    <glyph glyph-name="questiondown" unicode="&#xbf;" horiz-adv-x="458" 
d="M443 -39q-17 -87 -67.5 -130.5t-133.5 -43.5q-90 0 -143.5 50.5t-53.5 135.5q0 96 82 172q61 58 81.5 94.5t20.5 87.5v8h22v-5q0 -41 -9 -68.5t-31.5 -56.5t-66.5 -73q-42 -42 -59.5 -78.5t-17.5 -80.5q0 -76 47 -120.5t128 -44.5q75 0 118.5 38t62.5 119zM229 414v97h22
v-97h-22z" />
    <glyph glyph-name="Agrave" unicode="&#xc0;" horiz-adv-x="637" 
d="M587 0l-92 236h-354l-92 -236h-24l281 714h25l281 -714h-25zM318 691l-169 -434h338zM336 774l-116 123h28l113 -123h-25z" />
    <glyph glyph-name="Aacute" unicode="&#xc1;" horiz-adv-x="637" 
d="M587 0l-92 236h-354l-92 -236h-24l281 714h25l281 -714h-25zM318 691l-169 -434h338zM275 774l113 123h28l-116 -123h-25z" />
    <glyph glyph-name="Acircumflex" unicode="&#xc2;" horiz-adv-x="637" 
d="M587 0l-92 236h-354l-92 -236h-24l281 714h25l281 -714h-25zM318 691l-169 -434h338zM414 774l-96 105l-96 -105h-25l110 123h22l110 -123h-25z" />
    <glyph glyph-name="Atilde" unicode="&#xc3;" horiz-adv-x="637" 
d="M587 0l-92 236h-354l-92 -236h-24l281 714h25l281 -714h-25zM318 691l-169 -434h338zM476 865q0 -38 -23 -61.5t-59 -23.5q-34 0 -75 30q-30 23 -45.5 30t-33.5 7q-26 0 -41.5 -17t-16.5 -48h-21q0 38 22.5 61.5t58.5 23.5q18 0 36 -7t40 -24q26 -20 43 -28t34 -8
q27 0 43 17t17 48h21z" />
    <glyph glyph-name="Adieresis" unicode="&#xc4;" horiz-adv-x="637" 
d="M587 0l-92 236h-354l-92 -236h-24l281 714h25l281 -714h-25zM318 691l-169 -434h338zM228 790v92h22v-92h-22zM387 790v92h22v-92h-22z" />
    <glyph glyph-name="Aring" unicode="&#xc5;" horiz-adv-x="637" 
d="M587 0l-92 236h-354l-92 -236h-24l274 696q-31 6 -47.5 27.5t-16.5 55.5q0 39 22.5 62t60.5 23t60.5 -23t22.5 -62q0 -34 -16.5 -55.5t-46.5 -27.5l274 -696h-25zM318 691l-169 -434h338zM318 714q29 0 45.5 17t16.5 48q0 30 -16.5 47.5t-45.5 17.5t-45.5 -17t-16.5 -48
q0 -30 16.5 -47.5t45.5 -17.5z" />
    <glyph glyph-name="AE" unicode="&#xc6;" horiz-adv-x="1002" 
d="M541 0v267h-331l-160 -267h-25l428 714h497v-21h-387v-314h367v-21h-367v-337h395l-7 -21h-410zM541 693h-76l-243 -405h319v405z" />
    <glyph glyph-name="Ccedilla" unicode="&#xc7;" horiz-adv-x="685" 
d="M630 230q-15 -116 -85.5 -181t-182.5 -65q-92 0 -160 44t-105 128t-37 200q0 176 80 276t221 100q103 0 170 -58.5t90 -169.5l-20 -5q-25 107 -84 159.5t-155 52.5q-132 0 -205.5 -93t-73.5 -260q0 -166 74.5 -259.5t206.5 -93.5q101 0 165 58.5t81 166.5h20zM293 -171
q27 -5 58 -5q45 0 64.5 10t19.5 34q0 25 -22.5 35.5t-75.5 10.5h-15l31 89l19 -3l-23 -67q56 -1 82 -16.5t26 -48.5t-25.5 -49t-79.5 -16q-34 0 -59 5v21z" />
    <glyph glyph-name="Egrave" unicode="&#xc8;" horiz-adv-x="573" 
d="M86 0v714h435v-21h-413v-314h393v-21h-393v-337h421l-7 -21h-436zM321 774l-116 123h28l113 -123h-25z" />
    <glyph glyph-name="Eacute" unicode="&#xc9;" horiz-adv-x="573" 
d="M86 0v714h435v-21h-413v-314h393v-21h-393v-337h421l-7 -21h-436zM260 774l113 123h28l-116 -123h-25z" />
    <glyph glyph-name="Ecircumflex" unicode="&#xca;" horiz-adv-x="573" 
d="M86 0v714h435v-21h-413v-314h393v-21h-393v-337h421l-7 -21h-436zM399 774l-96 105l-96 -105h-25l110 123h22l110 -123h-25z" />
    <glyph glyph-name="Edieresis" unicode="&#xcb;" horiz-adv-x="573" 
d="M86 0v714h435v-21h-413v-314h393v-21h-393v-337h421l-7 -21h-436zM213 790v92h22v-92h-22zM372 790v92h22v-92h-22z" />
    <glyph glyph-name="Igrave" unicode="&#xcc;" horiz-adv-x="194" 
d="M86 0v714h22v-714h-22zM115 774l-116 123h28l113 -123h-25z" />
    <glyph glyph-name="Iacute" unicode="&#xcd;" horiz-adv-x="194" 
d="M86 0v714h22v-714h-22zM54 774l113 123h28l-116 -123h-25z" />
    <glyph glyph-name="Icircumflex" unicode="&#xce;" horiz-adv-x="194" 
d="M86 0v714h22v-714h-22zM193 774l-96 105l-96 -105h-25l110 123h22l110 -123h-25z" />
    <glyph glyph-name="Idieresis" unicode="&#xcf;" horiz-adv-x="194" 
d="M86 0v714h22v-714h-22zM7 790v92h22v-92h-22zM166 790v92h22v-92h-22z" />
    <glyph glyph-name="Eth" unicode="&#xd0;" horiz-adv-x="693" 
d="M92 0v358h-82v21h82v335h229q150 0 231 -93t81 -264q0 -174 -84 -265.5t-245 -91.5h-212zM305 21q150 0 227.5 85t77.5 249q0 165 -74 251.5t-215 86.5h-207v-314h226v-21h-226v-337h191z" />
    <glyph glyph-name="Ntilde" unicode="&#xd1;" horiz-adv-x="674" 
d="M561 0l-453 682v-682h-22v714h25l455 -684v684h22v-714h-27zM495 865q0 -38 -23 -61.5t-59 -23.5q-34 0 -75 30q-30 23 -45.5 30t-33.5 7q-26 0 -41.5 -17t-16.5 -48h-21q0 38 22.5 61.5t58.5 23.5q18 0 36 -7t40 -24q26 -20 43 -28t34 -8q27 0 43 17t17 48h21z" />
    <glyph glyph-name="Ograve" unicode="&#xd2;" horiz-adv-x="736" 
d="M368 -16q-93 0 -162.5 44t-107.5 128.5t-38 201.5q0 114 36.5 198t106 130t165.5 46q93 0 162.5 -44t107.5 -128.5t38 -200.5q0 -114 -36.5 -198t-106 -130.5t-165.5 -46.5zM368 5q87 0 151 41.5t99 121t35 190.5q0 107 -33.5 186.5t-98 123t-153.5 43.5
q-87 0 -151 -41.5t-99 -121t-35 -190.5q0 -107 33.5 -186.5t98 -123t153.5 -43.5zM386 774l-116 123h28l113 -123h-25z" />
    <glyph glyph-name="Oacute" unicode="&#xd3;" horiz-adv-x="736" 
d="M368 -16q-93 0 -162.5 44t-107.5 128.5t-38 201.5q0 114 36.5 198t106 130t165.5 46q93 0 162.5 -44t107.5 -128.5t38 -200.5q0 -114 -36.5 -198t-106 -130.5t-165.5 -46.5zM368 5q87 0 151 41.5t99 121t35 190.5q0 107 -33.5 186.5t-98 123t-153.5 43.5
q-87 0 -151 -41.5t-99 -121t-35 -190.5q0 -107 33.5 -186.5t98 -123t153.5 -43.5zM325 774l113 123h28l-116 -123h-25z" />
    <glyph glyph-name="Ocircumflex" unicode="&#xd4;" horiz-adv-x="736" 
d="M368 -16q-93 0 -162.5 44t-107.5 128.5t-38 201.5q0 114 36.5 198t106 130t165.5 46q93 0 162.5 -44t107.5 -128.5t38 -200.5q0 -114 -36.5 -198t-106 -130.5t-165.5 -46.5zM368 5q87 0 151 41.5t99 121t35 190.5q0 107 -33.5 186.5t-98 123t-153.5 43.5
q-87 0 -151 -41.5t-99 -121t-35 -190.5q0 -107 33.5 -186.5t98 -123t153.5 -43.5zM464 774l-96 105l-96 -105h-25l110 123h22l110 -123h-25z" />
    <glyph glyph-name="Otilde" unicode="&#xd5;" horiz-adv-x="736" 
d="M368 -16q-93 0 -162.5 44t-107.5 128.5t-38 201.5q0 114 36.5 198t106 130t165.5 46q93 0 162.5 -44t107.5 -128.5t38 -200.5q0 -114 -36.5 -198t-106 -130.5t-165.5 -46.5zM368 5q87 0 151 41.5t99 121t35 190.5q0 107 -33.5 186.5t-98 123t-153.5 43.5
q-87 0 -151 -41.5t-99 -121t-35 -190.5q0 -107 33.5 -186.5t98 -123t153.5 -43.5zM526 865q0 -38 -23 -61.5t-59 -23.5q-34 0 -75 30q-30 23 -45.5 30t-33.5 7q-26 0 -41.5 -17t-16.5 -48h-21q0 38 22.5 61.5t58.5 23.5q18 0 36 -7t40 -24q26 -20 43 -28t34 -8q27 0 43 17
t17 48h21z" />
    <glyph glyph-name="Odieresis" unicode="&#xd6;" horiz-adv-x="736" 
d="M368 -16q-93 0 -162.5 44t-107.5 128.5t-38 201.5q0 114 36.5 198t106 130t165.5 46q93 0 162.5 -44t107.5 -128.5t38 -200.5q0 -114 -36.5 -198t-106 -130.5t-165.5 -46.5zM368 5q87 0 151 41.5t99 121t35 190.5q0 107 -33.5 186.5t-98 123t-153.5 43.5
q-87 0 -151 -41.5t-99 -121t-35 -190.5q0 -107 33.5 -186.5t98 -123t153.5 -43.5zM278 790v92h22v-92h-22zM437 790v92h22v-92h-22z" />
    <glyph glyph-name="multiply" unicode="&#xd7;" horiz-adv-x="592" 
d="M296 325l-178 -178l-14 14l178 178l-182 183l14 14l182 -183l182 182l14 -14l-182 -182l178 -177l-14 -14z" />
    <glyph glyph-name="Oslash" unicode="&#xd8;" horiz-adv-x="736" 
d="M113 -25l53 84q-52 49 -79 125.5t-27 173.5q0 114 36.5 198t106 130t165.5 46q110 0 186 -62l51 80l17 -11l-52 -82q52 -49 79 -125t27 -173q0 -114 -36.5 -198t-106 -130.5t-165.5 -46.5q-111 0 -187 61l-51 -81zM543 652q-71 59 -175 59q-87 0 -151 -41.5t-99 -121
t-35 -190.5q0 -91 24 -162.5t71 -118.5zM193 64q70 -59 175 -59q87 0 151 41.5t99 121t35 190.5q0 90 -24 161.5t-71 118.5z" />
    <glyph glyph-name="Ugrave" unicode="&#xd9;" horiz-adv-x="660" 
d="M557 714h22v-435q0 -295 -249 -295t-249 295v435h22v-438q0 -271 227 -271t227 271v438zM348 774l-116 123h28l113 -123h-25z" />
    <glyph glyph-name="Uacute" unicode="&#xda;" horiz-adv-x="660" 
d="M557 714h22v-435q0 -295 -249 -295t-249 295v435h22v-438q0 -271 227 -271t227 271v438zM287 774l113 123h28l-116 -123h-25z" />
    <glyph glyph-name="Ucircumflex" unicode="&#xdb;" horiz-adv-x="660" 
d="M557 714h22v-435q0 -295 -249 -295t-249 295v435h22v-438q0 -271 227 -271t227 271v438zM426 774l-96 105l-96 -105h-25l110 123h22l110 -123h-25z" />
    <glyph glyph-name="Udieresis" unicode="&#xdc;" horiz-adv-x="660" 
d="M557 714h22v-435q0 -295 -249 -295t-249 295v435h22v-438q0 -271 227 -271t227 271v438zM240 790v92h22v-92h-22zM399 790v92h22v-92h-22z" />
    <glyph glyph-name="Yacute" unicode="&#xdd;" horiz-adv-x="557" 
d="M268 0v309l-243 405h25l229 -382l229 382h24l-242 -403v-311h-22zM235 774l113 123h28l-116 -123h-25z" />
    <glyph glyph-name="Thorn" unicode="&#xde;" horiz-adv-x="598" 
d="M108 158v-158h-22v714h22v-146h223q110 0 166 -51.5t56 -152.5q0 -100 -58 -153t-168 -53h-219zM328 179q202 0 202 185q0 93 -50 138t-153 45h-219v-368h220z" />
    <glyph glyph-name="germandbls" unicode="&#xdf;" horiz-adv-x="552" 
d="M183 23q57 -19 111 -19q86 0 136 50t50 137q0 85 -52.5 133.5t-144.5 48.5h-87v20h72q72 0 112.5 41t40.5 113q0 73 -42 114t-117 41q-80 0 -123.5 -46.5t-43.5 -132.5v-523h-21v525q0 93 49.5 145t138.5 52q84 0 132.5 -47t48.5 -128q0 -61 -27.5 -103.5t-78.5 -58.5
q78 -12 121.5 -63t43.5 -131q0 -95 -55.5 -151t-152.5 -56q-62 0 -117 20z" />
    <glyph glyph-name="agrave" unicode="&#xe0;" horiz-adv-x="511" 
d="M419 0v96q-30 -53 -79.5 -80.5t-113.5 -27.5q-87 0 -134 40.5t-47 115.5q0 83 59.5 122t193.5 44l121 5v25q0 92 -36.5 129.5t-124.5 37.5q-73 0 -114.5 -26t-54.5 -80l-19 4q12 60 60 91t130 31q95 0 137.5 -44t42.5 -140v-343h-21zM419 296l-118 -5q-89 -4 -139.5 -20
t-72.5 -47t-22 -80q0 -66 41 -101t118 -35q95 0 155 63q21 23 29.5 45.5t8.5 55.5v124zM278 585l-116 129h27l113 -129h-24z" />
    <glyph glyph-name="aacute" unicode="&#xe1;" horiz-adv-x="511" 
d="M419 0v96q-30 -53 -79.5 -80.5t-113.5 -27.5q-87 0 -134 40.5t-47 115.5q0 83 59.5 122t193.5 44l121 5v25q0 92 -36.5 129.5t-124.5 37.5q-73 0 -114.5 -26t-54.5 -80l-19 4q12 60 60 91t130 31q95 0 137.5 -44t42.5 -140v-343h-21zM419 296l-118 -5q-89 -4 -139.5 -20
t-72.5 -47t-22 -80q0 -66 41 -101t118 -35q95 0 155 63q21 23 29.5 45.5t8.5 55.5v124zM218 585l113 129h27l-116 -129h-24z" />
    <glyph glyph-name="acircumflex" unicode="&#xe2;" horiz-adv-x="511" 
d="M419 0v96q-30 -53 -79.5 -80.5t-113.5 -27.5q-87 0 -134 40.5t-47 115.5q0 83 59.5 122t193.5 44l121 5v25q0 92 -36.5 129.5t-124.5 37.5q-73 0 -114.5 -26t-54.5 -80l-19 4q12 60 60 91t130 31q95 0 137.5 -44t42.5 -140v-343h-21zM419 296l-118 -5q-89 -4 -139.5 -20
t-72.5 -47t-22 -80q0 -66 41 -101t118 -35q95 0 155 63q21 23 29.5 45.5t8.5 55.5v124zM357 585l-97 111l-97 -111h-24l111 129h20l111 -129h-24z" />
    <glyph glyph-name="atilde" unicode="&#xe3;" horiz-adv-x="511" 
d="M419 0v96q-30 -53 -79.5 -80.5t-113.5 -27.5q-87 0 -134 40.5t-47 115.5q0 83 59.5 122t193.5 44l121 5v25q0 92 -36.5 129.5t-124.5 37.5q-73 0 -114.5 -26t-54.5 -80l-19 4q12 60 60 91t130 31q95 0 137.5 -44t42.5 -140v-343h-21zM419 296l-118 -5q-89 -4 -139.5 -20
t-72.5 -47t-22 -80q0 -66 41 -101t118 -35q95 0 155 63q21 23 29.5 45.5t8.5 55.5v124zM412 689q0 -38 -21.5 -61.5t-56.5 -23.5q-14 0 -25.5 3.5t-24 11t-30.5 21.5q-25 19 -39 25.5t-29 6.5q-26 0 -42 -18t-16 -48h-20q0 38 21.5 61.5t56.5 23.5q14 0 25.5 -3.5t24 -11
t30.5 -21.5q25 -19 39 -25.5t29 -6.5q26 0 42 18t16 48h20z" />
    <glyph glyph-name="adieresis" unicode="&#xe4;" horiz-adv-x="511" 
d="M419 0v96q-30 -53 -79.5 -80.5t-113.5 -27.5q-87 0 -134 40.5t-47 115.5q0 83 59.5 122t193.5 44l121 5v25q0 92 -36.5 129.5t-124.5 37.5q-73 0 -114.5 -26t-54.5 -80l-19 4q12 60 60 91t130 31q95 0 137.5 -44t42.5 -140v-343h-21zM419 296l-118 -5q-89 -4 -139.5 -20
t-72.5 -47t-22 -80q0 -66 41 -101t118 -35q95 0 155 63q21 23 29.5 45.5t8.5 55.5v124zM176 622v92h21v-92h-21zM324 622v92h21v-92h-21z" />
    <glyph glyph-name="aring" unicode="&#xe5;" horiz-adv-x="511" 
d="M419 0v96q-30 -53 -79.5 -80.5t-113.5 -27.5q-87 0 -134 40.5t-47 115.5q0 83 59.5 122t193.5 44l121 5v25q0 92 -36.5 129.5t-124.5 37.5q-73 0 -114.5 -26t-54.5 -80l-19 4q12 60 60 91t130 31q95 0 137.5 -44t42.5 -140v-343h-21zM419 296l-118 -5q-89 -4 -139.5 -20
t-72.5 -47t-22 -80q0 -66 41 -101t118 -35q95 0 155 63q21 23 29.5 45.5t8.5 55.5v124zM343 675q0 -39 -22.5 -62t-60.5 -23t-60.5 23t-22.5 62t22.5 62t60.5 23t60.5 -23t22.5 -62zM323 675q0 31 -17 48.5t-46 17.5q-30 0 -46.5 -17.5t-16.5 -48.5t17 -48.5t46 -17.5
q30 0 46.5 17.5t16.5 48.5z" />
    <glyph glyph-name="ae" unicode="&#xe6;" horiz-adv-x="891" 
d="M829 122q-14 -65 -64.5 -101.5t-127.5 -36.5q-80 0 -133.5 41.5t-74.5 120.5q-6 -50 -36 -85q-31 -35 -75.5 -54t-98.5 -19q-82 0 -128.5 41t-46.5 115q0 83 58.5 121.5t191.5 44.5l119 5v25q0 91 -36 129t-123 38q-71 0 -112 -26t-54 -80l-19 4q12 60 59.5 91t127.5 31
q89 0 130 -37.5t45 -120.5q22 76 75.5 117t131.5 41q99 0 151 -66.5t52 -193.5v-17h-407q1 -119 53 -182.5t150 -63.5q68 0 113 30.5t59 87.5h20zM413 296l-116 -5q-89 -4 -138.5 -20.5t-71 -47t-21.5 -79.5q0 -66 40 -101t116 -35q97 0 154 63q37 41 37 101v124zM820 269
q0 118 -46 178t-136 60q-94 0 -147 -62t-57 -176h386z" />
    <glyph glyph-name="ccedilla" unicode="&#xe7;" horiz-adv-x="533" 
d="M483 168q-13 -87 -67 -135.5t-140 -48.5q-105 0 -165.5 71t-60.5 196q0 128 62 202t169 74q77 0 126 -41.5t67 -123.5l-19 -4q-18 76 -61 112.5t-114 36.5q-98 0 -153 -68t-55 -186q0 -117 53.5 -183t150.5 -66q77 0 125 42.5t62 121.5h20zM189 -158q25 -5 56 -5
q44 0 63.5 10.5t19.5 33.5q0 24 -21 34.5t-70 10.5h-14l25 76l17 -2l-17 -57q52 -1 76 -16t24 -47t-25 -47t-77 -15q-32 0 -57 5v19z" />
    <glyph glyph-name="egrave" unicode="&#xe8;" horiz-adv-x="533" 
d="M471 122q-14 -65 -65.5 -101.5t-128.5 -36.5q-108 0 -167.5 69.5t-59.5 197.5q0 131 60 203.5t168 72.5q100 0 152.5 -66.5t52.5 -193.5v-17h-412q1 -119 54 -182.5t152 -63.5q70 0 115 31t59 87h20zM462 269q0 117 -46.5 177.5t-137.5 60.5q-95 0 -149 -61.5t-58 -176.5
h391zM296 585l-116 129h27l113 -129h-24z" />
    <glyph glyph-name="eacute" unicode="&#xe9;" horiz-adv-x="533" 
d="M471 122q-14 -65 -65.5 -101.5t-128.5 -36.5q-108 0 -167.5 69.5t-59.5 197.5q0 131 60 203.5t168 72.5q100 0 152.5 -66.5t52.5 -193.5v-17h-412q1 -119 54 -182.5t152 -63.5q70 0 115 31t59 87h20zM462 269q0 117 -46.5 177.5t-137.5 60.5q-95 0 -149 -61.5t-58 -176.5
h391zM236 585l113 129h27l-116 -129h-24z" />
    <glyph glyph-name="ecircumflex" unicode="&#xea;" horiz-adv-x="533" 
d="M471 122q-14 -65 -65.5 -101.5t-128.5 -36.5q-108 0 -167.5 69.5t-59.5 197.5q0 131 60 203.5t168 72.5q100 0 152.5 -66.5t52.5 -193.5v-17h-412q1 -119 54 -182.5t152 -63.5q70 0 115 31t59 87h20zM462 269q0 117 -46.5 177.5t-137.5 60.5q-95 0 -149 -61.5t-58 -176.5
h391zM375 585l-97 111l-97 -111h-24l111 129h20l111 -129h-24z" />
    <glyph glyph-name="edieresis" unicode="&#xeb;" horiz-adv-x="533" 
d="M471 122q-14 -65 -65.5 -101.5t-128.5 -36.5q-108 0 -167.5 69.5t-59.5 197.5q0 131 60 203.5t168 72.5q100 0 152.5 -66.5t52.5 -193.5v-17h-412q1 -119 54 -182.5t152 -63.5q70 0 115 31t59 87h20zM462 269q0 117 -46.5 177.5t-137.5 60.5q-95 0 -149 -61.5t-58 -176.5
h391zM194 622v92h21v-92h-21zM342 622v92h21v-92h-21z" />
    <glyph glyph-name="igrave" unicode="&#xec;" horiz-adv-x="169" 
d="M74 0v511h21v-511h-21zM102 585l-116 129h27l113 -129h-24z" />
    <glyph glyph-name="iacute" unicode="&#xed;" horiz-adv-x="169" 
d="M74 0v511h21v-511h-21zM42 585l113 129h27l-116 -129h-24z" />
    <glyph glyph-name="icircumflex" unicode="&#xee;" horiz-adv-x="169" 
d="M74 0v511h21v-511h-21zM181 585l-97 111l-97 -111h-24l111 129h20l111 -129h-24z" />
    <glyph glyph-name="idieresis" unicode="&#xef;" horiz-adv-x="169" 
d="M74 0v511h21v-511h-21zM0 622v92h21v-92h-21zM148 622v92h21v-92h-21z" />
    <glyph glyph-name="eth" unicode="&#xf0;" horiz-adv-x="565" 
d="M309 670q100 -53 153 -162t53 -263q0 -120 -62 -190.5t-168 -70.5q-109 0 -172 67.5t-63 185.5q0 116 63.5 184.5t172.5 68.5q133 0 196 -116q-39 203 -189 280l-79 -78l-14 14l74 73q-69 30 -147 34l1 20q89 -6 162 -38l69 68l14 -14zM493 251q0 64 -25.5 113t-73 77.5
t-111.5 28.5q-63 0 -110.5 -28t-74 -80.5t-26.5 -123.5q0 -108 56 -171t152 -63q63 0 111 27.5t75 79t27 121.5v19z" />
    <glyph glyph-name="ntilde" unicode="&#xf1;" horiz-adv-x="542" 
d="M450 0v338q0 169 -153 169q-95 0 -159 -64q-28 -27 -35.5 -48.5t-7.5 -75.5v-319h-21v511h21v-91q35 51 88.5 79t115.5 28q85 0 128.5 -47t43.5 -138v-342h-21zM424 689q0 -38 -21.5 -61.5t-56.5 -23.5q-14 0 -25.5 3.5t-24 11t-30.5 21.5q-25 19 -39 25.5t-29 6.5
q-26 0 -42 -18t-16 -48h-20q0 38 21.5 61.5t56.5 23.5q14 0 25.5 -3.5t24 -11t30.5 -21.5q25 -19 39 -25.5t29 -6.5q26 0 42 18t16 48h20z" />
    <glyph glyph-name="ograve" unicode="&#xf2;" horiz-adv-x="565" 
d="M282 -16q-109 0 -170.5 71.5t-61.5 199.5t62 200t171 72t170.5 -72t61.5 -200q0 -127 -61.5 -199t-171.5 -72zM282 4q101 0 156 65.5t55 185.5t-55.5 186t-155.5 66t-155 -66t-55 -186t55 -185.5t155 -65.5zM301 585l-116 129h27l113 -129h-24z" />
    <glyph glyph-name="oacute" unicode="&#xf3;" horiz-adv-x="565" 
d="M282 -16q-109 0 -170.5 71.5t-61.5 199.5t62 200t171 72t170.5 -72t61.5 -200q0 -127 -61.5 -199t-171.5 -72zM282 4q101 0 156 65.5t55 185.5t-55.5 186t-155.5 66t-155 -66t-55 -186t55 -185.5t155 -65.5zM241 585l113 129h27l-116 -129h-24z" />
    <glyph glyph-name="ocircumflex" unicode="&#xf4;" horiz-adv-x="565" 
d="M282 -16q-109 0 -170.5 71.5t-61.5 199.5t62 200t171 72t170.5 -72t61.5 -200q0 -127 -61.5 -199t-171.5 -72zM282 4q101 0 156 65.5t55 185.5t-55.5 186t-155.5 66t-155 -66t-55 -186t55 -185.5t155 -65.5zM380 585l-97 111l-97 -111h-24l111 129h20l111 -129h-24z" />
    <glyph glyph-name="otilde" unicode="&#xf5;" horiz-adv-x="565" 
d="M282 -16q-109 0 -170.5 71.5t-61.5 199.5t62 200t171 72t170.5 -72t61.5 -200q0 -127 -61.5 -199t-171.5 -72zM282 4q101 0 156 65.5t55 185.5t-55.5 186t-155.5 66t-155 -66t-55 -186t55 -185.5t155 -65.5zM435 689q0 -38 -21.5 -61.5t-56.5 -23.5q-14 0 -25.5 3.5
t-24 11t-30.5 21.5q-25 19 -39 25.5t-29 6.5q-26 0 -42 -18t-16 -48h-20q0 38 21.5 61.5t56.5 23.5q14 0 25.5 -3.5t24 -11t30.5 -21.5q25 -19 39 -25.5t29 -6.5q26 0 42 18t16 48h20z" />
    <glyph glyph-name="odieresis" unicode="&#xf6;" horiz-adv-x="565" 
d="M282 -16q-109 0 -170.5 71.5t-61.5 199.5t62 200t171 72t170.5 -72t61.5 -200q0 -127 -61.5 -199t-171.5 -72zM282 4q101 0 156 65.5t55 185.5t-55.5 186t-155.5 66t-155 -66t-55 -186t55 -185.5t155 -65.5zM199 622v92h21v-92h-21zM347 622v92h21v-92h-21z" />
    <glyph glyph-name="divide" unicode="&#xf7;" horiz-adv-x="592" 
d="M83 330v20h426v-20h-426zM285 480v87h22v-87h-22zM285 113v87h22v-87h-22z" />
    <glyph glyph-name="oslash" unicode="&#xf8;" horiz-adv-x="565" 
d="M87 -29l43 65q-80 71 -80 219q0 128 62 200t171 72q85 0 142 -45l45 68l16 -11l-46 -70q75 -72 75 -214q0 -127 -61.5 -199t-171.5 -72q-80 0 -137 40l-42 -64zM413 464q-52 43 -131 43q-100 0 -155 -66t-55 -186q0 -137 70 -202zM156 41q49 -37 126 -37q101 0 156 65.5
t55 185.5q0 129 -65 196z" />
    <glyph glyph-name="ugrave" unicode="&#xf9;" horiz-adv-x="532" 
d="M437 0v92q-34 -52 -86 -80t-113 -28q-82 0 -124.5 47t-42.5 138v342h21v-338q0 -169 149 -169q46 0 83 15.5t71 48.5q27 26 34.5 48.5t7.5 75.5v319h21v-511h-21zM282 585l-116 129h27l113 -129h-24z" />
    <glyph glyph-name="uacute" unicode="&#xfa;" horiz-adv-x="532" 
d="M437 0v92q-34 -52 -86 -80t-113 -28q-82 0 -124.5 47t-42.5 138v342h21v-338q0 -169 149 -169q46 0 83 15.5t71 48.5q27 26 34.5 48.5t7.5 75.5v319h21v-511h-21zM222 585l113 129h27l-116 -129h-24z" />
    <glyph glyph-name="ucircumflex" unicode="&#xfb;" horiz-adv-x="532" 
d="M437 0v92q-34 -52 -86 -80t-113 -28q-82 0 -124.5 47t-42.5 138v342h21v-338q0 -169 149 -169q46 0 83 15.5t71 48.5q27 26 34.5 48.5t7.5 75.5v319h21v-511h-21zM361 585l-97 111l-97 -111h-24l111 129h20l111 -129h-24z" />
    <glyph glyph-name="udieresis" unicode="&#xfc;" horiz-adv-x="532" 
d="M437 0v92q-34 -52 -86 -80t-113 -28q-82 0 -124.5 47t-42.5 138v342h21v-338q0 -169 149 -169q46 0 83 15.5t71 48.5q27 26 34.5 48.5t7.5 75.5v319h21v-511h-21zM180 622v92h21v-92h-21zM328 622v92h21v-92h-21z" />
    <glyph glyph-name="yacute" unicode="&#xfd;" horiz-adv-x="467" 
d="M235 5l-225 506h22l212 -481l192 481h21l-241 -603q-23 -56 -49.5 -79t-67.5 -23q-29 0 -60 10l5 18q29 -9 55 -9q34 0 56.5 20.5t42.5 69.5zM191 585l113 129h27l-116 -129h-24z" />
    <glyph glyph-name="thorn" unicode="&#xfe;" horiz-adv-x="567" 
d="M74 -194v908h21v-321q26 65 77.5 99.5t123.5 34.5q103 0 162 -72t59 -199q0 -128 -60.5 -200t-166.5 -72q-72 0 -123 33t-72 94v-305h-21zM94 229q0 -119 59 -178q23 -23 58.5 -35t78.5 -12q98 0 151.5 66t53.5 186q0 118 -52.5 184.5t-146.5 66.5q-86 0 -139 -51
q-63 -60 -63 -171v-56z" />
    <glyph glyph-name="ydieresis" unicode="&#xff;" horiz-adv-x="467" 
d="M235 5l-225 506h22l212 -481l192 481h21l-241 -603q-23 -56 -49.5 -79t-67.5 -23q-29 0 -60 10l5 18q29 -9 55 -9q34 0 56.5 20.5t42.5 69.5zM149 622v92h21v-92h-21zM297 622v92h21v-92h-21z" />
    <glyph glyph-name="Amacron" unicode="&#x100;" horiz-adv-x="637" 
d="M587 0l-92 236h-354l-92 -236h-24l281 714h25l281 -714h-25zM318 691l-169 -434h338zM184 798v20h268v-20h-268z" />
    <glyph glyph-name="amacron" unicode="&#x101;" horiz-adv-x="511" 
d="M419 0v96q-30 -53 -79.5 -80.5t-113.5 -27.5q-87 0 -134 40.5t-47 115.5q0 83 59.5 122t193.5 44l121 5v25q0 92 -36.5 129.5t-124.5 37.5q-73 0 -114.5 -26t-54.5 -80l-19 4q12 60 60 91t130 31q95 0 137.5 -44t42.5 -140v-343h-21zM419 296l-118 -5q-89 -4 -139.5 -20
t-72.5 -47t-22 -80q0 -66 41 -101t118 -35q95 0 155 63q21 23 29.5 45.5t8.5 55.5v124zM144 633v19h232v-19h-232z" />
    <glyph glyph-name="Abreve" unicode="&#x102;" horiz-adv-x="637" 
d="M587 0l-92 236h-354l-92 -236h-24l281 714h25l281 -714h-25zM318 691l-169 -434h338zM430 882q0 -51 -29.5 -79.5t-82.5 -28.5q-52 0 -81.5 28.5t-29.5 79.5h21q0 -42 23.5 -65t66.5 -23q44 0 67.5 22.5t23.5 65.5h21z" />
    <glyph glyph-name="abreve" unicode="&#x103;" horiz-adv-x="511" 
d="M419 0v96q-30 -53 -79.5 -80.5t-113.5 -27.5q-87 0 -134 40.5t-47 115.5q0 83 59.5 122t193.5 44l121 5v25q0 92 -36.5 129.5t-124.5 37.5q-73 0 -114.5 -26t-54.5 -80l-19 4q12 60 60 91t130 31q95 0 137.5 -44t42.5 -140v-343h-21zM419 296l-118 -5q-89 -4 -139.5 -20
t-72.5 -47t-22 -80q0 -66 41 -101t118 -35q95 0 155 63q21 23 29.5 45.5t8.5 55.5v124zM372 708q0 -53 -29.5 -83t-82.5 -30q-52 0 -81.5 29.5t-29.5 83.5h20q0 -45 23.5 -69.5t67.5 -24.5q45 0 68.5 24t23.5 70h20z" />
    <glyph glyph-name="Aogonek" unicode="&#x104;" horiz-adv-x="637" 
d="M587 0l-92 236h-354l-92 -236h-24l281 714h25l281 -714h-25zM318 691l-169 -434h338zM627 -166q-14 -2 -26 -2q-38 0 -57.5 17t-19.5 49q0 56 67 108l21 -6q-67 -51 -67 -99q0 -49 55 -49q13 0 27 2v-20z" />
    <glyph glyph-name="aogonek" unicode="&#x105;" horiz-adv-x="511" 
d="M419 0v96q-30 -53 -79.5 -80.5t-113.5 -27.5q-87 0 -134 40.5t-47 115.5q0 83 59.5 122t193.5 44l121 5v25q0 92 -36.5 129.5t-124.5 37.5q-73 0 -114.5 -26t-54.5 -80l-19 4q12 60 60 91t130 31q95 0 137.5 -44t42.5 -140v-343h-21zM419 296l-118 -5q-89 -4 -139.5 -20
t-72.5 -47t-22 -80q0 -66 41 -101t118 -35q95 0 155 63q21 23 29.5 45.5t8.5 55.5v124zM456 -161q-14 -2 -25 -2q-37 0 -56.5 16.5t-19.5 47.5q0 28 16 53.5t49 51.5l20 -6q-65 -49 -65 -96q0 -48 55 -48q14 0 26 2v-19z" />
    <glyph glyph-name="Cacute" unicode="&#x106;" horiz-adv-x="685" 
d="M630 230q-15 -116 -85.5 -181t-182.5 -65q-92 0 -160 44t-105 128t-37 200q0 176 80 276t221 100q103 0 170 -58.5t90 -169.5l-20 -5q-25 107 -84 159.5t-155 52.5q-132 0 -205.5 -93t-73.5 -260q0 -166 74.5 -259.5t206.5 -93.5q101 0 165 58.5t81 166.5h20zM318 774
l113 123h28l-116 -123h-25z" />
    <glyph glyph-name="cacute" unicode="&#x107;" horiz-adv-x="533" 
d="M483 168q-13 -87 -67 -135.5t-140 -48.5q-105 0 -165.5 71t-60.5 196q0 128 62 202t169 74q77 0 126 -41.5t67 -123.5l-19 -4q-18 76 -61 112.5t-114 36.5q-98 0 -153 -68t-55 -186q0 -117 53.5 -183t150.5 -66q77 0 125 42.5t62 121.5h20zM239 585l113 129h27l-116 -129
h-24z" />
    <glyph glyph-name="Ccircumflex" unicode="&#x108;" horiz-adv-x="685" 
d="M630 230q-15 -116 -85.5 -181t-182.5 -65q-92 0 -160 44t-105 128t-37 200q0 176 80 276t221 100q103 0 170 -58.5t90 -169.5l-20 -5q-25 107 -84 159.5t-155 52.5q-132 0 -205.5 -93t-73.5 -260q0 -166 74.5 -259.5t206.5 -93.5q101 0 165 58.5t81 166.5h20zM457 774
l-96 105l-96 -105h-25l110 123h22l110 -123h-25z" />
    <glyph glyph-name="ccircumflex" unicode="&#x109;" horiz-adv-x="533" 
d="M483 168q-13 -87 -67 -135.5t-140 -48.5q-105 0 -165.5 71t-60.5 196q0 128 62 202t169 74q77 0 126 -41.5t67 -123.5l-19 -4q-18 76 -61 112.5t-114 36.5q-98 0 -153 -68t-55 -186q0 -117 53.5 -183t150.5 -66q77 0 125 42.5t62 121.5h20zM378 585l-97 111l-97 -111h-24
l111 129h20l111 -129h-24z" />
    <glyph glyph-name="Cdotaccent" unicode="&#x10a;" horiz-adv-x="685" 
d="M630 230q-15 -116 -85.5 -181t-182.5 -65q-92 0 -160 44t-105 128t-37 200q0 176 80 276t221 100q103 0 170 -58.5t90 -169.5l-20 -5q-25 107 -84 159.5t-155 52.5q-132 0 -205.5 -93t-73.5 -260q0 -166 74.5 -259.5t206.5 -93.5q101 0 165 58.5t81 166.5h20zM350 790v92
h22v-92h-22z" />
    <glyph glyph-name="cdotaccent" unicode="&#x10b;" horiz-adv-x="533" 
d="M483 168q-13 -87 -67 -135.5t-140 -48.5q-105 0 -165.5 71t-60.5 196q0 128 62 202t169 74q77 0 126 -41.5t67 -123.5l-19 -4q-18 76 -61 112.5t-114 36.5q-98 0 -153 -68t-55 -186q0 -117 53.5 -183t150.5 -66q77 0 125 42.5t62 121.5h20zM271 622v92h21v-92h-21z" />
    <glyph glyph-name="Ccaron" unicode="&#x10c;" horiz-adv-x="685" 
d="M630 230q-15 -116 -85.5 -181t-182.5 -65q-92 0 -160 44t-105 128t-37 200q0 176 80 276t221 100q103 0 170 -58.5t90 -169.5l-20 -5q-25 107 -84 159.5t-155 52.5q-132 0 -205.5 -93t-73.5 -260q0 -166 74.5 -259.5t206.5 -93.5q101 0 165 58.5t81 166.5h20zM350 774
l-110 123h25l96 -105l96 105h25l-110 -123h-22z" />
    <glyph glyph-name="ccaron" unicode="&#x10d;" horiz-adv-x="533" 
d="M483 168q-13 -87 -67 -135.5t-140 -48.5q-105 0 -165.5 71t-60.5 196q0 128 62 202t169 74q77 0 126 -41.5t67 -123.5l-19 -4q-18 76 -61 112.5t-114 36.5q-98 0 -153 -68t-55 -186q0 -117 53.5 -183t150.5 -66q77 0 125 42.5t62 121.5h20zM271 585l-111 128h24l97 -111
l97 111h24l-111 -128h-20z" />
    <glyph glyph-name="Dcaron" unicode="&#x10e;" horiz-adv-x="687" 
d="M86 0v714h229q150 0 231 -93t81 -264q0 -174 -84 -265.5t-245 -91.5h-212zM299 21q150 0 227.5 85t77.5 249q0 165 -74 251.5t-215 86.5h-207v-672h191zM295 774l-110 123h25l96 -105l96 105h25l-110 -123h-22z" />
    <glyph glyph-name="dcaron" unicode="&#x10f;" horiz-adv-x="567" 
d="M472 0v118q-26 -65 -77.5 -99.5t-123.5 -34.5q-103 0 -162 72t-59 199t61 199.5t167 72.5q71 0 122.5 -33.5t71.5 -93.5v314h21v-714h-21zM473 282q0 119 -59 178q-22 22 -58 34.5t-78 12.5q-97 0 -151.5 -66.5t-54.5 -185.5q0 -118 52.5 -184.5t146.5 -66.5q87 0 139 51
q63 60 63 171v56zM557 560l26 154h20l-28 -154h-18z" />
    <glyph glyph-name="Dcroat" unicode="&#x110;" horiz-adv-x="693" 
d="M92 0v358h-82v21h82v335h229q150 0 231 -93t81 -264q0 -174 -84 -265.5t-245 -91.5h-212zM305 21q150 0 227.5 85t77.5 249q0 165 -74 251.5t-215 86.5h-207v-314h226v-21h-226v-337h191z" />
    <glyph glyph-name="dcroat" unicode="&#x111;" horiz-adv-x="577" 
d="M472 0v118q-26 -65 -77.5 -99.5t-123.5 -34.5q-104 0 -162.5 70t-58.5 194q0 123 62 193.5t170 70.5q70 0 119 -32.5t71 -94.5v222h-184v19h184v88h21v-88h73v-19h-73v-607h-21zM473 267q0 119 -59 178q-47 47 -132 47q-99 0 -154.5 -64.5t-55.5 -179.5t52.5 -179.5
t146.5 -64.5q87 0 139 51q63 60 63 171v41z" />
    <glyph glyph-name="Emacron" unicode="&#x112;" horiz-adv-x="573" 
d="M86 0v714h435v-21h-413v-314h393v-21h-393v-337h421l-7 -21h-436zM169 798v20h268v-20h-268z" />
    <glyph glyph-name="emacron" unicode="&#x113;" horiz-adv-x="533" 
d="M471 122q-14 -65 -65.5 -101.5t-128.5 -36.5q-108 0 -167.5 69.5t-59.5 197.5q0 131 60 203.5t168 72.5q100 0 152.5 -66.5t52.5 -193.5v-17h-412q1 -119 54 -182.5t152 -63.5q70 0 115 31t59 87h20zM462 269q0 117 -46.5 177.5t-137.5 60.5q-95 0 -149 -61.5t-58 -176.5
h391zM162 633v19h232v-19h-232z" />
    <glyph glyph-name="Ebreve" unicode="&#x114;" horiz-adv-x="573" 
d="M86 0v714h435v-21h-413v-314h393v-21h-393v-337h421l-7 -21h-436zM415 882q0 -51 -29.5 -79.5t-82.5 -28.5q-52 0 -81.5 28.5t-29.5 79.5h21q0 -42 23.5 -65t66.5 -23q44 0 67.5 22.5t23.5 65.5h21z" />
    <glyph glyph-name="ebreve" unicode="&#x115;" horiz-adv-x="533" 
d="M471 122q-14 -65 -65.5 -101.5t-128.5 -36.5q-108 0 -167.5 69.5t-59.5 197.5q0 131 60 203.5t168 72.5q100 0 152.5 -66.5t52.5 -193.5v-17h-412q1 -119 54 -182.5t152 -63.5q70 0 115 31t59 87h20zM462 269q0 117 -46.5 177.5t-137.5 60.5q-95 0 -149 -61.5t-58 -176.5
h391zM390 708q0 -53 -29.5 -83t-82.5 -30q-52 0 -81.5 29.5t-29.5 83.5h20q0 -45 23.5 -69.5t67.5 -24.5q45 0 68.5 24t23.5 70h20z" />
    <glyph glyph-name="Edotaccent" unicode="&#x116;" horiz-adv-x="573" 
d="M86 0v714h435v-21h-413v-314h393v-21h-393v-337h421l-7 -21h-436zM292 790v92h22v-92h-22z" />
    <glyph glyph-name="edotaccent" unicode="&#x117;" horiz-adv-x="533" 
d="M471 122q-14 -65 -65.5 -101.5t-128.5 -36.5q-108 0 -167.5 69.5t-59.5 197.5q0 131 60 203.5t168 72.5q100 0 152.5 -66.5t52.5 -193.5v-17h-412q1 -119 54 -182.5t152 -63.5q70 0 115 31t59 87h20zM462 269q0 117 -46.5 177.5t-137.5 60.5q-95 0 -149 -61.5t-58 -176.5
h391zM268 622v92h21v-92h-21z" />
    <glyph glyph-name="Eogonek" unicode="&#x118;" horiz-adv-x="573" 
d="M86 0v714h435v-21h-413v-314h393v-21h-393v-337h421l-7 -21h-436zM537 -166q-14 -2 -26 -2q-38 0 -57.5 17t-19.5 49q0 56 67 108l21 -6q-67 -51 -67 -99q0 -49 55 -49q13 0 27 2v-20z" />
    <glyph glyph-name="eogonek" unicode="&#x119;" horiz-adv-x="533" 
d="M471 122q-14 -65 -65.5 -101.5t-128.5 -36.5q-108 0 -167.5 69.5t-59.5 197.5q0 131 60 203.5t168 72.5q100 0 152.5 -66.5t52.5 -193.5v-17h-412q1 -119 54 -182.5t152 -63.5q70 0 115 31t59 87h20zM462 269q0 117 -46.5 177.5t-137.5 60.5q-95 0 -149 -61.5t-58 -176.5
h391zM373 -161q-14 -2 -25 -2q-37 0 -56.5 16.5t-19.5 47.5q0 28 16 53.5t49 51.5l20 -6q-65 -49 -65 -96q0 -48 55 -48q14 0 26 2v-19z" />
    <glyph glyph-name="Ecaron" unicode="&#x11a;" horiz-adv-x="573" 
d="M86 0v714h435v-21h-413v-314h393v-21h-393v-337h421l-7 -21h-436zM292 774l-110 123h25l96 -105l96 105h25l-110 -123h-22z" />
    <glyph glyph-name="ecaron" unicode="&#x11b;" horiz-adv-x="533" 
d="M471 122q-14 -65 -65.5 -101.5t-128.5 -36.5q-108 0 -167.5 69.5t-59.5 197.5q0 131 60 203.5t168 72.5q100 0 152.5 -66.5t52.5 -193.5v-17h-412q1 -119 54 -182.5t152 -63.5q70 0 115 31t59 87h20zM462 269q0 117 -46.5 177.5t-137.5 60.5q-95 0 -149 -61.5t-58 -176.5
h391zM268 585l-111 128h24l97 -111l97 111h24l-111 -128h-20z" />
    <glyph glyph-name="Gcircumflex" unicode="&#x11c;" horiz-adv-x="687" 
d="M599 311h-217v21h239v-260q-42 -41 -106 -64.5t-136 -23.5q-153 0 -236 96.5t-83 272.5q0 178 81 278.5t224 100.5q96 0 157.5 -48.5t83.5 -141.5l-20 -5q-45 174 -222 174q-134 0 -207.5 -93.5t-73.5 -263.5q0 -169 76.5 -259t219.5 -90q67 0 124 19t96 55v232zM461 774
l-96 105l-96 -105h-25l110 123h22l110 -123h-25z" />
    <glyph glyph-name="gcircumflex" unicode="&#x11d;" horiz-adv-x="567" 
d="M472 140q-26 -65 -77 -98.5t-124 -33.5q-102 0 -161.5 69.5t-59.5 189.5q0 121 62 190.5t170 69.5q70 0 118.5 -31t71.5 -91v106h21v-507q0 -108 -50.5 -158.5t-158.5 -50.5q-96 0 -149 35t-62 103h20q19 -118 191 -118q99 0 143.5 44t44.5 143v138zM473 293
q0 115 -59 169q-46 45 -132 45q-99 0 -154.5 -63.5t-55.5 -176.5t52.5 -176t146.5 -63q84 0 139 49q31 29 47 70.5t16 91.5v54zM375 585l-97 111l-97 -111h-24l111 129h20l111 -129h-24z" />
    <glyph glyph-name="Gbreve" unicode="&#x11e;" horiz-adv-x="687" 
d="M599 311h-217v21h239v-260q-42 -41 -106 -64.5t-136 -23.5q-153 0 -236 96.5t-83 272.5q0 178 81 278.5t224 100.5q96 0 157.5 -48.5t83.5 -141.5l-20 -5q-45 174 -222 174q-134 0 -207.5 -93.5t-73.5 -263.5q0 -169 76.5 -259t219.5 -90q67 0 124 19t96 55v232zM477 882
q0 -51 -29.5 -79.5t-82.5 -28.5q-52 0 -81.5 28.5t-29.5 79.5h21q0 -42 23.5 -65t66.5 -23q44 0 67.5 22.5t23.5 65.5h21z" />
    <glyph glyph-name="gbreve" unicode="&#x11f;" horiz-adv-x="567" 
d="M472 140q-26 -65 -77 -98.5t-124 -33.5q-102 0 -161.5 69.5t-59.5 189.5q0 121 62 190.5t170 69.5q70 0 118.5 -31t71.5 -91v106h21v-507q0 -108 -50.5 -158.5t-158.5 -50.5q-96 0 -149 35t-62 103h20q19 -118 191 -118q99 0 143.5 44t44.5 143v138zM473 293
q0 115 -59 169q-46 45 -132 45q-99 0 -154.5 -63.5t-55.5 -176.5t52.5 -176t146.5 -63q84 0 139 49q31 29 47 70.5t16 91.5v54zM390 708q0 -53 -29.5 -83t-82.5 -30q-52 0 -81.5 29.5t-29.5 83.5h20q0 -45 23.5 -69.5t67.5 -24.5q45 0 68.5 24t23.5 70h20z" />
    <glyph glyph-name="Gdotaccent" unicode="&#x120;" horiz-adv-x="687" 
d="M599 311h-217v21h239v-260q-42 -41 -106 -64.5t-136 -23.5q-153 0 -236 96.5t-83 272.5q0 178 81 278.5t224 100.5q96 0 157.5 -48.5t83.5 -141.5l-20 -5q-45 174 -222 174q-134 0 -207.5 -93.5t-73.5 -263.5q0 -169 76.5 -259t219.5 -90q67 0 124 19t96 55v232zM354 790
v92h22v-92h-22z" />
    <glyph glyph-name="gdotaccent" unicode="&#x121;" horiz-adv-x="567" 
d="M472 140q-26 -65 -77 -98.5t-124 -33.5q-102 0 -161.5 69.5t-59.5 189.5q0 121 62 190.5t170 69.5q70 0 118.5 -31t71.5 -91v106h21v-507q0 -108 -50.5 -158.5t-158.5 -50.5q-96 0 -149 35t-62 103h20q19 -118 191 -118q99 0 143.5 44t44.5 143v138zM473 293
q0 115 -59 169q-46 45 -132 45q-99 0 -154.5 -63.5t-55.5 -176.5t52.5 -176t146.5 -63q84 0 139 49q31 29 47 70.5t16 91.5v54zM268 622v92h21v-92h-21z" />
    <glyph glyph-name="uni0122" unicode="&#x122;" horiz-adv-x="687" 
d="M599 311h-217v21h239v-260q-42 -41 -106 -64.5t-136 -23.5q-153 0 -236 96.5t-83 272.5q0 178 81 278.5t224 100.5q96 0 157.5 -48.5t83.5 -141.5l-20 -5q-45 174 -222 174q-134 0 -207.5 -93.5t-73.5 -263.5q0 -169 76.5 -259t219.5 -90q67 0 124 19t96 55v232z
M296 -207l71 133h24l-74 -133h-21z" />
    <glyph glyph-name="uni0123" unicode="&#x123;" horiz-adv-x="567" 
d="M472 140q-26 -65 -77 -98.5t-124 -33.5q-102 0 -161.5 69.5t-59.5 189.5q0 121 62 190.5t170 69.5q70 0 118.5 -31t71.5 -91v106h21v-507q0 -108 -50.5 -158.5t-158.5 -50.5q-96 0 -149 35t-62 103h20q19 -118 191 -118q99 0 143.5 44t44.5 143v138zM473 293
q0 115 -59 169q-46 45 -132 45q-99 0 -154.5 -63.5t-55.5 -176.5t52.5 -176t146.5 -63q84 0 139 49q31 29 47 70.5t16 91.5v54zM266 584l70 130h20l-67 -130h-23z" />
    <glyph glyph-name="Hcircumflex" unicode="&#x124;" horiz-adv-x="673" 
d="M565 0v360h-457v-360h-22v714h22v-333h457v333h22v-714h-22zM432 774l-96 105l-96 -105h-25l110 123h22l110 -123h-25z" />
    <glyph glyph-name="hcircumflex" unicode="&#x125;" horiz-adv-x="542" 
d="M450 0v338q0 169 -153 169q-95 0 -159 -64q-28 -27 -35.5 -48.5t-7.5 -75.5v-319h-21v714h21v-293q35 50 88.5 78t115.5 28q85 0 128.5 -47t43.5 -138v-342h-21zM291 774l-96 105l-96 -105h-25l110 123h22l110 -123h-25z" />
    <glyph glyph-name="Hbar" unicode="&#x126;" horiz-adv-x="685" 
d="M571 0v355h-457v-355h-22v538h-82v20h82v156h22v-156h457v156h22v-156h82v-20h-82v-538h-22zM571 538h-457v-162h457v162z" />
    <glyph glyph-name="hbar" unicode="&#x127;" horiz-adv-x="552" 
d="M460 0v323q0 169 -153 169q-95 0 -159 -64q-28 -27 -35.5 -48.5t-7.5 -75.5v-304h-21v607h-73v19h73v88h21v-88h184v-19h-184v-201q35 50 88.5 78t115.5 28q85 0 128.5 -47t43.5 -138v-327h-21z" />
    <glyph glyph-name="Itilde" unicode="&#x128;" horiz-adv-x="194" 
d="M86 0v714h22v-714h-22zM255 865q0 -38 -23 -61.5t-59 -23.5q-34 0 -75 30q-30 23 -45.5 30t-33.5 7q-26 0 -41.5 -17t-16.5 -48h-21q0 38 22.5 61.5t58.5 23.5q18 0 36 -7t40 -24q26 -20 43 -28t34 -8q27 0 43 17t17 48h21z" />
    <glyph glyph-name="itilde" unicode="&#x129;" horiz-adv-x="169" 
d="M74 0v511h21v-511h-21zM236 689q0 -38 -21.5 -61.5t-56.5 -23.5q-14 0 -25.5 3.5t-24 11t-30.5 21.5q-25 19 -39 25.5t-29 6.5q-26 0 -42 -18t-16 -48h-20q0 38 21.5 61.5t56.5 23.5q14 0 25.5 -3.5t24 -11t30.5 -21.5q25 -19 39 -25.5t29 -6.5q26 0 42 18t16 48h20z" />
    <glyph glyph-name="Imacron" unicode="&#x12a;" horiz-adv-x="194" 
d="M86 0v714h22v-714h-22zM-37 798v20h268v-20h-268z" />
    <glyph glyph-name="imacron" unicode="&#x12b;" horiz-adv-x="169" 
d="M74 0v511h21v-511h-21zM-32 633v19h232v-19h-232z" />
    <glyph glyph-name="Ibreve" unicode="&#x12c;" horiz-adv-x="194" 
d="M86 0v714h22v-714h-22zM209 882q0 -51 -29.5 -79.5t-82.5 -28.5q-52 0 -81.5 28.5t-29.5 79.5h21q0 -42 23.5 -65t66.5 -23q44 0 67.5 22.5t23.5 65.5h21z" />
    <glyph glyph-name="ibreve" unicode="&#x12d;" horiz-adv-x="169" 
d="M74 0v511h21v-511h-21zM196 708q0 -53 -29.5 -83t-82.5 -30q-52 0 -81.5 29.5t-29.5 83.5h20q0 -45 23.5 -69.5t67.5 -24.5q45 0 68.5 24t23.5 70h20z" />
    <glyph glyph-name="Iogonek" unicode="&#x12e;" horiz-adv-x="194" 
d="M86 0v714h22v-714h-22zM123 -166q-14 -2 -26 -2q-38 0 -57.5 17t-19.5 49q0 56 67 108l21 -6q-67 -51 -67 -99q0 -49 55 -49q13 0 27 2v-20z" />
    <glyph glyph-name="iogonek" unicode="&#x12f;" horiz-adv-x="169" 
d="M74 0v511h21v-511h-21zM74 622v92h21v-92h-21zM111 -161q-14 -2 -25 -2q-37 0 -56.5 16.5t-19.5 47.5q0 28 16 53.5t49 51.5l20 -6q-65 -49 -65 -96q0 -48 55 -48q14 0 26 2v-19z" />
    <glyph glyph-name="Idotaccent" unicode="&#x130;" horiz-adv-x="194" 
d="M86 0v714h22v-714h-22zM86 790v92h22v-92h-22z" />
    <glyph glyph-name="dotlessi" unicode="&#x131;" horiz-adv-x="169" 
d="M74 0v511h21v-511h-21z" />
    <glyph glyph-name="IJ" unicode="&#x132;" horiz-adv-x="758" 
d="M86 0v714h22v-714h-22zM654 714h22v-486q0 -119 -56.5 -181.5t-162.5 -62.5q-101 0 -161 55t-72 159h20q30 -193 213 -193q197 0 197 225v484z" />
    <glyph glyph-name="ij" unicode="&#x133;" horiz-adv-x="338" 
d="M74 0v511h21v-511h-21zM74 622v92h21v-92h-21zM243 511h21v-551q0 -72 -29 -109t-85 -37q-40 0 -85 16l6 19q43 -15 79 -15q45 0 69 30.5t24 88.5v558zM243 622v92h21v-92h-21z" />
    <glyph glyph-name="Jcircumflex" unicode="&#x134;" horiz-adv-x="564" 
d="M460 714h22v-486q0 -119 -56.5 -181.5t-162.5 -62.5q-101 0 -161 55t-72 159h20q30 -193 213 -193q197 0 197 225v484zM567 774l-96 105l-96 -105h-25l110 123h22l110 -123h-25z" />
    <glyph glyph-name="jcircumflex" unicode="&#x135;" horiz-adv-x="169" 
d="M74 511h21v-551q0 -72 -29 -109t-85 -37q-40 0 -85 16l6 19q43 -15 79 -15q45 0 69 30.5t24 88.5v558zM181 585l-97 111l-97 -111h-24l111 129h20l111 -129h-24z" />
    <glyph glyph-name="uni0136" unicode="&#x136;" horiz-adv-x="623" 
d="M573 0l-286 437l-180 -176v-261h-21v714h21v-426l436 426h28l-269 -263l296 -451h-25zM259 -207l71 133h24l-74 -133h-21z" />
    <glyph glyph-name="uni0137" unicode="&#x137;" horiz-adv-x="477" 
d="M443 0l-205 329l-143 -128v-201h-21v714h21v-489l318 286h28l-188 -169l214 -342h-24zM188 -202l71 128h23l-74 -128h-20z" />
    <glyph glyph-name="kgreenlandic" unicode="&#x138;" horiz-adv-x="477" 
d="M443 0l-205 315l-143 -139v-176h-21v511h21v-311l319 311h27l-188 -182l214 -329h-24z" />
    <glyph glyph-name="Lacute" unicode="&#x139;" horiz-adv-x="547" 
d="M86 0v714h22v-693h409l-7 -21h-424zM54 774l113 123h28l-116 -123h-25z" />
    <glyph glyph-name="lacute" unicode="&#x13a;" horiz-adv-x="169" 
d="M74 0v714h21v-714h-21zM41 774l113 123h28l-116 -123h-25z" />
    <glyph glyph-name="uni013B" unicode="&#x13b;" horiz-adv-x="547" 
d="M86 0v714h22v-693h409l-7 -21h-424zM218 -207l71 133h24l-74 -133h-21z" />
    <glyph glyph-name="uni013C" unicode="&#x13c;" horiz-adv-x="169" 
d="M74 0v714h21v-714h-21zM2 -202l71 128h23l-74 -128h-20z" />
    <glyph glyph-name="Lcaron" unicode="&#x13d;" horiz-adv-x="547" 
d="M86 0v714h22v-693h409l-7 -21h-424zM342 560l26 154h20l-28 -154h-18z" />
    <glyph glyph-name="lcaron" unicode="&#x13e;" horiz-adv-x="169" 
d="M74 0v714h21v-714h-21zM159 560l26 154h20l-28 -154h-18z" />
    <glyph glyph-name="Ldot" unicode="&#x13f;" horiz-adv-x="547" 
d="M86 0v714h22v-693h409l-7 -21h-424zM365 345v97h22v-97h-22z" />
    <glyph glyph-name="ldot" unicode="&#x140;" horiz-adv-x="243" 
d="M74 0v714h21v-714h-21zM195 325v97h22v-97h-22z" />
    <glyph glyph-name="Lslash" unicode="&#x141;" horiz-adv-x="553" 
d="M92 0v277l-82 -59v25l82 59v412h22v-396l251 181v-25l-251 -181v-272h409l-7 -21h-424z" />
    <glyph glyph-name="lslash" unicode="&#x142;" horiz-adv-x="183" 
d="M81 0v371l-81 -60v23l81 60v320h21v-304l82 61v-23l-82 -61v-387h-21z" />
    <glyph glyph-name="Nacute" unicode="&#x143;" horiz-adv-x="674" 
d="M561 0l-453 682v-682h-22v714h25l455 -684v684h22v-714h-27zM294 774l113 123h28l-116 -123h-25z" />
    <glyph glyph-name="nacute" unicode="&#x144;" horiz-adv-x="542" 
d="M450 0v338q0 169 -153 169q-95 0 -159 -64q-28 -27 -35.5 -48.5t-7.5 -75.5v-319h-21v511h21v-91q35 51 88.5 79t115.5 28q85 0 128.5 -47t43.5 -138v-342h-21zM230 585l113 129h27l-116 -129h-24z" />
    <glyph glyph-name="uni0145" unicode="&#x145;" horiz-adv-x="674" 
d="M561 0l-453 682v-682h-22v714h25l455 -684v684h22v-714h-27zM254 -207l71 133h24l-74 -133h-21z" />
    <glyph glyph-name="uni0146" unicode="&#x146;" horiz-adv-x="542" 
d="M450 0v338q0 169 -153 169q-95 0 -159 -64q-28 -27 -35.5 -48.5t-7.5 -75.5v-319h-21v511h21v-91q35 51 88.5 79t115.5 28q85 0 128.5 -47t43.5 -138v-342h-21zM190 -202l71 128h23l-74 -128h-20z" />
    <glyph glyph-name="Ncaron" unicode="&#x147;" horiz-adv-x="674" 
d="M561 0l-453 682v-682h-22v714h25l455 -684v684h22v-714h-27zM326 774l-110 123h25l96 -105l96 105h25l-110 -123h-22z" />
    <glyph glyph-name="ncaron" unicode="&#x148;" horiz-adv-x="542" 
d="M450 0v338q0 169 -153 169q-95 0 -159 -64q-28 -27 -35.5 -48.5t-7.5 -75.5v-319h-21v511h21v-91q35 51 88.5 79t115.5 28q85 0 128.5 -47t43.5 -138v-342h-21zM262 585l-111 128h24l97 -111l97 111h24l-111 -128h-20z" />
    <glyph glyph-name="napostrophe" unicode="&#x149;" horiz-adv-x="542" 
d="M450 0v338q0 169 -153 169q-95 0 -159 -64q-28 -27 -35.5 -48.5t-7.5 -75.5v-319h-21v511h21v-91q35 51 88.5 79t115.5 28q85 0 128.5 -47t43.5 -138v-342h-21zM2 531l34 183h23l-38 -183h-19z" />
    <glyph glyph-name="Eng" unicode="&#x14a;" horiz-adv-x="674" 
d="M108 682v-682h-22v714h25l455 -676v676h22v-714q0 -101 -52 -153t-153 -52q-39 0 -77.5 7t-65.5 20l8 20q28 -12 64 -19t71 -7q180 0 183 184z" />
    <glyph glyph-name="eng" unicode="&#x14b;" horiz-adv-x="542" 
d="M450 338q0 169 -153 169q-95 0 -159 -64q-28 -27 -35.5 -48.5t-7.5 -75.5v-319h-21v511h21v-91q35 51 88.5 79t115.5 28q85 0 128.5 -47t43.5 -138v-382q0 -72 -29 -109t-85 -37q-40 0 -85 16l6 19q44 -15 79 -15q45 0 69 30.5t24 88.5v385z" />
    <glyph glyph-name="Omacron" unicode="&#x14c;" horiz-adv-x="736" 
d="M368 -16q-93 0 -162.5 44t-107.5 128.5t-38 201.5q0 114 36.5 198t106 130t165.5 46q93 0 162.5 -44t107.5 -128.5t38 -200.5q0 -114 -36.5 -198t-106 -130.5t-165.5 -46.5zM368 5q87 0 151 41.5t99 121t35 190.5q0 107 -33.5 186.5t-98 123t-153.5 43.5
q-87 0 -151 -41.5t-99 -121t-35 -190.5q0 -107 33.5 -186.5t98 -123t153.5 -43.5zM234 798v20h268v-20h-268z" />
    <glyph glyph-name="omacron" unicode="&#x14d;" horiz-adv-x="565" 
d="M282 -16q-109 0 -170.5 71.5t-61.5 199.5t62 200t171 72t170.5 -72t61.5 -200q0 -127 -61.5 -199t-171.5 -72zM282 4q101 0 156 65.5t55 185.5t-55.5 186t-155.5 66t-155 -66t-55 -186t55 -185.5t155 -65.5zM167 633v19h232v-19h-232z" />
    <glyph glyph-name="Obreve" unicode="&#x14e;" horiz-adv-x="736" 
d="M368 -16q-93 0 -162.5 44t-107.5 128.5t-38 201.5q0 114 36.5 198t106 130t165.5 46q93 0 162.5 -44t107.5 -128.5t38 -200.5q0 -114 -36.5 -198t-106 -130.5t-165.5 -46.5zM368 5q87 0 151 41.5t99 121t35 190.5q0 107 -33.5 186.5t-98 123t-153.5 43.5
q-87 0 -151 -41.5t-99 -121t-35 -190.5q0 -107 33.5 -186.5t98 -123t153.5 -43.5zM480 882q0 -51 -29.5 -79.5t-82.5 -28.5q-52 0 -81.5 28.5t-29.5 79.5h21q0 -42 23.5 -65t66.5 -23q44 0 67.5 22.5t23.5 65.5h21z" />
    <glyph glyph-name="obreve" unicode="&#x14f;" horiz-adv-x="565" 
d="M282 -16q-109 0 -170.5 71.5t-61.5 199.5t62 200t171 72t170.5 -72t61.5 -200q0 -127 -61.5 -199t-171.5 -72zM282 4q101 0 156 65.5t55 185.5t-55.5 186t-155.5 66t-155 -66t-55 -186t55 -185.5t155 -65.5zM395 708q0 -53 -29.5 -83t-82.5 -30q-52 0 -81.5 29.5
t-29.5 83.5h20q0 -45 23.5 -69.5t67.5 -24.5q45 0 68.5 24t23.5 70h20z" />
    <glyph glyph-name="Ohungarumlaut" unicode="&#x150;" horiz-adv-x="736" 
d="M368 -16q-93 0 -162.5 44t-107.5 128.5t-38 201.5q0 114 36.5 198t106 130t165.5 46q93 0 162.5 -44t107.5 -128.5t38 -200.5q0 -114 -36.5 -198t-106 -130.5t-165.5 -46.5zM368 5q87 0 151 41.5t99 121t35 190.5q0 107 -33.5 186.5t-98 123t-153.5 43.5
q-87 0 -151 -41.5t-99 -121t-35 -190.5q0 -107 33.5 -186.5t98 -123t153.5 -43.5zM287 774l102 123h26l-105 -123h-23zM425 774l102 123h26l-105 -123h-23z" />
    <glyph glyph-name="ohungarumlaut" unicode="&#x151;" horiz-adv-x="565" 
d="M282 -16q-109 0 -170.5 71.5t-61.5 199.5t62 200t171 72t170.5 -72t61.5 -200q0 -127 -61.5 -199t-171.5 -72zM282 4q101 0 156 65.5t55 185.5t-55.5 186t-155.5 66t-155 -66t-55 -186t55 -185.5t155 -65.5zM208 585l102 129h25l-105 -129h-22zM335 585l102 129h25
l-105 -129h-22z" />
    <glyph glyph-name="OE" unicode="&#x152;" horiz-adv-x="1085" 
d="M623 0v207q-28 -108 -97.5 -165.5t-172.5 -57.5q-88 0 -154 44t-102.5 128.5t-36.5 201.5q0 113 34.5 197t100.5 130.5t158 46.5q101 0 171 -59t99 -168v209h410v-21h-388v-314h368v-21h-368v-337h396l-7 -21h-411zM353 5q83 0 143.5 41t93.5 120.5t33 189.5v15
q-4 159 -76 249.5t-194 90.5q-126 0 -198 -93.5t-72 -259.5t72 -259.5t198 -93.5z" />
    <glyph glyph-name="oe" unicode="&#x153;" horiz-adv-x="966" 
d="M904 122q-14 -65 -64.5 -101.5t-127.5 -36.5q-87 0 -142 48t-72 140q-19 -91 -75 -139.5t-143 -48.5q-109 0 -169.5 71.5t-60.5 199.5t61 200t169 72q87 0 143.5 -49t74.5 -141q17 91 73.5 140.5t141.5 49.5q99 0 151 -66.5t52 -193.5v-17h-407q1 -119 53 -182.5
t150 -63.5q68 0 113 30.5t59 87.5h20zM280 4q99 0 153.5 66t54.5 186q0 119 -54.5 185t-153.5 66t-153.5 -66t-54.5 -187q0 -119 54 -184.5t154 -65.5zM895 269q0 118 -46 178t-136 60q-94 0 -147 -62t-57 -176h386z" />
    <glyph glyph-name="Racute" unicode="&#x154;" horiz-adv-x="613" 
d="M544 0l-154 335q-28 -5 -65 -5h-217v-330h-22v714h243q217 0 217 -191q0 -74 -34.5 -120.5t-100.5 -63.5l157 -339h-24zM326 351q101 0 149 42.5t48 129.5q0 88 -48 129t-150 41h-217v-342h218zM241 774l113 123h28l-116 -123h-25z" />
    <glyph glyph-name="racute" unicode="&#x155;" horiz-adv-x="330" 
d="M74 0v511h21v-92q65 100 178 100q19 0 38 -3l-3 -21q-19 3 -35 3q-50 0 -88.5 -19.5t-68.5 -60.5q-13 -18 -17 -37t-4 -62v-319h-21zM151 585l113 129h27l-116 -129h-24z" />
    <glyph glyph-name="Rcommaaccent" unicode="&#x156;" horiz-adv-x="613" 
d="M544 0l-154 335q-28 -5 -65 -5h-217v-330h-22v714h243q217 0 217 -191q0 -74 -34.5 -120.5t-100.5 -63.5l157 -339h-24zM326 351q101 0 149 42.5t48 129.5q0 88 -48 129t-150 41h-217v-342h218zM244 -207l71 133h24l-74 -133h-21z" />
    <glyph glyph-name="rcommaaccent" unicode="&#x157;" horiz-adv-x="330" 
d="M74 0v511h21v-92q65 100 178 100q19 0 38 -3l-3 -21q-19 3 -35 3q-50 0 -88.5 -19.5t-68.5 -60.5q-13 -18 -17 -37t-4 -62v-319h-21zM2 -202l71 128h23l-74 -128h-20z" />
    <glyph glyph-name="Rcaron" unicode="&#x158;" horiz-adv-x="613" 
d="M544 0l-154 335q-28 -5 -65 -5h-217v-330h-22v714h243q217 0 217 -191q0 -74 -34.5 -120.5t-100.5 -63.5l157 -339h-24zM326 351q101 0 149 42.5t48 129.5q0 88 -48 129t-150 41h-217v-342h218zM273 774l-110 123h25l96 -105l96 105h25l-110 -123h-22z" />
    <glyph glyph-name="rcaron" unicode="&#x159;" horiz-adv-x="330" 
d="M74 0v511h21v-92q65 100 178 100q19 0 38 -3l-3 -21q-19 3 -35 3q-50 0 -88.5 -19.5t-68.5 -60.5q-13 -18 -17 -37t-4 -62v-319h-21zM183 585l-111 128h24l97 -111l97 111h24l-111 -128h-20z" />
    <glyph glyph-name="Sacute" unicode="&#x15a;" horiz-adv-x="604" 
d="M258 364q-101 17 -146 60t-45 122q0 88 61 137t171 49q100 0 156.5 -40.5t81.5 -128.5l-20 -5q-22 81 -73.5 117t-144.5 36q-103 0 -156.5 -42t-53.5 -122q0 -74 41 -111t137 -52l80 -12q104 -15 151.5 -61t47.5 -130q0 -96 -60.5 -146.5t-174.5 -50.5q-113 0 -181.5 48
t-80.5 136h20q14 -79 76.5 -121t165.5 -42q105 0 158.5 44.5t53.5 131.5q0 54 -18.5 87.5t-58.5 53t-107 29.5zM256 774l113 123h28l-116 -123h-25z" />
    <glyph glyph-name="sacute" unicode="&#x15b;" horiz-adv-x="497" 
d="M411 400q-19 58 -57 82.5t-110 24.5q-159 0 -159 -115q0 -48 30.5 -73.5t104.5 -37.5l52 -9q68 -11 104 -27.5t51.5 -43t15.5 -69.5q0 -72 -48.5 -110t-140.5 -38q-61 0 -105.5 17t-70 50t-30.5 81h20q19 -128 186 -128t167 127q0 39 -14.5 61.5t-47 36t-90.5 23.5l-48 8
q-84 13 -121 44t-37 89q0 64 47.5 99t133.5 35q80 0 123.5 -28.5t62.5 -94.5zM202 585l113 129h27l-116 -129h-24z" />
    <glyph glyph-name="Scircumflex" unicode="&#x15c;" horiz-adv-x="604" 
d="M258 364q-101 17 -146 60t-45 122q0 88 61 137t171 49q100 0 156.5 -40.5t81.5 -128.5l-20 -5q-22 81 -73.5 117t-144.5 36q-103 0 -156.5 -42t-53.5 -122q0 -74 41 -111t137 -52l80 -12q104 -15 151.5 -61t47.5 -130q0 -96 -60.5 -146.5t-174.5 -50.5q-113 0 -181.5 48
t-80.5 136h20q14 -79 76.5 -121t165.5 -42q105 0 158.5 44.5t53.5 131.5q0 54 -18.5 87.5t-58.5 53t-107 29.5zM395 774l-96 105l-96 -105h-25l110 123h22l110 -123h-25z" />
    <glyph glyph-name="scircumflex" unicode="&#x15d;" horiz-adv-x="497" 
d="M411 400q-19 58 -57 82.5t-110 24.5q-159 0 -159 -115q0 -48 30.5 -73.5t104.5 -37.5l52 -9q68 -11 104 -27.5t51.5 -43t15.5 -69.5q0 -72 -48.5 -110t-140.5 -38q-61 0 -105.5 17t-70 50t-30.5 81h20q19 -128 186 -128t167 127q0 39 -14.5 61.5t-47 36t-90.5 23.5l-48 8
q-84 13 -121 44t-37 89q0 64 47.5 99t133.5 35q80 0 123.5 -28.5t62.5 -94.5zM341 585l-97 111l-97 -111h-24l111 129h20l111 -129h-24z" />
    <glyph glyph-name="Scedilla" unicode="&#x15e;" horiz-adv-x="604" 
d="M258 364q-101 17 -146 60t-45 122q0 88 61 137t171 49q100 0 156.5 -40.5t81.5 -128.5l-20 -5q-22 81 -73.5 117t-144.5 36q-103 0 -156.5 -42t-53.5 -122q0 -74 41 -111t137 -52l80 -12q104 -15 151.5 -61t47.5 -130q0 -96 -60.5 -146.5t-174.5 -50.5q-113 0 -181.5 48
t-80.5 136h20q14 -79 76.5 -121t165.5 -42q105 0 158.5 44.5t53.5 131.5q0 54 -18.5 87.5t-58.5 53t-107 29.5zM242 -171q27 -5 58 -5q45 0 64.5 10t19.5 34q0 25 -22.5 35.5t-75.5 10.5h-15l31 89l19 -3l-23 -67q56 -1 82 -16.5t26 -48.5t-25.5 -49t-79.5 -16q-34 0 -59 5
v21z" />
    <glyph glyph-name="scedilla" unicode="&#x15f;" horiz-adv-x="497" 
d="M411 400q-19 58 -57 82.5t-110 24.5q-159 0 -159 -115q0 -48 30.5 -73.5t104.5 -37.5l52 -9q68 -11 104 -27.5t51.5 -43t15.5 -69.5q0 -72 -48.5 -110t-140.5 -38q-61 0 -105.5 17t-70 50t-30.5 81h20q19 -128 186 -128t167 127q0 39 -14.5 61.5t-47 36t-90.5 23.5l-48 8
q-84 13 -121 44t-37 89q0 64 47.5 99t133.5 35q80 0 123.5 -28.5t62.5 -94.5zM167 -158q25 -5 56 -5q44 0 63.5 10.5t19.5 33.5q0 24 -21 34.5t-70 10.5h-14l25 76l17 -2l-17 -57q52 -1 76 -16t24 -47t-25 -47t-77 -15q-32 0 -57 5v19z" />
    <glyph glyph-name="Scaron" unicode="&#x160;" horiz-adv-x="604" 
d="M258 364q-101 17 -146 60t-45 122q0 88 61 137t171 49q100 0 156.5 -40.5t81.5 -128.5l-20 -5q-22 81 -73.5 117t-144.5 36q-103 0 -156.5 -42t-53.5 -122q0 -74 41 -111t137 -52l80 -12q104 -15 151.5 -61t47.5 -130q0 -96 -60.5 -146.5t-174.5 -50.5q-113 0 -181.5 48
t-80.5 136h20q14 -79 76.5 -121t165.5 -42q105 0 158.5 44.5t53.5 131.5q0 54 -18.5 87.5t-58.5 53t-107 29.5zM288 774l-110 123h25l96 -105l96 105h25l-110 -123h-22z" />
    <glyph glyph-name="scaron" unicode="&#x161;" horiz-adv-x="497" 
d="M411 400q-19 58 -57 82.5t-110 24.5q-159 0 -159 -115q0 -48 30.5 -73.5t104.5 -37.5l52 -9q68 -11 104 -27.5t51.5 -43t15.5 -69.5q0 -72 -48.5 -110t-140.5 -38q-61 0 -105.5 17t-70 50t-30.5 81h20q19 -128 186 -128t167 127q0 39 -14.5 61.5t-47 36t-90.5 23.5l-48 8
q-84 13 -121 44t-37 89q0 64 47.5 99t133.5 35q80 0 123.5 -28.5t62.5 -94.5zM234 585l-111 128h24l97 -111l97 111h24l-111 -128h-20z" />
    <glyph glyph-name="uni0162" unicode="&#x162;" horiz-adv-x="570" 
d="M274 0v693h-254v21h530v-21h-254v-693h-22zM216 -171q27 -5 58 -5q45 0 64.5 10t19.5 34q0 25 -22.5 35.5t-75.5 10.5h-15l31 89l19 -3l-23 -67q56 -1 82 -16.5t26 -48.5t-25.5 -49t-79.5 -16q-34 0 -59 5v21z" />
    <glyph glyph-name="uni0163" unicode="&#x163;" horiz-adv-x="318" 
d="M303 5q-32 -16 -77 -16q-65 0 -95 36.5t-30 114.5v351h-79v20h79v143h21v-143h173v-20h-173v-355q0 -64 25.5 -95.5t78.5 -31.5q37 0 71 14zM122 -158q25 -5 56 -5q44 0 63.5 10.5t19.5 33.5q0 24 -21 34.5t-70 10.5h-14l25 76l17 -2l-17 -57q52 -1 76 -16t24 -47
t-25 -47t-77 -15q-32 0 -57 5v19z" />
    <glyph glyph-name="Tcaron" unicode="&#x164;" horiz-adv-x="570" 
d="M274 0v693h-254v21h530v-21h-254v-693h-22zM274 774l-110 123h25l96 -105l96 105h25l-110 -123h-22z" />
    <glyph glyph-name="tcaron" unicode="&#x165;" horiz-adv-x="318" 
d="M303 5q-32 -16 -77 -16q-65 0 -95 36.5t-30 114.5v351h-79v20h79v143h21v-143h173v-20h-173v-355q0 -64 25.5 -95.5t78.5 -31.5q37 0 71 14zM216 593l22 131h20l-24 -131h-18z" />
    <glyph glyph-name="Tbar" unicode="&#x166;" horiz-adv-x="570" 
d="M274 0v348h-172v21h172v324h-254v21h530v-21h-254v-324h172v-21h-172v-348h-22z" />
    <glyph glyph-name="tbar" unicode="&#x167;" horiz-adv-x="343" 
d="M303 5q-32 -16 -77 -16q-65 0 -95 36.5t-30 114.5v128h-79v20h79v203h-79v20h79v143h21v-143h173v-20h-173v-203h173v-20h-173v-132q0 -64 25.5 -95.5t78.5 -31.5q37 0 71 14z" />
    <glyph glyph-name="Utilde" unicode="&#x168;" horiz-adv-x="660" 
d="M557 714h22v-435q0 -295 -249 -295t-249 295v435h22v-438q0 -271 227 -271t227 271v438zM488 865q0 -38 -23 -61.5t-59 -23.5q-34 0 -75 30q-30 23 -45.5 30t-33.5 7q-26 0 -41.5 -17t-16.5 -48h-21q0 38 22.5 61.5t58.5 23.5q18 0 36 -7t40 -24q26 -20 43 -28t34 -8
q27 0 43 17t17 48h21z" />
    <glyph glyph-name="utilde" unicode="&#x169;" horiz-adv-x="532" 
d="M437 0v92q-34 -52 -86 -80t-113 -28q-82 0 -124.5 47t-42.5 138v342h21v-338q0 -169 149 -169q46 0 83 15.5t71 48.5q27 26 34.5 48.5t7.5 75.5v319h21v-511h-21zM416 689q0 -38 -21.5 -61.5t-56.5 -23.5q-14 0 -25.5 3.5t-24 11t-30.5 21.5q-25 19 -39 25.5t-29 6.5
q-26 0 -42 -18t-16 -48h-20q0 38 21.5 61.5t56.5 23.5q14 0 25.5 -3.5t24 -11t30.5 -21.5q25 -19 39 -25.5t29 -6.5q26 0 42 18t16 48h20z" />
    <glyph glyph-name="Umacron" unicode="&#x16a;" horiz-adv-x="660" 
d="M557 714h22v-435q0 -295 -249 -295t-249 295v435h22v-438q0 -271 227 -271t227 271v438zM196 798v20h268v-20h-268z" />
    <glyph glyph-name="umacron" unicode="&#x16b;" horiz-adv-x="532" 
d="M437 0v92q-34 -52 -86 -80t-113 -28q-82 0 -124.5 47t-42.5 138v342h21v-338q0 -169 149 -169q46 0 83 15.5t71 48.5q27 26 34.5 48.5t7.5 75.5v319h21v-511h-21zM148 633v19h232v-19h-232z" />
    <glyph glyph-name="Ubreve" unicode="&#x16c;" horiz-adv-x="660" 
d="M557 714h22v-435q0 -295 -249 -295t-249 295v435h22v-438q0 -271 227 -271t227 271v438zM442 882q0 -51 -29.5 -79.5t-82.5 -28.5q-52 0 -81.5 28.5t-29.5 79.5h21q0 -42 23.5 -65t66.5 -23q44 0 67.5 22.5t23.5 65.5h21z" />
    <glyph glyph-name="ubreve" unicode="&#x16d;" horiz-adv-x="532" 
d="M437 0v92q-34 -52 -86 -80t-113 -28q-82 0 -124.5 47t-42.5 138v342h21v-338q0 -169 149 -169q46 0 83 15.5t71 48.5q27 26 34.5 48.5t7.5 75.5v319h21v-511h-21zM376 708q0 -53 -29.5 -83t-82.5 -30q-52 0 -81.5 29.5t-29.5 83.5h20q0 -45 23.5 -69.5t67.5 -24.5
q45 0 68.5 24t23.5 70h20z" />
    <glyph glyph-name="Uring" unicode="&#x16e;" horiz-adv-x="660" 
d="M557 714h22v-435q0 -295 -249 -295t-249 295v435h22v-438q0 -271 227 -271t227 271v438zM413 820q0 -39 -22.5 -62t-60.5 -23t-60.5 23t-22.5 62t22.5 62t60.5 23t60.5 -23t22.5 -62zM392 820q0 30 -16.5 47.5t-45.5 17.5t-45.5 -17t-16.5 -48q0 -30 16.5 -47.5
t45.5 -17.5t45.5 17t16.5 48z" />
    <glyph glyph-name="uring" unicode="&#x16f;" horiz-adv-x="532" 
d="M437 0v92q-34 -52 -86 -80t-113 -28q-82 0 -124.5 47t-42.5 138v342h21v-338q0 -169 149 -169q46 0 83 15.5t71 48.5q27 26 34.5 48.5t7.5 75.5v319h21v-511h-21zM347 675q0 -39 -22.5 -62t-60.5 -23t-60.5 23t-22.5 62t22.5 62t60.5 23t60.5 -23t22.5 -62zM327 675
q0 31 -17 48.5t-46 17.5q-30 0 -46.5 -17.5t-16.5 -48.5t17 -48.5t46 -17.5q30 0 46.5 17.5t16.5 48.5z" />
    <glyph glyph-name="Uhungarumlaut" unicode="&#x170;" horiz-adv-x="660" 
d="M557 714h22v-435q0 -295 -249 -295t-249 295v435h22v-438q0 -271 227 -271t227 271v438zM249 774l102 123h26l-105 -123h-23zM387 774l102 123h26l-105 -123h-23z" />
    <glyph glyph-name="uhungarumlaut" unicode="&#x171;" horiz-adv-x="532" 
d="M437 0v92q-34 -52 -86 -80t-113 -28q-82 0 -124.5 47t-42.5 138v342h21v-338q0 -169 149 -169q46 0 83 15.5t71 48.5q27 26 34.5 48.5t7.5 75.5v319h21v-511h-21zM189 585l102 129h25l-105 -129h-22zM316 585l102 129h25l-105 -129h-22z" />
    <glyph glyph-name="Uogonek" unicode="&#x172;" horiz-adv-x="660" 
d="M557 714h22v-435q0 -295 -249 -295t-249 295v435h22v-438q0 -271 227 -271t227 271v438zM444 -166q-14 -2 -26 -2q-38 0 -57.5 17t-19.5 49q0 56 67 108l21 -6q-67 -51 -67 -99q0 -49 55 -49q13 0 27 2v-20z" />
    <glyph glyph-name="uogonek" unicode="&#x173;" horiz-adv-x="532" 
d="M437 0v92q-34 -52 -86 -80t-113 -28q-82 0 -124.5 47t-42.5 138v342h21v-338q0 -169 149 -169q46 0 83 15.5t71 48.5q27 26 34.5 48.5t7.5 75.5v319h21v-511h-21zM474 -161q-14 -2 -25 -2q-37 0 -56.5 16.5t-19.5 47.5q0 28 16 53.5t49 51.5l20 -6q-65 -49 -65 -96
q0 -48 55 -48q14 0 26 2v-19z" />
    <glyph glyph-name="Wcircumflex" unicode="&#x174;" horiz-adv-x="868" 
d="M620 0l-186 681l-186 -681h-26l-192 714h23l182 -682l187 679h25l186 -681l183 684h22l-192 -714h-26zM530 774l-96 105l-96 -105h-25l110 123h22l110 -123h-25z" />
    <glyph glyph-name="wcircumflex" unicode="&#x175;" horiz-adv-x="679" 
d="M491 0l-152 484l-151 -484h-25l-150 511h22l142 -487l152 485h22l152 -485l142 487h21l-150 -511h-25zM436 585l-97 111l-97 -111h-24l111 129h20l111 -129h-24z" />
    <glyph glyph-name="Ycircumflex" unicode="&#x176;" horiz-adv-x="557" 
d="M268 0v309l-243 405h25l229 -382l229 382h24l-242 -403v-311h-22zM374 774l-96 105l-96 -105h-25l110 123h22l110 -123h-25z" />
    <glyph glyph-name="ycircumflex" unicode="&#x177;" horiz-adv-x="467" 
d="M235 5l-225 506h22l212 -481l192 481h21l-241 -603q-23 -56 -49.5 -79t-67.5 -23q-29 0 -60 10l5 18q29 -9 55 -9q34 0 56.5 20.5t42.5 69.5zM330 585l-97 111l-97 -111h-24l111 129h20l111 -129h-24z" />
    <glyph glyph-name="Ydieresis" unicode="&#x178;" horiz-adv-x="557" 
d="M268 0v309l-243 405h25l229 -382l229 382h24l-242 -403v-311h-22zM188 790v92h22v-92h-22zM347 790v92h22v-92h-22z" />
    <glyph glyph-name="Zacute" unicode="&#x179;" horiz-adv-x="579" 
d="M42 0v19l460 674h-452v21h479v-19l-461 -674h466l-7 -21h-485zM246 774l113 123h28l-116 -123h-25z" />
    <glyph glyph-name="zacute" unicode="&#x17a;" horiz-adv-x="440" 
d="M30 0v14l337 477h-330v20h356v-16l-336 -475h353l-6 -20h-374zM173 585l113 129h27l-116 -129h-24z" />
    <glyph glyph-name="Zdotaccent" unicode="&#x17b;" horiz-adv-x="579" 
d="M42 0v19l460 674h-452v21h479v-19l-461 -674h466l-7 -21h-485zM278 790v92h22v-92h-22z" />
    <glyph glyph-name="zdotaccent" unicode="&#x17c;" horiz-adv-x="440" 
d="M30 0v14l337 477h-330v20h356v-16l-336 -475h353l-6 -20h-374zM205 622v92h21v-92h-21z" />
    <glyph glyph-name="Zcaron" unicode="&#x17d;" horiz-adv-x="579" 
d="M42 0v19l460 674h-452v21h479v-19l-461 -674h466l-7 -21h-485zM278 774l-110 123h25l96 -105l96 105h25l-110 -123h-22z" />
    <glyph glyph-name="zcaron" unicode="&#x17e;" horiz-adv-x="440" 
d="M30 0v14l337 477h-330v20h356v-16l-336 -475h353l-6 -20h-374zM205 585l-111 128h24l97 -111l97 111h24l-111 -128h-20z" />
    <glyph glyph-name="longs" unicode="&#x17f;" horiz-adv-x="169" 
d="M74 0v575q0 68 37.5 107.5t102.5 39.5q36 0 66 -11l-5 -19q-34 10 -61 10q-58 0 -88.5 -32.5t-30.5 -93.5v-576h-21z" />
    <glyph glyph-name="florin" unicode="&#x192;" horiz-adv-x="301" 
d="M101 491h-79v20h79v64q0 68 37.5 107.5t102.5 39.5q36 0 66 -11l-5 -19q-34 10 -61 10q-58 0 -88.5 -32.5t-30.5 -93.5v-65h159v-20h-159v-531q0 -72 -29 -109t-85 -37q-40 0 -85 16l6 19q43 -15 79 -15q45 0 69 30.5t24 88.5v538z" />
    <glyph glyph-name="uni0218" unicode="&#x218;" horiz-adv-x="604" 
d="M258 364q-101 17 -146 60t-45 122q0 88 61 137t171 49q100 0 156.5 -40.5t81.5 -128.5l-20 -5q-22 81 -73.5 117t-144.5 36q-103 0 -156.5 -42t-53.5 -122q0 -74 41 -111t137 -52l80 -12q104 -15 151.5 -61t47.5 -130q0 -96 -60.5 -146.5t-174.5 -50.5q-113 0 -181.5 48
t-80.5 136h20q14 -79 76.5 -121t165.5 -42q105 0 158.5 44.5t53.5 131.5q0 54 -18.5 87.5t-58.5 53t-107 29.5zM228 -207l71 133h24l-74 -133h-21z" />
    <glyph glyph-name="uni0219" unicode="&#x219;" horiz-adv-x="497" 
d="M411 400q-19 58 -57 82.5t-110 24.5q-159 0 -159 -115q0 -48 30.5 -73.5t104.5 -37.5l52 -9q68 -11 104 -27.5t51.5 -43t15.5 -69.5q0 -72 -48.5 -110t-140.5 -38q-61 0 -105.5 17t-70 50t-30.5 81h20q19 -128 186 -128t167 127q0 39 -14.5 61.5t-47 36t-90.5 23.5l-48 8
q-84 13 -121 44t-37 89q0 64 47.5 99t133.5 35q80 0 123.5 -28.5t62.5 -94.5zM172 -202l71 128h23l-74 -128h-20z" />
    <glyph glyph-name="uni021A" unicode="&#x21a;" horiz-adv-x="570" 
d="M274 0v693h-254v21h530v-21h-254v-693h-22zM202 -207l71 133h24l-74 -133h-21z" />
    <glyph glyph-name="uni021B" unicode="&#x21b;" horiz-adv-x="318" 
d="M303 5q-32 -16 -77 -16q-65 0 -95 36.5t-30 114.5v351h-79v20h79v143h21v-143h173v-20h-173v-355q0 -64 25.5 -95.5t78.5 -31.5q37 0 71 14zM127 -202l71 128h23l-74 -128h-20z" />
    <glyph glyph-name="uni0237" unicode="&#x237;" horiz-adv-x="169" 
d="M74 511h21v-551q0 -72 -29 -109t-85 -37q-40 0 -85 16l6 19q43 -15 79 -15q45 0 69 30.5t24 88.5v558z" />
    <glyph glyph-name="uni02BC" unicode="&#x2bc;" horiz-adv-x="542" 
d="M242 531l34 183h23l-38 -183h-19z" />
    <glyph glyph-name="circumflex" unicode="&#x2c6;" horiz-adv-x="542" 
d="M368 585l-97 111l-97 -111h-24l111 129h20l111 -129h-24z" />
    <glyph glyph-name="caron" unicode="&#x2c7;" horiz-adv-x="542" 
d="M261 585l-111 128h24l97 -111l97 111h24l-111 -128h-20z" />
    <glyph glyph-name="uni02C9" unicode="&#x2c9;" horiz-adv-x="542" 
d="M155 633v19h232v-19h-232z" />
    <glyph glyph-name="uni02CB" unicode="&#x2cb;" horiz-adv-x="542" 
d="M317 585l-116 129h27l113 -129h-24z" />
    <glyph glyph-name="breve" unicode="&#x2d8;" horiz-adv-x="542" 
d="M382 708q0 -53 -29.5 -83t-82.5 -30q-52 0 -81.5 29.5t-29.5 83.5h20q0 -45 23.5 -69.5t67.5 -24.5q45 0 68.5 24t23.5 70h20z" />
    <glyph glyph-name="dotaccent" unicode="&#x2d9;" horiz-adv-x="542" 
d="M260 622v92h21v-92h-21z" />
    <glyph glyph-name="ring" unicode="&#x2da;" horiz-adv-x="542" 
d="M354 675q0 -39 -22.5 -62t-60.5 -23t-60.5 23t-22.5 62t22.5 62t60.5 23t60.5 -23t22.5 -62zM334 675q0 31 -17 48.5t-46 17.5q-30 0 -46.5 -17.5t-16.5 -48.5t17 -48.5t46 -17.5q30 0 46.5 17.5t16.5 48.5z" />
    <glyph glyph-name="ogonek" unicode="&#x2db;" horiz-adv-x="542" 
d="M321 -161q-14 -2 -25 -2q-37 0 -56.5 16.5t-19.5 47.5q0 28 16 53.5t49 51.5l20 -6q-65 -49 -65 -96q0 -48 55 -48q14 0 26 2v-19z" />
    <glyph glyph-name="tilde" unicode="&#x2dc;" horiz-adv-x="542" 
d="M423 689q0 -38 -21.5 -61.5t-56.5 -23.5q-14 0 -25.5 3.5t-24 11t-30.5 21.5q-25 19 -39 25.5t-29 6.5q-26 0 -42 -18t-16 -48h-20q0 38 21.5 61.5t56.5 23.5q14 0 25.5 -3.5t24 -11t30.5 -21.5q25 -19 39 -25.5t29 -6.5q26 0 42 18t16 48h20z" />
    <glyph glyph-name="hungarumlaut" unicode="&#x2dd;" horiz-adv-x="542" 
d="M144 585l102 129h25l-105 -129h-22zM271 585l102 129h25l-105 -129h-22z" />
    <glyph glyph-name="gravecomb" unicode="&#x300;" horiz-adv-x="0" 
d="M18 585l-116 129h27l113 -129h-24z" />
    <glyph glyph-name="acutecomb" unicode="&#x301;" horiz-adv-x="0" 
d="M-42 585l113 129h27l-116 -129h-24z" />
    <glyph glyph-name="uni0302" unicode="&#x302;" horiz-adv-x="0" 
d="M97 585l-97 111l-97 -111h-24l111 129h20l111 -129h-24z" />
    <glyph glyph-name="tildecomb" unicode="&#x303;" horiz-adv-x="0" 
d="M152 689q0 -38 -21.5 -61.5t-56.5 -23.5q-14 0 -25.5 3.5t-24 11t-30.5 21.5q-25 19 -39 25.5t-29 6.5q-26 0 -42 -18t-16 -48h-20q0 38 21.5 61.5t56.5 23.5q14 0 25.5 -3.5t24 -11t30.5 -21.5q25 -19 39 -25.5t29 -6.5q26 0 42 18t16 48h20z" />
    <glyph glyph-name="uni0304" unicode="&#x304;" horiz-adv-x="0" 
d="M-116 633v19h232v-19h-232z" />
    <glyph glyph-name="uni0306" unicode="&#x306;" horiz-adv-x="0" 
d="M112 708q0 -53 -29.5 -83t-82.5 -30q-52 0 -81.5 29.5t-29.5 83.5h20q0 -45 23.5 -69.5t67.5 -24.5q45 0 68.5 24t23.5 70h20z" />
    <glyph glyph-name="uni0307" unicode="&#x307;" horiz-adv-x="0" 
d="M-10 622v92h21v-92h-21z" />
    <glyph glyph-name="uni0308" unicode="&#x308;" horiz-adv-x="0" 
d="M-84 622v92h21v-92h-21zM64 622v92h21v-92h-21z" />
    <glyph glyph-name="uni030A" unicode="&#x30a;" horiz-adv-x="0" 
d="M83 675q0 -39 -22.5 -62t-60.5 -23t-60.5 23t-22.5 62t22.5 62t60.5 23t60.5 -23t22.5 -62zM63 675q0 31 -17 48.5t-46 17.5q-30 0 -46.5 -17.5t-16.5 -48.5t17 -48.5t46 -17.5q30 0 46.5 17.5t16.5 48.5z" />
    <glyph glyph-name="uni030B" unicode="&#x30b;" horiz-adv-x="0" 
d="M-75 585l102 129h25l-105 -129h-22zM52 585l102 129h25l-105 -129h-22z" />
    <glyph glyph-name="uni030C" unicode="&#x30c;" horiz-adv-x="0" 
d="M-10 585l-111 128h24l97 -111l97 111h24l-111 -128h-20z" />
    <glyph glyph-name="uni0312" unicode="&#x312;" horiz-adv-x="0" 
d="M-12 584l70 130h20l-67 -130h-23z" />
    <glyph glyph-name="uni0315" unicode="&#x315;" horiz-adv-x="0" 
d="M-9 560l26 154h20l-28 -154h-18z" />
    <glyph glyph-name="uni0326" unicode="&#x326;" horiz-adv-x="0" 
d="M-82 -202l71 128h23l-74 -128h-20z" />
    <glyph glyph-name="uni0327" unicode="&#x327;" horiz-adv-x="0" 
d="M-87 -158q25 -5 56 -5q44 0 63.5 10.5t19.5 33.5q0 24 -21 34.5t-70 10.5h-14l25 76l17 -2l-17 -57q52 -1 76 -16t24 -47t-25 -47t-77 -15q-32 0 -57 5v19z" />
    <glyph glyph-name="uni0328" unicode="&#x328;" horiz-adv-x="0" 
d="M27 -161q-14 -2 -25 -2q-37 0 -56.5 16.5t-19.5 47.5q0 28 16 53.5t49 51.5l20 -6q-65 -49 -65 -96q0 -48 55 -48q14 0 26 2v-19z" />
    <glyph glyph-name="uni0394" unicode="&#x394;" horiz-adv-x="631" 
d="M25 0l278 714h25l278 -714h-581zM315 691l-258 -670h516z" />
    <glyph glyph-name="uni03A9" unicode="&#x3a9;" horiz-adv-x="716" 
d="M442 0v18q95 63 141 151.5t46 206.5q0 101 -32.5 176.5t-94.5 117t-146 41.5q-82 0 -143.5 -39.5t-95.5 -115.5t-34 -180q0 -118 46 -206t141 -152v-18h-235v21h197q-172 123 -172 355q0 105 35.5 185.5t102.5 125.5t158 45q88 0 154.5 -42.5t104 -123t37.5 -190.5
q0 -231 -173 -355h202l-7 -21h-232z" />
    <glyph glyph-name="uni03BC" unicode="&#x3bc;" horiz-adv-x="535" 
d="M440 0v92q-34 -51 -86 -79.5t-111 -28.5q-113 0 -148 88v-266h-21v705h21v-338q0 -169 150 -169q88 0 153 64q27 26 34.5 48.5t7.5 75.5v319h21v-511h-21z" />
    <glyph glyph-name="pi" unicode="&#x3c0;" horiz-adv-x="544" 
d="M529 -4q-18 -6 -38 -6q-44 0 -67 31t-23 89v381h-256v-491h-21v491h-101v20h505v-20h-106v-379q0 -49 18 -75.5t52 -26.5q16 0 34 4z" />
    <glyph glyph-name="Wgrave" unicode="&#x1e80;" horiz-adv-x="868" 
d="M620 0l-186 681l-186 -681h-26l-192 714h23l182 -682l187 679h25l186 -681l183 684h22l-192 -714h-26zM452 774l-116 123h28l113 -123h-25z" />
    <glyph glyph-name="wgrave" unicode="&#x1e81;" horiz-adv-x="679" 
d="M491 0l-152 484l-151 -484h-25l-150 511h22l142 -487l152 485h22l152 -485l142 487h21l-150 -511h-25zM357 585l-116 129h27l113 -129h-24z" />
    <glyph glyph-name="Wacute" unicode="&#x1e82;" horiz-adv-x="868" 
d="M620 0l-186 681l-186 -681h-26l-192 714h23l182 -682l187 679h25l186 -681l183 684h22l-192 -714h-26zM391 774l113 123h28l-116 -123h-25z" />
    <glyph glyph-name="wacute" unicode="&#x1e83;" horiz-adv-x="679" 
d="M491 0l-152 484l-151 -484h-25l-150 511h22l142 -487l152 485h22l152 -485l142 487h21l-150 -511h-25zM297 585l113 129h27l-116 -129h-24z" />
    <glyph glyph-name="Wdieresis" unicode="&#x1e84;" horiz-adv-x="868" 
d="M620 0l-186 681l-186 -681h-26l-192 714h23l182 -682l187 679h25l186 -681l183 684h22l-192 -714h-26zM344 790v92h22v-92h-22zM503 790v92h22v-92h-22z" />
    <glyph glyph-name="wdieresis" unicode="&#x1e85;" horiz-adv-x="679" 
d="M491 0l-152 484l-151 -484h-25l-150 511h22l142 -487l152 485h22l152 -485l142 487h21l-150 -511h-25zM255 622v92h21v-92h-21zM403 622v92h21v-92h-21z" />
    <glyph glyph-name="uni1E9E" unicode="&#x1e9e;" horiz-adv-x="748" 
d="M482 327q-87 17 -126 48t-39 81q0 53 45.5 107.5t152.5 129.5h-211q-105 0 -155.5 -55t-50.5 -168v-470h-22v470q0 244 228 244h246v-21l-17 -12q-107 -76 -150.5 -126.5t-43.5 -98.5q0 -42 32 -66t108 -40l25 -5q104 -21 147 -59t43 -109q0 -89 -58 -141t-159 -52
q-92 0 -146 46.5t-65 137.5h20q11 -80 59.5 -121.5t131.5 -41.5q91 0 142.5 45.5t51.5 126.5q0 61 -37.5 94t-126.5 51z" />
    <glyph glyph-name="Ygrave" unicode="&#x1ef2;" horiz-adv-x="557" 
d="M268 0v309l-243 405h25l229 -382l229 382h24l-242 -403v-311h-22zM296 774l-116 123h28l113 -123h-25z" />
    <glyph glyph-name="ygrave" unicode="&#x1ef3;" horiz-adv-x="467" 
d="M235 5l-225 506h22l212 -481l192 481h21l-241 -603q-23 -56 -49.5 -79t-67.5 -23q-29 0 -60 10l5 18q29 -9 55 -9q34 0 56.5 20.5t42.5 69.5zM251 585l-116 129h27l113 -129h-24z" />
    <glyph glyph-name="uni2000" unicode="&#x2000;" horiz-adv-x="500" 
 />
    <glyph glyph-name="uni2001" unicode="&#x2001;" horiz-adv-x="1000" 
 />
    <glyph glyph-name="uni2002" unicode="&#x2002;" horiz-adv-x="500" 
 />
    <glyph glyph-name="uni2003" unicode="&#x2003;" horiz-adv-x="1000" 
 />
    <glyph glyph-name="uni2004" unicode="&#x2004;" horiz-adv-x="333" 
 />
    <glyph glyph-name="uni2005" unicode="&#x2005;" horiz-adv-x="250" 
 />
    <glyph glyph-name="uni2006" unicode="&#x2006;" horiz-adv-x="166" 
 />
    <glyph glyph-name="uni2007" unicode="&#x2007;" horiz-adv-x="592" 
 />
    <glyph glyph-name="uni2008" unicode="&#x2008;" horiz-adv-x="162" 
 />
    <glyph glyph-name="uni2009" unicode="&#x2009;" horiz-adv-x="200" 
 />
    <glyph glyph-name="uni200A" unicode="&#x200a;" horiz-adv-x="50" 
 />
    <glyph glyph-name="uni200B" unicode="&#x200b;" horiz-adv-x="0" 
 />
    <glyph glyph-name="uni2010" unicode="&#x2010;" horiz-adv-x="387" 
d="M50 278v20h287v-20h-287z" />
    <glyph glyph-name="uni2012" unicode="&#x2012;" horiz-adv-x="592" 
d="M46 335v20h500v-20h-500z" />
    <glyph glyph-name="endash" unicode="&#x2013;" horiz-adv-x="500" 
d="M0 278v20h500v-20h-500z" />
    <glyph glyph-name="emdash" unicode="&#x2014;" horiz-adv-x="1000" 
d="M0 278v20h1000v-20h-1000z" />
    <glyph glyph-name="uni2015" unicode="&#x2015;" horiz-adv-x="1000" 
d="M0 278v20h1000v-20h-1000z" />
    <glyph glyph-name="quoteleft" unicode="&#x2018;" horiz-adv-x="162" 
d="M54 531l38 183h19l-34 -183h-23z" />
    <glyph glyph-name="quoteright" unicode="&#x2019;" horiz-adv-x="162" 
d="M51 531l34 183h23l-38 -183h-19z" />
    <glyph glyph-name="quotesinglbase" unicode="&#x201a;" horiz-adv-x="162" 
d="M51 -86l34 183h23l-38 -183h-19z" />
    <glyph glyph-name="quotedblleft" unicode="&#x201c;" horiz-adv-x="275" 
d="M54 531l38 183h19l-34 -183h-23zM167 531l38 183h19l-34 -183h-23z" />
    <glyph glyph-name="quotedblright" unicode="&#x201d;" horiz-adv-x="275" 
d="M51 531l34 183h23l-38 -183h-19zM164 531l34 183h23l-38 -183h-19z" />
    <glyph glyph-name="quotedblbase" unicode="&#x201e;" horiz-adv-x="275" 
d="M51 -86l34 183h23l-38 -183h-19zM164 -86l34 183h23l-38 -183h-19z" />
    <glyph glyph-name="dagger" unicode="&#x2020;" horiz-adv-x="447" 
d="M213 -87v568h-188v20h188v213h21v-213h188v-20h-188v-568h-21z" />
    <glyph glyph-name="daggerdbl" unicode="&#x2021;" horiz-adv-x="447" 
d="M213 -87v213h-188v20h188v335h-188v20h188v213h21v-213h188v-20h-188v-335h188v-20h-188v-213h-21z" />
    <glyph glyph-name="bullet" unicode="&#x2022;" horiz-adv-x="286" 
d="M241 365q0 -41 -27.5 -68.5t-70.5 -27.5t-70.5 27.5t-27.5 68.5t27.5 68.5t70.5 27.5t70.5 -27.5t27.5 -68.5z" />
    <glyph glyph-name="ellipsis" unicode="&#x2026;" horiz-adv-x="664" 
d="M70 0v97h22v-97h-22zM321 0v97h22v-97h-22zM572 0v97h22v-97h-22z" />
    <glyph glyph-name="perthousand" unicode="&#x2030;" horiz-adv-x="1248" 
d="M239 0l355 691h23l-355 -691h-23zM650 -22q-77 0 -118.5 55.5t-41.5 157.5t41.5 157.5t118.5 55.5t118.5 -55.5t41.5 -157.5t-41.5 -157.5t-118.5 -55.5zM650 -2q66 0 102 50t36 143q0 92 -36 142.5t-102 50.5q-67 0 -102.5 -50t-35.5 -143t35.5 -143t102.5 -50z
M1043 -22q-77 0 -118.5 55.5t-41.5 157.5t41.5 157.5t118.5 55.5t118.5 -55.5t41.5 -157.5t-41.5 -157.5t-118.5 -55.5zM1043 -2q66 0 102 50t36 143q0 92 -36 142.5t-102 50.5q-67 0 -102.5 -50t-35.5 -143t35.5 -143t102.5 -50zM206 281q-77 0 -118.5 55.5t-41.5 157.5
t41.5 157.5t118.5 55.5t118.5 -55.5t41.5 -157.5t-41.5 -157.5t-118.5 -55.5zM206 301q66 0 102 50t36 143q0 92 -36 142.5t-102 50.5q-67 0 -102.5 -50t-35.5 -143t35.5 -143t102.5 -50z" />
    <glyph glyph-name="minute" unicode="&#x2032;" horiz-adv-x="154" 
d="M46 472l39 242h23l-43 -242h-19z" />
    <glyph glyph-name="second" unicode="&#x2033;" horiz-adv-x="311" 
d="M46 472l39 242h23l-43 -242h-19zM203 472l39 242h23l-43 -242h-19z" />
    <glyph glyph-name="guilsinglleft" unicode="&#x2039;" horiz-adv-x="260" 
d="M187 34l-147 222l147 222h23l-146 -221l146 -223h-23z" />
    <glyph glyph-name="guilsinglright" unicode="&#x203a;" horiz-adv-x="260" 
d="M50 34l146 221l-146 223h23l147 -222l-147 -222h-23z" />
    <glyph glyph-name="fraction" unicode="&#x2044;" horiz-adv-x="48" 
d="M-165 0l355 691h23l-355 -691h-23z" />
    <glyph glyph-name="uni2070" unicode="&#x2070;" 
d="M206 281q-77 0 -118.5 55.5t-41.5 157.5t41.5 157.5t118.5 55.5t118.5 -55.5t41.5 -157.5t-41.5 -157.5t-118.5 -55.5zM206 301q66 0 102 50t36 143q0 92 -36 142.5t-102 50.5q-67 0 -102.5 -50t-35.5 -143t35.5 -143t102.5 -50z" />
    <glyph glyph-name="uni2074" unicode="&#x2074;" 
d="M266 294v113h-207v16l208 271h20v-267h50l-6 -20h-44v-113h-21zM266 661l-180 -234h180v234z" />
    <glyph glyph-name="uni2075" unicode="&#x2075;" 
d="M98 385q7 -41 35.5 -62.5t75.5 -21.5q53 0 80.5 28.5t27.5 84.5q0 114 -105 114q-35 0 -63.5 -11.5t-45.5 -32.5h-19l17 210h212v-20h-194l-13 -163q40 37 106 37q61 0 94 -34.5t33 -99.5q0 -64 -34 -98.5t-96 -34.5q-56 0 -90 27.5t-40 76.5h19z" />
    <glyph glyph-name="uni2076" unicode="&#x2076;" 
d="M317 617q-19 69 -91 69q-65 0 -96.5 -53t-31.5 -162q13 37 45.5 57t78.5 20q59 0 93 -35t34 -97q0 -61 -36.5 -98t-96.5 -37q-68 0 -103 49t-35 144q0 114 37 173t110 59q44 0 73 -22.5t38 -62.5zM214 302q53 0 83 30.5t30 84.5q0 53 -27.5 82t-77.5 29
q-54 0 -85.5 -28.5t-31.5 -76.5q0 -55 30 -88t79 -33z" />
    <glyph glyph-name="uni2077" unicode="&#x2077;" 
d="M162 294q29 103 64 189.5t91 190.5h-249v20h271v-18q-102 -185 -155 -382h-22z" />
    <glyph glyph-name="uni2078" unicode="&#x2078;" 
d="M256 497q42 -7 67 -35t25 -69q0 -53 -37.5 -82.5t-104.5 -29.5q-66 0 -103.5 30t-37.5 82q0 41 24.5 68.5t67.5 34.5q-36 9 -57 36t-21 65q0 50 35 80t93 30t92.5 -29.5t34.5 -80.5q0 -37 -21 -64t-57 -36zM326 393q0 44 -32 68.5t-88 24.5t-87.5 -24.5t-31.5 -68.5
q0 -43 31.5 -67.5t87.5 -24.5t88 24t32 68zM312 596q0 43 -28 67t-78 24q-49 0 -77 -24t-28 -67q0 -41 28.5 -65.5t76.5 -24.5q49 0 77.5 24.5t28.5 65.5z" />
    <glyph glyph-name="uni2079" unicode="&#x2079;" 
d="M94 375q18 -74 99 -74q44 0 70 22.5t38.5 70t12.5 122.5q-13 -37 -45.5 -57t-78.5 -20q-61 0 -94 36t-33 96q0 61 36.5 98t96.5 37q68 0 103 -49t35 -144q0 -119 -34 -175.5t-106 -56.5q-51 0 -82 24.5t-38 69.5h20zM307 564q0 34 -13 62t-37 43.5t-59 15.5
q-52 0 -82.5 -30.5t-30.5 -84.5q0 -52 27.5 -81.5t77.5 -29.5q53 0 85 28t32 77z" />
    <glyph glyph-name="uni2080" unicode="&#x2080;" 
d="M206 -13q-77 0 -118.5 55.5t-41.5 157.5t41.5 157.5t118.5 55.5t118.5 -55.5t41.5 -157.5t-41.5 -157.5t-118.5 -55.5zM206 7q66 0 102 50t36 143q0 92 -36 142.5t-102 50.5q-67 0 -102.5 -50t-35.5 -143t35.5 -143t102.5 -50z" />
    <glyph glyph-name="uni2081" unicode="&#x2081;" 
d="M213 0v378l-113 -58l-9 17l122 63h21v-400h-21z" />
    <glyph glyph-name="uni2082" unicode="&#x2082;" 
d="M75 0v18l95 82q79 67 109.5 109.5t30.5 86.5q0 47 -26 71.5t-74 24.5q-90 0 -114 -86l-19 3q12 50 46 76.5t87 26.5q56 0 89 -30.5t33 -83.5q0 -48 -31.5 -93t-115.5 -118l-77 -67h227l-6 -20h-254z" />
    <glyph glyph-name="uni2083" unicode="&#x2083;" 
d="M157 200v19h59q40 0 63 23t23 65q0 86 -99 86q-46 0 -73.5 -20t-39.5 -62l-19 3q10 48 44 73.5t88 25.5q58 0 89.5 -27.5t31.5 -77.5q0 -35 -17 -61t-48 -36q34 -8 53.5 -37.5t19.5 -70.5q0 -55 -34.5 -85.5t-96.5 -30.5t-99.5 31t-38.5 82h19q4 -45 35 -69t84 -24
t81 24.5t28 71.5q0 44 -24 70.5t-64 26.5h-65z" />
    <glyph glyph-name="uni2084" unicode="&#x2084;" 
d="M266 0v113h-207v16l208 271h20v-267h50l-6 -20h-44v-113h-21zM266 367l-180 -234h180v234z" />
    <glyph glyph-name="uni2085" unicode="&#x2085;" 
d="M98 91q7 -41 35.5 -62.5t75.5 -21.5q53 0 80.5 28.5t27.5 84.5q0 114 -105 114q-35 0 -63.5 -11.5t-45.5 -32.5h-19l17 210h212v-20h-194l-13 -163q40 37 106 37q61 0 94 -34.5t33 -99.5q0 -64 -34 -98.5t-96 -34.5q-56 0 -90 27.5t-40 76.5h19z" />
    <glyph glyph-name="uni2086" unicode="&#x2086;" 
d="M317 323q-19 69 -91 69q-65 0 -96.5 -53t-31.5 -162q13 37 45.5 57t78.5 20q59 0 93 -35t34 -97q0 -61 -36.5 -98t-96.5 -37q-68 0 -103 49t-35 144q0 114 37 173t110 59q44 0 73 -22.5t38 -62.5zM214 8q53 0 83 30.5t30 84.5q0 53 -27.5 82t-77.5 29q-54 0 -85.5 -28.5
t-31.5 -76.5q0 -55 30 -88t79 -33z" />
    <glyph glyph-name="uni2087" unicode="&#x2087;" 
d="M162 0q29 103 64 189.5t91 190.5h-249v20h271v-18q-102 -185 -155 -382h-22z" />
    <glyph glyph-name="uni2088" unicode="&#x2088;" 
d="M256 203q42 -7 67 -35t25 -69q0 -53 -37.5 -82.5t-104.5 -29.5q-66 0 -103.5 30t-37.5 82q0 41 24.5 68.5t67.5 34.5q-36 9 -57 36t-21 65q0 50 35 80t93 30t92.5 -29.5t34.5 -80.5q0 -37 -21 -64t-57 -36zM326 99q0 44 -32 68.5t-88 24.5t-87.5 -24.5t-31.5 -68.5
q0 -43 31.5 -67.5t87.5 -24.5t88 24t32 68zM312 302q0 43 -28 67t-78 24q-49 0 -77 -24t-28 -67q0 -41 28.5 -65.5t76.5 -24.5q49 0 77.5 24.5t28.5 65.5z" />
    <glyph glyph-name="uni2089" unicode="&#x2089;" 
d="M94 81q18 -74 99 -74q44 0 70 22.5t38.5 70t12.5 122.5q-13 -37 -45.5 -57t-78.5 -20q-61 0 -94 36t-33 96q0 61 36.5 98t96.5 37q68 0 103 -49t35 -144q0 -119 -34 -175.5t-106 -56.5q-51 0 -82 24.5t-38 69.5h20zM307 270q0 34 -13 62t-37 43.5t-59 15.5
q-52 0 -82.5 -30.5t-30.5 -84.5q0 -52 27.5 -81.5t77.5 -29.5q53 0 85 28t32 77z" />
    <glyph glyph-name="Euro" unicode="&#x20ac;" horiz-adv-x="592" 
d="M550 194q-13 -101 -71.5 -156.5t-153.5 -55.5q-106 0 -166.5 69.5t-74.5 206.5h-70l6 19h63q-2 28 -2 59q0 52 4 85h-71l6 19h68q18 132 80 201t162 69q82 0 135.5 -46.5t72.5 -134.5l-20 -5q-20 83 -66.5 124t-121.5 41q-186 0 -221 -249h294l-6 -19h-290q-5 -53 -5 -90
q0 -9 0.5 -21.5t1.5 -32.5h269l-6 -19h-261q25 -255 219 -255q84 0 136 48.5t69 142.5h20z" />
    <glyph glyph-name="uni20B9" unicode="&#x20b9;" horiz-adv-x="592" 
d="M470 0l-359 304v21h105q191 0 197 161h-302v20h302q-2 84 -50 124.5t-148 40.5h-104v20h421l-6 -20h-205q56 -17 84 -57.5t30 -107.5h67l-6 -20h-61q-8 -182 -221 -182h-70l359 -304h-33z" />
    <glyph glyph-name="uni20BA" unicode="&#x20ba;" horiz-adv-x="592" 
d="M510 267q-11 -128 -87.5 -197.5t-206.5 -69.5h-74v273l-79 -37l-7 17l86 40v137l-79 -37l-7 17l86 40v241h22v-230l220 103l7 -17l-227 -107v-136l220 103l7 -17l-227 -107v-262h52q120 0 190.5 63.5t83.5 182.5h20z" />
    <glyph glyph-name="afii61289" unicode="&#x2113;" horiz-adv-x="288" 
d="M258 31q-16 -25 -35.5 -37t-44.5 -12q-82 0 -82 96v165l-53 -59l-14 14l67 76v345q0 49 20.5 77t56.5 28q80 0 80 -124q0 -89 -35 -174t-101 -159v-190q0 -75 61 -75q20 0 35 9t31 31zM117 298q54 60 84 139.5t30 162.5q0 54 -14 79t-44 25q-26 0 -41 -22t-15 -62v-322z
" />
    <glyph glyph-name="trademark" unicode="&#x2122;" horiz-adv-x="872" 
d="M164 314v380h-144v20h309v-20h-144v-380h-21zM771 314v367l-167 -367h-18l-167 367v-367h-21v400h28l169 -372l169 372h28v-400h-21z" />
    <glyph glyph-name="uni2126" unicode="&#x2126;" horiz-adv-x="716" 
d="M442 0v18q95 63 141 151.5t46 206.5q0 101 -32.5 176.5t-94.5 117t-146 41.5q-82 0 -143.5 -39.5t-95.5 -115.5t-34 -180q0 -118 46 -206t141 -152v-18h-235v21h197q-172 123 -172 355q0 105 35.5 185.5t102.5 125.5t158 45q88 0 154.5 -42.5t104 -123t37.5 -190.5
q0 -231 -173 -355h202l-7 -21h-232z" />
    <glyph glyph-name="estimated" unicode="&#x212e;" horiz-adv-x="911" 
d="M775 129q-54 -66 -139 -103t-182 -37q-107 0 -198.5 46.5t-148.5 130t-57 186.5q0 95 51.5 178t145 135t207.5 52q106 0 198.5 -46.5t150.5 -131t58 -187.5v-10h-657q-5 0 -5 -4v-199q0 -13 9 -22q49 -53 112.5 -80.5t135.5 -27.5q75 0 142 31t119 89h58zM711 568
q0 14 -9 24q-50 50 -113.5 76.5t-132.5 26.5q-68 0 -131.5 -27.5t-115.5 -79.5q-10 -7 -10 -24v-195q0 -7 5 -7h503q4 0 4 7v199z" />
    <glyph glyph-name="oneseventh" unicode="&#x2150;" horiz-adv-x="879" 
d="M188 0l355 691h23l-355 -691h-23zM626 0q29 103 64 189.5t91 190.5h-249v20h271v-18q-102 -185 -155 -382h-22zM169 291v378l-113 -58l-9 17l122 63h21v-400h-21z" />
    <glyph glyph-name="oneninth" unicode="&#x2151;" horiz-adv-x="879" 
d="M201 0l355 691h23l-355 -691h-23zM569 81q18 -74 99 -74q44 0 70 22.5t38.5 70t12.5 122.5q-13 -37 -45.5 -57t-78.5 -20q-61 0 -94 36t-33 96q0 61 36.5 98t96.5 37q68 0 103 -49t35 -144q0 -119 -34 -175.5t-106 -56.5q-51 0 -82 24.5t-38 69.5h20zM782 270
q0 34 -13 62t-37 43.5t-59 15.5q-52 0 -82.5 -30.5t-30.5 -84.5q0 -52 27.5 -81.5t77.5 -29.5q53 0 85 28t32 77zM169 291v378l-113 -58l-9 17l122 63h21v-400h-21z" />
    <glyph glyph-name="onethird" unicode="&#x2153;" horiz-adv-x="879" 
d="M193 0l355 691h23l-355 -691h-23zM619 200v19h59q40 0 63 23t23 65q0 86 -99 86q-46 0 -73.5 -20t-39.5 -62l-19 3q10 48 44 73.5t88 25.5q58 0 89.5 -27.5t31.5 -77.5q0 -35 -17 -61t-48 -36q34 -8 53.5 -37.5t19.5 -70.5q0 -55 -34.5 -85.5t-96.5 -30.5t-99.5 31
t-38.5 82h19q4 -45 35 -69t84 -24t81 24.5t28 71.5q0 44 -24 70.5t-64 26.5h-65zM169 291v378l-113 -58l-9 17l122 63h21v-400h-21z" />
    <glyph glyph-name="twothirds" unicode="&#x2154;" horiz-adv-x="879" 
d="M262 0l355 691h23l-355 -691h-23zM619 200v19h59q40 0 63 23t23 65q0 86 -99 86q-46 0 -73.5 -20t-39.5 -62l-19 3q10 48 44 73.5t88 25.5q58 0 89.5 -27.5t31.5 -77.5q0 -35 -17 -61t-48 -36q34 -8 53.5 -37.5t19.5 -70.5q0 -55 -34.5 -85.5t-96.5 -30.5t-99.5 31
t-38.5 82h19q4 -45 35 -69t84 -24t81 24.5t28 71.5q0 44 -24 70.5t-64 26.5h-65zM74 291v18l95 82q79 67 109.5 109.5t30.5 86.5q0 47 -26 71.5t-74 24.5q-90 0 -114 -86l-19 3q12 50 46 76.5t87 26.5q56 0 89 -30.5t33 -83.5q0 -48 -31.5 -93t-115.5 -118l-77 -67h227
l-6 -20h-254z" />
    <glyph glyph-name="onefifth" unicode="&#x2155;" horiz-adv-x="879" 
d="M193 0l355 691h23l-355 -691h-23zM560 91q7 -41 35.5 -62.5t75.5 -21.5q53 0 80.5 28.5t27.5 84.5q0 114 -105 114q-35 0 -63.5 -11.5t-45.5 -32.5h-19l17 210h212v-20h-194l-13 -163q40 37 106 37q61 0 94 -34.5t33 -99.5q0 -64 -34 -98.5t-96 -34.5q-56 0 -90 27.5
t-40 76.5h19zM169 291v378l-113 -58l-9 17l122 63h21v-400h-21z" />
    <glyph glyph-name="twofifths" unicode="&#x2156;" horiz-adv-x="879" 
d="M260 0l355 691h23l-355 -691h-23zM560 91q7 -41 35.5 -62.5t75.5 -21.5q53 0 80.5 28.5t27.5 84.5q0 114 -105 114q-35 0 -63.5 -11.5t-45.5 -32.5h-19l17 210h212v-20h-194l-13 -163q40 37 106 37q61 0 94 -34.5t33 -99.5q0 -64 -34 -98.5t-96 -34.5q-56 0 -90 27.5
t-40 76.5h19zM74 291v18l95 82q79 67 109.5 109.5t30.5 86.5q0 47 -26 71.5t-74 24.5q-90 0 -114 -86l-19 3q12 50 46 76.5t87 26.5q56 0 89 -30.5t33 -83.5q0 -48 -31.5 -93t-115.5 -118l-77 -67h227l-6 -20h-254z" />
    <glyph glyph-name="threefifths" unicode="&#x2157;" horiz-adv-x="879" 
d="M249 0l355 691h23l-355 -691h-23zM560 91q7 -41 35.5 -62.5t75.5 -21.5q53 0 80.5 28.5t27.5 84.5q0 114 -105 114q-35 0 -63.5 -11.5t-45.5 -32.5h-19l17 210h212v-20h-194l-13 -163q40 37 106 37q61 0 94 -34.5t33 -99.5q0 -64 -34 -98.5t-96 -34.5q-56 0 -90 27.5
t-40 76.5h19zM153 491v19h59q40 0 63 23t23 65q0 86 -99 86q-46 0 -73.5 -20t-39.5 -62l-19 3q10 48 44 73.5t88 25.5q58 0 89.5 -27.5t31.5 -77.5q0 -35 -17 -61t-48 -36q34 -8 53.5 -37.5t19.5 -70.5q0 -55 -34.5 -85.5t-96.5 -30.5t-99.5 31t-38.5 82h19q4 -45 35 -69
t84 -24t81 24.5t28 71.5q0 44 -24 70.5t-64 26.5h-65z" />
    <glyph glyph-name="fourfifths" unicode="&#x2158;" horiz-adv-x="879" 
d="M252 0l355 691h23l-355 -691h-23zM560 91q7 -41 35.5 -62.5t75.5 -21.5q53 0 80.5 28.5t27.5 84.5q0 114 -105 114q-35 0 -63.5 -11.5t-45.5 -32.5h-19l17 210h212v-20h-194l-13 -163q40 37 106 37q61 0 94 -34.5t33 -99.5q0 -64 -34 -98.5t-96 -34.5q-56 0 -90 27.5
t-40 76.5h19zM278 291v113h-207v16l208 271h20v-267h50l-6 -20h-44v-113h-21zM278 658l-180 -234h180v234z" />
    <glyph glyph-name="onesixth" unicode="&#x2159;" horiz-adv-x="879" 
d="M210 0l355 691h23l-355 -691h-23zM781 323q-19 69 -91 69q-65 0 -96.5 -53t-31.5 -162q13 37 45.5 57t78.5 20q59 0 93 -35t34 -97q0 -61 -36.5 -98t-96.5 -37q-68 0 -103 49t-35 144q0 114 37 173t110 59q44 0 73 -22.5t38 -62.5zM678 8q53 0 83 30.5t30 84.5
q0 53 -27.5 82t-77.5 29q-54 0 -85.5 -28.5t-31.5 -76.5q0 -55 30 -88t79 -33zM169 291v378l-113 -58l-9 17l122 63h21v-400h-21z" />
    <glyph glyph-name="fivesixths" unicode="&#x215a;" horiz-adv-x="879" 
d="M259 0l355 691h23l-355 -691h-23zM781 323q-19 69 -91 69q-65 0 -96.5 -53t-31.5 -162q13 37 45.5 57t78.5 20q59 0 93 -35t34 -97q0 -61 -36.5 -98t-96.5 -37q-68 0 -103 49t-35 144q0 114 37 173t110 59q44 0 73 -22.5t38 -62.5zM678 8q53 0 83 30.5t30 84.5
q0 53 -27.5 82t-77.5 29q-54 0 -85.5 -28.5t-31.5 -76.5q0 -55 30 -88t79 -33zM97 382q7 -41 35.5 -62.5t75.5 -21.5q53 0 80.5 28.5t27.5 84.5q0 114 -105 114q-35 0 -63.5 -11.5t-45.5 -32.5h-19l17 210h212v-20h-194l-13 -163q40 37 106 37q61 0 94 -34.5t33 -99.5
q0 -64 -34 -98.5t-96 -34.5q-56 0 -90 27.5t-40 76.5h19z" />
    <glyph glyph-name="oneeighth" unicode="&#x215b;" horiz-adv-x="879" 
d="M201 0l355 691h23l-355 -691h-23zM723 203q42 -7 67 -35t25 -69q0 -53 -37.5 -82.5t-104.5 -29.5q-66 0 -103.5 30t-37.5 82q0 41 24.5 68.5t67.5 34.5q-36 9 -57 36t-21 65q0 50 35 80t93 30t92.5 -29.5t34.5 -80.5q0 -37 -21 -64t-57 -36zM793 99q0 44 -32 68.5
t-88 24.5t-87.5 -24.5t-31.5 -68.5q0 -43 31.5 -67.5t87.5 -24.5t88 24t32 68zM779 302q0 43 -28 67t-78 24q-49 0 -77 -24t-28 -67q0 -41 28.5 -65.5t76.5 -24.5q49 0 77.5 24.5t28.5 65.5zM169 291v378l-113 -58l-9 17l122 63h21v-400h-21z" />
    <glyph glyph-name="threeeighths" unicode="&#x215c;" horiz-adv-x="879" 
d="M250 0l355 691h23l-355 -691h-23zM723 203q42 -7 67 -35t25 -69q0 -53 -37.5 -82.5t-104.5 -29.5q-66 0 -103.5 30t-37.5 82q0 41 24.5 68.5t67.5 34.5q-36 9 -57 36t-21 65q0 50 35 80t93 30t92.5 -29.5t34.5 -80.5q0 -37 -21 -64t-57 -36zM793 99q0 44 -32 68.5
t-88 24.5t-87.5 -24.5t-31.5 -68.5q0 -43 31.5 -67.5t87.5 -24.5t88 24t32 68zM779 302q0 43 -28 67t-78 24q-49 0 -77 -24t-28 -67q0 -41 28.5 -65.5t76.5 -24.5q49 0 77.5 24.5t28.5 65.5zM153 491v19h59q40 0 63 23t23 65q0 86 -99 86q-46 0 -73.5 -20t-39.5 -62l-19 3
q10 48 44 73.5t88 25.5q58 0 89.5 -27.5t31.5 -77.5q0 -35 -17 -61t-48 -36q34 -8 53.5 -37.5t19.5 -70.5q0 -55 -34.5 -85.5t-96.5 -30.5t-99.5 31t-38.5 82h19q4 -45 35 -69t84 -24t81 24.5t28 71.5q0 44 -24 70.5t-64 26.5h-65z" />
    <glyph glyph-name="fiveeighths" unicode="&#x215d;" horiz-adv-x="879" 
d="M255 0l355 691h23l-355 -691h-23zM723 203q42 -7 67 -35t25 -69q0 -53 -37.5 -82.5t-104.5 -29.5q-66 0 -103.5 30t-37.5 82q0 41 24.5 68.5t67.5 34.5q-36 9 -57 36t-21 65q0 50 35 80t93 30t92.5 -29.5t34.5 -80.5q0 -37 -21 -64t-57 -36zM793 99q0 44 -32 68.5
t-88 24.5t-87.5 -24.5t-31.5 -68.5q0 -43 31.5 -67.5t87.5 -24.5t88 24t32 68zM779 302q0 43 -28 67t-78 24q-49 0 -77 -24t-28 -67q0 -41 28.5 -65.5t76.5 -24.5q49 0 77.5 24.5t28.5 65.5zM97 382q7 -41 35.5 -62.5t75.5 -21.5q53 0 80.5 28.5t27.5 84.5q0 114 -105 114
q-35 0 -63.5 -11.5t-45.5 -32.5h-19l17 210h212v-20h-194l-13 -163q40 37 106 37q61 0 94 -34.5t33 -99.5q0 -64 -34 -98.5t-96 -34.5q-56 0 -90 27.5t-40 76.5h19z" />
    <glyph glyph-name="seveneighths" unicode="&#x215e;" horiz-adv-x="879" 
d="M206 0l355 691h23l-355 -691h-23zM723 203q42 -7 67 -35t25 -69q0 -53 -37.5 -82.5t-104.5 -29.5q-66 0 -103.5 30t-37.5 82q0 41 24.5 68.5t67.5 34.5q-36 9 -57 36t-21 65q0 50 35 80t93 30t92.5 -29.5t34.5 -80.5q0 -37 -21 -64t-57 -36zM793 99q0 44 -32 68.5
t-88 24.5t-87.5 -24.5t-31.5 -68.5q0 -43 31.5 -67.5t87.5 -24.5t88 24t32 68zM779 302q0 43 -28 67t-78 24q-49 0 -77 -24t-28 -67q0 -41 28.5 -65.5t76.5 -24.5q49 0 77.5 24.5t28.5 65.5zM154 291q29 103 64 189.5t91 190.5h-249v20h271v-18q-102 -185 -155 -382h-22z
" />
    <glyph glyph-name="partialdiff" unicode="&#x2202;" horiz-adv-x="561" 
d="M115 559q40 151 190 151q102 0 151.5 -74t49.5 -229q0 -133 -31 -228t-90.5 -146t-144.5 -51q-88 0 -141.5 56t-53.5 147q0 67 28.5 122t81 87.5t120.5 32.5q82 0 137.5 -44t62.5 -116q10 73 10 139q0 147 -44 215.5t-139 68.5q-66 0 -106.5 -32.5t-61.5 -102.5zM240 2
q57 0 107 30.5t81.5 86t31.5 121.5q0 75 -51.5 120.5t-135.5 45.5q-58 0 -104.5 -27.5t-74 -77.5t-27.5 -116q0 -83 47.5 -133t125.5 -50z" />
    <glyph glyph-name="uni2206" unicode="&#x2206;" horiz-adv-x="631" 
d="M25 0l278 714h25l278 -714h-581zM315 691l-258 -670h516z" />
    <glyph glyph-name="product" unicode="&#x220f;" horiz-adv-x="651" 
d="M544 0v693h-437v-693h-21v714h479v-714h-21z" />
    <glyph glyph-name="summation" unicode="&#x2211;" horiz-adv-x="552" 
d="M40 -102v20l248 394l-244 381v21h476v-21h-452l245 -380l-249 -394h468l-7 -21h-485z" />
    <glyph glyph-name="minus" unicode="&#x2212;" horiz-adv-x="592" 
d="M83 330v20h426v-20h-426z" />
    <glyph glyph-name="uni2215" unicode="&#x2215;" horiz-adv-x="48" 
d="M-165 0l355 691h23l-355 -691h-23z" />
    <glyph glyph-name="uni2219" unicode="&#x2219;" horiz-adv-x="162" 
d="M70 325v97h22v-97h-22z" />
    <glyph glyph-name="radical" unicode="&#x221a;" horiz-adv-x="522" 
d="M238 0l-145 335h-78v20h91l143 -331l258 707h20l-267 -731h-22z" />
    <glyph glyph-name="infinity" unicode="&#x221e;" horiz-adv-x="596" 
d="M286 342q-37 134 -127 134q-48 0 -75.5 -36t-27.5 -98t27.5 -98t75.5 -36q90 0 127 134zM298 315q-41 -127 -139 -127q-58 0 -91 41t-33 113q0 71 33 112.5t91 41.5q98 0 139 -127q41 127 139 127q58 0 91 -41t33 -113q0 -71 -33 -112.5t-91 -41.5q-98 0 -139 127z
M310 342q37 -134 127 -134q48 0 75.5 36t27.5 98t-27.5 98t-75.5 36q-90 0 -127 -134z" />
    <glyph glyph-name="integral" unicode="&#x222b;" horiz-adv-x="283" 
d="M93 584q-1 7 -1.5 13.5t-0.5 13.5q0 51 25.5 81t72.5 30q27 0 54 -11l-7 -18q-19 9 -47 9q-38 0 -57.5 -23t-19.5 -67q0 -7 0.5 -14t1.5 -14l76 -566q2 -16 2 -26q0 -53 -25.5 -82.5t-72.5 -29.5q-26 0 -54 11l7 18q20 -9 47 -9q37 0 57 23t20 66q0 17 -2 29z" />
    <glyph glyph-name="approxequal" unicode="&#x2248;" horiz-adv-x="592" 
d="M527 508q0 -66 -29.5 -103t-81.5 -37q-28 0 -55.5 15t-65.5 50q-42 40 -67.5 54.5t-52.5 14.5q-42 0 -65 -31t-23 -89h-21q0 66 29.5 103t81.5 37q28 0 55.5 -15t65.5 -50q42 -40 67.5 -54.5t52.5 -14.5q42 0 65 31t23 89h21zM527 277q0 -66 -29.5 -103t-81.5 -37
q-28 0 -55.5 15t-65.5 50q-42 40 -67.5 54.5t-52.5 14.5q-42 0 -65 -31t-23 -89h-21q0 66 29.5 103t81.5 37q28 0 55.5 -15t65.5 -50q42 -40 67.5 -54.5t52.5 -14.5q42 0 65 31t23 89h21z" />
    <glyph glyph-name="notequal" unicode="&#x2260;" horiz-adv-x="592" 
d="M234 217l-71 -118h-23l71 118h-128v20h140l123 206h-263v20h275l71 118h23l-71 -118h128v-20h-140l-123 -206h263v-20h-275z" />
    <glyph glyph-name="lessequal" unicode="&#x2264;" horiz-adv-x="592" 
d="M77 0v20h437v-20h-437zM77 330v17l437 227v-22l-409 -213l409 -212v-23z" />
    <glyph glyph-name="greaterequal" unicode="&#x2265;" horiz-adv-x="592" 
d="M78 0v20h437v-20h-437zM78 104v22l409 213l-409 212v23l437 -226v-17z" />
    <glyph glyph-name="lozenge" unicode="&#x25ca;" horiz-adv-x="591" 
d="M284 0l-239 357l239 357h23l239 -357l-239 -357h-23zM521 357l-225 336l-226 -336l225 -336z" />
    <glyph glyph-name="twosevenths" unicode="&#xf507;" horiz-adv-x="879" 
d="M246 0l355 691h23l-355 -691h-23zM626 0q29 103 64 189.5t91 190.5h-249v20h271v-18q-102 -185 -155 -382h-22zM74 291v18l95 82q79 67 109.5 109.5t30.5 86.5q0 47 -26 71.5t-74 24.5q-90 0 -114 -86l-19 3q12 50 46 76.5t87 26.5q56 0 89 -30.5t33 -83.5
q0 -48 -31.5 -93t-115.5 -118l-77 -67h227l-6 -20h-254z" />
    <glyph glyph-name="threesevenths" unicode="&#xf508;" horiz-adv-x="879" 
d="M231 0l355 691h23l-355 -691h-23zM626 0q29 103 64 189.5t91 190.5h-249v20h271v-18q-102 -185 -155 -382h-22zM153 491v19h59q40 0 63 23t23 65q0 86 -99 86q-46 0 -73.5 -20t-39.5 -62l-19 3q10 48 44 73.5t88 25.5q58 0 89.5 -27.5t31.5 -77.5q0 -35 -17 -61t-48 -36
q34 -8 53.5 -37.5t19.5 -70.5q0 -55 -34.5 -85.5t-96.5 -30.5t-99.5 31t-38.5 82h19q4 -45 35 -69t84 -24t81 24.5t28 71.5q0 44 -24 70.5t-64 26.5h-65z" />
    <glyph glyph-name="foursevenths" unicode="&#xf509;" horiz-adv-x="879" 
d="M232 0l355 691h23l-355 -691h-23zM626 0q29 103 64 189.5t91 190.5h-249v20h271v-18q-102 -185 -155 -382h-22zM278 291v113h-207v16l208 271h20v-267h50l-6 -20h-44v-113h-21zM278 658l-180 -234h180v234z" />
    <glyph glyph-name="fivesevenths" unicode="&#xf50a;" horiz-adv-x="879" 
d="M234 0l355 691h23l-355 -691h-23zM626 0q29 103 64 189.5t91 190.5h-249v20h271v-18q-102 -185 -155 -382h-22zM97 382q7 -41 35.5 -62.5t75.5 -21.5q53 0 80.5 28.5t27.5 84.5q0 114 -105 114q-35 0 -63.5 -11.5t-45.5 -32.5h-19l17 210h212v-20h-194l-13 -163
q40 37 106 37q61 0 94 -34.5t33 -99.5q0 -64 -34 -98.5t-96 -34.5q-56 0 -90 27.5t-40 76.5h19z" />
    <glyph glyph-name="sixsevenths" unicode="&#xf50b;" horiz-adv-x="879" 
d="M237 0l355 691h23l-355 -691h-23zM626 0q29 103 64 189.5t91 190.5h-249v20h271v-18q-102 -185 -155 -382h-22zM315 614q-19 69 -91 69q-65 0 -96.5 -53t-31.5 -162q13 37 45.5 57t78.5 20q59 0 93 -35t34 -97q0 -61 -36.5 -98t-96.5 -37q-68 0 -103 49t-35 144
q0 114 37 173t110 59q44 0 73 -22.5t38 -62.5zM212 299q53 0 83 30.5t30 84.5q0 53 -27.5 82t-77.5 29q-54 0 -85.5 -28.5t-31.5 -76.5q0 -55 30 -88t79 -33z" />
    <glyph glyph-name="twoninths" unicode="&#xf50d;" horiz-adv-x="879" 
d="M269 0l355 691h23l-355 -691h-23zM569 81q18 -74 99 -74q44 0 70 22.5t38.5 70t12.5 122.5q-13 -37 -45.5 -57t-78.5 -20q-61 0 -94 36t-33 96q0 61 36.5 98t96.5 37q68 0 103 -49t35 -144q0 -119 -34 -175.5t-106 -56.5q-51 0 -82 24.5t-38 69.5h20zM782 270
q0 34 -13 62t-37 43.5t-59 15.5q-52 0 -82.5 -30.5t-30.5 -84.5q0 -52 27.5 -81.5t77.5 -29.5q53 0 85 28t32 77zM74 291v18l95 82q79 67 109.5 109.5t30.5 86.5q0 47 -26 71.5t-74 24.5q-90 0 -114 -86l-19 3q12 50 46 76.5t87 26.5q56 0 89 -30.5t33 -83.5
q0 -48 -31.5 -93t-115.5 -118l-77 -67h227l-6 -20h-254z" />
    <glyph glyph-name="fourninths" unicode="&#xf50e;" horiz-adv-x="879" 
d="M255 0l355 691h23l-355 -691h-23zM569 81q18 -74 99 -74q44 0 70 22.5t38.5 70t12.5 122.5q-13 -37 -45.5 -57t-78.5 -20q-61 0 -94 36t-33 96q0 61 36.5 98t96.5 37q68 0 103 -49t35 -144q0 -119 -34 -175.5t-106 -56.5q-51 0 -82 24.5t-38 69.5h20zM782 270
q0 34 -13 62t-37 43.5t-59 15.5q-52 0 -82.5 -30.5t-30.5 -84.5q0 -52 27.5 -81.5t77.5 -29.5q53 0 85 28t32 77zM278 291v113h-207v16l208 271h20v-267h50l-6 -20h-44v-113h-21zM278 658l-180 -234h180v234z" />
    <glyph glyph-name="fiveninths" unicode="&#xf50f;" horiz-adv-x="879" 
d="M254 0l355 691h23l-355 -691h-23zM569 81q18 -74 99 -74q44 0 70 22.5t38.5 70t12.5 122.5q-13 -37 -45.5 -57t-78.5 -20q-61 0 -94 36t-33 96q0 61 36.5 98t96.5 37q68 0 103 -49t35 -144q0 -119 -34 -175.5t-106 -56.5q-51 0 -82 24.5t-38 69.5h20zM782 270
q0 34 -13 62t-37 43.5t-59 15.5q-52 0 -82.5 -30.5t-30.5 -84.5q0 -52 27.5 -81.5t77.5 -29.5q53 0 85 28t32 77zM97 382q7 -41 35.5 -62.5t75.5 -21.5q53 0 80.5 28.5t27.5 84.5q0 114 -105 114q-35 0 -63.5 -11.5t-45.5 -32.5h-19l17 210h212v-20h-194l-13 -163
q40 37 106 37q61 0 94 -34.5t33 -99.5q0 -64 -34 -98.5t-96 -34.5q-56 0 -90 27.5t-40 76.5h19z" />
    <glyph glyph-name="sevenninths" unicode="&#xf510;" horiz-adv-x="879" 
d="M203 0l355 691h23l-355 -691h-23zM569 81q18 -74 99 -74q44 0 70 22.5t38.5 70t12.5 122.5q-13 -37 -45.5 -57t-78.5 -20q-61 0 -94 36t-33 96q0 61 36.5 98t96.5 37q68 0 103 -49t35 -144q0 -119 -34 -175.5t-106 -56.5q-51 0 -82 24.5t-38 69.5h20zM782 270
q0 34 -13 62t-37 43.5t-59 15.5q-52 0 -82.5 -30.5t-30.5 -84.5q0 -52 27.5 -81.5t77.5 -29.5q53 0 85 28t32 77zM154 291q29 103 64 189.5t91 190.5h-249v20h271v-18q-102 -185 -155 -382h-22z" />
    <glyph glyph-name="eightninths" unicode="&#xf511;" horiz-adv-x="879" 
d="M257 0l355 691h23l-355 -691h-23zM569 81q18 -74 99 -74q44 0 70 22.5t38.5 70t12.5 122.5q-13 -37 -45.5 -57t-78.5 -20q-61 0 -94 36t-33 96q0 61 36.5 98t96.5 37q68 0 103 -49t35 -144q0 -119 -34 -175.5t-106 -56.5q-51 0 -82 24.5t-38 69.5h20zM782 270
q0 34 -13 62t-37 43.5t-59 15.5q-52 0 -82.5 -30.5t-30.5 -84.5q0 -52 27.5 -81.5t77.5 -29.5q53 0 85 28t32 77zM256 494q42 -7 67 -35t25 -69q0 -53 -37.5 -82.5t-104.5 -29.5q-66 0 -103.5 30t-37.5 82q0 41 24.5 68.5t67.5 34.5q-36 9 -57 36t-21 65q0 50 35 80t93 30
t92.5 -29.5t34.5 -80.5q0 -37 -21 -64t-57 -36zM326 390q0 44 -32 68.5t-88 24.5t-87.5 -24.5t-31.5 -68.5q0 -43 31.5 -67.5t87.5 -24.5t88 24t32 68zM312 593q0 43 -28 67t-78 24q-49 0 -77 -24t-28 -67q0 -41 28.5 -65.5t76.5 -24.5q49 0 77.5 24.5t28.5 65.5z" />
    <glyph glyph-name="zero.numr" unicode="&#xf80a;" 
d="M206 402q-77 0 -118.5 55.5t-41.5 157.5t41.5 157.5t118.5 55.5t118.5 -55.5t41.5 -157.5t-41.5 -157.5t-118.5 -55.5zM206 422q66 0 102 50t36 143q0 92 -36 142.5t-102 50.5q-67 0 -102.5 -50t-35.5 -143t35.5 -143t102.5 -50z" />
    <glyph glyph-name="one.numr" unicode="&#xf80b;" 
d="M213 415v378l-113 -58l-9 17l122 63h21v-400h-21z" />
    <glyph glyph-name="two.numr" unicode="&#xf80c;" 
d="M75 415v18l95 82q79 67 109.5 109.5t30.5 86.5q0 47 -26 71.5t-74 24.5q-90 0 -114 -86l-19 3q12 50 46 76.5t87 26.5q56 0 89 -30.5t33 -83.5q0 -48 -31.5 -93t-115.5 -118l-77 -67h227l-6 -20h-254z" />
    <glyph glyph-name="three.numr" unicode="&#xf80d;" 
d="M157 615v19h59q40 0 63 23t23 65q0 86 -99 86q-46 0 -73.5 -20t-39.5 -62l-19 3q10 48 44 73.5t88 25.5q58 0 89.5 -27.5t31.5 -77.5q0 -35 -17 -61t-48 -36q34 -8 53.5 -37.5t19.5 -70.5q0 -55 -34.5 -85.5t-96.5 -30.5t-99.5 31t-38.5 82h19q4 -45 35 -69t84 -24
t81 24.5t28 71.5q0 44 -24 70.5t-64 26.5h-65z" />
    <glyph glyph-name="four.numr" unicode="&#xf80e;" 
d="M266 415v113h-207v16l208 271h20v-267h50l-6 -20h-44v-113h-21zM266 782l-180 -234h180v234z" />
    <glyph glyph-name="five.numr" unicode="&#xf80f;" 
d="M98 506q7 -41 35.5 -62.5t75.5 -21.5q53 0 80.5 28.5t27.5 84.5q0 114 -105 114q-35 0 -63.5 -11.5t-45.5 -32.5h-19l17 210h212v-20h-194l-13 -163q40 37 106 37q61 0 94 -34.5t33 -99.5q0 -64 -34 -98.5t-96 -34.5q-56 0 -90 27.5t-40 76.5h19z" />
    <glyph glyph-name="six.numr" unicode="&#xf810;" 
d="M317 738q-19 69 -91 69q-65 0 -96.5 -53t-31.5 -162q13 37 45.5 57t78.5 20q59 0 93 -35t34 -97q0 -61 -36.5 -98t-96.5 -37q-68 0 -103 49t-35 144q0 114 37 173t110 59q44 0 73 -22.5t38 -62.5zM214 423q53 0 83 30.5t30 84.5q0 53 -27.5 82t-77.5 29
q-54 0 -85.5 -28.5t-31.5 -76.5q0 -55 30 -88t79 -33z" />
    <glyph glyph-name="seven.numr" unicode="&#xf811;" 
d="M162 415q29 103 64 189.5t91 190.5h-249v20h271v-18q-102 -185 -155 -382h-22z" />
    <glyph glyph-name="eight.numr" unicode="&#xf812;" 
d="M256 618q42 -7 67 -35t25 -69q0 -53 -37.5 -82.5t-104.5 -29.5q-66 0 -103.5 30t-37.5 82q0 41 24.5 68.5t67.5 34.5q-36 9 -57 36t-21 65q0 50 35 80t93 30t92.5 -29.5t34.5 -80.5q0 -37 -21 -64t-57 -36zM326 514q0 44 -32 68.5t-88 24.5t-87.5 -24.5t-31.5 -68.5
q0 -43 31.5 -67.5t87.5 -24.5t88 24t32 68zM312 717q0 43 -28 67t-78 24q-49 0 -77 -24t-28 -67q0 -41 28.5 -65.5t76.5 -24.5q49 0 77.5 24.5t28.5 65.5z" />
    <glyph glyph-name="nine.numr" unicode="&#xf813;" 
d="M94 496q18 -74 99 -74q44 0 70 22.5t38.5 70t12.5 122.5q-13 -37 -45.5 -57t-78.5 -20q-61 0 -94 36t-33 96q0 61 36.5 98t96.5 37q68 0 103 -49t35 -144q0 -119 -34 -175.5t-106 -56.5q-51 0 -82 24.5t-38 69.5h20zM307 685q0 34 -13 62t-37 43.5t-59 15.5
q-52 0 -82.5 -30.5t-30.5 -84.5q0 -52 27.5 -81.5t77.5 -29.5q53 0 85 28t32 77z" />
    <glyph glyph-name="zero.dnom" unicode="&#xf814;" 
d="M206 -134q-77 0 -118.5 55.5t-41.5 157.5t41.5 157.5t118.5 55.5t118.5 -55.5t41.5 -157.5t-41.5 -157.5t-118.5 -55.5zM206 -114q66 0 102 50t36 143q0 92 -36 142.5t-102 50.5q-67 0 -102.5 -50t-35.5 -143t35.5 -143t102.5 -50z" />
    <glyph glyph-name="one.dnom" unicode="&#xf815;" 
d="M213 -121v378l-113 -58l-9 17l122 63h21v-400h-21z" />
    <glyph glyph-name="two.dnom" unicode="&#xf816;" 
d="M75 -121v18l95 82q79 67 109.5 109.5t30.5 86.5q0 47 -26 71.5t-74 24.5q-90 0 -114 -86l-19 3q12 50 46 76.5t87 26.5q56 0 89 -30.5t33 -83.5q0 -48 -31.5 -93t-115.5 -118l-77 -67h227l-6 -20h-254z" />
    <glyph glyph-name="three.dnom" unicode="&#xf817;" 
d="M157 79v19h59q40 0 63 23t23 65q0 86 -99 86q-46 0 -73.5 -20t-39.5 -62l-19 3q10 48 44 73.5t88 25.5q58 0 89.5 -27.5t31.5 -77.5q0 -35 -17 -61t-48 -36q34 -8 53.5 -37.5t19.5 -70.5q0 -55 -34.5 -85.5t-96.5 -30.5t-99.5 31t-38.5 82h19q4 -45 35 -69t84 -24
t81 24.5t28 71.5q0 44 -24 70.5t-64 26.5h-65z" />
    <glyph glyph-name="four.dnom" unicode="&#xf818;" 
d="M266 -121v113h-207v16l208 271h20v-267h50l-6 -20h-44v-113h-21zM266 246l-180 -234h180v234z" />
    <glyph glyph-name="five.dnom" unicode="&#xf819;" 
d="M98 -30q7 -41 35.5 -62.5t75.5 -21.5q53 0 80.5 28.5t27.5 84.5q0 114 -105 114q-35 0 -63.5 -11.5t-45.5 -32.5h-19l17 210h212v-20h-194l-13 -163q40 37 106 37q61 0 94 -34.5t33 -99.5q0 -64 -34 -98.5t-96 -34.5q-56 0 -90 27.5t-40 76.5h19z" />
    <glyph glyph-name="six.dnom" unicode="&#xf81a;" 
d="M317 202q-19 69 -91 69q-65 0 -96.5 -53t-31.5 -162q13 37 45.5 57t78.5 20q59 0 93 -35t34 -97q0 -61 -36.5 -98t-96.5 -37q-68 0 -103 49t-35 144q0 114 37 173t110 59q44 0 73 -22.5t38 -62.5zM214 -113q53 0 83 30.5t30 84.5q0 53 -27.5 82t-77.5 29
q-54 0 -85.5 -28.5t-31.5 -76.5q0 -55 30 -88t79 -33z" />
    <glyph glyph-name="seven.dnom" unicode="&#xf81b;" 
d="M162 -121q29 103 64 189.5t91 190.5h-249v20h271v-18q-102 -185 -155 -382h-22z" />
    <glyph glyph-name="eight.dnom" unicode="&#xf81c;" 
d="M256 82q42 -7 67 -35t25 -69q0 -53 -37.5 -82.5t-104.5 -29.5q-66 0 -103.5 30t-37.5 82q0 41 24.5 68.5t67.5 34.5q-36 9 -57 36t-21 65q0 50 35 80t93 30t92.5 -29.5t34.5 -80.5q0 -37 -21 -64t-57 -36zM326 -22q0 44 -32 68.5t-88 24.5t-87.5 -24.5t-31.5 -68.5
q0 -43 31.5 -67.5t87.5 -24.5t88 24t32 68zM312 181q0 43 -28 67t-78 24q-49 0 -77 -24t-28 -67q0 -41 28.5 -65.5t76.5 -24.5q49 0 77.5 24.5t28.5 65.5z" />
    <glyph glyph-name="nine.dnom" unicode="&#xf81d;" 
d="M94 -40q18 -74 99 -74q44 0 70 22.5t38.5 70t12.5 122.5q-13 -37 -45.5 -57t-78.5 -20q-61 0 -94 36t-33 96q0 61 36.5 98t96.5 37q68 0 103 -49t35 -144q0 -119 -34 -175.5t-106 -56.5q-51 0 -82 24.5t-38 69.5h20zM307 149q0 34 -13 62t-37 43.5t-59 15.5
q-52 0 -82.5 -30.5t-30.5 -84.5q0 -52 27.5 -81.5t77.5 -29.5q53 0 85 28t32 77z" />
    <glyph glyph-name="fi" unicode="&#xfb01;" horiz-adv-x="482" 
d="M101 0v491h-79v20h79v64q0 68 37.5 107.5t102.5 39.5q36 0 66 -11l-5 -19q-34 10 -61 10q-58 0 -88.5 -32.5t-30.5 -93.5v-65h159v-20h-159v-491h-21zM387 0v511h21v-511h-21zM387 622v92h21v-92h-21z" />
    <glyph glyph-name="fl" unicode="&#xfb02;" horiz-adv-x="486" 
d="M101 0v491h-79v20h79v64q0 68 37.5 107.5t102.5 39.5q36 0 66 -11l-5 -19q-34 10 -61 10q-58 0 -88.5 -32.5t-30.5 -93.5v-65h159v-20h-159v-491h-21zM391 0v714h21v-714h-21z" />
    <glyph glyph-name="uniFEFF" unicode="&#xfeff;" horiz-adv-x="0" 
 />
    <glyph glyph-name="zero.pnum" horiz-adv-x="604" 
d="M302 -18q-118 0 -180 93.5t-62 270.5q0 175 62 269.5t180 94.5t180 -93.5t62 -269.5q0 -177 -62.5 -271t-179.5 -94zM302 3q107 0 163 87.5t56 255.5q0 169 -55.5 256t-163.5 87q-107 0 -163 -87.5t-56 -255.5q0 -169 55.5 -256t163.5 -87z" />
    <glyph glyph-name="one.pnum" horiz-adv-x="401" 
d="M239 0v668l-188 -108l-10 18l198 113h22v-691h-22z" />
    <glyph glyph-name="two.pnum" horiz-adv-x="536" 
d="M50 0v21l153 141q101 93 151.5 151.5t70.5 104.5t20 95q0 82 -47 129t-130 47q-154 0 -195 -161l-20 5q20 85 76 131t139 46q92 0 146 -53t54 -143q0 -56 -23.5 -105.5t-76 -109.5t-149.5 -150l-138 -128h392l-7 -21h-416z" />
    <glyph glyph-name="three.pnum" horiz-adv-x="552" 
d="M207 352v21h93q71 0 113 43t42 117q0 75 -45 115.5t-130 40.5q-82 0 -131.5 -38t-68.5 -116l-20 5q17 81 74.5 125.5t146.5 44.5q93 0 145 -46.5t52 -130.5q0 -63 -30.5 -107t-86.5 -63q63 -14 97.5 -61t34.5 -121q0 -95 -56 -147t-157 -52q-65 0 -116 23t-80.5 67
t-31.5 103h20q8 -82 62 -127t145 -45q93 0 142 46t49 132q0 82 -44.5 126.5t-125.5 44.5h-93z" />
    <glyph glyph-name="four.pnum" horiz-adv-x="560" 
d="M395 0v196h-354v21l351 474h25v-474h104l-7 -21h-97v-196h-22zM395 662l-330 -445h330v445z" />
    <glyph glyph-name="five.pnum" horiz-adv-x="540" 
d="M76 163q11 -79 60.5 -119.5t134.5 -40.5q95 0 142 51t47 154q0 205 -184 205q-115 0 -183 -76h-22l27 354h347v-21h-328l-24 -307q74 71 186 71q100 0 152 -58t52 -168q0 -111 -53.5 -168.5t-157.5 -57.5q-95 0 -151.5 47t-64.5 134h20z" />
    <glyph glyph-name="six.pnum" horiz-adv-x="564" 
d="M466 558q-20 70 -58 100.5t-104 30.5q-110 0 -166 -91t-56 -272v-49q14 71 72.5 114.5t139.5 43.5q102 0 159 -58.5t57 -162.5q0 -106 -60 -169t-160 -63q-229 0 -229 344q0 189 62 286.5t181 97.5q74 0 120 -37.5t62 -109.5zM290 3q92 0 144.5 57t52.5 156
q0 94 -50.5 146t-143.5 52q-88 0 -143.5 -52.5t-55.5 -135.5q0 -101 53.5 -162t142.5 -61z" />
    <glyph glyph-name="seven.pnum" horiz-adv-x="529" 
d="M180 0q54 188 119 348.5t153 321.5h-427v21h449v-21q-177 -325 -272 -670h-22z" />
    <glyph glyph-name="eight.pnum" horiz-adv-x="588" 
d="M370 352q77 -12 123 -60.5t46 -118.5q0 -89 -65 -140t-179 -51q-115 0 -179.5 51t-64.5 140q0 70 45.5 118t124.5 60q-67 15 -106.5 61.5t-39.5 110.5q0 86 60 136.5t161 50.5t160 -50.5t59 -135.5q0 -63 -39.5 -110t-105.5 -62zM516 173q0 79 -58.5 123.5t-162.5 44.5
t-162.5 -44.5t-58.5 -123.5q0 -80 59 -125t162 -45t162 45t59 125zM492 525q0 75 -53.5 119.5t-143.5 44.5t-143.5 -44.5t-53.5 -119.5t53.5 -119.5t143.5 -44.5t143.5 44.5t53.5 119.5z" />
    <glyph glyph-name="nine.pnum" horiz-adv-x="564" 
d="M99 140q11 -65 55.5 -101t117.5 -36q112 0 162 85.5t50 277.5v49q-14 -71 -72.5 -114.5t-140.5 -43.5q-101 0 -158 58.5t-57 162.5q0 106 60 169t160 63q229 0 229 -344q0 -198 -55.5 -291t-174.5 -93q-85 0 -137 42t-60 116h21zM273 278q88 0 143.5 52.5t55.5 135.5
q0 102 -53.5 162.5t-143.5 60.5q-91 0 -143.5 -57t-52.5 -156q0 -94 50.5 -146t143.5 -52z" />
    <glyph glyph-name="hyphen.case" horiz-adv-x="387" 
d="M50 348v20h287v-20h-287z" />
    <glyph glyph-name="endash.case" horiz-adv-x="500" 
d="M0 348v20h500v-20h-500z" />
    <glyph glyph-name="emdash.case" horiz-adv-x="1000" 
d="M0 348v20h1000v-20h-1000z" />
    <glyph glyph-name="parenleft.case" horiz-adv-x="216" 
d="M175 -71q-110 184 -110 429t110 429h21q-55 -100 -82 -205t-27 -224t27 -224t82 -205h-21z" />
    <glyph glyph-name="parenright.case" horiz-adv-x="216" 
d="M20 -71q55 100 82 205t27 224t-27 224t-82 205h21q110 -184 110 -429t-110 -429h-21z" />
    <glyph glyph-name="slash.case" horiz-adv-x="275" 
d="M15 -9l224 734h21l-224 -734h-21z" />
    <glyph glyph-name="backslash.case" horiz-adv-x="275" 
d="M239 -9l-224 734h21l224 -734h-21z" />
    <glyph glyph-name="bracketleft.case" horiz-adv-x="253" 
d="M80 -71v858h158v-20h-137v-818h137v-20h-158z" />
    <glyph glyph-name="bracketright.case" horiz-adv-x="253" 
d="M15 -71v20h137v818h-137v20h158v-858h-158z" />
    <glyph glyph-name="braceleft.case" horiz-adv-x="259" 
d="M185 -72q-39 0 -60 23t-21 66v260q0 70 -69 70h-5v20h5q69 0 69 70v260q0 43 21 66t60 23h59v-20h-62q-27 0 -42 -17.5t-15 -48.5v-261q0 -33 -13 -54t-37 -28q24 -7 37 -28t13 -54v-261q0 -31 15 -48.5t42 -17.5h62v-20h-59z" />
    <glyph glyph-name="braceright.case" horiz-adv-x="259" 
d="M15 -72v20h62q27 0 42 17.5t15 48.5v261q0 33 13 54t37 28q-24 7 -37 28t-13 54v261q0 31 -15 48.5t-42 17.5h-62v20h59q39 0 60 -23t21 -66v-260q0 -70 69 -70h5v-20h-5q-69 0 -69 -70v-260q0 -43 -21 -66t-60 -23h-59z" />
    <glyph glyph-name="bullet.case" horiz-adv-x="286" 
d="M241 357q0 -41 -27.5 -68.5t-70.5 -27.5t-70.5 27.5t-27.5 68.5t27.5 68.5t70.5 27.5t70.5 -27.5t27.5 -68.5z" />
    <glyph glyph-name="guilsinglleft.case" horiz-adv-x="260" 
d="M187 135l-147 222l147 222h23l-146 -221l146 -223h-23z" />
    <glyph glyph-name="guilsinglright.case" horiz-adv-x="260" 
d="M50 135l146 221l-146 223h23l147 -222l-147 -222h-23z" />
    <glyph glyph-name="guillemotleft.case" horiz-adv-x="433" 
d="M187 135l-147 222l147 222h23l-146 -221l146 -223h-23zM360 135l-147 222l147 222h23l-146 -221l146 -223h-23z" />
    <glyph glyph-name="guillemotright.case" horiz-adv-x="433" 
d="M50 135l146 221l-146 223h23l147 -222l-147 -222h-23zM223 135l146 221l-146 223h23l147 -222l-147 -222h-23z" />
    <glyph glyph-name="at.case" horiz-adv-x="901" 
d="M749 65q-47 -74 -119.5 -109t-177.5 -35q-191 0 -296.5 101t-105.5 285q0 137 52 247t149 174t224 64q112 0 198 -45t134.5 -130t48.5 -200q0 -130 -53 -210t-138 -80q-43 0 -68 22t-25 60q0 14 1 19q-53 -107 -168 -107q-78 0 -121 48t-43 135q0 73 28.5 135t79.5 100
t114 38q58 0 97.5 -31.5t51.5 -87.5l19 107h21l-59 -333q-1 -7 -1.5 -11t-0.5 -8q0 -31 20 -48.5t55 -17.5q48 0 86 32.5t60 94t22 142.5q0 107 -42.5 187t-124 124.5t-193.5 44.5q-115 0 -206 -57t-143.5 -163t-52.5 -246q0 -176 98.5 -270.5t281.5 -94.5q96 0 161 29.5
t114 94.5h22zM598 380q3 20 3 34q0 63 -38.5 103.5t-98.5 40.5q-54 0 -99.5 -32t-73.5 -90.5t-28 -131.5q0 -79 36 -121.5t105 -42.5q75 0 123 51t64 146z" />
    <glyph glyph-name="periodcentered.case" horiz-adv-x="162" 
d="M70 308v97h22v-97h-22z" />
    <glyph glyph-name="questiondown.case" horiz-adv-x="489" 
d="M454 164q-17 -87 -67.5 -130.5t-133.5 -43.5q-90 0 -143.5 50.5t-53.5 135.5q0 96 82 172q61 58 81.5 94.5t20.5 87.5v8h22v-5q0 -41 -9 -68.5t-31.5 -56.5t-66.5 -73q-42 -42 -59.5 -78.5t-17.5 -80.5q0 -76 47 -120.5t128 -44.5q75 0 118.5 38t62.5 119zM240 617v97h22
v-97h-22z" />
    <glyph glyph-name="exclamdown.case" horiz-adv-x="192" 
d="M85 0l1 536h20l1 -536h-22zM85 617v97h22v-97h-22z" />
    <glyph glyph-name="periodcentered.loclCAT" horiz-adv-x="162" 
d="M70 325v97h22v-97h-22z" />
    <glyph glyph-name="periodcentered.loclCAT.cap" horiz-adv-x="162" 
d="M70 345v97h22v-97h-22z" />
    <glyph glyph-name="i.locl" horiz-adv-x="169" 
d="M74 0v511h21v-511h-21zM74 622v92h21v-92h-21z" />
    <glyph glyph-name="Eng.locl" horiz-adv-x="674" 
d="M566 492q0 219 -197 219q-63 0 -113.5 -20.5t-91.5 -62.5q-28 -28 -38.5 -47t-14 -43t-3.5 -70v-468h-22v714h22v-122q44 66 112.5 103t148.5 37q109 0 164 -60.5t55 -179.5v-492q0 -101 -52 -153t-153 -52q-39 0 -77.5 7t-65.5 20l8 20q28 -12 64 -19t71 -7
q90 0 136.5 46.5t46.5 137.5v492z" />
    <glyph glyph-name="uni0327.cap" horiz-adv-x="0" 
d="M-69 -171q27 -5 58 -5q45 0 64.5 10t19.5 34q0 25 -22.5 35.5t-75.5 10.5h-15l31 89l19 -3l-23 -67q56 -1 82 -16.5t26 -48.5t-25.5 -49t-79.5 -16q-34 0 -59 5v21z" />
    <glyph glyph-name="uni0326.cap" horiz-adv-x="0" 
d="M-83 -207l71 133h24l-74 -133h-21z" />
    <glyph glyph-name="uni0328.cap" horiz-adv-x="0" 
d="M26 -166q-14 -2 -26 -2q-38 0 -57.5 17t-19.5 49q0 56 67 108l21 -6q-67 -51 -67 -99q0 -49 55 -49q13 0 27 2v-20z" />
    <glyph glyph-name="uni0328.round" horiz-adv-x="0" 
d="M27 -161q-14 -2 -25 -2q-37 0 -56.5 16.5t-19.5 47.5q0 28 16 53.5t49 51.5l20 -6q-65 -49 -65 -96q0 -48 55 -48q14 0 26 2v-19z" />
    <glyph glyph-name="uni0328.round.cap" horiz-adv-x="0" 
d="M26 -166q-14 -2 -26 -2q-38 0 -57.5 17t-19.5 49q0 56 67 108l21 -6q-67 -51 -67 -99q0 -49 55 -49q13 0 27 2v-20z" />
    <glyph glyph-name="iogonek.dotless" horiz-adv-x="169" 
d="M74 0v511h21v-511h-21zM111 -161q-14 -2 -25 -2q-37 0 -56.5 16.5t-19.5 47.5q0 28 16 53.5t49 51.5l20 -6q-65 -49 -65 -96q0 -48 55 -48q14 0 26 2v-19z" />
    <glyph glyph-name="acutecomb.cap" horiz-adv-x="0" 
d="M-43 774l113 123h28l-116 -123h-25z" />
    <glyph glyph-name="uni030B.cap" horiz-adv-x="0" 
d="M-81 774l102 123h26l-105 -123h-23zM57 774l102 123h26l-105 -123h-23z" />
    <glyph glyph-name="gravecomb.cap" horiz-adv-x="0" 
d="M18 774l-116 123h28l113 -123h-25z" />
    <glyph glyph-name="uni0302.cap" horiz-adv-x="0" 
d="M96 774l-96 105l-96 -105h-25l110 123h22l110 -123h-25z" />
    <glyph glyph-name="tildecomb.cap" horiz-adv-x="0" 
d="M158 865q0 -38 -23 -61.5t-59 -23.5q-34 0 -75 30q-30 23 -45.5 30t-33.5 7q-26 0 -41.5 -17t-16.5 -48h-21q0 38 22.5 61.5t58.5 23.5q18 0 36 -7t40 -24q26 -20 43 -28t34 -8q27 0 43 17t17 48h21z" />
    <glyph glyph-name="uni030C.cap" horiz-adv-x="0" 
d="M-11 774l-110 123h25l96 -105l96 105h25l-110 -123h-22z" />
    <glyph glyph-name="uni0315.short" horiz-adv-x="0" 
d="M-9 593l22 131h20l-24 -131h-18z" />
    <glyph glyph-name="uni0304.cap" horiz-adv-x="0" 
d="M-134 798v20h268v-20h-268z" />
    <glyph glyph-name="uni0308.cap" horiz-adv-x="0" 
d="M-90 790v92h22v-92h-22zM69 790v92h22v-92h-22z" />
    <glyph glyph-name="uni0306.cap" horiz-adv-x="0" 
d="M112 882q0 -51 -29.5 -79.5t-82.5 -28.5q-52 0 -81.5 28.5t-29.5 79.5h21q0 -42 23.5 -65t66.5 -23q44 0 67.5 22.5t23.5 65.5h21z" />
    <glyph glyph-name="uni0307.cap" horiz-adv-x="0" 
d="M-11 790v92h22v-92h-22z" />
    <glyph glyph-name="uni030A.cap" horiz-adv-x="0" 
d="M83 820q0 -39 -22.5 -62t-60.5 -23t-60.5 23t-22.5 62t22.5 62t60.5 23t60.5 -23t22.5 -62zM62 820q0 30 -16.5 47.5t-45.5 17.5t-45.5 -17t-16.5 -48q0 -30 16.5 -47.5t45.5 -17.5t45.5 17t16.5 48z" />
    </font>
</defs>
</svg>
