<?xml version="1.0" standalone="no"?>
<!DOCTYPE svg PUBLIC "-//W3C//DTD SVG 1.1//EN" "http://www.w3.org/Graphics/SVG/1.1/DTD/svg11.dtd" >
<svg xmlns="http://www.w3.org/2000/svg" xmlns:xlink="http://www.w3.org/1999/xlink" version="1.1">
<metadata>
Created by FontForge 20170731 at Thu Jul  2 18:18:09 2015
 By Aleksey,,,
Copyright 2015 Dalton Maag Ltd. All rights reserved. This font may not be altered in any way without prior permission of Dalton Maag Ltd.
</metadata>
<defs>
<font id="AktivGrotesk-XBold" horiz-adv-x="412" >
  <font-face 
    font-family="Aktiv Grotesk XBold"
    font-weight="800"
    font-stretch="normal"
    units-per-em="1000"
    panose-1="2 11 8 4 2 2 2 2 2 4"
    ascent="714"
    descent="-286"
    x-height="525"
    cap-height="714"
    bbox="-219 -236 1387 994"
    underline-thickness="68"
    underline-position="-201"
    unicode-range="U+0008-FEFF"
  />
<missing-glyph horiz-adv-x="500" 
d="M50 0v750h400v-750h-400zM400 700h-300v-650h300v650z" />
    <glyph glyph-name="f_i" unicode="fi" horiz-adv-x="712" 
d="M99 0v364h-84v141h84v16q0 95 55 148t153 53q62 0 120 -18l-23 -128q-37 8 -61 8q-63 0 -63 -61v-18h114v-141h-114v-364h-181zM476 0v525h181v-525h-181zM475 583v131h183v-131h-183z" />
    <glyph glyph-name="f_l" unicode="fl" horiz-adv-x="714" 
d="M99 0v364h-84v141h84v16q0 95 55 148t153 53q62 0 120 -18l-23 -128q-37 8 -61 8q-63 0 -63 -61v-18h114v-141h-114v-364h-181zM478 0v714h181v-714h-181z" />
    <glyph glyph-name="f_f" unicode="ff" horiz-adv-x="838" 
d="M99 0v364h-84v141h84v16q0 95 55 148t153 53q62 0 120 -18l-23 -128q-37 8 -61 8q-63 0 -63 -61v-18h114v-141h-114v-364h-181zM525 0v364h-84v141h84v16q0 95 55 148t153 53q62 0 120 -18l-23 -128q-37 8 -61 8q-63 0 -63 -61v-18h114v-141h-114v-364h-181z" />
    <glyph glyph-name="f_f_i" unicode="ffi" horiz-adv-x="1137" 
d="M99 0v364h-84v141h84v16q0 95 55 148t153 53q62 0 120 -18l-23 -128q-37 8 -61 8q-63 0 -63 -61v-18h114v-141h-114v-364h-181zM901 0v525h181v-525h-181zM900 583v131h183v-131h-183zM525 0v364h-84v141h84v16q0 95 55 148t153 53q62 0 120 -18l-23 -128q-37 8 -61 8
q-63 0 -63 -61v-18h114v-141h-114v-364h-181z" />
    <glyph glyph-name="f_f_l" unicode="ffl" horiz-adv-x="1134" 
d="M99 0v364h-84v141h84v16q0 95 55 148t153 53q62 0 120 -18l-23 -128q-37 8 -61 8q-63 0 -63 -61v-18h114v-141h-114v-364h-181zM525 0v364h-84v141h84v16q0 95 55 148t153 53q62 0 120 -18l-23 -128q-37 8 -61 8q-63 0 -63 -61v-18h114v-141h-114v-364h-181zM898 0v714
h181v-714h-181z" />
    <glyph glyph-name=".notdef" horiz-adv-x="500" 
d="M50 0v750h400v-750h-400zM400 700h-300v-650h300v650z" />
    <glyph glyph-name=".null" horiz-adv-x="0" 
 />
    <glyph glyph-name=".null" horiz-adv-x="0" 
 />
    <glyph glyph-name=".null" horiz-adv-x="0" 
 />
    <glyph glyph-name="nonmarkingreturn" unicode="&#x9;" horiz-adv-x="215" 
 />
    <glyph glyph-name="nonmarkingreturn" unicode="&#xd;" horiz-adv-x="215" 
 />
    <glyph glyph-name="space" unicode=" " horiz-adv-x="215" 
 />
    <glyph glyph-name="exclam" unicode="!" horiz-adv-x="307" 
d="M73 229l-18 485h197l-18 -485h-161zM69 0v173h169v-173h-169z" />
    <glyph glyph-name="quotedbl" unicode="&#x22;" horiz-adv-x="455" 
d="M39 428l-7 286h167l-7 -286h-153zM263 428l-7 286h167l-7 -286h-153z" />
    <glyph glyph-name="numbersign" unicode="#" horiz-adv-x="592" 
d="M286 0l24 150h-85l-24 -150h-143l24 150h-65v128h86l20 125h-74v128h95l24 147h143l-24 -147h85l24 147h143l-24 -147h54v-128h-75l-20 -125h63v-128h-84l-24 -150h-143zM351 403h-85l-20 -125h85z" />
    <glyph glyph-name="dollar" unicode="$" horiz-adv-x="592" 
d="M259 -124v107q-115 8 -177 71t-66 176h171q3 -46 20.5 -72.5t51.5 -35.5v156q-122 24 -177.5 75t-55.5 139q0 96 60.5 151.5t172.5 62.5v99h60v-99q211 -14 232 -213l-167 -17q-6 41 -21.5 63.5t-43.5 30.5v-142l39 -8q104 -22 155 -75t51 -139q0 -102 -63.5 -160
t-181.5 -63v-107h-60zM319 118q35 3 53.5 22t18.5 50q0 61 -72 76v-148zM259 573q-66 -7 -66 -65q0 -25 16 -41t50 -26v132z" />
    <glyph glyph-name="percent" unicode="%" horiz-adv-x="1000" 
d="M253 0l323 691h168l-323 -691h-168zM781 -13q-90 0 -139.5 56.5t-49.5 159.5t49.5 159.5t139.5 56.5t139.5 -56.5t49.5 -159.5q0 -102 -50 -159t-139 -57zM781 106q26 0 37 23t11 75q0 53 -11 74.5t-37 21.5t-37 -21.5t-11 -74.5q0 -52 11 -75t37 -23zM219 276
q-90 0 -139.5 56.5t-49.5 159.5t49.5 159.5t139.5 56.5t139.5 -56.5t49.5 -159.5q0 -102 -50 -159t-139 -57zM219 395q26 0 37 23t11 75q0 53 -11 74.5t-37 21.5t-37 -21.5t-11 -74.5q0 -52 11 -75t37 -23z" />
    <glyph glyph-name="ampersand" unicode="&#x26;" horiz-adv-x="703" 
d="M519 0l-30 33q-86 -49 -198 -49q-123 0 -195 57t-72 154q0 129 142 202q-62 77 -62 148q0 51 26.5 91.5t75.5 64.5t113 24q91 0 146.5 -46.5t55.5 -122.5q0 -112 -137 -186l110 -125q19 51 19 122h151q0 -138 -69 -238l113 -129h-189zM249 303q-49 -37 -49 -90
q0 -44 31.5 -69.5t86.5 -25.5q49 0 81 16zM308 458q31 19 44.5 38.5t13.5 45.5t-13 41t-37 15t-39 -15.5t-15 -40.5q0 -18 10 -36.5t36 -47.5z" />
    <glyph glyph-name="quotesingle" unicode="'" horiz-adv-x="231" 
d="M39 428l-7 286h167l-7 -286h-153z" />
    <glyph glyph-name="parenleft" unicode="(" horiz-adv-x="343" 
d="M166 -124q-61 90 -93.5 200.5t-32.5 228.5t32.5 228.5t93.5 200.5h175q-57 -103 -84.5 -208t-27.5 -221t27.5 -221t84.5 -208h-175z" />
    <glyph glyph-name="parenright" unicode=")" horiz-adv-x="343" 
d="M2 -124q57 103 84.5 208t27.5 221t-27.5 221t-84.5 208h175q61 -90 93.5 -200.5t32.5 -228.5t-32.5 -228.5t-93.5 -200.5h-175z" />
    <glyph glyph-name="asterisk" unicode="*" horiz-adv-x="430" 
d="M276 317l-61 112l-60 -112l-115 85l96 92l-127 27l52 131l103 -62l-22 124h147l-22 -124l103 62l52 -131l-127 -27l96 -92z" />
    <glyph glyph-name="plus" unicode="+" horiz-adv-x="592" 
d="M214 85v177h-164v157h164v177h163v-177h164v-157h-164v-177h-163z" />
    <glyph glyph-name="comma" unicode="," horiz-adv-x="269" 
d="M24 -94l36 285h173l-71 -285h-138z" />
    <glyph glyph-name="hyphen" unicode="-" horiz-adv-x="410" 
d="M39 217v167h332v-167h-332z" />
    <glyph glyph-name="period" unicode="." horiz-adv-x="269" 
d="M48 0v191h174v-191h-174z" />
    <glyph glyph-name="slash" unicode="/" horiz-adv-x="428" 
d="M8 0l233 734h179l-233 -734h-179z" />
    <glyph glyph-name="zero" unicode="0" horiz-adv-x="592" 
d="M293 -18q-133 0 -197.5 89.5t-64.5 272.5q0 366 268 366q133 0 197.5 -89.5t64.5 -272.5q0 -366 -268 -366zM296 139q30 0 47 20.5t24 65.5t7 121q0 80 -8 124.5t-24.5 63.5t-45.5 19q-30 0 -47 -20.5t-24 -65.5t-7 -121q0 -80 8 -124.5t24.5 -63.5t45.5 -19z" />
    <glyph glyph-name="one" unicode="1" horiz-adv-x="592" 
d="M258 0v486l-112 -75l-84 131l227 149h153v-691h-184z" />
    <glyph glyph-name="two" unicode="2" horiz-adv-x="592" 
d="M45 0v136l165 138q89 75 120.5 118t31.5 89q0 36 -18 55.5t-53 19.5q-36 0 -57 -22t-28 -67l-174 17q15 110 84.5 168t184.5 58q116 0 180 -57t64 -160q0 -70 -34 -129t-116 -131l-94 -82h255l-16 -151h-495z" />
    <glyph glyph-name="three" unicode="3" horiz-adv-x="592" 
d="M232 281v147h64q67 0 67 65t-69 65q-36 0 -55 -19.5t-27 -63.5l-172 18q13 105 81.5 161t184.5 56q111 0 174.5 -51t63.5 -140q0 -53 -23.5 -92t-68.5 -60q109 -44 109 -168q0 -66 -31.5 -114.5t-91.5 -75.5t-143 -27q-128 0 -195.5 65t-67.5 189h178q3 -53 24 -78
t62 -25q38 0 58.5 19.5t20.5 56.5t-20.5 54.5t-63.5 17.5h-59z" />
    <glyph glyph-name="four" unicode="4" horiz-adv-x="592" 
d="M321 0v137h-299v134l293 420h178v-417h79l-16 -137h-63v-137h-172zM321 471l-138 -197h138v197z" />
    <glyph glyph-name="five" unicode="5" horiz-adv-x="592" 
d="M225 206q9 -74 74 -74q37 0 56.5 24t19.5 69q0 91 -79 91q-50 0 -80 -36h-156l36 411h416v-151h-274l-11 -113q42 30 114 30q100 0 156 -61.5t56 -170.5q0 -116 -66.5 -179.5t-187.5 -63.5q-116 0 -182 58.5t-72 165.5h180z" />
    <glyph glyph-name="six" unicode="6" horiz-adv-x="592" 
d="M385 500q-8 32 -25.5 47t-46.5 15q-47 0 -71 -39t-27 -123q53 47 135 47q98 0 154 -58.5t56 -160.5q0 -114 -69 -180t-188 -66q-131 0 -197 86.5t-66 258.5q0 183 74 283t210 100q97 0 156.5 -50t72.5 -143zM303 124q40 0 62.5 26.5t22.5 72.5q0 44 -21 67.5t-61 23.5
q-85 0 -85 -91q0 -47 21.5 -73t60.5 -26z" />
    <glyph glyph-name="seven" unicode="7" horiz-adv-x="592" 
d="M129 0q73 264 213 535h-302v156h502v-135q-140 -257 -220 -556h-193z" />
    <glyph glyph-name="eight" unicode="8" horiz-adv-x="592" 
d="M462 357q103 -49 103 -167q0 -100 -70.5 -154t-200.5 -54q-129 0 -198 53t-69 153q0 120 102 169q-41 23 -62.5 61.5t-21.5 90.5q0 95 66.5 148t186.5 53q118 0 183 -52t65 -146q0 -106 -84 -155zM392 206q0 79 -96 79t-96 -80q0 -81 96 -81t96 82zM379 494q0 76 -85 76
q-84 0 -84 -76q0 -73 84 -73q85 0 85 73z" />
    <glyph glyph-name="nine" unicode="9" horiz-adv-x="592" 
d="M210 189q9 -60 71 -60q49 0 72 39t23 123q-51 -48 -135 -48q-98 0 -154.5 59.5t-56.5 162.5q0 113 69 179t188 66q132 0 198 -88t66 -267q0 -184 -69 -278.5t-204 -94.5q-69 0 -120.5 24t-82 70.5t-35.5 112.5h170zM371 468q0 47 -21.5 73.5t-60.5 26.5q-40 0 -63 -26
t-23 -72q0 -45 21 -69t61 -24q41 0 63.5 23.5t22.5 67.5z" />
    <glyph glyph-name="colon" unicode=":" horiz-adv-x="269" 
d="M48 334v191h174v-191h-174zM48 0v191h174v-191h-174z" />
    <glyph glyph-name="semicolon" unicode=";" horiz-adv-x="269" 
d="M24 -94l36 285h173l-71 -285h-138zM48 334v191h174v-191h-174z" />
    <glyph glyph-name="less" unicode="&#x3c;" horiz-adv-x="592" 
d="M66 265v148l465 191v-162l-262 -101l262 -101v-166z" />
    <glyph glyph-name="equal" unicode="=" horiz-adv-x="592" 
d="M75 152v151h442v-151h-442zM75 380v151h442v-151h-442z" />
    <glyph glyph-name="greater" unicode="&#x3e;" horiz-adv-x="592" 
d="M61 74v162l262 101l-262 101v166l465 -191v-148z" />
    <glyph glyph-name="question" unicode="?" horiz-adv-x="538" 
d="M185 229v21q0 32 7.5 59t23.5 50t52 55q17 15 31.5 29t23 30.5t8.5 36.5q0 29 -18.5 45t-50.5 16q-70 0 -82 -79l-167 17q13 105 80 161t180 56q112 0 177 -50.5t65 -137.5q0 -44 -17.5 -80t-55.5 -74q-52 -52 -67.5 -71t-20 -33t-4.5 -38v-13h-165zM182 0v173h169v-173
h-169z" />
    <glyph glyph-name="at" unicode="@" horiz-adv-x="1018" 
d="M837 -49q-31 -54 -84.5 -94t-125 -62t-152.5 -22q-129 0 -226.5 52t-152 150.5t-54.5 232.5q0 140 64.5 254t183.5 181.5t271 67.5q122 0 216 -48t147.5 -138.5t53.5 -211.5q0 -91 -31 -162t-89 -111.5t-135 -40.5q-55 0 -91.5 20.5t-51.5 58.5q-54 -82 -142 -82
q-76 0 -119 53t-43 146q0 75 28 138.5t79 102.5t114 39q71 0 107 -55l8 45h151l-50 -296q-2 -14 -2 -20q0 -38 34 -38q44 0 74 57.5t30 142.5q0 137 -76 211.5t-216 74.5q-110 0 -196.5 -47.5t-136.5 -136t-50 -206.5q0 -150 81.5 -235t227.5 -85q60 0 106 15.5t84 48.5h164
zM569 258q3 21 3 35q0 59 -46 59q-38 0 -62 -40.5t-24 -106.5q0 -40 11.5 -58t37.5 -18q60 0 75 97z" />
    <glyph glyph-name="A" unicode="A" horiz-adv-x="744" 
d="M530 0l-41 137h-241l-40 -137h-193l248 714h218l248 -714h-199zM369 536l-74 -246h147z" />
    <glyph glyph-name="B" unicode="B" horiz-adv-x="672" 
d="M66 0v714h299q257 0 257 -185q0 -53 -21.5 -89.5t-66.5 -60.5q55 -27 81 -68t26 -100q0 -102 -70.5 -156.5t-202.5 -54.5h-302zM352 144q55 0 80 19.5t25 60.5q0 40 -23.5 58t-75.5 18h-111v-156h105zM351 440q46 0 66 15t20 50t-22 50t-74 15h-94v-130h104z" />
    <glyph glyph-name="C" unicode="C" horiz-adv-x="728" 
d="M703 261q-8 -131 -92 -205t-225 -74q-162 0 -251.5 97.5t-89.5 273.5q0 178 91.5 278.5t254.5 100.5q128 0 204 -63.5t97 -188.5l-191 -22q-12 58 -39.5 83.5t-76.5 25.5q-137 0 -137 -209q0 -211 139 -211q52 0 82 29t38 85h196z" />
    <glyph glyph-name="D" unicode="D" horiz-adv-x="753" 
d="M66 0v714h281q177 0 269 -89t92 -260q0 -176 -96.5 -270.5t-275.5 -94.5h-270zM339 162q170 0 170 197q0 98 -39.5 145.5t-120.5 47.5h-91v-390h81z" />
    <glyph glyph-name="E" unicode="E" horiz-adv-x="623" 
d="M66 0v714h511v-158h-324v-114h304v-158h-304v-126h345l-16 -158h-516z" />
    <glyph glyph-name="F" unicode="F" horiz-adv-x="593" 
d="M255 260v-260h-189v714h489v-160h-300v-134h283v-160h-283z" />
    <glyph glyph-name="G" unicode="G" horiz-adv-x="751" 
d="M524 253h-114v155h291v-325q-61 -49 -140.5 -75t-165.5 -26q-168 0 -259 96.5t-91 274.5q0 117 40.5 202t118.5 131t188 46q126 0 204.5 -61t96.5 -171l-192 -19q-11 46 -37.5 67.5t-73.5 21.5q-74 0 -110 -52.5t-36 -159.5q0 -112 40 -163t128 -51q63 0 112 26v83z" />
    <glyph glyph-name="H" unicode="H" horiz-adv-x="748" 
d="M490 0v282h-232v-282h-192v714h192v-259h232v259h192v-714h-192z" />
    <glyph glyph-name="I" unicode="I" horiz-adv-x="324" 
d="M66 0v714h192v-714h-192z" />
    <glyph glyph-name="J" unicode="J" horiz-adv-x="664" 
d="M413 714h192v-451q0 -136 -75 -208.5t-215 -72.5q-138 0 -211 72t-77 212h192q4 -63 26.5 -91t69.5 -28q98 0 98 114v453z" />
    <glyph glyph-name="K" unicode="K" horiz-adv-x="716" 
d="M500 0l-171 309l-71 -79v-230h-192v714h192v-259l217 259h209l-227 -270l253 -444h-210z" />
    <glyph glyph-name="L" unicode="L" horiz-adv-x="596" 
d="M66 0v714h192v-551h316l-17 -163h-491z" />
    <glyph glyph-name="M" unicode="M" horiz-adv-x="884" 
d="M637 0v393l-127 -393h-140l-127 395v-395h-177v714h223l153 -478l154 478h222v-714h-181z" />
    <glyph glyph-name="N" unicode="N" horiz-adv-x="739" 
d="M505 0l-257 409v-409h-182v714h168l257 -409v409h182v-714h-168z" />
    <glyph glyph-name="O" unicode="O" horiz-adv-x="793" 
d="M394 -18q-107 0 -185.5 43.5t-121 127t-42.5 201.5q0 178 94 278t260 100q107 0 185.5 -43.5t121 -127t42.5 -201.5q0 -178 -94 -278t-260 -100zM396 147q76 0 114.5 53t38.5 157q0 210 -152 210q-76 0 -114.5 -53t-38.5 -157t38.5 -157t113.5 -53z" />
    <glyph glyph-name="P" unicode="P" horiz-adv-x="654" 
d="M66 0v714h267q144 0 215 -59t71 -179q0 -244 -284 -244h-83v-232h-186zM334 385q56 0 81.5 21.5t25.5 68.5t-25 67t-83 20h-81v-177h82z" />
    <glyph glyph-name="Q" unicode="Q" horiz-adv-x="793" 
d="M634 -101l-90 110q-69 -27 -150 -27q-107 0 -185.5 43.5t-121 127t-42.5 201.5q0 178 94 278t260 100q107 0 185.5 -43.5t121 -127t42.5 -201.5q0 -171 -91 -273l83 -102zM353 246l106 86l74 -92q16 45 16 117q0 210 -152 210q-76 0 -114.5 -53t-38.5 -157t38.5 -157
t114.5 -53q26 0 34 2z" />
    <glyph glyph-name="R" unicode="R" horiz-adv-x="681" 
d="M470 0l-117 246h-104v-246h-183v714h282q140 0 212.5 -57.5t72.5 -168.5q0 -69 -27 -121t-79 -82l146 -285h-203zM343 395q55 0 80 21t25 66q0 43 -27.5 63.5t-83.5 20.5h-88v-171h94z" />
    <glyph glyph-name="S" unicode="S" horiz-adv-x="670" 
d="M274 290q-122 23 -177.5 75t-55.5 143q0 108 74.5 166t212.5 58q134 0 211 -56t88 -162l-186 -19q-10 45 -36.5 65t-77.5 20q-46 0 -71 -15.5t-25 -45.5q0 -25 19 -40t61 -23l97 -19q119 -23 175.5 -76.5t56.5 -144.5q0 -113 -78 -173.5t-223 -60.5q-146 0 -225 63.5
t-87 189.5h191q6 -51 37.5 -75t90.5 -24q50 0 76 17.5t26 51.5q0 28 -19.5 44t-59.5 23z" />
    <glyph glyph-name="T" unicode="T" horiz-adv-x="650" 
d="M229 0v551h-206v163h604v-163h-206v-551h-192z" />
    <glyph glyph-name="U" unicode="U" horiz-adv-x="718" 
d="M469 714h192v-418q0 -314 -304 -314q-300 0 -300 314v418h192v-425q0 -74 26 -108t84 -34t84 34t26 108v425z" />
    <glyph glyph-name="V" unicode="V" horiz-adv-x="728" 
d="M256 0l-241 714h206l145 -487l145 487h202l-241 -714h-216z" />
    <glyph glyph-name="W" unicode="W" horiz-adv-x="992" 
d="M600 0l-103 457l-101 -457h-190l-191 714h204l92 -466l100 461h177l102 -461l89 466h198l-185 -714h-192z" />
    <glyph glyph-name="X" unicode="X" horiz-adv-x="725" 
d="M501 0l-147 241l-139 -241h-207l235 375l-218 339h216l121 -208l121 208h206l-216 -346l244 -368h-216z" />
    <glyph glyph-name="Y" unicode="Y" horiz-adv-x="690" 
d="M250 0v277l-240 437h208l129 -273l131 273h202l-237 -437v-277h-193z" />
    <glyph glyph-name="Z" unicode="Z" horiz-adv-x="625" 
d="M32 0v138l322 418h-315v158h544v-138l-322 -418h342l-17 -158h-554z" />
    <glyph glyph-name="bracketleft" unicode="[" horiz-adv-x="382" 
d="M65 -124v858h296v-154h-114v-550h114v-154h-296z" />
    <glyph glyph-name="backslash" unicode="\" horiz-adv-x="428" 
d="M241 0l-233 734h179l233 -734h-179z" />
    <glyph glyph-name="bracketright" unicode="]" horiz-adv-x="382" 
d="M21 -124v154h114v550h-114v154h296v-858h-296z" />
    <glyph glyph-name="asciicircum" unicode="^" horiz-adv-x="592" 
d="M385 291l-91 220l-91 -220h-179l195 426h153l195 -426h-182z" />
    <glyph glyph-name="underscore" unicode="_" horiz-adv-x="500" 
d="M0 -175v52h500v-52h-500z" />
    <glyph glyph-name="grave" unicode="`" horiz-adv-x="610" 
d="M303 586l-161 165h202l125 -165h-166z" />
    <glyph glyph-name="a" unicode="a" horiz-adv-x="585" 
d="M366 0v57q-35 -37 -73 -54t-86 -17q-82 0 -129.5 42.5t-47.5 115.5q0 83 62 126.5t190 49.5l79 4v21q0 69 -67 69q-62 0 -71 -52l-163 13q27 166 242 166q119 0 176 -53t57 -162v-326h-169zM360 222l-58 -3q-51 -3 -74.5 -17.5t-23.5 -43.5q0 -48 59 -48q45 0 71 25.5
t26 68.5v18z" />
    <glyph glyph-name="b" unicode="b" horiz-adv-x="634" 
d="M55 0v714h181v-241q54 68 148 68q100 0 155 -71t55 -200q0 -87 -26 -151.5t-75.5 -99.5t-118.5 -35q-94 0 -143 70v-54h-176zM236 256q0 -68 21 -98t65 -30q89 0 89 134q0 133 -88 133q-43 0 -66 -33q-21 -30 -21 -91v-15z" />
    <glyph glyph-name="c" unicode="c" horiz-adv-x="577" 
d="M549 202q-10 -106 -73 -162t-173 -56q-126 0 -194.5 71.5t-68.5 202.5q0 134 71 208.5t197 74.5q102 0 163 -51t72 -145l-173 -17q-7 37 -23 53.5t-44 16.5q-80 0 -80 -136q0 -135 80 -135q31 0 49.5 19.5t21.5 55.5h175z" />
    <glyph glyph-name="d" unicode="d" horiz-adv-x="634" 
d="M403 0v59q-55 -75 -153 -75q-100 0 -155 71t-55 200q0 87 26 151.5t75.5 99.5t118.5 35q88 0 138 -62v235h181v-714h-176zM398 269q0 68 -21 98t-65 30q-89 0 -89 -134q0 -133 88 -133q44 0 66 33q21 30 21 91v15z" />
    <glyph glyph-name="e" unicode="e" horiz-adv-x="600" 
d="M556 169q-16 -92 -79 -138.5t-171 -46.5q-130 0 -198 69t-68 201q0 135 71 211t197 76q119 0 185.5 -69.5t66.5 -194.5v-57h-346q4 -56 25 -81t65 -25q68 0 83 55h169zM393 323q-2 47 -22.5 68.5t-62.5 21.5q-84 0 -94 -90h179z" />
    <glyph glyph-name="f" unicode="f" 
d="M99 0v364h-84v141h84v16q0 95 55 148t153 53q62 0 120 -18l-23 -128q-37 8 -61 8q-63 0 -63 -61v-18h114v-141h-114v-364h-181z" />
    <glyph glyph-name="g" unicode="g" horiz-adv-x="634" 
d="M398 84q-54 -63 -148 -63q-100 0 -155 66t-55 186q0 124 59 196t161 72q94 0 143 -66v51h176v-461q0 -137 -66 -203.5t-203 -66.5q-232 0 -249 185h177q7 -54 74 -54q49 0 67.5 29.5t18.5 106.5v22zM398 287q0 54 -21 81q-23 29 -66 29q-42 0 -65 -30t-23 -85t22.5 -84.5
t64.5 -29.5q41 0 67 31q21 26 21 75v13z" />
    <glyph glyph-name="h" unicode="h" horiz-adv-x="610" 
d="M379 0v322q0 37 -14 53.5t-45 16.5q-36 0 -60 -23q-24 -24 -24 -65v-304h-181v714h181v-245q59 72 154 72q83 0 126.5 -49t43.5 -141v-351h-181z" />
    <glyph glyph-name="i" unicode="i" horiz-adv-x="291" 
d="M55 0v525h181v-525h-181zM54 583v131h183v-131h-183z" />
    <glyph glyph-name="j" unicode="j" horiz-adv-x="296" 
d="M60 525h181v-515q0 -96 -47 -145t-139 -49q-61 0 -125 18l24 130q32 -7 52 -7q28 0 41 14.5t13 45.5v508zM59 583v131h183v-131h-183z" />
    <glyph glyph-name="k" unicode="k" horiz-adv-x="618" 
d="M424 0l-132 240l-60 -55v-185h-177v714h177v-349l165 160h203l-185 -177l200 -348h-191z" />
    <glyph glyph-name="l" unicode="l" horiz-adv-x="291" 
d="M55 0v714h181v-714h-181z" />
    <glyph glyph-name="m" unicode="m" horiz-adv-x="890" 
d="M659 0v333q0 31 -11.5 45t-38.5 14q-32 0 -51 -19q-20 -20 -20 -55v-318h-181v333q0 31 -11.5 45t-38.5 14q-32 0 -51 -19q-20 -20 -20 -55v-318h-181v525h176v-61q54 77 147 77q49 0 84.5 -21t53.5 -61q32 42 71.5 62t89.5 20q80 0 121.5 -48t41.5 -140v-353h-181z" />
    <glyph glyph-name="n" unicode="n" horiz-adv-x="610" 
d="M379 0v322q0 37 -14 53.5t-45 16.5q-36 0 -60 -23q-24 -24 -24 -65v-304h-181v525h176v-62q59 78 159 78q83 0 126.5 -49t43.5 -141v-351h-181z" />
    <glyph glyph-name="o" unicode="o" horiz-adv-x="624" 
d="M310 -16q-128 0 -199 72.5t-71 203.5q0 133 72.5 207t201.5 74q128 0 199 -73t71 -204q0 -132 -72 -206t-202 -74zM312 127q89 0 89 136q0 135 -89 135t-89 -136q0 -135 89 -135z" />
    <glyph glyph-name="p" unicode="p" horiz-adv-x="634" 
d="M55 -194v720h176v-59q55 74 153 74q100 0 155 -71t55 -200q0 -87 -26 -151.5t-75.5 -99.5t-118.5 -35q-87 0 -138 63v-241h-181zM236 256q0 -68 21 -98t65 -30q89 0 89 134q0 133 -88 133q-43 0 -66 -33q-21 -30 -21 -91v-15z" />
    <glyph glyph-name="q" unicode="q" horiz-adv-x="634" 
d="M398 -194v246q-54 -68 -148 -68q-100 0 -155 71t-55 200q0 87 26 151.5t75.5 99.5t118.5 35q94 0 143 -70v55h176v-720h-181zM398 269q0 68 -21 98t-65 30q-89 0 -89 -134q0 -133 88 -133q44 0 66 33q21 30 21 91v15z" />
    <glyph glyph-name="r" unicode="r" horiz-adv-x="443" 
d="M55 0v525h176v-64q27 37 63 55t84 18q28 0 51 -5l-20 -155q-21 6 -56 6q-53 0 -82 -21q-35 -26 -35 -90v-269h-181z" />
    <glyph glyph-name="s" unicode="s" horiz-adv-x="549" 
d="M350 364q-7 29 -25 41.5t-52 12.5q-32 0 -48.5 -10.5t-16.5 -29.5q0 -16 13 -25t47 -15l60 -11q105 -19 150 -57t45 -109q0 -177 -239 -177q-122 0 -186.5 46.5t-70.5 137.5h171q10 -54 84 -54q34 0 49.5 9.5t15.5 31.5q0 17 -12 26.5t-39 14.5l-61 10q-102 16 -149.5 56
t-47.5 108q0 82 61 126.5t174 44.5q106 0 168 -40.5t76 -119.5z" />
    <glyph glyph-name="t" unicode="t" horiz-adv-x="423" 
d="M412 10q-61 -19 -124 -19q-100 0 -145 46.5t-45 151.5v195h-84v141h84v138h181v-138h114v-141h-114v-187q0 -32 14 -46.5t46 -14.5q25 0 50 6z" />
    <glyph glyph-name="u" unicode="u" horiz-adv-x="605" 
d="M374 0v62q-57 -78 -157 -78q-81 0 -124 49t-43 141v351h181v-322q0 -37 13.5 -53.5t43.5 -16.5q34 0 58 23q23 24 23 65v304h181v-525h-176z" />
    <glyph glyph-name="v" unicode="v" horiz-adv-x="589" 
d="M200 0l-190 525h196l92 -334l92 334h189l-190 -525h-189z" />
    <glyph glyph-name="w" unicode="w" horiz-adv-x="811" 
d="M484 0l-78 303l-78 -303h-170l-148 525h183l64 -309l81 305h144l81 -305l64 309h174l-148 -525h-169z" />
    <glyph glyph-name="x" unicode="x" horiz-adv-x="579" 
d="M375 0l-88 144l-90 -144h-191l184 268l-166 257h200l74 -126l79 126h183l-166 -248l179 -277h-198z" />
    <glyph glyph-name="y" unicode="y" horiz-adv-x="596" 
d="M225 40l-215 485h196l100 -293l92 293h188l-210 -527q-33 -82 -60.5 -121.5t-60 -55t-83.5 -15.5q-59 0 -119 19l27 131q40 -8 60 -8q28 0 46 14.5t28 45.5z" />
    <glyph glyph-name="z" unicode="z" horiz-adv-x="523" 
d="M36 0v115l231 272h-226v138h450v-115l-231 -272h243l-15 -138h-452z" />
    <glyph glyph-name="braceleft" unicode="{" horiz-adv-x="387" 
d="M271 -124q-89 0 -134.5 44t-45.5 130v111q0 34 -16 52t-47 18h-10v148h10q31 0 47 18t16 52v111q0 86 45.5 130t134.5 44h97v-153h-53q-52 0 -52 -53v-113q0 -41 -17 -69t-50 -41q33 -13 50 -41t17 -69v-113q0 -53 52 -53h53v-153h-97z" />
    <glyph glyph-name="bar" unicode="|" horiz-adv-x="301" 
d="M65 -124v858h171v-858h-171z" />
    <glyph glyph-name="braceright" unicode="}" horiz-adv-x="387" 
d="M19 -124v153h53q52 0 52 53v113q0 41 17 69t50 41q-33 13 -50 41t-17 69v113q0 53 -52 53h-53v153h97q89 0 134.5 -44t45.5 -130v-111q0 -34 16 -52t47 -18h10v-148h-10q-31 0 -47 -18t-16 -52v-111q0 -86 -45.5 -130t-134.5 -44h-97z" />
    <glyph glyph-name="asciitilde" unicode="~" horiz-adv-x="592" 
d="M572 452q0 -119 -42.5 -180t-125.5 -61q-35 0 -62 10t-72 39q-31 20 -52 20q-22 0 -33.5 -17t-11.5 -49h-153q0 119 42.5 180t125.5 61q35 0 62 -10t72 -39q31 -20 52 -20q22 0 33.5 17t11.5 49h153z" />
    <glyph glyph-name="uni00A0" unicode="&#xa0;" horiz-adv-x="215" 
 />
    <glyph glyph-name="exclamdown" unicode="&#xa1;" horiz-adv-x="307" 
d="M55 -189l18 485h161l18 -485h-197zM69 352v173h169v-173h-169z" />
    <glyph glyph-name="cent" unicode="&#xa2;" horiz-adv-x="592" 
d="M276 -11v96q-113 8 -174 78t-61 194q0 123 61 195t174 82v94h59v-93q92 -6 147.5 -57t66.5 -139l-166 -16q-9 57 -48 69v-266q46 12 51 74h169q-10 -99 -66 -154t-154 -61v-96h-59zM276 491q-59 -19 -59 -131q0 -110 59 -132v263z" />
    <glyph glyph-name="sterling" unicode="&#xa3;" horiz-adv-x="592" 
d="M59 0v121q31 37 44.5 70.5t13.5 74.5v9h-80v134h60q-7 42 -7 76q0 105 64 165t176 60q101 0 160 -52.5t66 -146.5l-161 -18q-6 36 -22 51t-47 15q-35 0 -51 -21t-16 -65q0 -31 6 -64h195v-134h-178q-2 -80 -37 -127h326l-17 -148h-495z" />
    <glyph glyph-name="currency" unicode="&#xa4;" horiz-adv-x="592" 
d="M454 37l-61 67q-44 -19 -94 -19q-53 0 -100 21l-61 -69l-110 98l61 67q-32 61 -32 128q0 71 32 129l-61 66l110 99l60 -68q48 20 101 20q49 0 96 -19l59 67l109 -99l-57 -62q33 -61 33 -132t-34 -133l58 -63zM298 202q49 0 74.5 33t25.5 96q0 62 -25.5 95t-74.5 33
q-48 0 -74 -33.5t-26 -94.5q0 -62 26 -95.5t74 -33.5z" />
    <glyph glyph-name="yen" unicode="&#xa5;" horiz-adv-x="592" 
d="M385 127v-127h-177v127h-155v93h155v62h-155v93h109l-155 316h186l106 -254l107 254h179l-153 -316h109v-93h-156v-62h156v-93h-156z" />
    <glyph glyph-name="brokenbar" unicode="&#xa6;" horiz-adv-x="301" 
d="M65 -124v353h171v-353h-171zM65 398v336h171v-336h-171z" />
    <glyph glyph-name="section" unicode="&#xa7;" horiz-adv-x="582" 
d="M230 133q-102 24 -144 61t-42 103q0 92 71 133q-33 19 -51 52t-18 75q0 82 65.5 128.5t180.5 46.5q216 0 251 -169l-167 -23q-11 37 -30.5 52t-55.5 15q-72 0 -72 -50q0 -20 13.5 -32.5t42.5 -19.5l96 -25q97 -25 135 -60t38 -100q0 -46 -18 -78t-57 -55q39 -23 57.5 -55
t18.5 -77q0 -86 -62 -131t-181 -45q-251 0 -268 202h175q6 -38 27 -55t62 -17q74 0 74 50q0 21 -14 34t-44 20zM288 246q23 -6 42 -6q31 0 47 16t16 46q0 25 -14.5 39t-46.5 22l-34 9q-21 6 -42 6q-30 0 -46.5 -15.5t-16.5 -44.5q0 -25 14 -39.5t47 -23.5z" />
    <glyph glyph-name="dieresis" unicode="&#xa8;" horiz-adv-x="610" 
d="M115 583v133h160v-133h-160zM335 583v133h160v-133h-160z" />
    <glyph glyph-name="copyright" unicode="&#xa9;" horiz-adv-x="780" 
d="M390 82q74 0 131 33.5t89.5 96t32.5 145.5q0 80 -30.5 142t-88 97.5t-134.5 35.5q-74 0 -131.5 -33t-90 -95.5t-32.5 -146.5q0 -80 30.5 -142t88.5 -97.5t135 -35.5zM388 0q-98 0 -175.5 43.5t-122.5 124.5t-45 187q0 102 43 183t122.5 128.5t182.5 47.5q97 0 174 -43.5
t122 -124.5t45 -187q0 -102 -42.5 -183t-121.5 -128.5t-182 -47.5zM575 314q-5 -76 -52 -117t-128 -41q-91 0 -141 51.5t-50 145.5q0 96 51.5 150.5t142.5 54.5q74 0 119.5 -37t53.5 -105l-121 -16q-10 53 -56 53q-65 0 -65 -95q0 -96 68 -96q50 0 56 52h122z" />
    <glyph glyph-name="ordfeminine" unicode="&#xaa;" horiz-adv-x="435" 
d="M271 335v42q-26 -27 -53.5 -39.5t-62.5 -12.5q-61 0 -96 31.5t-35 85.5q0 125 193 133l50 2v13q0 25 -11 36t-36 11q-43 0 -51 -36l-123 10q21 121 178 121q88 0 130 -38.5t42 -119.5v-239h-125zM267 499l-34 -2q-43 -3 -61 -13t-18 -32q0 -35 41 -35q32 0 52 18t20 48
v16z" />
    <glyph glyph-name="guillemotleft" unicode="&#xab;" horiz-adv-x="626" 
d="M151 28l-122 229l122 228h185l-109 -228l109 -229h-185zM416 28l-122 229l122 228h185l-109 -228l109 -229h-185z" />
    <glyph glyph-name="logicalnot" unicode="&#xac;" horiz-adv-x="592" 
d="M347 157v135h-281v157h444v-292h-163z" />
    <glyph glyph-name="uni00AD" unicode="&#xad;" horiz-adv-x="410" 
d="M39 217v167h332v-167h-332z" />
    <glyph glyph-name="registered" unicode="&#xae;" horiz-adv-x="500" 
d="M249 286q-63 0 -112.5 27t-78 77.5t-28.5 117.5q0 64 27 115t77.5 80t116.5 29q97 0 158 -62t61 -161t-61.5 -161t-159.5 -62zM250 342q75 0 116 44t41 123t-41 123t-116 44t-116 -44t-41 -123t41 -123t116 -44zM283 404l-31 69h-30v-69h-63v215h92q90 0 90 -71
q0 -39 -29 -59l41 -85h-70zM247 522q16 0 23 5.5t7 18.5q0 23 -33 23h-22v-47h25z" />
    <glyph glyph-name="macron" unicode="&#xaf;" horiz-adv-x="610" 
d="M147 594v129h315v-129h-315z" />
    <glyph glyph-name="degree" unicode="&#xb0;" horiz-adv-x="377" 
d="M350 550q0 -69 -46 -114.5t-115 -45.5q-70 0 -116 45.5t-46 113.5q0 44 20 80.5t57.5 58.5t84.5 22q69 0 115 -45.5t46 -114.5zM241 550q0 25 -14 40.5t-38 15.5t-38.5 -15.5t-14.5 -40.5t14.5 -40.5t38.5 -15.5t38 15.5t14 40.5z" />
    <glyph glyph-name="plusminus" unicode="&#xb1;" horiz-adv-x="592" 
d="M71 0v151h143v128h-161v151h161v169h165v-169h161v-151h-161v-128h143v-151h-451z" />
    <glyph glyph-name="uni00B2" unicode="&#xb2;" 
d="M51 289v95l101 79q52 41 68.5 61.5t16.5 43.5q0 33 -30 33q-17 0 -25.5 -11t-12.5 -36l-127 11q7 68 51.5 105t119.5 38q74 0 115 -34.5t41 -95.5q0 -37 -15.5 -65t-57.5 -67q-37 -34 -63 -53h143l-11 -104h-314z" />
    <glyph glyph-name="uni00B3" unicode="&#xb3;" 
d="M177 451v90h31q40 0 40 36q0 34 -40 34q-20 0 -31 -10.5t-16 -34.5l-119 12q8 62 52 96t120 34q74 0 116.5 -31.5t42.5 -87.5q0 -55 -49 -85q28 -13 43.5 -38.5t15.5 -59.5q0 -60 -45.5 -95t-124.5 -35q-83 0 -128.5 40t-46.5 113h120q3 -58 51 -58q45 0 45 40t-46 40
h-31z" />
    <glyph glyph-name="acute" unicode="&#xb4;" horiz-adv-x="610" 
d="M141 586l125 165h202l-161 -165h-166z" />
    <glyph glyph-name="mu" unicode="&#xb5;" horiz-adv-x="610" 
d="M379 0v62q-41 -68 -101 -68q-26 0 -42 13v-201h-181v719h181v-322q0 -37 13.5 -53.5t44.5 -16.5q35 0 57 23q23 24 23 65v304h181v-525h-176z" />
    <glyph glyph-name="paragraph" unicode="&#xb6;" horiz-adv-x="698" 
d="M474 -139v714h-72v-714h-161v374q-110 13 -168 74.5t-58 163.5q0 117 77 179t226 62h317v-853h-161z" />
    <glyph glyph-name="periodcentered" unicode="&#xb7;" horiz-adv-x="269" 
d="M48 278v191h174v-191h-174z" />
    <glyph glyph-name="cedilla" unicode="&#xb8;" horiz-adv-x="610" 
d="M190 -138q45 -5 65 -5q24 0 35 5.5t11 18.5t-11.5 18.5t-42.5 5.5h-35l39 101l87 -6l-16 -45q97 -15 97 -87q0 -92 -148 -92q-38 0 -81 7v79z" />
    <glyph glyph-name="uni00B9" unicode="&#xb9;" 
d="M173 289v276l-82 -50l-55 92l148 88h120v-406h-131z" />
    <glyph glyph-name="ordmasculine" unicode="&#xba;" horiz-adv-x="440" 
d="M218 314q-98 0 -151 54.5t-53 153.5t54.5 154.5t152.5 55.5q97 0 151 -54.5t54 -152.5q0 -100 -55 -155.5t-153 -55.5zM219 429q65 0 65 94q0 48 -16 71t-49 23q-32 0 -47.5 -22.5t-15.5 -71.5t15.5 -71.5t47.5 -22.5z" />
    <glyph glyph-name="guillemotright" unicode="&#xbb;" horiz-adv-x="626" 
d="M25 28l109 228l-109 229h185l122 -229l-122 -228h-185zM290 28l109 228l-109 229h185l122 -229l-122 -228h-185z" />
    <glyph glyph-name="onequarter" unicode="&#xbc;" horiz-adv-x="1001" 
d="M246 0l323 691h168l-323 -691h-168zM799 0v74h-185v88l179 244h129v-237h50l-10 -95h-40v-74h-123zM799 271l-75 -102h75v102zM161 289v276l-82 -50l-55 92l148 88h120v-406h-131z" />
    <glyph glyph-name="onehalf" unicode="&#xbd;" horiz-adv-x="1001" 
d="M228 0l323 691h168l-323 -691h-168zM636 0v95l101 79q52 41 68.5 61.5t16.5 43.5q0 33 -30 33q-17 0 -25.5 -11t-12.5 -36l-127 11q7 68 51.5 105t119.5 38q74 0 115 -34.5t41 -95.5q0 -37 -15.5 -65t-57.5 -67q-37 -34 -63 -53h143l-11 -104h-314zM161 289v276l-82 -50
l-55 92l148 88h120v-406h-131z" />
    <glyph glyph-name="threequarters" unicode="&#xbe;" horiz-adv-x="1001" 
d="M273 0l323 691h168l-323 -691h-168zM799 0v74h-185v88l179 244h129v-237h50l-10 -95h-40v-74h-123zM799 271l-75 -102h75v102zM177 451v90h31q40 0 40 36q0 34 -40 34q-20 0 -31 -10.5t-16 -34.5l-119 12q8 62 52 96t120 34q74 0 116.5 -31.5t42.5 -87.5q0 -55 -49 -85
q28 -13 43.5 -38.5t15.5 -59.5q0 -60 -45.5 -95t-124.5 -35q-83 0 -128.5 40t-46.5 113h120q3 -58 51 -58q45 0 45 40t-46 40h-31z" />
    <glyph glyph-name="questiondown" unicode="&#xbf;" horiz-adv-x="538" 
d="M353 296v-21q0 -32 -7.5 -59t-23.5 -50t-52 -55q-17 -15 -31.5 -29t-23 -30.5t-8.5 -36.5q0 -29 18.5 -45t50.5 -16q70 0 82 79l167 -17q-13 -105 -80 -161t-180 -56q-112 0 -177 50.5t-65 137.5q0 44 17.5 80t55.5 74q52 52 67.5 71t20 33t4.5 38v13h165zM356 525v-173
h-169v173h169z" />
    <glyph glyph-name="Agrave" unicode="&#xc0;" horiz-adv-x="744" 
d="M530 0l-41 137h-241l-40 -137h-193l248 714h218l248 -714h-199zM369 536l-74 -246h147zM318 772l-165 155h206l128 -155h-169z" />
    <glyph glyph-name="Aacute" unicode="&#xc1;" horiz-adv-x="744" 
d="M530 0l-41 137h-241l-40 -137h-193l248 714h218l248 -714h-199zM369 536l-74 -246h147zM426 772h-169l128 155h206z" />
    <glyph glyph-name="Acircumflex" unicode="&#xc2;" horiz-adv-x="744" 
d="M530 0l-41 137h-241l-40 -137h-193l248 714h218l248 -714h-199zM369 536l-74 -246h147zM433 772l-60 69l-60 -69h-155l126 155h175l127 -155h-153z" />
    <glyph glyph-name="Atilde" unicode="&#xc3;" horiz-adv-x="744" 
d="M530 0l-41 137h-241l-40 -137h-193l248 714h218l248 -714h-199zM369 536l-74 -246h147zM580 930q0 -78 -33 -119.5t-95 -41.5q-41 0 -80 21q-22 12 -33 16t-23 4q-36 0 -36 -41h-116q0 78 33 119.5t95 41.5q41 0 80 -21q22 -12 33 -16t23 -4q36 0 36 41h116z" />
    <glyph glyph-name="Adieresis" unicode="&#xc4;" horiz-adv-x="744" 
d="M530 0l-41 137h-241l-40 -137h-193l248 714h218l248 -714h-199zM369 536l-74 -246h147zM174 775v144h168v-144h-168zM403 775v144h168v-144h-168z" />
    <glyph glyph-name="Aring" unicode="&#xc5;" horiz-adv-x="744" 
d="M530 0l-41 137h-241l-40 -137h-193l250 707q-25 30 -25 78q0 57 37 91t95 34t95 -34t37 -91q0 -47 -26 -78l251 -707h-199zM369 536l-74 -246h147zM372 739q20 0 31.5 11t11.5 32t-11 32.5t-32 11.5q-20 0 -31.5 -11t-11.5 -33q0 -21 11.5 -32t31.5 -11z" />
    <glyph glyph-name="AE" unicode="&#xc6;" horiz-adv-x="1083" 
d="M556 0v192h-241l-99 -192h-201l395 714h627v-158h-299v-114h279v-158h-279v-126h320l-16 -158h-486zM556 560h-49l-112 -215h161v215z" />
    <glyph glyph-name="Ccedilla" unicode="&#xc7;" horiz-adv-x="728" 
d="M703 261q-8 -131 -92 -205t-225 -74q-162 0 -251.5 97.5t-89.5 273.5q0 178 91.5 278.5t254.5 100.5q128 0 204 -63.5t97 -188.5l-191 -22q-12 58 -39.5 83.5t-76.5 25.5q-137 0 -137 -209q0 -211 139 -211q52 0 82 29t38 85h196zM277 -143q36 -5 65 -5q48 0 48 26
q0 14 -13 19.5t-42 5.5h-36l40 102l89 -5l-17 -47q101 -12 101 -89q0 -94 -153 -94q-40 0 -82 7v80z" />
    <glyph glyph-name="Egrave" unicode="&#xc8;" horiz-adv-x="623" 
d="M66 0v714h511v-158h-324v-114h304v-158h-304v-126h345l-16 -158h-516zM267 772l-165 155h206l128 -155h-169z" />
    <glyph glyph-name="Eacute" unicode="&#xc9;" horiz-adv-x="623" 
d="M66 0v714h511v-158h-324v-114h304v-158h-304v-126h345l-16 -158h-516zM375 772h-169l128 155h206z" />
    <glyph glyph-name="Ecircumflex" unicode="&#xca;" horiz-adv-x="623" 
d="M66 0v714h511v-158h-324v-114h304v-158h-304v-126h345l-16 -158h-516zM382 772l-60 69l-60 -69h-155l126 155h175l127 -155h-153z" />
    <glyph glyph-name="Edieresis" unicode="&#xcb;" horiz-adv-x="623" 
d="M66 0v714h511v-158h-324v-114h304v-158h-304v-126h345l-16 -158h-516zM123 775v144h168v-144h-168zM352 775v144h168v-144h-168z" />
    <glyph glyph-name="Igrave" unicode="&#xcc;" horiz-adv-x="324" 
d="M66 0v714h192v-714h-192zM108 772l-165 155h206l128 -155h-169z" />
    <glyph glyph-name="Iacute" unicode="&#xcd;" horiz-adv-x="324" 
d="M66 0v714h192v-714h-192zM216 772h-169l128 155h206z" />
    <glyph glyph-name="Icircumflex" unicode="&#xce;" horiz-adv-x="324" 
d="M66 0v714h192v-714h-192zM223 772l-60 69l-60 -69h-155l126 155h175l127 -155h-153z" />
    <glyph glyph-name="Idieresis" unicode="&#xcf;" horiz-adv-x="324" 
d="M66 0v714h192v-714h-192zM-36 775v144h168v-144h-168zM193 775v144h168v-144h-168z" />
    <glyph glyph-name="Eth" unicode="&#xd0;" horiz-adv-x="778" 
d="M91 0v286h-81v152h81v276h281q177 0 269 -89t92 -260q0 -176 -96.5 -270.5t-275.5 -94.5h-270zM364 162q170 0 170 197q0 98 -39.5 145.5t-120.5 47.5h-98v-114h122v-152h-122v-124h88z" />
    <glyph glyph-name="Ntilde" unicode="&#xd1;" horiz-adv-x="739" 
d="M505 0l-257 409v-409h-182v714h168l257 -409v409h182v-714h-168zM577 930q0 -78 -33 -119.5t-95 -41.5q-41 0 -80 21q-22 12 -33 16t-23 4q-36 0 -36 -41h-116q0 78 33 119.5t95 41.5q41 0 80 -21q22 -12 33 -16t23 -4q36 0 36 41h116z" />
    <glyph glyph-name="Ograve" unicode="&#xd2;" horiz-adv-x="793" 
d="M394 -18q-107 0 -185.5 43.5t-121 127t-42.5 201.5q0 178 94 278t260 100q107 0 185.5 -43.5t121 -127t42.5 -201.5q0 -178 -94 -278t-260 -100zM396 147q76 0 114.5 53t38.5 157q0 210 -152 210q-76 0 -114.5 -53t-38.5 -157t38.5 -157t113.5 -53zM342 772l-165 155h206
l128 -155h-169z" />
    <glyph glyph-name="Oacute" unicode="&#xd3;" horiz-adv-x="793" 
d="M394 -18q-107 0 -185.5 43.5t-121 127t-42.5 201.5q0 178 94 278t260 100q107 0 185.5 -43.5t121 -127t42.5 -201.5q0 -178 -94 -278t-260 -100zM396 147q76 0 114.5 53t38.5 157q0 210 -152 210q-76 0 -114.5 -53t-38.5 -157t38.5 -157t113.5 -53zM450 772h-169l128 155
h206z" />
    <glyph glyph-name="Ocircumflex" unicode="&#xd4;" horiz-adv-x="793" 
d="M394 -18q-107 0 -185.5 43.5t-121 127t-42.5 201.5q0 178 94 278t260 100q107 0 185.5 -43.5t121 -127t42.5 -201.5q0 -178 -94 -278t-260 -100zM396 147q76 0 114.5 53t38.5 157q0 210 -152 210q-76 0 -114.5 -53t-38.5 -157t38.5 -157t113.5 -53zM457 772l-60 69
l-60 -69h-155l126 155h175l127 -155h-153z" />
    <glyph glyph-name="Otilde" unicode="&#xd5;" horiz-adv-x="793" 
d="M394 -18q-107 0 -185.5 43.5t-121 127t-42.5 201.5q0 178 94 278t260 100q107 0 185.5 -43.5t121 -127t42.5 -201.5q0 -178 -94 -278t-260 -100zM396 147q76 0 114.5 53t38.5 157q0 210 -152 210q-76 0 -114.5 -53t-38.5 -157t38.5 -157t113.5 -53zM604 930
q0 -78 -33 -119.5t-95 -41.5q-41 0 -80 21q-22 12 -33 16t-23 4q-36 0 -36 -41h-116q0 78 33 119.5t95 41.5q41 0 80 -21q22 -12 33 -16t23 -4q36 0 36 41h116z" />
    <glyph glyph-name="Odieresis" unicode="&#xd6;" horiz-adv-x="793" 
d="M394 -18q-107 0 -185.5 43.5t-121 127t-42.5 201.5q0 178 94 278t260 100q107 0 185.5 -43.5t121 -127t42.5 -201.5q0 -178 -94 -278t-260 -100zM396 147q76 0 114.5 53t38.5 157q0 210 -152 210q-76 0 -114.5 -53t-38.5 -157t38.5 -157t113.5 -53zM198 775v144h168v-144
h-168zM427 775v144h168v-144h-168z" />
    <glyph glyph-name="multiply" unicode="&#xd7;" horiz-adv-x="592" 
d="M296 232l-129 -129l-109 109l129 129l-127 128l109 109l127 -128l127 128l109 -109l-127 -128l129 -129l-109 -109z" />
    <glyph glyph-name="Oslash" unicode="&#xd8;" horiz-adv-x="793" 
d="M91 -12l55 83q-101 99 -101 283q0 178 94 278t260 100q90 0 163 -32l51 78l79 -52l-52 -78q53 -49 80.5 -122t27.5 -166q0 -178 -94 -278t-260 -100q-92 0 -170 35l-54 -81zM466 556q-33 14 -69 14q-157 0 -157 -213q0 -68 17 -117zM319 162q33 -18 78 -18
q77 0 116.5 53.5t39.5 159.5q0 78 -21 127z" />
    <glyph glyph-name="Ugrave" unicode="&#xd9;" horiz-adv-x="718" 
d="M469 714h192v-418q0 -314 -304 -314q-300 0 -300 314v418h192v-425q0 -74 26 -108t84 -34t84 34t26 108v425zM305 772l-165 155h206l128 -155h-169z" />
    <glyph glyph-name="Uacute" unicode="&#xda;" horiz-adv-x="718" 
d="M469 714h192v-418q0 -314 -304 -314q-300 0 -300 314v418h192v-425q0 -74 26 -108t84 -34t84 34t26 108v425zM413 772h-169l128 155h206z" />
    <glyph glyph-name="Ucircumflex" unicode="&#xdb;" horiz-adv-x="718" 
d="M469 714h192v-418q0 -314 -304 -314q-300 0 -300 314v418h192v-425q0 -74 26 -108t84 -34t84 34t26 108v425zM420 772l-60 69l-60 -69h-155l126 155h175l127 -155h-153z" />
    <glyph glyph-name="Udieresis" unicode="&#xdc;" horiz-adv-x="718" 
d="M469 714h192v-418q0 -314 -304 -314q-300 0 -300 314v418h192v-425q0 -74 26 -108t84 -34t84 34t26 108v425zM161 775v144h168v-144h-168zM390 775v144h168v-144h-168z" />
    <glyph glyph-name="Yacute" unicode="&#xdd;" horiz-adv-x="690" 
d="M250 0v277l-240 437h208l129 -273l131 273h202l-237 -437v-277h-193zM399 772h-169l128 155h206z" />
    <glyph glyph-name="Thorn" unicode="&#xde;" horiz-adv-x="651" 
d="M252 120v-120h-186v714h186v-112h81q144 0 215 -59t71 -179q0 -244 -284 -244h-83zM334 273q56 0 81.5 21.5t25.5 68.5t-25 67t-83 20h-81v-177h82z" />
    <glyph glyph-name="germandbls" unicode="&#xdf;" horiz-adv-x="635" 
d="M294 138q35 -6 50 -6q83 0 83 84q0 46 -26 66.5t-87 20.5h-28v135h24q34 0 52.5 19t18.5 55q0 35 -18 53t-52 18q-80 0 -80 -98v-485h-175v478q0 115 68.5 179.5t191.5 64.5q110 0 174 -50.5t64 -136.5q0 -91 -75 -138q125 -41 125 -187q0 -103 -59.5 -160.5
t-167.5 -57.5q-55 0 -103 15z" />
    <glyph glyph-name="agrave" unicode="&#xe0;" horiz-adv-x="585" 
d="M366 0v57q-35 -37 -73 -54t-86 -17q-82 0 -129.5 42.5t-47.5 115.5q0 83 62 126.5t190 49.5l79 4v21q0 69 -67 69q-62 0 -71 -52l-163 13q27 166 242 166q119 0 176 -53t57 -162v-326h-169zM360 222l-58 -3q-51 -3 -74.5 -17.5t-23.5 -43.5q0 -48 59 -48q45 0 71 25.5
t26 68.5v18zM249 586l-161 165h202l125 -165h-166z" />
    <glyph glyph-name="aacute" unicode="&#xe1;" horiz-adv-x="585" 
d="M366 0v57q-35 -37 -73 -54t-86 -17q-82 0 -129.5 42.5t-47.5 115.5q0 83 62 126.5t190 49.5l79 4v21q0 69 -67 69q-62 0 -71 -52l-163 13q27 166 242 166q119 0 176 -53t57 -162v-326h-169zM360 222l-58 -3q-51 -3 -74.5 -17.5t-23.5 -43.5q0 -48 59 -48q45 0 71 25.5
t26 68.5v18zM189 586l125 165h202l-161 -165h-166z" />
    <glyph glyph-name="acircumflex" unicode="&#xe2;" horiz-adv-x="585" 
d="M366 0v57q-35 -37 -73 -54t-86 -17q-82 0 -129.5 42.5t-47.5 115.5q0 83 62 126.5t190 49.5l79 4v21q0 69 -67 69q-62 0 -71 -52l-163 13q27 166 242 166q119 0 176 -53t57 -162v-326h-169zM360 222l-58 -3q-51 -3 -74.5 -17.5t-23.5 -43.5q0 -48 59 -48q45 0 71 25.5
t26 68.5v18zM364 586l-60 77l-60 -77h-153l126 165h171l126 -165h-150z" />
    <glyph glyph-name="atilde" unicode="&#xe3;" horiz-adv-x="585" 
d="M366 0v57q-35 -37 -73 -54t-86 -17q-82 0 -129.5 42.5t-47.5 115.5q0 83 62 126.5t190 49.5l79 4v21q0 69 -67 69q-62 0 -71 -52l-163 13q27 166 242 166q119 0 176 -53t57 -162v-326h-169zM360 222l-58 -3q-51 -3 -74.5 -17.5t-23.5 -43.5q0 -48 59 -48q45 0 71 25.5
t26 68.5v18zM504 751q0 -79 -31.5 -120.5t-91.5 -41.5q-20 0 -37.5 5t-41.5 17q-23 12 -33.5 15.5t-21.5 3.5q-35 0 -35 -41h-112q0 79 31.5 120.5t91.5 41.5q20 0 37.5 -5t41.5 -17q23 -12 33.5 -15.5t21.5 -3.5q35 0 35 41h112z" />
    <glyph glyph-name="adieresis" unicode="&#xe4;" horiz-adv-x="585" 
d="M366 0v57q-35 -37 -73 -54t-86 -17q-82 0 -129.5 42.5t-47.5 115.5q0 83 62 126.5t190 49.5l79 4v21q0 69 -67 69q-62 0 -71 -52l-163 13q27 166 242 166q119 0 176 -53t57 -162v-326h-169zM360 222l-58 -3q-51 -3 -74.5 -17.5t-23.5 -43.5q0 -48 59 -48q45 0 71 25.5
t26 68.5v18zM112 583v133h160v-133h-160zM332 583v133h160v-133h-160z" />
    <glyph glyph-name="aring" unicode="&#xe5;" horiz-adv-x="585" 
d="M366 0v57q-35 -37 -73 -54t-86 -17q-82 0 -129.5 42.5t-47.5 115.5q0 83 62 126.5t190 49.5l79 4v21q0 69 -67 69q-62 0 -71 -52l-163 13q27 166 242 166q119 0 176 -53t57 -162v-326h-169zM360 222l-58 -3q-51 -3 -74.5 -17.5t-23.5 -43.5q0 -48 59 -48q45 0 71 25.5
t26 68.5v18zM428 699q0 -55 -34.5 -88t-91.5 -33t-91.5 33t-34.5 88t34.5 88.5t91.5 33.5t91.5 -33.5t34.5 -88.5zM342 699q0 42 -41 42q-19 0 -29 -11t-10 -31t10.5 -30.5t28.5 -10.5q20 0 30.5 11t10.5 30z" />
    <glyph glyph-name="ae" unicode="&#xe6;" horiz-adv-x="903" 
d="M859 169q-15 -90 -76 -137.5t-162 -47.5q-142 0 -202 96q-35 -48 -82.5 -71t-112.5 -23q-91 0 -142.5 43t-51.5 118q0 81 61.5 123.5t186.5 49.5l78 4v21q0 69 -65 69q-59 0 -68 -52l-163 13q12 80 72 123t158 43q114 0 160 -65q63 65 170 65q113 0 178 -70.5t65 -193.5
v-57h-341q4 -56 24.5 -81t62.5 -25q66 0 81 55h169zM355 222l-56 -3q-50 -3 -72.5 -17.5t-22.5 -43.5q0 -48 57 -48q43 0 68.5 25.5t25.5 68.5v18zM696 323q-2 47 -21.5 68.5t-60.5 21.5q-42 0 -64.5 -22t-27.5 -68h174z" />
    <glyph glyph-name="ccedilla" unicode="&#xe7;" horiz-adv-x="577" 
d="M549 202q-10 -106 -73 -162t-173 -56q-126 0 -194.5 71.5t-68.5 202.5q0 134 71 208.5t197 74.5q102 0 163 -51t72 -145l-173 -17q-7 37 -23 53.5t-44 16.5q-80 0 -80 -136q0 -135 80 -135q31 0 49.5 19.5t21.5 55.5h175zM195 -138q45 -5 65 -5q24 0 35 5.5t11 18.5
t-11.5 18.5t-42.5 5.5h-35l39 101l87 -6l-16 -45q97 -15 97 -87q0 -92 -148 -92q-38 0 -81 7v79z" />
    <glyph glyph-name="egrave" unicode="&#xe8;" horiz-adv-x="600" 
d="M556 169q-16 -92 -79 -138.5t-171 -46.5q-130 0 -198 69t-68 201q0 135 71 211t197 76q119 0 185.5 -69.5t66.5 -194.5v-57h-346q4 -56 25 -81t65 -25q68 0 83 55h169zM393 323q-2 47 -22.5 68.5t-62.5 21.5q-84 0 -94 -90h179zM255 586l-161 165h202l125 -165h-166z" />
    <glyph glyph-name="eacute" unicode="&#xe9;" horiz-adv-x="600" 
d="M556 169q-16 -92 -79 -138.5t-171 -46.5q-130 0 -198 69t-68 201q0 135 71 211t197 76q119 0 185.5 -69.5t66.5 -194.5v-57h-346q4 -56 25 -81t65 -25q68 0 83 55h169zM393 323q-2 47 -22.5 68.5t-62.5 21.5q-84 0 -94 -90h179zM195 586l125 165h202l-161 -165h-166z" />
    <glyph glyph-name="ecircumflex" unicode="&#xea;" horiz-adv-x="600" 
d="M556 169q-16 -92 -79 -138.5t-171 -46.5q-130 0 -198 69t-68 201q0 135 71 211t197 76q119 0 185.5 -69.5t66.5 -194.5v-57h-346q4 -56 25 -81t65 -25q68 0 83 55h169zM393 323q-2 47 -22.5 68.5t-62.5 21.5q-84 0 -94 -90h179zM370 586l-60 77l-60 -77h-153l126 165h171
l126 -165h-150z" />
    <glyph glyph-name="edieresis" unicode="&#xeb;" horiz-adv-x="600" 
d="M556 169q-16 -92 -79 -138.5t-171 -46.5q-130 0 -198 69t-68 201q0 135 71 211t197 76q119 0 185.5 -69.5t66.5 -194.5v-57h-346q4 -56 25 -81t65 -25q68 0 83 55h169zM393 323q-2 47 -22.5 68.5t-62.5 21.5q-84 0 -94 -90h179zM118 583v133h160v-133h-160zM338 583v133
h160v-133h-160z" />
    <glyph glyph-name="igrave" unicode="&#xec;" horiz-adv-x="291" 
d="M55 0v525h181v-525h-181zM92 586l-161 165h202l125 -165h-166z" />
    <glyph glyph-name="iacute" unicode="&#xed;" horiz-adv-x="291" 
d="M55 0v525h181v-525h-181zM32 586l125 165h202l-161 -165h-166z" />
    <glyph glyph-name="icircumflex" unicode="&#xee;" horiz-adv-x="291" 
d="M55 0v525h181v-525h-181zM207 586l-60 77l-60 -77h-153l126 165h171l126 -165h-150z" />
    <glyph glyph-name="idieresis" unicode="&#xef;" horiz-adv-x="291" 
d="M55 0v525h181v-525h-181zM-45 583v133h160v-133h-160zM175 583v133h160v-133h-160z" />
    <glyph glyph-name="eth" unicode="&#xf0;" horiz-adv-x="624" 
d="M405 679q178 -105 178 -363q0 -164 -70.5 -248t-207.5 -84q-125 0 -195.5 65.5t-70.5 180.5q0 71 28 128t81 90t123 33q86 0 137 -54q-18 101 -106 149l-69 -69l-53 53l44 44q-49 9 -92 13l23 131q99 -7 177 -36l68 68l53 -53zM400 235q0 52 -23 80.5t-66 28.5t-66 -28.5
t-23 -81.5t23 -82t65 -29q43 0 66.5 29.5t23.5 82.5z" />
    <glyph glyph-name="ntilde" unicode="&#xf1;" horiz-adv-x="610" 
d="M379 0v322q0 37 -14 53.5t-45 16.5q-36 0 -60 -23q-24 -24 -24 -65v-304h-181v525h176v-62q59 78 159 78q83 0 126.5 -49t43.5 -141v-351h-181zM509 751q0 -79 -31.5 -120.5t-91.5 -41.5q-20 0 -37.5 5t-41.5 17q-23 12 -33.5 15.5t-21.5 3.5q-35 0 -35 -41h-112
q0 79 31.5 120.5t91.5 41.5q20 0 37.5 -5t41.5 -17q23 -12 33.5 -15.5t21.5 -3.5q35 0 35 41h112z" />
    <glyph glyph-name="ograve" unicode="&#xf2;" horiz-adv-x="624" 
d="M310 -16q-128 0 -199 72.5t-71 203.5q0 133 72.5 207t201.5 74q128 0 199 -73t71 -204q0 -132 -72 -206t-202 -74zM312 127q89 0 89 136q0 135 -89 135t-89 -136q0 -135 89 -135zM259 586l-161 165h202l125 -165h-166z" />
    <glyph glyph-name="oacute" unicode="&#xf3;" horiz-adv-x="624" 
d="M310 -16q-128 0 -199 72.5t-71 203.5q0 133 72.5 207t201.5 74q128 0 199 -73t71 -204q0 -132 -72 -206t-202 -74zM312 127q89 0 89 136q0 135 -89 135t-89 -136q0 -135 89 -135zM199 586l125 165h202l-161 -165h-166z" />
    <glyph glyph-name="ocircumflex" unicode="&#xf4;" horiz-adv-x="624" 
d="M310 -16q-128 0 -199 72.5t-71 203.5q0 133 72.5 207t201.5 74q128 0 199 -73t71 -204q0 -132 -72 -206t-202 -74zM312 127q89 0 89 136q0 135 -89 135t-89 -136q0 -135 89 -135zM374 586l-60 77l-60 -77h-153l126 165h171l126 -165h-150z" />
    <glyph glyph-name="otilde" unicode="&#xf5;" horiz-adv-x="624" 
d="M310 -16q-128 0 -199 72.5t-71 203.5q0 133 72.5 207t201.5 74q128 0 199 -73t71 -204q0 -132 -72 -206t-202 -74zM312 127q89 0 89 136q0 135 -89 135t-89 -136q0 -135 89 -135zM514 751q0 -79 -31.5 -120.5t-91.5 -41.5q-20 0 -37.5 5t-41.5 17q-23 12 -33.5 15.5
t-21.5 3.5q-35 0 -35 -41h-112q0 79 31.5 120.5t91.5 41.5q20 0 37.5 -5t41.5 -17q23 -12 33.5 -15.5t21.5 -3.5q35 0 35 41h112z" />
    <glyph glyph-name="odieresis" unicode="&#xf6;" horiz-adv-x="624" 
d="M310 -16q-128 0 -199 72.5t-71 203.5q0 133 72.5 207t201.5 74q128 0 199 -73t71 -204q0 -132 -72 -206t-202 -74zM312 127q89 0 89 136q0 135 -89 135t-89 -136q0 -135 89 -135zM122 583v133h160v-133h-160zM342 583v133h160v-133h-160z" />
    <glyph glyph-name="divide" unicode="&#xf7;" horiz-adv-x="592" 
d="M59 262v157h474v-157h-474zM220 471v140h152v-140h-152zM220 70v140h152v-140h-152z" />
    <glyph glyph-name="oslash" unicode="&#xf8;" horiz-adv-x="624" 
d="M63 -20l51 74q-74 74 -74 207q0 132 72 206t202 74q63 0 120 -21l44 64l71 -49l-42 -61q77 -74 77 -209q0 -133 -72.5 -207t-201.5 -74q-66 0 -123 23l-52 -77zM350 398q-14 7 -38 7q-101 0 -101 -142q0 -28 5 -60zM270 127q15 -7 42 -7q101 0 101 143q0 40 -7 64z" />
    <glyph glyph-name="ugrave" unicode="&#xf9;" horiz-adv-x="605" 
d="M374 0v62q-57 -78 -157 -78q-81 0 -124 49t-43 141v351h181v-322q0 -37 13.5 -53.5t43.5 -16.5q34 0 58 23q23 24 23 65v304h181v-525h-176zM247 586l-161 165h202l125 -165h-166z" />
    <glyph glyph-name="uacute" unicode="&#xfa;" horiz-adv-x="605" 
d="M374 0v62q-57 -78 -157 -78q-81 0 -124 49t-43 141v351h181v-322q0 -37 13.5 -53.5t43.5 -16.5q34 0 58 23q23 24 23 65v304h181v-525h-176zM187 586l125 165h202l-161 -165h-166z" />
    <glyph glyph-name="ucircumflex" unicode="&#xfb;" horiz-adv-x="605" 
d="M374 0v62q-57 -78 -157 -78q-81 0 -124 49t-43 141v351h181v-322q0 -37 13.5 -53.5t43.5 -16.5q34 0 58 23q23 24 23 65v304h181v-525h-176zM362 586l-60 77l-60 -77h-153l126 165h171l126 -165h-150z" />
    <glyph glyph-name="udieresis" unicode="&#xfc;" horiz-adv-x="605" 
d="M374 0v62q-57 -78 -157 -78q-81 0 -124 49t-43 141v351h181v-322q0 -37 13.5 -53.5t43.5 -16.5q34 0 58 23q23 24 23 65v304h181v-525h-176zM110 583v133h160v-133h-160zM330 583v133h160v-133h-160z" />
    <glyph glyph-name="yacute" unicode="&#xfd;" horiz-adv-x="596" 
d="M225 40l-215 485h196l100 -293l92 293h188l-210 -527q-33 -82 -60.5 -121.5t-60 -55t-83.5 -15.5q-59 0 -119 19l27 131q40 -8 60 -8q28 0 46 14.5t28 45.5zM185 586l125 165h202l-161 -165h-166z" />
    <glyph glyph-name="thorn" unicode="&#xfe;" horiz-adv-x="634" 
d="M55 -194v908h181v-241q54 68 148 68q100 0 155 -71t55 -200q0 -87 -26 -151.5t-75.5 -99.5t-118.5 -35q-87 0 -138 63v-241h-181zM236 256q0 -68 21 -98t65 -30q89 0 89 134q0 133 -88 133q-43 0 -66 -33q-21 -30 -21 -91v-15z" />
    <glyph glyph-name="ydieresis" unicode="&#xff;" horiz-adv-x="596" 
d="M225 40l-215 485h196l100 -293l92 293h188l-210 -527q-33 -82 -60.5 -121.5t-60 -55t-83.5 -15.5q-59 0 -119 19l27 131q40 -8 60 -8q28 0 46 14.5t28 45.5zM108 583v133h160v-133h-160zM328 583v133h160v-133h-160z" />
    <glyph glyph-name="Amacron" unicode="&#x100;" horiz-adv-x="744" 
d="M530 0l-41 137h-241l-40 -137h-193l248 714h218l248 -714h-199zM369 536l-74 -246h147zM208 784v132h329v-132h-329z" />
    <glyph glyph-name="amacron" unicode="&#x101;" horiz-adv-x="585" 
d="M366 0v57q-35 -37 -73 -54t-86 -17q-82 0 -129.5 42.5t-47.5 115.5q0 83 62 126.5t190 49.5l79 4v21q0 69 -67 69q-62 0 -71 -52l-163 13q27 166 242 166q119 0 176 -53t57 -162v-326h-169zM360 222l-58 -3q-51 -3 -74.5 -17.5t-23.5 -43.5q0 -48 59 -48q45 0 71 25.5
t26 68.5v18zM145 594v129h315v-129h-315z" />
    <glyph glyph-name="Abreve" unicode="&#x102;" horiz-adv-x="744" 
d="M530 0l-41 137h-241l-40 -137h-193l248 714h218l248 -714h-199zM369 536l-74 -246h147zM554 931q0 -78 -47 -120t-135 -42t-134.5 41.5t-46.5 120.5h128q0 -27 13.5 -42t37.5 -15q27 0 41.5 14.5t14.5 42.5h128z" />
    <glyph glyph-name="abreve" unicode="&#x103;" horiz-adv-x="585" 
d="M366 0v57q-35 -37 -73 -54t-86 -17q-82 0 -129.5 42.5t-47.5 115.5q0 83 62 126.5t190 49.5l79 4v21q0 69 -67 69q-62 0 -71 -52l-163 13q27 166 242 166q119 0 176 -53t57 -162v-326h-169zM360 222l-58 -3q-51 -3 -74.5 -17.5t-23.5 -43.5q0 -48 59 -48q45 0 71 25.5
t26 68.5v18zM479 749q0 -81 -45.5 -124t-131.5 -43t-131.5 43t-45.5 124h125q0 -62 52 -62t52 62h125z" />
    <glyph glyph-name="Aogonek" unicode="&#x104;" horiz-adv-x="744" 
d="M530 0l-41 137h-241l-40 -137h-193l248 714h218l248 -714h-199zM369 536l-74 -246h147zM726 -204q-43 -5 -71 -5q-74 0 -109.5 22t-35.5 69q0 36 19.5 61.5t74.5 62.5l125 -6q-39 -20 -56.5 -38t-17.5 -37q0 -29 40 -29q13 0 31 2v-102z" />
    <glyph glyph-name="aogonek" unicode="&#x105;" horiz-adv-x="585" 
d="M366 0v57q-35 -37 -73 -54t-86 -17q-82 0 -129.5 42.5t-47.5 115.5q0 83 62 126.5t190 49.5l79 4v21q0 69 -67 69q-62 0 -71 -52l-163 13q27 166 242 166q119 0 176 -53t57 -162v-326h-169zM360 222l-58 -3q-51 -3 -74.5 -17.5t-23.5 -43.5q0 -48 59 -48q45 0 71 25.5
t26 68.5v18zM532 -201q-36 -5 -69 -5q-137 0 -137 89q0 37 19.5 64t66.5 59l123 -6q-37 -20 -53.5 -37.5t-16.5 -36.5q0 -28 37 -28q16 0 30 2v-101z" />
    <glyph glyph-name="Cacute" unicode="&#x106;" horiz-adv-x="728" 
d="M703 261q-8 -131 -92 -205t-225 -74q-162 0 -251.5 97.5t-89.5 273.5q0 178 91.5 278.5t254.5 100.5q128 0 204 -63.5t97 -188.5l-191 -22q-12 58 -39.5 83.5t-76.5 25.5q-137 0 -137 -209q0 -211 139 -211q52 0 82 29t38 85h196zM445 772h-169l128 155h206z" />
    <glyph glyph-name="cacute" unicode="&#x107;" horiz-adv-x="577" 
d="M549 202q-10 -106 -73 -162t-173 -56q-126 0 -194.5 71.5t-68.5 202.5q0 134 71 208.5t197 74.5q102 0 163 -51t72 -145l-173 -17q-7 37 -23 53.5t-44 16.5q-80 0 -80 -136q0 -135 80 -135q31 0 49.5 19.5t21.5 55.5h175zM195 586l125 165h202l-161 -165h-166z" />
    <glyph glyph-name="Ccircumflex" unicode="&#x108;" horiz-adv-x="728" 
d="M703 261q-8 -131 -92 -205t-225 -74q-162 0 -251.5 97.5t-89.5 273.5q0 178 91.5 278.5t254.5 100.5q128 0 204 -63.5t97 -188.5l-191 -22q-12 58 -39.5 83.5t-76.5 25.5q-137 0 -137 -209q0 -211 139 -211q52 0 82 29t38 85h196zM452 772l-60 69l-60 -69h-155l126 155
h175l127 -155h-153z" />
    <glyph glyph-name="ccircumflex" unicode="&#x109;" horiz-adv-x="577" 
d="M549 202q-10 -106 -73 -162t-173 -56q-126 0 -194.5 71.5t-68.5 202.5q0 134 71 208.5t197 74.5q102 0 163 -51t72 -145l-173 -17q-7 37 -23 53.5t-44 16.5q-80 0 -80 -136q0 -135 80 -135q31 0 49.5 19.5t21.5 55.5h175zM370 586l-60 77l-60 -77h-153l126 165h171
l126 -165h-150z" />
    <glyph glyph-name="Cdotaccent" unicode="&#x10a;" horiz-adv-x="728" 
d="M703 261q-8 -131 -92 -205t-225 -74q-162 0 -251.5 97.5t-89.5 273.5q0 178 91.5 278.5t254.5 100.5q128 0 204 -63.5t97 -188.5l-191 -22q-12 58 -39.5 83.5t-76.5 25.5q-137 0 -137 -209q0 -211 139 -211q52 0 82 29t38 85h196zM299 775v147h184v-147h-184z" />
    <glyph glyph-name="cdotaccent" unicode="&#x10b;" horiz-adv-x="577" 
d="M549 202q-10 -106 -73 -162t-173 -56q-126 0 -194.5 71.5t-68.5 202.5q0 134 71 208.5t197 74.5q102 0 163 -51t72 -145l-173 -17q-7 37 -23 53.5t-44 16.5q-80 0 -80 -136q0 -135 80 -135q31 0 49.5 19.5t21.5 55.5h175zM217 583v131h183v-131h-183z" />
    <glyph glyph-name="Ccaron" unicode="&#x10c;" horiz-adv-x="728" 
d="M703 261q-8 -131 -92 -205t-225 -74q-162 0 -251.5 97.5t-89.5 273.5q0 178 91.5 278.5t254.5 100.5q128 0 204 -63.5t97 -188.5l-191 -22q-12 58 -39.5 83.5t-76.5 25.5q-137 0 -137 -209q0 -211 139 -211q52 0 82 29t38 85h196zM330 927l60 -69l60 69h155l-126 -155
h-175l-127 155h153z" />
    <glyph glyph-name="ccaron" unicode="&#x10d;" horiz-adv-x="577" 
d="M549 202q-10 -106 -73 -162t-173 -56q-126 0 -194.5 71.5t-68.5 202.5q0 134 71 208.5t197 74.5q102 0 163 -51t72 -145l-173 -17q-7 37 -23 53.5t-44 16.5q-80 0 -80 -136q0 -135 80 -135q31 0 49.5 19.5t21.5 55.5h175zM223 586l-126 165h150l60 -77l60 77h153
l-126 -165h-171z" />
    <glyph glyph-name="Dcaron" unicode="&#x10e;" horiz-adv-x="753" 
d="M66 0v714h281q177 0 269 -89t92 -260q0 -176 -96.5 -270.5t-275.5 -94.5h-270zM339 162q170 0 170 197q0 98 -39.5 145.5t-120.5 47.5h-91v-390h81zM278 927l60 -69l60 69h155l-126 -155h-175l-127 155h153z" />
    <glyph glyph-name="dcaron" unicode="&#x10f;" horiz-adv-x="634" 
d="M403 0v59q-55 -75 -153 -75q-100 0 -155 71t-55 200q0 87 26 151.5t75.5 99.5t118.5 35q88 0 138 -62v235h181v-714h-176zM398 269q0 68 -21 98t-65 30q-89 0 -89 -134q0 -133 88 -133q44 0 66 33q21 30 21 91v15zM640 442l33 272h168l-66 -272h-135z" />
    <glyph glyph-name="Dcroat" unicode="&#x110;" horiz-adv-x="778" 
d="M91 0v286h-81v152h81v276h281q177 0 269 -89t92 -260q0 -176 -96.5 -270.5t-275.5 -94.5h-270zM364 162q170 0 170 197q0 98 -39.5 145.5t-120.5 47.5h-98v-114h122v-152h-122v-124h88z" />
    <glyph glyph-name="dcroat" unicode="&#x111;" horiz-adv-x="637" 
d="M403 0v59q-55 -75 -153 -75q-100 0 -155 66.5t-55 187.5q0 125 58.5 196.5t161.5 71.5q88 0 138 -62v108h-146v101h146v61h181v-61h65v-101h-65v-552h-176zM398 251q0 58 -21 85q-21 26 -65 26q-89 0 -89 -116t88 -116q43 0 66 29q21 26 21 79v13z" />
    <glyph glyph-name="Emacron" unicode="&#x112;" horiz-adv-x="623" 
d="M66 0v714h511v-158h-324v-114h304v-158h-304v-126h345l-16 -158h-516zM157 784v132h329v-132h-329z" />
    <glyph glyph-name="emacron" unicode="&#x113;" horiz-adv-x="600" 
d="M556 169q-16 -92 -79 -138.5t-171 -46.5q-130 0 -198 69t-68 201q0 135 71 211t197 76q119 0 185.5 -69.5t66.5 -194.5v-57h-346q4 -56 25 -81t65 -25q68 0 83 55h169zM393 323q-2 47 -22.5 68.5t-62.5 21.5q-84 0 -94 -90h179zM151 594v129h315v-129h-315z" />
    <glyph glyph-name="Ebreve" unicode="&#x114;" horiz-adv-x="623" 
d="M66 0v714h511v-158h-324v-114h304v-158h-304v-126h345l-16 -158h-516zM503 931q0 -78 -47 -120t-135 -42t-134.5 41.5t-46.5 120.5h128q0 -27 13.5 -42t37.5 -15q27 0 41.5 14.5t14.5 42.5h128z" />
    <glyph glyph-name="ebreve" unicode="&#x115;" horiz-adv-x="600" 
d="M556 169q-16 -92 -79 -138.5t-171 -46.5q-130 0 -198 69t-68 201q0 135 71 211t197 76q119 0 185.5 -69.5t66.5 -194.5v-57h-346q4 -56 25 -81t65 -25q68 0 83 55h169zM393 323q-2 47 -22.5 68.5t-62.5 21.5q-84 0 -94 -90h179zM485 749q0 -81 -45.5 -124t-131.5 -43
t-131.5 43t-45.5 124h125q0 -62 52 -62t52 62h125z" />
    <glyph glyph-name="Edotaccent" unicode="&#x116;" horiz-adv-x="623" 
d="M66 0v714h511v-158h-324v-114h304v-158h-304v-126h345l-16 -158h-516zM229 775v147h184v-147h-184z" />
    <glyph glyph-name="edotaccent" unicode="&#x117;" horiz-adv-x="600" 
d="M556 169q-16 -92 -79 -138.5t-171 -46.5q-130 0 -198 69t-68 201q0 135 71 211t197 76q119 0 185.5 -69.5t66.5 -194.5v-57h-346q4 -56 25 -81t65 -25q68 0 83 55h169zM393 323q-2 47 -22.5 68.5t-62.5 21.5q-84 0 -94 -90h179zM217 583v131h183v-131h-183z" />
    <glyph glyph-name="Eogonek" unicode="&#x118;" horiz-adv-x="623" 
d="M66 0v714h511v-158h-324v-114h304v-158h-304v-126h345l-16 -158h-516zM579 -204q-43 -5 -71 -5q-74 0 -109.5 22t-35.5 69q0 36 19.5 61.5t74.5 62.5l125 -6q-39 -20 -56.5 -38t-17.5 -37q0 -29 40 -29q13 0 31 2v-102z" />
    <glyph glyph-name="eogonek" unicode="&#x119;" horiz-adv-x="600" 
d="M556 169q-16 -92 -79 -138.5t-171 -46.5q-130 0 -198 69t-68 201q0 135 71 211t197 76q119 0 185.5 -69.5t66.5 -194.5v-57h-346q4 -56 25 -81t65 -25q68 0 83 55h169zM393 323q-2 47 -22.5 68.5t-62.5 21.5q-84 0 -94 -90h179zM425 -201q-36 -5 -69 -5q-137 0 -137 89
q0 37 19.5 64t66.5 59l104 -6q-51 -35 -51 -70q0 -32 36 -32q13 0 31 2v-101z" />
    <glyph glyph-name="Ecaron" unicode="&#x11a;" horiz-adv-x="623" 
d="M66 0v714h511v-158h-324v-114h304v-158h-304v-126h345l-16 -158h-516zM260 927l60 -69l60 69h155l-126 -155h-175l-127 155h153z" />
    <glyph glyph-name="ecaron" unicode="&#x11b;" horiz-adv-x="600" 
d="M556 169q-16 -92 -79 -138.5t-171 -46.5q-130 0 -198 69t-68 201q0 135 71 211t197 76q119 0 185.5 -69.5t66.5 -194.5v-57h-346q4 -56 25 -81t65 -25q68 0 83 55h169zM393 323q-2 47 -22.5 68.5t-62.5 21.5q-84 0 -94 -90h179zM223 586l-126 165h150l60 -77l60 77h153
l-126 -165h-171z" />
    <glyph glyph-name="Gcircumflex" unicode="&#x11c;" horiz-adv-x="751" 
d="M524 253h-114v155h291v-325q-61 -49 -140.5 -75t-165.5 -26q-168 0 -259 96.5t-91 274.5q0 117 40.5 202t118.5 131t188 46q126 0 204.5 -61t96.5 -171l-192 -19q-11 46 -37.5 67.5t-73.5 21.5q-74 0 -110 -52.5t-36 -159.5q0 -112 40 -163t128 -51q63 0 112 26v83z
M453 772l-60 69l-60 -69h-155l126 155h175l127 -155h-153z" />
    <glyph glyph-name="gcircumflex" unicode="&#x11d;" horiz-adv-x="634" 
d="M398 84q-54 -63 -148 -63q-100 0 -155 66t-55 186q0 124 59 196t161 72q94 0 143 -66v51h176v-461q0 -137 -66 -203.5t-203 -66.5q-232 0 -249 185h177q7 -54 74 -54q49 0 67.5 29.5t18.5 106.5v22zM398 287q0 54 -21 81q-23 29 -66 29q-42 0 -65 -30t-23 -85t22.5 -84.5
t64.5 -29.5q41 0 67 31q21 26 21 75v13zM399 586l-60 77l-60 -77h-153l126 165h171l126 -165h-150z" />
    <glyph glyph-name="Gbreve" unicode="&#x11e;" horiz-adv-x="751" 
d="M524 253h-114v155h291v-325q-61 -49 -140.5 -75t-165.5 -26q-168 0 -259 96.5t-91 274.5q0 117 40.5 202t118.5 131t188 46q126 0 204.5 -61t96.5 -171l-192 -19q-11 46 -37.5 67.5t-73.5 21.5q-74 0 -110 -52.5t-36 -159.5q0 -112 40 -163t128 -51q63 0 112 26v83z
M574 931q0 -78 -47 -120t-135 -42t-134.5 41.5t-46.5 120.5h128q0 -27 13.5 -42t37.5 -15q27 0 41.5 14.5t14.5 42.5h128z" />
    <glyph glyph-name="gbreve" unicode="&#x11f;" horiz-adv-x="634" 
d="M398 84q-54 -63 -148 -63q-100 0 -155 66t-55 186q0 124 59 196t161 72q94 0 143 -66v51h176v-461q0 -137 -66 -203.5t-203 -66.5q-232 0 -249 185h177q7 -54 74 -54q49 0 67.5 29.5t18.5 106.5v22zM398 287q0 54 -21 81q-23 29 -66 29q-42 0 -65 -30t-23 -85t22.5 -84.5
t64.5 -29.5q41 0 67 31q21 26 21 75v13zM514 749q0 -81 -45.5 -124t-131.5 -43t-131.5 43t-45.5 124h125q0 -62 52 -62t52 62h125z" />
    <glyph glyph-name="Gdotaccent" unicode="&#x120;" horiz-adv-x="751" 
d="M524 253h-114v155h291v-325q-61 -49 -140.5 -75t-165.5 -26q-168 0 -259 96.5t-91 274.5q0 117 40.5 202t118.5 131t188 46q126 0 204.5 -61t96.5 -171l-192 -19q-11 46 -37.5 67.5t-73.5 21.5q-74 0 -110 -52.5t-36 -159.5q0 -112 40 -163t128 -51q63 0 112 26v83z
M300 775v147h184v-147h-184z" />
    <glyph glyph-name="gdotaccent" unicode="&#x121;" horiz-adv-x="634" 
d="M398 84q-54 -63 -148 -63q-100 0 -155 66t-55 186q0 124 59 196t161 72q94 0 143 -66v51h176v-461q0 -137 -66 -203.5t-203 -66.5q-232 0 -249 185h177q7 -54 74 -54q49 0 67.5 29.5t18.5 106.5v22zM398 287q0 54 -21 81q-23 29 -66 29q-42 0 -65 -30t-23 -85t22.5 -84.5
t64.5 -29.5q41 0 67 31q21 26 21 75v13zM246 583v131h183v-131h-183z" />
    <glyph glyph-name="uni0122" unicode="&#x122;" horiz-adv-x="751" 
d="M524 253h-114v155h291v-325q-61 -49 -140.5 -75t-165.5 -26q-168 0 -259 96.5t-91 274.5q0 117 40.5 202t118.5 131t188 46q126 0 204.5 -61t96.5 -171l-192 -19q-11 46 -37.5 67.5t-73.5 21.5q-74 0 -110 -52.5t-36 -159.5q0 -112 40 -163t128 -51q63 0 112 26v83z
M213 -236l85 170h195l-119 -170h-161z" />
    <glyph glyph-name="uni0123" unicode="&#x123;" horiz-adv-x="634" 
d="M398 84q-54 -63 -148 -63q-100 0 -155 66t-55 186q0 124 59 196t161 72q94 0 143 -66v51h176v-461q0 -137 -66 -203.5t-203 -66.5q-232 0 -249 185h177q7 -54 74 -54q49 0 67.5 29.5t18.5 106.5v22zM398 287q0 54 -21 81q-23 29 -66 29q-42 0 -65 -30t-23 -85t22.5 -84.5
t64.5 -29.5q41 0 67 31q21 26 21 75v13zM239 586l118 167h161l-84 -167h-195z" />
    <glyph glyph-name="Hcircumflex" unicode="&#x124;" horiz-adv-x="748" 
d="M490 0v282h-232v-282h-192v714h192v-259h232v259h192v-714h-192zM435 772l-60 69l-60 -69h-155l126 155h175l127 -155h-153z" />
    <glyph glyph-name="hcircumflex" unicode="&#x125;" horiz-adv-x="610" 
d="M379 0v322q0 37 -14 53.5t-45 16.5q-36 0 -60 -23q-24 -24 -24 -65v-304h-181v714h181v-245q59 72 154 72q83 0 126.5 -49t43.5 -141v-351h-181zM339 772l-60 69l-60 -69h-155l126 155h175l127 -155h-153z" />
    <glyph glyph-name="Hbar" unicode="&#x126;" horiz-adv-x="798" 
d="M515 0v256h-232v-256h-192v513h-81v127h81v74h192v-74h232v74h192v-74h81v-127h-81v-513h-192zM515 513h-232v-89h232v89z" />
    <glyph glyph-name="hbar" unicode="&#x127;" horiz-adv-x="610" 
d="M379 0v287q0 37 -14 53.5t-45 16.5q-36 0 -60 -23q-24 -24 -24 -65v-269h-181v552h-64v101h64v61h181v-61h148v-101h-148v-118q59 72 154 72q83 0 126.5 -49t43.5 -141v-316h-181z" />
    <glyph glyph-name="Itilde" unicode="&#x128;" horiz-adv-x="324" 
d="M66 0v714h192v-714h-192zM370 930q0 -78 -33 -119.5t-95 -41.5q-41 0 -80 21q-22 12 -33 16t-23 4q-36 0 -36 -41h-116q0 78 33 119.5t95 41.5q41 0 80 -21q22 -12 33 -16t23 -4q36 0 36 41h116z" />
    <glyph glyph-name="itilde" unicode="&#x129;" horiz-adv-x="291" 
d="M55 0v525h181v-525h-181zM347 751q0 -79 -31.5 -120.5t-91.5 -41.5q-20 0 -37.5 5t-41.5 17q-23 12 -33.5 15.5t-21.5 3.5q-35 0 -35 -41h-112q0 79 31.5 120.5t91.5 41.5q20 0 37.5 -5t41.5 -17q23 -12 33.5 -15.5t21.5 -3.5q35 0 35 41h112z" />
    <glyph glyph-name="Imacron" unicode="&#x12a;" horiz-adv-x="324" 
d="M66 0v714h192v-714h-192zM-2 784v132h329v-132h-329z" />
    <glyph glyph-name="imacron" unicode="&#x12b;" horiz-adv-x="291" 
d="M55 0v525h181v-525h-181zM-12 594v129h315v-129h-315z" />
    <glyph glyph-name="Ibreve" unicode="&#x12c;" horiz-adv-x="324" 
d="M66 0v714h192v-714h-192zM344 931q0 -78 -47 -120t-135 -42t-134.5 41.5t-46.5 120.5h128q0 -27 13.5 -42t37.5 -15q27 0 41.5 14.5t14.5 42.5h128z" />
    <glyph glyph-name="ibreve" unicode="&#x12d;" horiz-adv-x="291" 
d="M55 0v525h181v-525h-181zM322 749q0 -81 -45.5 -124t-131.5 -43t-131.5 43t-45.5 124h125q0 -62 52 -62t52 62h125z" />
    <glyph glyph-name="Iogonek" unicode="&#x12e;" horiz-adv-x="324" 
d="M66 0v714h192v-714h-192zM255 -204q-43 -5 -71 -5q-74 0 -109.5 22t-35.5 69q0 36 19.5 61.5t74.5 62.5l125 -6q-39 -20 -56.5 -38t-17.5 -37q0 -29 40 -29q13 0 31 2v-102z" />
    <glyph glyph-name="iogonek" unicode="&#x12f;" horiz-adv-x="291" 
d="M55 0v525h181v-525h-181zM54 583v131h183v-131h-183zM233 -201q-36 -5 -69 -5q-137 0 -137 89q0 37 19.5 64t66.5 59l123 -6q-37 -20 -53.5 -37.5t-16.5 -36.5q0 -28 37 -28q16 0 30 2v-101z" />
    <glyph glyph-name="Idotaccent" unicode="&#x130;" horiz-adv-x="324" 
d="M66 0v714h192v-714h-192zM70 775v147h184v-147h-184z" />
    <glyph glyph-name="dotlessi" unicode="&#x131;" horiz-adv-x="291" 
d="M55 0v525h181v-525h-181z" />
    <glyph glyph-name="IJ" unicode="&#x132;" horiz-adv-x="988" 
d="M66 0v714h192v-714h-192zM737 714h192v-451q0 -136 -75 -208.5t-215 -72.5q-138 0 -211 72t-77 212h192q4 -63 26.5 -91t69.5 -28q98 0 98 114v453z" />
    <glyph glyph-name="ij" unicode="&#x133;" horiz-adv-x="587" 
d="M55 0v525h181v-525h-181zM54 583v131h183v-131h-183zM351 525h181v-515q0 -96 -47 -145t-139 -49q-61 0 -125 18l24 130q32 -7 52 -7q28 0 41 14.5t13 45.5v508zM350 583v131h183v-131h-183z" />
    <glyph glyph-name="Jcircumflex" unicode="&#x134;" horiz-adv-x="664" 
d="M413 714h192v-451q0 -136 -75 -208.5t-215 -72.5q-138 0 -211 72t-77 212h192q4 -63 26.5 -91t69.5 -28q98 0 98 114v453zM570 772l-60 69l-60 -69h-155l126 155h175l127 -155h-153z" />
    <glyph glyph-name="jcircumflex" unicode="&#x135;" horiz-adv-x="296" 
d="M60 525h181v-515q0 -96 -47 -145t-139 -49q-61 0 -125 18l24 130q32 -7 52 -7q28 0 41 14.5t13 45.5v508zM212 586l-60 77l-60 -77h-153l126 165h171l126 -165h-150z" />
    <glyph glyph-name="uni0136" unicode="&#x136;" horiz-adv-x="716" 
d="M500 0l-171 309l-71 -79v-230h-192v714h192v-259l217 259h209l-227 -270l253 -444h-210zM206 -236l85 170h195l-119 -170h-161z" />
    <glyph glyph-name="uni0137" unicode="&#x137;" horiz-adv-x="618" 
d="M424 0l-132 240l-60 -55v-185h-177v714h177v-349l165 160h203l-185 -177l200 -348h-191zM164 -233l84 167h195l-118 -167h-161z" />
    <glyph glyph-name="kgreenlandic" unicode="&#x138;" horiz-adv-x="618" 
d="M424 0l-127 227l-65 -65v-162h-177v525h177v-175l170 175h198l-185 -190l200 -335h-191z" />
    <glyph glyph-name="Lacute" unicode="&#x139;" horiz-adv-x="596" 
d="M66 0v714h192v-551h316l-17 -163h-491zM216 772h-169l128 155h206z" />
    <glyph glyph-name="lacute" unicode="&#x13a;" horiz-adv-x="291" 
d="M55 0v714h181v-714h-181zM199 772h-169l128 155h206z" />
    <glyph glyph-name="uni013B" unicode="&#x13b;" horiz-adv-x="596" 
d="M66 0v714h192v-551h316l-17 -163h-491zM138 -236l85 170h195l-119 -170h-161z" />
    <glyph glyph-name="uni013C" unicode="&#x13c;" horiz-adv-x="291" 
d="M55 0v714h181v-714h-181zM-36 -233l84 167h195l-118 -167h-161z" />
    <glyph glyph-name="Lcaron" unicode="&#x13d;" horiz-adv-x="606" 
d="M66 0v714h192v-551h316l-17 -163h-491zM354 442l33 272h168l-66 -272h-135z" />
    <glyph glyph-name="lcaron" unicode="&#x13e;" horiz-adv-x="291" 
d="M55 0v714h181v-714h-181zM297 442l33 272h168l-66 -272h-135z" />
    <glyph glyph-name="Ldot" unicode="&#x13f;" horiz-adv-x="596" 
d="M66 0v714h192v-551h316l-17 -163h-491zM365 331v191h174v-191h-174z" />
    <glyph glyph-name="ldot" unicode="&#x140;" horiz-adv-x="507" 
d="M55 0v714h181v-714h-181zM312 278v191h174v-191h-174z" />
    <glyph glyph-name="Lslash" unicode="&#x141;" horiz-adv-x="620" 
d="M90 0v204l-80 -49v165l80 49v345h192v-225l151 94v-165l-151 -94v-161h316l-17 -163h-491z" />
    <glyph glyph-name="lslash" unicode="&#x142;" horiz-adv-x="381" 
d="M100 0v263l-90 -48v146l90 48v305h181v-207l90 49v-146l-90 -49v-361h-181z" />
    <glyph glyph-name="Nacute" unicode="&#x143;" horiz-adv-x="739" 
d="M505 0l-257 409v-409h-182v714h168l257 -409v409h182v-714h-168zM423 772h-169l128 155h206z" />
    <glyph glyph-name="nacute" unicode="&#x144;" horiz-adv-x="610" 
d="M379 0v322q0 37 -14 53.5t-45 16.5q-36 0 -60 -23q-24 -24 -24 -65v-304h-181v525h176v-62q59 78 159 78q83 0 126.5 -49t43.5 -141v-351h-181zM194 586l125 165h202l-161 -165h-166z" />
    <glyph glyph-name="uni0145" unicode="&#x145;" horiz-adv-x="739" 
d="M505 0l-257 409v-409h-182v714h168l257 -409v409h182v-714h-168zM187 -236l85 170h195l-119 -170h-161z" />
    <glyph glyph-name="uni0146" unicode="&#x146;" horiz-adv-x="610" 
d="M379 0v322q0 37 -14 53.5t-45 16.5q-36 0 -60 -23q-24 -24 -24 -65v-304h-181v525h176v-62q59 78 159 78q83 0 126.5 -49t43.5 -141v-351h-181zM126 -233l84 167h195l-118 -167h-161z" />
    <glyph glyph-name="Ncaron" unicode="&#x147;" horiz-adv-x="739" 
d="M505 0l-257 409v-409h-182v714h168l257 -409v409h182v-714h-168zM308 927l60 -69l60 69h155l-126 -155h-175l-127 155h153z" />
    <glyph glyph-name="ncaron" unicode="&#x148;" horiz-adv-x="610" 
d="M379 0v322q0 37 -14 53.5t-45 16.5q-36 0 -60 -23q-24 -24 -24 -65v-304h-181v525h176v-62q59 78 159 78q83 0 126.5 -49t43.5 -141v-351h-181zM222 586l-126 165h150l60 -77l60 77h153l-126 -165h-171z" />
    <glyph glyph-name="napostrophe" unicode="&#x149;" horiz-adv-x="776" 
d="M545 0v322q0 37 -14 53.5t-45 16.5q-36 0 -60 -23q-24 -24 -24 -65v-304h-181v525h176v-62q59 78 159 78q83 0 126.5 -49t43.5 -141v-351h-181zM5 429l36 285h173l-71 -285h-138z" />
    <glyph glyph-name="Eng" unicode="&#x14a;" horiz-adv-x="739" 
d="M248 408v-408h-182v714h168l257 -409v409h182v-679q0 -126 -58 -185.5t-180 -59.5q-86 0 -147 21l35 147q42 -11 81 -11q43 0 63.5 18.5t22.5 60.5z" />
    <glyph glyph-name="eng" unicode="&#x14b;" horiz-adv-x="610" 
d="M379 322q0 37 -14 53.5t-45 16.5q-36 0 -60 -23q-24 -24 -24 -65v-304h-181v525h176v-62q59 78 159 78q83 0 126.5 -49t43.5 -141v-341q0 -98 -44 -146t-133 -48q-60 0 -119 18l24 130q24 -7 45 -7q24 0 35 14.5t11 45.5v305z" />
    <glyph glyph-name="Omacron" unicode="&#x14c;" horiz-adv-x="793" 
d="M394 -18q-107 0 -185.5 43.5t-121 127t-42.5 201.5q0 178 94 278t260 100q107 0 185.5 -43.5t121 -127t42.5 -201.5q0 -178 -94 -278t-260 -100zM396 147q76 0 114.5 53t38.5 157q0 210 -152 210q-76 0 -114.5 -53t-38.5 -157t38.5 -157t113.5 -53zM232 784v132h329v-132
h-329z" />
    <glyph glyph-name="omacron" unicode="&#x14d;" horiz-adv-x="624" 
d="M310 -16q-128 0 -199 72.5t-71 203.5q0 133 72.5 207t201.5 74q128 0 199 -73t71 -204q0 -132 -72 -206t-202 -74zM312 127q89 0 89 136q0 135 -89 135t-89 -136q0 -135 89 -135zM155 594v129h315v-129h-315z" />
    <glyph glyph-name="Obreve" unicode="&#x14e;" horiz-adv-x="793" 
d="M394 -18q-107 0 -185.5 43.5t-121 127t-42.5 201.5q0 178 94 278t260 100q107 0 185.5 -43.5t121 -127t42.5 -201.5q0 -178 -94 -278t-260 -100zM396 147q76 0 114.5 53t38.5 157q0 210 -152 210q-76 0 -114.5 -53t-38.5 -157t38.5 -157t113.5 -53zM578 931
q0 -78 -47 -120t-135 -42t-134.5 41.5t-46.5 120.5h128q0 -27 13.5 -42t37.5 -15q27 0 41.5 14.5t14.5 42.5h128z" />
    <glyph glyph-name="obreve" unicode="&#x14f;" horiz-adv-x="624" 
d="M310 -16q-128 0 -199 72.5t-71 203.5q0 133 72.5 207t201.5 74q128 0 199 -73t71 -204q0 -132 -72 -206t-202 -74zM312 127q89 0 89 136q0 135 -89 135t-89 -136q0 -135 89 -135zM489 749q0 -81 -45.5 -124t-131.5 -43t-131.5 43t-45.5 124h125q0 -62 52 -62t52 62h125z
" />
    <glyph glyph-name="Ohungarumlaut" unicode="&#x150;" horiz-adv-x="793" 
d="M394 -18q-107 0 -185.5 43.5t-121 127t-42.5 201.5q0 178 94 278t260 100q107 0 185.5 -43.5t121 -127t42.5 -201.5q0 -178 -94 -278t-260 -100zM396 147q76 0 114.5 53t38.5 157q0 210 -152 210q-76 0 -114.5 -53t-38.5 -157t38.5 -157t113.5 -53zM208 772l118 155h178
l-151 -155h-145zM438 772l118 155h178l-151 -155h-145z" />
    <glyph glyph-name="ohungarumlaut" unicode="&#x151;" horiz-adv-x="624" 
d="M310 -16q-128 0 -199 72.5t-71 203.5q0 133 72.5 207t201.5 74q128 0 199 -73t71 -204q0 -132 -72 -206t-202 -74zM312 127q89 0 89 136q0 135 -89 135t-89 -136q0 -135 89 -135zM132 583l109 165h170l-140 -165h-139zM352 583l109 165h170l-140 -165h-139z" />
    <glyph glyph-name="OE" unicode="&#x152;" horiz-adv-x="1061" 
d="M529 0v50q-65 -68 -173 -68q-91 0 -161.5 45t-110 129t-39.5 198q0 111 38 196.5t109.5 133.5t166.5 48q54 0 95.5 -16.5t74.5 -50.5v49h486v-158h-299v-114h279v-158h-279v-126h320l-17 -158h-490zM391 147q68 0 103 50t35 148v31q0 93 -35.5 142t-103.5 49
q-71 0 -108 -53.5t-37 -156.5t37.5 -156.5t108.5 -53.5z" />
    <glyph glyph-name="oe" unicode="&#x153;" horiz-adv-x="947" 
d="M903 169q-16 -91 -76.5 -138t-162.5 -47q-64 0 -108.5 19t-75.5 58q-34 -40 -77 -58.5t-103 -18.5q-123 0 -191.5 73t-68.5 203q0 132 70.5 206.5t194.5 74.5q61 0 104.5 -19.5t74.5 -60.5q31 41 74.5 60.5t102.5 19.5q115 0 180.5 -70t65.5 -194v-57h-338q3 -54 25 -80
t65 -26q62 0 74 55h170zM309 129q86 0 86 134t-86 134t-86 -134t86 -134zM739 323q-1 91 -79 91q-40 0 -63 -23t-26 -68h168z" />
    <glyph glyph-name="Racute" unicode="&#x154;" horiz-adv-x="681" 
d="M470 0l-117 246h-104v-246h-183v714h282q140 0 212.5 -57.5t72.5 -168.5q0 -69 -27 -121t-79 -82l146 -285h-203zM343 395q55 0 80 21t25 66q0 43 -27.5 63.5t-83.5 20.5h-88v-171h94zM373 772h-169l128 155h206z" />
    <glyph glyph-name="racute" unicode="&#x155;" horiz-adv-x="443" 
d="M55 0v525h176v-64q27 37 63 55t84 18q28 0 51 -5l-20 -155q-21 6 -56 6q-53 0 -82 -21q-35 -26 -35 -90v-269h-181zM129 586l125 165h202l-161 -165h-166z" />
    <glyph glyph-name="Rcommaaccent" unicode="&#x156;" horiz-adv-x="681" 
d="M470 0l-117 246h-104v-246h-183v714h282q140 0 212.5 -57.5t72.5 -168.5q0 -69 -27 -121t-79 -82l146 -285h-203zM343 395q55 0 80 21t25 66q0 43 -27.5 63.5t-83.5 20.5h-88v-171h94zM187 -236l85 170h195l-119 -170h-161z" />
    <glyph glyph-name="rcommaaccent" unicode="&#x157;" horiz-adv-x="443" 
d="M55 0v525h176v-64q27 37 63 55t84 18q28 0 51 -5l-20 -155q-21 6 -56 6q-53 0 -82 -21q-35 -26 -35 -90v-269h-181zM-36 -233l84 167h195l-118 -167h-161z" />
    <glyph glyph-name="Rcaron" unicode="&#x158;" horiz-adv-x="681" 
d="M470 0l-117 246h-104v-246h-183v714h282q140 0 212.5 -57.5t72.5 -168.5q0 -69 -27 -121t-79 -82l146 -285h-203zM343 395q55 0 80 21t25 66q0 43 -27.5 63.5t-83.5 20.5h-88v-171h94zM258 927l60 -69l60 69h155l-126 -155h-175l-127 155h153z" />
    <glyph glyph-name="rcaron" unicode="&#x159;" horiz-adv-x="443" 
d="M55 0v525h176v-64q27 37 63 55t84 18q28 0 51 -5l-20 -155q-21 6 -56 6q-53 0 -82 -21q-35 -26 -35 -90v-269h-181zM157 586l-126 165h150l60 -77l60 77h153l-126 -165h-171z" />
    <glyph glyph-name="Sacute" unicode="&#x15a;" horiz-adv-x="670" 
d="M274 290q-122 23 -177.5 75t-55.5 143q0 108 74.5 166t212.5 58q134 0 211 -56t88 -162l-186 -19q-10 45 -36.5 65t-77.5 20q-46 0 -71 -15.5t-25 -45.5q0 -25 19 -40t61 -23l97 -19q119 -23 175.5 -76.5t56.5 -144.5q0 -113 -78 -173.5t-223 -60.5q-146 0 -225 63.5
t-87 189.5h191q6 -51 37.5 -75t90.5 -24q50 0 76 17.5t26 51.5q0 28 -19.5 44t-59.5 23zM382 772h-169l128 155h206z" />
    <glyph glyph-name="sacute" unicode="&#x15b;" horiz-adv-x="549" 
d="M350 364q-7 29 -25 41.5t-52 12.5q-32 0 -48.5 -10.5t-16.5 -29.5q0 -16 13 -25t47 -15l60 -11q105 -19 150 -57t45 -109q0 -177 -239 -177q-122 0 -186.5 46.5t-70.5 137.5h171q10 -54 84 -54q34 0 49.5 9.5t15.5 31.5q0 17 -12 26.5t-39 14.5l-61 10q-102 16 -149.5 56
t-47.5 108q0 82 61 126.5t174 44.5q106 0 168 -40.5t76 -119.5zM160 586l125 165h202l-161 -165h-166z" />
    <glyph glyph-name="Scircumflex" unicode="&#x15c;" horiz-adv-x="670" 
d="M274 290q-122 23 -177.5 75t-55.5 143q0 108 74.5 166t212.5 58q134 0 211 -56t88 -162l-186 -19q-10 45 -36.5 65t-77.5 20q-46 0 -71 -15.5t-25 -45.5q0 -25 19 -40t61 -23l97 -19q119 -23 175.5 -76.5t56.5 -144.5q0 -113 -78 -173.5t-223 -60.5q-146 0 -225 63.5
t-87 189.5h191q6 -51 37.5 -75t90.5 -24q50 0 76 17.5t26 51.5q0 28 -19.5 44t-59.5 23zM389 772l-60 69l-60 -69h-155l126 155h175l127 -155h-153z" />
    <glyph glyph-name="scircumflex" unicode="&#x15d;" horiz-adv-x="549" 
d="M350 364q-7 29 -25 41.5t-52 12.5q-32 0 -48.5 -10.5t-16.5 -29.5q0 -16 13 -25t47 -15l60 -11q105 -19 150 -57t45 -109q0 -177 -239 -177q-122 0 -186.5 46.5t-70.5 137.5h171q10 -54 84 -54q34 0 49.5 9.5t15.5 31.5q0 17 -12 26.5t-39 14.5l-61 10q-102 16 -149.5 56
t-47.5 108q0 82 61 126.5t174 44.5q106 0 168 -40.5t76 -119.5zM335 586l-60 77l-60 -77h-153l126 165h171l126 -165h-150z" />
    <glyph glyph-name="Scedilla" unicode="&#x15e;" horiz-adv-x="670" 
d="M274 290q-122 23 -177.5 75t-55.5 143q0 108 74.5 166t212.5 58q134 0 211 -56t88 -162l-186 -19q-10 45 -36.5 65t-77.5 20q-46 0 -71 -15.5t-25 -45.5q0 -25 19 -40t61 -23l97 -19q119 -23 175.5 -76.5t56.5 -144.5q0 -113 -78 -173.5t-223 -60.5q-146 0 -225 63.5
t-87 189.5h191q6 -51 37.5 -75t90.5 -24q50 0 76 17.5t26 51.5q0 28 -19.5 44t-59.5 23zM230 -143q36 -5 65 -5q48 0 48 26q0 14 -13 19.5t-42 5.5h-36l40 102l89 -5l-17 -47q101 -12 101 -89q0 -94 -153 -94q-40 0 -82 7v80z" />
    <glyph glyph-name="scedilla" unicode="&#x15f;" horiz-adv-x="549" 
d="M350 364q-7 29 -25 41.5t-52 12.5q-32 0 -48.5 -10.5t-16.5 -29.5q0 -16 13 -25t47 -15l60 -11q105 -19 150 -57t45 -109q0 -177 -239 -177q-122 0 -186.5 46.5t-70.5 137.5h171q10 -54 84 -54q34 0 49.5 9.5t15.5 31.5q0 17 -12 26.5t-39 14.5l-61 10q-102 16 -149.5 56
t-47.5 108q0 82 61 126.5t174 44.5q106 0 168 -40.5t76 -119.5zM176 -138q45 -5 65 -5q24 0 35 5.5t11 18.5t-11.5 18.5t-42.5 5.5h-35l39 101l87 -6l-16 -45q97 -15 97 -87q0 -92 -148 -92q-38 0 -81 7v79z" />
    <glyph glyph-name="Scaron" unicode="&#x160;" horiz-adv-x="670" 
d="M274 290q-122 23 -177.5 75t-55.5 143q0 108 74.5 166t212.5 58q134 0 211 -56t88 -162l-186 -19q-10 45 -36.5 65t-77.5 20q-46 0 -71 -15.5t-25 -45.5q0 -25 19 -40t61 -23l97 -19q119 -23 175.5 -76.5t56.5 -144.5q0 -113 -78 -173.5t-223 -60.5q-146 0 -225 63.5
t-87 189.5h191q6 -51 37.5 -75t90.5 -24q50 0 76 17.5t26 51.5q0 28 -19.5 44t-59.5 23zM267 927l60 -69l60 69h155l-126 -155h-175l-127 155h153z" />
    <glyph glyph-name="scaron" unicode="&#x161;" horiz-adv-x="549" 
d="M350 364q-7 29 -25 41.5t-52 12.5q-32 0 -48.5 -10.5t-16.5 -29.5q0 -16 13 -25t47 -15l60 -11q105 -19 150 -57t45 -109q0 -177 -239 -177q-122 0 -186.5 46.5t-70.5 137.5h171q10 -54 84 -54q34 0 49.5 9.5t15.5 31.5q0 17 -12 26.5t-39 14.5l-61 10q-102 16 -149.5 56
t-47.5 108q0 82 61 126.5t174 44.5q106 0 168 -40.5t76 -119.5zM188 586l-126 165h150l60 -77l60 77h153l-126 -165h-171z" />
    <glyph glyph-name="uni0162" unicode="&#x162;" horiz-adv-x="650" 
d="M229 0v551h-206v163h604v-163h-206v-551h-192zM216 -143q36 -5 65 -5q48 0 48 26q0 14 -13 19.5t-42 5.5h-36l40 102l89 -5l-17 -47q101 -12 101 -89q0 -94 -153 -94q-40 0 -82 7v80z" />
    <glyph glyph-name="uni0163" unicode="&#x163;" horiz-adv-x="423" 
d="M412 10q-61 -19 -124 -19q-100 0 -145 46.5t-45 151.5v195h-84v141h84v138h181v-138h114v-141h-114v-187q0 -32 14 -46.5t46 -14.5q25 0 50 6zM146 -138q45 -5 65 -5q24 0 35 5.5t11 18.5t-11.5 18.5t-42.5 5.5h-35l39 101l87 -6l-16 -45q97 -15 97 -87q0 -92 -148 -92
q-38 0 -81 7v79z" />
    <glyph glyph-name="Tcaron" unicode="&#x164;" horiz-adv-x="650" 
d="M229 0v551h-206v163h604v-163h-206v-551h-192zM264 927l60 -69l60 69h155l-126 -155h-175l-127 155h153z" />
    <glyph glyph-name="tcaron" unicode="&#x165;" horiz-adv-x="423" 
d="M412 10q-61 -19 -124 -19q-100 0 -145 46.5t-45 151.5v195h-84v141h84v138h181v-138h114v-141h-114v-187q0 -32 14 -46.5t46 -14.5q25 0 50 6zM321 579l23 184h145l-45 -184h-123z" />
    <glyph glyph-name="Tbar" unicode="&#x166;" horiz-adv-x="650" 
d="M229 0v236h-127v152h127v163h-206v163h604v-163h-206v-163h127v-152h-127v-236h-192z" />
    <glyph glyph-name="tbar" unicode="&#x167;" horiz-adv-x="437" 
d="M420 10q-61 -19 -124 -19q-100 0 -145 46.5t-45 151.5v28h-84v111h84v67h-84v130h84v138h181v-138h114v-130h-114v-67h114v-111h-114v-20q0 -32 14 -46.5t46 -14.5q25 0 50 6z" />
    <glyph glyph-name="Utilde" unicode="&#x168;" horiz-adv-x="718" 
d="M469 714h192v-418q0 -314 -304 -314q-300 0 -300 314v418h192v-425q0 -74 26 -108t84 -34t84 34t26 108v425zM567 930q0 -78 -33 -119.5t-95 -41.5q-41 0 -80 21q-22 12 -33 16t-23 4q-36 0 -36 -41h-116q0 78 33 119.5t95 41.5q41 0 80 -21q22 -12 33 -16t23 -4
q36 0 36 41h116z" />
    <glyph glyph-name="utilde" unicode="&#x169;" horiz-adv-x="605" 
d="M374 0v62q-57 -78 -157 -78q-81 0 -124 49t-43 141v351h181v-322q0 -37 13.5 -53.5t43.5 -16.5q34 0 58 23q23 24 23 65v304h181v-525h-176zM502 751q0 -79 -31.5 -120.5t-91.5 -41.5q-20 0 -37.5 5t-41.5 17q-23 12 -33.5 15.5t-21.5 3.5q-35 0 -35 -41h-112
q0 79 31.5 120.5t91.5 41.5q20 0 37.5 -5t41.5 -17q23 -12 33.5 -15.5t21.5 -3.5q35 0 35 41h112z" />
    <glyph glyph-name="Umacron" unicode="&#x16a;" horiz-adv-x="718" 
d="M469 714h192v-418q0 -314 -304 -314q-300 0 -300 314v418h192v-425q0 -74 26 -108t84 -34t84 34t26 108v425zM195 784v132h329v-132h-329z" />
    <glyph glyph-name="umacron" unicode="&#x16b;" horiz-adv-x="605" 
d="M374 0v62q-57 -78 -157 -78q-81 0 -124 49t-43 141v351h181v-322q0 -37 13.5 -53.5t43.5 -16.5q34 0 58 23q23 24 23 65v304h181v-525h-176zM143 594v129h315v-129h-315z" />
    <glyph glyph-name="Ubreve" unicode="&#x16c;" horiz-adv-x="718" 
d="M469 714h192v-418q0 -314 -304 -314q-300 0 -300 314v418h192v-425q0 -74 26 -108t84 -34t84 34t26 108v425zM541 931q0 -78 -47 -120t-135 -42t-134.5 41.5t-46.5 120.5h128q0 -27 13.5 -42t37.5 -15q27 0 41.5 14.5t14.5 42.5h128z" />
    <glyph glyph-name="ubreve" unicode="&#x16d;" horiz-adv-x="605" 
d="M374 0v62q-57 -78 -157 -78q-81 0 -124 49t-43 141v351h181v-322q0 -37 13.5 -53.5t43.5 -16.5q34 0 58 23q23 24 23 65v304h181v-525h-176zM477 749q0 -81 -45.5 -124t-131.5 -43t-131.5 43t-45.5 124h125q0 -62 52 -62t52 62h125z" />
    <glyph glyph-name="Uring" unicode="&#x16e;" horiz-adv-x="718" 
d="M469 714h192v-418q0 -314 -304 -314q-300 0 -300 314v418h192v-425q0 -74 26 -108t84 -34t84 34t26 108v425zM491 866q0 -58 -36 -92.5t-96 -34.5t-96 34.5t-36 92.5t36 93t96 35t96 -35t36 -93zM402 866q0 21 -11 32.5t-32 11.5t-32 -11.5t-11 -32.5t11.5 -32t31.5 -11
t31.5 11t11.5 32z" />
    <glyph glyph-name="uring" unicode="&#x16f;" horiz-adv-x="605" 
d="M374 0v62q-57 -78 -157 -78q-81 0 -124 49t-43 141v351h181v-322q0 -37 13.5 -53.5t43.5 -16.5q34 0 58 23q23 24 23 65v304h181v-525h-176zM426 699q0 -55 -34.5 -88t-91.5 -33t-91.5 33t-34.5 88t34.5 88.5t91.5 33.5t91.5 -33.5t34.5 -88.5zM340 699q0 42 -41 42
q-19 0 -29 -11t-10 -31t10.5 -30.5t28.5 -10.5q20 0 30.5 11t10.5 30z" />
    <glyph glyph-name="Uhungarumlaut" unicode="&#x170;" horiz-adv-x="718" 
d="M469 714h192v-418q0 -314 -304 -314q-300 0 -300 314v418h192v-425q0 -74 26 -108t84 -34t84 34t26 108v425zM171 772l118 155h178l-151 -155h-145zM401 772l118 155h178l-151 -155h-145z" />
    <glyph glyph-name="uhungarumlaut" unicode="&#x171;" horiz-adv-x="605" 
d="M374 0v62q-57 -78 -157 -78q-81 0 -124 49t-43 141v351h181v-322q0 -37 13.5 -53.5t43.5 -16.5q34 0 58 23q23 24 23 65v304h181v-525h-176zM120 583l109 165h170l-140 -165h-139zM340 583l109 165h170l-140 -165h-139z" />
    <glyph glyph-name="Uogonek" unicode="&#x172;" horiz-adv-x="718" 
d="M469 714h192v-418q0 -314 -304 -314q-300 0 -300 314v418h192v-425q0 -74 26 -108t84 -34t84 34t26 108v425zM492 -204q-43 -5 -71 -5q-74 0 -109.5 22t-35.5 69q0 36 19.5 61.5t74.5 62.5l108 -6q-57 -36 -57 -72q0 -32 40 -32q13 0 31 2v-102z" />
    <glyph glyph-name="uogonek" unicode="&#x173;" horiz-adv-x="605" 
d="M374 0v62q-57 -78 -157 -78q-81 0 -124 49t-43 141v351h181v-322q0 -37 13.5 -53.5t43.5 -16.5q34 0 58 23q23 24 23 65v304h181v-525h-176zM547 -201q-36 -5 -69 -5q-137 0 -137 89q0 37 19.5 64t66.5 59l123 -6q-37 -20 -53.5 -37.5t-16.5 -36.5q0 -28 37 -28
q16 0 30 2v-101z" />
    <glyph glyph-name="Wcircumflex" unicode="&#x174;" horiz-adv-x="992" 
d="M600 0l-103 457l-101 -457h-190l-191 714h204l92 -466l100 461h177l102 -461l89 466h198l-185 -714h-192zM557 772l-60 69l-60 -69h-155l126 155h175l127 -155h-153z" />
    <glyph glyph-name="wcircumflex" unicode="&#x175;" horiz-adv-x="811" 
d="M484 0l-78 303l-78 -303h-170l-148 525h183l64 -309l81 305h144l81 -305l64 309h174l-148 -525h-169zM467 586l-60 77l-60 -77h-153l126 165h171l126 -165h-150z" />
    <glyph glyph-name="Ycircumflex" unicode="&#x176;" horiz-adv-x="690" 
d="M250 0v277l-240 437h208l129 -273l131 273h202l-237 -437v-277h-193zM406 772l-60 69l-60 -69h-155l126 155h175l127 -155h-153z" />
    <glyph glyph-name="ycircumflex" unicode="&#x177;" horiz-adv-x="596" 
d="M225 40l-215 485h196l100 -293l92 293h188l-210 -527q-33 -82 -60.5 -121.5t-60 -55t-83.5 -15.5q-59 0 -119 19l27 131q40 -8 60 -8q28 0 46 14.5t28 45.5zM360 586l-60 77l-60 -77h-153l126 165h171l126 -165h-150z" />
    <glyph glyph-name="Ydieresis" unicode="&#x178;" horiz-adv-x="690" 
d="M250 0v277l-240 437h208l129 -273l131 273h202l-237 -437v-277h-193zM147 775v144h168v-144h-168zM376 775v144h168v-144h-168z" />
    <glyph glyph-name="Zacute" unicode="&#x179;" horiz-adv-x="625" 
d="M32 0v138l322 418h-315v158h544v-138l-322 -418h342l-17 -158h-554zM365 772h-169l128 155h206z" />
    <glyph glyph-name="zacute" unicode="&#x17a;" horiz-adv-x="523" 
d="M36 0v115l231 272h-226v138h450v-115l-231 -272h243l-15 -138h-452zM153 586l125 165h202l-161 -165h-166z" />
    <glyph glyph-name="Zdotaccent" unicode="&#x17b;" horiz-adv-x="625" 
d="M32 0v138l322 418h-315v158h544v-138l-322 -418h342l-17 -158h-554zM219 775v147h184v-147h-184z" />
    <glyph glyph-name="zdotaccent" unicode="&#x17c;" horiz-adv-x="523" 
d="M36 0v115l231 272h-226v138h450v-115l-231 -272h243l-15 -138h-452zM175 583v131h183v-131h-183z" />
    <glyph glyph-name="Zcaron" unicode="&#x17d;" horiz-adv-x="625" 
d="M32 0v138l322 418h-315v158h544v-138l-322 -418h342l-17 -158h-554zM250 927l60 -69l60 69h155l-126 -155h-175l-127 155h153z" />
    <glyph glyph-name="zcaron" unicode="&#x17e;" horiz-adv-x="523" 
d="M36 0v115l231 272h-226v138h450v-115l-231 -272h243l-15 -138h-452zM181 586l-126 165h150l60 -77l60 77h153l-126 -165h-171z" />
    <glyph glyph-name="longs" unicode="&#x17f;" horiz-adv-x="301" 
d="M56 0v521q0 95 55 148t153 53q62 0 120 -18l-23 -128q-37 8 -61 8q-63 0 -63 -61v-523h-181z" />
    <glyph glyph-name="florin" unicode="&#x192;" 
d="M99 364h-84v141h84v16q0 95 55 148t153 53q62 0 120 -18l-23 -128q-37 8 -61 8q-63 0 -63 -61v-18h114v-141h-114v-354q0 -96 -47 -145t-139 -49q-60 0 -125 18l24 130q32 -7 52 -7q28 0 41 14.5t13 45.5v347z" />
    <glyph glyph-name="uni0218" unicode="&#x218;" horiz-adv-x="670" 
d="M274 290q-122 23 -177.5 75t-55.5 143q0 108 74.5 166t212.5 58q134 0 211 -56t88 -162l-186 -19q-10 45 -36.5 65t-77.5 20q-46 0 -71 -15.5t-25 -45.5q0 -25 19 -40t61 -23l97 -19q119 -23 175.5 -76.5t56.5 -144.5q0 -113 -78 -173.5t-223 -60.5q-146 0 -225 63.5
t-87 189.5h191q6 -51 37.5 -75t90.5 -24q50 0 76 17.5t26 51.5q0 28 -19.5 44t-59.5 23zM157 -236l85 170h195l-119 -170h-161z" />
    <glyph glyph-name="uni0219" unicode="&#x219;" horiz-adv-x="549" 
d="M350 364q-7 29 -25 41.5t-52 12.5q-32 0 -48.5 -10.5t-16.5 -29.5q0 -16 13 -25t47 -15l60 -11q105 -19 150 -57t45 -109q0 -177 -239 -177q-122 0 -186.5 46.5t-70.5 137.5h171q10 -54 84 -54q34 0 49.5 9.5t15.5 31.5q0 17 -12 26.5t-39 14.5l-61 10q-102 16 -149.5 56
t-47.5 108q0 82 61 126.5t174 44.5q106 0 168 -40.5t76 -119.5zM103 -233l84 167h195l-118 -167h-161z" />
    <glyph glyph-name="uni021A" unicode="&#x21a;" horiz-adv-x="650" 
d="M229 0v551h-206v163h604v-163h-206v-551h-192zM143 -236l85 170h195l-119 -170h-161z" />
    <glyph glyph-name="uni021B" unicode="&#x21b;" horiz-adv-x="423" 
d="M412 10q-61 -19 -124 -19q-100 0 -145 46.5t-45 151.5v195h-84v141h84v138h181v-138h114v-141h-114v-187q0 -32 14 -46.5t46 -14.5q25 0 50 6zM73 -233l84 167h195l-118 -167h-161z" />
    <glyph glyph-name="uni0237" unicode="&#x237;" horiz-adv-x="296" 
d="M60 525h181v-515q0 -96 -47 -145t-139 -49q-61 0 -125 18l24 130q32 -7 52 -7q28 0 41 14.5t13 45.5v508z" />
    <glyph glyph-name="uni02BC" unicode="&#x2bc;" horiz-adv-x="610" 
d="M200 429l36 285h173l-71 -285h-138z" />
    <glyph glyph-name="circumflex" unicode="&#x2c6;" horiz-adv-x="610" 
d="M366 586l-60 77l-60 -77h-153l126 165h171l126 -165h-150z" />
    <glyph glyph-name="caron" unicode="&#x2c7;" horiz-adv-x="610" 
d="M219 586l-126 165h150l60 -77l60 77h153l-126 -165h-171z" />
    <glyph glyph-name="uni02C9" unicode="&#x2c9;" horiz-adv-x="610" 
d="M147 594v129h315v-129h-315z" />
    <glyph glyph-name="uni02CB" unicode="&#x2cb;" horiz-adv-x="610" 
d="M303 586l-161 165h202l125 -165h-166z" />
    <glyph glyph-name="breve" unicode="&#x2d8;" horiz-adv-x="610" 
d="M482 749q0 -81 -45.5 -124t-131.5 -43t-131.5 43t-45.5 124h125q0 -62 52 -62t52 62h125z" />
    <glyph glyph-name="dotaccent" unicode="&#x2d9;" horiz-adv-x="610" 
d="M213 583v131h183v-131h-183z" />
    <glyph glyph-name="ring" unicode="&#x2da;" horiz-adv-x="610" 
d="M431 699q0 -55 -34.5 -88t-91.5 -33t-91.5 33t-34.5 88t34.5 88.5t91.5 33.5t91.5 -33.5t34.5 -88.5zM345 699q0 42 -41 42q-19 0 -29 -11t-10 -31t10.5 -30.5t28.5 -10.5q20 0 30.5 11t10.5 30z" />
    <glyph glyph-name="ogonek" unicode="&#x2db;" horiz-adv-x="610" 
d="M406 -201q-36 -5 -69 -5q-137 0 -137 89q0 37 19.5 64t66.5 59l123 -6q-37 -20 -53.5 -37.5t-16.5 -36.5q0 -28 37 -28q16 0 30 2v-101z" />
    <glyph glyph-name="tilde" unicode="&#x2dc;" horiz-adv-x="610" 
d="M507 751q0 -79 -31.5 -120.5t-91.5 -41.5q-20 0 -37.5 5t-41.5 17q-23 12 -33.5 15.5t-21.5 3.5q-35 0 -35 -41h-112q0 79 31.5 120.5t91.5 41.5q20 0 37.5 -5t41.5 -17q23 -12 33.5 -15.5t21.5 -3.5q35 0 35 41h112z" />
    <glyph glyph-name="hungarumlaut" unicode="&#x2dd;" horiz-adv-x="610" 
d="M55 583l109 165h170l-140 -165h-139zM275 583l109 165h170l-140 -165h-139z" />
    <glyph glyph-name="gravecomb" unicode="&#x300;" horiz-adv-x="0" 
d="M-53 586l-161 165h202l125 -165h-166z" />
    <glyph glyph-name="acutecomb" unicode="&#x301;" horiz-adv-x="0" 
d="M-113 586l125 165h202l-161 -165h-166z" />
    <glyph glyph-name="uni0302" unicode="&#x302;" horiz-adv-x="0" 
d="M62 586l-60 77l-60 -77h-153l126 165h171l126 -165h-150z" />
    <glyph glyph-name="tildecomb" unicode="&#x303;" horiz-adv-x="0" 
d="M202 751q0 -79 -31.5 -120.5t-91.5 -41.5q-20 0 -37.5 5t-41.5 17q-23 12 -33.5 15.5t-21.5 3.5q-35 0 -35 -41h-112q0 79 31.5 120.5t91.5 41.5q20 0 37.5 -5t41.5 -17q23 -12 33.5 -15.5t21.5 -3.5q35 0 35 41h112z" />
    <glyph glyph-name="uni0304" unicode="&#x304;" horiz-adv-x="0" 
d="M-157 594v129h315v-129h-315z" />
    <glyph glyph-name="uni0306" unicode="&#x306;" horiz-adv-x="0" 
d="M177 749q0 -81 -45.5 -124t-131.5 -43t-131.5 43t-45.5 124h125q0 -62 52 -62t52 62h125z" />
    <glyph glyph-name="uni0307" unicode="&#x307;" horiz-adv-x="0" 
d="M-91 583v131h183v-131h-183z" />
    <glyph glyph-name="uni0308" unicode="&#x308;" horiz-adv-x="0" 
d="M-190 583v133h160v-133h-160zM30 583v133h160v-133h-160z" />
    <glyph glyph-name="uni030A" unicode="&#x30a;" horiz-adv-x="0" 
d="M126 699q0 -55 -34.5 -88t-91.5 -33t-91.5 33t-34.5 88t34.5 88.5t91.5 33.5t91.5 -33.5t34.5 -88.5zM40 699q0 42 -41 42q-19 0 -29 -11t-10 -31t10.5 -30.5t28.5 -10.5q20 0 30.5 11t10.5 30z" />
    <glyph glyph-name="uni030B" unicode="&#x30b;" horiz-adv-x="0" 
d="M-180 583l109 165h170l-140 -165h-139zM40 583l109 165h170l-140 -165h-139z" />
    <glyph glyph-name="uni030C" unicode="&#x30c;" horiz-adv-x="0" 
d="M-85 586l-126 165h150l60 -77l60 77h153l-126 -165h-171z" />
    <glyph glyph-name="uni0312" unicode="&#x312;" horiz-adv-x="0" 
d="M-98 586l118 167h161l-84 -167h-195z" />
    <glyph glyph-name="uni0315" unicode="&#x315;" horiz-adv-x="0" 
d="M-68 442l33 272h168l-66 -272h-135z" />
    <glyph glyph-name="uni0326" unicode="&#x326;" horiz-adv-x="0" 
d="M-181 -233l84 167h195l-118 -167h-161z" />
    <glyph glyph-name="uni0327" unicode="&#x327;" horiz-adv-x="0" 
d="M-108 -138q45 -5 65 -5q24 0 35 5.5t11 18.5t-11.5 18.5t-42.5 5.5h-35l39 101l87 -6l-16 -45q97 -15 97 -87q0 -92 -148 -92q-38 0 -81 7v79z" />
    <glyph glyph-name="uni0328" unicode="&#x328;" horiz-adv-x="0" 
d="M63 -201q-36 -5 -69 -5q-137 0 -137 89q0 37 19.5 64t66.5 59l123 -6q-37 -20 -53.5 -37.5t-16.5 -36.5q0 -28 37 -28q16 0 30 2v-101z" />
    <glyph glyph-name="uni0394" unicode="&#x394;" horiz-adv-x="727" 
d="M15 0l239 714h219l239 -714h-697zM360 526l-113 -369h227z" />
    <glyph glyph-name="uni03A9" unicode="&#x3a9;" horiz-adv-x="773" 
d="M434 0v147q47 35 69.5 91t22.5 138q0 195 -139 195q-140 0 -140 -195q0 -82 22.5 -138t69.5 -91v-147h-312v152h117q-49 52 -70.5 109t-21.5 132q0 102 40 178.5t116.5 118.5t181.5 42q101 0 175.5 -39t115.5 -113.5t41 -177.5q0 -79 -22 -138.5t-70 -111.5h116l-16 -152
h-296z" />
    <glyph glyph-name="uni03BC" unicode="&#x3bc;" horiz-adv-x="610" 
d="M379 0v62q-41 -68 -101 -68q-26 0 -42 13v-201h-181v719h181v-322q0 -37 13.5 -53.5t44.5 -16.5q35 0 57 23q23 24 23 65v304h181v-525h-176z" />
    <glyph glyph-name="pi" unicode="&#x3c0;" horiz-adv-x="684" 
d="M659 1q-22 -8 -55 -13.5t-63 -5.5q-81 0 -118.5 41.5t-37.5 130.5v229h-108v-383h-181v383h-81v142h636v-142h-86v-211q0 -24 9.5 -35t31.5 -11q20 0 32 4z" />
    <glyph glyph-name="Wgrave" unicode="&#x1e80;" horiz-adv-x="992" 
d="M600 0l-103 457l-101 -457h-190l-191 714h204l92 -466l100 461h177l102 -461l89 466h198l-185 -714h-192zM442 772l-165 155h206l128 -155h-169z" />
    <glyph glyph-name="wgrave" unicode="&#x1e81;" horiz-adv-x="811" 
d="M484 0l-78 303l-78 -303h-170l-148 525h183l64 -309l81 305h144l81 -305l64 309h174l-148 -525h-169zM352 586l-161 165h202l125 -165h-166z" />
    <glyph glyph-name="Wacute" unicode="&#x1e82;" horiz-adv-x="992" 
d="M600 0l-103 457l-101 -457h-190l-191 714h204l92 -466l100 461h177l102 -461l89 466h198l-185 -714h-192zM550 772h-169l128 155h206z" />
    <glyph glyph-name="wacute" unicode="&#x1e83;" horiz-adv-x="811" 
d="M484 0l-78 303l-78 -303h-170l-148 525h183l64 -309l81 305h144l81 -305l64 309h174l-148 -525h-169zM292 586l125 165h202l-161 -165h-166z" />
    <glyph glyph-name="Wdieresis" unicode="&#x1e84;" horiz-adv-x="992" 
d="M600 0l-103 457l-101 -457h-190l-191 714h204l92 -466l100 461h177l102 -461l89 466h198l-185 -714h-192zM298 775v144h168v-144h-168zM527 775v144h168v-144h-168z" />
    <glyph glyph-name="wdieresis" unicode="&#x1e85;" horiz-adv-x="811" 
d="M484 0l-78 303l-78 -303h-170l-148 525h183l64 -309l81 305h144l81 -305l64 309h174l-148 -525h-169zM215 583v133h160v-133h-160zM435 583v133h160v-133h-160z" />
    <glyph glyph-name="uni1E9E" unicode="&#x1e9e;" horiz-adv-x="826" 
d="M474 268q-82 18 -124 58.5t-42 100.5q0 47 26.5 85.5t75.5 62.5h-82q-37 0 -55.5 -13.5t-26 -44t-7.5 -82.5v-435h-183v465q0 249 261 249h336v-114l-18 -12q-42 -28 -70 -46.5t-44 -31t-23 -23t-7 -22.5t6.5 -19.5t21.5 -13t57 -14.5l23 -5q78 -17 123 -44t64.5 -68.5
t19.5 -105.5q0 -103 -66 -158t-192 -55q-123 0 -188 54.5t-77 167.5h178q4 -40 24 -56.5t60 -16.5q37 0 55 14t18 45q0 21 -11.5 33t-38.5 21.5t-71 18.5z" />
    <glyph glyph-name="Ygrave" unicode="&#x1ef2;" horiz-adv-x="690" 
d="M250 0v277l-240 437h208l129 -273l131 273h202l-237 -437v-277h-193zM291 772l-165 155h206l128 -155h-169z" />
    <glyph glyph-name="ygrave" unicode="&#x1ef3;" horiz-adv-x="596" 
d="M225 40l-215 485h196l100 -293l92 293h188l-210 -527q-33 -82 -60.5 -121.5t-60 -55t-83.5 -15.5q-59 0 -119 19l27 131q40 -8 60 -8q28 0 46 14.5t28 45.5zM245 586l-161 165h202l125 -165h-166z" />
    <glyph glyph-name="uni2000" unicode="&#x2000;" horiz-adv-x="500" 
 />
    <glyph glyph-name="uni2001" unicode="&#x2001;" horiz-adv-x="1000" 
 />
    <glyph glyph-name="uni2002" unicode="&#x2002;" horiz-adv-x="500" 
 />
    <glyph glyph-name="uni2003" unicode="&#x2003;" horiz-adv-x="1000" 
 />
    <glyph glyph-name="uni2004" unicode="&#x2004;" horiz-adv-x="333" 
 />
    <glyph glyph-name="uni2005" unicode="&#x2005;" horiz-adv-x="250" 
 />
    <glyph glyph-name="uni2006" unicode="&#x2006;" horiz-adv-x="166" 
 />
    <glyph glyph-name="uni2007" unicode="&#x2007;" horiz-adv-x="592" 
 />
    <glyph glyph-name="uni2008" unicode="&#x2008;" horiz-adv-x="269" 
 />
    <glyph glyph-name="uni2009" unicode="&#x2009;" horiz-adv-x="200" 
 />
    <glyph glyph-name="uni200A" unicode="&#x200a;" horiz-adv-x="50" 
 />
    <glyph glyph-name="uni200B" unicode="&#x200b;" horiz-adv-x="0" 
 />
    <glyph glyph-name="uni2010" unicode="&#x2010;" horiz-adv-x="410" 
d="M39 217v167h332v-167h-332z" />
    <glyph glyph-name="uni2012" unicode="&#x2012;" horiz-adv-x="592" 
d="M46 265v160h500v-160h-500z" />
    <glyph glyph-name="endash" unicode="&#x2013;" horiz-adv-x="500" 
d="M0 220v160h500v-160h-500z" />
    <glyph glyph-name="emdash" unicode="&#x2014;" horiz-adv-x="1000" 
d="M0 220v160h1000v-160h-1000z" />
    <glyph glyph-name="uni2015" unicode="&#x2015;" horiz-adv-x="1000" 
d="M0 220v160h1000v-160h-1000z" />
    <glyph glyph-name="quoteleft" unicode="&#x2018;" horiz-adv-x="269" 
d="M36 429l71 285h138l-36 -285h-173z" />
    <glyph glyph-name="quoteright" unicode="&#x2019;" horiz-adv-x="269" 
d="M24 429l36 285h173l-71 -285h-138z" />
    <glyph glyph-name="quotesinglbase" unicode="&#x201a;" horiz-adv-x="269" 
d="M24 -94l36 285h173l-71 -285h-138z" />
    <glyph glyph-name="quotedblleft" unicode="&#x201c;" horiz-adv-x="489" 
d="M36 429l71 285h138l-36 -285h-173zM256 429l71 285h138l-36 -285h-173z" />
    <glyph glyph-name="quotedblright" unicode="&#x201d;" horiz-adv-x="489" 
d="M24 429l36 285h173l-71 -285h-138zM244 429l36 285h173l-71 -285h-138z" />
    <glyph glyph-name="quotedblbase" unicode="&#x201e;" horiz-adv-x="489" 
d="M24 -94l36 285h173l-71 -285h-138zM244 -94l36 285h173l-71 -285h-138z" />
    <glyph glyph-name="dagger" unicode="&#x2020;" horiz-adv-x="506" 
d="M163 -87v465h-145v161h145v175h180v-175h145v-161h-145v-465h-180z" />
    <glyph glyph-name="daggerdbl" unicode="&#x2021;" horiz-adv-x="506" 
d="M163 -87v172h-145v158h145v149h-145v158h145v164h180v-164h145v-158h-145v-149h145v-158h-145v-172h-180z" />
    <glyph glyph-name="bullet" unicode="&#x2022;" horiz-adv-x="409" 
d="M364 362q0 -70 -44.5 -115t-115.5 -45q-70 0 -115 45t-45 115q0 71 45 115.5t115 44.5q45 0 81.5 -19.5t57.5 -56t21 -84.5z" />
    <glyph glyph-name="ellipsis" unicode="&#x2026;" horiz-adv-x="1065" 
d="M48 0v191h174v-191h-174zM446 0v191h174v-191h-174zM844 0v191h174v-191h-174z" />
    <glyph glyph-name="perthousand" unicode="&#x2030;" horiz-adv-x="1417" 
d="M253 0l323 691h168l-323 -691h-168zM781 -13q-90 0 -139.5 56.5t-49.5 159.5t49.5 159.5t139.5 56.5t139.5 -56.5t49.5 -159.5q0 -102 -50 -159t-139 -57zM781 106q26 0 37 23t11 75q0 53 -11 74.5t-37 21.5t-37 -21.5t-11 -74.5q0 -52 11 -75t37 -23zM1198 -13
q-90 0 -139.5 56.5t-49.5 159.5t49.5 159.5t139.5 56.5t139.5 -56.5t49.5 -159.5q0 -102 -50 -159t-139 -57zM1198 106q26 0 37 23t11 75q0 53 -11 74.5t-37 21.5t-37 -21.5t-11 -74.5q0 -52 11 -75t37 -23zM219 276q-90 0 -139.5 56.5t-49.5 159.5t49.5 159.5t139.5 56.5
t139.5 -56.5t49.5 -159.5q0 -102 -50 -159t-139 -57zM219 395q26 0 37 23t11 75q0 53 -11 74.5t-37 21.5t-37 -21.5t-11 -74.5q0 -52 11 -75t37 -23z" />
    <glyph glyph-name="minute" unicode="&#x2032;" horiz-adv-x="280" 
d="M35 443l37 271h173l-72 -271h-138z" />
    <glyph glyph-name="second" unicode="&#x2033;" horiz-adv-x="542" 
d="M35 443l37 271h173l-72 -271h-138zM297 443l37 271h173l-72 -271h-138z" />
    <glyph glyph-name="guilsinglleft" unicode="&#x2039;" horiz-adv-x="361" 
d="M151 28l-122 229l122 228h185l-109 -228l109 -229h-185z" />
    <glyph glyph-name="guilsinglright" unicode="&#x203a;" horiz-adv-x="361" 
d="M25 28l109 228l-109 229h185l122 -229l-122 -228h-185z" />
    <glyph glyph-name="fraction" unicode="&#x2044;" horiz-adv-x="133" 
d="M-179 0l323 691h168l-323 -691h-168z" />
    <glyph glyph-name="uni2070" unicode="&#x2070;" 
d="M206 276q-90 0 -139.5 56.5t-49.5 159.5t49.5 159.5t139.5 56.5t139.5 -56.5t49.5 -159.5q0 -102 -50 -159t-139 -57zM206 395q26 0 37 23t11 75q0 53 -11 74.5t-37 21.5t-37 -21.5t-11 -74.5q0 -52 11 -75t37 -23z" />
    <glyph glyph-name="uni2074" unicode="&#x2074;" 
d="M214 289v74h-185v88l179 244h129v-237h50l-10 -95h-40v-74h-123zM214 560l-75 -102h75v102z" />
    <glyph glyph-name="uni2075" unicode="&#x2075;" 
d="M167 409q6 -33 39 -33q40 0 40 45q0 23 -9.5 33t-32.5 10q-21 0 -40 -16h-110l23 247h268v-100h-170l-4 -54q26 14 66 14q62 0 97.5 -36.5t35.5 -100.5q0 -68 -41.5 -105t-118.5 -37q-75 0 -117.5 34t-47.5 99h122z" />
    <glyph glyph-name="uni2076" unicode="&#x2076;" 
d="M252 576q-9 35 -39 35q-25 0 -37.5 -20t-15.5 -62q31 20 78 20q64 0 100 -34t36 -94q0 -67 -44.5 -106t-120.5 -39q-86 0 -130 52t-44 153q0 109 48.5 168t136.5 59q64 0 103.5 -31.5t48.5 -90.5zM209 369q22 0 34 12.5t12 35.5t-12 35t-34 12q-46 0 -46 -45
q0 -23 12 -36.5t34 -13.5z" />
    <glyph glyph-name="uni2077" unicode="&#x2077;" 
d="M100 289q49 165 119 297h-176v109h320v-91q-83 -153 -127 -315h-136z" />
    <glyph glyph-name="uni2078" unicode="&#x2078;" 
d="M318 499q61 -31 61 -98q0 -61 -45 -93t-129 -32q-83 0 -127.5 32t-44.5 91q0 69 60 100q-49 32 -49 90q0 57 42 88t119 31t119.5 -31t42.5 -88q0 -60 -49 -90zM254 408q0 41 -48 41t-48 -41q0 -40 48 -40t48 40zM247 579q0 18 -11 28t-30 10q-20 0 -31 -10t-11 -28
q0 -17 11 -27t31 -10q19 0 30 9.5t11 27.5z" />
    <glyph glyph-name="uni2079" unicode="&#x2079;" 
d="M161 403q5 -31 39 -31q26 0 38 19.5t12 62.5q-31 -20 -78 -20q-63 0 -99.5 34.5t-36.5 93.5q0 67 44.5 106.5t120.5 39.5q86 0 130 -53.5t44 -159.5q0 -108 -45.5 -163.5t-133.5 -55.5q-69 0 -109.5 33t-47.5 94h122zM247 564q0 24 -12 37t-35 13q-22 0 -33.5 -12
t-11.5 -34q0 -23 12 -36t34 -13t34 11.5t12 33.5z" />
    <glyph glyph-name="uni2080" unicode="&#x2080;" 
d="M206 -13q-90 0 -139.5 56.5t-49.5 159.5t49.5 159.5t139.5 56.5t139.5 -56.5t49.5 -159.5q0 -102 -50 -159t-139 -57zM206 106q26 0 37 23t11 75q0 53 -11 74.5t-37 21.5t-37 -21.5t-11 -74.5q0 -52 11 -75t37 -23z" />
    <glyph glyph-name="uni2081" unicode="&#x2081;" 
d="M173 0v276l-82 -50l-55 92l148 88h120v-406h-131z" />
    <glyph glyph-name="uni2082" unicode="&#x2082;" 
d="M51 0v95l101 79q52 41 68.5 61.5t16.5 43.5q0 33 -30 33q-17 0 -25.5 -11t-12.5 -36l-127 11q7 68 51.5 105t119.5 38q74 0 115 -34.5t41 -95.5q0 -37 -15.5 -65t-57.5 -67q-37 -34 -63 -53h143l-11 -104h-314z" />
    <glyph glyph-name="uni2083" unicode="&#x2083;" 
d="M177 162v90h31q40 0 40 36q0 34 -40 34q-20 0 -31 -10.5t-16 -34.5l-119 12q8 62 52 96t120 34q74 0 116.5 -31.5t42.5 -87.5q0 -55 -49 -85q28 -13 43.5 -38.5t15.5 -59.5q0 -60 -45.5 -95t-124.5 -35q-83 0 -128.5 40t-46.5 113h120q3 -58 51 -58q45 0 45 40t-46 40
h-31z" />
    <glyph glyph-name="uni2084" unicode="&#x2084;" 
d="M214 0v74h-185v88l179 244h129v-237h50l-10 -95h-40v-74h-123zM214 271l-75 -102h75v102z" />
    <glyph glyph-name="uni2085" unicode="&#x2085;" 
d="M167 120q6 -33 39 -33q40 0 40 45q0 23 -9.5 33t-32.5 10q-21 0 -40 -16h-110l23 247h268v-100h-170l-4 -54q26 14 66 14q62 0 97.5 -36.5t35.5 -100.5q0 -68 -41.5 -105t-118.5 -37q-75 0 -117.5 34t-47.5 99h122z" />
    <glyph glyph-name="uni2086" unicode="&#x2086;" 
d="M252 287q-9 35 -39 35q-25 0 -37.5 -20t-15.5 -62q31 20 78 20q64 0 100 -34t36 -94q0 -67 -44.5 -106t-120.5 -39q-86 0 -130 52t-44 153q0 109 48.5 168t136.5 59q64 0 103.5 -31.5t48.5 -90.5zM209 80q22 0 34 12.5t12 35.5t-12 35t-34 12q-46 0 -46 -45
q0 -23 12 -36.5t34 -13.5z" />
    <glyph glyph-name="uni2087" unicode="&#x2087;" 
d="M100 0q49 165 119 297h-176v109h320v-91q-83 -153 -127 -315h-136z" />
    <glyph glyph-name="uni2088" unicode="&#x2088;" 
d="M318 210q61 -31 61 -98q0 -61 -45 -93t-129 -32q-83 0 -127.5 32t-44.5 91q0 69 60 100q-49 32 -49 90q0 57 42 88t119 31t119.5 -31t42.5 -88q0 -60 -49 -90zM254 119q0 41 -48 41t-48 -41q0 -40 48 -40t48 40zM247 290q0 18 -11 28t-30 10q-20 0 -31 -10t-11 -28
q0 -17 11 -27t31 -10q19 0 30 9.5t11 27.5z" />
    <glyph glyph-name="uni2089" unicode="&#x2089;" 
d="M161 114q5 -31 39 -31q26 0 38 19.5t12 62.5q-31 -20 -78 -20q-63 0 -99.5 34.5t-36.5 93.5q0 67 44.5 106.5t120.5 39.5q86 0 130 -53.5t44 -159.5q0 -108 -45.5 -163.5t-133.5 -55.5q-69 0 -109.5 33t-47.5 94h122zM247 275q0 24 -12 37t-35 13q-22 0 -33.5 -12
t-11.5 -34q0 -23 12 -36t34 -13t34 11.5t12 33.5z" />
    <glyph glyph-name="Euro" unicode="&#x20ac;" horiz-adv-x="592" 
d="M585 194q-14 -103 -77 -157.5t-168 -54.5q-224 0 -261 250h-67l14 88h46v52h-60l14 88h55q42 250 266 250q195 0 229 -191l-167 -21q-9 35 -24.5 48.5t-46.5 13.5q-33 0 -53.5 -24.5t-29.5 -75.5h171l-14 -88h-165v-52h159l-14 -88h-138q10 -52 30.5 -76t56.5 -24
q58 0 70 62h174z" />
    <glyph glyph-name="uni20B9" unicode="&#x20b9;" horiz-adv-x="592" 
d="M313 0l-247 230v104h101q63 0 94.5 15.5t43.5 51.5h-239v109h238q-12 34 -44 49t-93 15h-101v117h497l-12 -109h-107q25 -33 33 -72h65l-13 -109h-49q-11 -72 -57 -116.5t-122 -57.5l238 -227h-226z" />
    <glyph glyph-name="uni20BA" unicode="&#x20ba;" horiz-adv-x="592" 
d="M563 305q-11 -149 -94.5 -227t-231.5 -78h-150v264l-50 -19l-31 86l81 31v55l-50 -19l-31 86l81 31v176h174v-110l123 47l32 -86l-155 -60v-55l123 48l32 -86l-155 -60v-174h10q50 0 84.5 41.5t38.5 108.5h169z" />
    <glyph glyph-name="afii61289" unicode="&#x2113;" horiz-adv-x="552" 
d="M531 77q-80 -95 -212 -95q-78 0 -130 34t-68 96l-57 -37l-47 91l85 58q-1 11 -1 43v204q0 122 57.5 191t160.5 69q85 0 133.5 -49.5t48.5 -136.5q0 -88 -53.5 -171t-161.5 -165q3 -46 20.5 -67t52.5 -21q50 0 98 47zM284 343q48 47 73 98t25 100q0 32 -11.5 49.5
t-32.5 17.5q-54 0 -54 -120v-145z" />
    <glyph glyph-name="trademark" unicode="&#x2122;" horiz-adv-x="946" 
d="M139 314v294h-119v106h358v-106h-119v-294h-120zM783 314v223l-72 -223h-100l-71 222v-222h-108v400h147l84 -264l84 264h146v-400h-110z" />
    <glyph glyph-name="uni2126" unicode="&#x2126;" horiz-adv-x="773" 
d="M434 0v147q47 35 69.5 91t22.5 138q0 195 -139 195q-140 0 -140 -195q0 -82 22.5 -138t69.5 -91v-147h-312v152h117q-49 52 -70.5 109t-21.5 132q0 102 40 178.5t116.5 118.5t181.5 42q101 0 175.5 -39t115.5 -113.5t41 -177.5q0 -79 -22 -138.5t-70 -111.5h116l-16 -152
h-296z" />
    <glyph glyph-name="estimated" unicode="&#x212e;" horiz-adv-x="911" 
d="M775 129q-54 -66 -139 -103t-182 -37q-107 0 -198.5 46.5t-148.5 130t-57 186.5q0 95 51.5 178t145 135t207.5 52q106 0 198.5 -46.5t150.5 -131t58 -187.5v-10h-657q-5 0 -5 -4v-199q0 -13 9 -22q49 -53 112.5 -80.5t135.5 -27.5q75 0 142 31t119 89h58zM711 568
q0 14 -9 24q-50 50 -113.5 76.5t-132.5 26.5q-68 0 -131.5 -27.5t-115.5 -79.5q-10 -7 -10 -24v-195q0 -7 5 -7h503q4 0 4 7v199z" />
    <glyph glyph-name="oneseventh" unicode="&#x2150;" horiz-adv-x="1001" 
d="M218 0l323 691h168l-323 -691h-168zM689 0q49 165 119 297h-176v109h320v-91q-83 -153 -127 -315h-136zM161 289v276l-82 -50l-55 92l148 88h120v-406h-131z" />
    <glyph glyph-name="oneninth" unicode="&#x2151;" horiz-adv-x="1001" 
d="M228 0l323 691h168l-323 -691h-168zM750 114q5 -31 39 -31q26 0 38 19.5t12 62.5q-31 -20 -78 -20q-63 0 -99.5 34.5t-36.5 93.5q0 67 44.5 106.5t120.5 39.5q86 0 130 -53.5t44 -159.5q0 -108 -45.5 -163.5t-133.5 -55.5q-69 0 -109.5 33t-47.5 94h122zM836 275
q0 24 -12 37t-35 13q-22 0 -33.5 -12t-11.5 -34q0 -23 12 -36t34 -13t34 11.5t12 33.5zM161 289v276l-82 -50l-55 92l148 88h120v-406h-131z" />
    <glyph glyph-name="onethird" unicode="&#x2153;" horiz-adv-x="1001" 
d="M233 0l323 691h168l-323 -691h-168zM766 162v90h31q40 0 40 36q0 34 -40 34q-20 0 -31 -10.5t-16 -34.5l-119 12q8 62 52 96t120 34q74 0 116.5 -31.5t42.5 -87.5q0 -55 -49 -85q28 -13 43.5 -38.5t15.5 -59.5q0 -60 -45.5 -95t-124.5 -35q-83 0 -128.5 40t-46.5 113h120
q3 -58 51 -58q45 0 45 40t-46 40h-31zM161 289v276l-82 -50l-55 92l148 88h120v-406h-131z" />
    <glyph glyph-name="twothirds" unicode="&#x2154;" horiz-adv-x="1001" 
d="M265 0l323 691h168l-323 -691h-168zM763 162v90h31q40 0 40 36q0 34 -40 34q-20 0 -31 -10.5t-16 -34.5l-119 12q8 62 52 96t120 34q74 0 116.5 -31.5t42.5 -87.5q0 -55 -49 -85q28 -13 43.5 -38.5t15.5 -59.5q0 -60 -45.5 -95t-124.5 -35q-83 0 -128.5 40t-46.5 113h120
q3 -58 51 -58q45 0 45 40t-46 40h-31zM49 289v95l101 79q52 41 68.5 61.5t16.5 43.5q0 33 -30 33q-17 0 -25.5 -11t-12.5 -36l-127 11q7 68 51.5 105t119.5 38q74 0 115 -34.5t41 -95.5q0 -37 -15.5 -65t-57.5 -67q-37 -34 -63 -53h143l-11 -104h-314z" />
    <glyph glyph-name="onefifth" unicode="&#x2155;" horiz-adv-x="1001" 
d="M230 0l323 691h168l-323 -691h-168zM759 120q6 -33 39 -33q40 0 40 45q0 23 -9.5 33t-32.5 10q-21 0 -40 -16h-110l23 247h268v-100h-170l-4 -54q26 14 66 14q62 0 97.5 -36.5t35.5 -100.5q0 -68 -41.5 -105t-118.5 -37q-75 0 -117.5 34t-47.5 99h122zM161 289v276
l-82 -50l-55 92l148 88h120v-406h-131z" />
    <glyph glyph-name="twofifths" unicode="&#x2156;" horiz-adv-x="1001" 
d="M263 0l323 691h168l-323 -691h-168zM756 120q6 -33 39 -33q40 0 40 45q0 23 -9.5 33t-32.5 10q-21 0 -40 -16h-110l23 247h268v-100h-170l-4 -54q26 14 66 14q62 0 97.5 -36.5t35.5 -100.5q0 -68 -41.5 -105t-118.5 -37q-75 0 -117.5 34t-47.5 99h122zM49 289v95l101 79
q52 41 68.5 61.5t16.5 43.5q0 33 -30 33q-17 0 -25.5 -11t-12.5 -36l-127 11q7 68 51.5 105t119.5 38q74 0 115 -34.5t41 -95.5q0 -37 -15.5 -65t-57.5 -67q-37 -34 -63 -53h143l-11 -104h-314z" />
    <glyph glyph-name="threefifths" unicode="&#x2157;" horiz-adv-x="1001" 
d="M260 0l323 691h168l-323 -691h-168zM759 120q6 -33 39 -33q40 0 40 45q0 23 -9.5 33t-32.5 10q-21 0 -40 -16h-110l23 247h268v-100h-170l-4 -54q26 14 66 14q62 0 97.5 -36.5t35.5 -100.5q0 -68 -41.5 -105t-118.5 -37q-75 0 -117.5 34t-47.5 99h122zM177 451v90h31
q40 0 40 36q0 34 -40 34q-20 0 -31 -10.5t-16 -34.5l-119 12q8 62 52 96t120 34q74 0 116.5 -31.5t42.5 -87.5q0 -55 -49 -85q28 -13 43.5 -38.5t15.5 -59.5q0 -60 -45.5 -95t-124.5 -35q-83 0 -128.5 40t-46.5 113h120q3 -58 51 -58q45 0 45 40t-46 40h-31z" />
    <glyph glyph-name="fourfifths" unicode="&#x2158;" horiz-adv-x="1001" 
d="M261 0l323 691h168l-323 -691h-168zM759 120q6 -33 39 -33q40 0 40 45q0 23 -9.5 33t-32.5 10q-21 0 -40 -16h-110l23 247h268v-100h-170l-4 -54q26 14 66 14q62 0 97.5 -36.5t35.5 -100.5q0 -68 -41.5 -105t-118.5 -37q-75 0 -117.5 34t-47.5 99h122zM214 289v74h-185
v88l179 244h129v-237h50l-10 -95h-40v-74h-123zM214 560l-75 -102h75v102z" />
    <glyph glyph-name="onesixth" unicode="&#x2159;" horiz-adv-x="1001" 
d="M233 0l323 691h168l-323 -691h-168zM841 287q-9 35 -39 35q-25 0 -37.5 -20t-15.5 -62q31 20 78 20q64 0 100 -34t36 -94q0 -67 -44.5 -106t-120.5 -39q-86 0 -130 52t-44 153q0 109 48.5 168t136.5 59q64 0 103.5 -31.5t48.5 -90.5zM798 80q22 0 34 12.5t12 35.5t-12 35
t-34 12q-46 0 -46 -45q0 -23 12 -36.5t34 -13.5zM161 289v276l-82 -50l-55 92l148 88h120v-406h-131z" />
    <glyph glyph-name="fivesixths" unicode="&#x215a;" horiz-adv-x="1001" 
d="M259 0l323 691h168l-323 -691h-168zM841 287q-9 35 -39 35q-25 0 -37.5 -20t-15.5 -62q31 20 78 20q64 0 100 -34t36 -94q0 -67 -44.5 -106t-120.5 -39q-86 0 -130 52t-44 153q0 109 48.5 168t136.5 59q64 0 103.5 -31.5t48.5 -90.5zM798 80q22 0 34 12.5t12 35.5t-12 35
t-34 12q-46 0 -46 -45q0 -23 12 -36.5t34 -13.5zM167 409q6 -33 39 -33q40 0 40 45q0 23 -9.5 33t-32.5 10q-21 0 -40 -16h-110l23 247h268v-100h-170l-4 -54q26 14 66 14q62 0 97.5 -36.5t35.5 -100.5q0 -68 -41.5 -105t-118.5 -37q-75 0 -117.5 34t-47.5 99h122z" />
    <glyph glyph-name="oneeighth" unicode="&#x215b;" horiz-adv-x="1001" 
d="M226 0l323 691h168l-323 -691h-168zM907 210q61 -31 61 -98q0 -61 -45 -93t-129 -32q-83 0 -127.5 32t-44.5 91q0 69 60 100q-49 32 -49 90q0 57 42 88t119 31t119.5 -31t42.5 -88q0 -60 -49 -90zM843 119q0 41 -48 41t-48 -41q0 -40 48 -40t48 40zM836 290q0 18 -11 28
t-30 10q-20 0 -31 -10t-11 -28q0 -17 11 -27t31 -10q19 0 30 9.5t11 27.5zM161 289v276l-82 -50l-55 92l148 88h120v-406h-131z" />
    <glyph glyph-name="threeeighths" unicode="&#x215c;" horiz-adv-x="1001" 
d="M257 0l323 691h168l-323 -691h-168zM907 210q61 -31 61 -98q0 -61 -45 -93t-129 -32q-83 0 -127.5 32t-44.5 91q0 69 60 100q-49 32 -49 90q0 57 42 88t119 31t119.5 -31t42.5 -88q0 -60 -49 -90zM843 119q0 41 -48 41t-48 -41q0 -40 48 -40t48 40zM836 290q0 18 -11 28
t-30 10q-20 0 -31 -10t-11 -28q0 -17 11 -27t31 -10q19 0 30 9.5t11 27.5zM177 451v90h31q40 0 40 36q0 34 -40 34q-20 0 -31 -10.5t-16 -34.5l-119 12q8 62 52 96t120 34q74 0 116.5 -31.5t42.5 -87.5q0 -55 -49 -85q28 -13 43.5 -38.5t15.5 -59.5q0 -60 -45.5 -95
t-124.5 -35q-83 0 -128.5 40t-46.5 113h120q3 -58 51 -58q45 0 45 40t-46 40h-31z" />
    <glyph glyph-name="fiveeighths" unicode="&#x215d;" horiz-adv-x="1001" 
d="M253 0l323 691h168l-323 -691h-168zM907 210q61 -31 61 -98q0 -61 -45 -93t-129 -32q-83 0 -127.5 32t-44.5 91q0 69 60 100q-49 32 -49 90q0 57 42 88t119 31t119.5 -31t42.5 -88q0 -60 -49 -90zM843 119q0 41 -48 41t-48 -41q0 -40 48 -40t48 40zM836 290q0 18 -11 28
t-30 10q-20 0 -31 -10t-11 -28q0 -17 11 -27t31 -10q19 0 30 9.5t11 27.5zM167 409q6 -33 39 -33q40 0 40 45q0 23 -9.5 33t-32.5 10q-21 0 -40 -16h-110l23 247h268v-100h-170l-4 -54q26 14 66 14q62 0 97.5 -36.5t35.5 -100.5q0 -68 -41.5 -105t-118.5 -37
q-75 0 -117.5 34t-47.5 99h122z" />
    <glyph glyph-name="seveneighths" unicode="&#x215e;" horiz-adv-x="1001" 
d="M218 0l323 691h168l-323 -691h-168zM907 210q61 -31 61 -98q0 -61 -45 -93t-129 -32q-83 0 -127.5 32t-44.5 91q0 69 60 100q-49 32 -49 90q0 57 42 88t119 31t119.5 -31t42.5 -88q0 -60 -49 -90zM843 119q0 41 -48 41t-48 -41q0 -40 48 -40t48 40zM836 290q0 18 -11 28
t-30 10q-20 0 -31 -10t-11 -28q0 -17 11 -27t31 -10q19 0 30 9.5t11 27.5zM98 289q49 165 119 297h-176v109h320v-91q-83 -153 -127 -315h-136z" />
    <glyph glyph-name="partialdiff" unicode="&#x2202;" horiz-adv-x="601" 
d="M81 531q19 88 78.5 133.5t155.5 45.5q124 0 185 -80t61 -241q0 -192 -77.5 -299.5t-215.5 -107.5q-70 0 -124.5 28t-85.5 80.5t-31 122.5q0 65 28.5 119.5t81.5 87t121 32.5q89 0 138 -55q1 6 1 24q0 71 -20.5 105t-63.5 34q-28 0 -45 -12t-25 -38zM275 123q42 0 68 30.5
t26 78.5q0 42 -21.5 64.5t-61.5 22.5q-44 0 -71 -28t-27 -74q0 -43 24 -68.5t63 -25.5z" />
    <glyph glyph-name="uni2206" unicode="&#x2206;" horiz-adv-x="727" 
d="M15 0l239 714h219l239 -714h-697zM360 526l-113 -369h227z" />
    <glyph glyph-name="product" unicode="&#x220f;" horiz-adv-x="741" 
d="M483 0v551h-225v-551h-192v714h609v-714h-192z" />
    <glyph glyph-name="summation" unicode="&#x2211;" horiz-adv-x="623" 
d="M26 -102v110l199 300l-199 294v112h571v-156h-334l164 -245l-172 -259h352l-16 -156h-565z" />
    <glyph glyph-name="minus" unicode="&#x2212;" horiz-adv-x="592" 
d="M78 261v159h436v-159h-436z" />
    <glyph glyph-name="uni2215" unicode="&#x2215;" horiz-adv-x="133" 
d="M-179 0l323 691h168l-323 -691h-168z" />
    <glyph glyph-name="uni2219" unicode="&#x2219;" horiz-adv-x="269" 
d="M48 278v191h174v-191h-174z" />
    <glyph glyph-name="radical" unicode="&#x221a;" horiz-adv-x="656" 
d="M225 0l-107 273h-89v158h220l66 -208l156 508h185l-255 -731h-176z" />
    <glyph glyph-name="infinity" unicode="&#x221e;" horiz-adv-x="596" 
d="M246 342q-5 27 -21.5 43.5t-38.5 16.5q-20 0 -31 -16t-11 -46q0 -29 11 -44.5t31 -15.5q22 0 38 16t22 46zM298 226q-48 -71 -130 -71q-68 0 -107.5 49.5t-39.5 135.5q0 87 39.5 137t108.5 50q82 0 129 -71q48 71 130 71q68 0 107.5 -49.5t39.5 -135.5q0 -87 -39.5 -137
t-108.5 -50q-82 0 -129 71zM350 340q5 -27 21.5 -43.5t38.5 -16.5q20 0 31 16t11 46q0 29 -11 44.5t-31 15.5q-22 0 -38 -16t-22 -46z" />
    <glyph glyph-name="integral" unicode="&#x222b;" horiz-adv-x="363" 
d="M71 493q-4 27 -4 50q0 86 47 132.5t134 46.5q66 0 115 -20l-23 -127q-27 9 -46 9q-28 0 -40.5 -14t-12.5 -43q0 -14 3 -32l54 -379q5 -42 5 -56q0 -86 -48 -133t-137 -47q-67 0 -118 20l23 127q29 -9 49 -9q30 0 43.5 14t13.5 43q0 14 -3 32z" />
    <glyph glyph-name="approxequal" unicode="&#x2248;" horiz-adv-x="592" 
d="M572 600q0 -119 -42.5 -180t-125.5 -61q-35 0 -62 10t-72 39q-31 20 -52 20q-22 0 -33.5 -17t-11.5 -49h-153q0 119 42.5 180t125.5 61q35 0 62 -10t72 -39q31 -20 52 -20q22 0 33.5 17t11.5 49h153zM572 322q0 -119 -42.5 -180t-125.5 -61q-35 0 -62 10t-72 39
q-31 20 -52 20q-22 0 -33.5 -17t-11.5 -49h-153q0 119 42.5 180t125.5 61q35 0 62 -10t72 -39q31 -20 52 -20q22 0 33.5 17t11.5 49h153z" />
    <glyph glyph-name="notequal" unicode="&#x2260;" horiz-adv-x="592" 
d="M279 152l-48 -105h-138l48 105h-66v151h134l36 77h-170v151h238l48 105h138l-48 -105h66v-151h-134l-36 -77h170v-151h-238z" />
    <glyph glyph-name="lessequal" unicode="&#x2264;" horiz-adv-x="592" 
d="M66 0v145h465v-145h-465zM66 343v150l465 159v-156l-281 -76l281 -77v-159z" />
    <glyph glyph-name="greaterequal" unicode="&#x2265;" horiz-adv-x="592" 
d="M61 0v145h465v-145h-465zM61 184v156l281 76l-281 77v159l465 -159v-150z" />
    <glyph glyph-name="lozenge" unicode="&#x25ca;" horiz-adv-x="625" 
d="M234 0l-205 357l205 357h157l205 -357l-205 -357h-157zM408 357l-96 171l-95 -171l96 -171z" />
    <glyph glyph-name="twosevenths" unicode="&#xf507;" horiz-adv-x="1001" 
d="M249 0l323 691h168l-323 -691h-168zM686 0q49 165 119 297h-176v109h320v-91q-83 -153 -127 -315h-136zM49 289v95l101 79q52 41 68.5 61.5t16.5 43.5q0 33 -30 33q-17 0 -25.5 -11t-12.5 -36l-127 11q7 68 51.5 105t119.5 38q74 0 115 -34.5t41 -95.5q0 -37 -15.5 -65
t-57.5 -67q-37 -34 -63 -53h143l-11 -104h-314z" />
    <glyph glyph-name="threesevenths" unicode="&#xf508;" horiz-adv-x="1001" 
d="M244 0l323 691h168l-323 -691h-168zM689 0q49 165 119 297h-176v109h320v-91q-83 -153 -127 -315h-136zM172 451v90h31q40 0 40 36q0 34 -40 34q-20 0 -31 -10.5t-16 -34.5l-119 12q8 62 52 96t120 34q74 0 116.5 -31.5t42.5 -87.5q0 -55 -49 -85q28 -13 43.5 -38.5
t15.5 -59.5q0 -60 -45.5 -95t-124.5 -35q-83 0 -128.5 40t-46.5 113h120q3 -58 51 -58q45 0 45 40t-46 40h-31z" />
    <glyph glyph-name="foursevenths" unicode="&#xf509;" horiz-adv-x="1001" 
d="M248 0l323 691h168l-323 -691h-168zM689 0q49 165 119 297h-176v109h320v-91q-83 -153 -127 -315h-136zM214 289v74h-185v88l179 244h129v-237h50l-10 -95h-40v-74h-123zM214 560l-75 -102h75v102z" />
    <glyph glyph-name="fivesevenths" unicode="&#xf50a;" horiz-adv-x="1001" 
d="M241 0l323 691h168l-323 -691h-168zM689 0q49 165 119 297h-176v109h320v-91q-83 -153 -127 -315h-136zM167 409q6 -33 39 -33q40 0 40 45q0 23 -9.5 33t-32.5 10q-21 0 -40 -16h-110l23 247h268v-100h-170l-4 -54q26 14 66 14q62 0 97.5 -36.5t35.5 -100.5
q0 -68 -41.5 -105t-118.5 -37q-75 0 -117.5 34t-47.5 99h122z" />
    <glyph glyph-name="sixsevenths" unicode="&#xf50b;" horiz-adv-x="1001" 
d="M237 0l323 691h168l-323 -691h-168zM689 0q49 165 119 297h-176v109h320v-91q-83 -153 -127 -315h-136zM252 576q-9 35 -39 35q-25 0 -37.5 -20t-15.5 -62q31 20 78 20q64 0 100 -34t36 -94q0 -67 -44.5 -106t-120.5 -39q-86 0 -130 52t-44 153q0 109 48.5 168t136.5 59
q64 0 103.5 -31.5t48.5 -90.5zM209 369q22 0 34 12.5t12 35.5t-12 35t-34 12q-46 0 -46 -45q0 -23 12 -36.5t34 -13.5z" />
    <glyph glyph-name="twoninths" unicode="&#xf50d;" horiz-adv-x="1001" 
d="M262 0l323 691h168l-323 -691h-168zM747 114q5 -31 39 -31q26 0 38 19.5t12 62.5q-31 -20 -78 -20q-63 0 -99.5 34.5t-36.5 93.5q0 67 44.5 106.5t120.5 39.5q86 0 130 -53.5t44 -159.5q0 -108 -45.5 -163.5t-133.5 -55.5q-69 0 -109.5 33t-47.5 94h122zM833 275
q0 24 -12 37t-35 13q-22 0 -33.5 -12t-11.5 -34q0 -23 12 -36t34 -13t34 11.5t12 33.5zM49 289v95l101 79q52 41 68.5 61.5t16.5 43.5q0 33 -30 33q-17 0 -25.5 -11t-12.5 -36l-127 11q7 68 51.5 105t119.5 38q74 0 115 -34.5t41 -95.5q0 -37 -15.5 -65t-57.5 -67
q-37 -34 -63 -53h143l-11 -104h-314z" />
    <glyph glyph-name="fourninths" unicode="&#xf50e;" horiz-adv-x="1001" 
d="M256 0l323 691h168l-323 -691h-168zM750 114q5 -31 39 -31q26 0 38 19.5t12 62.5q-31 -20 -78 -20q-63 0 -99.5 34.5t-36.5 93.5q0 67 44.5 106.5t120.5 39.5q86 0 130 -53.5t44 -159.5q0 -108 -45.5 -163.5t-133.5 -55.5q-69 0 -109.5 33t-47.5 94h122zM836 275
q0 24 -12 37t-35 13q-22 0 -33.5 -12t-11.5 -34q0 -23 12 -36t34 -13t34 11.5t12 33.5zM214 289v74h-185v88l179 244h129v-237h50l-10 -95h-40v-74h-123zM214 560l-75 -102h75v102z" />
    <glyph glyph-name="fiveninths" unicode="&#xf50f;" horiz-adv-x="1001" 
d="M252 0l323 691h168l-323 -691h-168zM750 114q5 -31 39 -31q26 0 38 19.5t12 62.5q-31 -20 -78 -20q-63 0 -99.5 34.5t-36.5 93.5q0 67 44.5 106.5t120.5 39.5q86 0 130 -53.5t44 -159.5q0 -108 -45.5 -163.5t-133.5 -55.5q-69 0 -109.5 33t-47.5 94h122zM836 275
q0 24 -12 37t-35 13q-22 0 -33.5 -12t-11.5 -34q0 -23 12 -36t34 -13t34 11.5t12 33.5zM167 409q6 -33 39 -33q40 0 40 45q0 23 -9.5 33t-32.5 10q-21 0 -40 -16h-110l23 247h268v-100h-170l-4 -54q26 14 66 14q62 0 97.5 -36.5t35.5 -100.5q0 -68 -41.5 -105t-118.5 -37
q-75 0 -117.5 34t-47.5 99h122z" />
    <glyph glyph-name="sevenninths" unicode="&#xf510;" horiz-adv-x="1001" 
d="M214 0l323 691h168l-323 -691h-168zM750 114q5 -31 39 -31q26 0 38 19.5t12 62.5q-31 -20 -78 -20q-63 0 -99.5 34.5t-36.5 93.5q0 67 44.5 106.5t120.5 39.5q86 0 130 -53.5t44 -159.5q0 -108 -45.5 -163.5t-133.5 -55.5q-69 0 -109.5 33t-47.5 94h122zM836 275
q0 24 -12 37t-35 13q-22 0 -33.5 -12t-11.5 -34q0 -23 12 -36t34 -13t34 11.5t12 33.5zM92 289q49 165 119 297h-176v109h320v-91q-83 -153 -127 -315h-136z" />
    <glyph glyph-name="eightninths" unicode="&#xf511;" horiz-adv-x="1001" 
d="M258 0l323 691h168l-323 -691h-168zM750 114q5 -31 39 -31q26 0 38 19.5t12 62.5q-31 -20 -78 -20q-63 0 -99.5 34.5t-36.5 93.5q0 67 44.5 106.5t120.5 39.5q86 0 130 -53.5t44 -159.5q0 -108 -45.5 -163.5t-133.5 -55.5q-69 0 -109.5 33t-47.5 94h122zM836 275
q0 24 -12 37t-35 13q-22 0 -33.5 -12t-11.5 -34q0 -23 12 -36t34 -13t34 11.5t12 33.5zM318 499q61 -31 61 -98q0 -61 -45 -93t-129 -32q-83 0 -127.5 32t-44.5 91q0 69 60 100q-49 32 -49 90q0 57 42 88t119 31t119.5 -31t42.5 -88q0 -60 -49 -90zM254 408q0 41 -48 41
t-48 -41q0 -40 48 -40t48 40zM247 579q0 18 -11 28t-30 10q-20 0 -31 -10t-11 -28q0 -17 11 -27t31 -10q19 0 30 9.5t11 27.5z" />
    <glyph glyph-name="zero.numr" unicode="&#xf80a;" 
d="M206 396q-90 0 -139.5 56.5t-49.5 159.5t49.5 159.5t139.5 56.5t139.5 -56.5t49.5 -159.5q0 -102 -50 -159t-139 -57zM206 515q26 0 37 23t11 75q0 53 -11 74.5t-37 21.5t-37 -21.5t-11 -74.5q0 -52 11 -75t37 -23z" />
    <glyph glyph-name="one.numr" unicode="&#xf80b;" 
d="M173 409v276l-82 -50l-55 92l148 88h120v-406h-131z" />
    <glyph glyph-name="two.numr" unicode="&#xf80c;" 
d="M51 409v95l101 79q52 41 68.5 61.5t16.5 43.5q0 33 -30 33q-17 0 -25.5 -11t-12.5 -36l-127 11q7 68 51.5 105t119.5 38q74 0 115 -34.5t41 -95.5q0 -37 -15.5 -65t-57.5 -67q-37 -34 -63 -53h143l-11 -104h-314z" />
    <glyph glyph-name="three.numr" unicode="&#xf80d;" 
d="M177 571v90h31q40 0 40 36q0 34 -40 34q-20 0 -31 -10.5t-16 -34.5l-119 12q8 62 52 96t120 34q74 0 116.5 -31.5t42.5 -87.5q0 -55 -49 -85q28 -13 43.5 -38.5t15.5 -59.5q0 -60 -45.5 -95t-124.5 -35q-83 0 -128.5 40t-46.5 113h120q3 -58 51 -58q45 0 45 40t-46 40
h-31z" />
    <glyph glyph-name="four.numr" unicode="&#xf80e;" 
d="M214 409v74h-185v88l179 244h129v-237h50l-10 -95h-40v-74h-123zM214 680l-75 -102h75v102z" />
    <glyph glyph-name="five.numr" unicode="&#xf80f;" 
d="M167 529q6 -33 39 -33q40 0 40 45q0 23 -9.5 33t-32.5 10q-21 0 -40 -16h-110l23 247h268v-100h-170l-4 -54q26 14 66 14q62 0 97.5 -36.5t35.5 -100.5q0 -68 -41.5 -105t-118.5 -37q-75 0 -117.5 34t-47.5 99h122z" />
    <glyph glyph-name="six.numr" unicode="&#xf810;" 
d="M252 696q-9 35 -39 35q-25 0 -37.5 -20t-15.5 -62q31 20 78 20q64 0 100 -34t36 -94q0 -67 -44.5 -106t-120.5 -39q-86 0 -130 52t-44 153q0 109 48.5 168t136.5 59q64 0 103.5 -31.5t48.5 -90.5zM209 489q22 0 34 12.5t12 35.5t-12 35t-34 12q-46 0 -46 -45
q0 -23 12 -36.5t34 -13.5z" />
    <glyph glyph-name="seven.numr" unicode="&#xf811;" 
d="M100 409q49 165 119 297h-176v109h320v-91q-83 -153 -127 -315h-136z" />
    <glyph glyph-name="eight.numr" unicode="&#xf812;" 
d="M318 619q61 -31 61 -98q0 -61 -45 -93t-129 -32q-83 0 -127.5 32t-44.5 91q0 69 60 100q-49 32 -49 90q0 57 42 88t119 31t119.5 -31t42.5 -88q0 -60 -49 -90zM254 528q0 41 -48 41t-48 -41q0 -40 48 -40t48 40zM247 699q0 18 -11 28t-30 10q-20 0 -31 -10t-11 -28
q0 -17 11 -27t31 -10q19 0 30 9.5t11 27.5z" />
    <glyph glyph-name="nine.numr" unicode="&#xf813;" 
d="M161 523q5 -31 39 -31q26 0 38 19.5t12 62.5q-31 -20 -78 -20q-63 0 -99.5 34.5t-36.5 93.5q0 67 44.5 106.5t120.5 39.5q86 0 130 -53.5t44 -159.5q0 -108 -45.5 -163.5t-133.5 -55.5q-69 0 -109.5 33t-47.5 94h122zM247 684q0 24 -12 37t-35 13q-22 0 -33.5 -12
t-11.5 -34q0 -23 12 -36t34 -13t34 11.5t12 33.5z" />
    <glyph glyph-name="zero.dnom" unicode="&#xf814;" 
d="M206 -133q-90 0 -139.5 56.5t-49.5 159.5t49.5 159.5t139.5 56.5t139.5 -56.5t49.5 -159.5q0 -102 -50 -159t-139 -57zM206 -14q26 0 37 23t11 75q0 53 -11 74.5t-37 21.5t-37 -21.5t-11 -74.5q0 -52 11 -75t37 -23z" />
    <glyph glyph-name="one.dnom" unicode="&#xf815;" 
d="M173 -120v276l-82 -50l-55 92l148 88h120v-406h-131z" />
    <glyph glyph-name="two.dnom" unicode="&#xf816;" 
d="M51 -120v95l101 79q52 41 68.5 61.5t16.5 43.5q0 33 -30 33q-17 0 -25.5 -11t-12.5 -36l-127 11q7 68 51.5 105t119.5 38q74 0 115 -34.5t41 -95.5q0 -37 -15.5 -65t-57.5 -67q-37 -34 -63 -53h143l-11 -104h-314z" />
    <glyph glyph-name="three.dnom" unicode="&#xf817;" 
d="M177 42v90h31q40 0 40 36q0 34 -40 34q-20 0 -31 -10.5t-16 -34.5l-119 12q8 62 52 96t120 34q74 0 116.5 -31.5t42.5 -87.5q0 -55 -49 -85q28 -13 43.5 -38.5t15.5 -59.5q0 -60 -45.5 -95t-124.5 -35q-83 0 -128.5 40t-46.5 113h120q3 -58 51 -58q45 0 45 40t-46 40h-31
z" />
    <glyph glyph-name="four.dnom" unicode="&#xf818;" 
d="M214 -120v74h-185v88l179 244h129v-237h50l-10 -95h-40v-74h-123zM214 151l-75 -102h75v102z" />
    <glyph glyph-name="five.dnom" unicode="&#xf819;" 
d="M167 0q6 -33 39 -33q40 0 40 45q0 23 -9.5 33t-32.5 10q-21 0 -40 -16h-110l23 247h268v-100h-170l-4 -54q26 14 66 14q62 0 97.5 -36.5t35.5 -100.5q0 -68 -41.5 -105t-118.5 -37q-75 0 -117.5 34t-47.5 99h122z" />
    <glyph glyph-name="six.dnom" unicode="&#xf81a;" 
d="M252 167q-9 35 -39 35q-25 0 -37.5 -20t-15.5 -62q31 20 78 20q64 0 100 -34t36 -94q0 -67 -44.5 -106t-120.5 -39q-86 0 -130 52t-44 153q0 109 48.5 168t136.5 59q64 0 103.5 -31.5t48.5 -90.5zM209 -40q22 0 34 12.5t12 35.5t-12 35t-34 12q-46 0 -46 -45
q0 -23 12 -36.5t34 -13.5z" />
    <glyph glyph-name="seven.dnom" unicode="&#xf81b;" 
d="M100 -120q49 165 119 297h-176v109h320v-91q-83 -153 -127 -315h-136z" />
    <glyph glyph-name="eight.dnom" unicode="&#xf81c;" 
d="M318 90q61 -31 61 -98q0 -61 -45 -93t-129 -32q-83 0 -127.5 32t-44.5 91q0 69 60 100q-49 32 -49 90q0 57 42 88t119 31t119.5 -31t42.5 -88q0 -60 -49 -90zM254 -1q0 41 -48 41t-48 -41q0 -40 48 -40t48 40zM247 170q0 18 -11 28t-30 10q-20 0 -31 -10t-11 -28
q0 -17 11 -27t31 -10q19 0 30 9.5t11 27.5z" />
    <glyph glyph-name="nine.dnom" unicode="&#xf81d;" 
d="M161 -6q5 -31 39 -31q26 0 38 19.5t12 62.5q-31 -20 -78 -20q-63 0 -99.5 34.5t-36.5 93.5q0 67 44.5 106.5t120.5 39.5q86 0 130 -53.5t44 -159.5q0 -108 -45.5 -163.5t-133.5 -55.5q-69 0 -109.5 33t-47.5 94h122zM247 155q0 24 -12 37t-35 13q-22 0 -33.5 -12
t-11.5 -34q0 -23 12 -36t34 -13t34 11.5t12 33.5z" />
    <glyph glyph-name="fi" unicode="&#xfb01;" horiz-adv-x="712" 
d="M99 0v364h-84v141h84v16q0 95 55 148t153 53q62 0 120 -18l-23 -128q-37 8 -61 8q-63 0 -63 -61v-18h114v-141h-114v-364h-181zM476 0v525h181v-525h-181zM475 583v131h183v-131h-183z" />
    <glyph glyph-name="fl" unicode="&#xfb02;" horiz-adv-x="711" 
d="M99 0v364h-84v141h84v16q0 95 55 148t153 53q62 0 120 -18l-23 -128q-37 8 -61 8q-63 0 -63 -61v-18h114v-141h-114v-364h-181zM475 0v714h181v-714h-181z" />
    <glyph glyph-name="uniFEFF" unicode="&#xfeff;" horiz-adv-x="0" 
 />
    <glyph glyph-name="zero.pnum" horiz-adv-x="620" 
d="M307 -18q-133 0 -197.5 89.5t-64.5 272.5q0 366 268 366q133 0 197.5 -89.5t64.5 -272.5q0 -366 -268 -366zM310 139q30 0 47 20.5t24 65.5t7 121q0 80 -8 124.5t-24.5 63.5t-45.5 19q-30 0 -47 -20.5t-24 -65.5t-7 -121q0 -80 8 -124.5t24.5 -63.5t45.5 -19z" />
    <glyph glyph-name="one.pnum" horiz-adv-x="484" 
d="M214 0v486l-112 -75l-84 131l227 149h153v-691h-184z" />
    <glyph glyph-name="two.pnum" horiz-adv-x="590" 
d="M45 0v136l165 138q89 75 120.5 118t31.5 89q0 36 -18 55.5t-53 19.5q-36 0 -57 -22t-28 -67l-174 17q15 110 84.5 168t184.5 58q116 0 180 -57t64 -160q0 -70 -34 -129t-116 -131l-94 -82h255l-16 -151h-495z" />
    <glyph glyph-name="three.pnum" horiz-adv-x="594" 
d="M233 281v147h64q67 0 67 65t-69 65q-36 0 -55 -19.5t-27 -63.5l-172 18q13 105 81.5 161t184.5 56q111 0 174.5 -51t63.5 -140q0 -53 -23.5 -92t-68.5 -60q109 -44 109 -168q0 -66 -31.5 -114.5t-91.5 -75.5t-143 -27q-128 0 -195.5 65t-67.5 189h178q3 -53 24 -78
t62 -25q38 0 58.5 19.5t20.5 56.5t-20.5 54.5t-63.5 17.5h-59z" />
    <glyph glyph-name="four.pnum" horiz-adv-x="601" 
d="M332 0v137h-299v134l293 420h178v-417h79l-16 -137h-63v-137h-172zM332 471l-138 -197h138v197z" />
    <glyph glyph-name="five.pnum" horiz-adv-x="584" 
d="M222 206q9 -74 74 -74q37 0 56.5 24t19.5 69q0 91 -79 91q-50 0 -80 -36h-156l36 411h416v-151h-274l-11 -113q42 30 114 30q100 0 156 -61.5t56 -170.5q0 -116 -66.5 -179.5t-187.5 -63.5q-116 0 -182 58.5t-72 165.5h180z" />
    <glyph glyph-name="six.pnum" horiz-adv-x="600" 
d="M390 500q-8 32 -25.5 47t-46.5 15q-47 0 -71 -39t-27 -123q53 47 135 47q98 0 154 -58.5t56 -160.5q0 -114 -69 -180t-188 -66q-131 0 -197 86.5t-66 258.5q0 183 74 283t210 100q97 0 156.5 -50t72.5 -143zM308 124q40 0 62.5 26.5t22.5 72.5q0 44 -21 67.5t-61 23.5
q-85 0 -85 -91q0 -47 21.5 -73t60.5 -26z" />
    <glyph glyph-name="seven.pnum" horiz-adv-x="580" 
d="M126 0q73 264 213 535h-302v156h502v-135q-140 -257 -220 -556h-193z" />
    <glyph glyph-name="eight.pnum" horiz-adv-x="603" 
d="M472 357q103 -49 103 -167q0 -100 -70.5 -154t-200.5 -54q-129 0 -198 53t-69 153q0 120 102 169q-41 23 -62.5 61.5t-21.5 90.5q0 95 66.5 148t186.5 53q118 0 183 -52t65 -146q0 -106 -84 -155zM402 206q0 79 -96 79t-96 -80q0 -81 96 -81t96 82zM389 494q0 76 -85 76
q-84 0 -84 -76q0 -73 84 -73q85 0 85 73z" />
    <glyph glyph-name="nine.pnum" horiz-adv-x="601" 
d="M215 189q9 -60 71 -60q49 0 72 39t23 123q-51 -48 -135 -48q-98 0 -154.5 59.5t-56.5 162.5q0 113 69 179t188 66q132 0 198 -88t66 -267q0 -184 -69 -278.5t-204 -94.5q-69 0 -120.5 24t-82 70.5t-35.5 112.5h170zM376 468q0 47 -21.5 73.5t-60.5 26.5q-40 0 -63 -26
t-23 -72q0 -45 21 -69t61 -24q41 0 63.5 23.5t22.5 67.5z" />
    <glyph glyph-name="hyphen.case" horiz-adv-x="410" 
d="M39 274v167h332v-167h-332z" />
    <glyph glyph-name="endash.case" horiz-adv-x="500" 
d="M0 277v160h500v-160h-500z" />
    <glyph glyph-name="emdash.case" horiz-adv-x="1000" 
d="M0 277v160h1000v-160h-1000z" />
    <glyph glyph-name="parenleft.case" horiz-adv-x="343" 
d="M166 -72q-61 90 -93.5 200.5t-32.5 228.5t32.5 228.5t93.5 200.5h175q-57 -103 -84.5 -208t-27.5 -221t27.5 -221t84.5 -208h-175z" />
    <glyph glyph-name="parenright.case" horiz-adv-x="343" 
d="M2 -72q57 103 84.5 208t27.5 221t-27.5 221t-84.5 208h175q61 -90 93.5 -200.5t32.5 -228.5t-32.5 -228.5t-93.5 -200.5h-175z" />
    <glyph glyph-name="slash.case" horiz-adv-x="428" 
d="M8 -9l233 734h179l-233 -734h-179z" />
    <glyph glyph-name="backslash.case" horiz-adv-x="428" 
d="M241 -9l-233 734h179l233 -734h-179z" />
    <glyph glyph-name="bracketleft.case" horiz-adv-x="382" 
d="M65 -72v858h296v-154h-114v-550h114v-154h-296z" />
    <glyph glyph-name="bracketright.case" horiz-adv-x="382" 
d="M21 -72v154h114v550h-114v154h296v-858h-296z" />
    <glyph glyph-name="braceleft.case" horiz-adv-x="387" 
d="M271 -72q-89 0 -134.5 44t-45.5 130v111q0 34 -16 52t-47 18h-10v148h10q31 0 47 18t16 52v111q0 86 45.5 130t134.5 44h97v-153h-53q-52 0 -52 -53v-113q0 -41 -17 -69t-50 -41q33 -13 50 -41t17 -69v-113q0 -53 52 -53h53v-153h-97z" />
    <glyph glyph-name="braceright.case" horiz-adv-x="387" 
d="M19 -72v153h53q52 0 52 53v113q0 41 17 69t50 41q-33 13 -50 41t-17 69v113q0 53 -52 53h-53v153h97q89 0 134.5 -44t45.5 -130v-111q0 -34 16 -52t47 -18h10v-148h-10q-31 0 -47 -18t-16 -52v-111q0 -86 -45.5 -130t-134.5 -44h-97z" />
    <glyph glyph-name="bullet.case" horiz-adv-x="409" 
d="M364 358q0 -70 -44.5 -115t-115.5 -45q-70 0 -115 45t-45 115q0 71 45 115.5t115 44.5q45 0 81.5 -19.5t57.5 -56t21 -84.5z" />
    <glyph glyph-name="guilsinglleft.case" horiz-adv-x="361" 
d="M151 128l-122 229l122 228h185l-109 -228l109 -229h-185z" />
    <glyph glyph-name="guilsinglright.case" horiz-adv-x="361" 
d="M25 128l109 228l-109 229h185l122 -229l-122 -228h-185z" />
    <glyph glyph-name="guillemotleft.case" horiz-adv-x="626" 
d="M151 128l-122 229l122 228h185l-109 -228l109 -229h-185zM416 128l-122 229l122 228h185l-109 -228l109 -229h-185z" />
    <glyph glyph-name="guillemotright.case" horiz-adv-x="626" 
d="M25 128l109 228l-109 229h185l122 -229l-122 -228h-185zM290 128l109 228l-109 229h185l122 -229l-122 -228h-185z" />
    <glyph glyph-name="at.case" horiz-adv-x="1018" 
d="M837 65q-31 -54 -84.5 -94t-125 -62t-152.5 -22q-129 0 -226.5 52t-152 150.5t-54.5 232.5q0 140 64.5 254t183.5 181.5t271 67.5q122 0 216 -48t147.5 -138.5t53.5 -211.5q0 -91 -31 -162t-89 -111.5t-135 -40.5q-55 0 -91.5 20.5t-51.5 58.5q-54 -82 -142 -82
q-76 0 -119 53t-43 146q0 75 28 138.5t79 102.5t114 39q71 0 107 -55l8 45h151l-50 -296q-2 -14 -2 -20q0 -38 34 -38q44 0 74 57.5t30 142.5q0 137 -76 211.5t-216 74.5q-110 0 -196.5 -47.5t-136.5 -136t-50 -206.5q0 -150 81.5 -235t227.5 -85q60 0 106 15.5t84 48.5h164
zM569 372q3 21 3 35q0 59 -46 59q-38 0 -62 -40.5t-24 -106.5q0 -40 11.5 -58t37.5 -18q60 0 75 97z" />
    <glyph glyph-name="periodcentered.case" horiz-adv-x="269" 
d="M48 261v191h174v-191h-174z" />
    <glyph glyph-name="questiondown.case" horiz-adv-x="538" 
d="M353 485v-21q0 -32 -7.5 -59t-23.5 -50t-52 -55q-17 -15 -31.5 -29t-23 -30.5t-8.5 -36.5q0 -29 18.5 -45t50.5 -16q70 0 82 79l167 -17q-13 -105 -80 -161t-180 -56q-112 0 -177 50.5t-65 137.5q0 44 17.5 80t55.5 74q52 52 67.5 71t20 33t4.5 38v13h165zM356 714v-173
h-169v173h169z" />
    <glyph glyph-name="exclamdown.case" horiz-adv-x="307" 
d="M55 0l18 485h161l18 -485h-197zM69 541v173h169v-173h-169z" />
    <glyph glyph-name="periodcentered.loclCAT" horiz-adv-x="269" 
d="M48 278v191h174v-191h-174z" />
    <glyph glyph-name="periodcentered.loclCAT.cap" horiz-adv-x="269" 
d="M48 331v191h174v-191h-174z" />
    <glyph glyph-name="i.locl" horiz-adv-x="291" 
d="M55 0v525h181v-525h-181zM54 583v131h183v-131h-183z" />
    <glyph glyph-name="Eng.locl" horiz-adv-x="739" 
d="M481 455q0 59 -22 85.5t-71 26.5q-29 0 -51.5 -9t-42.5 -29t-28 -42.5t-8 -59.5v-427h-192v714h177v-77q38 45 93.5 70t118.5 25q102 0 160 -65t58 -181v-451q0 -127 -58 -186t-181 -59q-85 0 -146 21l35 147q44 -11 79 -11q44 0 61.5 17.5t17.5 60.5v430z" />
    <glyph glyph-name="uni0327.cap" horiz-adv-x="0" 
d="M-109 -143q36 -5 65 -5q48 0 48 26q0 14 -13 19.5t-42 5.5h-36l40 102l89 -5l-17 -47q101 -12 101 -89q0 -94 -153 -94q-40 0 -82 7v80z" />
    <glyph glyph-name="uni0326.cap" horiz-adv-x="0" 
d="M-182 -236l85 170h195l-119 -170h-161z" />
    <glyph glyph-name="uni0328.cap" horiz-adv-x="0" 
d="M64 -204q-43 -5 -71 -5q-74 0 -109.5 22t-35.5 69q0 36 19.5 61.5t74.5 62.5l125 -6q-39 -20 -56.5 -38t-17.5 -37q0 -29 40 -29q13 0 31 2v-102z" />
    <glyph glyph-name="uni0328.round" horiz-adv-x="0" 
d="M63 -201q-36 -5 -69 -5q-137 0 -137 89q0 37 19.5 64t66.5 59l104 -6q-51 -35 -51 -70q0 -32 36 -32q13 0 31 2v-101z" />
    <glyph glyph-name="uni0328.round.cap" horiz-adv-x="0" 
d="M64 -204q-43 -5 -71 -5q-74 0 -109.5 22t-35.5 69q0 36 19.5 61.5t74.5 62.5l108 -6q-57 -36 -57 -72q0 -32 40 -32q13 0 31 2v-102z" />
    <glyph glyph-name="iogonek.dotless" horiz-adv-x="291" 
d="M55 0v525h181v-525h-181zM233 -201q-36 -5 -69 -5q-137 0 -137 89q0 37 19.5 64t66.5 59l123 -6q-37 -20 -53.5 -37.5t-16.5 -36.5q0 -28 37 -28q16 0 30 2v-101z" />
    <glyph glyph-name="acutecomb.cap" horiz-adv-x="0" 
d="M54 772h-169l128 155h206z" />
    <glyph glyph-name="uni030B.cap" horiz-adv-x="0" 
d="M-188 772l118 155h178l-151 -155h-145zM42 772l118 155h178l-151 -155h-145z" />
    <glyph glyph-name="gravecomb.cap" horiz-adv-x="0" 
d="M-54 772l-165 155h206l128 -155h-169z" />
    <glyph glyph-name="uni0302.cap" horiz-adv-x="0" 
d="M61 772l-60 69l-60 -69h-155l126 155h175l127 -155h-153z" />
    <glyph glyph-name="tildecomb.cap" horiz-adv-x="0" 
d="M208 930q0 -78 -33 -119.5t-95 -41.5q-41 0 -80 21q-22 12 -33 16t-23 4q-36 0 -36 -41h-116q0 78 33 119.5t95 41.5q41 0 80 -21q22 -12 33 -16t23 -4q36 0 36 41h116z" />
    <glyph glyph-name="uni030C.cap" horiz-adv-x="0" 
d="M-61 927l60 -69l60 69h155l-126 -155h-175l-127 155h153z" />
    <glyph glyph-name="uni0315.short" horiz-adv-x="0" 
d="M-62 579l23 184h145l-45 -184h-123z" />
    <glyph glyph-name="uni0304.cap" horiz-adv-x="0" 
d="M-164 784v132h329v-132h-329z" />
    <glyph glyph-name="uni0308.cap" horiz-adv-x="0" 
d="M-198 775v144h168v-144h-168zM31 775v144h168v-144h-168z" />
    <glyph glyph-name="uni0306.cap" horiz-adv-x="0" 
d="M182 931q0 -78 -47 -120t-135 -42t-134.5 41.5t-46.5 120.5h128q0 -27 13.5 -42t37.5 -15q27 0 41.5 14.5t14.5 42.5h128z" />
    <glyph glyph-name="uni0307.cap" horiz-adv-x="0" 
d="M-92 775v147h184v-147h-184z" />
    <glyph glyph-name="uni030A.cap" horiz-adv-x="0" 
d="M132 866q0 -58 -36 -92.5t-96 -34.5t-96 34.5t-36 92.5t36 93t96 35t96 -35t36 -93zM43 866q0 21 -11 32.5t-32 11.5t-32 -11.5t-11 -32.5t11.5 -32t31.5 -11t31.5 11t11.5 32z" />
    </font>
</defs>
</svg>
