<svg xmlns="http://www.w3.org/2000/svg" viewBox="0 0 5000 5000"><path d="M4345.60768,1859.83848c-265.02-764.24-991.31006-1312.93994-1845.77-1312.93994-855.18005,0-1581.99,549.63989-1846.44,1314.92993l-1.14-1.11987h-244.79V4453.03843h2077.44q7.45513.06006,14.93.06006c425.73,0,819.6499-136.22022,1140.55-367.43994v366.50976h283.7998V3836.33872c303.34009-323.16015,497.93018-749.6001,525.39014-1220.91015l424.77-634.5,81.06982-121.09009Z" style="fill:#CD214F"/><polygon points="4809.688 1937.649 4452.728 2470.858 3846.378 3376.578 3846.378 4374.369 3718.198 4374.369 3718.198 3376.578 2751.418 1937.649 4809.688 1937.649" style="fill:#fff"/><polygon points="2432.658 1938.509 2432.658 4375.228 485.278 4375.228 485.278 1938.509 620.408 1938.509 626.798 1944.799 2304.428 3594.518 2304.428 1938.509 2432.658 1938.509" style="fill:#fff"/></svg>
